%TF.GenerationSoftware,KiCad,Pcbnew,8.0.0*%
%TF.CreationDate,2025-01-27T00:28:36-06:00*%
%TF.ProjectId,inductor_board,696e6475-6374-46f7-925f-626f6172642e,rev?*%
%TF.SameCoordinates,Original*%
%TF.FileFunction,Soldermask,Bot*%
%TF.FilePolarity,Negative*%
%FSLAX46Y46*%
G04 Gerber Fmt 4.6, Leading zero omitted, Abs format (unit mm)*
G04 Created by KiCad (PCBNEW 8.0.0) date 2025-01-27 00:28:36*
%MOMM*%
%LPD*%
G01*
G04 APERTURE LIST*
G04 Aperture macros list*
%AMRoundRect*
0 Rectangle with rounded corners*
0 $1 Rounding radius*
0 $2 $3 $4 $5 $6 $7 $8 $9 X,Y pos of 4 corners*
0 Add a 4 corners polygon primitive as box body*
4,1,4,$2,$3,$4,$5,$6,$7,$8,$9,$2,$3,0*
0 Add four circle primitives for the rounded corners*
1,1,$1+$1,$2,$3*
1,1,$1+$1,$4,$5*
1,1,$1+$1,$6,$7*
1,1,$1+$1,$8,$9*
0 Add four rect primitives between the rounded corners*
20,1,$1+$1,$2,$3,$4,$5,0*
20,1,$1+$1,$4,$5,$6,$7,0*
20,1,$1+$1,$6,$7,$8,$9,0*
20,1,$1+$1,$8,$9,$2,$3,0*%
G04 Aperture macros list end*
%ADD10C,2.200000*%
%ADD11R,1.800000X1.800000*%
%ADD12C,1.800000*%
%ADD13C,2.500000*%
%ADD14C,2.400000*%
%ADD15RoundRect,0.250000X1.550000X-0.650000X1.550000X0.650000X-1.550000X0.650000X-1.550000X-0.650000X0*%
%ADD16O,3.600000X1.800000*%
%ADD17R,1.600000X1.600000*%
%ADD18O,1.600000X1.600000*%
%ADD19R,1.700000X1.700000*%
%ADD20O,1.700000X1.700000*%
%ADD21R,2.000000X4.600000*%
%ADD22O,2.000000X4.200000*%
%ADD23O,4.200000X2.000000*%
%ADD24O,2.500000X1.600000*%
%ADD25O,7.000000X3.500000*%
%ADD26R,0.700000X3.200000*%
%ADD27R,0.700000X4.300000*%
G04 APERTURE END LIST*
D10*
%TO.C,K5*%
X301547740Y-185942000D03*
X293927740Y-178322000D03*
X301547740Y-178322000D03*
D11*
X301547740Y-196102000D03*
D12*
X293927740Y-196102000D03*
%TD*%
D10*
%TO.C,K3*%
X271547740Y-185942000D03*
X263927740Y-178322000D03*
X271547740Y-178322000D03*
D11*
X271547740Y-196102000D03*
D12*
X263927740Y-196102000D03*
%TD*%
D13*
%TO.C,L1*%
X232357740Y-169559000D03*
X234857740Y-166559000D03*
X235357740Y-169559000D03*
X237857740Y-165059000D03*
X237857740Y-167809000D03*
X237857740Y-171309000D03*
X237857740Y-174059000D03*
X240357740Y-169559000D03*
X240857740Y-172559000D03*
X243357740Y-169559000D03*
%TD*%
D14*
%TO.C,J4*%
X477696240Y-189625500D03*
X477696240Y-161575500D03*
D15*
X476796240Y-185125500D03*
D16*
X476796240Y-181315500D03*
X476796240Y-177505500D03*
X476796240Y-173695500D03*
X476796240Y-169885500D03*
X476796240Y-166075500D03*
%TD*%
D10*
%TO.C,K11*%
X391547740Y-185942000D03*
X383927740Y-178322000D03*
X391547740Y-178322000D03*
D11*
X391547740Y-196102000D03*
D12*
X383927740Y-196102000D03*
%TD*%
D10*
%TO.C,K8*%
X346547740Y-185942000D03*
X338927740Y-178322000D03*
X346547740Y-178322000D03*
D11*
X346547740Y-196102000D03*
D12*
X338927740Y-196102000D03*
%TD*%
D13*
%TO.C,L4*%
X277357740Y-169559000D03*
X279857740Y-166559000D03*
X280357740Y-169559000D03*
X282857740Y-165059000D03*
X282857740Y-167809000D03*
X282857740Y-171309000D03*
X282857740Y-174059000D03*
X285357740Y-169559000D03*
X285857740Y-172559000D03*
X288357740Y-169559000D03*
%TD*%
D10*
%TO.C,K1*%
X241547740Y-185942000D03*
X233927740Y-178322000D03*
X241547740Y-178322000D03*
D11*
X241547740Y-196102000D03*
D12*
X233927740Y-196102000D03*
%TD*%
D13*
%TO.C,L16*%
X457357740Y-169559000D03*
X459857740Y-166559000D03*
X460357740Y-169559000D03*
X462857740Y-165059000D03*
X462857740Y-167809000D03*
X462857740Y-171309000D03*
X462857740Y-174059000D03*
X465357740Y-169559000D03*
X465857740Y-172559000D03*
X468357740Y-169559000D03*
%TD*%
D17*
%TO.C,SW2*%
X223796240Y-212940500D03*
D18*
X223796240Y-210400500D03*
X223796240Y-207860500D03*
X223796240Y-205320500D03*
X223796240Y-202780500D03*
X223796240Y-200240500D03*
X223796240Y-197700500D03*
X223796240Y-195160500D03*
X216176240Y-195160500D03*
X216176240Y-197700500D03*
X216176240Y-200240500D03*
X216176240Y-202780500D03*
X216176240Y-205320500D03*
X216176240Y-207860500D03*
X216176240Y-210400500D03*
X216176240Y-212940500D03*
%TD*%
D10*
%TO.C,K2*%
X256547740Y-185942000D03*
X248927740Y-178322000D03*
X256547740Y-178322000D03*
D11*
X256547740Y-196102000D03*
D12*
X248927740Y-196102000D03*
%TD*%
D10*
%TO.C,K14*%
X436547740Y-185942000D03*
X428927740Y-178322000D03*
X436547740Y-178322000D03*
D11*
X436547740Y-196102000D03*
D12*
X428927740Y-196102000D03*
%TD*%
D10*
%TO.C,K15*%
X451547740Y-185942000D03*
X443927740Y-178322000D03*
X451547740Y-178322000D03*
D11*
X451547740Y-196102000D03*
D12*
X443927740Y-196102000D03*
%TD*%
D10*
%TO.C,K16*%
X466547740Y-185942000D03*
X458927740Y-178322000D03*
X466547740Y-178322000D03*
D11*
X466547740Y-196102000D03*
D12*
X458927740Y-196102000D03*
%TD*%
D13*
%TO.C,L5*%
X292357740Y-169559000D03*
X294857740Y-166559000D03*
X295357740Y-169559000D03*
X297857740Y-165059000D03*
X297857740Y-167809000D03*
X297857740Y-171309000D03*
X297857740Y-174059000D03*
X300357740Y-169559000D03*
X300857740Y-172559000D03*
X303357740Y-169559000D03*
%TD*%
D10*
%TO.C,K12*%
X406547740Y-185942000D03*
X398927740Y-178322000D03*
X406547740Y-178322000D03*
D11*
X406547740Y-196102000D03*
D12*
X398927740Y-196102000D03*
%TD*%
D13*
%TO.C,L12*%
X397357740Y-169559000D03*
X399857740Y-166559000D03*
X400357740Y-169559000D03*
X402857740Y-165059000D03*
X402857740Y-167809000D03*
X402857740Y-171309000D03*
X402857740Y-174059000D03*
X405357740Y-169559000D03*
X405857740Y-172559000D03*
X408357740Y-169559000D03*
%TD*%
D10*
%TO.C,K4*%
X286547740Y-185942000D03*
X278927740Y-178322000D03*
X286547740Y-178322000D03*
D11*
X286547740Y-196102000D03*
D12*
X278927740Y-196102000D03*
%TD*%
D10*
%TO.C,K10*%
X376547740Y-185942000D03*
X368927740Y-178322000D03*
X376547740Y-178322000D03*
D11*
X376547740Y-196102000D03*
D12*
X368927740Y-196102000D03*
%TD*%
D13*
%TO.C,L7*%
X322357740Y-169559000D03*
X324857740Y-166559000D03*
X325357740Y-169559000D03*
X327857740Y-165059000D03*
X327857740Y-167809000D03*
X327857740Y-171309000D03*
X327857740Y-174059000D03*
X330357740Y-169559000D03*
X330857740Y-172559000D03*
X333357740Y-169559000D03*
%TD*%
D17*
%TO.C,SW1*%
X223836240Y-237855500D03*
D18*
X223836240Y-235315500D03*
X223836240Y-232775500D03*
X223836240Y-230235500D03*
X223836240Y-227695500D03*
X223836240Y-225155500D03*
X223836240Y-222615500D03*
X223836240Y-220075500D03*
X216216240Y-220075500D03*
X216216240Y-222615500D03*
X216216240Y-225155500D03*
X216216240Y-227695500D03*
X216216240Y-230235500D03*
X216216240Y-232775500D03*
X216216240Y-235315500D03*
X216216240Y-237855500D03*
%TD*%
D13*
%TO.C,L10*%
X367357740Y-169559000D03*
X369857740Y-166559000D03*
X370357740Y-169559000D03*
X372857740Y-165059000D03*
X372857740Y-167809000D03*
X372857740Y-171309000D03*
X372857740Y-174059000D03*
X375357740Y-169559000D03*
X375857740Y-172559000D03*
X378357740Y-169559000D03*
%TD*%
D19*
%TO.C,J3*%
X212796240Y-195130500D03*
D20*
X212796240Y-197670500D03*
X212796240Y-200210500D03*
X212796240Y-202750500D03*
X212796240Y-205290500D03*
X212796240Y-207830500D03*
X212796240Y-210370500D03*
X212796240Y-212910500D03*
X212796240Y-215450500D03*
X212796240Y-217990500D03*
X212796240Y-220530500D03*
X212796240Y-223070500D03*
X212796240Y-225610500D03*
X212796240Y-228150500D03*
X212796240Y-230690500D03*
X212796240Y-233230500D03*
X212796240Y-235770500D03*
X212796240Y-238310500D03*
%TD*%
D13*
%TO.C,L8*%
X337357740Y-169559000D03*
X339857740Y-166559000D03*
X340357740Y-169559000D03*
X342857740Y-165059000D03*
X342857740Y-167809000D03*
X342857740Y-171309000D03*
X342857740Y-174059000D03*
X345357740Y-169559000D03*
X345857740Y-172559000D03*
X348357740Y-169559000D03*
%TD*%
D10*
%TO.C,K9*%
X361547740Y-185942000D03*
X353927740Y-178322000D03*
X361547740Y-178322000D03*
D11*
X361547740Y-196102000D03*
D12*
X353927740Y-196102000D03*
%TD*%
D13*
%TO.C,L11*%
X382357740Y-169559000D03*
X384857740Y-166559000D03*
X385357740Y-169559000D03*
X387857740Y-165059000D03*
X387857740Y-167809000D03*
X387857740Y-171309000D03*
X387857740Y-174059000D03*
X390357740Y-169559000D03*
X390857740Y-172559000D03*
X393357740Y-169559000D03*
%TD*%
D10*
%TO.C,K6*%
X316547740Y-185942000D03*
X308927740Y-178322000D03*
X316547740Y-178322000D03*
D11*
X316547740Y-196102000D03*
D12*
X308927740Y-196102000D03*
%TD*%
D13*
%TO.C,L2*%
X247357740Y-169559000D03*
X249857740Y-166559000D03*
X250357740Y-169559000D03*
X252857740Y-165059000D03*
X252857740Y-167809000D03*
X252857740Y-171309000D03*
X252857740Y-174059000D03*
X255357740Y-169559000D03*
X255857740Y-172559000D03*
X258357740Y-169559000D03*
%TD*%
%TO.C,L9*%
X352357740Y-169559000D03*
X354857740Y-166559000D03*
X355357740Y-169559000D03*
X357857740Y-165059000D03*
X357857740Y-167809000D03*
X357857740Y-171309000D03*
X357857740Y-174059000D03*
X360357740Y-169559000D03*
X360857740Y-172559000D03*
X363357740Y-169559000D03*
%TD*%
D21*
%TO.C,J2*%
X225146240Y-184050500D03*
D22*
X218846240Y-184050500D03*
D23*
X222246240Y-188850500D03*
%TD*%
D13*
%TO.C,L6*%
X307357740Y-169559000D03*
X309857740Y-166559000D03*
X310357740Y-169559000D03*
X312857740Y-165059000D03*
X312857740Y-167809000D03*
X312857740Y-171309000D03*
X312857740Y-174059000D03*
X315357740Y-169559000D03*
X315857740Y-172559000D03*
X318357740Y-169559000D03*
%TD*%
D24*
%TO.C,J1*%
X223921240Y-169575500D03*
D25*
X218841240Y-174655500D03*
D24*
X223921240Y-172115500D03*
D25*
X218841240Y-164495500D03*
%TD*%
D13*
%TO.C,L3*%
X262357740Y-169559000D03*
X264857740Y-166559000D03*
X265357740Y-169559000D03*
X267857740Y-165059000D03*
X267857740Y-167809000D03*
X267857740Y-171309000D03*
X267857740Y-174059000D03*
X270357740Y-169559000D03*
X270857740Y-172559000D03*
X273357740Y-169559000D03*
%TD*%
D26*
%TO.C,E1*%
X255831240Y-244685500D03*
D27*
X256831240Y-245235500D03*
X257831240Y-245235500D03*
X258831240Y-245235500D03*
X259831240Y-245235500D03*
X260831240Y-245235500D03*
X261831240Y-245235500D03*
X262831240Y-245235500D03*
X263831240Y-245235500D03*
X264831240Y-245235500D03*
X265831240Y-245235500D03*
X268831240Y-245235500D03*
X269831240Y-245235500D03*
X270831240Y-245235500D03*
X271831240Y-245235500D03*
X272831240Y-245235500D03*
X273831240Y-245235500D03*
X274831240Y-245235500D03*
X275831240Y-245235500D03*
X276831240Y-245235500D03*
X277831240Y-245235500D03*
X278831240Y-245235500D03*
X279831240Y-245235500D03*
X280831240Y-245235500D03*
X281831240Y-245235500D03*
X282831240Y-245235500D03*
X283831240Y-245235500D03*
X284831240Y-245235500D03*
X285831240Y-245235500D03*
X286831240Y-245235500D03*
X287831240Y-245235500D03*
X288831240Y-245235500D03*
X289831240Y-245235500D03*
X290831240Y-245235500D03*
X291831240Y-245235500D03*
X292831240Y-245235500D03*
X293831240Y-245235500D03*
X294831240Y-245235500D03*
X295831240Y-245235500D03*
X296831240Y-245235500D03*
X297831240Y-245235500D03*
X298831240Y-245235500D03*
X299831240Y-245235500D03*
X300831240Y-245235500D03*
X301831240Y-245235500D03*
X302831240Y-245235500D03*
X303831240Y-245235500D03*
X304831240Y-245235500D03*
X305831240Y-245235500D03*
X306831240Y-245235500D03*
X307831240Y-245235500D03*
X308831240Y-245235500D03*
X309831240Y-245235500D03*
X310831240Y-245235500D03*
X311831240Y-245235500D03*
X312831240Y-245235500D03*
X313831240Y-245235500D03*
X314831240Y-245235500D03*
X315831240Y-245235500D03*
X316831240Y-245235500D03*
X317831240Y-245235500D03*
X318831240Y-245235500D03*
X319831240Y-245235500D03*
X320831240Y-245235500D03*
X321831240Y-245235500D03*
X322831240Y-245235500D03*
X323831240Y-245235500D03*
X324831240Y-245235500D03*
X325831240Y-245235500D03*
X326831240Y-245235500D03*
X327831240Y-245235500D03*
X328831240Y-245235500D03*
X329831240Y-245235500D03*
X330831240Y-245235500D03*
X331831240Y-245235500D03*
X332831240Y-245235500D03*
X333831240Y-245235500D03*
X334831240Y-245235500D03*
X335831240Y-245235500D03*
X336831240Y-245235500D03*
X337831240Y-245235500D03*
X338831240Y-245235500D03*
%TD*%
D10*
%TO.C,K7*%
X331547740Y-185942000D03*
X323927740Y-178322000D03*
X331547740Y-178322000D03*
D11*
X331547740Y-196102000D03*
D12*
X323927740Y-196102000D03*
%TD*%
D13*
%TO.C,L14*%
X427357740Y-169559000D03*
X429857740Y-166559000D03*
X430357740Y-169559000D03*
X432857740Y-165059000D03*
X432857740Y-167809000D03*
X432857740Y-171309000D03*
X432857740Y-174059000D03*
X435357740Y-169559000D03*
X435857740Y-172559000D03*
X438357740Y-169559000D03*
%TD*%
%TO.C,L15*%
X442357740Y-169559000D03*
X444857740Y-166559000D03*
X445357740Y-169559000D03*
X447857740Y-165059000D03*
X447857740Y-167809000D03*
X447857740Y-171309000D03*
X447857740Y-174059000D03*
X450357740Y-169559000D03*
X450857740Y-172559000D03*
X453357740Y-169559000D03*
%TD*%
D10*
%TO.C,K13*%
X421547740Y-185942000D03*
X413927740Y-178322000D03*
X421547740Y-178322000D03*
D11*
X421547740Y-196102000D03*
D12*
X413927740Y-196102000D03*
%TD*%
D13*
%TO.C,L13*%
X412357740Y-169559000D03*
X414857740Y-166559000D03*
X415357740Y-169559000D03*
X417857740Y-165059000D03*
X417857740Y-167809000D03*
X417857740Y-171309000D03*
X417857740Y-174059000D03*
X420357740Y-169559000D03*
X420857740Y-172559000D03*
X423357740Y-169559000D03*
%TD*%
M02*
