M48
; DRILL file {KiCad 8.0.0} date 2025-01-27T00:28:37-0600
; FORMAT={-:-/ absolute / inch / decimal}
; #@! TF.CreationDate,2025-01-27T00:28:37-06:00
; #@! TF.GenerationSoftware,Kicad,Pcbnew,8.0.0
; #@! TF.FileFunction,Plated,1,2,PTH
FMAT,2
INCH
; #@! TA.AperFunction,Plated,PTH,ViaDrill
T1C0.0118
; #@! TA.AperFunction,Plated,PTH,ComponentDrill
T2C0.0315
; #@! TA.AperFunction,Plated,PTH,ComponentDrill
T3C0.0350
; #@! TA.AperFunction,Plated,PTH,ComponentDrill
T4C0.0394
; #@! TA.AperFunction,Plated,PTH,ComponentDrill
T5C0.0472
; #@! TA.AperFunction,Plated,PTH,ViaDrill
T6C0.0539
; #@! TA.AperFunction,Plated,PTH,ComponentDrill
T7C0.0539
; #@! TA.AperFunction,Plated,PTH,ComponentDrill
T8C0.0791
%
G90
G05
T1
X9.306Y-8.3856
X9.4753Y-8.5217
X9.6268Y-8.4031
X9.8966Y-8.3856
X9.8966Y-8.3856
X10.0659Y-8.5217
X10.1115Y-9.4715
X10.1902Y-9.4356
X10.2174Y-8.4031
X10.426Y-9.5148
X10.4871Y-8.3856
X10.4871Y-8.3856
X10.4878Y-9.0963
X10.6564Y-8.5217
X10.8079Y-8.4031
X11.0777Y-8.3856
X11.0777Y-8.3856
X11.0815Y-8.6122
X11.247Y-8.5217
X11.3985Y-8.4031
X11.5855Y-8.6309
X11.6682Y-8.3856
X11.6682Y-8.3856
X11.8375Y-8.5217
X11.989Y-8.4031
X12.2588Y-8.3856
X12.2588Y-8.3856
X12.4281Y-8.5217
X12.5796Y-8.4031
X12.8493Y-8.3856
X12.8493Y-8.3856
X13.0187Y-8.5217
X13.1701Y-8.4031
X13.4399Y-8.3856
X13.4399Y-8.3856
X13.6092Y-8.5217
X13.7607Y-8.4031
X14.0304Y-8.3856
X14.0304Y-8.3856
X14.1998Y-8.5217
X14.3512Y-8.4031
X14.621Y-8.3856
X14.621Y-8.3856
X14.7903Y-8.5217
X14.9418Y-8.4031
X15.2115Y-8.3856
X15.2115Y-8.3856
X15.3809Y-8.5217
X15.4712Y-8.4756
X15.5323Y-8.4031
X15.6189Y-8.8042
X15.8021Y-8.3856
X15.8021Y-8.3856
X15.9714Y-8.5217
X16.1229Y-8.4031
X16.3926Y-8.3856
X16.3926Y-8.3856
X16.562Y-8.5217
X16.7134Y-8.4031
X16.9832Y-8.3856
X16.9832Y-8.3856
X17.1525Y-8.5217
X17.304Y-8.4031
X17.3591Y-8.8238
X17.5737Y-8.3856
X17.5737Y-8.3856
X17.7431Y-8.5217
X17.8945Y-8.4031
X18.1643Y-8.3856
X18.1643Y-8.3856
X18.2075Y-8.8908
X18.3138Y-8.8908
X18.3336Y-8.5217
X18.3798Y-8.7333
X18.489Y-8.3691
X18.7833Y-8.753
X18.7833Y-8.8219
X18.7833Y-8.9006
X18.8227Y-8.7825
X18.8227Y-8.8612
X18.8621Y-8.753
X18.8621Y-8.8219
X18.8621Y-8.9006
X18.9014Y-8.7825
X18.9014Y-8.8612
X18.9408Y-8.753
X18.9408Y-8.8219
X18.9408Y-8.8908
T2
X8.5109Y-7.6835
X8.5109Y-7.7835
X8.5109Y-7.8835
X8.5109Y-7.9835
X8.5109Y-8.0835
X8.5109Y-8.1835
X8.5109Y-8.2835
X8.5109Y-8.3835
X8.5125Y-8.6644
X8.5125Y-8.7644
X8.5125Y-8.8644
X8.5125Y-8.9644
X8.5125Y-9.0644
X8.5125Y-9.1644
X8.5125Y-9.2644
X8.5125Y-9.3644
X8.8109Y-7.6835
X8.8109Y-7.7835
X8.8109Y-7.8835
X8.8109Y-7.9835
X8.8109Y-8.0835
X8.8109Y-8.1835
X8.8109Y-8.2835
X8.8109Y-8.3835
X8.8125Y-8.6644
X8.8125Y-8.7644
X8.8125Y-8.8644
X8.8125Y-8.9644
X8.8125Y-9.0644
X8.8125Y-9.1644
X8.8125Y-9.2644
X8.8125Y-9.3644
T3
X8.8158Y-6.6762
X8.8158Y-6.7762
T4
X8.3778Y-7.6823
X8.3778Y-7.7823
X8.3778Y-7.8823
X8.3778Y-7.9823
X8.3778Y-8.0823
X8.3778Y-8.1823
X8.3778Y-8.2823
X8.3778Y-8.3823
X8.3778Y-8.4823
X8.3778Y-8.5823
X8.3778Y-8.6823
X8.3778Y-8.7823
X8.3778Y-8.8823
X8.3778Y-8.9823
X8.3778Y-9.0823
X8.3778Y-9.1823
X8.3778Y-9.2823
X8.3778Y-9.3823
X9.2098Y-7.7206
X9.5098Y-7.7206
X9.8003Y-7.7206
X10.1003Y-7.7206
X10.3909Y-7.7206
X10.6909Y-7.7206
X10.9814Y-7.7206
X11.2814Y-7.7206
X11.572Y-7.7206
X11.872Y-7.7206
X12.1625Y-7.7206
X12.4625Y-7.7206
X12.7531Y-7.7206
X13.0531Y-7.7206
X13.3436Y-7.7206
X13.6436Y-7.7206
X13.9342Y-7.7206
X14.2342Y-7.7206
X14.5247Y-7.7206
X14.8247Y-7.7206
X15.1153Y-7.7206
X15.4153Y-7.7206
X15.7058Y-7.7206
X16.0058Y-7.7206
X16.2964Y-7.7206
X16.5964Y-7.7206
X16.8869Y-7.7206
X17.1869Y-7.7206
X17.4775Y-7.7206
X17.7775Y-7.7206
X18.068Y-7.7206
X18.368Y-7.7206
T5
X9.2098Y-7.0206
X9.5098Y-7.0206
X9.5098Y-7.3206
X9.8003Y-7.0206
X10.1003Y-7.0206
X10.1003Y-7.3206
X10.3909Y-7.0206
X10.6909Y-7.0206
X10.6909Y-7.3206
X10.9814Y-7.0206
X11.2814Y-7.0206
X11.2814Y-7.3206
X11.572Y-7.0206
X11.872Y-7.0206
X11.872Y-7.3206
X12.1625Y-7.0206
X12.4625Y-7.0206
X12.4625Y-7.3206
X12.7531Y-7.0206
X13.0531Y-7.0206
X13.0531Y-7.3206
X13.3436Y-7.0206
X13.6436Y-7.0206
X13.6436Y-7.3206
X13.9342Y-7.0206
X14.2342Y-7.0206
X14.2342Y-7.3206
X14.5247Y-7.0206
X14.8247Y-7.0206
X14.8247Y-7.3206
X15.1153Y-7.0206
X15.4153Y-7.0206
X15.4153Y-7.3206
X15.7058Y-7.0206
X16.0058Y-7.0206
X16.0058Y-7.3206
X16.2964Y-7.0206
X16.5964Y-7.0206
X16.5964Y-7.3206
X16.8869Y-7.0206
X17.1869Y-7.0206
X17.1869Y-7.3206
X17.4775Y-7.0206
X17.7775Y-7.0206
X17.7775Y-7.3206
X18.068Y-7.0206
X18.368Y-7.0206
X18.368Y-7.3206
X18.7715Y-6.5384
X18.7715Y-6.6884
X18.7715Y-6.8384
X18.7715Y-6.9884
X18.7715Y-7.1384
X18.7715Y-7.2884
T6
X9.3668Y-8.2136
X9.3689Y-7.4695
X9.9574Y-8.2136
X9.9595Y-7.4695
X10.5479Y-8.2136
X10.55Y-7.4695
X11.1385Y-8.2136
X11.1406Y-7.4695
X11.729Y-8.2136
X11.7312Y-7.4695
X12.3196Y-8.2136
X12.3217Y-7.4695
X12.9101Y-8.2136
X12.9123Y-7.4695
X13.5007Y-8.2136
X13.5028Y-7.4695
X14.0912Y-8.2136
X14.0934Y-7.4695
X14.6818Y-8.2136
X14.6839Y-7.4695
X15.2723Y-8.2136
X15.2745Y-7.4695
X15.8629Y-8.2136
X15.865Y-7.4695
X16.4534Y-8.2136
X16.4556Y-7.4695
X17.044Y-8.2136
X17.0461Y-7.4695
X17.6345Y-8.2136
X17.6367Y-7.4695
X18.2251Y-8.2136
X18.2272Y-7.4695
T7
X9.1479Y-6.6756
X9.2464Y-6.5574
X9.2661Y-6.6756
X9.3645Y-6.4984
X9.3645Y-6.6067
X9.3645Y-6.7444
X9.3645Y-6.8527
X9.4629Y-6.6756
X9.4826Y-6.7937
X9.581Y-6.6756
X9.7385Y-6.6756
X9.8369Y-6.5574
X9.8566Y-6.6756
X9.955Y-6.4984
X9.955Y-6.6067
X9.955Y-6.7444
X9.955Y-6.8527
X10.0535Y-6.6756
X10.0731Y-6.7937
X10.1716Y-6.6756
X10.329Y-6.6756
X10.4275Y-6.5574
X10.4472Y-6.6756
X10.5456Y-6.4984
X10.5456Y-6.6067
X10.5456Y-6.7444
X10.5456Y-6.8527
X10.644Y-6.6756
X10.6637Y-6.7937
X10.7621Y-6.6756
X10.9196Y-6.6756
X11.018Y-6.5574
X11.0377Y-6.6756
X11.1361Y-6.4984
X11.1361Y-6.6067
X11.1361Y-6.7444
X11.1361Y-6.8527
X11.2346Y-6.6756
X11.2542Y-6.7937
X11.3527Y-6.6756
X11.5101Y-6.6756
X11.6086Y-6.5574
X11.6283Y-6.6756
X11.7267Y-6.4984
X11.7267Y-6.6067
X11.7267Y-6.7444
X11.7267Y-6.8527
X11.8251Y-6.6756
X11.8448Y-6.7937
X11.9432Y-6.6756
X12.1007Y-6.6756
X12.1991Y-6.5574
X12.2188Y-6.6756
X12.3172Y-6.4984
X12.3172Y-6.6067
X12.3172Y-6.7444
X12.3172Y-6.8527
X12.4157Y-6.6756
X12.4353Y-6.7937
X12.5338Y-6.6756
X12.6912Y-6.6756
X12.7897Y-6.5574
X12.8094Y-6.6756
X12.9078Y-6.4984
X12.9078Y-6.6067
X12.9078Y-6.7444
X12.9078Y-6.8527
X13.0062Y-6.6756
X13.0259Y-6.7937
X13.1243Y-6.6756
X13.2818Y-6.6756
X13.3802Y-6.5574
X13.3999Y-6.6756
X13.4983Y-6.4984
X13.4983Y-6.6067
X13.4983Y-6.7444
X13.4983Y-6.8527
X13.5968Y-6.6756
X13.6164Y-6.7937
X13.7149Y-6.6756
X13.8724Y-6.6756
X13.9708Y-6.5574
X13.9905Y-6.6756
X14.0889Y-6.4984
X14.0889Y-6.6067
X14.0889Y-6.7444
X14.0889Y-6.8527
X14.1873Y-6.6756
X14.207Y-6.7937
X14.3054Y-6.6756
X14.4629Y-6.6756
X14.5613Y-6.5574
X14.581Y-6.6756
X14.6794Y-6.4984
X14.6794Y-6.6067
X14.6794Y-6.7444
X14.6794Y-6.8527
X14.7779Y-6.6756
X14.7975Y-6.7937
X14.896Y-6.6756
X15.0535Y-6.6756
X15.1519Y-6.5574
X15.1716Y-6.6756
X15.27Y-6.4984
X15.27Y-6.6067
X15.27Y-6.7444
X15.27Y-6.8527
X15.3684Y-6.6756
X15.3881Y-6.7937
X15.4865Y-6.6756
X15.644Y-6.6756
X15.7424Y-6.5574
X15.7621Y-6.6756
X15.8605Y-6.4984
X15.8605Y-6.6067
X15.8605Y-6.7444
X15.8605Y-6.8527
X15.959Y-6.6756
X15.9787Y-6.7937
X16.0771Y-6.6756
X16.2346Y-6.6756
X16.333Y-6.5574
X16.3527Y-6.6756
X16.4511Y-6.4984
X16.4511Y-6.6067
X16.4511Y-6.7444
X16.4511Y-6.8527
X16.5495Y-6.6756
X16.5692Y-6.7937
X16.6676Y-6.6756
X16.8251Y-6.6756
X16.9235Y-6.5574
X16.9432Y-6.6756
X17.0416Y-6.4984
X17.0416Y-6.6067
X17.0416Y-6.7444
X17.0416Y-6.8527
X17.1401Y-6.6756
X17.1598Y-6.7937
X17.2582Y-6.6756
X17.4157Y-6.6756
X17.5141Y-6.5574
X17.5338Y-6.6756
X17.6322Y-6.4984
X17.6322Y-6.6067
X17.6322Y-6.7444
X17.6322Y-6.8527
X17.7306Y-6.6756
X17.7503Y-6.7937
X17.8487Y-6.6756
X18.0062Y-6.6756
X18.1046Y-6.5574
X18.1243Y-6.6756
X18.2227Y-6.4984
X18.2227Y-6.6067
X18.2227Y-6.7444
X18.2227Y-6.8527
X18.3212Y-6.6756
X18.3409Y-6.7937
X18.4393Y-6.6756
T8
X8.6158Y-6.4762
X8.6158Y-6.8762
T4
G00X8.616Y-7.2028
M15
G01X8.616Y-7.2894
M16
G05
G00X8.7932Y-7.4351
M15
G01X8.7065Y-7.4351
M16
G05
G00X8.864Y-7.1949
M15
G01X8.864Y-7.2973
M16
G05
M30
