%TF.GenerationSoftware,KiCad,Pcbnew,8.0.0*%
%TF.CreationDate,2025-01-27T00:28:36-06:00*%
%TF.ProjectId,inductor_board,696e6475-6374-46f7-925f-626f6172642e,rev?*%
%TF.SameCoordinates,Original*%
%TF.FileFunction,Copper,L1,Top*%
%TF.FilePolarity,Positive*%
%FSLAX46Y46*%
G04 Gerber Fmt 4.6, Leading zero omitted, Abs format (unit mm)*
G04 Created by KiCad (PCBNEW 8.0.0) date 2025-01-27 00:28:36*
%MOMM*%
%LPD*%
G01*
G04 APERTURE LIST*
G04 Aperture macros list*
%AMRoundRect*
0 Rectangle with rounded corners*
0 $1 Rounding radius*
0 $2 $3 $4 $5 $6 $7 $8 $9 X,Y pos of 4 corners*
0 Add a 4 corners polygon primitive as box body*
4,1,4,$2,$3,$4,$5,$6,$7,$8,$9,$2,$3,0*
0 Add four circle primitives for the rounded corners*
1,1,$1+$1,$2,$3*
1,1,$1+$1,$4,$5*
1,1,$1+$1,$6,$7*
1,1,$1+$1,$8,$9*
0 Add four rect primitives between the rounded corners*
20,1,$1+$1,$2,$3,$4,$5,0*
20,1,$1+$1,$4,$5,$6,$7,0*
20,1,$1+$1,$6,$7,$8,$9,0*
20,1,$1+$1,$8,$9,$2,$3,0*%
%AMFreePoly0*
4,1,19,0.500000,-0.750000,0.000000,-0.750000,0.000000,-0.744911,-0.071157,-0.744911,-0.207708,-0.704816,-0.327430,-0.627875,-0.420627,-0.520320,-0.479746,-0.390866,-0.500000,-0.250000,-0.500000,0.250000,-0.479746,0.390866,-0.420627,0.520320,-0.327430,0.627875,-0.207708,0.704816,-0.071157,0.744911,0.000000,0.744911,0.000000,0.750000,0.500000,0.750000,0.500000,-0.750000,0.500000,-0.750000,
$1*%
%AMFreePoly1*
4,1,19,0.000000,0.744911,0.071157,0.744911,0.207708,0.704816,0.327430,0.627875,0.420627,0.520320,0.479746,0.390866,0.500000,0.250000,0.500000,-0.250000,0.479746,-0.390866,0.420627,-0.520320,0.327430,-0.627875,0.207708,-0.704816,0.071157,-0.744911,0.000000,-0.744911,0.000000,-0.750000,-0.500000,-0.750000,-0.500000,0.750000,0.000000,0.750000,0.000000,0.744911,0.000000,0.744911,
$1*%
G04 Aperture macros list end*
%TA.AperFunction,SMDPad,CuDef*%
%ADD10FreePoly0,0.000000*%
%TD*%
%TA.AperFunction,SMDPad,CuDef*%
%ADD11FreePoly1,0.000000*%
%TD*%
%TA.AperFunction,SMDPad,CuDef*%
%ADD12RoundRect,0.375000X-0.625000X-0.375000X0.625000X-0.375000X0.625000X0.375000X-0.625000X0.375000X0*%
%TD*%
%TA.AperFunction,SMDPad,CuDef*%
%ADD13RoundRect,0.500000X-0.500000X-1.400000X0.500000X-1.400000X0.500000X1.400000X-0.500000X1.400000X0*%
%TD*%
%TA.AperFunction,SMDPad,CuDef*%
%ADD14RoundRect,0.237500X0.237500X-0.250000X0.237500X0.250000X-0.237500X0.250000X-0.237500X-0.250000X0*%
%TD*%
%TA.AperFunction,SMDPad,CuDef*%
%ADD15RoundRect,0.237500X0.237500X-0.287500X0.237500X0.287500X-0.237500X0.287500X-0.237500X-0.287500X0*%
%TD*%
%TA.AperFunction,SMDPad,CuDef*%
%ADD16RoundRect,0.250000X0.450000X-0.350000X0.450000X0.350000X-0.450000X0.350000X-0.450000X-0.350000X0*%
%TD*%
%TA.AperFunction,SMDPad,CuDef*%
%ADD17RoundRect,0.250000X-0.337500X-0.475000X0.337500X-0.475000X0.337500X0.475000X-0.337500X0.475000X0*%
%TD*%
%TA.AperFunction,SMDPad,CuDef*%
%ADD18R,1.200000X0.800000*%
%TD*%
%TA.AperFunction,ComponentPad*%
%ADD19C,2.200000*%
%TD*%
%TA.AperFunction,ComponentPad*%
%ADD20R,1.800000X1.800000*%
%TD*%
%TA.AperFunction,ComponentPad*%
%ADD21C,1.800000*%
%TD*%
%TA.AperFunction,SMDPad,CuDef*%
%ADD22RoundRect,0.237500X-0.237500X0.250000X-0.237500X-0.250000X0.237500X-0.250000X0.237500X0.250000X0*%
%TD*%
%TA.AperFunction,SMDPad,CuDef*%
%ADD23RoundRect,0.237500X-0.250000X-0.237500X0.250000X-0.237500X0.250000X0.237500X-0.250000X0.237500X0*%
%TD*%
%TA.AperFunction,ComponentPad*%
%ADD24C,2.500000*%
%TD*%
%TA.AperFunction,ComponentPad*%
%ADD25RoundRect,0.250000X1.550000X-0.650000X1.550000X0.650000X-1.550000X0.650000X-1.550000X-0.650000X0*%
%TD*%
%TA.AperFunction,ComponentPad*%
%ADD26O,3.600000X1.800000*%
%TD*%
%TA.AperFunction,ComponentPad*%
%ADD27R,1.600000X1.600000*%
%TD*%
%TA.AperFunction,ComponentPad*%
%ADD28O,1.600000X1.600000*%
%TD*%
%TA.AperFunction,ComponentPad*%
%ADD29R,1.700000X1.700000*%
%TD*%
%TA.AperFunction,ComponentPad*%
%ADD30O,1.700000X1.700000*%
%TD*%
%TA.AperFunction,ComponentPad*%
%ADD31R,2.000000X4.600000*%
%TD*%
%TA.AperFunction,ComponentPad*%
%ADD32O,2.000000X4.200000*%
%TD*%
%TA.AperFunction,ComponentPad*%
%ADD33O,4.200000X2.000000*%
%TD*%
%TA.AperFunction,ComponentPad*%
%ADD34O,2.500000X1.600000*%
%TD*%
%TA.AperFunction,ComponentPad*%
%ADD35O,7.000000X3.500000*%
%TD*%
%TA.AperFunction,ConnectorPad*%
%ADD36R,0.700000X4.300000*%
%TD*%
%TA.AperFunction,ConnectorPad*%
%ADD37R,0.700000X3.200000*%
%TD*%
%TA.AperFunction,SMDPad,CuDef*%
%ADD38RoundRect,0.250000X-0.850000X-0.350000X0.850000X-0.350000X0.850000X0.350000X-0.850000X0.350000X0*%
%TD*%
%TA.AperFunction,SMDPad,CuDef*%
%ADD39RoundRect,0.250000X-1.275000X-1.125000X1.275000X-1.125000X1.275000X1.125000X-1.275000X1.125000X0*%
%TD*%
%TA.AperFunction,SMDPad,CuDef*%
%ADD40RoundRect,0.249997X-2.950003X-2.650003X2.950003X-2.650003X2.950003X2.650003X-2.950003X2.650003X0*%
%TD*%
%TA.AperFunction,ViaPad*%
%ADD41C,0.600000*%
%TD*%
%TA.AperFunction,ViaPad*%
%ADD42C,2.500000*%
%TD*%
%TA.AperFunction,Conductor*%
%ADD43C,1.000000*%
%TD*%
%TA.AperFunction,Conductor*%
%ADD44C,0.500000*%
%TD*%
%TA.AperFunction,Conductor*%
%ADD45C,2.000000*%
%TD*%
%TA.AperFunction,Conductor*%
%ADD46C,4.000000*%
%TD*%
%TA.AperFunction,Conductor*%
%ADD47C,1.500000*%
%TD*%
G04 APERTURE END LIST*
D10*
%TO.P,JP17,1,A*%
%TO.N,+24V*%
X468221240Y-221738000D03*
D11*
%TO.P,JP17,2,B*%
%TO.N,Net-(JP17-B)*%
X469521240Y-221738000D03*
%TD*%
D12*
%TO.P,U6,1,ADJ*%
%TO.N,Net-(U6-ADJ)*%
X266238740Y-200787000D03*
%TO.P,U6,2,VO*%
%TO.N,Net-(U6-VO)*%
X266238740Y-203087000D03*
D13*
X272538740Y-203087000D03*
D12*
%TO.P,U6,3,VI*%
%TO.N,Net-(U6-VI)*%
X266238740Y-205387000D03*
%TD*%
D14*
%TO.P,R41,1*%
%TO.N,O8*%
X351948240Y-213082000D03*
%TO.P,R41,2*%
%TO.N,Net-(R41-Pad2)*%
X351948240Y-211257000D03*
%TD*%
D10*
%TO.P,JP14,1,A*%
%TO.N,Net-(JP13-B)*%
X432121240Y-160725500D03*
D11*
%TO.P,JP14,2,B*%
%TO.N,Net-(JP14-B)*%
X433421240Y-160725500D03*
%TD*%
D15*
%TO.P,D12,1,K*%
%TO.N,GND*%
X407976740Y-213600000D03*
%TO.P,D12,2,A*%
%TO.N,Net-(D12-A)*%
X407976740Y-211850000D03*
%TD*%
D16*
%TO.P,R2,1*%
%TO.N,Net-(U4-VI)*%
X247490740Y-207643000D03*
%TO.P,R2,2*%
%TO.N,Net-(U4-VO)*%
X247490740Y-205643000D03*
%TD*%
D17*
%TO.P,C9,1*%
%TO.N,GND*%
X351493240Y-200801000D03*
%TO.P,C9,2*%
%TO.N,Net-(U18-ADJ)*%
X353568240Y-200801000D03*
%TD*%
D18*
%TO.P,U5,1*%
%TO.N,Net-(R35-Pad2)*%
X264373740Y-211088000D03*
%TO.P,U5,3*%
%TO.N,GND*%
X264373740Y-213628000D03*
%TO.P,U5,4*%
%TO.N,+5V*%
X270673740Y-213628000D03*
%TO.P,U5,6*%
%TO.N,Net-(U6-VI)*%
X270673740Y-211088000D03*
%TD*%
D12*
%TO.P,U14,1,ADJ*%
%TO.N,Net-(U14-ADJ)*%
X326238740Y-200787000D03*
%TO.P,U14,2,VO*%
%TO.N,Net-(U14-VO)*%
X326238740Y-203087000D03*
D13*
X332538740Y-203087000D03*
D12*
%TO.P,U14,3,VI*%
%TO.N,Net-(U14-VI)*%
X326238740Y-205387000D03*
%TD*%
D18*
%TO.P,U17,1*%
%TO.N,Net-(R41-Pad2)*%
X354373740Y-211088000D03*
%TO.P,U17,3*%
%TO.N,GND*%
X354373740Y-213628000D03*
%TO.P,U17,4*%
%TO.N,+5V*%
X360673740Y-213628000D03*
%TO.P,U17,6*%
%TO.N,Net-(U18-VI)*%
X360673740Y-211088000D03*
%TD*%
D19*
%TO.P,K5,11*%
%TO.N,Net-(JP5-B)*%
X301547740Y-185942000D03*
%TO.P,K5,12*%
%TO.N,Net-(JP4-B)*%
X293927740Y-178322000D03*
%TO.P,K5,14*%
%TO.N,unconnected-(K5-Pad14)*%
X301547740Y-178322000D03*
D20*
%TO.P,K5,A1*%
%TO.N,Net-(U10-VO)*%
X301547740Y-196102000D03*
D21*
%TO.P,K5,A2*%
%TO.N,GND*%
X293927740Y-196102000D03*
%TD*%
D22*
%TO.P,R50,1*%
%TO.N,Net-(U4-VI)*%
X257976740Y-208270500D03*
%TO.P,R50,2*%
%TO.N,Net-(D2-A)*%
X257976740Y-210095500D03*
%TD*%
D23*
%TO.P,R23,1*%
%TO.N,Net-(U14-ADJ)*%
X321618240Y-203087000D03*
%TO.P,R23,2*%
%TO.N,Net-(U14-VO)*%
X323443240Y-203087000D03*
%TD*%
D14*
%TO.P,R47,1*%
%TO.N,O14*%
X441948240Y-213082000D03*
%TO.P,R47,2*%
%TO.N,Net-(R47-Pad2)*%
X441948240Y-211257000D03*
%TD*%
D16*
%TO.P,R10,1*%
%TO.N,Net-(U20-VI)*%
X367490740Y-207643000D03*
%TO.P,R10,2*%
%TO.N,Net-(U20-VO)*%
X367490740Y-205643000D03*
%TD*%
D22*
%TO.P,R59,1*%
%TO.N,Net-(U22-VI)*%
X392976740Y-208270500D03*
%TO.P,R59,2*%
%TO.N,Net-(D11-A)*%
X392976740Y-210095500D03*
%TD*%
D16*
%TO.P,R1,1*%
%TO.N,Net-(U2-VI)*%
X232490740Y-207643000D03*
%TO.P,R1,2*%
%TO.N,Net-(U2-VO)*%
X232490740Y-205643000D03*
%TD*%
%TO.P,R16,1*%
%TO.N,Net-(U32-VI)*%
X457490740Y-207643000D03*
%TO.P,R16,2*%
%TO.N,Net-(U32-VO)*%
X457490740Y-205643000D03*
%TD*%
%TO.P,R4,1*%
%TO.N,Net-(U8-VI)*%
X277490740Y-207643000D03*
%TO.P,R4,2*%
%TO.N,Net-(U8-VO)*%
X277490740Y-205643000D03*
%TD*%
D19*
%TO.P,K3,11*%
%TO.N,Net-(JP3-B)*%
X271547740Y-185942000D03*
%TO.P,K3,12*%
%TO.N,Net-(JP2-B)*%
X263927740Y-178322000D03*
%TO.P,K3,14*%
%TO.N,unconnected-(K3-Pad14)*%
X271547740Y-178322000D03*
D20*
%TO.P,K3,A1*%
%TO.N,Net-(U6-VO)*%
X271547740Y-196102000D03*
D21*
%TO.P,K3,A2*%
%TO.N,GND*%
X263927740Y-196102000D03*
%TD*%
D24*
%TO.P,L1,1,1*%
%TO.N,Input*%
X232357740Y-169559000D03*
X234857740Y-166559000D03*
X235357740Y-169559000D03*
X237857740Y-165059000D03*
X237857740Y-167809000D03*
%TO.P,L1,2,2*%
%TO.N,Net-(JP1-B)*%
X237857740Y-171309000D03*
X237857740Y-174059000D03*
X240357740Y-169559000D03*
X240857740Y-172559000D03*
X243357740Y-169559000D03*
%TD*%
D25*
%TO.P,J4,1,Pin_1*%
%TO.N,+24V*%
X476796240Y-185125500D03*
D26*
%TO.P,J4,2,Pin_2*%
%TO.N,-24V*%
X476796240Y-181315500D03*
%TO.P,J4,3,Pin_3*%
%TO.N,+12V*%
X476796240Y-177505500D03*
%TO.P,J4,4,Pin_4*%
%TO.N,-12V*%
X476796240Y-173695500D03*
%TO.P,J4,5,Pin_5*%
%TO.N,+5V*%
X476796240Y-169885500D03*
%TO.P,J4,6,Pin_6*%
%TO.N,GND*%
X476796240Y-166075500D03*
%TD*%
D22*
%TO.P,R55,1*%
%TO.N,Net-(U14-VI)*%
X332976740Y-208270500D03*
%TO.P,R55,2*%
%TO.N,Net-(D7-A)*%
X332976740Y-210095500D03*
%TD*%
D23*
%TO.P,R26,1*%
%TO.N,Net-(U20-ADJ)*%
X366618240Y-203087000D03*
%TO.P,R26,2*%
%TO.N,Net-(U20-VO)*%
X368443240Y-203087000D03*
%TD*%
D14*
%TO.P,R40,1*%
%TO.N,O7*%
X336948240Y-213082000D03*
%TO.P,R40,2*%
%TO.N,Net-(R40-Pad2)*%
X336948240Y-211257000D03*
%TD*%
D18*
%TO.P,U19,1*%
%TO.N,Net-(R42-Pad2)*%
X369373740Y-211088000D03*
%TO.P,U19,3*%
%TO.N,GND*%
X369373740Y-213628000D03*
%TO.P,U19,4*%
%TO.N,+5V*%
X375673740Y-213628000D03*
%TO.P,U19,6*%
%TO.N,Net-(U20-VI)*%
X375673740Y-211088000D03*
%TD*%
D14*
%TO.P,R37,1*%
%TO.N,O4*%
X291948240Y-213082000D03*
%TO.P,R37,2*%
%TO.N,Net-(R37-Pad2)*%
X291948240Y-211257000D03*
%TD*%
D18*
%TO.P,U11,1*%
%TO.N,Net-(R38-Pad2)*%
X309373740Y-211088000D03*
%TO.P,U11,3*%
%TO.N,GND*%
X309373740Y-213628000D03*
%TO.P,U11,4*%
%TO.N,+5V*%
X315673740Y-213628000D03*
%TO.P,U11,6*%
%TO.N,Net-(U12-VI)*%
X315673740Y-211088000D03*
%TD*%
D15*
%TO.P,D2,1,K*%
%TO.N,GND*%
X257976740Y-213600000D03*
%TO.P,D2,2,A*%
%TO.N,Net-(D2-A)*%
X257976740Y-211850000D03*
%TD*%
D10*
%TO.P,JP7,1,A*%
%TO.N,Net-(JP6-B)*%
X327121240Y-160725500D03*
D11*
%TO.P,JP7,2,B*%
%TO.N,Net-(JP7-B)*%
X328421240Y-160725500D03*
%TD*%
D10*
%TO.P,JP6,1,A*%
%TO.N,Net-(JP5-B)*%
X312121240Y-160725500D03*
D11*
%TO.P,JP6,2,B*%
%TO.N,Net-(JP6-B)*%
X313421240Y-160725500D03*
%TD*%
D10*
%TO.P,JP1,1,A*%
%TO.N,Input*%
X237121240Y-160725500D03*
D11*
%TO.P,JP1,2,B*%
%TO.N,Net-(JP1-B)*%
X238421240Y-160725500D03*
%TD*%
D22*
%TO.P,R56,1*%
%TO.N,Net-(U16-VI)*%
X347976740Y-208270500D03*
%TO.P,R56,2*%
%TO.N,Net-(D8-A)*%
X347976740Y-210095500D03*
%TD*%
D15*
%TO.P,D6,1,K*%
%TO.N,GND*%
X317976740Y-213600000D03*
%TO.P,D6,2,A*%
%TO.N,Net-(D6-A)*%
X317976740Y-211850000D03*
%TD*%
D17*
%TO.P,C16,1*%
%TO.N,GND*%
X456493240Y-200801000D03*
%TO.P,C16,2*%
%TO.N,Net-(U32-ADJ)*%
X458568240Y-200801000D03*
%TD*%
D10*
%TO.P,JP8,1,A*%
%TO.N,Net-(JP7-B)*%
X342121240Y-160725500D03*
D11*
%TO.P,JP8,2,B*%
%TO.N,Net-(JP8-B)*%
X343421240Y-160725500D03*
%TD*%
D19*
%TO.P,K11,11*%
%TO.N,Net-(JP11-B)*%
X391547740Y-185942000D03*
%TO.P,K11,12*%
%TO.N,Net-(JP10-B)*%
X383927740Y-178322000D03*
%TO.P,K11,14*%
%TO.N,unconnected-(K11-Pad14)*%
X391547740Y-178322000D03*
D20*
%TO.P,K11,A1*%
%TO.N,Net-(U22-VO)*%
X391547740Y-196102000D03*
D21*
%TO.P,K11,A2*%
%TO.N,GND*%
X383927740Y-196102000D03*
%TD*%
D23*
%TO.P,R24,1*%
%TO.N,Net-(U16-ADJ)*%
X336618240Y-203087000D03*
%TO.P,R24,2*%
%TO.N,Net-(U16-VO)*%
X338443240Y-203087000D03*
%TD*%
D14*
%TO.P,R45,1*%
%TO.N,O12*%
X411948240Y-213082000D03*
%TO.P,R45,2*%
%TO.N,Net-(R45-Pad2)*%
X411948240Y-211257000D03*
%TD*%
D22*
%TO.P,R52,1*%
%TO.N,Net-(U8-VI)*%
X287976740Y-208270500D03*
%TO.P,R52,2*%
%TO.N,Net-(D4-A)*%
X287976740Y-210095500D03*
%TD*%
D19*
%TO.P,K8,11*%
%TO.N,Net-(JP8-B)*%
X346547740Y-185942000D03*
%TO.P,K8,12*%
%TO.N,Net-(JP7-B)*%
X338927740Y-178322000D03*
%TO.P,K8,14*%
%TO.N,unconnected-(K8-Pad14)*%
X346547740Y-178322000D03*
D20*
%TO.P,K8,A1*%
%TO.N,Net-(U16-VO)*%
X346547740Y-196102000D03*
D21*
%TO.P,K8,A2*%
%TO.N,GND*%
X338927740Y-196102000D03*
%TD*%
D16*
%TO.P,R5,1*%
%TO.N,Net-(U10-VI)*%
X292490740Y-207643000D03*
%TO.P,R5,2*%
%TO.N,Net-(U10-VO)*%
X292490740Y-205643000D03*
%TD*%
D24*
%TO.P,L4,1,1*%
%TO.N,Net-(JP3-B)*%
X277357740Y-169559000D03*
X279857740Y-166559000D03*
X280357740Y-169559000D03*
X282857740Y-165059000D03*
X282857740Y-167809000D03*
%TO.P,L4,2,2*%
%TO.N,Net-(JP4-B)*%
X282857740Y-171309000D03*
X282857740Y-174059000D03*
X285357740Y-169559000D03*
X285857740Y-172559000D03*
X288357740Y-169559000D03*
%TD*%
D19*
%TO.P,K1,11*%
%TO.N,Net-(JP1-B)*%
X241547740Y-185942000D03*
%TO.P,K1,12*%
%TO.N,Input*%
X233927740Y-178322000D03*
%TO.P,K1,14*%
%TO.N,unconnected-(K1-Pad14)*%
X241547740Y-178322000D03*
D20*
%TO.P,K1,A1*%
%TO.N,Net-(U2-VO)*%
X241547740Y-196102000D03*
D21*
%TO.P,K1,A2*%
%TO.N,GND*%
X233927740Y-196102000D03*
%TD*%
D14*
%TO.P,R44,1*%
%TO.N,O11*%
X396948240Y-213082000D03*
%TO.P,R44,2*%
%TO.N,Net-(R44-Pad2)*%
X396948240Y-211257000D03*
%TD*%
D16*
%TO.P,R15,1*%
%TO.N,Net-(U30-VI)*%
X442490740Y-207643000D03*
%TO.P,R15,2*%
%TO.N,Net-(U30-VO)*%
X442490740Y-205643000D03*
%TD*%
D18*
%TO.P,U21,1*%
%TO.N,Net-(R43-Pad2)*%
X384373740Y-211088000D03*
%TO.P,U21,3*%
%TO.N,GND*%
X384373740Y-213628000D03*
%TO.P,U21,4*%
%TO.N,+5V*%
X390673740Y-213628000D03*
%TO.P,U21,6*%
%TO.N,Net-(U22-VI)*%
X390673740Y-211088000D03*
%TD*%
D12*
%TO.P,U8,1,ADJ*%
%TO.N,Net-(U8-ADJ)*%
X281238740Y-200787000D03*
%TO.P,U8,2,VO*%
%TO.N,Net-(U8-VO)*%
X281238740Y-203087000D03*
D13*
X287538740Y-203087000D03*
D12*
%TO.P,U8,3,VI*%
%TO.N,Net-(U8-VI)*%
X281238740Y-205387000D03*
%TD*%
D16*
%TO.P,R13,1*%
%TO.N,Net-(U26-VI)*%
X412490740Y-207643000D03*
%TO.P,R13,2*%
%TO.N,Net-(U26-VO)*%
X412490740Y-205643000D03*
%TD*%
D23*
%TO.P,R25,1*%
%TO.N,Net-(U18-ADJ)*%
X351618240Y-203087000D03*
%TO.P,R25,2*%
%TO.N,Net-(U18-VO)*%
X353443240Y-203087000D03*
%TD*%
D10*
%TO.P,JP3,1,A*%
%TO.N,Net-(JP2-B)*%
X267121240Y-160725500D03*
D11*
%TO.P,JP3,2,B*%
%TO.N,Net-(JP3-B)*%
X268421240Y-160725500D03*
%TD*%
D10*
%TO.P,JP12,1,A*%
%TO.N,Net-(JP11-B)*%
X402121240Y-160725500D03*
D11*
%TO.P,JP12,2,B*%
%TO.N,Net-(JP12-B)*%
X403421240Y-160725500D03*
%TD*%
D12*
%TO.P,U20,1,ADJ*%
%TO.N,Net-(U20-ADJ)*%
X371238740Y-200787000D03*
%TO.P,U20,2,VO*%
%TO.N,Net-(U20-VO)*%
X371238740Y-203087000D03*
D13*
X377538740Y-203087000D03*
D12*
%TO.P,U20,3,VI*%
%TO.N,Net-(U20-VI)*%
X371238740Y-205387000D03*
%TD*%
%TO.P,U30,1,ADJ*%
%TO.N,Net-(U30-ADJ)*%
X446238740Y-200787000D03*
%TO.P,U30,2,VO*%
%TO.N,Net-(U30-VO)*%
X446238740Y-203087000D03*
D13*
X452538740Y-203087000D03*
D12*
%TO.P,U30,3,VI*%
%TO.N,Net-(U30-VI)*%
X446238740Y-205387000D03*
%TD*%
D24*
%TO.P,L16,1,1*%
%TO.N,Net-(JP15-B)*%
X457357740Y-169559000D03*
X459857740Y-166559000D03*
X460357740Y-169559000D03*
X462857740Y-165059000D03*
X462857740Y-167809000D03*
%TO.P,L16,2,2*%
%TO.N,Output*%
X462857740Y-171309000D03*
X462857740Y-174059000D03*
X465357740Y-169559000D03*
X465857740Y-172559000D03*
X468357740Y-169559000D03*
%TD*%
D27*
%TO.P,SW2,1*%
%TO.N,+5V*%
X223796240Y-212940500D03*
D28*
%TO.P,SW2,2*%
X223796240Y-210400500D03*
%TO.P,SW2,3*%
X223796240Y-207860500D03*
%TO.P,SW2,4*%
X223796240Y-205320500D03*
%TO.P,SW2,5*%
X223796240Y-202780500D03*
%TO.P,SW2,6*%
X223796240Y-200240500D03*
%TO.P,SW2,7*%
X223796240Y-197700500D03*
%TO.P,SW2,8*%
X223796240Y-195160500D03*
%TO.P,SW2,9*%
%TO.N,O0*%
X216176240Y-195160500D03*
%TO.P,SW2,10*%
%TO.N,O1*%
X216176240Y-197700500D03*
%TO.P,SW2,11*%
%TO.N,O2*%
X216176240Y-200240500D03*
%TO.P,SW2,12*%
%TO.N,O3*%
X216176240Y-202780500D03*
%TO.P,SW2,13*%
%TO.N,O4*%
X216176240Y-205320500D03*
%TO.P,SW2,14*%
%TO.N,O5*%
X216176240Y-207860500D03*
%TO.P,SW2,15*%
%TO.N,O6*%
X216176240Y-210400500D03*
%TO.P,SW2,16*%
%TO.N,O7*%
X216176240Y-212940500D03*
%TD*%
D18*
%TO.P,U29,1*%
%TO.N,Net-(R47-Pad2)*%
X444373740Y-211088000D03*
%TO.P,U29,3*%
%TO.N,GND*%
X444373740Y-213628000D03*
%TO.P,U29,4*%
%TO.N,+5V*%
X450673740Y-213628000D03*
%TO.P,U29,6*%
%TO.N,Net-(U30-VI)*%
X450673740Y-211088000D03*
%TD*%
D16*
%TO.P,R12,1*%
%TO.N,Net-(U24-VI)*%
X397490740Y-207643000D03*
%TO.P,R12,2*%
%TO.N,Net-(U24-VO)*%
X397490740Y-205643000D03*
%TD*%
D18*
%TO.P,U9,1*%
%TO.N,Net-(R37-Pad2)*%
X294373740Y-211088000D03*
%TO.P,U9,3*%
%TO.N,GND*%
X294373740Y-213628000D03*
%TO.P,U9,4*%
%TO.N,+5V*%
X300673740Y-213628000D03*
%TO.P,U9,6*%
%TO.N,Net-(U10-VI)*%
X300673740Y-211088000D03*
%TD*%
D23*
%TO.P,R21,1*%
%TO.N,Net-(U10-ADJ)*%
X291618240Y-203087000D03*
%TO.P,R21,2*%
%TO.N,Net-(U10-VO)*%
X293443240Y-203087000D03*
%TD*%
D17*
%TO.P,C11,1*%
%TO.N,GND*%
X381493240Y-200801000D03*
%TO.P,C11,2*%
%TO.N,Net-(U22-ADJ)*%
X383568240Y-200801000D03*
%TD*%
D22*
%TO.P,R63,1*%
%TO.N,Net-(U30-VI)*%
X452976740Y-208270500D03*
%TO.P,R63,2*%
%TO.N,Net-(D15-A)*%
X452976740Y-210095500D03*
%TD*%
D15*
%TO.P,D5,1,K*%
%TO.N,GND*%
X302976740Y-213600000D03*
%TO.P,D5,2,A*%
%TO.N,Net-(D5-A)*%
X302976740Y-211850000D03*
%TD*%
D19*
%TO.P,K2,11*%
%TO.N,Net-(JP2-B)*%
X256547740Y-185942000D03*
%TO.P,K2,12*%
%TO.N,Net-(JP1-B)*%
X248927740Y-178322000D03*
%TO.P,K2,14*%
%TO.N,unconnected-(K2-Pad14)*%
X256547740Y-178322000D03*
D20*
%TO.P,K2,A1*%
%TO.N,Net-(U4-VO)*%
X256547740Y-196102000D03*
D21*
%TO.P,K2,A2*%
%TO.N,GND*%
X248927740Y-196102000D03*
%TD*%
D19*
%TO.P,K14,11*%
%TO.N,Net-(JP14-B)*%
X436547740Y-185942000D03*
%TO.P,K14,12*%
%TO.N,Net-(JP13-B)*%
X428927740Y-178322000D03*
%TO.P,K14,14*%
%TO.N,unconnected-(K14-Pad14)*%
X436547740Y-178322000D03*
D20*
%TO.P,K14,A1*%
%TO.N,Net-(U28-VO)*%
X436547740Y-196102000D03*
D21*
%TO.P,K14,A2*%
%TO.N,GND*%
X428927740Y-196102000D03*
%TD*%
D10*
%TO.P,JP18,1,A*%
%TO.N,+12V*%
X468221240Y-225288000D03*
D11*
%TO.P,JP18,2,B*%
%TO.N,Net-(JP17-B)*%
X469521240Y-225288000D03*
%TD*%
D12*
%TO.P,U2,1,ADJ*%
%TO.N,Net-(U2-ADJ)*%
X236238740Y-200787000D03*
%TO.P,U2,2,VO*%
%TO.N,Net-(U2-VO)*%
X236238740Y-203087000D03*
D13*
X242538740Y-203087000D03*
D12*
%TO.P,U2,3,VI*%
%TO.N,Net-(U2-VI)*%
X236238740Y-205387000D03*
%TD*%
D19*
%TO.P,K15,11*%
%TO.N,Net-(JP15-B)*%
X451547740Y-185942000D03*
%TO.P,K15,12*%
%TO.N,Net-(JP14-B)*%
X443927740Y-178322000D03*
%TO.P,K15,14*%
%TO.N,unconnected-(K15-Pad14)*%
X451547740Y-178322000D03*
D20*
%TO.P,K15,A1*%
%TO.N,Net-(U30-VO)*%
X451547740Y-196102000D03*
D21*
%TO.P,K15,A2*%
%TO.N,GND*%
X443927740Y-196102000D03*
%TD*%
D14*
%TO.P,R43,1*%
%TO.N,O10*%
X381948240Y-213082000D03*
%TO.P,R43,2*%
%TO.N,Net-(R43-Pad2)*%
X381948240Y-211257000D03*
%TD*%
D15*
%TO.P,D15,1,K*%
%TO.N,GND*%
X452976740Y-213600000D03*
%TO.P,D15,2,A*%
%TO.N,Net-(D15-A)*%
X452976740Y-211850000D03*
%TD*%
%TO.P,D3,1,K*%
%TO.N,GND*%
X272976740Y-213600000D03*
%TO.P,D3,2,A*%
%TO.N,Net-(D3-A)*%
X272976740Y-211850000D03*
%TD*%
D18*
%TO.P,U13,1*%
%TO.N,Net-(R39-Pad2)*%
X324373740Y-211088000D03*
%TO.P,U13,3*%
%TO.N,GND*%
X324373740Y-213628000D03*
%TO.P,U13,4*%
%TO.N,+5V*%
X330673740Y-213628000D03*
%TO.P,U13,6*%
%TO.N,Net-(U14-VI)*%
X330673740Y-211088000D03*
%TD*%
D16*
%TO.P,R9,1*%
%TO.N,Net-(U18-VI)*%
X352490740Y-207643000D03*
%TO.P,R9,2*%
%TO.N,Net-(U18-VO)*%
X352490740Y-205643000D03*
%TD*%
D15*
%TO.P,D16,1,K*%
%TO.N,GND*%
X467976740Y-213600000D03*
%TO.P,D16,2,A*%
%TO.N,Net-(D16-A)*%
X467976740Y-211850000D03*
%TD*%
D10*
%TO.P,JP16,1,A*%
%TO.N,Net-(JP15-B)*%
X462121240Y-160725500D03*
D11*
%TO.P,JP16,2,B*%
%TO.N,Output*%
X463421240Y-160725500D03*
%TD*%
D10*
%TO.P,JP9,1,A*%
%TO.N,Net-(JP8-B)*%
X357121240Y-160725500D03*
D11*
%TO.P,JP9,2,B*%
%TO.N,Net-(JP10-A)*%
X358421240Y-160725500D03*
%TD*%
D19*
%TO.P,K16,11*%
%TO.N,Output*%
X466547740Y-185942000D03*
%TO.P,K16,12*%
%TO.N,Net-(JP15-B)*%
X458927740Y-178322000D03*
%TO.P,K16,14*%
%TO.N,unconnected-(K16-Pad14)*%
X466547740Y-178322000D03*
D20*
%TO.P,K16,A1*%
%TO.N,Net-(U32-VO)*%
X466547740Y-196102000D03*
D21*
%TO.P,K16,A2*%
%TO.N,GND*%
X458927740Y-196102000D03*
%TD*%
D24*
%TO.P,L5,1,1*%
%TO.N,Net-(JP4-B)*%
X292357740Y-169559000D03*
X294857740Y-166559000D03*
X295357740Y-169559000D03*
X297857740Y-165059000D03*
X297857740Y-167809000D03*
%TO.P,L5,2,2*%
%TO.N,Net-(JP5-B)*%
X297857740Y-171309000D03*
X297857740Y-174059000D03*
X300357740Y-169559000D03*
X300857740Y-172559000D03*
X303357740Y-169559000D03*
%TD*%
D19*
%TO.P,K12,11*%
%TO.N,Net-(JP12-B)*%
X406547740Y-185942000D03*
%TO.P,K12,12*%
%TO.N,Net-(JP11-B)*%
X398927740Y-178322000D03*
%TO.P,K12,14*%
%TO.N,unconnected-(K12-Pad14)*%
X406547740Y-178322000D03*
D20*
%TO.P,K12,A1*%
%TO.N,Net-(U24-VO)*%
X406547740Y-196102000D03*
D21*
%TO.P,K12,A2*%
%TO.N,GND*%
X398927740Y-196102000D03*
%TD*%
D17*
%TO.P,C1,1*%
%TO.N,GND*%
X231493240Y-200801000D03*
%TO.P,C1,2*%
%TO.N,Net-(U2-ADJ)*%
X233568240Y-200801000D03*
%TD*%
D24*
%TO.P,L12,1,1*%
%TO.N,Net-(JP11-B)*%
X397357740Y-169559000D03*
X399857740Y-166559000D03*
X400357740Y-169559000D03*
X402857740Y-165059000D03*
X402857740Y-167809000D03*
%TO.P,L12,2,2*%
%TO.N,Net-(JP12-B)*%
X402857740Y-171309000D03*
X402857740Y-174059000D03*
X405357740Y-169559000D03*
X405857740Y-172559000D03*
X408357740Y-169559000D03*
%TD*%
D10*
%TO.P,JP5,1,A*%
%TO.N,Net-(JP4-B)*%
X297121240Y-160725500D03*
D11*
%TO.P,JP5,2,B*%
%TO.N,Net-(JP5-B)*%
X298421240Y-160725500D03*
%TD*%
D17*
%TO.P,C3,1*%
%TO.N,GND*%
X261493240Y-200801000D03*
%TO.P,C3,2*%
%TO.N,Net-(U6-ADJ)*%
X263568240Y-200801000D03*
%TD*%
%TO.P,C7,1*%
%TO.N,GND*%
X321493240Y-200801000D03*
%TO.P,C7,2*%
%TO.N,Net-(U14-ADJ)*%
X323568240Y-200801000D03*
%TD*%
D23*
%TO.P,R29,1*%
%TO.N,Net-(U26-ADJ)*%
X411618240Y-203087000D03*
%TO.P,R29,2*%
%TO.N,Net-(U26-VO)*%
X413443240Y-203087000D03*
%TD*%
D19*
%TO.P,K4,11*%
%TO.N,Net-(JP4-B)*%
X286547740Y-185942000D03*
%TO.P,K4,12*%
%TO.N,Net-(JP3-B)*%
X278927740Y-178322000D03*
%TO.P,K4,14*%
%TO.N,unconnected-(K4-Pad14)*%
X286547740Y-178322000D03*
D20*
%TO.P,K4,A1*%
%TO.N,Net-(U8-VO)*%
X286547740Y-196102000D03*
D21*
%TO.P,K4,A2*%
%TO.N,GND*%
X278927740Y-196102000D03*
%TD*%
D23*
%TO.P,R19,1*%
%TO.N,Net-(U6-ADJ)*%
X261618240Y-203087000D03*
%TO.P,R19,2*%
%TO.N,Net-(U6-VO)*%
X263443240Y-203087000D03*
%TD*%
D22*
%TO.P,R57,1*%
%TO.N,Net-(U18-VI)*%
X362976740Y-208270500D03*
%TO.P,R57,2*%
%TO.N,Net-(D9-A)*%
X362976740Y-210095500D03*
%TD*%
D17*
%TO.P,C5,1*%
%TO.N,GND*%
X291493240Y-200801000D03*
%TO.P,C5,2*%
%TO.N,Net-(U10-ADJ)*%
X293568240Y-200801000D03*
%TD*%
D23*
%TO.P,R31,1*%
%TO.N,Net-(U30-ADJ)*%
X441618240Y-203087000D03*
%TO.P,R31,2*%
%TO.N,Net-(U30-VO)*%
X443443240Y-203087000D03*
%TD*%
D19*
%TO.P,K10,11*%
%TO.N,Net-(JP10-B)*%
X376547740Y-185942000D03*
%TO.P,K10,12*%
%TO.N,Net-(JP10-A)*%
X368927740Y-178322000D03*
%TO.P,K10,14*%
%TO.N,unconnected-(K10-Pad14)*%
X376547740Y-178322000D03*
D20*
%TO.P,K10,A1*%
%TO.N,Net-(U20-VO)*%
X376547740Y-196102000D03*
D21*
%TO.P,K10,A2*%
%TO.N,GND*%
X368927740Y-196102000D03*
%TD*%
D22*
%TO.P,R53,1*%
%TO.N,Net-(U10-VI)*%
X302976740Y-208270500D03*
%TO.P,R53,2*%
%TO.N,Net-(D5-A)*%
X302976740Y-210095500D03*
%TD*%
D17*
%TO.P,C12,1*%
%TO.N,GND*%
X396493240Y-200801000D03*
%TO.P,C12,2*%
%TO.N,Net-(U24-ADJ)*%
X398568240Y-200801000D03*
%TD*%
D12*
%TO.P,U32,1,ADJ*%
%TO.N,Net-(U32-ADJ)*%
X461238740Y-200787000D03*
%TO.P,U32,2,VO*%
%TO.N,Net-(U32-VO)*%
X461238740Y-203087000D03*
D13*
X467538740Y-203087000D03*
D12*
%TO.P,U32,3,VI*%
%TO.N,Net-(U32-VI)*%
X461238740Y-205387000D03*
%TD*%
D10*
%TO.P,JP2,1,A*%
%TO.N,Net-(JP1-B)*%
X252121240Y-160725500D03*
D11*
%TO.P,JP2,2,B*%
%TO.N,Net-(JP2-B)*%
X253421240Y-160725500D03*
%TD*%
D15*
%TO.P,D7,1,K*%
%TO.N,GND*%
X332976740Y-213600000D03*
%TO.P,D7,2,A*%
%TO.N,Net-(D7-A)*%
X332976740Y-211850000D03*
%TD*%
D12*
%TO.P,U28,1,ADJ*%
%TO.N,Net-(U28-ADJ)*%
X431238740Y-200787000D03*
%TO.P,U28,2,VO*%
%TO.N,Net-(U28-VO)*%
X431238740Y-203087000D03*
D13*
X437538740Y-203087000D03*
D12*
%TO.P,U28,3,VI*%
%TO.N,Net-(U28-VI)*%
X431238740Y-205387000D03*
%TD*%
D14*
%TO.P,R33,1*%
%TO.N,O0*%
X231948240Y-213082000D03*
%TO.P,R33,2*%
%TO.N,Net-(R33-Pad2)*%
X231948240Y-211257000D03*
%TD*%
D22*
%TO.P,R51,1*%
%TO.N,Net-(U6-VI)*%
X272976740Y-208270500D03*
%TO.P,R51,2*%
%TO.N,Net-(D3-A)*%
X272976740Y-210095500D03*
%TD*%
D18*
%TO.P,U27,1*%
%TO.N,Net-(R46-Pad2)*%
X429373740Y-211088000D03*
%TO.P,U27,3*%
%TO.N,GND*%
X429373740Y-213628000D03*
%TO.P,U27,4*%
%TO.N,+5V*%
X435673740Y-213628000D03*
%TO.P,U27,6*%
%TO.N,Net-(U28-VI)*%
X435673740Y-211088000D03*
%TD*%
D22*
%TO.P,R60,1*%
%TO.N,Net-(U24-VI)*%
X407976740Y-208270500D03*
%TO.P,R60,2*%
%TO.N,Net-(D12-A)*%
X407976740Y-210095500D03*
%TD*%
D16*
%TO.P,R3,1*%
%TO.N,Net-(U6-VI)*%
X262490740Y-207643000D03*
%TO.P,R3,2*%
%TO.N,Net-(U6-VO)*%
X262490740Y-205643000D03*
%TD*%
D15*
%TO.P,D14,1,K*%
%TO.N,GND*%
X437976740Y-213600000D03*
%TO.P,D14,2,A*%
%TO.N,Net-(D14-A)*%
X437976740Y-211850000D03*
%TD*%
D17*
%TO.P,C6,1*%
%TO.N,GND*%
X306493240Y-200801000D03*
%TO.P,C6,2*%
%TO.N,Net-(U12-ADJ)*%
X308568240Y-200801000D03*
%TD*%
D24*
%TO.P,L7,1,1*%
%TO.N,Net-(JP6-B)*%
X322357740Y-169559000D03*
X324857740Y-166559000D03*
X325357740Y-169559000D03*
X327857740Y-165059000D03*
X327857740Y-167809000D03*
%TO.P,L7,2,2*%
%TO.N,Net-(JP7-B)*%
X327857740Y-171309000D03*
X327857740Y-174059000D03*
X330357740Y-169559000D03*
X330857740Y-172559000D03*
X333357740Y-169559000D03*
%TD*%
D27*
%TO.P,SW1,1*%
%TO.N,+5V*%
X223836240Y-237855500D03*
D28*
%TO.P,SW1,2*%
X223836240Y-235315500D03*
%TO.P,SW1,3*%
X223836240Y-232775500D03*
%TO.P,SW1,4*%
X223836240Y-230235500D03*
%TO.P,SW1,5*%
X223836240Y-227695500D03*
%TO.P,SW1,6*%
X223836240Y-225155500D03*
%TO.P,SW1,7*%
X223836240Y-222615500D03*
%TO.P,SW1,8*%
X223836240Y-220075500D03*
%TO.P,SW1,9*%
%TO.N,O8*%
X216216240Y-220075500D03*
%TO.P,SW1,10*%
%TO.N,O9*%
X216216240Y-222615500D03*
%TO.P,SW1,11*%
%TO.N,O10*%
X216216240Y-225155500D03*
%TO.P,SW1,12*%
%TO.N,O11*%
X216216240Y-227695500D03*
%TO.P,SW1,13*%
%TO.N,O12*%
X216216240Y-230235500D03*
%TO.P,SW1,14*%
%TO.N,O13*%
X216216240Y-232775500D03*
%TO.P,SW1,15*%
%TO.N,O14*%
X216216240Y-235315500D03*
%TO.P,SW1,16*%
%TO.N,O15*%
X216216240Y-237855500D03*
%TD*%
D10*
%TO.P,JP4,1,A*%
%TO.N,Net-(JP3-B)*%
X282121240Y-160725500D03*
D11*
%TO.P,JP4,2,B*%
%TO.N,Net-(JP4-B)*%
X283421240Y-160725500D03*
%TD*%
D17*
%TO.P,C13,1*%
%TO.N,GND*%
X411493240Y-200801000D03*
%TO.P,C13,2*%
%TO.N,Net-(U26-ADJ)*%
X413568240Y-200801000D03*
%TD*%
D14*
%TO.P,R38,1*%
%TO.N,O5*%
X306948240Y-213082000D03*
%TO.P,R38,2*%
%TO.N,Net-(R38-Pad2)*%
X306948240Y-211257000D03*
%TD*%
D12*
%TO.P,U4,1,ADJ*%
%TO.N,Net-(U4-ADJ)*%
X251238740Y-200787000D03*
%TO.P,U4,2,VO*%
%TO.N,Net-(U4-VO)*%
X251238740Y-203087000D03*
D13*
X257538740Y-203087000D03*
D12*
%TO.P,U4,3,VI*%
%TO.N,Net-(U4-VI)*%
X251238740Y-205387000D03*
%TD*%
D17*
%TO.P,C4,1*%
%TO.N,GND*%
X276493240Y-200801000D03*
%TO.P,C4,2*%
%TO.N,Net-(U8-ADJ)*%
X278568240Y-200801000D03*
%TD*%
D15*
%TO.P,D4,1,K*%
%TO.N,GND*%
X287976740Y-213600000D03*
%TO.P,D4,2,A*%
%TO.N,Net-(D4-A)*%
X287976740Y-211850000D03*
%TD*%
D18*
%TO.P,U23,1*%
%TO.N,Net-(R44-Pad2)*%
X399373740Y-211088000D03*
%TO.P,U23,3*%
%TO.N,GND*%
X399373740Y-213628000D03*
%TO.P,U23,4*%
%TO.N,+5V*%
X405673740Y-213628000D03*
%TO.P,U23,6*%
%TO.N,Net-(U24-VI)*%
X405673740Y-211088000D03*
%TD*%
D24*
%TO.P,L10,1,1*%
%TO.N,Net-(JP10-A)*%
X367357740Y-169559000D03*
X369857740Y-166559000D03*
X370357740Y-169559000D03*
X372857740Y-165059000D03*
X372857740Y-167809000D03*
%TO.P,L10,2,2*%
%TO.N,Net-(JP10-B)*%
X372857740Y-171309000D03*
X372857740Y-174059000D03*
X375357740Y-169559000D03*
X375857740Y-172559000D03*
X378357740Y-169559000D03*
%TD*%
D18*
%TO.P,U7,1*%
%TO.N,Net-(R36-Pad2)*%
X279373740Y-211088000D03*
%TO.P,U7,3*%
%TO.N,GND*%
X279373740Y-213628000D03*
%TO.P,U7,4*%
%TO.N,+5V*%
X285673740Y-213628000D03*
%TO.P,U7,6*%
%TO.N,Net-(U8-VI)*%
X285673740Y-211088000D03*
%TD*%
D15*
%TO.P,D11,1,K*%
%TO.N,GND*%
X392976740Y-213600000D03*
%TO.P,D11,2,A*%
%TO.N,Net-(D11-A)*%
X392976740Y-211850000D03*
%TD*%
D16*
%TO.P,R7,1*%
%TO.N,Net-(U14-VI)*%
X322490740Y-207643000D03*
%TO.P,R7,2*%
%TO.N,Net-(U14-VO)*%
X322490740Y-205643000D03*
%TD*%
D29*
%TO.P,J3,1,Pin_1*%
%TO.N,O0*%
X212796240Y-195130500D03*
D30*
%TO.P,J3,2,Pin_2*%
%TO.N,O1*%
X212796240Y-197670500D03*
%TO.P,J3,3,Pin_3*%
%TO.N,O2*%
X212796240Y-200210500D03*
%TO.P,J3,4,Pin_4*%
%TO.N,O3*%
X212796240Y-202750500D03*
%TO.P,J3,5,Pin_5*%
%TO.N,O4*%
X212796240Y-205290500D03*
%TO.P,J3,6,Pin_6*%
%TO.N,O5*%
X212796240Y-207830500D03*
%TO.P,J3,7,Pin_7*%
%TO.N,O6*%
X212796240Y-210370500D03*
%TO.P,J3,8,Pin_8*%
%TO.N,O7*%
X212796240Y-212910500D03*
%TO.P,J3,9,Pin_9*%
%TO.N,O8*%
X212796240Y-215450500D03*
%TO.P,J3,10,Pin_10*%
%TO.N,O9*%
X212796240Y-217990500D03*
%TO.P,J3,11,Pin_11*%
%TO.N,O10*%
X212796240Y-220530500D03*
%TO.P,J3,12,Pin_12*%
%TO.N,O11*%
X212796240Y-223070500D03*
%TO.P,J3,13,Pin_13*%
%TO.N,O12*%
X212796240Y-225610500D03*
%TO.P,J3,14,Pin_14*%
%TO.N,O13*%
X212796240Y-228150500D03*
%TO.P,J3,15,Pin_15*%
%TO.N,O14*%
X212796240Y-230690500D03*
%TO.P,J3,16,Pin_16*%
%TO.N,O15*%
X212796240Y-233230500D03*
%TO.P,J3,17,Pin_17*%
%TO.N,+5V*%
X212796240Y-235770500D03*
%TO.P,J3,18,Pin_18*%
%TO.N,GND*%
X212796240Y-238310500D03*
%TD*%
D24*
%TO.P,L8,1,1*%
%TO.N,Net-(JP7-B)*%
X337357740Y-169559000D03*
X339857740Y-166559000D03*
X340357740Y-169559000D03*
X342857740Y-165059000D03*
X342857740Y-167809000D03*
%TO.P,L8,2,2*%
%TO.N,Net-(JP8-B)*%
X342857740Y-171309000D03*
X342857740Y-174059000D03*
X345357740Y-169559000D03*
X345857740Y-172559000D03*
X348357740Y-169559000D03*
%TD*%
D14*
%TO.P,R39,1*%
%TO.N,O6*%
X321948240Y-213082000D03*
%TO.P,R39,2*%
%TO.N,Net-(R39-Pad2)*%
X321948240Y-211257000D03*
%TD*%
D19*
%TO.P,K9,11*%
%TO.N,Net-(JP10-A)*%
X361547740Y-185942000D03*
%TO.P,K9,12*%
%TO.N,Net-(JP8-B)*%
X353927740Y-178322000D03*
%TO.P,K9,14*%
%TO.N,unconnected-(K9-Pad14)*%
X361547740Y-178322000D03*
D20*
%TO.P,K9,A1*%
%TO.N,Net-(U18-VO)*%
X361547740Y-196102000D03*
D21*
%TO.P,K9,A2*%
%TO.N,GND*%
X353927740Y-196102000D03*
%TD*%
D14*
%TO.P,R34,1*%
%TO.N,O1*%
X246948240Y-213082000D03*
%TO.P,R34,2*%
%TO.N,Net-(R34-Pad2)*%
X246948240Y-211257000D03*
%TD*%
D24*
%TO.P,L11,1,1*%
%TO.N,Net-(JP10-B)*%
X382357740Y-169559000D03*
X384857740Y-166559000D03*
X385357740Y-169559000D03*
X387857740Y-165059000D03*
X387857740Y-167809000D03*
%TO.P,L11,2,2*%
%TO.N,Net-(JP11-B)*%
X387857740Y-171309000D03*
X387857740Y-174059000D03*
X390357740Y-169559000D03*
X390857740Y-172559000D03*
X393357740Y-169559000D03*
%TD*%
D19*
%TO.P,K6,11*%
%TO.N,Net-(JP6-B)*%
X316547740Y-185942000D03*
%TO.P,K6,12*%
%TO.N,Net-(JP5-B)*%
X308927740Y-178322000D03*
%TO.P,K6,14*%
%TO.N,unconnected-(K6-Pad14)*%
X316547740Y-178322000D03*
D20*
%TO.P,K6,A1*%
%TO.N,Net-(U12-VO)*%
X316547740Y-196102000D03*
D21*
%TO.P,K6,A2*%
%TO.N,GND*%
X308927740Y-196102000D03*
%TD*%
D23*
%TO.P,R27,1*%
%TO.N,Net-(U22-ADJ)*%
X381618240Y-203087000D03*
%TO.P,R27,2*%
%TO.N,Net-(U22-VO)*%
X383443240Y-203087000D03*
%TD*%
D18*
%TO.P,U31,1*%
%TO.N,Net-(R48-Pad2)*%
X459373740Y-211088000D03*
%TO.P,U31,3*%
%TO.N,GND*%
X459373740Y-213628000D03*
%TO.P,U31,4*%
%TO.N,+5V*%
X465673740Y-213628000D03*
%TO.P,U31,6*%
%TO.N,Net-(U32-VI)*%
X465673740Y-211088000D03*
%TD*%
D14*
%TO.P,R35,1*%
%TO.N,O2*%
X261948240Y-213082000D03*
%TO.P,R35,2*%
%TO.N,Net-(R35-Pad2)*%
X261948240Y-211257000D03*
%TD*%
D12*
%TO.P,U24,1,ADJ*%
%TO.N,Net-(U24-ADJ)*%
X401238740Y-200787000D03*
%TO.P,U24,2,VO*%
%TO.N,Net-(U24-VO)*%
X401238740Y-203087000D03*
D13*
X407538740Y-203087000D03*
D12*
%TO.P,U24,3,VI*%
%TO.N,Net-(U24-VI)*%
X401238740Y-205387000D03*
%TD*%
D15*
%TO.P,D8,1,K*%
%TO.N,GND*%
X347976740Y-213600000D03*
%TO.P,D8,2,A*%
%TO.N,Net-(D8-A)*%
X347976740Y-211850000D03*
%TD*%
D24*
%TO.P,L2,1,1*%
%TO.N,Net-(JP1-B)*%
X247357740Y-169559000D03*
X249857740Y-166559000D03*
X250357740Y-169559000D03*
X252857740Y-165059000D03*
X252857740Y-167809000D03*
%TO.P,L2,2,2*%
%TO.N,Net-(JP2-B)*%
X252857740Y-171309000D03*
X252857740Y-174059000D03*
X255357740Y-169559000D03*
X255857740Y-172559000D03*
X258357740Y-169559000D03*
%TD*%
D18*
%TO.P,U3,1*%
%TO.N,Net-(R34-Pad2)*%
X249373740Y-211088000D03*
%TO.P,U3,3*%
%TO.N,GND*%
X249373740Y-213628000D03*
%TO.P,U3,4*%
%TO.N,+5V*%
X255673740Y-213628000D03*
%TO.P,U3,6*%
%TO.N,Net-(U4-VI)*%
X255673740Y-211088000D03*
%TD*%
D23*
%TO.P,R20,1*%
%TO.N,Net-(U8-ADJ)*%
X276618240Y-203087000D03*
%TO.P,R20,2*%
%TO.N,Net-(U8-VO)*%
X278443240Y-203087000D03*
%TD*%
D15*
%TO.P,D1,1,K*%
%TO.N,GND*%
X242976740Y-213600000D03*
%TO.P,D1,2,A*%
%TO.N,Net-(D1-A)*%
X242976740Y-211850000D03*
%TD*%
D16*
%TO.P,R6,1*%
%TO.N,Net-(U12-VI)*%
X307490740Y-207643000D03*
%TO.P,R6,2*%
%TO.N,Net-(U12-VO)*%
X307490740Y-205643000D03*
%TD*%
D17*
%TO.P,C15,1*%
%TO.N,GND*%
X441493240Y-200801000D03*
%TO.P,C15,2*%
%TO.N,Net-(U30-ADJ)*%
X443568240Y-200801000D03*
%TD*%
D10*
%TO.P,JP11,1,A*%
%TO.N,Net-(JP10-B)*%
X387121240Y-160725500D03*
D11*
%TO.P,JP11,2,B*%
%TO.N,Net-(JP11-B)*%
X388421240Y-160725500D03*
%TD*%
D24*
%TO.P,L9,1,1*%
%TO.N,Net-(JP8-B)*%
X352357740Y-169559000D03*
X354857740Y-166559000D03*
X355357740Y-169559000D03*
X357857740Y-165059000D03*
X357857740Y-167809000D03*
%TO.P,L9,2,2*%
%TO.N,Net-(JP10-A)*%
X357857740Y-171309000D03*
X357857740Y-174059000D03*
X360357740Y-169559000D03*
X360857740Y-172559000D03*
X363357740Y-169559000D03*
%TD*%
D31*
%TO.P,J2,1*%
%TO.N,+5V*%
X225146240Y-184050500D03*
D32*
%TO.P,J2,2*%
%TO.N,GND*%
X218846240Y-184050500D03*
D33*
%TO.P,J2,3*%
X222246240Y-188850500D03*
%TD*%
D15*
%TO.P,D9,1,K*%
%TO.N,GND*%
X362976740Y-213600000D03*
%TO.P,D9,2,A*%
%TO.N,Net-(D9-A)*%
X362976740Y-211850000D03*
%TD*%
%TO.P,D10,1,K*%
%TO.N,GND*%
X377976740Y-213600000D03*
%TO.P,D10,2,A*%
%TO.N,Net-(D10-A)*%
X377976740Y-211850000D03*
%TD*%
D17*
%TO.P,C14,1*%
%TO.N,GND*%
X426493240Y-200801000D03*
%TO.P,C14,2*%
%TO.N,Net-(U28-ADJ)*%
X428568240Y-200801000D03*
%TD*%
D12*
%TO.P,U10,1,ADJ*%
%TO.N,Net-(U10-ADJ)*%
X296238740Y-200787000D03*
%TO.P,U10,2,VO*%
%TO.N,Net-(U10-VO)*%
X296238740Y-203087000D03*
D13*
X302538740Y-203087000D03*
D12*
%TO.P,U10,3,VI*%
%TO.N,Net-(U10-VI)*%
X296238740Y-205387000D03*
%TD*%
D10*
%TO.P,JP13,1,A*%
%TO.N,Net-(JP12-B)*%
X417121240Y-160725500D03*
D11*
%TO.P,JP13,2,B*%
%TO.N,Net-(JP13-B)*%
X418421240Y-160725500D03*
%TD*%
D23*
%TO.P,R18,1*%
%TO.N,Net-(U4-ADJ)*%
X246618240Y-203087000D03*
%TO.P,R18,2*%
%TO.N,Net-(U4-VO)*%
X248443240Y-203087000D03*
%TD*%
D24*
%TO.P,L6,1,1*%
%TO.N,Net-(JP5-B)*%
X307357740Y-169559000D03*
X309857740Y-166559000D03*
X310357740Y-169559000D03*
X312857740Y-165059000D03*
X312857740Y-167809000D03*
%TO.P,L6,2,2*%
%TO.N,Net-(JP6-B)*%
X312857740Y-171309000D03*
X312857740Y-174059000D03*
X315357740Y-169559000D03*
X315857740Y-172559000D03*
X318357740Y-169559000D03*
%TD*%
D18*
%TO.P,U25,1*%
%TO.N,Net-(R45-Pad2)*%
X414373740Y-211088000D03*
%TO.P,U25,3*%
%TO.N,GND*%
X414373740Y-213628000D03*
%TO.P,U25,4*%
%TO.N,+5V*%
X420673740Y-213628000D03*
%TO.P,U25,6*%
%TO.N,Net-(U26-VI)*%
X420673740Y-211088000D03*
%TD*%
D17*
%TO.P,C10,1*%
%TO.N,GND*%
X366493240Y-200801000D03*
%TO.P,C10,2*%
%TO.N,Net-(U20-ADJ)*%
X368568240Y-200801000D03*
%TD*%
D34*
%TO.P,J1,1,In*%
%TO.N,Input*%
X223921240Y-169575500D03*
D35*
%TO.P,J1,2,Ext*%
%TO.N,Output*%
X218841240Y-174655500D03*
D34*
X223921240Y-172115500D03*
D35*
X218841240Y-164495500D03*
%TD*%
D22*
%TO.P,R49,1*%
%TO.N,Net-(U2-VI)*%
X242976740Y-208270500D03*
%TO.P,R49,2*%
%TO.N,Net-(D1-A)*%
X242976740Y-210095500D03*
%TD*%
D12*
%TO.P,U16,1,ADJ*%
%TO.N,Net-(U16-ADJ)*%
X341238740Y-200787000D03*
%TO.P,U16,2,VO*%
%TO.N,Net-(U16-VO)*%
X341238740Y-203087000D03*
D13*
X347538740Y-203087000D03*
D12*
%TO.P,U16,3,VI*%
%TO.N,Net-(U16-VI)*%
X341238740Y-205387000D03*
%TD*%
D22*
%TO.P,R61,1*%
%TO.N,Net-(U26-VI)*%
X422976740Y-208270500D03*
%TO.P,R61,2*%
%TO.N,Net-(D13-A)*%
X422976740Y-210095500D03*
%TD*%
%TO.P,R62,1*%
%TO.N,Net-(U28-VI)*%
X437976740Y-208270500D03*
%TO.P,R62,2*%
%TO.N,Net-(D14-A)*%
X437976740Y-210095500D03*
%TD*%
D23*
%TO.P,R17,1*%
%TO.N,Net-(U2-ADJ)*%
X231618240Y-203087000D03*
%TO.P,R17,2*%
%TO.N,Net-(U2-VO)*%
X233443240Y-203087000D03*
%TD*%
D17*
%TO.P,C8,1*%
%TO.N,GND*%
X336493240Y-200801000D03*
%TO.P,C8,2*%
%TO.N,Net-(U16-ADJ)*%
X338568240Y-200801000D03*
%TD*%
D23*
%TO.P,R22,1*%
%TO.N,Net-(U12-ADJ)*%
X306618240Y-203087000D03*
%TO.P,R22,2*%
%TO.N,Net-(U12-VO)*%
X308443240Y-203087000D03*
%TD*%
%TO.P,R30,1*%
%TO.N,Net-(U28-ADJ)*%
X426618240Y-203087000D03*
%TO.P,R30,2*%
%TO.N,Net-(U28-VO)*%
X428443240Y-203087000D03*
%TD*%
D12*
%TO.P,U12,1,ADJ*%
%TO.N,Net-(U12-ADJ)*%
X311238740Y-200787000D03*
%TO.P,U12,2,VO*%
%TO.N,Net-(U12-VO)*%
X311238740Y-203087000D03*
D13*
X317538740Y-203087000D03*
D12*
%TO.P,U12,3,VI*%
%TO.N,Net-(U12-VI)*%
X311238740Y-205387000D03*
%TD*%
D24*
%TO.P,L3,1,1*%
%TO.N,Net-(JP2-B)*%
X262357740Y-169559000D03*
X264857740Y-166559000D03*
X265357740Y-169559000D03*
X267857740Y-165059000D03*
X267857740Y-167809000D03*
%TO.P,L3,2,2*%
%TO.N,Net-(JP3-B)*%
X267857740Y-171309000D03*
X267857740Y-174059000D03*
X270357740Y-169559000D03*
X270857740Y-172559000D03*
X273357740Y-169559000D03*
%TD*%
D12*
%TO.P,U18,1,ADJ*%
%TO.N,Net-(U18-ADJ)*%
X356238740Y-200787000D03*
%TO.P,U18,2,VO*%
%TO.N,Net-(U18-VO)*%
X356238740Y-203087000D03*
D13*
X362538740Y-203087000D03*
D12*
%TO.P,U18,3,VI*%
%TO.N,Net-(U18-VI)*%
X356238740Y-205387000D03*
%TD*%
D36*
%TO.P,E1,B1,B1*%
%TO.N,-24V*%
X255831240Y-245235500D03*
%TO.P,E1,B2,B2*%
X256831240Y-245235500D03*
%TO.P,E1,B3,B3*%
X257831240Y-245235500D03*
%TO.P,E1,B4,B4*%
%TO.N,-12V*%
X258831240Y-245235500D03*
%TO.P,E1,B5,B5*%
X259831240Y-245235500D03*
%TO.P,E1,B6,B6*%
%TO.N,unconnected-(E1-PadB6)*%
X260831240Y-245235500D03*
%TO.P,E1,B7,B7*%
%TO.N,unconnected-(E1-PadB7)*%
X261831240Y-245235500D03*
%TO.P,E1,B8,B8*%
%TO.N,unconnected-(E1-PadB8)*%
X262831240Y-245235500D03*
%TO.P,E1,B9,B9*%
%TO.N,GND*%
X263831240Y-245235500D03*
%TO.P,E1,B10,B10*%
X264831240Y-245235500D03*
%TO.P,E1,B11,B11*%
X265831240Y-245235500D03*
%TO.P,E1,B12,B12*%
%TO.N,unconnected-(E1-PadB12)*%
X268831240Y-245235500D03*
%TO.P,E1,B13,B13*%
%TO.N,unconnected-(E1-PadB13)*%
X269831240Y-245235500D03*
%TO.P,E1,B14,B14*%
%TO.N,unconnected-(E1-PadB14)*%
X270831240Y-245235500D03*
%TO.P,E1,B15,B15*%
%TO.N,unconnected-(E1-PadB15)*%
X271831240Y-245235500D03*
%TO.P,E1,B16,B16*%
%TO.N,unconnected-(E1-PadB16)*%
X272831240Y-245235500D03*
%TO.P,E1,B17,B17*%
%TO.N,unconnected-(E1-PadB17)*%
X273831240Y-245235500D03*
%TO.P,E1,B18,B18*%
%TO.N,unconnected-(E1-PadB18)*%
X274831240Y-245235500D03*
%TO.P,E1,B19,B19*%
%TO.N,unconnected-(E1-PadB19)*%
X275831240Y-245235500D03*
%TO.P,E1,B20,B20*%
%TO.N,unconnected-(E1-PadB20)*%
X276831240Y-245235500D03*
%TO.P,E1,B21,B21*%
%TO.N,unconnected-(E1-PadB21)*%
X277831240Y-245235500D03*
%TO.P,E1,B22,B22*%
%TO.N,unconnected-(E1-PadB22)*%
X278831240Y-245235500D03*
%TO.P,E1,B23,B23*%
%TO.N,unconnected-(E1-PadB23)*%
X279831240Y-245235500D03*
%TO.P,E1,B24,B24*%
%TO.N,unconnected-(E1-PadB24)*%
X280831240Y-245235500D03*
%TO.P,E1,B25,B25*%
%TO.N,unconnected-(E1-PadB25)*%
X281831240Y-245235500D03*
%TO.P,E1,B26,B26*%
%TO.N,unconnected-(E1-PadB26)*%
X282831240Y-245235500D03*
%TO.P,E1,B27,B27*%
%TO.N,unconnected-(E1-PadB27)*%
X283831240Y-245235500D03*
%TO.P,E1,B28,B28*%
%TO.N,unconnected-(E1-PadB28)*%
X284831240Y-245235500D03*
%TO.P,E1,B29,B29*%
%TO.N,unconnected-(E1-PadB29)*%
X285831240Y-245235500D03*
%TO.P,E1,B30,B30*%
%TO.N,unconnected-(E1-PadB30)*%
X286831240Y-245235500D03*
%TO.P,E1,B31,B31*%
%TO.N,unconnected-(E1-PadB31)*%
X287831240Y-245235500D03*
%TO.P,E1,B32,B32*%
%TO.N,unconnected-(E1-PadB32)*%
X288831240Y-245235500D03*
%TO.P,E1,B33,B33*%
%TO.N,unconnected-(E1-PadB33)*%
X289831240Y-245235500D03*
%TO.P,E1,B34,B34*%
%TO.N,unconnected-(E1-PadB34)*%
X290831240Y-245235500D03*
%TO.P,E1,B35,B35*%
%TO.N,unconnected-(E1-PadB35)*%
X291831240Y-245235500D03*
%TO.P,E1,B36,B36*%
%TO.N,unconnected-(E1-PadB36)*%
X292831240Y-245235500D03*
%TO.P,E1,B37,B37*%
%TO.N,unconnected-(E1-PadB37)*%
X293831240Y-245235500D03*
%TO.P,E1,B38,B38*%
%TO.N,unconnected-(E1-PadB38)*%
X294831240Y-245235500D03*
%TO.P,E1,B39,B39*%
%TO.N,unconnected-(E1-PadB39)*%
X295831240Y-245235500D03*
%TO.P,E1,B40,B40*%
%TO.N,unconnected-(E1-PadB40)*%
X296831240Y-245235500D03*
%TO.P,E1,B41,B41*%
%TO.N,unconnected-(E1-PadB41)*%
X297831240Y-245235500D03*
%TO.P,E1,B42,B42*%
%TO.N,unconnected-(E1-PadB42)*%
X298831240Y-245235500D03*
%TO.P,E1,B43,B43*%
%TO.N,unconnected-(E1-PadB43)*%
X299831240Y-245235500D03*
%TO.P,E1,B44,B44*%
%TO.N,unconnected-(E1-PadB44)*%
X300831240Y-245235500D03*
%TO.P,E1,B45,B45*%
%TO.N,unconnected-(E1-PadB45)*%
X301831240Y-245235500D03*
%TO.P,E1,B46,B46*%
%TO.N,unconnected-(E1-PadB46)*%
X302831240Y-245235500D03*
%TO.P,E1,B47,B47*%
%TO.N,unconnected-(E1-PadB47)*%
X303831240Y-245235500D03*
%TO.P,E1,B48,B48*%
%TO.N,unconnected-(E1-PadB48)*%
X304831240Y-245235500D03*
%TO.P,E1,B49,B49*%
%TO.N,unconnected-(E1-PadB49)*%
X305831240Y-245235500D03*
%TO.P,E1,B50,B50*%
%TO.N,unconnected-(E1-PadB50)*%
X306831240Y-245235500D03*
%TO.P,E1,B51,B51*%
%TO.N,unconnected-(E1-PadB51)*%
X307831240Y-245235500D03*
%TO.P,E1,B52,B52*%
%TO.N,unconnected-(E1-PadB52)*%
X308831240Y-245235500D03*
%TO.P,E1,B53,B53*%
%TO.N,unconnected-(E1-PadB53)*%
X309831240Y-245235500D03*
%TO.P,E1,B54,B54*%
%TO.N,unconnected-(E1-PadB54)*%
X310831240Y-245235500D03*
%TO.P,E1,B55,B55*%
%TO.N,unconnected-(E1-PadB55)*%
X311831240Y-245235500D03*
%TO.P,E1,B56,B56*%
%TO.N,unconnected-(E1-PadB56)*%
X312831240Y-245235500D03*
%TO.P,E1,B57,B57*%
%TO.N,unconnected-(E1-PadB57)*%
X313831240Y-245235500D03*
%TO.P,E1,B58,B58*%
%TO.N,unconnected-(E1-PadB58)*%
X314831240Y-245235500D03*
%TO.P,E1,B59,B59*%
%TO.N,unconnected-(E1-PadB59)*%
X315831240Y-245235500D03*
%TO.P,E1,B60,B60*%
%TO.N,unconnected-(E1-PadB60)*%
X316831240Y-245235500D03*
%TO.P,E1,B61,B61*%
%TO.N,unconnected-(E1-PadB61)*%
X317831240Y-245235500D03*
%TO.P,E1,B62,B62*%
%TO.N,unconnected-(E1-PadB62)*%
X318831240Y-245235500D03*
%TO.P,E1,B63,B63*%
%TO.N,unconnected-(E1-PadB63)*%
X319831240Y-245235500D03*
%TO.P,E1,B64,B64*%
%TO.N,unconnected-(E1-PadB64)*%
X320831240Y-245235500D03*
%TO.P,E1,B65,B65*%
%TO.N,unconnected-(E1-PadB65)*%
X321831240Y-245235500D03*
%TO.P,E1,B66,B66*%
%TO.N,unconnected-(E1-PadB66)*%
X322831240Y-245235500D03*
%TO.P,E1,B67,B67*%
%TO.N,unconnected-(E1-PadB67)*%
X323831240Y-245235500D03*
%TO.P,E1,B68,B68*%
%TO.N,unconnected-(E1-PadB68)*%
X324831240Y-245235500D03*
%TO.P,E1,B69,B69*%
%TO.N,unconnected-(E1-PadB69)*%
X325831240Y-245235500D03*
%TO.P,E1,B70,B70*%
%TO.N,unconnected-(E1-PadB70)*%
X326831240Y-245235500D03*
%TO.P,E1,B71,B71*%
%TO.N,unconnected-(E1-PadB71)*%
X327831240Y-245235500D03*
%TO.P,E1,B72,B72*%
%TO.N,unconnected-(E1-PadB72)*%
X328831240Y-245235500D03*
%TO.P,E1,B73,B73*%
%TO.N,unconnected-(E1-PadB73)*%
X329831240Y-245235500D03*
%TO.P,E1,B74,B74*%
%TO.N,unconnected-(E1-PadB74)*%
X330831240Y-245235500D03*
%TO.P,E1,B75,B75*%
%TO.N,unconnected-(E1-PadB75)*%
X331831240Y-245235500D03*
%TO.P,E1,B76,B76*%
%TO.N,unconnected-(E1-PadB76)*%
X332831240Y-245235500D03*
%TO.P,E1,B77,B77*%
%TO.N,unconnected-(E1-PadB77)*%
X333831240Y-245235500D03*
%TO.P,E1,B78,B78*%
%TO.N,unconnected-(E1-PadB78)*%
X334831240Y-245235500D03*
%TO.P,E1,B79,B79*%
%TO.N,unconnected-(E1-PadB79)*%
X335831240Y-245235500D03*
%TO.P,E1,B80,B80*%
%TO.N,unconnected-(E1-PadB80)*%
X336831240Y-245235500D03*
D37*
%TO.P,E1,B81,B81*%
%TO.N,unconnected-(E1-PadB81)*%
X337831240Y-244685500D03*
D36*
%TO.P,E1,B82,B82*%
%TO.N,unconnected-(E1-PadB82)*%
X338831240Y-245235500D03*
%TD*%
D19*
%TO.P,K7,11*%
%TO.N,Net-(JP7-B)*%
X331547740Y-185942000D03*
%TO.P,K7,12*%
%TO.N,Net-(JP6-B)*%
X323927740Y-178322000D03*
%TO.P,K7,14*%
%TO.N,unconnected-(K7-Pad14)*%
X331547740Y-178322000D03*
D20*
%TO.P,K7,A1*%
%TO.N,Net-(U14-VO)*%
X331547740Y-196102000D03*
D21*
%TO.P,K7,A2*%
%TO.N,GND*%
X323927740Y-196102000D03*
%TD*%
D10*
%TO.P,JP15,1,A*%
%TO.N,Net-(JP14-B)*%
X447121240Y-160725500D03*
D11*
%TO.P,JP15,2,B*%
%TO.N,Net-(JP15-B)*%
X448421240Y-160725500D03*
%TD*%
D12*
%TO.P,U22,1,ADJ*%
%TO.N,Net-(U22-ADJ)*%
X386238740Y-200787000D03*
%TO.P,U22,2,VO*%
%TO.N,Net-(U22-VO)*%
X386238740Y-203087000D03*
D13*
X392538740Y-203087000D03*
D12*
%TO.P,U22,3,VI*%
%TO.N,Net-(U22-VI)*%
X386238740Y-205387000D03*
%TD*%
%TO.P,U26,1,ADJ*%
%TO.N,Net-(U26-ADJ)*%
X416238740Y-200787000D03*
%TO.P,U26,2,VO*%
%TO.N,Net-(U26-VO)*%
X416238740Y-203087000D03*
D13*
X422538740Y-203087000D03*
D12*
%TO.P,U26,3,VI*%
%TO.N,Net-(U26-VI)*%
X416238740Y-205387000D03*
%TD*%
D24*
%TO.P,L14,1,1*%
%TO.N,Net-(JP13-B)*%
X427357740Y-169559000D03*
X429857740Y-166559000D03*
X430357740Y-169559000D03*
X432857740Y-165059000D03*
X432857740Y-167809000D03*
%TO.P,L14,2,2*%
%TO.N,Net-(JP14-B)*%
X432857740Y-171309000D03*
X432857740Y-174059000D03*
X435357740Y-169559000D03*
X435857740Y-172559000D03*
X438357740Y-169559000D03*
%TD*%
D17*
%TO.P,C2,1*%
%TO.N,GND*%
X246493240Y-200801000D03*
%TO.P,C2,2*%
%TO.N,Net-(U4-ADJ)*%
X248568240Y-200801000D03*
%TD*%
D14*
%TO.P,R36,1*%
%TO.N,O3*%
X276948240Y-213082000D03*
%TO.P,R36,2*%
%TO.N,Net-(R36-Pad2)*%
X276948240Y-211257000D03*
%TD*%
%TO.P,R48,1*%
%TO.N,O15*%
X456948240Y-213082000D03*
%TO.P,R48,2*%
%TO.N,Net-(R48-Pad2)*%
X456948240Y-211257000D03*
%TD*%
D22*
%TO.P,R58,1*%
%TO.N,Net-(U20-VI)*%
X377976740Y-208270500D03*
%TO.P,R58,2*%
%TO.N,Net-(D10-A)*%
X377976740Y-210095500D03*
%TD*%
%TO.P,R54,1*%
%TO.N,Net-(U12-VI)*%
X317976740Y-208270500D03*
%TO.P,R54,2*%
%TO.N,Net-(D6-A)*%
X317976740Y-210095500D03*
%TD*%
D18*
%TO.P,U1,1*%
%TO.N,Net-(R33-Pad2)*%
X234373740Y-211088000D03*
%TO.P,U1,3*%
%TO.N,GND*%
X234373740Y-213628000D03*
%TO.P,U1,4*%
%TO.N,+5V*%
X240673740Y-213628000D03*
%TO.P,U1,6*%
%TO.N,Net-(U2-VI)*%
X240673740Y-211088000D03*
%TD*%
D24*
%TO.P,L15,1,1*%
%TO.N,Net-(JP14-B)*%
X442357740Y-169559000D03*
X444857740Y-166559000D03*
X445357740Y-169559000D03*
X447857740Y-165059000D03*
X447857740Y-167809000D03*
%TO.P,L15,2,2*%
%TO.N,Net-(JP15-B)*%
X447857740Y-171309000D03*
X447857740Y-174059000D03*
X450357740Y-169559000D03*
X450857740Y-172559000D03*
X453357740Y-169559000D03*
%TD*%
D16*
%TO.P,R14,1*%
%TO.N,Net-(U28-VI)*%
X427490740Y-207643000D03*
%TO.P,R14,2*%
%TO.N,Net-(U28-VO)*%
X427490740Y-205643000D03*
%TD*%
D15*
%TO.P,D13,1,K*%
%TO.N,GND*%
X422976740Y-213600000D03*
%TO.P,D13,2,A*%
%TO.N,Net-(D13-A)*%
X422976740Y-211850000D03*
%TD*%
D38*
%TO.P,U33,1,IN*%
%TO.N,Net-(JP17-B)*%
X472796240Y-221758000D03*
%TO.P,U33,2,GND*%
%TO.N,GND*%
X472796240Y-224038000D03*
D39*
X477421240Y-222513000D03*
X477421240Y-225563000D03*
D40*
X479096240Y-224038000D03*
D39*
X480771240Y-222513000D03*
X480771240Y-225563000D03*
D38*
%TO.P,U33,3,OUT*%
%TO.N,+5V*%
X472796240Y-226318000D03*
%TD*%
D18*
%TO.P,U15,1*%
%TO.N,Net-(R40-Pad2)*%
X339373740Y-211088000D03*
%TO.P,U15,3*%
%TO.N,GND*%
X339373740Y-213628000D03*
%TO.P,U15,4*%
%TO.N,+5V*%
X345673740Y-213628000D03*
%TO.P,U15,6*%
%TO.N,Net-(U16-VI)*%
X345673740Y-211088000D03*
%TD*%
D10*
%TO.P,JP10,1,A*%
%TO.N,Net-(JP10-A)*%
X372121240Y-160725500D03*
D11*
%TO.P,JP10,2,B*%
%TO.N,Net-(JP10-B)*%
X373421240Y-160725500D03*
%TD*%
D19*
%TO.P,K13,11*%
%TO.N,Net-(JP13-B)*%
X421547740Y-185942000D03*
%TO.P,K13,12*%
%TO.N,Net-(JP12-B)*%
X413927740Y-178322000D03*
%TO.P,K13,14*%
%TO.N,unconnected-(K13-Pad14)*%
X421547740Y-178322000D03*
D20*
%TO.P,K13,A1*%
%TO.N,Net-(U26-VO)*%
X421547740Y-196102000D03*
D21*
%TO.P,K13,A2*%
%TO.N,GND*%
X413927740Y-196102000D03*
%TD*%
D23*
%TO.P,R28,1*%
%TO.N,Net-(U24-ADJ)*%
X396618240Y-203087000D03*
%TO.P,R28,2*%
%TO.N,Net-(U24-VO)*%
X398443240Y-203087000D03*
%TD*%
%TO.P,R32,1*%
%TO.N,Net-(U32-ADJ)*%
X456618240Y-203087000D03*
%TO.P,R32,2*%
%TO.N,Net-(U32-VO)*%
X458443240Y-203087000D03*
%TD*%
D14*
%TO.P,R42,1*%
%TO.N,O9*%
X366948240Y-213082000D03*
%TO.P,R42,2*%
%TO.N,Net-(R42-Pad2)*%
X366948240Y-211257000D03*
%TD*%
D24*
%TO.P,L13,1,1*%
%TO.N,Net-(JP12-B)*%
X412357740Y-169559000D03*
X414857740Y-166559000D03*
X415357740Y-169559000D03*
X417857740Y-165059000D03*
X417857740Y-167809000D03*
%TO.P,L13,2,2*%
%TO.N,Net-(JP13-B)*%
X417857740Y-171309000D03*
X417857740Y-174059000D03*
X420357740Y-169559000D03*
X420857740Y-172559000D03*
X423357740Y-169559000D03*
%TD*%
D22*
%TO.P,R64,1*%
%TO.N,Net-(U32-VI)*%
X467976740Y-208270500D03*
%TO.P,R64,2*%
%TO.N,Net-(D16-A)*%
X467976740Y-210095500D03*
%TD*%
D16*
%TO.P,R8,1*%
%TO.N,Net-(U16-VI)*%
X337490740Y-207643000D03*
%TO.P,R8,2*%
%TO.N,Net-(U16-VO)*%
X337490740Y-205643000D03*
%TD*%
D14*
%TO.P,R46,1*%
%TO.N,O13*%
X426948240Y-213082000D03*
%TO.P,R46,2*%
%TO.N,Net-(R46-Pad2)*%
X426948240Y-211257000D03*
%TD*%
D16*
%TO.P,R11,1*%
%TO.N,Net-(U22-VI)*%
X382490740Y-207643000D03*
%TO.P,R11,2*%
%TO.N,Net-(U22-VO)*%
X382490740Y-205643000D03*
%TD*%
D41*
%TO.N,GND*%
X296372740Y-212993000D03*
X364521240Y-213439500D03*
X461372740Y-212993000D03*
X236372740Y-212993000D03*
X341372740Y-212993000D03*
X281372740Y-212993000D03*
X349521240Y-213439500D03*
X304521240Y-213439500D03*
X251372740Y-212993000D03*
X289521240Y-213439500D03*
X477096240Y-226075500D03*
X431372740Y-212993000D03*
X478096240Y-223075500D03*
X446372740Y-212993000D03*
X424521240Y-213439500D03*
X481096240Y-224075500D03*
X296372740Y-212993000D03*
X394521240Y-213439500D03*
X480096240Y-223075500D03*
X259521240Y-213439500D03*
X479096240Y-224075500D03*
X251372740Y-212993000D03*
X264821240Y-241675500D03*
X439521240Y-213439500D03*
X401372740Y-212993000D03*
X477096240Y-222325500D03*
X334521240Y-213439500D03*
X477096240Y-224075500D03*
X446372740Y-212993000D03*
X281471240Y-218750000D03*
X311372740Y-212993000D03*
X416372740Y-212993000D03*
X416372740Y-212993000D03*
X454521240Y-213439500D03*
X266372740Y-212993000D03*
X469621240Y-212575500D03*
X461372740Y-212993000D03*
X294271240Y-219225500D03*
X401372740Y-212993000D03*
X244521240Y-213439500D03*
X266372740Y-212993000D03*
X479096240Y-226075500D03*
X371372740Y-212993000D03*
X392968740Y-215279000D03*
X409521240Y-213439500D03*
X481096240Y-222325500D03*
X281372740Y-212993000D03*
X481096240Y-225825500D03*
X478096240Y-225075500D03*
X386372740Y-212993000D03*
X396721240Y-223625500D03*
X356372740Y-212993000D03*
X379521240Y-213439500D03*
X311372740Y-212993000D03*
X431372740Y-212993000D03*
X479096240Y-222325500D03*
X274521240Y-213439500D03*
X341372740Y-212993000D03*
X356372740Y-212993000D03*
X371372740Y-212993000D03*
X326372740Y-212993000D03*
X480096240Y-225075500D03*
X319521240Y-213439500D03*
X440921240Y-224125500D03*
X326372740Y-212993000D03*
X386372740Y-212993000D03*
D42*
%TO.N,Net-(JP1-B)*%
X237971240Y-189725500D03*
X237917381Y-208625500D03*
%TO.N,Net-(JP2-B)*%
X252971240Y-189725500D03*
X252917381Y-208625500D03*
%TO.N,Net-(JP3-B)*%
X267971240Y-189725500D03*
X267917381Y-208625500D03*
%TO.N,Net-(JP4-B)*%
X282971240Y-189725500D03*
X282917381Y-208625500D03*
%TO.N,Net-(JP5-B)*%
X297971240Y-189725500D03*
X297917381Y-208625500D03*
%TO.N,Net-(JP6-B)*%
X312917381Y-208625500D03*
X312971240Y-189725500D03*
%TO.N,Net-(JP7-B)*%
X327917381Y-208625500D03*
X327971240Y-189725500D03*
%TO.N,Net-(JP8-B)*%
X342917381Y-208625500D03*
X342971240Y-189725500D03*
%TO.N,Net-(JP10-A)*%
X357917381Y-208625500D03*
X357971240Y-189725500D03*
%TO.N,Net-(JP10-B)*%
X372917381Y-208625500D03*
X372971240Y-189725500D03*
%TO.N,Net-(JP11-B)*%
X387917381Y-208625500D03*
X387971240Y-189725500D03*
%TO.N,Net-(JP12-B)*%
X402917381Y-208625500D03*
X402971240Y-189725500D03*
%TO.N,Net-(JP13-B)*%
X417971240Y-189725500D03*
X417917381Y-208625500D03*
%TO.N,Net-(JP14-B)*%
X432971240Y-189725500D03*
X432917381Y-208625500D03*
%TO.N,Net-(JP15-B)*%
X447971240Y-189725500D03*
X447917381Y-208625500D03*
%TO.N,Output*%
X462971240Y-189725500D03*
X462917381Y-208625500D03*
D41*
%TO.N,+5V*%
X285673740Y-216450000D03*
X330673740Y-216450000D03*
X300673740Y-216450000D03*
X420673740Y-216450000D03*
X345673740Y-216450000D03*
X435673740Y-216450000D03*
X255673740Y-216450000D03*
X375673740Y-216450000D03*
X360673740Y-216450000D03*
X390673740Y-216450000D03*
X450673740Y-216450000D03*
X270673740Y-216450000D03*
X465673740Y-216450000D03*
X315673740Y-216450000D03*
X405673740Y-216450000D03*
X240673740Y-216450000D03*
%TO.N,+24V*%
X256831240Y-240575500D03*
X466846240Y-221825500D03*
X266390909Y-231045169D03*
%TO.N,+12V*%
X465171240Y-225825500D03*
X462471240Y-225825500D03*
X258831240Y-239665500D03*
%TD*%
D43*
%TO.N,GND*%
X310737740Y-213628000D02*
X311372740Y-212993000D01*
D44*
X263831240Y-245235500D02*
X263831240Y-242665500D01*
D43*
X309373740Y-213628000D02*
X310737740Y-213628000D01*
X392976740Y-215271000D02*
X392968740Y-215279000D01*
X368927740Y-196102000D02*
X366493240Y-198536500D01*
X354373740Y-213628000D02*
X355737740Y-213628000D01*
X396493240Y-198536500D02*
X396493240Y-200801000D01*
X263927740Y-196102000D02*
X261493240Y-198536500D01*
X459373740Y-213628000D02*
X460737740Y-213628000D01*
X452976740Y-213600000D02*
X454360740Y-213600000D01*
D44*
X295737740Y-213628000D02*
X295737740Y-217759000D01*
D43*
X469621240Y-212575500D02*
X468596740Y-213600000D01*
X231493240Y-198536500D02*
X231493240Y-200801000D01*
D44*
X265631240Y-242485500D02*
X265631240Y-245235500D01*
D43*
X413927740Y-196102000D02*
X411493240Y-198536500D01*
X379360740Y-213600000D02*
X379521240Y-213439500D01*
X308927740Y-196102000D02*
X306493240Y-198536500D01*
X351493240Y-198536500D02*
X351493240Y-200801000D01*
X445737740Y-213628000D02*
X446372740Y-212993000D01*
X381493240Y-198536500D02*
X381493240Y-200801000D01*
X259360740Y-213600000D02*
X259521240Y-213439500D01*
X353927740Y-196102000D02*
X351493240Y-198536500D01*
X384373740Y-213628000D02*
X385737740Y-213628000D01*
X366493240Y-198536500D02*
X366493240Y-200801000D01*
X294373740Y-213628000D02*
X295737740Y-213628000D01*
X242976740Y-213600000D02*
X244360740Y-213600000D01*
D44*
X440921240Y-224125500D02*
X445737740Y-219309000D01*
D43*
X460737740Y-213628000D02*
X461372740Y-212993000D01*
D44*
X264831240Y-245235500D02*
X264831240Y-241685500D01*
D43*
X415737740Y-213628000D02*
X416372740Y-212993000D01*
X414373740Y-213628000D02*
X415737740Y-213628000D01*
X257976740Y-213600000D02*
X259360740Y-213600000D01*
X422976740Y-213600000D02*
X424360740Y-213600000D01*
D44*
X263831240Y-242665500D02*
X264821240Y-241675500D01*
D43*
X274360740Y-213600000D02*
X274521240Y-213439500D01*
X304360740Y-213600000D02*
X304521240Y-213439500D01*
D44*
X264821240Y-241675500D02*
X265631240Y-242485500D01*
D43*
X235737740Y-213628000D02*
X236372740Y-212993000D01*
D44*
X280737740Y-213628000D02*
X280737740Y-218016500D01*
D43*
X272976740Y-213600000D02*
X274360740Y-213600000D01*
X334360740Y-213600000D02*
X334521240Y-213439500D01*
X319360740Y-213600000D02*
X319521240Y-213439500D01*
X289360740Y-213600000D02*
X289521240Y-213439500D01*
X394360740Y-213600000D02*
X394521240Y-213439500D01*
X340737740Y-213628000D02*
X341372740Y-212993000D01*
X439360740Y-213600000D02*
X439521240Y-213439500D01*
X302976740Y-213600000D02*
X304360740Y-213600000D01*
X278927740Y-196102000D02*
X276493240Y-198536500D01*
X385737740Y-213628000D02*
X386372740Y-212993000D01*
X276493240Y-198536500D02*
X276493240Y-200801000D01*
X426493240Y-198536500D02*
X426493240Y-200801000D01*
X244360740Y-213600000D02*
X244521240Y-213439500D01*
D44*
X396721240Y-223625500D02*
X400737740Y-219609000D01*
D43*
X347976740Y-213600000D02*
X349360740Y-213600000D01*
X399373740Y-213628000D02*
X400737740Y-213628000D01*
X444373740Y-213628000D02*
X445737740Y-213628000D01*
X287976740Y-213600000D02*
X289360740Y-213600000D01*
X429373740Y-213628000D02*
X430737740Y-213628000D01*
X441493240Y-198536500D02*
X441493240Y-200801000D01*
X458927740Y-196102000D02*
X456493240Y-198536500D01*
X456493240Y-198536500D02*
X456493240Y-200801000D01*
X295737740Y-213628000D02*
X296372740Y-212993000D01*
X339373740Y-213628000D02*
X340737740Y-213628000D01*
X400737740Y-213628000D02*
X401372740Y-212993000D01*
X383927740Y-196102000D02*
X381493240Y-198536500D01*
X409360740Y-213600000D02*
X409521240Y-213439500D01*
X437976740Y-213600000D02*
X439360740Y-213600000D01*
X234373740Y-213628000D02*
X235737740Y-213628000D01*
X249373740Y-213628000D02*
X250737740Y-213628000D01*
X280737740Y-213628000D02*
X281372740Y-212993000D01*
X468596740Y-213600000D02*
X467976740Y-213600000D01*
X306493240Y-198536500D02*
X306493240Y-200801000D01*
D44*
X400737740Y-219609000D02*
X400737740Y-213628000D01*
D43*
X411493240Y-198536500D02*
X411493240Y-200801000D01*
X430737740Y-213628000D02*
X431372740Y-212993000D01*
X293927740Y-196102000D02*
X291493240Y-198536500D01*
X472796240Y-224038000D02*
X479096240Y-224038000D01*
X349360740Y-213600000D02*
X349521240Y-213439500D01*
X317976740Y-213600000D02*
X319360740Y-213600000D01*
X362976740Y-213600000D02*
X364360740Y-213600000D01*
D44*
X264831240Y-241685500D02*
X264821240Y-241675500D01*
D43*
X250737740Y-213628000D02*
X251372740Y-212993000D01*
D44*
X280737740Y-218016500D02*
X281471240Y-218750000D01*
D43*
X369373740Y-213628000D02*
X370737740Y-213628000D01*
D44*
X295737740Y-217759000D02*
X294271240Y-219225500D01*
D43*
X336493240Y-198536500D02*
X336493240Y-200801000D01*
X261493240Y-198536500D02*
X261493240Y-200801000D01*
X233927740Y-196102000D02*
X231493240Y-198536500D01*
X364360740Y-213600000D02*
X364521240Y-213439500D01*
X398927740Y-196102000D02*
X396493240Y-198536500D01*
X443927740Y-196102000D02*
X441493240Y-198536500D01*
X324373740Y-213628000D02*
X325737740Y-213628000D01*
X454360740Y-213600000D02*
X454521240Y-213439500D01*
X407976740Y-213600000D02*
X409360740Y-213600000D01*
X338927740Y-196102000D02*
X336493240Y-198536500D01*
X264373740Y-213628000D02*
X265737740Y-213628000D01*
X248927740Y-196102000D02*
X246493240Y-198536500D01*
X392976740Y-213600000D02*
X392976740Y-215271000D01*
X321493240Y-198536500D02*
X321493240Y-200801000D01*
X370737740Y-213628000D02*
X371372740Y-212993000D01*
X246493240Y-198536500D02*
X246493240Y-200801000D01*
X265737740Y-213628000D02*
X266372740Y-212993000D01*
X377976740Y-213600000D02*
X379360740Y-213600000D01*
X325737740Y-213628000D02*
X326372740Y-212993000D01*
X323927740Y-196102000D02*
X321493240Y-198536500D01*
X291493240Y-198536500D02*
X291493240Y-200801000D01*
X332976740Y-213600000D02*
X334360740Y-213600000D01*
X428927740Y-196102000D02*
X426493240Y-198536500D01*
X355737740Y-213628000D02*
X356372740Y-212993000D01*
X424360740Y-213600000D02*
X424521240Y-213439500D01*
D44*
X445737740Y-219309000D02*
X445737740Y-213628000D01*
D43*
X279373740Y-213628000D02*
X280737740Y-213628000D01*
X392976740Y-213600000D02*
X394360740Y-213600000D01*
%TO.N,Net-(D1-A)*%
X242976740Y-211850000D02*
X242976740Y-210095500D01*
D45*
%TO.N,Input*%
X234857740Y-162539000D02*
X236521240Y-160875500D01*
X233927740Y-170989000D02*
X235357740Y-169559000D01*
D46*
X232357740Y-169559000D02*
X236857740Y-165059000D01*
D45*
X232357740Y-169559000D02*
X235357740Y-169559000D01*
X234857740Y-166559000D02*
X236280240Y-167981500D01*
X237107740Y-167809000D02*
X236280240Y-168636500D01*
D46*
X236857740Y-165059000D02*
X237497240Y-165059000D01*
D45*
X233927740Y-178322000D02*
X233927740Y-170989000D01*
X236280240Y-168636500D02*
X235357740Y-169559000D01*
X234857740Y-166559000D02*
X234857740Y-162539000D01*
X237857740Y-167809000D02*
X237107740Y-167809000D01*
X237857740Y-167809000D02*
X237857740Y-165059000D01*
X223921240Y-169575500D02*
X232341240Y-169575500D01*
X232341240Y-169575500D02*
X232357740Y-169559000D01*
D46*
%TO.N,Net-(JP1-B)*%
X238857740Y-174059000D02*
X243357740Y-169559000D01*
D45*
X247357740Y-169559000D02*
X250357740Y-169559000D01*
X239607740Y-171309000D02*
X240857740Y-172559000D01*
X251280240Y-168636500D02*
X250357740Y-169559000D01*
D46*
X251857740Y-165059000D02*
X252497240Y-165059000D01*
D45*
X237857740Y-174059000D02*
X237857740Y-171309000D01*
X241547740Y-185942000D02*
X237857740Y-182252000D01*
X243357740Y-169559000D02*
X247357740Y-169559000D01*
X240357740Y-169559000D02*
X241296240Y-168620500D01*
X252857740Y-167809000D02*
X252107740Y-167809000D01*
X241296240Y-168620500D02*
X241296240Y-163150500D01*
D43*
X240357740Y-169559000D02*
X239607740Y-169559000D01*
D45*
X237857740Y-171309000D02*
X239607740Y-171309000D01*
D46*
X237857740Y-174059000D02*
X238857740Y-174059000D01*
D45*
X248927740Y-178322000D02*
X248927740Y-170989000D01*
X249857740Y-162539000D02*
X251521240Y-160875500D01*
X240357740Y-169559000D02*
X243357740Y-169559000D01*
D46*
X243357740Y-169559000D02*
X247997240Y-169559000D01*
D45*
X241296240Y-163150500D02*
X239121240Y-160975500D01*
X248927740Y-170989000D02*
X250357740Y-169559000D01*
X249857740Y-166559000D02*
X251280240Y-167981500D01*
X252857740Y-167809000D02*
X252857740Y-165059000D01*
X237857740Y-171309000D02*
X238607740Y-171309000D01*
X238607740Y-171309000D02*
X240357740Y-169559000D01*
X237857740Y-182252000D02*
X237857740Y-174059000D01*
D46*
X247357740Y-169559000D02*
X251857740Y-165059000D01*
D45*
X252107740Y-167809000D02*
X251280240Y-168636500D01*
X249857740Y-166559000D02*
X249857740Y-162539000D01*
D44*
%TO.N,O0*%
X231948240Y-213082000D02*
X231971240Y-213105000D01*
X212826240Y-195160500D02*
X212796240Y-195130500D01*
X225729007Y-196410500D02*
X217426240Y-196410500D01*
X231948240Y-213082000D02*
X230421240Y-211555000D01*
X216176240Y-195160500D02*
X216146240Y-195130500D01*
X217426240Y-196410500D02*
X216176240Y-195160500D01*
X230421240Y-211555000D02*
X230421240Y-201102733D01*
X230421240Y-201102733D02*
X225729007Y-196410500D01*
X216176240Y-195160500D02*
X212826240Y-195160500D01*
D43*
%TO.N,Net-(U2-ADJ)*%
X236224740Y-200801000D02*
X236238740Y-200787000D01*
D44*
X231618240Y-203087000D02*
X231618240Y-202751000D01*
X231618240Y-202751000D02*
X233568240Y-200801000D01*
D43*
X233568240Y-200801000D02*
X236224740Y-200801000D01*
D44*
%TO.N,Net-(U4-ADJ)*%
X246618240Y-202751000D02*
X248568240Y-200801000D01*
X246618240Y-203087000D02*
X246618240Y-202751000D01*
D43*
X251224740Y-200801000D02*
X251238740Y-200787000D01*
X248568240Y-200801000D02*
X251224740Y-200801000D01*
%TO.N,Net-(U6-ADJ)*%
X266224740Y-200801000D02*
X266238740Y-200787000D01*
D44*
X261618240Y-202751000D02*
X263568240Y-200801000D01*
D43*
X263568240Y-200801000D02*
X266224740Y-200801000D01*
D44*
X261618240Y-203087000D02*
X261618240Y-202751000D01*
D43*
%TO.N,Net-(U8-ADJ)*%
X281224740Y-200801000D02*
X281238740Y-200787000D01*
D44*
X276618240Y-202751000D02*
X278568240Y-200801000D01*
D43*
X278568240Y-200801000D02*
X281224740Y-200801000D01*
D44*
X276618240Y-203087000D02*
X276618240Y-202751000D01*
D43*
%TO.N,Net-(U10-ADJ)*%
X296224740Y-200801000D02*
X296238740Y-200787000D01*
D44*
X291618240Y-202751000D02*
X293568240Y-200801000D01*
X291618240Y-203087000D02*
X291618240Y-202751000D01*
D43*
X293568240Y-200801000D02*
X296224740Y-200801000D01*
%TO.N,Net-(U12-ADJ)*%
X311224740Y-200801000D02*
X311238740Y-200787000D01*
D44*
X306618240Y-203087000D02*
X306618240Y-202751000D01*
X306618240Y-202751000D02*
X308568240Y-200801000D01*
D43*
X308568240Y-200801000D02*
X311224740Y-200801000D01*
D44*
%TO.N,Net-(U14-ADJ)*%
X321618240Y-203087000D02*
X321618240Y-202751000D01*
D43*
X323568240Y-200801000D02*
X326224740Y-200801000D01*
X326224740Y-200801000D02*
X326238740Y-200787000D01*
D44*
X321618240Y-202751000D02*
X323568240Y-200801000D01*
%TO.N,Net-(U16-ADJ)*%
X336618240Y-202751000D02*
X338568240Y-200801000D01*
D43*
X341224740Y-200801000D02*
X341238740Y-200787000D01*
D44*
X336618240Y-203087000D02*
X336618240Y-202751000D01*
D43*
X338568240Y-200801000D02*
X341224740Y-200801000D01*
%TO.N,Net-(U18-ADJ)*%
X353568240Y-200801000D02*
X356224740Y-200801000D01*
D44*
X351618240Y-202751000D02*
X353568240Y-200801000D01*
X351618240Y-203087000D02*
X351618240Y-202751000D01*
D43*
X356224740Y-200801000D02*
X356238740Y-200787000D01*
%TO.N,Net-(U20-ADJ)*%
X368568240Y-200801000D02*
X371224740Y-200801000D01*
D44*
X366618240Y-203087000D02*
X366618240Y-202751000D01*
X366618240Y-202751000D02*
X368568240Y-200801000D01*
D43*
X371224740Y-200801000D02*
X371238740Y-200787000D01*
D44*
%TO.N,Net-(U22-ADJ)*%
X381618240Y-202751000D02*
X383568240Y-200801000D01*
X381618240Y-203087000D02*
X381618240Y-202751000D01*
D43*
X383568240Y-200801000D02*
X386224740Y-200801000D01*
X386224740Y-200801000D02*
X386238740Y-200787000D01*
%TO.N,Net-(U24-ADJ)*%
X398568240Y-200801000D02*
X401224740Y-200801000D01*
D44*
X396618240Y-203087000D02*
X396618240Y-202751000D01*
X396618240Y-202751000D02*
X398568240Y-200801000D01*
D43*
X401224740Y-200801000D02*
X401238740Y-200787000D01*
D44*
%TO.N,Net-(U26-ADJ)*%
X411618240Y-203087000D02*
X411618240Y-202751000D01*
D43*
X413568240Y-200801000D02*
X416224740Y-200801000D01*
X416224740Y-200801000D02*
X416238740Y-200787000D01*
D44*
X411618240Y-202751000D02*
X413568240Y-200801000D01*
%TO.N,Net-(U28-ADJ)*%
X426618240Y-202751000D02*
X428568240Y-200801000D01*
D43*
X431224740Y-200801000D02*
X431238740Y-200787000D01*
X428568240Y-200801000D02*
X431224740Y-200801000D01*
D44*
X426618240Y-203087000D02*
X426618240Y-202751000D01*
D43*
%TO.N,Net-(U30-ADJ)*%
X443568240Y-200801000D02*
X446224740Y-200801000D01*
X446224740Y-200801000D02*
X446238740Y-200787000D01*
D44*
X441618240Y-202751000D02*
X443568240Y-200801000D01*
X441618240Y-203087000D02*
X441618240Y-202751000D01*
D43*
%TO.N,Net-(U32-ADJ)*%
X458568240Y-200801000D02*
X461224740Y-200801000D01*
X461224740Y-200801000D02*
X461238740Y-200787000D01*
D44*
X456618240Y-203087000D02*
X456618240Y-202751000D01*
X456618240Y-202751000D02*
X458568240Y-200801000D01*
D43*
%TO.N,Net-(D2-A)*%
X257976740Y-211850000D02*
X257976740Y-210095500D01*
%TO.N,Net-(D3-A)*%
X272976740Y-211850000D02*
X272976740Y-210095500D01*
%TO.N,Net-(D4-A)*%
X287976740Y-211850000D02*
X287976740Y-210095500D01*
%TO.N,Net-(D5-A)*%
X302976740Y-211850000D02*
X302976740Y-210095500D01*
%TO.N,Net-(D6-A)*%
X317976740Y-211850000D02*
X317976740Y-210095500D01*
%TO.N,Net-(D7-A)*%
X332976740Y-211850000D02*
X332976740Y-210095500D01*
%TO.N,Net-(D8-A)*%
X347976740Y-211850000D02*
X347976740Y-210095500D01*
%TO.N,Net-(D9-A)*%
X362976740Y-211850000D02*
X362976740Y-210095500D01*
%TO.N,Net-(D10-A)*%
X377976740Y-211850000D02*
X377976740Y-210095500D01*
%TO.N,Net-(D11-A)*%
X392976740Y-211850000D02*
X392976740Y-210095500D01*
%TO.N,Net-(D12-A)*%
X407976740Y-211850000D02*
X407976740Y-210095500D01*
%TO.N,Net-(D13-A)*%
X422976740Y-211850000D02*
X422976740Y-210095500D01*
%TO.N,Net-(D14-A)*%
X437976740Y-211850000D02*
X437976740Y-210095500D01*
%TO.N,Net-(D15-A)*%
X452976740Y-211850000D02*
X452976740Y-210095500D01*
%TO.N,Net-(D16-A)*%
X467976740Y-211850000D02*
X467976740Y-210095500D01*
D45*
%TO.N,Net-(JP2-B)*%
X252857740Y-182252000D02*
X252857740Y-174059000D01*
X263927740Y-170989000D02*
X265357740Y-169559000D01*
X252857740Y-174059000D02*
X252857740Y-171309000D01*
X256296240Y-163150500D02*
X254121240Y-160975500D01*
X267857740Y-167809000D02*
X267857740Y-165059000D01*
X256296240Y-168620500D02*
X256296240Y-163150500D01*
X264857740Y-162539000D02*
X266521240Y-160875500D01*
X252857740Y-171309000D02*
X254607740Y-171309000D01*
X256547740Y-185942000D02*
X252857740Y-182252000D01*
X267857740Y-167809000D02*
X267107740Y-167809000D01*
D43*
X255357740Y-169559000D02*
X254607740Y-169559000D01*
D46*
X253857740Y-174059000D02*
X258357740Y-169559000D01*
D45*
X267107740Y-167809000D02*
X266280240Y-168636500D01*
X262357740Y-169559000D02*
X265357740Y-169559000D01*
X252857740Y-174059000D02*
X252857740Y-171309000D01*
D46*
X252857740Y-174059000D02*
X253857740Y-174059000D01*
D45*
X255357740Y-169559000D02*
X255697240Y-169219500D01*
X254607740Y-171309000D02*
X255857740Y-172559000D01*
X255357740Y-169559000D02*
X258357740Y-169559000D01*
X254607740Y-171309000D02*
X255857740Y-172559000D01*
X266280240Y-168636500D02*
X265357740Y-169559000D01*
D46*
X266857740Y-165059000D02*
X267497240Y-165059000D01*
X262357740Y-169559000D02*
X266857740Y-165059000D01*
X258357740Y-169559000D02*
X262997240Y-169559000D01*
D45*
X252857740Y-171309000D02*
X254607740Y-171309000D01*
X264857740Y-166559000D02*
X266280240Y-167981500D01*
X264857740Y-166559000D02*
X264857740Y-162539000D01*
X263927740Y-178322000D02*
X263927740Y-170989000D01*
X258357740Y-169559000D02*
X262357740Y-169559000D01*
X252857740Y-182252000D02*
X252857740Y-174059000D01*
X252857740Y-171309000D02*
X253607740Y-171309000D01*
X253607740Y-171309000D02*
X255357740Y-169559000D01*
X252857740Y-171309000D02*
X253607740Y-171309000D01*
%TO.N,Net-(JP3-B)*%
X278927740Y-178322000D02*
X278927740Y-170989000D01*
D46*
X268857740Y-174059000D02*
X273357740Y-169559000D01*
D45*
X269607740Y-171309000D02*
X270857740Y-172559000D01*
X270357740Y-169559000D02*
X273357740Y-169559000D01*
X273357740Y-169559000D02*
X277357740Y-169559000D01*
X271296240Y-163150500D02*
X269121240Y-160975500D01*
X267857740Y-171309000D02*
X269607740Y-171309000D01*
X271296240Y-168620500D02*
X271296240Y-163150500D01*
X279857740Y-162539000D02*
X281521240Y-160875500D01*
X267857740Y-182252000D02*
X267857740Y-174059000D01*
X278927740Y-170989000D02*
X280357740Y-169559000D01*
X282107740Y-167809000D02*
X281280240Y-168636500D01*
X267857740Y-174059000D02*
X267857740Y-171309000D01*
X270357740Y-169559000D02*
X270697240Y-169219500D01*
X267857740Y-174059000D02*
X267857740Y-171309000D01*
D46*
X267857740Y-174059000D02*
X268857740Y-174059000D01*
D45*
X282857740Y-167809000D02*
X282857740Y-165059000D01*
X277357740Y-169559000D02*
X280357740Y-169559000D01*
X267857740Y-171309000D02*
X268607740Y-171309000D01*
D46*
X281857740Y-165059000D02*
X282497240Y-165059000D01*
D45*
X282857740Y-167809000D02*
X282107740Y-167809000D01*
X267857740Y-182252000D02*
X267857740Y-174059000D01*
X271547740Y-185942000D02*
X267857740Y-182252000D01*
X267857740Y-171309000D02*
X269607740Y-171309000D01*
X268607740Y-171309000D02*
X270357740Y-169559000D01*
D46*
X273357740Y-169559000D02*
X277997240Y-169559000D01*
D45*
X279857740Y-166559000D02*
X281280240Y-167981500D01*
D43*
X270357740Y-169559000D02*
X269607740Y-169559000D01*
D45*
X267857740Y-171309000D02*
X268607740Y-171309000D01*
X281280240Y-168636500D02*
X280357740Y-169559000D01*
X279857740Y-166559000D02*
X279857740Y-162539000D01*
X269607740Y-171309000D02*
X270857740Y-172559000D01*
D46*
X277357740Y-169559000D02*
X281857740Y-165059000D01*
D45*
%TO.N,Net-(JP4-B)*%
X297107740Y-167809000D02*
X296280240Y-168636500D01*
X286296240Y-168620500D02*
X286296240Y-163150500D01*
X286296240Y-163150500D02*
X284121240Y-160975500D01*
X294857740Y-162539000D02*
X296521240Y-160875500D01*
X297857740Y-167809000D02*
X297857740Y-165059000D01*
D46*
X296857740Y-165059000D02*
X297497240Y-165059000D01*
D45*
X294857740Y-166559000D02*
X296280240Y-167981500D01*
X292357740Y-169559000D02*
X295357740Y-169559000D01*
D46*
X292357740Y-169559000D02*
X296857740Y-165059000D01*
D43*
X293927740Y-170989000D02*
X295357740Y-169559000D01*
X285357740Y-169559000D02*
X284607740Y-169559000D01*
D46*
X282857740Y-174059000D02*
X283857740Y-174059000D01*
D45*
X294857740Y-166559000D02*
X294857740Y-162539000D01*
D46*
X288357740Y-169559000D02*
X292997240Y-169559000D01*
D45*
X285357740Y-169559000D02*
X288357740Y-169559000D01*
X286547740Y-185942000D02*
X282857740Y-182252000D01*
X296280240Y-168636500D02*
X295357740Y-169559000D01*
X285357740Y-169559000D02*
X285697240Y-169219500D01*
X282857740Y-182252000D02*
X282857740Y-174059000D01*
D46*
X283857740Y-174059000D02*
X288357740Y-169559000D01*
D45*
X297857740Y-167809000D02*
X297107740Y-167809000D01*
X284607740Y-171309000D02*
X285857740Y-172559000D01*
X283607740Y-171309000D02*
X285357740Y-169559000D01*
X288357740Y-169559000D02*
X292357740Y-169559000D01*
X293927740Y-178322000D02*
X293927740Y-170989000D01*
X282857740Y-174059000D02*
X282857740Y-171309000D01*
X282857740Y-182252000D02*
X282857740Y-174059000D01*
X282857740Y-171309000D02*
X284607740Y-171309000D01*
X282857740Y-171309000D02*
X283607740Y-171309000D01*
X293927740Y-170989000D02*
X295357740Y-169559000D01*
%TO.N,Net-(JP5-B)*%
X309857740Y-162539000D02*
X311521240Y-160875500D01*
X307357740Y-169559000D02*
X310357740Y-169559000D01*
X298607740Y-171309000D02*
X300357740Y-169559000D01*
X303357740Y-169559000D02*
X307357740Y-169559000D01*
X312857740Y-167809000D02*
X312107740Y-167809000D01*
X312857740Y-167809000D02*
X312857740Y-165059000D01*
D46*
X298857740Y-174059000D02*
X303357740Y-169559000D01*
D45*
X300357740Y-169559000D02*
X303357740Y-169559000D01*
X297857740Y-171309000D02*
X298607740Y-171309000D01*
X309857740Y-166559000D02*
X311280240Y-167981500D01*
X297857740Y-182252000D02*
X297857740Y-174059000D01*
X301296240Y-168620500D02*
X301296240Y-163150500D01*
D46*
X311857740Y-165059000D02*
X312497240Y-165059000D01*
D45*
X300357740Y-169559000D02*
X300697240Y-169219500D01*
D46*
X307357740Y-169559000D02*
X311857740Y-165059000D01*
X297857740Y-174059000D02*
X298857740Y-174059000D01*
D45*
X301296240Y-163150500D02*
X299121240Y-160975500D01*
X308927740Y-170989000D02*
X310357740Y-169559000D01*
X311280240Y-168636500D02*
X310357740Y-169559000D01*
X308927740Y-178322000D02*
X308927740Y-170989000D01*
D43*
X308927740Y-170989000D02*
X310357740Y-169559000D01*
D45*
X309857740Y-166559000D02*
X309857740Y-162539000D01*
X297857740Y-171309000D02*
X299607740Y-171309000D01*
D43*
X300357740Y-169559000D02*
X299607740Y-169559000D01*
D45*
X297857740Y-182252000D02*
X297857740Y-174059000D01*
X299607740Y-171309000D02*
X300857740Y-172559000D01*
D46*
X303357740Y-169559000D02*
X307997240Y-169559000D01*
D45*
X297857740Y-174059000D02*
X297857740Y-171309000D01*
X301547740Y-185942000D02*
X297857740Y-182252000D01*
X312107740Y-167809000D02*
X311280240Y-168636500D01*
%TO.N,Net-(JP6-B)*%
X324857740Y-166559000D02*
X324857740Y-162539000D01*
X327857740Y-167809000D02*
X327107740Y-167809000D01*
X312857740Y-182252000D02*
X312857740Y-174059000D01*
X314607740Y-171309000D02*
X315857740Y-172559000D01*
X316296240Y-163150500D02*
X314121240Y-160975500D01*
D43*
X323927740Y-170989000D02*
X325357740Y-169559000D01*
D46*
X322357740Y-169559000D02*
X326857740Y-165059000D01*
D45*
X324857740Y-162539000D02*
X326521240Y-160875500D01*
X313607740Y-171309000D02*
X315357740Y-169559000D01*
X312857740Y-171309000D02*
X313607740Y-171309000D01*
X316547740Y-185942000D02*
X312857740Y-182252000D01*
D46*
X312857740Y-174059000D02*
X313857740Y-174059000D01*
D45*
X315357740Y-169559000D02*
X318357740Y-169559000D01*
X326280240Y-168636500D02*
X325357740Y-169559000D01*
X312857740Y-182252000D02*
X312857740Y-174059000D01*
D46*
X318357740Y-169559000D02*
X322997240Y-169559000D01*
X313857740Y-174059000D02*
X318357740Y-169559000D01*
D45*
X312857740Y-171309000D02*
X314607740Y-171309000D01*
X327107740Y-167809000D02*
X326280240Y-168636500D01*
X315357740Y-169559000D02*
X315697240Y-169219500D01*
D43*
X315357740Y-169559000D02*
X314607740Y-169559000D01*
D46*
X326857740Y-165059000D02*
X327497240Y-165059000D01*
D45*
X323927740Y-170989000D02*
X325357740Y-169559000D01*
X322357740Y-169559000D02*
X325357740Y-169559000D01*
X318357740Y-169559000D02*
X322357740Y-169559000D01*
X312857740Y-174059000D02*
X312857740Y-171309000D01*
X323927740Y-178322000D02*
X323927740Y-170989000D01*
X327857740Y-167809000D02*
X327857740Y-165059000D01*
X324857740Y-166559000D02*
X326280240Y-167981500D01*
X316296240Y-168620500D02*
X316296240Y-163150500D01*
%TO.N,Net-(JP7-B)*%
X337357740Y-169559000D02*
X340357740Y-169559000D01*
X327857740Y-182252000D02*
X327857740Y-174059000D01*
D43*
X330357740Y-169559000D02*
X329607740Y-169559000D01*
D45*
X327857740Y-174059000D02*
X327857740Y-171309000D01*
X330357740Y-169559000D02*
X330697240Y-169219500D01*
X328607740Y-171309000D02*
X330357740Y-169559000D01*
X333357740Y-169559000D02*
X337357740Y-169559000D01*
D46*
X333357740Y-169559000D02*
X337997240Y-169559000D01*
X327857740Y-174059000D02*
X328857740Y-174059000D01*
D45*
X339857740Y-166559000D02*
X339857740Y-162539000D01*
X331296240Y-168620500D02*
X331296240Y-163150500D01*
X327857740Y-171309000D02*
X329607740Y-171309000D01*
X342857740Y-167809000D02*
X342107740Y-167809000D01*
X338927740Y-178322000D02*
X338927740Y-170989000D01*
X327857740Y-182252000D02*
X327857740Y-174059000D01*
X329607740Y-171309000D02*
X330857740Y-172559000D01*
D46*
X337357740Y-169559000D02*
X341857740Y-165059000D01*
D45*
X338927740Y-170989000D02*
X340357740Y-169559000D01*
D46*
X341857740Y-165059000D02*
X342497240Y-165059000D01*
D45*
X339857740Y-162539000D02*
X341521240Y-160875500D01*
X342107740Y-167809000D02*
X341280240Y-168636500D01*
D46*
X328857740Y-174059000D02*
X333357740Y-169559000D01*
D45*
X331547740Y-185942000D02*
X327857740Y-182252000D01*
X339857740Y-166559000D02*
X341280240Y-167981500D01*
X341280240Y-168636500D02*
X340357740Y-169559000D01*
D43*
X338927740Y-170989000D02*
X340357740Y-169559000D01*
D45*
X342857740Y-167809000D02*
X342857740Y-165059000D01*
X330357740Y-169559000D02*
X333357740Y-169559000D01*
X327857740Y-171309000D02*
X328607740Y-171309000D01*
X331296240Y-163150500D02*
X329121240Y-160975500D01*
%TO.N,Net-(JP8-B)*%
X342857740Y-171309000D02*
X343607740Y-171309000D01*
D43*
X345357740Y-169559000D02*
X344607740Y-169559000D01*
D45*
X345357740Y-169559000D02*
X345697240Y-169219500D01*
X354857740Y-166559000D02*
X356280240Y-167981500D01*
X353927740Y-178322000D02*
X353927740Y-170989000D01*
X346296240Y-163150500D02*
X344121240Y-160975500D01*
X346547740Y-185942000D02*
X342857740Y-182252000D01*
X342857740Y-182252000D02*
X342857740Y-174059000D01*
X342857740Y-174059000D02*
X342857740Y-171309000D01*
X354857740Y-162539000D02*
X356521240Y-160875500D01*
X342857740Y-182252000D02*
X342857740Y-174059000D01*
D46*
X352357740Y-169559000D02*
X356857740Y-165059000D01*
X348357740Y-169559000D02*
X352997240Y-169559000D01*
D45*
X357857740Y-167809000D02*
X357857740Y-165059000D01*
X353927740Y-170989000D02*
X355357740Y-169559000D01*
X346296240Y-168620500D02*
X346296240Y-163150500D01*
X342857740Y-171309000D02*
X344607740Y-171309000D01*
X343607740Y-171309000D02*
X345357740Y-169559000D01*
X352357740Y-169559000D02*
X355357740Y-169559000D01*
D46*
X356857740Y-165059000D02*
X357497240Y-165059000D01*
D45*
X345357740Y-169559000D02*
X348357740Y-169559000D01*
X357857740Y-167809000D02*
X357107740Y-167809000D01*
D46*
X342857740Y-174059000D02*
X343857740Y-174059000D01*
D45*
X348357740Y-169559000D02*
X352357740Y-169559000D01*
D43*
X353927740Y-170989000D02*
X355357740Y-169559000D01*
D45*
X354857740Y-166559000D02*
X354857740Y-162539000D01*
X356280240Y-168636500D02*
X355357740Y-169559000D01*
X344607740Y-171309000D02*
X345857740Y-172559000D01*
D46*
X343857740Y-174059000D02*
X348357740Y-169559000D01*
D45*
X357107740Y-167809000D02*
X356280240Y-168636500D01*
%TO.N,Net-(JP10-A)*%
X360357740Y-169559000D02*
X360697240Y-169219500D01*
X363357740Y-169559000D02*
X367357740Y-169559000D01*
D46*
X371857740Y-165059000D02*
X372497240Y-165059000D01*
D45*
X369857740Y-166559000D02*
X369857740Y-162539000D01*
X369857740Y-166559000D02*
X371280240Y-167981500D01*
D46*
X363357740Y-169559000D02*
X367997240Y-169559000D01*
D45*
X369857740Y-162539000D02*
X371521240Y-160875500D01*
X368927740Y-178322000D02*
X368927740Y-170989000D01*
X372857740Y-167809000D02*
X372107740Y-167809000D01*
X361547740Y-185942000D02*
X357857740Y-182252000D01*
D46*
X367357740Y-169559000D02*
X371857740Y-165059000D01*
X357857740Y-174059000D02*
X358857740Y-174059000D01*
D45*
X359607740Y-171309000D02*
X360857740Y-172559000D01*
D43*
X368927740Y-170989000D02*
X370357740Y-169559000D01*
D45*
X361296240Y-168620500D02*
X361296240Y-163150500D01*
X357857740Y-174059000D02*
X357857740Y-171309000D01*
X368927740Y-170989000D02*
X370357740Y-169559000D01*
X357857740Y-182252000D02*
X357857740Y-174059000D01*
X360357740Y-169559000D02*
X363357740Y-169559000D01*
X367357740Y-169559000D02*
X370357740Y-169559000D01*
X357857740Y-171309000D02*
X359607740Y-171309000D01*
X358607740Y-171309000D02*
X360357740Y-169559000D01*
X357857740Y-171309000D02*
X358607740Y-171309000D01*
X372857740Y-167809000D02*
X372857740Y-165059000D01*
X357857740Y-182252000D02*
X357857740Y-174059000D01*
X372107740Y-167809000D02*
X371280240Y-168636500D01*
X361296240Y-163150500D02*
X359121240Y-160975500D01*
D43*
X360357740Y-169559000D02*
X359607740Y-169559000D01*
D46*
X358857740Y-174059000D02*
X363357740Y-169559000D01*
D45*
X371280240Y-168636500D02*
X370357740Y-169559000D01*
%TO.N,Net-(JP10-B)*%
X383927740Y-170989000D02*
X385357740Y-169559000D01*
X376547740Y-185942000D02*
X372857740Y-182252000D01*
X372857740Y-182252000D02*
X372857740Y-174059000D01*
D46*
X372857740Y-174059000D02*
X373857740Y-174059000D01*
D45*
X372857740Y-182252000D02*
X372857740Y-174059000D01*
D46*
X382357740Y-169559000D02*
X386857740Y-165059000D01*
X373857740Y-174059000D02*
X378357740Y-169559000D01*
D43*
X383927740Y-170989000D02*
X385357740Y-169559000D01*
D46*
X378357740Y-169559000D02*
X382997240Y-169559000D01*
D45*
X387107740Y-167809000D02*
X386280240Y-168636500D01*
X374607740Y-171309000D02*
X375857740Y-172559000D01*
X387857740Y-167809000D02*
X387857740Y-165059000D01*
D43*
X375357740Y-169559000D02*
X374607740Y-169559000D01*
D45*
X384857740Y-162539000D02*
X386521240Y-160875500D01*
X382357740Y-169559000D02*
X385357740Y-169559000D01*
X376296240Y-168620500D02*
X376296240Y-163150500D01*
X372857740Y-171309000D02*
X373607740Y-171309000D01*
X375357740Y-169559000D02*
X378357740Y-169559000D01*
X387857740Y-167809000D02*
X387107740Y-167809000D01*
X378357740Y-169559000D02*
X382357740Y-169559000D01*
X373607740Y-171309000D02*
X375357740Y-169559000D01*
X383927740Y-178322000D02*
X383927740Y-170989000D01*
X384857740Y-166559000D02*
X386280240Y-167981500D01*
X375357740Y-169559000D02*
X375697240Y-169219500D01*
X376296240Y-163150500D02*
X374121240Y-160975500D01*
X384857740Y-166559000D02*
X384857740Y-162539000D01*
X386280240Y-168636500D02*
X385357740Y-169559000D01*
X372857740Y-174059000D02*
X372857740Y-171309000D01*
X372857740Y-171309000D02*
X374607740Y-171309000D01*
D46*
X386857740Y-165059000D02*
X387497240Y-165059000D01*
D45*
%TO.N,Net-(JP11-B)*%
X390357740Y-169559000D02*
X390697240Y-169219500D01*
D43*
X390357740Y-169559000D02*
X389607740Y-169559000D01*
D45*
X387857740Y-171309000D02*
X389607740Y-171309000D01*
X391296240Y-168620500D02*
X391296240Y-163150500D01*
X399857740Y-162539000D02*
X401521240Y-160875500D01*
X402107740Y-167809000D02*
X401280240Y-168636500D01*
X393357740Y-169559000D02*
X397357740Y-169559000D01*
D43*
X398927740Y-170989000D02*
X400357740Y-169559000D01*
D46*
X387857740Y-174059000D02*
X388857740Y-174059000D01*
D45*
X391296240Y-163150500D02*
X389121240Y-160975500D01*
X397357740Y-169559000D02*
X400357740Y-169559000D01*
X402857740Y-167809000D02*
X402107740Y-167809000D01*
X388607740Y-171309000D02*
X390357740Y-169559000D01*
D46*
X397357740Y-169559000D02*
X401857740Y-165059000D01*
D45*
X387857740Y-171309000D02*
X388607740Y-171309000D01*
X399857740Y-166559000D02*
X401280240Y-167981500D01*
X387857740Y-182252000D02*
X387857740Y-174059000D01*
X387857740Y-182252000D02*
X387857740Y-174059000D01*
X391547740Y-185942000D02*
X387857740Y-182252000D01*
X399857740Y-166559000D02*
X399857740Y-162539000D01*
D46*
X393357740Y-169559000D02*
X397997240Y-169559000D01*
X388857740Y-174059000D02*
X393357740Y-169559000D01*
D45*
X390357740Y-169559000D02*
X393357740Y-169559000D01*
X389607740Y-171309000D02*
X390857740Y-172559000D01*
X387857740Y-174059000D02*
X387857740Y-171309000D01*
D46*
X401857740Y-165059000D02*
X402497240Y-165059000D01*
D45*
X401280240Y-168636500D02*
X400357740Y-169559000D01*
X402857740Y-167809000D02*
X402857740Y-165059000D01*
X398927740Y-178322000D02*
X398927740Y-170989000D01*
X398927740Y-170989000D02*
X400357740Y-169559000D01*
%TO.N,Net-(JP12-B)*%
X402857740Y-182252000D02*
X402857740Y-174059000D01*
X412357740Y-169559000D02*
X415357740Y-169559000D01*
X417857740Y-167809000D02*
X417857740Y-165059000D01*
X416280240Y-168636500D02*
X415357740Y-169559000D01*
D46*
X403857740Y-174059000D02*
X408357740Y-169559000D01*
D45*
X405357740Y-169559000D02*
X405697240Y-169219500D01*
X413927740Y-178322000D02*
X413927740Y-170989000D01*
X402857740Y-174059000D02*
X402857740Y-171309000D01*
X417857740Y-167809000D02*
X417107740Y-167809000D01*
X402857740Y-171309000D02*
X403607740Y-171309000D01*
X406296240Y-168620500D02*
X406296240Y-163150500D01*
X406296240Y-163150500D02*
X404121240Y-160975500D01*
X414857740Y-162539000D02*
X416521240Y-160875500D01*
X406547740Y-185942000D02*
X402857740Y-182252000D01*
D46*
X402857740Y-174059000D02*
X403857740Y-174059000D01*
D45*
X414857740Y-166559000D02*
X416280240Y-167981500D01*
D46*
X416857740Y-165059000D02*
X417497240Y-165059000D01*
D45*
X405357740Y-169559000D02*
X408357740Y-169559000D01*
X404607740Y-171309000D02*
X405857740Y-172559000D01*
D46*
X408357740Y-169559000D02*
X412997240Y-169559000D01*
D43*
X413927740Y-170989000D02*
X415357740Y-169559000D01*
X405357740Y-169559000D02*
X404607740Y-169559000D01*
D45*
X412357740Y-169559000D02*
X408357740Y-169559000D01*
X403607740Y-171309000D02*
X405357740Y-169559000D01*
X413927740Y-170989000D02*
X415357740Y-169559000D01*
X417107740Y-167809000D02*
X416280240Y-168636500D01*
X402857740Y-182252000D02*
X402857740Y-174059000D01*
X402857740Y-171309000D02*
X404607740Y-171309000D01*
X414857740Y-166559000D02*
X414857740Y-162539000D01*
D46*
X412357740Y-169559000D02*
X416857740Y-165059000D01*
%TO.N,Net-(JP13-B)*%
X427357740Y-169559000D02*
X431857740Y-165059000D01*
D43*
X428927740Y-170989000D02*
X430357740Y-169559000D01*
D45*
X423357740Y-169559000D02*
X427357740Y-169559000D01*
X417857740Y-171309000D02*
X418607740Y-171309000D01*
X421296240Y-163150500D02*
X419121240Y-160975500D01*
X421296240Y-168620500D02*
X421296240Y-163150500D01*
X429857740Y-166559000D02*
X431280240Y-167981500D01*
X432857740Y-167809000D02*
X432857740Y-165059000D01*
X432107740Y-167809000D02*
X431280240Y-168636500D01*
D46*
X417857740Y-174059000D02*
X418857740Y-174059000D01*
D45*
X429857740Y-166559000D02*
X429857740Y-162539000D01*
D46*
X418857740Y-174059000D02*
X423357740Y-169559000D01*
D45*
X432857740Y-167809000D02*
X432107740Y-167809000D01*
D43*
X420357740Y-169559000D02*
X419607740Y-169559000D01*
D45*
X429857740Y-162539000D02*
X431521240Y-160875500D01*
X420357740Y-169559000D02*
X423357740Y-169559000D01*
X417857740Y-174059000D02*
X417857740Y-171309000D01*
D46*
X423357740Y-169559000D02*
X427997240Y-169559000D01*
D45*
X431280240Y-168636500D02*
X430357740Y-169559000D01*
X417857740Y-182252000D02*
X417857740Y-174059000D01*
X428927740Y-178322000D02*
X428927740Y-170989000D01*
X428927740Y-170989000D02*
X430357740Y-169559000D01*
X418607740Y-171309000D02*
X420357740Y-169559000D01*
X417857740Y-182252000D02*
X417857740Y-174059000D01*
X419607740Y-171309000D02*
X420857740Y-172559000D01*
X417857740Y-171309000D02*
X419607740Y-171309000D01*
D46*
X431857740Y-165059000D02*
X432497240Y-165059000D01*
D45*
X427357740Y-169559000D02*
X430357740Y-169559000D01*
X421547740Y-185942000D02*
X417857740Y-182252000D01*
X420357740Y-169559000D02*
X420697240Y-169219500D01*
%TO.N,Net-(JP14-B)*%
X438357740Y-169559000D02*
X442357740Y-169559000D01*
X443927740Y-178322000D02*
X443927740Y-170989000D01*
X446280240Y-168636500D02*
X445357740Y-169559000D01*
X432857740Y-171309000D02*
X434607740Y-171309000D01*
D43*
X443927740Y-170989000D02*
X445357740Y-169559000D01*
D46*
X432857740Y-174059000D02*
X433857740Y-174059000D01*
D45*
X435357740Y-169559000D02*
X438357740Y-169559000D01*
X443927740Y-170989000D02*
X445357740Y-169559000D01*
D46*
X442357740Y-169559000D02*
X446857740Y-165059000D01*
D45*
X432857740Y-182252000D02*
X432857740Y-174059000D01*
X444857740Y-166559000D02*
X446280240Y-167981500D01*
X444857740Y-166559000D02*
X444857740Y-162539000D01*
X436547740Y-185942000D02*
X432857740Y-182252000D01*
X442357740Y-169559000D02*
X445357740Y-169559000D01*
X432857740Y-182252000D02*
X432857740Y-174059000D01*
D43*
X435357740Y-169559000D02*
X434607740Y-169559000D01*
D45*
X436296240Y-163150500D02*
X434121240Y-160975500D01*
X436296240Y-168620500D02*
X436296240Y-163150500D01*
X433607740Y-171309000D02*
X435357740Y-169559000D01*
X444857740Y-162539000D02*
X446521240Y-160875500D01*
D46*
X438357740Y-169559000D02*
X442997240Y-169559000D01*
D45*
X434607740Y-171309000D02*
X435857740Y-172559000D01*
X432857740Y-174059000D02*
X432857740Y-171309000D01*
D46*
X446857740Y-165059000D02*
X447497240Y-165059000D01*
D45*
X435357740Y-169559000D02*
X435697240Y-169219500D01*
X447857740Y-167809000D02*
X447107740Y-167809000D01*
X447107740Y-167809000D02*
X446280240Y-168636500D01*
X447857740Y-167809000D02*
X447857740Y-165059000D01*
D46*
X433857740Y-174059000D02*
X438357740Y-169559000D01*
D45*
X432857740Y-171309000D02*
X433607740Y-171309000D01*
%TO.N,Net-(JP15-B)*%
X447857740Y-174059000D02*
X447857740Y-171309000D01*
X459857740Y-162539000D02*
X461521240Y-160875500D01*
D46*
X447857740Y-174059000D02*
X448857740Y-174059000D01*
D43*
X458927740Y-170989000D02*
X460357740Y-169559000D01*
D45*
X453357740Y-169559000D02*
X457357740Y-169559000D01*
X447857740Y-182252000D02*
X447857740Y-174059000D01*
X451547740Y-185942000D02*
X447857740Y-182252000D01*
D46*
X461857740Y-165059000D02*
X462497240Y-165059000D01*
D45*
X451296240Y-163150500D02*
X449121240Y-160975500D01*
X461280240Y-168636500D02*
X460357740Y-169559000D01*
X458927740Y-178322000D02*
X458927740Y-170989000D01*
X462857740Y-167809000D02*
X462857740Y-165059000D01*
X462857740Y-167809000D02*
X462107740Y-167809000D01*
X457357740Y-169559000D02*
X460357740Y-169559000D01*
D46*
X448857740Y-174059000D02*
X453357740Y-169559000D01*
D45*
X447857740Y-171309000D02*
X448607740Y-171309000D01*
X450357740Y-169559000D02*
X450697240Y-169219500D01*
X459857740Y-166559000D02*
X461280240Y-167981500D01*
X450357740Y-169559000D02*
X453357740Y-169559000D01*
X449607740Y-171309000D02*
X450857740Y-172559000D01*
X447857740Y-182252000D02*
X447857740Y-174059000D01*
X458927740Y-170989000D02*
X460357740Y-169559000D01*
D43*
X450357740Y-169559000D02*
X449607740Y-169559000D01*
D45*
X451296240Y-168620500D02*
X451296240Y-163150500D01*
D46*
X457357740Y-169559000D02*
X461857740Y-165059000D01*
D45*
X448607740Y-171309000D02*
X450357740Y-169559000D01*
D46*
X453357740Y-169559000D02*
X457997240Y-169559000D01*
D45*
X447857740Y-171309000D02*
X449607740Y-171309000D01*
X462107740Y-167809000D02*
X461280240Y-168636500D01*
X459857740Y-166559000D02*
X459857740Y-162539000D01*
%TO.N,Output*%
X463607740Y-171309000D02*
X465357740Y-169559000D01*
X464607740Y-171309000D02*
X465857740Y-172559000D01*
X465357740Y-169559000D02*
X465697240Y-169219500D01*
X462857740Y-174059000D02*
X462857740Y-171309000D01*
D46*
X462857740Y-174059000D02*
X463857740Y-174059000D01*
D45*
X465357740Y-169559000D02*
X468357740Y-169559000D01*
X466296240Y-163150500D02*
X464121240Y-160975500D01*
X462857740Y-171309000D02*
X463607740Y-171309000D01*
X462857740Y-182252000D02*
X462857740Y-174059000D01*
X462857740Y-171309000D02*
X464607740Y-171309000D01*
D46*
X463857740Y-174059000D02*
X468357740Y-169559000D01*
D45*
X462857740Y-182252000D02*
X462857740Y-174059000D01*
D43*
X465357740Y-169559000D02*
X464607740Y-169559000D01*
D45*
X466547740Y-185942000D02*
X462857740Y-182252000D01*
X466296240Y-168620500D02*
X466296240Y-163150500D01*
D43*
%TO.N,Net-(U2-VO)*%
X233443240Y-205000500D02*
X233443240Y-203087000D01*
X242538740Y-203087000D02*
X242538740Y-197093000D01*
X232490740Y-205643000D02*
X232800740Y-205643000D01*
X242538740Y-203087000D02*
X236238740Y-203087000D01*
X233443240Y-203087000D02*
X236238740Y-203087000D01*
X232800740Y-205643000D02*
X233443240Y-205000500D01*
X242538740Y-197093000D02*
X241547740Y-196102000D01*
%TO.N,Net-(U4-VO)*%
X247490740Y-205643000D02*
X247800740Y-205643000D01*
X248443240Y-205000500D02*
X248443240Y-203087000D01*
X257538740Y-203087000D02*
X257538740Y-197093000D01*
X247800740Y-205643000D02*
X248443240Y-205000500D01*
X257538740Y-197093000D02*
X256547740Y-196102000D01*
X251238740Y-203087000D02*
X257538740Y-203087000D01*
X248443240Y-203087000D02*
X251238740Y-203087000D01*
%TO.N,Net-(U6-VO)*%
X262800740Y-205643000D02*
X263443240Y-205000500D01*
X272538740Y-197093000D02*
X271547740Y-196102000D01*
X272538740Y-203087000D02*
X272538740Y-197093000D01*
X263443240Y-205000500D02*
X263443240Y-203087000D01*
X266238740Y-203087000D02*
X272538740Y-203087000D01*
X263443240Y-203087000D02*
X266238740Y-203087000D01*
X262490740Y-205643000D02*
X262800740Y-205643000D01*
%TO.N,Net-(U8-VO)*%
X287538740Y-203087000D02*
X287538740Y-197093000D01*
X277490740Y-205643000D02*
X277800740Y-205643000D01*
X281238740Y-203087000D02*
X287538740Y-203087000D01*
X287538740Y-197093000D02*
X286547740Y-196102000D01*
X277800740Y-205643000D02*
X278443240Y-205000500D01*
X278443240Y-203087000D02*
X281238740Y-203087000D01*
X278443240Y-205000500D02*
X278443240Y-203087000D01*
%TO.N,Net-(U10-VO)*%
X292490740Y-205643000D02*
X292800740Y-205643000D01*
X302538740Y-197093000D02*
X301547740Y-196102000D01*
X302538740Y-203087000D02*
X302538740Y-197093000D01*
X293443240Y-205000500D02*
X293443240Y-203087000D01*
X292800740Y-205643000D02*
X293443240Y-205000500D01*
X296238740Y-203087000D02*
X302538740Y-203087000D01*
X293443240Y-203087000D02*
X296238740Y-203087000D01*
%TO.N,Net-(U12-VO)*%
X308443240Y-203087000D02*
X311238740Y-203087000D01*
X307490740Y-205643000D02*
X307800740Y-205643000D01*
X308443240Y-205000500D02*
X308443240Y-203087000D01*
X307800740Y-205643000D02*
X308443240Y-205000500D01*
X317538740Y-197093000D02*
X316547740Y-196102000D01*
X317538740Y-203087000D02*
X317538740Y-197093000D01*
X317538740Y-203087000D02*
X311238740Y-203087000D01*
%TO.N,Net-(U14-VO)*%
X323443240Y-203087000D02*
X326238740Y-203087000D01*
X322800740Y-205643000D02*
X323443240Y-205000500D01*
X322490740Y-205643000D02*
X322800740Y-205643000D01*
X332538740Y-203087000D02*
X332538740Y-197093000D01*
X323443240Y-205000500D02*
X323443240Y-203087000D01*
X332538740Y-203087000D02*
X326238740Y-203087000D01*
X332538740Y-197093000D02*
X331547740Y-196102000D01*
%TO.N,Net-(U16-VO)*%
X341238740Y-203087000D02*
X347538740Y-203087000D01*
X347538740Y-203087000D02*
X347538740Y-197093000D01*
X338443240Y-205000500D02*
X338443240Y-203087000D01*
X337800740Y-205643000D02*
X338443240Y-205000500D01*
X338443240Y-203087000D02*
X341238740Y-203087000D01*
X337490740Y-205643000D02*
X337800740Y-205643000D01*
X347538740Y-197093000D02*
X346547740Y-196102000D01*
%TO.N,Net-(U18-VO)*%
X353443240Y-203087000D02*
X356238740Y-203087000D01*
X352490740Y-205643000D02*
X352800740Y-205643000D01*
X352800740Y-205643000D02*
X353443240Y-205000500D01*
X362538740Y-203087000D02*
X356238740Y-203087000D01*
X362538740Y-197093000D02*
X361547740Y-196102000D01*
X362538740Y-203087000D02*
X362538740Y-197093000D01*
X353443240Y-205000500D02*
X353443240Y-203087000D01*
%TO.N,Net-(U20-VO)*%
X377538740Y-203087000D02*
X377538740Y-197093000D01*
X377538740Y-203087000D02*
X371238740Y-203087000D01*
X367490740Y-205643000D02*
X367800740Y-205643000D01*
X377538740Y-197093000D02*
X376547740Y-196102000D01*
X368443240Y-203087000D02*
X371238740Y-203087000D01*
X368443240Y-205000500D02*
X368443240Y-203087000D01*
X367800740Y-205643000D02*
X368443240Y-205000500D01*
%TO.N,Net-(U22-VO)*%
X383443240Y-205000500D02*
X383443240Y-203087000D01*
X383443240Y-203087000D02*
X386238740Y-203087000D01*
X392538740Y-203087000D02*
X392538740Y-197093000D01*
X392538740Y-197093000D02*
X391547740Y-196102000D01*
X392538740Y-203087000D02*
X386238740Y-203087000D01*
X382800740Y-205643000D02*
X383443240Y-205000500D01*
X382490740Y-205643000D02*
X382800740Y-205643000D01*
%TO.N,Net-(U24-VO)*%
X397490740Y-205643000D02*
X397800740Y-205643000D01*
X407538740Y-203087000D02*
X401238740Y-203087000D01*
X397800740Y-205643000D02*
X398443240Y-205000500D01*
X398443240Y-203087000D02*
X401238740Y-203087000D01*
X407538740Y-203087000D02*
X407538740Y-197093000D01*
X407538740Y-197093000D02*
X406547740Y-196102000D01*
X398443240Y-205000500D02*
X398443240Y-203087000D01*
%TO.N,Net-(U26-VO)*%
X416238740Y-203087000D02*
X422538740Y-203087000D01*
X412490740Y-205643000D02*
X412800740Y-205643000D01*
X413443240Y-203087000D02*
X416238740Y-203087000D01*
X413443240Y-205000500D02*
X413443240Y-203087000D01*
X412800740Y-205643000D02*
X413443240Y-205000500D01*
X422538740Y-197093000D02*
X421547740Y-196102000D01*
X422538740Y-203087000D02*
X422538740Y-197093000D01*
%TO.N,Net-(U28-VO)*%
X427490740Y-205643000D02*
X427800740Y-205643000D01*
X437538740Y-203087000D02*
X431238740Y-203087000D01*
X428443240Y-205000500D02*
X428443240Y-203087000D01*
X437538740Y-203087000D02*
X437538740Y-197093000D01*
X427800740Y-205643000D02*
X428443240Y-205000500D01*
X428443240Y-203087000D02*
X431238740Y-203087000D01*
X437538740Y-197093000D02*
X436547740Y-196102000D01*
%TO.N,Net-(U30-VO)*%
X442800740Y-205643000D02*
X443443240Y-205000500D01*
X452538740Y-197093000D02*
X451547740Y-196102000D01*
X452538740Y-203087000D02*
X446238740Y-203087000D01*
X443443240Y-203087000D02*
X446238740Y-203087000D01*
X452538740Y-203087000D02*
X452538740Y-197093000D01*
X442490740Y-205643000D02*
X442800740Y-205643000D01*
X443443240Y-205000500D02*
X443443240Y-203087000D01*
%TO.N,Net-(U32-VO)*%
X458443240Y-203087000D02*
X461238740Y-203087000D01*
X457800740Y-205643000D02*
X458443240Y-205000500D01*
X458443240Y-205000500D02*
X458443240Y-203087000D01*
X467538740Y-197093000D02*
X466547740Y-196102000D01*
X461238740Y-203087000D02*
X467538740Y-203087000D01*
X467538740Y-203087000D02*
X467538740Y-197093000D01*
X457490740Y-205643000D02*
X457800740Y-205643000D01*
%TO.N,Net-(U2-VI)*%
X233982740Y-207643000D02*
X236238740Y-205387000D01*
X238532740Y-205387000D02*
X240673740Y-207528000D01*
X240673740Y-209446000D02*
X240673740Y-211088000D01*
X241849240Y-208270500D02*
X240673740Y-209446000D01*
X236238740Y-205387000D02*
X238532740Y-205387000D01*
X232490740Y-207643000D02*
X233982740Y-207643000D01*
X241849240Y-208270500D02*
X242976740Y-208270500D01*
X240673740Y-207528000D02*
X240673740Y-211088000D01*
%TO.N,Net-(U4-VI)*%
X251238740Y-205387000D02*
X253532740Y-205387000D01*
X253532740Y-205387000D02*
X255673740Y-207528000D01*
X247490740Y-207643000D02*
X248982740Y-207643000D01*
X256849240Y-208270500D02*
X257976740Y-208270500D01*
X255673740Y-207528000D02*
X255673740Y-211088000D01*
X256849240Y-208270500D02*
X255673740Y-209446000D01*
X255673740Y-209446000D02*
X255673740Y-211088000D01*
X251238740Y-205387000D02*
X251238740Y-205654000D01*
X255673740Y-211088000D02*
X255673740Y-210089000D01*
X248982740Y-207643000D02*
X251238740Y-205387000D01*
D44*
%TO.N,O1*%
X242596740Y-217400000D02*
X246914740Y-213082000D01*
X234745740Y-217400000D02*
X242596740Y-217400000D01*
X225729007Y-198950500D02*
X229721240Y-202942733D01*
X229721240Y-202942733D02*
X229721240Y-212375500D01*
X212826240Y-197700500D02*
X212796240Y-197670500D01*
X216176240Y-197700500D02*
X217426240Y-198950500D01*
X246914740Y-213082000D02*
X246948240Y-213082000D01*
X217426240Y-198950500D02*
X225729007Y-198950500D01*
X216176240Y-197700500D02*
X216146240Y-197670500D01*
X216176240Y-197700500D02*
X212826240Y-197700500D01*
X229721240Y-212375500D02*
X234745740Y-217400000D01*
D43*
%TO.N,Net-(U6-VI)*%
X271849240Y-208270500D02*
X272976740Y-208270500D01*
X271849240Y-208270500D02*
X270673740Y-209446000D01*
X263982740Y-207643000D02*
X266238740Y-205387000D01*
X266238740Y-205387000D02*
X266238740Y-205654000D01*
X270673740Y-209446000D02*
X270673740Y-211088000D01*
X268532740Y-205387000D02*
X270673740Y-207528000D01*
X270673740Y-211088000D02*
X270673740Y-210089000D01*
X262490740Y-207643000D02*
X263982740Y-207643000D01*
X270673740Y-207528000D02*
X270673740Y-211088000D01*
X266238740Y-205387000D02*
X268532740Y-205387000D01*
D44*
%TO.N,O2*%
X216176240Y-200240500D02*
X216146240Y-200210500D01*
X216176240Y-200240500D02*
X217426240Y-201490500D01*
X226961240Y-201490500D02*
X229021240Y-203550500D01*
X229021240Y-203550500D02*
X229021240Y-212665450D01*
X234455790Y-218100000D02*
X256896740Y-218100000D01*
X216176240Y-200240500D02*
X212826240Y-200240500D01*
X256896740Y-218100000D02*
X261914740Y-213082000D01*
X212826240Y-200240500D02*
X212796240Y-200210500D01*
X217426240Y-201490500D02*
X226961240Y-201490500D01*
X261914740Y-213082000D02*
X261948240Y-213082000D01*
X229021240Y-212665450D02*
X234455790Y-218100000D01*
D43*
%TO.N,Net-(U8-VI)*%
X285673740Y-209446000D02*
X285673740Y-211088000D01*
X285673740Y-211088000D02*
X285673740Y-210089000D01*
X281238740Y-205387000D02*
X281238740Y-205654000D01*
X278982740Y-207643000D02*
X281238740Y-205387000D01*
X277490740Y-207643000D02*
X278982740Y-207643000D01*
X281238740Y-205387000D02*
X283532740Y-205387000D01*
X286849240Y-208270500D02*
X285673740Y-209446000D01*
X286849240Y-208270500D02*
X287976740Y-208270500D01*
X285673740Y-207528000D02*
X285673740Y-211088000D01*
X283532740Y-205387000D02*
X285673740Y-207528000D01*
D44*
%TO.N,O3*%
X227251240Y-204030500D02*
X217426240Y-204030500D01*
X228321240Y-205100500D02*
X227251240Y-204030500D01*
X216176240Y-202780500D02*
X212826240Y-202780500D01*
X216176240Y-202780500D02*
X216146240Y-202750500D01*
X276948240Y-213082000D02*
X276914740Y-213082000D01*
X271196740Y-218800000D02*
X234165841Y-218800000D01*
X276914740Y-213082000D02*
X271196740Y-218800000D01*
X234165841Y-218800000D02*
X228321240Y-212955400D01*
X212826240Y-202780500D02*
X212796240Y-202750500D01*
X228321240Y-212955400D02*
X228321240Y-205100500D01*
X217426240Y-204030500D02*
X216176240Y-202780500D01*
D43*
%TO.N,Net-(U10-VI)*%
X300673740Y-211088000D02*
X300673740Y-210089000D01*
X296238740Y-205387000D02*
X298532740Y-205387000D01*
X296238740Y-205387000D02*
X296238740Y-205654000D01*
X292490740Y-207643000D02*
X293982740Y-207643000D01*
X298532740Y-205387000D02*
X300673740Y-207528000D01*
X293982740Y-207643000D02*
X296238740Y-205387000D01*
X300673740Y-207528000D02*
X300673740Y-211088000D01*
X300673740Y-209446000D02*
X300673740Y-211088000D01*
X301849240Y-208270500D02*
X300673740Y-209446000D01*
X301849240Y-208270500D02*
X302976740Y-208270500D01*
D44*
%TO.N,O4*%
X225791240Y-206570500D02*
X227621240Y-208400500D01*
X285496740Y-219500000D02*
X291914740Y-213082000D01*
X216176240Y-205320500D02*
X216146240Y-205290500D01*
X212826240Y-205320500D02*
X212796240Y-205290500D01*
X291914740Y-213082000D02*
X291948240Y-213082000D01*
X227621240Y-208400500D02*
X227621240Y-213245350D01*
X216176240Y-205320500D02*
X212826240Y-205320500D01*
X227621240Y-213245350D02*
X233875892Y-219500000D01*
X233875892Y-219500000D02*
X285496740Y-219500000D01*
X217426240Y-206570500D02*
X225791240Y-206570500D01*
X216176240Y-205320500D02*
X217426240Y-206570500D01*
D43*
%TO.N,Net-(U12-VI)*%
X311238740Y-205387000D02*
X311238740Y-205654000D01*
X315673740Y-211088000D02*
X315673740Y-210089000D01*
X307490740Y-207643000D02*
X308982740Y-207643000D01*
X313532740Y-205387000D02*
X315673740Y-207528000D01*
X315673740Y-207528000D02*
X315673740Y-211088000D01*
X316849240Y-208270500D02*
X315673740Y-209446000D01*
X315673740Y-209446000D02*
X315673740Y-211088000D01*
X316849240Y-208270500D02*
X317976740Y-208270500D01*
X308982740Y-207643000D02*
X311238740Y-205387000D01*
X311238740Y-205387000D02*
X313532740Y-205387000D01*
D44*
%TO.N,O5*%
X226921240Y-213535300D02*
X226921240Y-209950500D01*
X226921240Y-209950500D02*
X226081240Y-209110500D01*
X233585943Y-220200000D02*
X226921240Y-213535300D01*
X212826240Y-207860500D02*
X212796240Y-207830500D01*
X299796740Y-220200000D02*
X233585943Y-220200000D01*
X306948240Y-213082000D02*
X306914740Y-213082000D01*
X216176240Y-207860500D02*
X212826240Y-207860500D01*
X216176240Y-207860500D02*
X216146240Y-207830500D01*
X306914740Y-213082000D02*
X299796740Y-220200000D01*
X226081240Y-209110500D02*
X217426240Y-209110500D01*
X217426240Y-209110500D02*
X216176240Y-207860500D01*
D43*
%TO.N,Net-(U14-VI)*%
X330673740Y-207528000D02*
X330673740Y-211088000D01*
X326238740Y-205387000D02*
X326238740Y-205654000D01*
X331849240Y-208270500D02*
X330673740Y-209446000D01*
X331849240Y-208270500D02*
X332976740Y-208270500D01*
X322490740Y-207643000D02*
X323982740Y-207643000D01*
X326238740Y-205387000D02*
X328532740Y-205387000D01*
X328532740Y-205387000D02*
X330673740Y-207528000D01*
X330673740Y-211088000D02*
X330673740Y-210089000D01*
X323982740Y-207643000D02*
X326238740Y-205387000D01*
X330673740Y-209446000D02*
X330673740Y-211088000D01*
D44*
%TO.N,O6*%
X225621240Y-211650500D02*
X226221240Y-212250500D01*
X216176240Y-210400500D02*
X212826240Y-210400500D01*
X226221240Y-212250500D02*
X226221240Y-213825249D01*
X216176240Y-210400500D02*
X217426240Y-211650500D01*
X314096740Y-220900000D02*
X321914740Y-213082000D01*
X321914740Y-213082000D02*
X321948240Y-213082000D01*
X217426240Y-211650500D02*
X225621240Y-211650500D01*
X216176240Y-210400500D02*
X216146240Y-210370500D01*
X212826240Y-210400500D02*
X212796240Y-210370500D01*
X226221240Y-213825249D02*
X233295990Y-220900000D01*
X233295990Y-220900000D02*
X314096740Y-220900000D01*
D43*
%TO.N,Net-(U16-VI)*%
X337490740Y-207643000D02*
X338982740Y-207643000D01*
X346849240Y-208270500D02*
X347976740Y-208270500D01*
X341238740Y-205387000D02*
X341238740Y-205654000D01*
X345673740Y-209446000D02*
X345673740Y-211088000D01*
X343532740Y-205387000D02*
X345673740Y-207528000D01*
X341238740Y-205387000D02*
X343532740Y-205387000D01*
X345673740Y-207528000D02*
X345673740Y-211088000D01*
X346849240Y-208270500D02*
X345673740Y-209446000D01*
X345673740Y-211088000D02*
X345673740Y-210089000D01*
X338982740Y-207643000D02*
X341238740Y-205387000D01*
D44*
%TO.N,O7*%
X212826240Y-212940500D02*
X212796240Y-212910500D01*
X225731541Y-214325500D02*
X233006040Y-221600000D01*
X332046240Y-217950500D02*
X332079740Y-217950500D01*
X332079740Y-217950500D02*
X336948240Y-213082000D01*
X217561240Y-214325500D02*
X225731541Y-214325500D01*
X216176240Y-212940500D02*
X216146240Y-212910500D01*
X328396740Y-221600000D02*
X332046240Y-217950500D01*
X216176240Y-212940500D02*
X217561240Y-214325500D01*
X216176240Y-212940500D02*
X212826240Y-212940500D01*
X233006040Y-221600000D02*
X328396740Y-221600000D01*
D43*
%TO.N,Net-(U18-VI)*%
X360673740Y-207528000D02*
X360673740Y-211088000D01*
X361849240Y-208270500D02*
X362976740Y-208270500D01*
X361849240Y-208270500D02*
X360673740Y-209446000D01*
X353982740Y-207643000D02*
X356238740Y-205387000D01*
X358532740Y-205387000D02*
X360673740Y-207528000D01*
X360673740Y-209446000D02*
X360673740Y-211088000D01*
X356238740Y-205387000D02*
X358532740Y-205387000D01*
X352490740Y-207643000D02*
X353982740Y-207643000D01*
X360673740Y-211088000D02*
X360673740Y-210089000D01*
X356238740Y-205387000D02*
X356238740Y-205654000D01*
%TO.N,Net-(R33-Pad2)*%
X231959240Y-211088000D02*
X231935740Y-211064500D01*
X234373740Y-211088000D02*
X231959240Y-211088000D01*
D44*
%TO.N,O8*%
X216216240Y-220075500D02*
X217466240Y-218825500D01*
X232716090Y-222300000D02*
X342730240Y-222300000D01*
X342730240Y-222300000D02*
X351948240Y-213082000D01*
X229241590Y-218825500D02*
X232716090Y-222300000D01*
X216216240Y-220075500D02*
X214546240Y-218405500D01*
X214546240Y-218405500D02*
X214546240Y-217200500D01*
X217466240Y-218825500D02*
X229241590Y-218825500D01*
X214546240Y-217200500D02*
X212796240Y-215450500D01*
D43*
%TO.N,Net-(U20-VI)*%
X375673740Y-209446000D02*
X375673740Y-211088000D01*
X375673740Y-207528000D02*
X375673740Y-211088000D01*
X367490740Y-207643000D02*
X368982740Y-207643000D01*
X375673740Y-211088000D02*
X375673740Y-210089000D01*
X368982740Y-207643000D02*
X371238740Y-205387000D01*
X373532740Y-205387000D02*
X375673740Y-207528000D01*
X371238740Y-205387000D02*
X371238740Y-205654000D01*
X376849240Y-208270500D02*
X375673740Y-209446000D01*
X376849240Y-208270500D02*
X377976740Y-208270500D01*
X371238740Y-205387000D02*
X373532740Y-205387000D01*
%TO.N,Net-(R37-Pad2)*%
X291959240Y-211088000D02*
X291935740Y-211064500D01*
X294373740Y-211088000D02*
X291959240Y-211088000D01*
D44*
%TO.N,O9*%
X232426140Y-223000000D02*
X357030240Y-223000000D01*
X216216240Y-222615500D02*
X214546240Y-220945500D01*
X214546240Y-220945500D02*
X214546240Y-219740500D01*
X214546240Y-219740500D02*
X212796240Y-217990500D01*
X217466240Y-221365500D02*
X230791640Y-221365500D01*
X230791640Y-221365500D02*
X232426140Y-223000000D01*
X216216240Y-222615500D02*
X217466240Y-221365500D01*
X357030240Y-223000000D02*
X366948240Y-213082000D01*
D43*
%TO.N,Net-(U22-VI)*%
X388532740Y-205387000D02*
X390673740Y-207528000D01*
X386238740Y-205387000D02*
X386238740Y-205654000D01*
X383982740Y-207643000D02*
X386238740Y-205387000D01*
X382490740Y-207643000D02*
X383982740Y-207643000D01*
X390673740Y-207528000D02*
X390673740Y-211088000D01*
X390673740Y-209446000D02*
X390673740Y-211088000D01*
X391849240Y-208270500D02*
X392976740Y-208270500D01*
X391849240Y-208270500D02*
X390673740Y-209446000D01*
X390673740Y-211088000D02*
X390673740Y-210089000D01*
X386238740Y-205387000D02*
X388532740Y-205387000D01*
%TO.N,Net-(R41-Pad2)*%
X354373740Y-211088000D02*
X351959240Y-211088000D01*
X351959240Y-211088000D02*
X351935740Y-211064500D01*
D44*
%TO.N,O10*%
X216216240Y-225155500D02*
X214546240Y-223485500D01*
X216216240Y-225155500D02*
X217466240Y-223905500D01*
X217466240Y-223905500D02*
X232064259Y-223905500D01*
X232269759Y-223700000D02*
X371330240Y-223700000D01*
X214546240Y-223485500D02*
X214546240Y-222280500D01*
X214546240Y-222280500D02*
X212796240Y-220530500D01*
X371330240Y-223700000D02*
X381948240Y-213082000D01*
X232064259Y-223905500D02*
X232269759Y-223700000D01*
D43*
%TO.N,Net-(U24-VI)*%
X405673740Y-207528000D02*
X405673740Y-211088000D01*
X405673740Y-209446000D02*
X405673740Y-211088000D01*
X406849240Y-208270500D02*
X407976740Y-208270500D01*
X398982740Y-207643000D02*
X401238740Y-205387000D01*
X401238740Y-205387000D02*
X401238740Y-205654000D01*
X397490740Y-207643000D02*
X398982740Y-207643000D01*
X405673740Y-211088000D02*
X405673740Y-210089000D01*
X403532740Y-205387000D02*
X405673740Y-207528000D01*
X406849240Y-208270500D02*
X405673740Y-209446000D01*
X401238740Y-205387000D02*
X403532740Y-205387000D01*
D44*
%TO.N,O11*%
X385630240Y-224400000D02*
X396948240Y-213082000D01*
X216216240Y-227695500D02*
X217466240Y-226445500D01*
X216216240Y-227695500D02*
X214546240Y-226025500D01*
X217466240Y-226445500D02*
X230514208Y-226445500D01*
X214546240Y-224820500D02*
X212796240Y-223070500D01*
X232559709Y-224400000D02*
X385630240Y-224400000D01*
X230514208Y-226445500D02*
X232559709Y-224400000D01*
X214546240Y-226025500D02*
X214546240Y-224820500D01*
D43*
%TO.N,Net-(R45-Pad2)*%
X414373740Y-211088000D02*
X411959240Y-211088000D01*
X411959240Y-211088000D02*
X411935740Y-211064500D01*
%TO.N,Net-(U26-VI)*%
X420673740Y-207528000D02*
X420673740Y-211088000D01*
X413982740Y-207643000D02*
X416238740Y-205387000D01*
X421849240Y-208270500D02*
X422976740Y-208270500D01*
X416238740Y-205387000D02*
X418532740Y-205387000D01*
X421849240Y-208270500D02*
X420673740Y-209446000D01*
X420673740Y-211088000D02*
X420673740Y-210089000D01*
X420673740Y-209446000D02*
X420673740Y-211088000D01*
X412490740Y-207643000D02*
X413982740Y-207643000D01*
X418532740Y-205387000D02*
X420673740Y-207528000D01*
X416238740Y-205387000D02*
X416238740Y-205654000D01*
D44*
%TO.N,O12*%
X229004157Y-228945500D02*
X232849658Y-225100000D01*
X399930240Y-225100000D02*
X411948240Y-213082000D01*
X216166240Y-230235500D02*
X217456240Y-228945500D01*
X232849658Y-225100000D02*
X399930240Y-225100000D01*
X217456240Y-228945500D02*
X228954157Y-228945500D01*
X214546240Y-228565500D02*
X214546240Y-227360500D01*
X216166240Y-230235500D02*
X214496240Y-228565500D01*
X214546240Y-227360500D02*
X212796240Y-225610500D01*
D43*
%TO.N,Net-(U28-VI)*%
X435673740Y-211088000D02*
X435673740Y-210089000D01*
X433532740Y-205387000D02*
X435673740Y-207528000D01*
X436849240Y-208270500D02*
X435673740Y-209446000D01*
X435673740Y-207528000D02*
X435673740Y-211088000D01*
X428982740Y-207643000D02*
X431238740Y-205387000D01*
X435673740Y-209446000D02*
X435673740Y-211088000D01*
X431238740Y-205387000D02*
X431238740Y-205654000D01*
X431238740Y-205387000D02*
X433532740Y-205387000D01*
X436849240Y-208270500D02*
X437976740Y-208270500D01*
X427490740Y-207643000D02*
X428982740Y-207643000D01*
D44*
%TO.N,O13*%
X216166240Y-232775500D02*
X214496240Y-231105500D01*
X214496240Y-231105500D02*
X214496240Y-229900500D01*
X216166240Y-232775500D02*
X217456240Y-231485500D01*
X227454107Y-231485500D02*
X233139608Y-225800000D01*
X217456240Y-231485500D02*
X227404107Y-231485500D01*
X414230240Y-225800000D02*
X426948240Y-213082000D01*
X214546240Y-229900500D02*
X212796240Y-228150500D01*
X233139608Y-225800000D02*
X414230240Y-225800000D01*
D43*
%TO.N,Net-(U30-VI)*%
X451849240Y-208270500D02*
X450673740Y-209446000D01*
X446238740Y-205387000D02*
X448532740Y-205387000D01*
X450673740Y-211088000D02*
X450673740Y-210089000D01*
X446238740Y-205387000D02*
X446238740Y-205654000D01*
X443982740Y-207643000D02*
X446238740Y-205387000D01*
X451849240Y-208270500D02*
X452976740Y-208270500D01*
X442490740Y-207643000D02*
X443982740Y-207643000D01*
X448532740Y-205387000D02*
X450673740Y-207528000D01*
X450673740Y-207528000D02*
X450673740Y-211088000D01*
X450673740Y-209446000D02*
X450673740Y-211088000D01*
D44*
%TO.N,O14*%
X428530240Y-226500000D02*
X441948240Y-213082000D01*
X216166240Y-235315500D02*
X217456240Y-234025500D01*
X217456240Y-234025500D02*
X225854057Y-234025500D01*
X214496240Y-233645500D02*
X214496240Y-232440500D01*
X225904057Y-234025500D02*
X233429558Y-226500000D01*
X214496240Y-232440500D02*
X212746240Y-230690500D01*
X233429558Y-226500000D02*
X428530240Y-226500000D01*
X216166240Y-235315500D02*
X214496240Y-233645500D01*
D43*
%TO.N,Net-(U32-VI)*%
X465673740Y-209446000D02*
X465673740Y-211088000D01*
X463532740Y-205387000D02*
X465673740Y-207528000D01*
X465673740Y-211088000D02*
X465673740Y-210089000D01*
X461238740Y-205387000D02*
X461238740Y-205654000D01*
X465673740Y-207528000D02*
X465673740Y-211088000D01*
X457490740Y-207643000D02*
X458982740Y-207643000D01*
X458982740Y-207643000D02*
X461238740Y-205387000D01*
X466849240Y-208270500D02*
X467976740Y-208270500D01*
X461238740Y-205387000D02*
X463532740Y-205387000D01*
X466849240Y-208270500D02*
X465673740Y-209446000D01*
D44*
%TO.N,O15*%
X216166240Y-237855500D02*
X217416240Y-236605500D01*
X214496240Y-234980500D02*
X212746240Y-233230500D01*
X216166240Y-237855500D02*
X214496240Y-236185500D01*
X217416240Y-236605500D02*
X224264007Y-236605500D01*
X224314007Y-236605500D02*
X233719507Y-227200000D01*
X214496240Y-236185500D02*
X214496240Y-234980500D01*
X442830240Y-227200000D02*
X456948240Y-213082000D01*
X233719507Y-227200000D02*
X442830240Y-227200000D01*
D43*
%TO.N,Net-(R34-Pad2)*%
X246959240Y-211088000D02*
X246935740Y-211064500D01*
X249373740Y-211088000D02*
X246959240Y-211088000D01*
%TO.N,Net-(R35-Pad2)*%
X264373740Y-211088000D02*
X261959240Y-211088000D01*
X261959240Y-211088000D02*
X261935740Y-211064500D01*
%TO.N,Net-(R36-Pad2)*%
X279373740Y-211088000D02*
X276959240Y-211088000D01*
X276959240Y-211088000D02*
X276935740Y-211064500D01*
%TO.N,Net-(R38-Pad2)*%
X306959240Y-211088000D02*
X306935740Y-211064500D01*
X309373740Y-211088000D02*
X306959240Y-211088000D01*
%TO.N,Net-(R39-Pad2)*%
X324373740Y-211088000D02*
X321959240Y-211088000D01*
X321959240Y-211088000D02*
X321935740Y-211064500D01*
%TO.N,Net-(R40-Pad2)*%
X339373740Y-211088000D02*
X336959240Y-211088000D01*
X336959240Y-211088000D02*
X336935740Y-211064500D01*
%TO.N,Net-(R42-Pad2)*%
X366959240Y-211088000D02*
X366935740Y-211064500D01*
X369373740Y-211088000D02*
X366959240Y-211088000D01*
%TO.N,Net-(R43-Pad2)*%
X381959240Y-211088000D02*
X381935740Y-211064500D01*
X384373740Y-211088000D02*
X381959240Y-211088000D01*
%TO.N,Net-(R44-Pad2)*%
X396959240Y-211088000D02*
X396935740Y-211064500D01*
X399373740Y-211088000D02*
X396959240Y-211088000D01*
%TO.N,Net-(R46-Pad2)*%
X426959240Y-211088000D02*
X426935740Y-211064500D01*
X429373740Y-211088000D02*
X426959240Y-211088000D01*
%TO.N,Net-(R47-Pad2)*%
X444373740Y-211088000D02*
X441959240Y-211088000D01*
X441959240Y-211088000D02*
X441935740Y-211064500D01*
%TO.N,Net-(R48-Pad2)*%
X456959240Y-211088000D02*
X456935740Y-211064500D01*
X459373740Y-211088000D02*
X456959240Y-211088000D01*
%TO.N,+5V*%
X330673740Y-216450000D02*
X330673740Y-213628000D01*
D47*
X405673740Y-216450000D02*
X405673740Y-213628000D01*
D43*
X472796240Y-226318000D02*
X472196240Y-226918000D01*
X435673740Y-216450000D02*
X435673740Y-213628000D01*
X240673740Y-216450000D02*
X240673740Y-213628000D01*
X464763740Y-226918000D02*
X463846240Y-226000500D01*
X345673740Y-216450000D02*
X345673740Y-213628000D01*
X450673740Y-216450000D02*
X450673740Y-213628000D01*
X463846240Y-218277500D02*
X465673740Y-216450000D01*
X315673740Y-216450000D02*
X315673740Y-213628000D01*
X255673740Y-216450000D02*
X255673740Y-213628000D01*
X270673740Y-216450000D02*
X270673740Y-213628000D01*
X360673740Y-216450000D02*
X360673740Y-213628000D01*
X463846240Y-226000500D02*
X463846240Y-218277500D01*
X390673740Y-216450000D02*
X390673740Y-213628000D01*
X465673740Y-216450000D02*
X465673740Y-213628000D01*
X285673740Y-216450000D02*
X285673740Y-213628000D01*
X375673740Y-216450000D02*
X375673740Y-213628000D01*
X472196240Y-226918000D02*
X464763740Y-226918000D01*
X420673740Y-216450000D02*
X420673740Y-213628000D01*
X300673740Y-216450000D02*
X300673740Y-213628000D01*
%TO.N,+24V*%
X468221240Y-219825500D02*
X468221240Y-219700500D01*
D44*
X260631240Y-236775500D02*
X256831240Y-240575500D01*
D43*
X468221240Y-221738000D02*
X468221240Y-219800500D01*
D44*
X468221240Y-221738000D02*
X466933740Y-221738000D01*
D43*
X473921240Y-214000500D02*
X473921240Y-186225500D01*
D44*
X466933740Y-221738000D02*
X466846240Y-221825500D01*
X266390909Y-231045169D02*
X260660578Y-236775500D01*
D43*
X473921240Y-186225500D02*
X475021240Y-185125500D01*
X475021240Y-185125500D02*
X476796240Y-185125500D01*
D44*
X260660578Y-236775500D02*
X260631240Y-236775500D01*
D43*
X468221240Y-219700500D02*
X473921240Y-214000500D01*
D44*
%TO.N,-24V*%
X271096740Y-228600000D02*
X460686689Y-228600000D01*
X257446240Y-242450500D02*
X256496240Y-242450500D01*
X460686689Y-228600000D02*
X460811189Y-228475500D01*
X482371240Y-228475500D02*
X483171240Y-227675500D01*
X480311240Y-181315500D02*
X476796240Y-181315500D01*
X256831240Y-245235500D02*
X256831240Y-242865500D01*
X257831240Y-245235500D02*
X257831240Y-242835500D01*
X483171240Y-227675500D02*
X483171240Y-184175500D01*
X257346240Y-242350500D02*
X271096740Y-228600000D01*
X256831240Y-242865500D02*
X257346240Y-242350500D01*
X460811189Y-228475500D02*
X482371240Y-228475500D01*
X256496240Y-242450500D02*
X255931240Y-243015500D01*
X257831240Y-242835500D02*
X257346240Y-242350500D01*
X255931240Y-243015500D02*
X255931240Y-245235500D01*
X483171240Y-184175500D02*
X480311240Y-181315500D01*
%TO.N,-12V*%
X484171240Y-181070500D02*
X476796240Y-173695500D01*
X259831240Y-245235500D02*
X259831240Y-242835500D01*
X259831240Y-242835500D02*
X259446240Y-242450500D01*
X258831240Y-242915500D02*
X259296240Y-242450500D01*
X484171240Y-227775500D02*
X484171240Y-181070500D01*
X272446740Y-229300000D02*
X482646740Y-229300000D01*
X259296240Y-242450500D02*
X272446740Y-229300000D01*
X259446240Y-242450500D02*
X259296240Y-242450500D01*
X258831240Y-245235500D02*
X258831240Y-242915500D01*
X482646740Y-229300000D02*
X484171240Y-227775500D01*
%TO.N,+12V*%
X270596740Y-227900000D02*
X258831240Y-239665500D01*
D43*
X468221240Y-225288000D02*
X466558740Y-225288000D01*
X465346240Y-224075500D02*
X465346240Y-223575500D01*
X466558740Y-225288000D02*
X465346240Y-224075500D01*
X465346240Y-220075500D02*
X472221240Y-213200500D01*
X472221240Y-179575500D02*
X474291240Y-177505500D01*
X474291240Y-177505500D02*
X476796240Y-177505500D01*
D44*
X462471240Y-225825500D02*
X460396740Y-227900000D01*
X465171240Y-223750500D02*
X465346240Y-223575500D01*
D43*
X472221240Y-213200500D02*
X472221240Y-179575500D01*
X465346240Y-223575500D02*
X465346240Y-220075500D01*
D44*
X460396740Y-227900000D02*
X270596740Y-227900000D01*
X465171240Y-225825500D02*
X465171240Y-223750500D01*
D43*
%TO.N,Net-(JP17-B)*%
X472796240Y-221758000D02*
X469541240Y-221758000D01*
X469521240Y-225288000D02*
X469521240Y-221738000D01*
X469541240Y-221758000D02*
X469521240Y-221738000D01*
%TD*%
M02*
