%TF.GenerationSoftware,KiCad,Pcbnew,8.0.0*%
%TF.CreationDate,2025-01-27T00:28:36-06:00*%
%TF.ProjectId,inductor_board,696e6475-6374-46f7-925f-626f6172642e,rev?*%
%TF.SameCoordinates,Original*%
%TF.FileFunction,Profile,NP*%
%FSLAX46Y46*%
G04 Gerber Fmt 4.6, Leading zero omitted, Abs format (unit mm)*
G04 Created by KiCad (PCBNEW 8.0.0) date 2025-01-27 00:28:36*
%MOMM*%
%LPD*%
G01*
G04 APERTURE LIST*
%TA.AperFunction,Profile*%
%ADD10C,0.050000*%
%TD*%
%TA.AperFunction,Profile*%
%ADD11C,0.100000*%
%TD*%
G04 APERTURE END LIST*
D10*
X251571240Y-240285500D02*
X255181240Y-240285500D01*
D11*
X341381240Y-235785500D02*
X341381240Y-246285500D01*
D10*
X217971240Y-243905500D02*
G75*
G02*
X213971240Y-243905500I-2000000J0D01*
G01*
X213971240Y-243905500D02*
G75*
G02*
X217971240Y-243905500I2000000J0D01*
G01*
X210171240Y-242075500D02*
X210171240Y-247525500D01*
D11*
X339481240Y-240285500D02*
X339481240Y-235785500D01*
X354081240Y-241285500D02*
X349433040Y-241285500D01*
D10*
X210171240Y-242075500D02*
X210171240Y-158075500D01*
X355881240Y-236486755D02*
X485671240Y-236475500D01*
D11*
X339481240Y-235785500D02*
G75*
G02*
X341381240Y-235785500I950000J0D01*
G01*
X354081240Y-244795500D02*
X354081240Y-241285500D01*
D10*
X485671240Y-158075500D02*
X485671240Y-236475500D01*
D11*
X349433040Y-241285500D02*
X349433040Y-236485500D01*
D10*
X210171240Y-158075500D02*
X485671240Y-158075500D01*
D11*
X225171240Y-247525500D02*
X225171240Y-240285500D01*
X354081240Y-244795500D02*
X353321240Y-246285500D01*
X251571240Y-240285500D02*
X225171240Y-240285500D01*
X210171240Y-247525500D02*
X225171240Y-247525500D01*
X353321240Y-246285500D02*
X341381240Y-246285500D01*
X349433040Y-236486755D02*
X355881240Y-236486755D01*
%TO.C,E1*%
X255181240Y-240285500D02*
X255181240Y-248185500D01*
X255181240Y-248185500D02*
X255681240Y-248685500D01*
X255681240Y-248685500D02*
X265881240Y-248685500D01*
X266381240Y-241235500D02*
X266381240Y-248185500D01*
X266381240Y-248185500D02*
X265881240Y-248685500D01*
X268281240Y-241235500D02*
X268281240Y-248185500D01*
X268281240Y-248185500D02*
X268781240Y-248685500D01*
X268781240Y-248685500D02*
X338981240Y-248685500D01*
X339481240Y-240285500D02*
X339481240Y-248185500D01*
X339481240Y-248185500D02*
X338981240Y-248685500D01*
X266381240Y-241235500D02*
G75*
G02*
X268281240Y-241235500I950000J0D01*
G01*
%TD*%
M02*
