%TF.GenerationSoftware,KiCad,Pcbnew,8.0.0*%
%TF.CreationDate,2025-01-27T00:28:36-06:00*%
%TF.ProjectId,inductor_board,696e6475-6374-46f7-925f-626f6172642e,rev?*%
%TF.SameCoordinates,Original*%
%TF.FileFunction,Soldermask,Top*%
%TF.FilePolarity,Negative*%
%FSLAX46Y46*%
G04 Gerber Fmt 4.6, Leading zero omitted, Abs format (unit mm)*
G04 Created by KiCad (PCBNEW 8.0.0) date 2025-01-27 00:28:36*
%MOMM*%
%LPD*%
G01*
G04 APERTURE LIST*
G04 Aperture macros list*
%AMRoundRect*
0 Rectangle with rounded corners*
0 $1 Rounding radius*
0 $2 $3 $4 $5 $6 $7 $8 $9 X,Y pos of 4 corners*
0 Add a 4 corners polygon primitive as box body*
4,1,4,$2,$3,$4,$5,$6,$7,$8,$9,$2,$3,0*
0 Add four circle primitives for the rounded corners*
1,1,$1+$1,$2,$3*
1,1,$1+$1,$4,$5*
1,1,$1+$1,$6,$7*
1,1,$1+$1,$8,$9*
0 Add four rect primitives between the rounded corners*
20,1,$1+$1,$2,$3,$4,$5,0*
20,1,$1+$1,$4,$5,$6,$7,0*
20,1,$1+$1,$6,$7,$8,$9,0*
20,1,$1+$1,$8,$9,$2,$3,0*%
%AMFreePoly0*
4,1,19,0.500000,-0.750000,0.000000,-0.750000,0.000000,-0.744911,-0.071157,-0.744911,-0.207708,-0.704816,-0.327430,-0.627875,-0.420627,-0.520320,-0.479746,-0.390866,-0.500000,-0.250000,-0.500000,0.250000,-0.479746,0.390866,-0.420627,0.520320,-0.327430,0.627875,-0.207708,0.704816,-0.071157,0.744911,0.000000,0.744911,0.000000,0.750000,0.500000,0.750000,0.500000,-0.750000,0.500000,-0.750000,
$1*%
%AMFreePoly1*
4,1,19,0.000000,0.744911,0.071157,0.744911,0.207708,0.704816,0.327430,0.627875,0.420627,0.520320,0.479746,0.390866,0.500000,0.250000,0.500000,-0.250000,0.479746,-0.390866,0.420627,-0.520320,0.327430,-0.627875,0.207708,-0.704816,0.071157,-0.744911,0.000000,-0.744911,0.000000,-0.750000,-0.500000,-0.750000,-0.500000,0.750000,0.000000,0.750000,0.000000,0.744911,0.000000,0.744911,
$1*%
G04 Aperture macros list end*
%ADD10FreePoly0,0.000000*%
%ADD11FreePoly1,0.000000*%
%ADD12RoundRect,0.375000X-0.625000X-0.375000X0.625000X-0.375000X0.625000X0.375000X-0.625000X0.375000X0*%
%ADD13RoundRect,0.500000X-0.500000X-1.400000X0.500000X-1.400000X0.500000X1.400000X-0.500000X1.400000X0*%
%ADD14RoundRect,0.237500X0.237500X-0.250000X0.237500X0.250000X-0.237500X0.250000X-0.237500X-0.250000X0*%
%ADD15RoundRect,0.237500X0.237500X-0.287500X0.237500X0.287500X-0.237500X0.287500X-0.237500X-0.287500X0*%
%ADD16RoundRect,0.250000X0.450000X-0.350000X0.450000X0.350000X-0.450000X0.350000X-0.450000X-0.350000X0*%
%ADD17RoundRect,0.250000X-0.337500X-0.475000X0.337500X-0.475000X0.337500X0.475000X-0.337500X0.475000X0*%
%ADD18R,1.200000X0.800000*%
%ADD19C,2.200000*%
%ADD20R,1.800000X1.800000*%
%ADD21C,1.800000*%
%ADD22RoundRect,0.237500X-0.237500X0.250000X-0.237500X-0.250000X0.237500X-0.250000X0.237500X0.250000X0*%
%ADD23RoundRect,0.237500X-0.250000X-0.237500X0.250000X-0.237500X0.250000X0.237500X-0.250000X0.237500X0*%
%ADD24C,2.500000*%
%ADD25C,2.400000*%
%ADD26RoundRect,0.250000X1.550000X-0.650000X1.550000X0.650000X-1.550000X0.650000X-1.550000X-0.650000X0*%
%ADD27O,3.600000X1.800000*%
%ADD28R,1.600000X1.600000*%
%ADD29O,1.600000X1.600000*%
%ADD30R,1.700000X1.700000*%
%ADD31O,1.700000X1.700000*%
%ADD32R,2.000000X4.600000*%
%ADD33O,2.000000X4.200000*%
%ADD34O,4.200000X2.000000*%
%ADD35O,2.500000X1.600000*%
%ADD36O,7.000000X3.500000*%
%ADD37R,0.700000X4.300000*%
%ADD38R,0.700000X3.200000*%
%ADD39RoundRect,0.250000X-0.850000X-0.350000X0.850000X-0.350000X0.850000X0.350000X-0.850000X0.350000X0*%
%ADD40RoundRect,0.249997X-2.950003X-2.650003X2.950003X-2.650003X2.950003X2.650003X-2.950003X2.650003X0*%
G04 APERTURE END LIST*
D10*
%TO.C,JP17*%
X468221240Y-221738000D03*
D11*
X469521240Y-221738000D03*
%TD*%
D12*
%TO.C,U6*%
X266238740Y-200787000D03*
X266238740Y-203087000D03*
D13*
X272538740Y-203087000D03*
D12*
X266238740Y-205387000D03*
%TD*%
D14*
%TO.C,R41*%
X351948240Y-213082000D03*
X351948240Y-211257000D03*
%TD*%
D10*
%TO.C,JP14*%
X432121240Y-160725500D03*
D11*
X433421240Y-160725500D03*
%TD*%
D15*
%TO.C,D12*%
X407976740Y-213600000D03*
X407976740Y-211850000D03*
%TD*%
D16*
%TO.C,R2*%
X247490740Y-207643000D03*
X247490740Y-205643000D03*
%TD*%
D17*
%TO.C,C9*%
X351493240Y-200801000D03*
X353568240Y-200801000D03*
%TD*%
D18*
%TO.C,U5*%
X264373740Y-211088000D03*
X264373740Y-213628000D03*
X270673740Y-213628000D03*
X270673740Y-211088000D03*
%TD*%
D12*
%TO.C,U14*%
X326238740Y-200787000D03*
X326238740Y-203087000D03*
D13*
X332538740Y-203087000D03*
D12*
X326238740Y-205387000D03*
%TD*%
D18*
%TO.C,U17*%
X354373740Y-211088000D03*
X354373740Y-213628000D03*
X360673740Y-213628000D03*
X360673740Y-211088000D03*
%TD*%
D19*
%TO.C,K5*%
X301547740Y-185942000D03*
X293927740Y-178322000D03*
X301547740Y-178322000D03*
D20*
X301547740Y-196102000D03*
D21*
X293927740Y-196102000D03*
%TD*%
D22*
%TO.C,R50*%
X257976740Y-208270500D03*
X257976740Y-210095500D03*
%TD*%
D23*
%TO.C,R23*%
X321618240Y-203087000D03*
X323443240Y-203087000D03*
%TD*%
D14*
%TO.C,R47*%
X441948240Y-213082000D03*
X441948240Y-211257000D03*
%TD*%
D16*
%TO.C,R10*%
X367490740Y-207643000D03*
X367490740Y-205643000D03*
%TD*%
D22*
%TO.C,R59*%
X392976740Y-208270500D03*
X392976740Y-210095500D03*
%TD*%
D16*
%TO.C,R1*%
X232490740Y-207643000D03*
X232490740Y-205643000D03*
%TD*%
%TO.C,R16*%
X457490740Y-207643000D03*
X457490740Y-205643000D03*
%TD*%
%TO.C,R4*%
X277490740Y-207643000D03*
X277490740Y-205643000D03*
%TD*%
D19*
%TO.C,K3*%
X271547740Y-185942000D03*
X263927740Y-178322000D03*
X271547740Y-178322000D03*
D20*
X271547740Y-196102000D03*
D21*
X263927740Y-196102000D03*
%TD*%
D24*
%TO.C,L1*%
X232357740Y-169559000D03*
X234857740Y-166559000D03*
X235357740Y-169559000D03*
X237857740Y-165059000D03*
X237857740Y-167809000D03*
X237857740Y-171309000D03*
X237857740Y-174059000D03*
X240357740Y-169559000D03*
X240857740Y-172559000D03*
X243357740Y-169559000D03*
%TD*%
D25*
%TO.C,J4*%
X477696240Y-189625500D03*
X477696240Y-161575500D03*
D26*
X476796240Y-185125500D03*
D27*
X476796240Y-181315500D03*
X476796240Y-177505500D03*
X476796240Y-173695500D03*
X476796240Y-169885500D03*
X476796240Y-166075500D03*
%TD*%
D22*
%TO.C,R55*%
X332976740Y-208270500D03*
X332976740Y-210095500D03*
%TD*%
D23*
%TO.C,R26*%
X366618240Y-203087000D03*
X368443240Y-203087000D03*
%TD*%
D14*
%TO.C,R40*%
X336948240Y-213082000D03*
X336948240Y-211257000D03*
%TD*%
D18*
%TO.C,U19*%
X369373740Y-211088000D03*
X369373740Y-213628000D03*
X375673740Y-213628000D03*
X375673740Y-211088000D03*
%TD*%
D14*
%TO.C,R37*%
X291948240Y-213082000D03*
X291948240Y-211257000D03*
%TD*%
D18*
%TO.C,U11*%
X309373740Y-211088000D03*
X309373740Y-213628000D03*
X315673740Y-213628000D03*
X315673740Y-211088000D03*
%TD*%
D15*
%TO.C,D2*%
X257976740Y-213600000D03*
X257976740Y-211850000D03*
%TD*%
D10*
%TO.C,JP7*%
X327121240Y-160725500D03*
D11*
X328421240Y-160725500D03*
%TD*%
D10*
%TO.C,JP6*%
X312121240Y-160725500D03*
D11*
X313421240Y-160725500D03*
%TD*%
D10*
%TO.C,JP1*%
X237121240Y-160725500D03*
D11*
X238421240Y-160725500D03*
%TD*%
D22*
%TO.C,R56*%
X347976740Y-208270500D03*
X347976740Y-210095500D03*
%TD*%
D15*
%TO.C,D6*%
X317976740Y-213600000D03*
X317976740Y-211850000D03*
%TD*%
D17*
%TO.C,C16*%
X456493240Y-200801000D03*
X458568240Y-200801000D03*
%TD*%
D10*
%TO.C,JP8*%
X342121240Y-160725500D03*
D11*
X343421240Y-160725500D03*
%TD*%
D19*
%TO.C,K11*%
X391547740Y-185942000D03*
X383927740Y-178322000D03*
X391547740Y-178322000D03*
D20*
X391547740Y-196102000D03*
D21*
X383927740Y-196102000D03*
%TD*%
D23*
%TO.C,R24*%
X336618240Y-203087000D03*
X338443240Y-203087000D03*
%TD*%
D14*
%TO.C,R45*%
X411948240Y-213082000D03*
X411948240Y-211257000D03*
%TD*%
D22*
%TO.C,R52*%
X287976740Y-208270500D03*
X287976740Y-210095500D03*
%TD*%
D19*
%TO.C,K8*%
X346547740Y-185942000D03*
X338927740Y-178322000D03*
X346547740Y-178322000D03*
D20*
X346547740Y-196102000D03*
D21*
X338927740Y-196102000D03*
%TD*%
D16*
%TO.C,R5*%
X292490740Y-207643000D03*
X292490740Y-205643000D03*
%TD*%
D24*
%TO.C,L4*%
X277357740Y-169559000D03*
X279857740Y-166559000D03*
X280357740Y-169559000D03*
X282857740Y-165059000D03*
X282857740Y-167809000D03*
X282857740Y-171309000D03*
X282857740Y-174059000D03*
X285357740Y-169559000D03*
X285857740Y-172559000D03*
X288357740Y-169559000D03*
%TD*%
D19*
%TO.C,K1*%
X241547740Y-185942000D03*
X233927740Y-178322000D03*
X241547740Y-178322000D03*
D20*
X241547740Y-196102000D03*
D21*
X233927740Y-196102000D03*
%TD*%
D14*
%TO.C,R44*%
X396948240Y-213082000D03*
X396948240Y-211257000D03*
%TD*%
D16*
%TO.C,R15*%
X442490740Y-207643000D03*
X442490740Y-205643000D03*
%TD*%
D18*
%TO.C,U21*%
X384373740Y-211088000D03*
X384373740Y-213628000D03*
X390673740Y-213628000D03*
X390673740Y-211088000D03*
%TD*%
D12*
%TO.C,U8*%
X281238740Y-200787000D03*
X281238740Y-203087000D03*
D13*
X287538740Y-203087000D03*
D12*
X281238740Y-205387000D03*
%TD*%
D16*
%TO.C,R13*%
X412490740Y-207643000D03*
X412490740Y-205643000D03*
%TD*%
D23*
%TO.C,R25*%
X351618240Y-203087000D03*
X353443240Y-203087000D03*
%TD*%
D10*
%TO.C,JP3*%
X267121240Y-160725500D03*
D11*
X268421240Y-160725500D03*
%TD*%
D10*
%TO.C,JP12*%
X402121240Y-160725500D03*
D11*
X403421240Y-160725500D03*
%TD*%
D12*
%TO.C,U20*%
X371238740Y-200787000D03*
X371238740Y-203087000D03*
D13*
X377538740Y-203087000D03*
D12*
X371238740Y-205387000D03*
%TD*%
%TO.C,U30*%
X446238740Y-200787000D03*
X446238740Y-203087000D03*
D13*
X452538740Y-203087000D03*
D12*
X446238740Y-205387000D03*
%TD*%
D24*
%TO.C,L16*%
X457357740Y-169559000D03*
X459857740Y-166559000D03*
X460357740Y-169559000D03*
X462857740Y-165059000D03*
X462857740Y-167809000D03*
X462857740Y-171309000D03*
X462857740Y-174059000D03*
X465357740Y-169559000D03*
X465857740Y-172559000D03*
X468357740Y-169559000D03*
%TD*%
D28*
%TO.C,SW2*%
X223796240Y-212940500D03*
D29*
X223796240Y-210400500D03*
X223796240Y-207860500D03*
X223796240Y-205320500D03*
X223796240Y-202780500D03*
X223796240Y-200240500D03*
X223796240Y-197700500D03*
X223796240Y-195160500D03*
X216176240Y-195160500D03*
X216176240Y-197700500D03*
X216176240Y-200240500D03*
X216176240Y-202780500D03*
X216176240Y-205320500D03*
X216176240Y-207860500D03*
X216176240Y-210400500D03*
X216176240Y-212940500D03*
%TD*%
D18*
%TO.C,U29*%
X444373740Y-211088000D03*
X444373740Y-213628000D03*
X450673740Y-213628000D03*
X450673740Y-211088000D03*
%TD*%
D16*
%TO.C,R12*%
X397490740Y-207643000D03*
X397490740Y-205643000D03*
%TD*%
D18*
%TO.C,U9*%
X294373740Y-211088000D03*
X294373740Y-213628000D03*
X300673740Y-213628000D03*
X300673740Y-211088000D03*
%TD*%
D23*
%TO.C,R21*%
X291618240Y-203087000D03*
X293443240Y-203087000D03*
%TD*%
D17*
%TO.C,C11*%
X381493240Y-200801000D03*
X383568240Y-200801000D03*
%TD*%
D22*
%TO.C,R63*%
X452976740Y-208270500D03*
X452976740Y-210095500D03*
%TD*%
D15*
%TO.C,D5*%
X302976740Y-213600000D03*
X302976740Y-211850000D03*
%TD*%
D19*
%TO.C,K2*%
X256547740Y-185942000D03*
X248927740Y-178322000D03*
X256547740Y-178322000D03*
D20*
X256547740Y-196102000D03*
D21*
X248927740Y-196102000D03*
%TD*%
D19*
%TO.C,K14*%
X436547740Y-185942000D03*
X428927740Y-178322000D03*
X436547740Y-178322000D03*
D20*
X436547740Y-196102000D03*
D21*
X428927740Y-196102000D03*
%TD*%
D10*
%TO.C,JP18*%
X468221240Y-225288000D03*
D11*
X469521240Y-225288000D03*
%TD*%
D12*
%TO.C,U2*%
X236238740Y-200787000D03*
X236238740Y-203087000D03*
D13*
X242538740Y-203087000D03*
D12*
X236238740Y-205387000D03*
%TD*%
D19*
%TO.C,K15*%
X451547740Y-185942000D03*
X443927740Y-178322000D03*
X451547740Y-178322000D03*
D20*
X451547740Y-196102000D03*
D21*
X443927740Y-196102000D03*
%TD*%
D14*
%TO.C,R43*%
X381948240Y-213082000D03*
X381948240Y-211257000D03*
%TD*%
D15*
%TO.C,D15*%
X452976740Y-213600000D03*
X452976740Y-211850000D03*
%TD*%
%TO.C,D3*%
X272976740Y-213600000D03*
X272976740Y-211850000D03*
%TD*%
D18*
%TO.C,U13*%
X324373740Y-211088000D03*
X324373740Y-213628000D03*
X330673740Y-213628000D03*
X330673740Y-211088000D03*
%TD*%
D16*
%TO.C,R9*%
X352490740Y-207643000D03*
X352490740Y-205643000D03*
%TD*%
D15*
%TO.C,D16*%
X467976740Y-213600000D03*
X467976740Y-211850000D03*
%TD*%
D10*
%TO.C,JP16*%
X462121240Y-160725500D03*
D11*
X463421240Y-160725500D03*
%TD*%
D10*
%TO.C,JP9*%
X357121240Y-160725500D03*
D11*
X358421240Y-160725500D03*
%TD*%
D19*
%TO.C,K16*%
X466547740Y-185942000D03*
X458927740Y-178322000D03*
X466547740Y-178322000D03*
D20*
X466547740Y-196102000D03*
D21*
X458927740Y-196102000D03*
%TD*%
D24*
%TO.C,L5*%
X292357740Y-169559000D03*
X294857740Y-166559000D03*
X295357740Y-169559000D03*
X297857740Y-165059000D03*
X297857740Y-167809000D03*
X297857740Y-171309000D03*
X297857740Y-174059000D03*
X300357740Y-169559000D03*
X300857740Y-172559000D03*
X303357740Y-169559000D03*
%TD*%
D19*
%TO.C,K12*%
X406547740Y-185942000D03*
X398927740Y-178322000D03*
X406547740Y-178322000D03*
D20*
X406547740Y-196102000D03*
D21*
X398927740Y-196102000D03*
%TD*%
D17*
%TO.C,C1*%
X231493240Y-200801000D03*
X233568240Y-200801000D03*
%TD*%
D24*
%TO.C,L12*%
X397357740Y-169559000D03*
X399857740Y-166559000D03*
X400357740Y-169559000D03*
X402857740Y-165059000D03*
X402857740Y-167809000D03*
X402857740Y-171309000D03*
X402857740Y-174059000D03*
X405357740Y-169559000D03*
X405857740Y-172559000D03*
X408357740Y-169559000D03*
%TD*%
D10*
%TO.C,JP5*%
X297121240Y-160725500D03*
D11*
X298421240Y-160725500D03*
%TD*%
D17*
%TO.C,C3*%
X261493240Y-200801000D03*
X263568240Y-200801000D03*
%TD*%
%TO.C,C7*%
X321493240Y-200801000D03*
X323568240Y-200801000D03*
%TD*%
D23*
%TO.C,R29*%
X411618240Y-203087000D03*
X413443240Y-203087000D03*
%TD*%
D19*
%TO.C,K4*%
X286547740Y-185942000D03*
X278927740Y-178322000D03*
X286547740Y-178322000D03*
D20*
X286547740Y-196102000D03*
D21*
X278927740Y-196102000D03*
%TD*%
D23*
%TO.C,R19*%
X261618240Y-203087000D03*
X263443240Y-203087000D03*
%TD*%
D22*
%TO.C,R57*%
X362976740Y-208270500D03*
X362976740Y-210095500D03*
%TD*%
D17*
%TO.C,C5*%
X291493240Y-200801000D03*
X293568240Y-200801000D03*
%TD*%
D23*
%TO.C,R31*%
X441618240Y-203087000D03*
X443443240Y-203087000D03*
%TD*%
D19*
%TO.C,K10*%
X376547740Y-185942000D03*
X368927740Y-178322000D03*
X376547740Y-178322000D03*
D20*
X376547740Y-196102000D03*
D21*
X368927740Y-196102000D03*
%TD*%
D22*
%TO.C,R53*%
X302976740Y-208270500D03*
X302976740Y-210095500D03*
%TD*%
D17*
%TO.C,C12*%
X396493240Y-200801000D03*
X398568240Y-200801000D03*
%TD*%
D12*
%TO.C,U32*%
X461238740Y-200787000D03*
X461238740Y-203087000D03*
D13*
X467538740Y-203087000D03*
D12*
X461238740Y-205387000D03*
%TD*%
D10*
%TO.C,JP2*%
X252121240Y-160725500D03*
D11*
X253421240Y-160725500D03*
%TD*%
D15*
%TO.C,D7*%
X332976740Y-213600000D03*
X332976740Y-211850000D03*
%TD*%
D12*
%TO.C,U28*%
X431238740Y-200787000D03*
X431238740Y-203087000D03*
D13*
X437538740Y-203087000D03*
D12*
X431238740Y-205387000D03*
%TD*%
D14*
%TO.C,R33*%
X231948240Y-213082000D03*
X231948240Y-211257000D03*
%TD*%
D22*
%TO.C,R51*%
X272976740Y-208270500D03*
X272976740Y-210095500D03*
%TD*%
D18*
%TO.C,U27*%
X429373740Y-211088000D03*
X429373740Y-213628000D03*
X435673740Y-213628000D03*
X435673740Y-211088000D03*
%TD*%
D22*
%TO.C,R60*%
X407976740Y-208270500D03*
X407976740Y-210095500D03*
%TD*%
D16*
%TO.C,R3*%
X262490740Y-207643000D03*
X262490740Y-205643000D03*
%TD*%
D15*
%TO.C,D14*%
X437976740Y-213600000D03*
X437976740Y-211850000D03*
%TD*%
D17*
%TO.C,C6*%
X306493240Y-200801000D03*
X308568240Y-200801000D03*
%TD*%
D24*
%TO.C,L7*%
X322357740Y-169559000D03*
X324857740Y-166559000D03*
X325357740Y-169559000D03*
X327857740Y-165059000D03*
X327857740Y-167809000D03*
X327857740Y-171309000D03*
X327857740Y-174059000D03*
X330357740Y-169559000D03*
X330857740Y-172559000D03*
X333357740Y-169559000D03*
%TD*%
D28*
%TO.C,SW1*%
X223836240Y-237855500D03*
D29*
X223836240Y-235315500D03*
X223836240Y-232775500D03*
X223836240Y-230235500D03*
X223836240Y-227695500D03*
X223836240Y-225155500D03*
X223836240Y-222615500D03*
X223836240Y-220075500D03*
X216216240Y-220075500D03*
X216216240Y-222615500D03*
X216216240Y-225155500D03*
X216216240Y-227695500D03*
X216216240Y-230235500D03*
X216216240Y-232775500D03*
X216216240Y-235315500D03*
X216216240Y-237855500D03*
%TD*%
D10*
%TO.C,JP4*%
X282121240Y-160725500D03*
D11*
X283421240Y-160725500D03*
%TD*%
D17*
%TO.C,C13*%
X411493240Y-200801000D03*
X413568240Y-200801000D03*
%TD*%
D14*
%TO.C,R38*%
X306948240Y-213082000D03*
X306948240Y-211257000D03*
%TD*%
D12*
%TO.C,U4*%
X251238740Y-200787000D03*
X251238740Y-203087000D03*
D13*
X257538740Y-203087000D03*
D12*
X251238740Y-205387000D03*
%TD*%
D17*
%TO.C,C4*%
X276493240Y-200801000D03*
X278568240Y-200801000D03*
%TD*%
D15*
%TO.C,D4*%
X287976740Y-213600000D03*
X287976740Y-211850000D03*
%TD*%
D18*
%TO.C,U23*%
X399373740Y-211088000D03*
X399373740Y-213628000D03*
X405673740Y-213628000D03*
X405673740Y-211088000D03*
%TD*%
D24*
%TO.C,L10*%
X367357740Y-169559000D03*
X369857740Y-166559000D03*
X370357740Y-169559000D03*
X372857740Y-165059000D03*
X372857740Y-167809000D03*
X372857740Y-171309000D03*
X372857740Y-174059000D03*
X375357740Y-169559000D03*
X375857740Y-172559000D03*
X378357740Y-169559000D03*
%TD*%
D18*
%TO.C,U7*%
X279373740Y-211088000D03*
X279373740Y-213628000D03*
X285673740Y-213628000D03*
X285673740Y-211088000D03*
%TD*%
D15*
%TO.C,D11*%
X392976740Y-213600000D03*
X392976740Y-211850000D03*
%TD*%
D16*
%TO.C,R7*%
X322490740Y-207643000D03*
X322490740Y-205643000D03*
%TD*%
D30*
%TO.C,J3*%
X212796240Y-195130500D03*
D31*
X212796240Y-197670500D03*
X212796240Y-200210500D03*
X212796240Y-202750500D03*
X212796240Y-205290500D03*
X212796240Y-207830500D03*
X212796240Y-210370500D03*
X212796240Y-212910500D03*
X212796240Y-215450500D03*
X212796240Y-217990500D03*
X212796240Y-220530500D03*
X212796240Y-223070500D03*
X212796240Y-225610500D03*
X212796240Y-228150500D03*
X212796240Y-230690500D03*
X212796240Y-233230500D03*
X212796240Y-235770500D03*
X212796240Y-238310500D03*
%TD*%
D24*
%TO.C,L8*%
X337357740Y-169559000D03*
X339857740Y-166559000D03*
X340357740Y-169559000D03*
X342857740Y-165059000D03*
X342857740Y-167809000D03*
X342857740Y-171309000D03*
X342857740Y-174059000D03*
X345357740Y-169559000D03*
X345857740Y-172559000D03*
X348357740Y-169559000D03*
%TD*%
D14*
%TO.C,R39*%
X321948240Y-213082000D03*
X321948240Y-211257000D03*
%TD*%
D19*
%TO.C,K9*%
X361547740Y-185942000D03*
X353927740Y-178322000D03*
X361547740Y-178322000D03*
D20*
X361547740Y-196102000D03*
D21*
X353927740Y-196102000D03*
%TD*%
D14*
%TO.C,R34*%
X246948240Y-213082000D03*
X246948240Y-211257000D03*
%TD*%
D24*
%TO.C,L11*%
X382357740Y-169559000D03*
X384857740Y-166559000D03*
X385357740Y-169559000D03*
X387857740Y-165059000D03*
X387857740Y-167809000D03*
X387857740Y-171309000D03*
X387857740Y-174059000D03*
X390357740Y-169559000D03*
X390857740Y-172559000D03*
X393357740Y-169559000D03*
%TD*%
D19*
%TO.C,K6*%
X316547740Y-185942000D03*
X308927740Y-178322000D03*
X316547740Y-178322000D03*
D20*
X316547740Y-196102000D03*
D21*
X308927740Y-196102000D03*
%TD*%
D23*
%TO.C,R27*%
X381618240Y-203087000D03*
X383443240Y-203087000D03*
%TD*%
D18*
%TO.C,U31*%
X459373740Y-211088000D03*
X459373740Y-213628000D03*
X465673740Y-213628000D03*
X465673740Y-211088000D03*
%TD*%
D14*
%TO.C,R35*%
X261948240Y-213082000D03*
X261948240Y-211257000D03*
%TD*%
D12*
%TO.C,U24*%
X401238740Y-200787000D03*
X401238740Y-203087000D03*
D13*
X407538740Y-203087000D03*
D12*
X401238740Y-205387000D03*
%TD*%
D15*
%TO.C,D8*%
X347976740Y-213600000D03*
X347976740Y-211850000D03*
%TD*%
D24*
%TO.C,L2*%
X247357740Y-169559000D03*
X249857740Y-166559000D03*
X250357740Y-169559000D03*
X252857740Y-165059000D03*
X252857740Y-167809000D03*
X252857740Y-171309000D03*
X252857740Y-174059000D03*
X255357740Y-169559000D03*
X255857740Y-172559000D03*
X258357740Y-169559000D03*
%TD*%
D18*
%TO.C,U3*%
X249373740Y-211088000D03*
X249373740Y-213628000D03*
X255673740Y-213628000D03*
X255673740Y-211088000D03*
%TD*%
D23*
%TO.C,R20*%
X276618240Y-203087000D03*
X278443240Y-203087000D03*
%TD*%
D15*
%TO.C,D1*%
X242976740Y-213600000D03*
X242976740Y-211850000D03*
%TD*%
D16*
%TO.C,R6*%
X307490740Y-207643000D03*
X307490740Y-205643000D03*
%TD*%
D17*
%TO.C,C15*%
X441493240Y-200801000D03*
X443568240Y-200801000D03*
%TD*%
D10*
%TO.C,JP11*%
X387121240Y-160725500D03*
D11*
X388421240Y-160725500D03*
%TD*%
D24*
%TO.C,L9*%
X352357740Y-169559000D03*
X354857740Y-166559000D03*
X355357740Y-169559000D03*
X357857740Y-165059000D03*
X357857740Y-167809000D03*
X357857740Y-171309000D03*
X357857740Y-174059000D03*
X360357740Y-169559000D03*
X360857740Y-172559000D03*
X363357740Y-169559000D03*
%TD*%
D32*
%TO.C,J2*%
X225146240Y-184050500D03*
D33*
X218846240Y-184050500D03*
D34*
X222246240Y-188850500D03*
%TD*%
D15*
%TO.C,D9*%
X362976740Y-213600000D03*
X362976740Y-211850000D03*
%TD*%
%TO.C,D10*%
X377976740Y-213600000D03*
X377976740Y-211850000D03*
%TD*%
D17*
%TO.C,C14*%
X426493240Y-200801000D03*
X428568240Y-200801000D03*
%TD*%
D12*
%TO.C,U10*%
X296238740Y-200787000D03*
X296238740Y-203087000D03*
D13*
X302538740Y-203087000D03*
D12*
X296238740Y-205387000D03*
%TD*%
D10*
%TO.C,JP13*%
X417121240Y-160725500D03*
D11*
X418421240Y-160725500D03*
%TD*%
D23*
%TO.C,R18*%
X246618240Y-203087000D03*
X248443240Y-203087000D03*
%TD*%
D24*
%TO.C,L6*%
X307357740Y-169559000D03*
X309857740Y-166559000D03*
X310357740Y-169559000D03*
X312857740Y-165059000D03*
X312857740Y-167809000D03*
X312857740Y-171309000D03*
X312857740Y-174059000D03*
X315357740Y-169559000D03*
X315857740Y-172559000D03*
X318357740Y-169559000D03*
%TD*%
D18*
%TO.C,U25*%
X414373740Y-211088000D03*
X414373740Y-213628000D03*
X420673740Y-213628000D03*
X420673740Y-211088000D03*
%TD*%
D17*
%TO.C,C10*%
X366493240Y-200801000D03*
X368568240Y-200801000D03*
%TD*%
D35*
%TO.C,J1*%
X223921240Y-169575500D03*
D36*
X218841240Y-174655500D03*
D35*
X223921240Y-172115500D03*
D36*
X218841240Y-164495500D03*
%TD*%
D22*
%TO.C,R49*%
X242976740Y-208270500D03*
X242976740Y-210095500D03*
%TD*%
D12*
%TO.C,U16*%
X341238740Y-200787000D03*
X341238740Y-203087000D03*
D13*
X347538740Y-203087000D03*
D12*
X341238740Y-205387000D03*
%TD*%
D22*
%TO.C,R61*%
X422976740Y-208270500D03*
X422976740Y-210095500D03*
%TD*%
%TO.C,R62*%
X437976740Y-208270500D03*
X437976740Y-210095500D03*
%TD*%
D23*
%TO.C,R17*%
X231618240Y-203087000D03*
X233443240Y-203087000D03*
%TD*%
D17*
%TO.C,C8*%
X336493240Y-200801000D03*
X338568240Y-200801000D03*
%TD*%
D23*
%TO.C,R22*%
X306618240Y-203087000D03*
X308443240Y-203087000D03*
%TD*%
%TO.C,R30*%
X426618240Y-203087000D03*
X428443240Y-203087000D03*
%TD*%
D12*
%TO.C,U12*%
X311238740Y-200787000D03*
X311238740Y-203087000D03*
D13*
X317538740Y-203087000D03*
D12*
X311238740Y-205387000D03*
%TD*%
D24*
%TO.C,L3*%
X262357740Y-169559000D03*
X264857740Y-166559000D03*
X265357740Y-169559000D03*
X267857740Y-165059000D03*
X267857740Y-167809000D03*
X267857740Y-171309000D03*
X267857740Y-174059000D03*
X270357740Y-169559000D03*
X270857740Y-172559000D03*
X273357740Y-169559000D03*
%TD*%
D12*
%TO.C,U18*%
X356238740Y-200787000D03*
X356238740Y-203087000D03*
D13*
X362538740Y-203087000D03*
D12*
X356238740Y-205387000D03*
%TD*%
D37*
%TO.C,E1*%
X255831240Y-245235500D03*
X256831240Y-245235500D03*
X257831240Y-245235500D03*
X258831240Y-245235500D03*
X259831240Y-245235500D03*
X260831240Y-245235500D03*
X261831240Y-245235500D03*
X262831240Y-245235500D03*
X263831240Y-245235500D03*
X264831240Y-245235500D03*
X265831240Y-245235500D03*
X268831240Y-245235500D03*
X269831240Y-245235500D03*
X270831240Y-245235500D03*
X271831240Y-245235500D03*
X272831240Y-245235500D03*
X273831240Y-245235500D03*
X274831240Y-245235500D03*
X275831240Y-245235500D03*
X276831240Y-245235500D03*
X277831240Y-245235500D03*
X278831240Y-245235500D03*
X279831240Y-245235500D03*
X280831240Y-245235500D03*
X281831240Y-245235500D03*
X282831240Y-245235500D03*
X283831240Y-245235500D03*
X284831240Y-245235500D03*
X285831240Y-245235500D03*
X286831240Y-245235500D03*
X287831240Y-245235500D03*
X288831240Y-245235500D03*
X289831240Y-245235500D03*
X290831240Y-245235500D03*
X291831240Y-245235500D03*
X292831240Y-245235500D03*
X293831240Y-245235500D03*
X294831240Y-245235500D03*
X295831240Y-245235500D03*
X296831240Y-245235500D03*
X297831240Y-245235500D03*
X298831240Y-245235500D03*
X299831240Y-245235500D03*
X300831240Y-245235500D03*
X301831240Y-245235500D03*
X302831240Y-245235500D03*
X303831240Y-245235500D03*
X304831240Y-245235500D03*
X305831240Y-245235500D03*
X306831240Y-245235500D03*
X307831240Y-245235500D03*
X308831240Y-245235500D03*
X309831240Y-245235500D03*
X310831240Y-245235500D03*
X311831240Y-245235500D03*
X312831240Y-245235500D03*
X313831240Y-245235500D03*
X314831240Y-245235500D03*
X315831240Y-245235500D03*
X316831240Y-245235500D03*
X317831240Y-245235500D03*
X318831240Y-245235500D03*
X319831240Y-245235500D03*
X320831240Y-245235500D03*
X321831240Y-245235500D03*
X322831240Y-245235500D03*
X323831240Y-245235500D03*
X324831240Y-245235500D03*
X325831240Y-245235500D03*
X326831240Y-245235500D03*
X327831240Y-245235500D03*
X328831240Y-245235500D03*
X329831240Y-245235500D03*
X330831240Y-245235500D03*
X331831240Y-245235500D03*
X332831240Y-245235500D03*
X333831240Y-245235500D03*
X334831240Y-245235500D03*
X335831240Y-245235500D03*
X336831240Y-245235500D03*
D38*
X337831240Y-244685500D03*
D37*
X338831240Y-245235500D03*
%TD*%
D19*
%TO.C,K7*%
X331547740Y-185942000D03*
X323927740Y-178322000D03*
X331547740Y-178322000D03*
D20*
X331547740Y-196102000D03*
D21*
X323927740Y-196102000D03*
%TD*%
D10*
%TO.C,JP15*%
X447121240Y-160725500D03*
D11*
X448421240Y-160725500D03*
%TD*%
D12*
%TO.C,U22*%
X386238740Y-200787000D03*
X386238740Y-203087000D03*
D13*
X392538740Y-203087000D03*
D12*
X386238740Y-205387000D03*
%TD*%
%TO.C,U26*%
X416238740Y-200787000D03*
X416238740Y-203087000D03*
D13*
X422538740Y-203087000D03*
D12*
X416238740Y-205387000D03*
%TD*%
D24*
%TO.C,L14*%
X427357740Y-169559000D03*
X429857740Y-166559000D03*
X430357740Y-169559000D03*
X432857740Y-165059000D03*
X432857740Y-167809000D03*
X432857740Y-171309000D03*
X432857740Y-174059000D03*
X435357740Y-169559000D03*
X435857740Y-172559000D03*
X438357740Y-169559000D03*
%TD*%
D17*
%TO.C,C2*%
X246493240Y-200801000D03*
X248568240Y-200801000D03*
%TD*%
D14*
%TO.C,R36*%
X276948240Y-213082000D03*
X276948240Y-211257000D03*
%TD*%
%TO.C,R48*%
X456948240Y-213082000D03*
X456948240Y-211257000D03*
%TD*%
D22*
%TO.C,R58*%
X377976740Y-208270500D03*
X377976740Y-210095500D03*
%TD*%
%TO.C,R54*%
X317976740Y-208270500D03*
X317976740Y-210095500D03*
%TD*%
D18*
%TO.C,U1*%
X234373740Y-211088000D03*
X234373740Y-213628000D03*
X240673740Y-213628000D03*
X240673740Y-211088000D03*
%TD*%
D24*
%TO.C,L15*%
X442357740Y-169559000D03*
X444857740Y-166559000D03*
X445357740Y-169559000D03*
X447857740Y-165059000D03*
X447857740Y-167809000D03*
X447857740Y-171309000D03*
X447857740Y-174059000D03*
X450357740Y-169559000D03*
X450857740Y-172559000D03*
X453357740Y-169559000D03*
%TD*%
D16*
%TO.C,R14*%
X427490740Y-207643000D03*
X427490740Y-205643000D03*
%TD*%
D15*
%TO.C,D13*%
X422976740Y-213600000D03*
X422976740Y-211850000D03*
%TD*%
D39*
%TO.C,U33*%
X472796240Y-221758000D03*
X472796240Y-224038000D03*
D40*
X479096240Y-224038000D03*
D39*
X472796240Y-226318000D03*
%TD*%
D18*
%TO.C,U15*%
X339373740Y-211088000D03*
X339373740Y-213628000D03*
X345673740Y-213628000D03*
X345673740Y-211088000D03*
%TD*%
D10*
%TO.C,JP10*%
X372121240Y-160725500D03*
D11*
X373421240Y-160725500D03*
%TD*%
D19*
%TO.C,K13*%
X421547740Y-185942000D03*
X413927740Y-178322000D03*
X421547740Y-178322000D03*
D20*
X421547740Y-196102000D03*
D21*
X413927740Y-196102000D03*
%TD*%
D23*
%TO.C,R28*%
X396618240Y-203087000D03*
X398443240Y-203087000D03*
%TD*%
%TO.C,R32*%
X456618240Y-203087000D03*
X458443240Y-203087000D03*
%TD*%
D14*
%TO.C,R42*%
X366948240Y-213082000D03*
X366948240Y-211257000D03*
%TD*%
D24*
%TO.C,L13*%
X412357740Y-169559000D03*
X414857740Y-166559000D03*
X415357740Y-169559000D03*
X417857740Y-165059000D03*
X417857740Y-167809000D03*
X417857740Y-171309000D03*
X417857740Y-174059000D03*
X420357740Y-169559000D03*
X420857740Y-172559000D03*
X423357740Y-169559000D03*
%TD*%
D22*
%TO.C,R64*%
X467976740Y-208270500D03*
X467976740Y-210095500D03*
%TD*%
D16*
%TO.C,R8*%
X337490740Y-207643000D03*
X337490740Y-205643000D03*
%TD*%
D14*
%TO.C,R46*%
X426948240Y-213082000D03*
X426948240Y-211257000D03*
%TD*%
D16*
%TO.C,R11*%
X382490740Y-207643000D03*
X382490740Y-205643000D03*
%TD*%
M02*
