%TF.GenerationSoftware,KiCad,Pcbnew,8.0.4*%
%TF.CreationDate,2024-12-24T16:07:24-06:00*%
%TF.ProjectId,opa548_revised,6f706135-3438-45f7-9265-76697365642e,rev?*%
%TF.SameCoordinates,Original*%
%TF.FileFunction,Copper,L2,Bot*%
%TF.FilePolarity,Positive*%
%FSLAX46Y46*%
G04 Gerber Fmt 4.6, Leading zero omitted, Abs format (unit mm)*
G04 Created by KiCad (PCBNEW 8.0.4) date 2024-12-24 16:07:24*
%MOMM*%
%LPD*%
G01*
G04 APERTURE LIST*
G04 Aperture macros list*
%AMRoundRect*
0 Rectangle with rounded corners*
0 $1 Rounding radius*
0 $2 $3 $4 $5 $6 $7 $8 $9 X,Y pos of 4 corners*
0 Add a 4 corners polygon primitive as box body*
4,1,4,$2,$3,$4,$5,$6,$7,$8,$9,$2,$3,0*
0 Add four circle primitives for the rounded corners*
1,1,$1+$1,$2,$3*
1,1,$1+$1,$4,$5*
1,1,$1+$1,$6,$7*
1,1,$1+$1,$8,$9*
0 Add four rect primitives between the rounded corners*
20,1,$1+$1,$2,$3,$4,$5,0*
20,1,$1+$1,$4,$5,$6,$7,0*
20,1,$1+$1,$6,$7,$8,$9,0*
20,1,$1+$1,$8,$9,$2,$3,0*%
G04 Aperture macros list end*
%TA.AperFunction,ComponentPad*%
%ADD10R,1.879600X1.879600*%
%TD*%
%TA.AperFunction,ComponentPad*%
%ADD11C,1.879600*%
%TD*%
%TA.AperFunction,ComponentPad*%
%ADD12R,0.850000X0.850000*%
%TD*%
%TA.AperFunction,ComponentPad*%
%ADD13O,2.500000X1.600000*%
%TD*%
%TA.AperFunction,ComponentPad*%
%ADD14O,7.000000X3.500000*%
%TD*%
%TA.AperFunction,ComponentPad*%
%ADD15RoundRect,0.250000X-0.650000X-1.550000X0.650000X-1.550000X0.650000X1.550000X-0.650000X1.550000X0*%
%TD*%
%TA.AperFunction,ComponentPad*%
%ADD16O,1.800000X3.600000*%
%TD*%
%TA.AperFunction,ComponentPad*%
%ADD17R,2.000000X2.000000*%
%TD*%
%TA.AperFunction,ComponentPad*%
%ADD18C,2.000000*%
%TD*%
%TA.AperFunction,ViaPad*%
%ADD19C,0.600000*%
%TD*%
%TA.AperFunction,Conductor*%
%ADD20C,0.200000*%
%TD*%
%TA.AperFunction,Conductor*%
%ADD21C,1.000000*%
%TD*%
G04 APERTURE END LIST*
D10*
%TO.P,U2,1,VIN+*%
%TO.N,GND*%
X124618000Y-39500000D03*
D11*
%TO.P,U2,2,VIN-*%
%TO.N,Net-(U2-VIN-)*%
X126015000Y-35309000D03*
%TO.P,U2,3,ILIM*%
%TO.N,Ilim*%
X127412000Y-39500000D03*
%TO.P,U2,4,V-*%
%TO.N,-24V*%
X128809000Y-35309000D03*
%TO.P,U2,5,V+*%
%TO.N,+24V*%
X130206000Y-39500000D03*
%TO.P,U2,6,VO*%
%TO.N,Net-(J5-Ext)*%
X131603000Y-35309000D03*
%TO.P,U2,7,E/S*%
%TO.N,Net-(JP22-B)*%
X133000000Y-39500000D03*
%TD*%
D10*
%TO.P,U1,1,VIN+*%
%TO.N,Net-(U1-VIN+)*%
X89506000Y-39700000D03*
D11*
%TO.P,U1,2,VIN-*%
%TO.N,Net-(U1-VIN-)*%
X90903000Y-35509000D03*
%TO.P,U1,3,ILIM*%
%TO.N,Ilim*%
X92300000Y-39700000D03*
%TO.P,U1,4,V-*%
%TO.N,-24V*%
X93697000Y-35509000D03*
%TO.P,U1,5,V+*%
%TO.N,+24V*%
X95094000Y-39700000D03*
%TO.P,U1,6,VO*%
%TO.N,Net-(U1-VO)*%
X96491000Y-35509000D03*
%TO.P,U1,7,E/S*%
%TO.N,Net-(JP23-B)*%
X97888000Y-39700000D03*
%TD*%
D12*
%TO.P,TP1,1,1*%
%TO.N,Net-(U3-INB-)*%
X81600000Y-49800000D03*
%TD*%
D13*
%TO.P,J5,1,In*%
%TO.N,Net-(J5-In)*%
X126050000Y-67200000D03*
D14*
%TO.P,J5,2,Ext*%
%TO.N,Net-(J5-Ext)*%
X131130000Y-62120000D03*
D13*
X126050000Y-64660000D03*
D14*
X131130000Y-72280000D03*
%TD*%
D15*
%TO.P,J2,1,Pin_1*%
%TO.N,+24V*%
X105630000Y-88467500D03*
D16*
%TO.P,J2,2,Pin_2*%
%TO.N,-24V*%
X109440000Y-88467500D03*
%TO.P,J2,3,Pin_3*%
%TO.N,+12V*%
X113250000Y-88467500D03*
%TO.P,J2,4,Pin_4*%
%TO.N,-12V*%
X117060000Y-88467500D03*
%TO.P,J2,5,Pin_5*%
%TO.N,+5V*%
X120870000Y-88467500D03*
%TO.P,J2,6,Pin_6*%
%TO.N,GND*%
X124680000Y-88467500D03*
%TD*%
D13*
%TO.P,J1,1,In*%
%TO.N,Net-(J1-In)*%
X65480000Y-67180000D03*
D14*
%TO.P,J1,2,Ext*%
%TO.N,GND*%
X60400000Y-72260000D03*
D13*
X65480000Y-69720000D03*
D14*
X60400000Y-62100000D03*
%TD*%
D17*
%TO.P,C9,1*%
%TO.N,GND*%
X86832323Y-76400000D03*
D18*
%TO.P,C9,2*%
%TO.N,-12V*%
X91832323Y-76400000D03*
%TD*%
D17*
%TO.P,C8,1*%
%TO.N,+12V*%
X75732323Y-76400000D03*
D18*
%TO.P,C8,2*%
%TO.N,GND*%
X80732323Y-76400000D03*
%TD*%
D17*
%TO.P,C7,1*%
%TO.N,GND*%
X75732323Y-91000000D03*
D18*
%TO.P,C7,2*%
%TO.N,-24V*%
X80732323Y-91000000D03*
%TD*%
D17*
%TO.P,C6,1*%
%TO.N,+24V*%
X86732323Y-90900000D03*
D18*
%TO.P,C6,2*%
%TO.N,GND*%
X91732323Y-90900000D03*
%TD*%
D19*
%TO.N,-12V*%
X82900000Y-60000000D03*
X77300000Y-46800000D03*
%TO.N,GND*%
X65300000Y-46800000D03*
%TO.N,Current_ina1*%
X91300000Y-58900000D03*
X107000000Y-57800000D03*
%TO.N,Net-(U2-VIN-)*%
X118100000Y-35600000D03*
%TO.N,GND*%
X113800000Y-38500000D03*
X112200000Y-38500000D03*
X110400000Y-38500000D03*
X108400000Y-38400000D03*
X106600000Y-38400000D03*
X104800000Y-38400000D03*
X113800000Y-40900000D03*
X112200000Y-40800000D03*
X110400000Y-40800000D03*
X108500000Y-40800000D03*
X106700000Y-40800000D03*
X104900000Y-40900000D03*
X113200000Y-34800000D03*
X111400000Y-34700000D03*
X109600000Y-34800000D03*
X107700000Y-34700000D03*
X106100000Y-34700000D03*
X104600000Y-34700000D03*
X113700000Y-39700000D03*
X112200000Y-39700000D03*
X110400000Y-39600000D03*
X108400000Y-39600000D03*
X106600000Y-39600000D03*
X104900000Y-39500000D03*
X104700000Y-35900000D03*
X107500000Y-35900000D03*
X109500000Y-35900000D03*
X112900000Y-35900000D03*
X111100000Y-35900000D03*
X106100000Y-35900000D03*
%TO.N,Net-(U3-INB-)*%
X81300000Y-47100000D03*
%TO.N,GND*%
X131000000Y-46900000D03*
%TO.N,+12V*%
X70000000Y-34700000D03*
%TO.N,-12V*%
X102500000Y-62400000D03*
X101500000Y-57100000D03*
%TO.N,GND*%
X101800000Y-59600000D03*
X111000000Y-59600000D03*
X111000000Y-64500000D03*
%TO.N,-12V*%
X84900000Y-60000000D03*
%TO.N,+12V*%
X84400000Y-52000000D03*
%TO.N,GND*%
X125500000Y-47700000D03*
X94500000Y-45587500D03*
X82000000Y-40600000D03*
%TO.N,-24V*%
X85900000Y-39000000D03*
%TO.N,Net-(U1-VO)*%
X88675500Y-44475500D03*
%TO.N,Net-(JP3-B)*%
X67100000Y-42300000D03*
X74900000Y-39400000D03*
%TO.N,GND*%
X70100000Y-86500000D03*
X64500000Y-83900000D03*
X69800000Y-81500000D03*
X64900000Y-78900000D03*
%TO.N,Net-(JP24-B)*%
X104900000Y-58600000D03*
X97600000Y-65400000D03*
%TD*%
D20*
%TO.N,-12V*%
X82900000Y-60000000D02*
X77300000Y-54400000D01*
X77300000Y-54400000D02*
X77300000Y-46800000D01*
X84900000Y-69467677D02*
X91832323Y-76400000D01*
X84900000Y-60000000D02*
X84900000Y-69467677D01*
%TO.N,Current_ina1*%
X107000000Y-57800000D02*
X105700000Y-56500000D01*
X105700000Y-56500000D02*
X93700000Y-56500000D01*
X93700000Y-56500000D02*
X91300000Y-58900000D01*
%TO.N,Net-(U2-VIN-)*%
X118391000Y-35309000D02*
X118100000Y-35600000D01*
X126015000Y-35309000D02*
X118391000Y-35309000D01*
%TO.N,Ilim*%
X95440658Y-37600000D02*
X125512000Y-37600000D01*
X93340658Y-39700000D02*
X95440658Y-37600000D01*
X92300000Y-39700000D02*
X93340658Y-39700000D01*
X125512000Y-37600000D02*
X127412000Y-39500000D01*
%TO.N,Net-(U3-INB-)*%
X81300000Y-47100000D02*
X81600000Y-47400000D01*
X81600000Y-47400000D02*
X81600000Y-49800000D01*
%TO.N,+12V*%
X84400000Y-46900000D02*
X84400000Y-52000000D01*
X72200000Y-34700000D02*
X84400000Y-46900000D01*
X70000000Y-34700000D02*
X72200000Y-34700000D01*
%TO.N,-12V*%
X101200000Y-57400000D02*
X101200000Y-61100000D01*
X101500000Y-57100000D02*
X101200000Y-57400000D01*
X101200000Y-61100000D02*
X102500000Y-62400000D01*
D21*
%TO.N,-24V*%
X89200000Y-33300000D02*
X95200000Y-33300000D01*
X97300000Y-90400000D02*
X97300000Y-76800000D01*
X97300000Y-76800000D02*
X86900000Y-66400000D01*
X86900000Y-35600000D02*
X89200000Y-33300000D01*
X99400000Y-92500000D02*
X97300000Y-90400000D01*
X107200000Y-92500000D02*
X99400000Y-92500000D01*
X109440000Y-90260000D02*
X107200000Y-92500000D01*
X86900000Y-66400000D02*
X86900000Y-35600000D01*
X109440000Y-88467500D02*
X109440000Y-90260000D01*
D20*
X86900000Y-39000000D02*
X85900000Y-39000000D01*
D21*
%TO.N,+24V*%
X121800000Y-70500000D02*
X105630000Y-86670000D01*
X126500000Y-70500000D02*
X121800000Y-70500000D01*
X128800000Y-68200000D02*
X126500000Y-70500000D01*
X136600000Y-45894000D02*
X136600000Y-63600000D01*
X136600000Y-63600000D02*
X132000000Y-68200000D01*
X105630000Y-86670000D02*
X105630000Y-88467500D01*
X133103000Y-42397000D02*
X136600000Y-45894000D01*
X132000000Y-68200000D02*
X128800000Y-68200000D01*
%TO.N,-24V*%
X128809000Y-34409000D02*
X128809000Y-35309000D01*
X93697000Y-34803000D02*
X95200000Y-33300000D01*
X95200000Y-33300000D02*
X127700000Y-33300000D01*
X93697000Y-35509000D02*
X93697000Y-34803000D01*
X127700000Y-33300000D02*
X128809000Y-34409000D01*
%TO.N,+24V*%
X97791000Y-42397000D02*
X95094000Y-39700000D01*
X133103000Y-42397000D02*
X97791000Y-42397000D01*
X130206000Y-39500000D02*
X133103000Y-42397000D01*
D20*
%TO.N,+12V*%
X84000000Y-52400000D02*
X84000000Y-70200000D01*
X84400000Y-52000000D02*
X84000000Y-52400000D01*
X77800000Y-76400000D02*
X75732323Y-76400000D01*
X84000000Y-70200000D02*
X77800000Y-76400000D01*
%TO.N,Net-(U1-VO)*%
X88675500Y-43010100D02*
X88675500Y-44475500D01*
X87700000Y-38800000D02*
X87700000Y-42034600D01*
X88600000Y-37900000D02*
X87700000Y-38800000D01*
X87700000Y-42034600D02*
X88675500Y-43010100D01*
X96491000Y-35509000D02*
X94100000Y-37900000D01*
X94100000Y-37900000D02*
X88600000Y-37900000D01*
%TO.N,Net-(JP3-B)*%
X72000000Y-42300000D02*
X74900000Y-39400000D01*
X67100000Y-42300000D02*
X72000000Y-42300000D01*
%TO.N,Net-(JP24-B)*%
X104900000Y-63500000D02*
X104900000Y-58600000D01*
X103000000Y-65400000D02*
X104900000Y-63500000D01*
X97600000Y-65400000D02*
X103000000Y-65400000D01*
%TD*%
%TA.AperFunction,Conductor*%
%TO.N,GND*%
G36*
X123167158Y-38220185D02*
G01*
X123212913Y-38272989D01*
X123222857Y-38342147D01*
X123216301Y-38367833D01*
X123184603Y-38452819D01*
X123184601Y-38452827D01*
X123178200Y-38512355D01*
X123178200Y-39250000D01*
X123979249Y-39250000D01*
X123958555Y-39299960D01*
X123932200Y-39432455D01*
X123932200Y-39567545D01*
X123958555Y-39700040D01*
X123979249Y-39750000D01*
X123178200Y-39750000D01*
X123178200Y-40487644D01*
X123184601Y-40547172D01*
X123184603Y-40547179D01*
X123234845Y-40681886D01*
X123234849Y-40681893D01*
X123321009Y-40796987D01*
X123321012Y-40796990D01*
X123436106Y-40883150D01*
X123436113Y-40883154D01*
X123570820Y-40933396D01*
X123570827Y-40933398D01*
X123630355Y-40939799D01*
X123630372Y-40939800D01*
X124368000Y-40939800D01*
X124368000Y-40138750D01*
X124417960Y-40159445D01*
X124550455Y-40185800D01*
X124685545Y-40185800D01*
X124818040Y-40159445D01*
X124868000Y-40138750D01*
X124868000Y-40939800D01*
X125605628Y-40939800D01*
X125605644Y-40939799D01*
X125665172Y-40933398D01*
X125665179Y-40933396D01*
X125799886Y-40883154D01*
X125799893Y-40883150D01*
X125914987Y-40796990D01*
X125914990Y-40796987D01*
X126001150Y-40681893D01*
X126001154Y-40681886D01*
X126051396Y-40547179D01*
X126051398Y-40547172D01*
X126057799Y-40487644D01*
X126057800Y-40487627D01*
X126057800Y-40473320D01*
X126077485Y-40406281D01*
X126130289Y-40360526D01*
X126199447Y-40350582D01*
X126263003Y-40379607D01*
X126273025Y-40389332D01*
X126433168Y-40563295D01*
X126621531Y-40709903D01*
X126831455Y-40823509D01*
X127057216Y-40901012D01*
X127292653Y-40940300D01*
X127292654Y-40940300D01*
X127531346Y-40940300D01*
X127531347Y-40940300D01*
X127766784Y-40901012D01*
X127992545Y-40823509D01*
X128202469Y-40709903D01*
X128390832Y-40563295D01*
X128552494Y-40387682D01*
X128683047Y-40187856D01*
X128695444Y-40159594D01*
X128740400Y-40106108D01*
X128807136Y-40085418D01*
X128874464Y-40104092D01*
X128921007Y-40156202D01*
X128922556Y-40159594D01*
X128933861Y-40185368D01*
X128934953Y-40187856D01*
X129065506Y-40387682D01*
X129227168Y-40563295D01*
X129415531Y-40709903D01*
X129625455Y-40823509D01*
X129851216Y-40901012D01*
X130086653Y-40940300D01*
X130180018Y-40940300D01*
X130247057Y-40959985D01*
X130267699Y-40976619D01*
X130475899Y-41184819D01*
X130509384Y-41246142D01*
X130504400Y-41315834D01*
X130462528Y-41371767D01*
X130397064Y-41396184D01*
X130388218Y-41396500D01*
X98256782Y-41396500D01*
X98189743Y-41376815D01*
X98169101Y-41360181D01*
X98127872Y-41318952D01*
X98094387Y-41257629D01*
X98099371Y-41187937D01*
X98141243Y-41132004D01*
X98195143Y-41108962D01*
X98196483Y-41108738D01*
X98242784Y-41101012D01*
X98468545Y-41023509D01*
X98678469Y-40909903D01*
X98866832Y-40763295D01*
X99028494Y-40587682D01*
X99159047Y-40387856D01*
X99254929Y-40169267D01*
X99313525Y-39937878D01*
X99313584Y-39937172D01*
X99333236Y-39700005D01*
X99333236Y-39699994D01*
X99313526Y-39462130D01*
X99313524Y-39462118D01*
X99254929Y-39230732D01*
X99159048Y-39012147D01*
X99159047Y-39012145D01*
X99159047Y-39012144D01*
X99028494Y-38812318D01*
X98866832Y-38636705D01*
X98678469Y-38490097D01*
X98573988Y-38433554D01*
X98524399Y-38384335D01*
X98509291Y-38316118D01*
X98533462Y-38250563D01*
X98589238Y-38208482D01*
X98633007Y-38200500D01*
X123100119Y-38200500D01*
X123167158Y-38220185D01*
G37*
%TD.AperFunction*%
%TA.AperFunction,Conductor*%
G36*
X138442539Y-31720185D02*
G01*
X138488294Y-31772989D01*
X138499500Y-31824500D01*
X138499500Y-96175500D01*
X138479815Y-96242539D01*
X138427011Y-96288294D01*
X138375500Y-96299500D01*
X53124500Y-96299500D01*
X53057461Y-96279815D01*
X53011706Y-96227011D01*
X53000500Y-96175500D01*
X53000500Y-89952155D01*
X74232323Y-89952155D01*
X74232323Y-90750000D01*
X75299311Y-90750000D01*
X75266398Y-90807007D01*
X75232323Y-90934174D01*
X75232323Y-91065826D01*
X75266398Y-91192993D01*
X75299311Y-91250000D01*
X74232323Y-91250000D01*
X74232323Y-92047844D01*
X74238724Y-92107372D01*
X74238726Y-92107379D01*
X74288968Y-92242086D01*
X74288972Y-92242093D01*
X74375132Y-92357187D01*
X74375135Y-92357190D01*
X74490229Y-92443350D01*
X74490236Y-92443354D01*
X74624943Y-92493596D01*
X74624950Y-92493598D01*
X74684478Y-92499999D01*
X74684495Y-92500000D01*
X75482323Y-92500000D01*
X75482323Y-91433012D01*
X75539330Y-91465925D01*
X75666497Y-91500000D01*
X75798149Y-91500000D01*
X75925316Y-91465925D01*
X75982323Y-91433012D01*
X75982323Y-92500000D01*
X76780151Y-92500000D01*
X76780167Y-92499999D01*
X76839695Y-92493598D01*
X76839702Y-92493596D01*
X76974409Y-92443354D01*
X76974416Y-92443350D01*
X77089510Y-92357190D01*
X77089513Y-92357187D01*
X77175673Y-92242093D01*
X77175677Y-92242086D01*
X77225919Y-92107379D01*
X77225921Y-92107372D01*
X77232322Y-92047844D01*
X77232323Y-92047827D01*
X77232323Y-91250000D01*
X76165335Y-91250000D01*
X76198248Y-91192993D01*
X76232323Y-91065826D01*
X76232323Y-90999994D01*
X79226680Y-90999994D01*
X79226680Y-91000005D01*
X79247213Y-91247812D01*
X79247215Y-91247824D01*
X79308259Y-91488881D01*
X79408149Y-91716606D01*
X79544156Y-91924782D01*
X79544159Y-91924785D01*
X79712579Y-92107738D01*
X79908814Y-92260474D01*
X79908816Y-92260475D01*
X80062779Y-92343796D01*
X80127513Y-92378828D01*
X80362709Y-92459571D01*
X80607988Y-92500500D01*
X80856658Y-92500500D01*
X81101937Y-92459571D01*
X81337133Y-92378828D01*
X81555832Y-92260474D01*
X81752067Y-92107738D01*
X81920487Y-91924785D01*
X82056496Y-91716607D01*
X82156386Y-91488881D01*
X82217431Y-91247821D01*
X82222702Y-91184209D01*
X82237966Y-91000005D01*
X82237966Y-90999994D01*
X82217432Y-90752187D01*
X82217430Y-90752175D01*
X82156386Y-90511118D01*
X82056496Y-90283393D01*
X81920489Y-90075217D01*
X81837971Y-89985579D01*
X81752067Y-89892262D01*
X81700512Y-89852135D01*
X85231823Y-89852135D01*
X85231823Y-91947870D01*
X85231824Y-91947876D01*
X85238231Y-92007483D01*
X85288525Y-92142328D01*
X85288529Y-92142335D01*
X85374775Y-92257544D01*
X85374778Y-92257547D01*
X85489987Y-92343793D01*
X85489994Y-92343797D01*
X85624840Y-92394091D01*
X85624839Y-92394091D01*
X85631767Y-92394835D01*
X85684450Y-92400500D01*
X87780195Y-92400499D01*
X87839806Y-92394091D01*
X87974654Y-92343796D01*
X88089869Y-92257546D01*
X88176119Y-92142331D01*
X88226414Y-92007483D01*
X88232823Y-91947873D01*
X88232822Y-90899994D01*
X90227182Y-90899994D01*
X90227182Y-90900005D01*
X90247708Y-91147729D01*
X90247710Y-91147738D01*
X90308735Y-91388717D01*
X90408589Y-91616364D01*
X90508887Y-91769882D01*
X91249360Y-91029409D01*
X91266398Y-91092993D01*
X91332224Y-91207007D01*
X91425316Y-91300099D01*
X91539330Y-91365925D01*
X91602913Y-91382962D01*
X90862265Y-92123609D01*
X90909091Y-92160055D01*
X90909093Y-92160056D01*
X91127708Y-92278364D01*
X91127719Y-92278369D01*
X91362829Y-92359083D01*
X91608030Y-92400000D01*
X91856616Y-92400000D01*
X92101816Y-92359083D01*
X92336926Y-92278369D01*
X92336937Y-92278364D01*
X92555551Y-92160057D01*
X92555554Y-92160055D01*
X92602379Y-92123609D01*
X91861732Y-91382962D01*
X91925316Y-91365925D01*
X92039330Y-91300099D01*
X92132422Y-91207007D01*
X92198248Y-91092993D01*
X92215285Y-91029410D01*
X92955757Y-91769882D01*
X93056054Y-91616369D01*
X93155910Y-91388717D01*
X93216935Y-91147738D01*
X93216937Y-91147729D01*
X93237464Y-90900005D01*
X93237464Y-90899994D01*
X93216937Y-90652270D01*
X93216935Y-90652261D01*
X93155910Y-90411282D01*
X93056054Y-90183630D01*
X92955757Y-90030116D01*
X92215285Y-90770589D01*
X92198248Y-90707007D01*
X92132422Y-90592993D01*
X92039330Y-90499901D01*
X91925316Y-90434075D01*
X91861733Y-90417037D01*
X92602380Y-89676390D01*
X92602379Y-89676389D01*
X92555552Y-89639943D01*
X92336937Y-89521635D01*
X92336926Y-89521630D01*
X92101816Y-89440916D01*
X91856616Y-89400000D01*
X91608030Y-89400000D01*
X91362829Y-89440916D01*
X91127719Y-89521630D01*
X91127713Y-89521632D01*
X90909084Y-89639949D01*
X90862265Y-89676388D01*
X90862265Y-89676390D01*
X91602913Y-90417037D01*
X91539330Y-90434075D01*
X91425316Y-90499901D01*
X91332224Y-90592993D01*
X91266398Y-90707007D01*
X91249360Y-90770589D01*
X90508887Y-90030116D01*
X90408590Y-90183632D01*
X90308735Y-90411282D01*
X90247710Y-90652261D01*
X90247708Y-90652270D01*
X90227182Y-90899994D01*
X88232822Y-90899994D01*
X88232822Y-89852128D01*
X88226414Y-89792517D01*
X88190167Y-89695335D01*
X88176120Y-89657671D01*
X88176116Y-89657664D01*
X88089870Y-89542455D01*
X88089867Y-89542452D01*
X87974658Y-89456206D01*
X87974651Y-89456202D01*
X87839805Y-89405908D01*
X87839806Y-89405908D01*
X87780206Y-89399501D01*
X87780204Y-89399500D01*
X87780196Y-89399500D01*
X87780187Y-89399500D01*
X85684452Y-89399500D01*
X85684446Y-89399501D01*
X85624839Y-89405908D01*
X85489994Y-89456202D01*
X85489987Y-89456206D01*
X85374778Y-89542452D01*
X85374775Y-89542455D01*
X85288529Y-89657664D01*
X85288525Y-89657671D01*
X85238231Y-89792517D01*
X85231824Y-89852116D01*
X85231824Y-89852123D01*
X85231823Y-89852135D01*
X81700512Y-89852135D01*
X81555832Y-89739526D01*
X81555830Y-89739525D01*
X81555829Y-89739524D01*
X81337134Y-89621172D01*
X81337125Y-89621169D01*
X81101939Y-89540429D01*
X80856658Y-89499500D01*
X80607988Y-89499500D01*
X80362706Y-89540429D01*
X80127520Y-89621169D01*
X80127511Y-89621172D01*
X79908816Y-89739524D01*
X79764134Y-89852135D01*
X79712579Y-89892262D01*
X79712243Y-89892627D01*
X79544156Y-90075217D01*
X79408149Y-90283393D01*
X79308259Y-90511118D01*
X79247215Y-90752175D01*
X79247213Y-90752187D01*
X79226680Y-90999994D01*
X76232323Y-90999994D01*
X76232323Y-90934174D01*
X76198248Y-90807007D01*
X76165335Y-90750000D01*
X77232323Y-90750000D01*
X77232323Y-89952172D01*
X77232322Y-89952155D01*
X77225921Y-89892627D01*
X77225919Y-89892620D01*
X77175677Y-89757913D01*
X77175673Y-89757906D01*
X77089513Y-89642812D01*
X77089510Y-89642809D01*
X76974416Y-89556649D01*
X76974409Y-89556645D01*
X76839702Y-89506403D01*
X76839695Y-89506401D01*
X76780167Y-89500000D01*
X75982323Y-89500000D01*
X75982323Y-90566988D01*
X75925316Y-90534075D01*
X75798149Y-90500000D01*
X75666497Y-90500000D01*
X75539330Y-90534075D01*
X75482323Y-90566988D01*
X75482323Y-89500000D01*
X74684478Y-89500000D01*
X74624950Y-89506401D01*
X74624943Y-89506403D01*
X74490236Y-89556645D01*
X74490229Y-89556649D01*
X74375135Y-89642809D01*
X74375132Y-89642812D01*
X74288972Y-89757906D01*
X74288968Y-89757913D01*
X74238726Y-89892620D01*
X74238724Y-89892627D01*
X74232323Y-89952155D01*
X53000500Y-89952155D01*
X53000500Y-72010000D01*
X56413497Y-72010000D01*
X59425038Y-72010000D01*
X59395000Y-72161016D01*
X59395000Y-72358984D01*
X59425038Y-72510000D01*
X56413498Y-72510000D01*
X56438496Y-72699884D01*
X56438499Y-72699897D01*
X56514835Y-72984790D01*
X56514838Y-72984800D01*
X56627704Y-73257281D01*
X56627709Y-73257292D01*
X56775174Y-73512707D01*
X56775185Y-73512723D01*
X56954729Y-73746709D01*
X56954735Y-73746716D01*
X57163283Y-73955264D01*
X57163290Y-73955270D01*
X57397276Y-74134814D01*
X57397292Y-74134825D01*
X57652707Y-74282290D01*
X57652718Y-74282295D01*
X57925199Y-74395161D01*
X57925209Y-74395164D01*
X58210102Y-74471500D01*
X58210115Y-74471503D01*
X58502516Y-74509998D01*
X58502534Y-74510000D01*
X60150000Y-74510000D01*
X60150000Y-73234961D01*
X60301016Y-73265000D01*
X60498984Y-73265000D01*
X60650000Y-73234961D01*
X60650000Y-74510000D01*
X62297466Y-74510000D01*
X62297483Y-74509998D01*
X62589884Y-74471503D01*
X62589897Y-74471500D01*
X62874790Y-74395164D01*
X62874800Y-74395161D01*
X63147281Y-74282295D01*
X63147292Y-74282290D01*
X63402707Y-74134825D01*
X63402723Y-74134814D01*
X63636709Y-73955270D01*
X63636716Y-73955264D01*
X63845264Y-73746716D01*
X63845270Y-73746709D01*
X64024814Y-73512723D01*
X64024825Y-73512707D01*
X64172290Y-73257292D01*
X64172295Y-73257281D01*
X64285161Y-72984800D01*
X64285164Y-72984790D01*
X64361500Y-72699897D01*
X64361503Y-72699884D01*
X64386502Y-72510000D01*
X61374962Y-72510000D01*
X61405000Y-72358984D01*
X61405000Y-72161016D01*
X61374962Y-72010000D01*
X64386502Y-72010000D01*
X64361503Y-71820115D01*
X64361500Y-71820102D01*
X64285164Y-71535209D01*
X64285161Y-71535199D01*
X64172295Y-71262718D01*
X64172290Y-71262707D01*
X64024825Y-71007292D01*
X64024814Y-71007276D01*
X63845270Y-70773290D01*
X63845264Y-70773283D01*
X63636716Y-70564735D01*
X63636709Y-70564729D01*
X63402723Y-70385185D01*
X63402707Y-70385174D01*
X63147292Y-70237709D01*
X63147281Y-70237704D01*
X62874800Y-70124838D01*
X62874790Y-70124835D01*
X62589897Y-70048499D01*
X62589884Y-70048496D01*
X62297483Y-70010001D01*
X62297466Y-70010000D01*
X60650000Y-70010000D01*
X60650000Y-71285038D01*
X60498984Y-71255000D01*
X60301016Y-71255000D01*
X60150000Y-71285038D01*
X60150000Y-70010000D01*
X58502534Y-70010000D01*
X58502516Y-70010001D01*
X58210115Y-70048496D01*
X58210102Y-70048499D01*
X57925209Y-70124835D01*
X57925199Y-70124838D01*
X57652718Y-70237704D01*
X57652707Y-70237709D01*
X57397292Y-70385174D01*
X57397276Y-70385185D01*
X57163290Y-70564729D01*
X57163283Y-70564735D01*
X56954735Y-70773283D01*
X56954729Y-70773290D01*
X56775185Y-71007276D01*
X56775174Y-71007292D01*
X56627709Y-71262707D01*
X56627704Y-71262718D01*
X56514838Y-71535199D01*
X56514835Y-71535209D01*
X56438499Y-71820102D01*
X56438496Y-71820115D01*
X56413497Y-72010000D01*
X53000500Y-72010000D01*
X53000500Y-67077648D01*
X63729500Y-67077648D01*
X63729500Y-67282351D01*
X63761522Y-67484534D01*
X63824781Y-67679223D01*
X63917715Y-67861613D01*
X64038028Y-68027213D01*
X64182786Y-68171971D01*
X64337749Y-68284556D01*
X64348390Y-68292287D01*
X64420424Y-68328990D01*
X64441629Y-68339795D01*
X64492425Y-68387770D01*
X64509220Y-68455591D01*
X64486682Y-68521726D01*
X64441629Y-68560765D01*
X64348650Y-68608140D01*
X64183105Y-68728417D01*
X64183104Y-68728417D01*
X64038417Y-68873104D01*
X64038417Y-68873105D01*
X63918140Y-69038650D01*
X63825244Y-69220970D01*
X63762009Y-69415586D01*
X63753391Y-69470000D01*
X65110496Y-69470000D01*
X65065326Y-69548236D01*
X65035000Y-69661415D01*
X65035000Y-69778585D01*
X65065326Y-69891764D01*
X65110496Y-69970000D01*
X63753391Y-69970000D01*
X63762009Y-70024413D01*
X63825244Y-70219029D01*
X63918140Y-70401349D01*
X64038417Y-70566894D01*
X64038417Y-70566895D01*
X64183104Y-70711582D01*
X64348650Y-70831859D01*
X64530968Y-70924755D01*
X64725582Y-70987990D01*
X64927683Y-71020000D01*
X65230000Y-71020000D01*
X65230000Y-70089504D01*
X65308236Y-70134674D01*
X65421415Y-70165000D01*
X65538585Y-70165000D01*
X65651764Y-70134674D01*
X65730000Y-70089504D01*
X65730000Y-71020000D01*
X66032317Y-71020000D01*
X66234417Y-70987990D01*
X66429031Y-70924755D01*
X66611349Y-70831859D01*
X66776894Y-70711582D01*
X66776895Y-70711582D01*
X66921582Y-70566895D01*
X66921582Y-70566894D01*
X67041859Y-70401349D01*
X67134755Y-70219029D01*
X67197990Y-70024413D01*
X67206609Y-69970000D01*
X65849504Y-69970000D01*
X65894674Y-69891764D01*
X65925000Y-69778585D01*
X65925000Y-69661415D01*
X65894674Y-69548236D01*
X65849504Y-69470000D01*
X67206609Y-69470000D01*
X67197990Y-69415586D01*
X67134755Y-69220970D01*
X67041859Y-69038650D01*
X66921582Y-68873105D01*
X66921582Y-68873104D01*
X66776895Y-68728417D01*
X66611349Y-68608140D01*
X66518370Y-68560765D01*
X66467574Y-68512790D01*
X66450779Y-68444969D01*
X66473316Y-68378835D01*
X66518370Y-68339795D01*
X66611610Y-68292287D01*
X66632770Y-68276913D01*
X66777213Y-68171971D01*
X66777215Y-68171968D01*
X66777219Y-68171966D01*
X66921966Y-68027219D01*
X66921968Y-68027215D01*
X66921971Y-68027213D01*
X66974732Y-67954590D01*
X67042287Y-67861610D01*
X67135220Y-67679219D01*
X67198477Y-67484534D01*
X67230500Y-67282352D01*
X67230500Y-67077648D01*
X67198477Y-66875466D01*
X67135220Y-66680781D01*
X67135218Y-66680778D01*
X67135218Y-66680776D01*
X67101503Y-66614607D01*
X67042287Y-66498390D01*
X67034556Y-66487749D01*
X66921971Y-66332786D01*
X66777213Y-66188028D01*
X66611613Y-66067715D01*
X66611612Y-66067714D01*
X66611610Y-66067713D01*
X66529962Y-66026111D01*
X66429223Y-65974781D01*
X66234534Y-65911522D01*
X66059995Y-65883878D01*
X66032352Y-65879500D01*
X64927648Y-65879500D01*
X64903329Y-65883351D01*
X64725465Y-65911522D01*
X64530776Y-65974781D01*
X64348386Y-66067715D01*
X64182786Y-66188028D01*
X64038028Y-66332786D01*
X63917715Y-66498386D01*
X63824781Y-66680776D01*
X63761522Y-66875465D01*
X63729500Y-67077648D01*
X53000500Y-67077648D01*
X53000500Y-61850000D01*
X56413497Y-61850000D01*
X59425038Y-61850000D01*
X59395000Y-62001016D01*
X59395000Y-62198984D01*
X59425038Y-62350000D01*
X56413498Y-62350000D01*
X56438496Y-62539884D01*
X56438499Y-62539897D01*
X56514835Y-62824790D01*
X56514838Y-62824800D01*
X56627704Y-63097281D01*
X56627709Y-63097292D01*
X56775174Y-63352707D01*
X56775185Y-63352723D01*
X56954729Y-63586709D01*
X56954735Y-63586716D01*
X57163283Y-63795264D01*
X57163290Y-63795270D01*
X57397276Y-63974814D01*
X57397292Y-63974825D01*
X57652707Y-64122290D01*
X57652718Y-64122295D01*
X57925199Y-64235161D01*
X57925209Y-64235164D01*
X58210102Y-64311500D01*
X58210115Y-64311503D01*
X58502516Y-64349998D01*
X58502534Y-64350000D01*
X60150000Y-64350000D01*
X60150000Y-63074961D01*
X60301016Y-63105000D01*
X60498984Y-63105000D01*
X60650000Y-63074961D01*
X60650000Y-64350000D01*
X62297466Y-64350000D01*
X62297483Y-64349998D01*
X62589884Y-64311503D01*
X62589897Y-64311500D01*
X62874790Y-64235164D01*
X62874800Y-64235161D01*
X63147281Y-64122295D01*
X63147292Y-64122290D01*
X63402707Y-63974825D01*
X63402723Y-63974814D01*
X63636709Y-63795270D01*
X63636716Y-63795264D01*
X63845264Y-63586716D01*
X63845270Y-63586709D01*
X64024814Y-63352723D01*
X64024825Y-63352707D01*
X64172290Y-63097292D01*
X64172295Y-63097281D01*
X64285161Y-62824800D01*
X64285164Y-62824790D01*
X64361500Y-62539897D01*
X64361503Y-62539884D01*
X64386502Y-62350000D01*
X61374962Y-62350000D01*
X61405000Y-62198984D01*
X61405000Y-62001016D01*
X61374962Y-61850000D01*
X64386502Y-61850000D01*
X64361503Y-61660115D01*
X64361500Y-61660102D01*
X64285164Y-61375209D01*
X64285161Y-61375199D01*
X64172295Y-61102718D01*
X64172290Y-61102707D01*
X64024825Y-60847292D01*
X64024814Y-60847276D01*
X63845270Y-60613290D01*
X63845264Y-60613283D01*
X63636716Y-60404735D01*
X63636709Y-60404729D01*
X63402723Y-60225185D01*
X63402707Y-60225174D01*
X63147292Y-60077709D01*
X63147281Y-60077704D01*
X62874800Y-59964838D01*
X62874790Y-59964835D01*
X62589897Y-59888499D01*
X62589884Y-59888496D01*
X62297483Y-59850001D01*
X62297466Y-59850000D01*
X60650000Y-59850000D01*
X60650000Y-61125038D01*
X60498984Y-61095000D01*
X60301016Y-61095000D01*
X60150000Y-61125038D01*
X60150000Y-59850000D01*
X58502534Y-59850000D01*
X58502516Y-59850001D01*
X58210115Y-59888496D01*
X58210102Y-59888499D01*
X57925209Y-59964835D01*
X57925199Y-59964838D01*
X57652718Y-60077704D01*
X57652707Y-60077709D01*
X57397292Y-60225174D01*
X57397276Y-60225185D01*
X57163290Y-60404729D01*
X57163283Y-60404735D01*
X56954735Y-60613283D01*
X56954729Y-60613290D01*
X56775185Y-60847276D01*
X56775174Y-60847292D01*
X56627709Y-61102707D01*
X56627704Y-61102718D01*
X56514838Y-61375199D01*
X56514835Y-61375209D01*
X56438499Y-61660102D01*
X56438496Y-61660115D01*
X56413497Y-61850000D01*
X53000500Y-61850000D01*
X53000500Y-42299996D01*
X66294435Y-42299996D01*
X66294435Y-42300003D01*
X66314630Y-42479249D01*
X66314631Y-42479254D01*
X66374211Y-42649523D01*
X66470184Y-42802262D01*
X66597738Y-42929816D01*
X66750478Y-43025789D01*
X66776179Y-43034782D01*
X66920745Y-43085368D01*
X66920750Y-43085369D01*
X67099996Y-43105565D01*
X67100000Y-43105565D01*
X67100004Y-43105565D01*
X67279249Y-43085369D01*
X67279252Y-43085368D01*
X67279255Y-43085368D01*
X67449522Y-43025789D01*
X67602262Y-42929816D01*
X67602267Y-42929810D01*
X67605097Y-42927555D01*
X67607275Y-42926665D01*
X67608158Y-42926111D01*
X67608255Y-42926265D01*
X67669783Y-42901145D01*
X67682412Y-42900500D01*
X71913331Y-42900500D01*
X71913347Y-42900501D01*
X71920943Y-42900501D01*
X72079054Y-42900501D01*
X72079057Y-42900501D01*
X72231785Y-42859577D01*
X72281904Y-42830639D01*
X72368716Y-42780520D01*
X72480520Y-42668716D01*
X72480520Y-42668714D01*
X72490728Y-42658507D01*
X72490730Y-42658504D01*
X74918535Y-40230698D01*
X74979856Y-40197215D01*
X74992311Y-40195163D01*
X75079255Y-40185368D01*
X75249522Y-40125789D01*
X75402262Y-40029816D01*
X75529816Y-39902262D01*
X75625789Y-39749522D01*
X75685368Y-39579255D01*
X75685369Y-39579249D01*
X75705565Y-39400003D01*
X75705565Y-39399999D01*
X75704840Y-39393570D01*
X75701408Y-39363108D01*
X75713462Y-39294288D01*
X75760810Y-39242908D01*
X75828420Y-39225283D01*
X75894826Y-39247008D01*
X75912309Y-39261544D01*
X83763181Y-47112416D01*
X83796666Y-47173739D01*
X83799500Y-47200097D01*
X83799500Y-51417587D01*
X83779815Y-51484626D01*
X83772450Y-51494896D01*
X83770186Y-51497734D01*
X83674210Y-51650478D01*
X83614630Y-51820750D01*
X83604837Y-51907666D01*
X83577770Y-51972080D01*
X83569300Y-51981462D01*
X83519480Y-52031283D01*
X83503556Y-52058865D01*
X83491898Y-52079058D01*
X83440423Y-52168215D01*
X83399499Y-52320943D01*
X83399499Y-52320945D01*
X83399499Y-52489046D01*
X83399500Y-52489059D01*
X83399500Y-59151928D01*
X83379815Y-59218967D01*
X83327011Y-59264722D01*
X83257853Y-59274666D01*
X83234546Y-59268970D01*
X83079249Y-59214630D01*
X82992330Y-59204837D01*
X82927916Y-59177770D01*
X82918533Y-59169298D01*
X77936819Y-54187584D01*
X77903334Y-54126261D01*
X77900500Y-54099903D01*
X77900500Y-47382412D01*
X77920185Y-47315373D01*
X77927555Y-47305097D01*
X77929810Y-47302267D01*
X77929816Y-47302262D01*
X78025789Y-47149522D01*
X78043119Y-47099996D01*
X80494435Y-47099996D01*
X80494435Y-47100000D01*
X80514630Y-47279249D01*
X80514631Y-47279254D01*
X80574211Y-47449523D01*
X80670184Y-47602262D01*
X80797738Y-47729816D01*
X80941474Y-47820131D01*
X80987763Y-47872463D01*
X80999500Y-47925123D01*
X80999500Y-48821138D01*
X80979815Y-48888177D01*
X80939581Y-48925637D01*
X80939769Y-48925888D01*
X80937441Y-48927630D01*
X80934932Y-48929967D01*
X80932670Y-48931202D01*
X80817455Y-49017452D01*
X80817452Y-49017455D01*
X80731206Y-49132664D01*
X80731202Y-49132671D01*
X80680908Y-49267517D01*
X80674501Y-49327116D01*
X80674501Y-49327123D01*
X80674500Y-49327135D01*
X80674500Y-50272870D01*
X80674501Y-50272876D01*
X80680908Y-50332483D01*
X80731202Y-50467328D01*
X80731206Y-50467335D01*
X80817452Y-50582544D01*
X80817455Y-50582547D01*
X80932664Y-50668793D01*
X80932671Y-50668797D01*
X81067517Y-50719091D01*
X81067516Y-50719091D01*
X81074444Y-50719835D01*
X81127127Y-50725500D01*
X82072872Y-50725499D01*
X82132483Y-50719091D01*
X82267331Y-50668796D01*
X82382546Y-50582546D01*
X82468796Y-50467331D01*
X82519091Y-50332483D01*
X82525500Y-50272873D01*
X82525499Y-49327128D01*
X82519091Y-49267517D01*
X82468796Y-49132669D01*
X82468795Y-49132668D01*
X82468793Y-49132664D01*
X82382547Y-49017455D01*
X82382544Y-49017452D01*
X82267329Y-48931202D01*
X82265068Y-48929967D01*
X82263246Y-48928145D01*
X82260231Y-48925888D01*
X82260555Y-48925454D01*
X82215665Y-48880559D01*
X82200500Y-48821138D01*
X82200500Y-47320945D01*
X82200500Y-47320943D01*
X82159577Y-47168216D01*
X82159577Y-47168215D01*
X82159577Y-47168214D01*
X82120193Y-47100000D01*
X82114953Y-47090924D01*
X82099121Y-47042809D01*
X82085369Y-46920749D01*
X82085368Y-46920745D01*
X82050446Y-46820943D01*
X82025789Y-46750478D01*
X81929816Y-46597738D01*
X81802262Y-46470184D01*
X81770897Y-46450476D01*
X81649523Y-46374211D01*
X81479254Y-46314631D01*
X81479249Y-46314630D01*
X81300004Y-46294435D01*
X81299996Y-46294435D01*
X81120750Y-46314630D01*
X81120745Y-46314631D01*
X80950476Y-46374211D01*
X80797737Y-46470184D01*
X80670184Y-46597737D01*
X80574211Y-46750476D01*
X80514631Y-46920745D01*
X80514630Y-46920750D01*
X80494435Y-47099996D01*
X78043119Y-47099996D01*
X78085368Y-46979255D01*
X78091960Y-46920749D01*
X78105565Y-46800003D01*
X78105565Y-46799996D01*
X78085369Y-46620750D01*
X78085368Y-46620745D01*
X78025789Y-46450478D01*
X78006310Y-46419478D01*
X77940431Y-46314632D01*
X77929816Y-46297738D01*
X77802262Y-46170184D01*
X77649523Y-46074211D01*
X77479254Y-46014631D01*
X77479249Y-46014630D01*
X77300004Y-45994435D01*
X77299996Y-45994435D01*
X77120750Y-46014630D01*
X77120745Y-46014631D01*
X76950476Y-46074211D01*
X76797737Y-46170184D01*
X76670184Y-46297737D01*
X76574211Y-46450476D01*
X76514631Y-46620745D01*
X76514630Y-46620750D01*
X76494435Y-46799996D01*
X76494435Y-46800003D01*
X76514630Y-46979249D01*
X76514631Y-46979254D01*
X76574211Y-47149523D01*
X76670185Y-47302263D01*
X76672445Y-47305097D01*
X76673334Y-47307275D01*
X76673889Y-47308158D01*
X76673734Y-47308255D01*
X76698855Y-47369783D01*
X76699500Y-47382412D01*
X76699500Y-54313330D01*
X76699499Y-54313348D01*
X76699499Y-54479054D01*
X76699498Y-54479054D01*
X76740423Y-54631785D01*
X76769358Y-54681900D01*
X76769359Y-54681904D01*
X76769360Y-54681904D01*
X76819479Y-54768714D01*
X76819481Y-54768717D01*
X76938349Y-54887585D01*
X76938355Y-54887590D01*
X82069298Y-60018533D01*
X82102783Y-60079856D01*
X82104837Y-60092330D01*
X82114630Y-60179249D01*
X82174210Y-60349521D01*
X82270184Y-60502262D01*
X82397738Y-60629816D01*
X82550478Y-60725789D01*
X82720739Y-60785366D01*
X82720745Y-60785368D01*
X82720750Y-60785369D01*
X82899996Y-60805565D01*
X82900000Y-60805565D01*
X82900004Y-60805565D01*
X83079249Y-60785369D01*
X83079251Y-60785368D01*
X83079255Y-60785368D01*
X83079258Y-60785366D01*
X83079262Y-60785366D01*
X83234545Y-60731030D01*
X83304324Y-60727468D01*
X83364951Y-60762196D01*
X83397179Y-60824190D01*
X83399500Y-60848071D01*
X83399500Y-69899903D01*
X83379815Y-69966942D01*
X83363181Y-69987584D01*
X77587584Y-75763181D01*
X77526261Y-75796666D01*
X77499903Y-75799500D01*
X77356822Y-75799500D01*
X77289783Y-75779815D01*
X77244028Y-75727011D01*
X77232822Y-75675500D01*
X77232822Y-75352129D01*
X77232821Y-75352123D01*
X77232820Y-75352116D01*
X77226414Y-75292517D01*
X77176207Y-75157906D01*
X77176120Y-75157671D01*
X77176116Y-75157664D01*
X77089870Y-75042455D01*
X77089867Y-75042452D01*
X76974658Y-74956206D01*
X76974651Y-74956202D01*
X76839805Y-74905908D01*
X76839806Y-74905908D01*
X76780206Y-74899501D01*
X76780204Y-74899500D01*
X76780196Y-74899500D01*
X76780187Y-74899500D01*
X74684452Y-74899500D01*
X74684446Y-74899501D01*
X74624839Y-74905908D01*
X74489994Y-74956202D01*
X74489987Y-74956206D01*
X74374778Y-75042452D01*
X74374775Y-75042455D01*
X74288529Y-75157664D01*
X74288525Y-75157671D01*
X74238231Y-75292517D01*
X74231824Y-75352116D01*
X74231824Y-75352123D01*
X74231823Y-75352135D01*
X74231823Y-77447870D01*
X74231824Y-77447876D01*
X74238231Y-77507483D01*
X74288525Y-77642328D01*
X74288529Y-77642335D01*
X74374775Y-77757544D01*
X74374778Y-77757547D01*
X74489987Y-77843793D01*
X74489994Y-77843797D01*
X74624840Y-77894091D01*
X74624839Y-77894091D01*
X74631767Y-77894835D01*
X74684450Y-77900500D01*
X76780195Y-77900499D01*
X76839806Y-77894091D01*
X76974654Y-77843796D01*
X77089869Y-77757546D01*
X77176119Y-77642331D01*
X77226414Y-77507483D01*
X77232823Y-77447873D01*
X77232823Y-77124500D01*
X77252508Y-77057461D01*
X77305312Y-77011706D01*
X77356823Y-77000500D01*
X77713331Y-77000500D01*
X77713347Y-77000501D01*
X77720943Y-77000501D01*
X77879054Y-77000501D01*
X77879057Y-77000501D01*
X78031785Y-76959577D01*
X78081904Y-76930639D01*
X78168716Y-76880520D01*
X78280520Y-76768716D01*
X78280520Y-76768714D01*
X78290728Y-76758507D01*
X78290730Y-76758504D01*
X79048211Y-76001022D01*
X79109532Y-75967539D01*
X79179224Y-75972523D01*
X79235157Y-76014395D01*
X79259574Y-76079859D01*
X79256096Y-76119145D01*
X79247710Y-76152257D01*
X79247708Y-76152270D01*
X79227182Y-76399994D01*
X79227182Y-76400005D01*
X79247708Y-76647729D01*
X79247710Y-76647738D01*
X79308735Y-76888717D01*
X79408589Y-77116364D01*
X79508887Y-77269882D01*
X80249360Y-76529408D01*
X80266398Y-76592993D01*
X80332224Y-76707007D01*
X80425316Y-76800099D01*
X80539330Y-76865925D01*
X80602913Y-76882962D01*
X79862265Y-77623609D01*
X79909091Y-77660055D01*
X79909093Y-77660056D01*
X80127708Y-77778364D01*
X80127719Y-77778369D01*
X80362829Y-77859083D01*
X80608030Y-77900000D01*
X80856616Y-77900000D01*
X81101816Y-77859083D01*
X81336926Y-77778369D01*
X81336937Y-77778364D01*
X81555551Y-77660057D01*
X81555554Y-77660055D01*
X81602379Y-77623609D01*
X80861732Y-76882962D01*
X80925316Y-76865925D01*
X81039330Y-76800099D01*
X81132422Y-76707007D01*
X81198248Y-76592993D01*
X81215285Y-76529410D01*
X81955757Y-77269882D01*
X82056054Y-77116369D01*
X82155910Y-76888717D01*
X82216935Y-76647738D01*
X82216937Y-76647729D01*
X82237464Y-76400005D01*
X82237464Y-76399994D01*
X82216937Y-76152270D01*
X82216935Y-76152261D01*
X82155910Y-75911282D01*
X82056054Y-75683630D01*
X81955757Y-75530116D01*
X81215285Y-76270589D01*
X81198248Y-76207007D01*
X81132422Y-76092993D01*
X81039330Y-75999901D01*
X80925316Y-75934075D01*
X80861731Y-75917037D01*
X81426614Y-75352155D01*
X85332323Y-75352155D01*
X85332323Y-76150000D01*
X86399311Y-76150000D01*
X86366398Y-76207007D01*
X86332323Y-76334174D01*
X86332323Y-76465826D01*
X86366398Y-76592993D01*
X86399311Y-76650000D01*
X85332323Y-76650000D01*
X85332323Y-77447844D01*
X85338724Y-77507372D01*
X85338726Y-77507379D01*
X85388968Y-77642086D01*
X85388972Y-77642093D01*
X85475132Y-77757187D01*
X85475135Y-77757190D01*
X85590229Y-77843350D01*
X85590236Y-77843354D01*
X85724943Y-77893596D01*
X85724950Y-77893598D01*
X85784478Y-77899999D01*
X85784495Y-77900000D01*
X86582323Y-77900000D01*
X86582323Y-76833012D01*
X86639330Y-76865925D01*
X86766497Y-76900000D01*
X86898149Y-76900000D01*
X87025316Y-76865925D01*
X87082323Y-76833012D01*
X87082323Y-77900000D01*
X87880151Y-77900000D01*
X87880167Y-77899999D01*
X87939695Y-77893598D01*
X87939702Y-77893596D01*
X88074409Y-77843354D01*
X88074416Y-77843350D01*
X88189510Y-77757190D01*
X88189513Y-77757187D01*
X88275673Y-77642093D01*
X88275677Y-77642086D01*
X88325919Y-77507379D01*
X88325921Y-77507372D01*
X88332322Y-77447844D01*
X88332323Y-77447827D01*
X88332323Y-76650000D01*
X87265335Y-76650000D01*
X87298248Y-76592993D01*
X87332323Y-76465826D01*
X87332323Y-76334174D01*
X87298248Y-76207007D01*
X87265335Y-76150000D01*
X88332323Y-76150000D01*
X88332323Y-75352172D01*
X88332322Y-75352155D01*
X88325921Y-75292627D01*
X88325919Y-75292620D01*
X88275677Y-75157913D01*
X88275673Y-75157906D01*
X88189513Y-75042812D01*
X88189510Y-75042809D01*
X88074416Y-74956649D01*
X88074409Y-74956645D01*
X87939702Y-74906403D01*
X87939695Y-74906401D01*
X87880167Y-74900000D01*
X87082323Y-74900000D01*
X87082323Y-75966988D01*
X87025316Y-75934075D01*
X86898149Y-75900000D01*
X86766497Y-75900000D01*
X86639330Y-75934075D01*
X86582323Y-75966988D01*
X86582323Y-74900000D01*
X85784478Y-74900000D01*
X85724950Y-74906401D01*
X85724943Y-74906403D01*
X85590236Y-74956645D01*
X85590229Y-74956649D01*
X85475135Y-75042809D01*
X85475132Y-75042812D01*
X85388972Y-75157906D01*
X85388968Y-75157913D01*
X85338726Y-75292620D01*
X85338724Y-75292627D01*
X85332323Y-75352155D01*
X81426614Y-75352155D01*
X81602380Y-75176389D01*
X81555552Y-75139943D01*
X81336937Y-75021635D01*
X81336926Y-75021630D01*
X81101816Y-74940916D01*
X80856616Y-74900000D01*
X80608029Y-74900000D01*
X80439128Y-74928184D01*
X80369763Y-74919802D01*
X80315941Y-74875249D01*
X80294751Y-74808670D01*
X80312919Y-74741204D01*
X80331030Y-74718203D01*
X84368713Y-70680521D01*
X84368716Y-70680520D01*
X84480520Y-70568716D01*
X84530639Y-70481904D01*
X84559577Y-70431785D01*
X84600204Y-70280158D01*
X84636569Y-70220499D01*
X84699416Y-70189970D01*
X84768791Y-70198265D01*
X84807660Y-70224572D01*
X90375805Y-75792717D01*
X90409290Y-75854040D01*
X90408330Y-75910838D01*
X90347215Y-76152174D01*
X90347213Y-76152187D01*
X90326680Y-76399994D01*
X90326680Y-76400005D01*
X90347213Y-76647812D01*
X90347215Y-76647824D01*
X90408259Y-76888881D01*
X90508149Y-77116606D01*
X90644156Y-77324782D01*
X90644159Y-77324785D01*
X90812579Y-77507738D01*
X91008814Y-77660474D01*
X91008816Y-77660475D01*
X91226655Y-77778364D01*
X91227513Y-77778828D01*
X91415459Y-77843350D01*
X91461287Y-77859083D01*
X91462709Y-77859571D01*
X91707988Y-77900500D01*
X91956658Y-77900500D01*
X92201937Y-77859571D01*
X92437133Y-77778828D01*
X92655832Y-77660474D01*
X92852067Y-77507738D01*
X93020487Y-77324785D01*
X93156496Y-77116607D01*
X93256386Y-76888881D01*
X93317431Y-76647821D01*
X93329003Y-76508170D01*
X93337966Y-76400005D01*
X93337966Y-76399994D01*
X93317432Y-76152187D01*
X93317430Y-76152175D01*
X93256386Y-75911118D01*
X93156496Y-75683393D01*
X93020489Y-75475217D01*
X92998880Y-75451744D01*
X92852067Y-75292262D01*
X92655832Y-75139526D01*
X92655830Y-75139525D01*
X92655829Y-75139524D01*
X92437134Y-75021172D01*
X92437125Y-75021169D01*
X92201939Y-74940429D01*
X91956658Y-74899500D01*
X91707988Y-74899500D01*
X91462705Y-74940429D01*
X91462703Y-74940429D01*
X91356716Y-74976815D01*
X91286918Y-74979965D01*
X91228773Y-74947215D01*
X85536819Y-69255261D01*
X85503334Y-69193938D01*
X85500500Y-69167580D01*
X85500500Y-60582412D01*
X85520185Y-60515373D01*
X85527555Y-60505097D01*
X85529810Y-60502267D01*
X85529816Y-60502262D01*
X85625789Y-60349522D01*
X85658458Y-60256160D01*
X85699180Y-60199383D01*
X85764133Y-60173636D01*
X85832694Y-60187092D01*
X85883097Y-60235479D01*
X85899500Y-60297114D01*
X85899500Y-66498544D01*
X85937947Y-66691828D01*
X85937950Y-66691840D01*
X85954641Y-66732135D01*
X85954643Y-66732138D01*
X86013369Y-66873917D01*
X86122860Y-67037781D01*
X86122863Y-67037785D01*
X86266537Y-67181459D01*
X86266559Y-67181479D01*
X96263181Y-77178101D01*
X96296666Y-77239424D01*
X96299500Y-77265782D01*
X96299500Y-90498544D01*
X96337947Y-90691828D01*
X96337949Y-90691836D01*
X96355379Y-90733915D01*
X96355379Y-90733916D01*
X96413364Y-90873907D01*
X96413370Y-90873918D01*
X96522859Y-91037780D01*
X96522860Y-91037781D01*
X96522861Y-91037782D01*
X96662218Y-91177139D01*
X96662219Y-91177139D01*
X96669286Y-91184206D01*
X96669285Y-91184206D01*
X96669288Y-91184208D01*
X98622860Y-93137781D01*
X98622861Y-93137782D01*
X98762218Y-93277139D01*
X98926086Y-93386632D01*
X99032745Y-93430811D01*
X99108164Y-93462051D01*
X99301454Y-93500499D01*
X99301457Y-93500500D01*
X99301459Y-93500500D01*
X107298542Y-93500500D01*
X107317870Y-93496655D01*
X107395188Y-93481275D01*
X107491836Y-93462051D01*
X107545165Y-93439961D01*
X107673914Y-93386632D01*
X107837782Y-93277139D01*
X107977139Y-93137782D01*
X107977139Y-93137780D01*
X107987347Y-93127573D01*
X107987348Y-93127570D01*
X110217139Y-90897782D01*
X110233087Y-90873914D01*
X110294312Y-90782284D01*
X110326632Y-90733915D01*
X110326631Y-90733914D01*
X110326632Y-90733914D01*
X110363487Y-90644935D01*
X110378754Y-90608080D01*
X110378754Y-90608079D01*
X110385003Y-90592993D01*
X110402051Y-90551836D01*
X110435877Y-90381783D01*
X110468262Y-90319872D01*
X110469758Y-90318348D01*
X110508242Y-90279865D01*
X110637815Y-90101522D01*
X110737895Y-89905106D01*
X110806015Y-89695451D01*
X110840500Y-89477722D01*
X110840500Y-87457278D01*
X111849500Y-87457278D01*
X111849500Y-89477721D01*
X111883985Y-89695452D01*
X111952103Y-89905103D01*
X111952104Y-89905106D01*
X111980368Y-89960575D01*
X112034854Y-90067509D01*
X112052187Y-90101525D01*
X112181752Y-90279858D01*
X112181756Y-90279863D01*
X112337636Y-90435743D01*
X112337641Y-90435747D01*
X112490008Y-90546447D01*
X112515978Y-90565315D01*
X112644375Y-90630737D01*
X112712393Y-90665395D01*
X112712396Y-90665396D01*
X112793772Y-90691836D01*
X112922049Y-90733515D01*
X113139778Y-90768000D01*
X113139779Y-90768000D01*
X113360221Y-90768000D01*
X113360222Y-90768000D01*
X113577951Y-90733515D01*
X113787606Y-90665395D01*
X113984022Y-90565315D01*
X114162365Y-90435742D01*
X114318242Y-90279865D01*
X114447815Y-90101522D01*
X114547895Y-89905106D01*
X114616015Y-89695451D01*
X114650500Y-89477722D01*
X114650500Y-87457278D01*
X115659500Y-87457278D01*
X115659500Y-89477721D01*
X115693985Y-89695452D01*
X115762103Y-89905103D01*
X115762104Y-89905106D01*
X115790368Y-89960575D01*
X115844854Y-90067509D01*
X115862187Y-90101525D01*
X115991752Y-90279858D01*
X115991756Y-90279863D01*
X116147636Y-90435743D01*
X116147641Y-90435747D01*
X116300008Y-90546447D01*
X116325978Y-90565315D01*
X116454375Y-90630737D01*
X116522393Y-90665395D01*
X116522396Y-90665396D01*
X116603772Y-90691836D01*
X116732049Y-90733515D01*
X116949778Y-90768000D01*
X116949779Y-90768000D01*
X117170221Y-90768000D01*
X117170222Y-90768000D01*
X117387951Y-90733515D01*
X117597606Y-90665395D01*
X117794022Y-90565315D01*
X117972365Y-90435742D01*
X118128242Y-90279865D01*
X118257815Y-90101522D01*
X118357895Y-89905106D01*
X118426015Y-89695451D01*
X118460500Y-89477722D01*
X118460500Y-87457278D01*
X119469500Y-87457278D01*
X119469500Y-89477721D01*
X119503985Y-89695452D01*
X119572103Y-89905103D01*
X119572104Y-89905106D01*
X119600368Y-89960575D01*
X119654854Y-90067509D01*
X119672187Y-90101525D01*
X119801752Y-90279858D01*
X119801756Y-90279863D01*
X119957636Y-90435743D01*
X119957641Y-90435747D01*
X120110008Y-90546447D01*
X120135978Y-90565315D01*
X120264375Y-90630737D01*
X120332393Y-90665395D01*
X120332396Y-90665396D01*
X120413772Y-90691836D01*
X120542049Y-90733515D01*
X120759778Y-90768000D01*
X120759779Y-90768000D01*
X120980221Y-90768000D01*
X120980222Y-90768000D01*
X121197951Y-90733515D01*
X121407606Y-90665395D01*
X121604022Y-90565315D01*
X121782365Y-90435742D01*
X121938242Y-90279865D01*
X122067815Y-90101522D01*
X122167895Y-89905106D01*
X122236015Y-89695451D01*
X122270500Y-89477722D01*
X122270500Y-87457318D01*
X123280000Y-87457318D01*
X123280000Y-88217500D01*
X124131518Y-88217500D01*
X124120889Y-88235909D01*
X124080000Y-88388509D01*
X124080000Y-88546491D01*
X124120889Y-88699091D01*
X124131518Y-88717500D01*
X123280000Y-88717500D01*
X123280000Y-89477681D01*
X123314473Y-89695335D01*
X123382567Y-89904910D01*
X123482613Y-90101260D01*
X123612142Y-90279541D01*
X123767958Y-90435357D01*
X123946239Y-90564886D01*
X124142589Y-90664932D01*
X124352163Y-90733026D01*
X124429999Y-90745354D01*
X124430000Y-90745354D01*
X124430000Y-89015982D01*
X124448409Y-89026611D01*
X124601009Y-89067500D01*
X124758991Y-89067500D01*
X124911591Y-89026611D01*
X124930000Y-89015982D01*
X124930000Y-90745354D01*
X125007834Y-90733026D01*
X125007837Y-90733026D01*
X125217410Y-90664932D01*
X125413760Y-90564886D01*
X125592041Y-90435357D01*
X125747857Y-90279541D01*
X125877386Y-90101260D01*
X125977432Y-89904910D01*
X126045526Y-89695335D01*
X126080000Y-89477681D01*
X126080000Y-89253337D01*
X127729500Y-89253337D01*
X127729500Y-89481662D01*
X127765215Y-89707160D01*
X127835770Y-89924303D01*
X127912664Y-90075215D01*
X127939421Y-90127728D01*
X128073621Y-90312437D01*
X128235063Y-90473879D01*
X128419772Y-90608079D01*
X128506484Y-90652261D01*
X128623196Y-90711729D01*
X128623198Y-90711729D01*
X128623201Y-90711731D01*
X128726682Y-90745354D01*
X128840339Y-90782284D01*
X129065838Y-90818000D01*
X129065843Y-90818000D01*
X129294162Y-90818000D01*
X129519660Y-90782284D01*
X129563621Y-90768000D01*
X129736799Y-90711731D01*
X129940228Y-90608079D01*
X130124937Y-90473879D01*
X130286379Y-90312437D01*
X130420579Y-90127728D01*
X130524231Y-89924299D01*
X130594784Y-89707160D01*
X130596657Y-89695335D01*
X130630500Y-89481662D01*
X130630500Y-89253337D01*
X130594784Y-89027839D01*
X130524229Y-88810696D01*
X130420578Y-88607271D01*
X130286379Y-88422563D01*
X130124937Y-88261121D01*
X129940228Y-88126921D01*
X129736803Y-88023270D01*
X129519660Y-87952715D01*
X129294162Y-87917000D01*
X129294157Y-87917000D01*
X129065843Y-87917000D01*
X129065838Y-87917000D01*
X128840339Y-87952715D01*
X128623196Y-88023270D01*
X128419771Y-88126921D01*
X128235061Y-88261122D01*
X128073622Y-88422561D01*
X127939421Y-88607271D01*
X127835770Y-88810696D01*
X127765215Y-89027839D01*
X127729500Y-89253337D01*
X126080000Y-89253337D01*
X126080000Y-88717500D01*
X125228482Y-88717500D01*
X125239111Y-88699091D01*
X125280000Y-88546491D01*
X125280000Y-88388509D01*
X125239111Y-88235909D01*
X125228482Y-88217500D01*
X126080000Y-88217500D01*
X126080000Y-87457318D01*
X126045526Y-87239664D01*
X125977432Y-87030089D01*
X125877386Y-86833739D01*
X125747857Y-86655458D01*
X125592041Y-86499642D01*
X125413760Y-86370113D01*
X125217410Y-86270067D01*
X125007836Y-86201973D01*
X124930000Y-86189644D01*
X124930000Y-87919017D01*
X124911591Y-87908389D01*
X124758991Y-87867500D01*
X124601009Y-87867500D01*
X124448409Y-87908389D01*
X124430000Y-87919017D01*
X124430000Y-86189644D01*
X124352164Y-86201973D01*
X124352161Y-86201973D01*
X124142589Y-86270067D01*
X123946239Y-86370113D01*
X123767958Y-86499642D01*
X123612142Y-86655458D01*
X123482613Y-86833739D01*
X123382567Y-87030089D01*
X123314473Y-87239664D01*
X123280000Y-87457318D01*
X122270500Y-87457318D01*
X122270500Y-87457278D01*
X122236015Y-87239549D01*
X122201955Y-87134721D01*
X122167896Y-87029896D01*
X122167895Y-87029893D01*
X122085149Y-86867498D01*
X122067815Y-86833478D01*
X122017848Y-86764704D01*
X121938247Y-86655141D01*
X121938243Y-86655136D01*
X121782363Y-86499256D01*
X121782358Y-86499252D01*
X121604025Y-86369687D01*
X121604024Y-86369686D01*
X121604022Y-86369685D01*
X121515908Y-86324788D01*
X121407606Y-86269604D01*
X121407603Y-86269603D01*
X121197952Y-86201485D01*
X121089086Y-86184242D01*
X120980222Y-86167000D01*
X120759778Y-86167000D01*
X120687201Y-86178495D01*
X120542047Y-86201485D01*
X120332396Y-86269603D01*
X120332393Y-86269604D01*
X120135974Y-86369687D01*
X119957641Y-86499252D01*
X119957636Y-86499256D01*
X119801756Y-86655136D01*
X119801752Y-86655141D01*
X119672187Y-86833474D01*
X119572104Y-87029893D01*
X119572103Y-87029896D01*
X119503985Y-87239547D01*
X119469500Y-87457278D01*
X118460500Y-87457278D01*
X118426015Y-87239549D01*
X118391955Y-87134721D01*
X118357896Y-87029896D01*
X118357895Y-87029893D01*
X118275149Y-86867498D01*
X118257815Y-86833478D01*
X118207848Y-86764704D01*
X118128247Y-86655141D01*
X118128243Y-86655136D01*
X117972363Y-86499256D01*
X117972358Y-86499252D01*
X117794025Y-86369687D01*
X117794024Y-86369686D01*
X117794022Y-86369685D01*
X117705908Y-86324788D01*
X117597606Y-86269604D01*
X117597603Y-86269603D01*
X117387952Y-86201485D01*
X117279086Y-86184242D01*
X117170222Y-86167000D01*
X116949778Y-86167000D01*
X116877201Y-86178495D01*
X116732047Y-86201485D01*
X116522396Y-86269603D01*
X116522393Y-86269604D01*
X116325974Y-86369687D01*
X116147641Y-86499252D01*
X116147636Y-86499256D01*
X115991756Y-86655136D01*
X115991752Y-86655141D01*
X115862187Y-86833474D01*
X115762104Y-87029893D01*
X115762103Y-87029896D01*
X115693985Y-87239547D01*
X115659500Y-87457278D01*
X114650500Y-87457278D01*
X114616015Y-87239549D01*
X114581955Y-87134721D01*
X114547896Y-87029896D01*
X114547895Y-87029893D01*
X114465149Y-86867498D01*
X114447815Y-86833478D01*
X114397848Y-86764704D01*
X114318247Y-86655141D01*
X114318243Y-86655136D01*
X114162363Y-86499256D01*
X114162358Y-86499252D01*
X113984025Y-86369687D01*
X113984024Y-86369686D01*
X113984022Y-86369685D01*
X113895908Y-86324788D01*
X113787606Y-86269604D01*
X113787603Y-86269603D01*
X113577952Y-86201485D01*
X113469086Y-86184242D01*
X113360222Y-86167000D01*
X113139778Y-86167000D01*
X113067201Y-86178495D01*
X112922047Y-86201485D01*
X112712396Y-86269603D01*
X112712393Y-86269604D01*
X112515974Y-86369687D01*
X112337641Y-86499252D01*
X112337636Y-86499256D01*
X112181756Y-86655136D01*
X112181752Y-86655141D01*
X112052187Y-86833474D01*
X111952104Y-87029893D01*
X111952103Y-87029896D01*
X111883985Y-87239547D01*
X111849500Y-87457278D01*
X110840500Y-87457278D01*
X110806015Y-87239549D01*
X110771955Y-87134721D01*
X110737896Y-87029896D01*
X110737895Y-87029893D01*
X110655149Y-86867498D01*
X110637815Y-86833478D01*
X110587848Y-86764704D01*
X110508247Y-86655141D01*
X110508243Y-86655136D01*
X110352363Y-86499256D01*
X110352358Y-86499252D01*
X110174025Y-86369687D01*
X110174024Y-86369686D01*
X110174022Y-86369685D01*
X110085908Y-86324788D01*
X109977606Y-86269604D01*
X109977603Y-86269603D01*
X109767952Y-86201485D01*
X109659086Y-86184242D01*
X109550222Y-86167000D01*
X109329778Y-86167000D01*
X109257201Y-86178495D01*
X109112047Y-86201485D01*
X108902396Y-86269603D01*
X108902393Y-86269604D01*
X108705974Y-86369687D01*
X108527641Y-86499252D01*
X108527636Y-86499256D01*
X108371756Y-86655136D01*
X108371752Y-86655141D01*
X108242187Y-86833474D01*
X108142104Y-87029893D01*
X108142103Y-87029896D01*
X108073985Y-87239547D01*
X108039500Y-87457278D01*
X108039500Y-89477721D01*
X108073985Y-89695452D01*
X108142103Y-89905103D01*
X108142104Y-89905106D01*
X108181494Y-89982411D01*
X108194390Y-90051080D01*
X108168114Y-90115821D01*
X108158690Y-90126387D01*
X106821899Y-91463181D01*
X106760576Y-91496666D01*
X106734218Y-91499500D01*
X99865783Y-91499500D01*
X99798744Y-91479815D01*
X99778102Y-91463181D01*
X98336819Y-90021898D01*
X98303334Y-89960575D01*
X98300500Y-89934217D01*
X98300500Y-89253337D01*
X99679500Y-89253337D01*
X99679500Y-89481662D01*
X99715215Y-89707160D01*
X99785770Y-89924303D01*
X99862664Y-90075215D01*
X99889421Y-90127728D01*
X100023621Y-90312437D01*
X100185063Y-90473879D01*
X100369772Y-90608079D01*
X100456484Y-90652261D01*
X100573196Y-90711729D01*
X100573198Y-90711729D01*
X100573201Y-90711731D01*
X100676682Y-90745354D01*
X100790339Y-90782284D01*
X101015838Y-90818000D01*
X101015843Y-90818000D01*
X101244162Y-90818000D01*
X101469660Y-90782284D01*
X101513621Y-90768000D01*
X101686799Y-90711731D01*
X101890228Y-90608079D01*
X102074937Y-90473879D01*
X102236379Y-90312437D01*
X102370579Y-90127728D01*
X102474231Y-89924299D01*
X102544784Y-89707160D01*
X102546657Y-89695335D01*
X102580500Y-89481662D01*
X102580500Y-89253337D01*
X102544784Y-89027839D01*
X102474229Y-88810696D01*
X102370578Y-88607271D01*
X102236379Y-88422563D01*
X102074937Y-88261121D01*
X101890228Y-88126921D01*
X101686803Y-88023270D01*
X101469660Y-87952715D01*
X101244162Y-87917000D01*
X101244157Y-87917000D01*
X101015843Y-87917000D01*
X101015838Y-87917000D01*
X100790339Y-87952715D01*
X100573196Y-88023270D01*
X100369771Y-88126921D01*
X100185061Y-88261122D01*
X100023622Y-88422561D01*
X99889421Y-88607271D01*
X99785770Y-88810696D01*
X99715215Y-89027839D01*
X99679500Y-89253337D01*
X98300500Y-89253337D01*
X98300500Y-76701456D01*
X98262052Y-76508170D01*
X98262051Y-76508169D01*
X98262051Y-76508165D01*
X98217250Y-76400005D01*
X98186635Y-76326092D01*
X98186628Y-76326079D01*
X98077139Y-76162218D01*
X98077136Y-76162214D01*
X97934686Y-76019764D01*
X97934655Y-76019735D01*
X87936819Y-66021899D01*
X87903334Y-65960576D01*
X87900500Y-65934218D01*
X87900500Y-65399996D01*
X96794435Y-65399996D01*
X96794435Y-65400003D01*
X96814630Y-65579249D01*
X96814631Y-65579254D01*
X96874211Y-65749523D01*
X96956524Y-65880522D01*
X96970184Y-65902262D01*
X97097738Y-66029816D01*
X97250478Y-66125789D01*
X97420745Y-66185368D01*
X97420750Y-66185369D01*
X97599996Y-66205565D01*
X97600000Y-66205565D01*
X97600004Y-66205565D01*
X97779249Y-66185369D01*
X97779252Y-66185368D01*
X97779255Y-66185368D01*
X97949522Y-66125789D01*
X98102262Y-66029816D01*
X98102267Y-66029810D01*
X98105097Y-66027555D01*
X98107275Y-66026665D01*
X98108158Y-66026111D01*
X98108255Y-66026265D01*
X98169783Y-66001145D01*
X98182412Y-66000500D01*
X102913331Y-66000500D01*
X102913347Y-66000501D01*
X102920943Y-66000501D01*
X103079054Y-66000501D01*
X103079057Y-66000501D01*
X103231785Y-65959577D01*
X103285651Y-65928477D01*
X103368716Y-65880520D01*
X103480520Y-65768716D01*
X103480520Y-65768714D01*
X103490724Y-65758511D01*
X103490727Y-65758506D01*
X105380520Y-63868716D01*
X105459577Y-63731784D01*
X105500501Y-63579057D01*
X105500501Y-63420942D01*
X105500501Y-63413347D01*
X105500500Y-63413329D01*
X105500500Y-61972486D01*
X127129500Y-61972486D01*
X127129500Y-62267513D01*
X127157457Y-62479856D01*
X127168007Y-62559993D01*
X127244361Y-62844951D01*
X127244364Y-62844961D01*
X127357254Y-63117500D01*
X127357258Y-63117510D01*
X127504761Y-63372993D01*
X127684352Y-63607040D01*
X127684358Y-63607047D01*
X127892952Y-63815641D01*
X127892959Y-63815647D01*
X128127006Y-63995238D01*
X128382489Y-64142741D01*
X128382490Y-64142741D01*
X128382493Y-64142743D01*
X128655048Y-64255639D01*
X128940007Y-64331993D01*
X129232494Y-64370500D01*
X129232501Y-64370500D01*
X133027499Y-64370500D01*
X133027506Y-64370500D01*
X133319993Y-64331993D01*
X133604952Y-64255639D01*
X133877507Y-64142743D01*
X134132994Y-63995238D01*
X134367042Y-63815646D01*
X134575646Y-63607042D01*
X134755238Y-63372994D01*
X134902743Y-63117507D01*
X135015639Y-62844952D01*
X135091993Y-62559993D01*
X135130500Y-62267506D01*
X135130500Y-61972494D01*
X135091993Y-61680007D01*
X135015639Y-61395048D01*
X135007421Y-61375209D01*
X134984290Y-61319365D01*
X134902743Y-61122493D01*
X134755238Y-60867006D01*
X134722384Y-60824190D01*
X134575647Y-60632959D01*
X134575641Y-60632952D01*
X134367047Y-60424358D01*
X134367040Y-60424352D01*
X134132993Y-60244761D01*
X133877510Y-60097258D01*
X133877500Y-60097254D01*
X133604961Y-59984364D01*
X133604954Y-59984362D01*
X133604952Y-59984361D01*
X133319993Y-59908007D01*
X133271113Y-59901571D01*
X133027513Y-59869500D01*
X133027506Y-59869500D01*
X129232494Y-59869500D01*
X129232486Y-59869500D01*
X128954085Y-59906153D01*
X128940007Y-59908007D01*
X128655048Y-59984361D01*
X128655038Y-59984364D01*
X128382499Y-60097254D01*
X128382489Y-60097258D01*
X128127006Y-60244761D01*
X127892959Y-60424352D01*
X127892952Y-60424358D01*
X127684358Y-60632952D01*
X127684352Y-60632959D01*
X127504761Y-60867006D01*
X127357258Y-61122489D01*
X127357254Y-61122499D01*
X127244364Y-61395038D01*
X127244361Y-61395048D01*
X127173341Y-61660102D01*
X127168008Y-61680004D01*
X127168006Y-61680015D01*
X127129500Y-61972486D01*
X105500500Y-61972486D01*
X105500500Y-59182412D01*
X105520185Y-59115373D01*
X105527555Y-59105097D01*
X105529810Y-59102267D01*
X105529816Y-59102262D01*
X105625789Y-58949522D01*
X105685368Y-58779255D01*
X105691960Y-58720750D01*
X105705565Y-58600003D01*
X105705565Y-58599996D01*
X105685369Y-58420750D01*
X105685368Y-58420745D01*
X105625789Y-58250478D01*
X105529816Y-58097738D01*
X105402262Y-57970184D01*
X105330548Y-57925123D01*
X105249523Y-57874211D01*
X105079254Y-57814631D01*
X105079249Y-57814630D01*
X104900004Y-57794435D01*
X104899996Y-57794435D01*
X104720750Y-57814630D01*
X104720745Y-57814631D01*
X104550476Y-57874211D01*
X104397737Y-57970184D01*
X104270184Y-58097737D01*
X104174211Y-58250476D01*
X104114631Y-58420745D01*
X104114630Y-58420750D01*
X104094435Y-58599996D01*
X104094435Y-58600003D01*
X104114630Y-58779249D01*
X104114631Y-58779254D01*
X104174211Y-58949523D01*
X104201111Y-58992333D01*
X104262117Y-59089424D01*
X104270185Y-59102263D01*
X104272445Y-59105097D01*
X104273334Y-59107275D01*
X104273889Y-59108158D01*
X104273734Y-59108255D01*
X104298855Y-59169783D01*
X104299500Y-59182412D01*
X104299500Y-63199902D01*
X104279815Y-63266941D01*
X104263181Y-63287583D01*
X102787584Y-64763181D01*
X102726261Y-64796666D01*
X102699903Y-64799500D01*
X98182412Y-64799500D01*
X98115373Y-64779815D01*
X98105097Y-64772445D01*
X98102263Y-64770185D01*
X98102262Y-64770184D01*
X98045496Y-64734515D01*
X97949523Y-64674211D01*
X97779254Y-64614631D01*
X97779249Y-64614630D01*
X97600004Y-64594435D01*
X97599996Y-64594435D01*
X97420750Y-64614630D01*
X97420745Y-64614631D01*
X97250476Y-64674211D01*
X97097737Y-64770184D01*
X96970184Y-64897737D01*
X96874211Y-65050476D01*
X96814631Y-65220745D01*
X96814630Y-65220750D01*
X96794435Y-65399996D01*
X87900500Y-65399996D01*
X87900500Y-58899996D01*
X90494435Y-58899996D01*
X90494435Y-58900003D01*
X90514630Y-59079249D01*
X90514631Y-59079254D01*
X90574211Y-59249523D01*
X90589724Y-59274211D01*
X90670184Y-59402262D01*
X90797738Y-59529816D01*
X90950478Y-59625789D01*
X91021041Y-59650480D01*
X91120745Y-59685368D01*
X91120750Y-59685369D01*
X91299996Y-59705565D01*
X91300000Y-59705565D01*
X91300004Y-59705565D01*
X91479249Y-59685369D01*
X91479252Y-59685368D01*
X91479255Y-59685368D01*
X91649522Y-59625789D01*
X91802262Y-59529816D01*
X91929816Y-59402262D01*
X92025789Y-59249522D01*
X92085368Y-59079255D01*
X92095161Y-58992329D01*
X92122226Y-58927918D01*
X92130690Y-58918543D01*
X93912417Y-57136819D01*
X93973740Y-57103334D01*
X94000098Y-57100500D01*
X100496967Y-57100500D01*
X100564006Y-57120185D01*
X100609761Y-57172989D01*
X100619705Y-57242147D01*
X100616743Y-57256586D01*
X100599499Y-57320943D01*
X100599499Y-57320945D01*
X100599499Y-57489046D01*
X100599500Y-57489059D01*
X100599500Y-61013330D01*
X100599499Y-61013348D01*
X100599499Y-61179054D01*
X100599498Y-61179054D01*
X100640423Y-61331785D01*
X100669358Y-61381900D01*
X100669359Y-61381904D01*
X100669360Y-61381904D01*
X100719479Y-61468714D01*
X100719481Y-61468717D01*
X100838349Y-61587585D01*
X100838355Y-61587590D01*
X101669298Y-62418533D01*
X101702783Y-62479856D01*
X101704837Y-62492330D01*
X101714630Y-62579249D01*
X101774210Y-62749521D01*
X101821505Y-62824790D01*
X101870184Y-62902262D01*
X101997738Y-63029816D01*
X102055928Y-63066379D01*
X102117392Y-63105000D01*
X102150478Y-63125789D01*
X102320745Y-63185368D01*
X102320750Y-63185369D01*
X102499996Y-63205565D01*
X102500000Y-63205565D01*
X102500004Y-63205565D01*
X102679249Y-63185369D01*
X102679252Y-63185368D01*
X102679255Y-63185368D01*
X102849522Y-63125789D01*
X103002262Y-63029816D01*
X103129816Y-62902262D01*
X103225789Y-62749522D01*
X103285368Y-62579255D01*
X103287538Y-62559995D01*
X103305565Y-62400003D01*
X103305565Y-62399996D01*
X103285369Y-62220750D01*
X103285368Y-62220745D01*
X103225788Y-62050476D01*
X103129815Y-61897737D01*
X103002262Y-61770184D01*
X102849521Y-61674210D01*
X102679249Y-61614630D01*
X102592330Y-61604837D01*
X102527916Y-61577770D01*
X102518533Y-61569298D01*
X101836819Y-60887583D01*
X101803334Y-60826260D01*
X101800500Y-60799902D01*
X101800500Y-57925123D01*
X101820185Y-57858084D01*
X101858524Y-57820132D01*
X102002262Y-57729816D01*
X102129816Y-57602262D01*
X102225789Y-57449522D01*
X102285368Y-57279255D01*
X102287922Y-57256594D01*
X102293102Y-57210617D01*
X102320168Y-57146203D01*
X102377763Y-57106648D01*
X102416322Y-57100500D01*
X105399903Y-57100500D01*
X105466942Y-57120185D01*
X105487584Y-57136819D01*
X106169298Y-57818533D01*
X106202783Y-57879856D01*
X106204837Y-57892330D01*
X106214630Y-57979249D01*
X106274210Y-58149521D01*
X106289724Y-58174211D01*
X106370184Y-58302262D01*
X106497738Y-58429816D01*
X106650478Y-58525789D01*
X106820745Y-58585368D01*
X106820750Y-58585369D01*
X106999996Y-58605565D01*
X107000000Y-58605565D01*
X107000004Y-58605565D01*
X107179249Y-58585369D01*
X107179252Y-58585368D01*
X107179255Y-58585368D01*
X107349522Y-58525789D01*
X107502262Y-58429816D01*
X107629816Y-58302262D01*
X107725789Y-58149522D01*
X107785368Y-57979255D01*
X107795162Y-57892330D01*
X107805565Y-57800003D01*
X107805565Y-57799996D01*
X107785369Y-57620750D01*
X107785368Y-57620745D01*
X107725789Y-57450478D01*
X107725188Y-57449522D01*
X107644398Y-57320945D01*
X107629816Y-57297738D01*
X107502262Y-57170184D01*
X107499128Y-57168215D01*
X107349521Y-57074210D01*
X107179249Y-57014630D01*
X107092330Y-57004837D01*
X107027916Y-56977770D01*
X107018533Y-56969298D01*
X106187590Y-56138355D01*
X106187588Y-56138352D01*
X106068717Y-56019481D01*
X106068716Y-56019480D01*
X105981904Y-55969360D01*
X105981904Y-55969359D01*
X105981900Y-55969358D01*
X105931785Y-55940423D01*
X105779057Y-55899499D01*
X105620943Y-55899499D01*
X105613347Y-55899499D01*
X105613331Y-55899500D01*
X93786670Y-55899500D01*
X93786654Y-55899499D01*
X93779058Y-55899499D01*
X93620943Y-55899499D01*
X93544579Y-55919961D01*
X93468214Y-55940423D01*
X93468209Y-55940426D01*
X93331290Y-56019475D01*
X93331282Y-56019481D01*
X91281465Y-58069298D01*
X91220142Y-58102783D01*
X91207668Y-58104837D01*
X91120750Y-58114630D01*
X90950478Y-58174210D01*
X90797737Y-58270184D01*
X90670184Y-58397737D01*
X90574211Y-58550476D01*
X90514631Y-58720745D01*
X90514630Y-58720750D01*
X90494435Y-58899996D01*
X87900500Y-58899996D01*
X87900500Y-45131940D01*
X87920185Y-45064901D01*
X87972989Y-45019146D01*
X88042147Y-45009202D01*
X88105703Y-45038227D01*
X88112181Y-45044259D01*
X88173238Y-45105316D01*
X88325978Y-45201289D01*
X88482945Y-45256214D01*
X88496245Y-45260868D01*
X88496250Y-45260869D01*
X88675496Y-45281065D01*
X88675500Y-45281065D01*
X88675504Y-45281065D01*
X88854749Y-45260869D01*
X88854752Y-45260868D01*
X88854755Y-45260868D01*
X89025022Y-45201289D01*
X89177762Y-45105316D01*
X89305316Y-44977762D01*
X89401289Y-44825022D01*
X89460868Y-44654755D01*
X89481065Y-44475500D01*
X89460868Y-44296245D01*
X89401289Y-44125978D01*
X89305316Y-43973238D01*
X89305314Y-43973236D01*
X89305313Y-43973234D01*
X89303050Y-43970396D01*
X89302159Y-43968215D01*
X89301611Y-43967342D01*
X89301764Y-43967245D01*
X89276644Y-43905709D01*
X89276000Y-43893087D01*
X89276000Y-42931045D01*
X89276000Y-42931043D01*
X89235077Y-42778316D01*
X89171800Y-42668716D01*
X89156024Y-42641390D01*
X89156021Y-42641386D01*
X89156020Y-42641384D01*
X89044216Y-42529580D01*
X89044215Y-42529579D01*
X89039885Y-42525249D01*
X89039874Y-42525239D01*
X88336819Y-41822184D01*
X88303334Y-41760861D01*
X88300500Y-41734503D01*
X88300500Y-41253220D01*
X88320185Y-41186181D01*
X88372989Y-41140426D01*
X88442147Y-41130482D01*
X88453018Y-41132544D01*
X88458711Y-41133889D01*
X88458717Y-41133891D01*
X88518327Y-41140300D01*
X90493672Y-41140299D01*
X90553283Y-41133891D01*
X90688131Y-41083596D01*
X90803346Y-40997346D01*
X90889596Y-40882131D01*
X90939891Y-40747283D01*
X90946300Y-40687673D01*
X90946299Y-40673866D01*
X90965980Y-40606830D01*
X91018781Y-40561072D01*
X91087939Y-40551124D01*
X91151496Y-40580145D01*
X91161529Y-40589880D01*
X91321168Y-40763295D01*
X91509531Y-40909903D01*
X91719455Y-41023509D01*
X91945216Y-41101012D01*
X92180653Y-41140300D01*
X92180654Y-41140300D01*
X92419346Y-41140300D01*
X92419347Y-41140300D01*
X92654784Y-41101012D01*
X92880545Y-41023509D01*
X93090469Y-40909903D01*
X93278832Y-40763295D01*
X93440494Y-40587682D01*
X93571047Y-40387856D01*
X93583445Y-40359592D01*
X93628396Y-40306109D01*
X93695132Y-40285417D01*
X93762460Y-40304090D01*
X93809005Y-40356199D01*
X93810554Y-40359592D01*
X93822949Y-40387849D01*
X93822951Y-40387852D01*
X93822953Y-40387856D01*
X93953506Y-40587682D01*
X94115168Y-40763295D01*
X94303531Y-40909903D01*
X94513455Y-41023509D01*
X94739216Y-41101012D01*
X94974653Y-41140300D01*
X95068018Y-41140300D01*
X95135057Y-41159985D01*
X95155699Y-41176619D01*
X97010735Y-43031655D01*
X97010764Y-43031686D01*
X97153214Y-43174136D01*
X97153218Y-43174139D01*
X97317079Y-43283628D01*
X97317092Y-43283635D01*
X97445833Y-43336961D01*
X97488744Y-43354735D01*
X97499164Y-43359051D01*
X97595812Y-43378275D01*
X97644135Y-43387887D01*
X97692458Y-43397500D01*
X97692459Y-43397500D01*
X97692460Y-43397500D01*
X97889540Y-43397500D01*
X132637218Y-43397500D01*
X132704257Y-43417185D01*
X132724899Y-43433819D01*
X135563181Y-46272101D01*
X135596666Y-46333424D01*
X135599500Y-46359782D01*
X135599500Y-63134217D01*
X135579815Y-63201256D01*
X135563181Y-63221898D01*
X131621899Y-67163181D01*
X131560576Y-67196666D01*
X131534218Y-67199500D01*
X128701455Y-67199500D01*
X128604812Y-67218724D01*
X128508167Y-67237947D01*
X128508161Y-67237949D01*
X128454834Y-67260037D01*
X128454834Y-67260038D01*
X128409315Y-67278892D01*
X128326089Y-67313366D01*
X128326079Y-67313371D01*
X128162219Y-67422859D01*
X128100545Y-67484534D01*
X128022861Y-67562218D01*
X128022857Y-67562222D01*
X127979602Y-67605476D01*
X127918279Y-67638961D01*
X127848587Y-67633975D01*
X127792654Y-67592103D01*
X127768238Y-67526639D01*
X127769449Y-67498396D01*
X127781413Y-67422859D01*
X127800500Y-67302352D01*
X127800500Y-67097648D01*
X127797332Y-67077648D01*
X127768477Y-66895465D01*
X127739127Y-66805137D01*
X127705220Y-66700781D01*
X127705218Y-66700778D01*
X127705218Y-66700776D01*
X127671503Y-66634607D01*
X127612287Y-66518390D01*
X127597753Y-66498386D01*
X127491971Y-66352786D01*
X127347213Y-66208028D01*
X127181614Y-66087715D01*
X127175006Y-66084348D01*
X127088917Y-66040483D01*
X127038123Y-65992511D01*
X127021328Y-65924690D01*
X127043865Y-65858555D01*
X127088917Y-65819516D01*
X127181610Y-65772287D01*
X127212944Y-65749522D01*
X127347213Y-65651971D01*
X127347215Y-65651968D01*
X127347219Y-65651966D01*
X127491966Y-65507219D01*
X127491968Y-65507215D01*
X127491971Y-65507213D01*
X127569862Y-65400003D01*
X127612287Y-65341610D01*
X127705220Y-65159219D01*
X127768477Y-64964534D01*
X127800500Y-64762352D01*
X127800500Y-64557648D01*
X127768477Y-64355466D01*
X127766700Y-64349998D01*
X127730239Y-64237782D01*
X127705220Y-64160781D01*
X127705218Y-64160778D01*
X127705218Y-64160776D01*
X127620871Y-63995238D01*
X127612287Y-63978390D01*
X127532606Y-63868717D01*
X127491971Y-63812786D01*
X127347213Y-63668028D01*
X127181613Y-63547715D01*
X127181612Y-63547714D01*
X127181610Y-63547713D01*
X127090834Y-63501460D01*
X126999223Y-63454781D01*
X126804534Y-63391522D01*
X126629995Y-63363878D01*
X126602352Y-63359500D01*
X125497648Y-63359500D01*
X125473329Y-63363351D01*
X125295465Y-63391522D01*
X125100776Y-63454781D01*
X124918386Y-63547715D01*
X124752786Y-63668028D01*
X124608028Y-63812786D01*
X124487715Y-63978386D01*
X124394781Y-64160776D01*
X124331522Y-64355465D01*
X124299500Y-64557648D01*
X124299500Y-64762352D01*
X124300741Y-64770185D01*
X124331522Y-64964534D01*
X124394781Y-65159223D01*
X124487715Y-65341613D01*
X124608028Y-65507213D01*
X124752786Y-65651971D01*
X124887056Y-65749522D01*
X124918390Y-65772287D01*
X125009840Y-65818883D01*
X125011080Y-65819515D01*
X125061876Y-65867490D01*
X125078671Y-65935311D01*
X125056134Y-66001446D01*
X125011080Y-66040485D01*
X124918386Y-66087715D01*
X124752786Y-66208028D01*
X124608028Y-66352786D01*
X124487715Y-66518386D01*
X124394781Y-66700776D01*
X124331522Y-66895465D01*
X124302668Y-67077648D01*
X124299500Y-67097648D01*
X124299500Y-67302352D01*
X124301245Y-67313368D01*
X124331522Y-67504534D01*
X124394781Y-67699223D01*
X124458691Y-67824653D01*
X124477522Y-67861610D01*
X124487715Y-67881613D01*
X124608028Y-68047213D01*
X124752786Y-68191971D01*
X124890858Y-68292284D01*
X124918390Y-68312287D01*
X125034607Y-68371503D01*
X125100776Y-68405218D01*
X125100778Y-68405218D01*
X125100781Y-68405220D01*
X125205137Y-68439127D01*
X125295465Y-68468477D01*
X125358135Y-68478403D01*
X125497648Y-68500500D01*
X125497649Y-68500500D01*
X126602351Y-68500500D01*
X126602352Y-68500500D01*
X126798397Y-68469449D01*
X126867690Y-68478403D01*
X126921142Y-68523400D01*
X126941782Y-68590151D01*
X126923057Y-68657465D01*
X126905476Y-68679603D01*
X126121899Y-69463181D01*
X126060576Y-69496666D01*
X126034218Y-69499500D01*
X121701455Y-69499500D01*
X121604812Y-69518724D01*
X121508167Y-69537947D01*
X121508161Y-69537949D01*
X121454834Y-69560037D01*
X121454834Y-69560038D01*
X121401505Y-69582127D01*
X121326087Y-69613367D01*
X121326083Y-69613369D01*
X121197239Y-69699459D01*
X121197240Y-69699460D01*
X121162215Y-69722862D01*
X121162212Y-69722865D01*
X104992220Y-85892859D01*
X104992218Y-85892861D01*
X104922538Y-85962540D01*
X104852859Y-86032219D01*
X104759141Y-86172479D01*
X104705529Y-86217284D01*
X104695046Y-86221293D01*
X104660670Y-86232684D01*
X104660663Y-86232687D01*
X104511342Y-86324789D01*
X104387289Y-86448842D01*
X104295187Y-86598163D01*
X104295186Y-86598166D01*
X104240001Y-86764703D01*
X104240001Y-86764704D01*
X104240000Y-86764704D01*
X104229500Y-86867483D01*
X104229500Y-90067501D01*
X104229501Y-90067518D01*
X104240000Y-90170296D01*
X104240001Y-90170299D01*
X104276308Y-90279865D01*
X104295186Y-90336834D01*
X104387288Y-90486156D01*
X104511344Y-90610212D01*
X104660666Y-90702314D01*
X104827203Y-90757499D01*
X104929991Y-90768000D01*
X106330008Y-90767999D01*
X106432797Y-90757499D01*
X106599334Y-90702314D01*
X106748656Y-90610212D01*
X106872712Y-90486156D01*
X106964814Y-90336834D01*
X107019999Y-90170297D01*
X107030500Y-90067509D01*
X107030499Y-86867492D01*
X107027024Y-86833478D01*
X107019519Y-86760004D01*
X107032289Y-86691312D01*
X107055193Y-86659725D01*
X122178102Y-71536819D01*
X122239425Y-71503334D01*
X122265783Y-71500500D01*
X126598542Y-71500500D01*
X126617870Y-71496655D01*
X126695188Y-71481275D01*
X126791836Y-71462051D01*
X126845165Y-71439961D01*
X126973914Y-71386632D01*
X127104431Y-71299423D01*
X127171106Y-71278546D01*
X127238486Y-71297030D01*
X127285177Y-71349009D01*
X127296353Y-71417979D01*
X127287881Y-71449978D01*
X127244366Y-71555032D01*
X127244361Y-71555048D01*
X127173341Y-71820102D01*
X127168008Y-71840004D01*
X127168006Y-71840015D01*
X127129500Y-72132486D01*
X127129500Y-72427513D01*
X127146041Y-72553148D01*
X127168007Y-72719993D01*
X127244361Y-73004951D01*
X127244364Y-73004961D01*
X127357254Y-73277500D01*
X127357258Y-73277510D01*
X127504761Y-73532993D01*
X127684352Y-73767040D01*
X127684358Y-73767047D01*
X127892952Y-73975641D01*
X127892959Y-73975647D01*
X128127006Y-74155238D01*
X128382489Y-74302741D01*
X128382490Y-74302741D01*
X128382493Y-74302743D01*
X128655048Y-74415639D01*
X128940007Y-74491993D01*
X129232494Y-74530500D01*
X129232501Y-74530500D01*
X133027499Y-74530500D01*
X133027506Y-74530500D01*
X133319993Y-74491993D01*
X133604952Y-74415639D01*
X133877507Y-74302743D01*
X134132994Y-74155238D01*
X134367042Y-73975646D01*
X134575646Y-73767042D01*
X134755238Y-73532994D01*
X134902743Y-73277507D01*
X135015639Y-73004952D01*
X135091993Y-72719993D01*
X135130500Y-72427506D01*
X135130500Y-72132494D01*
X135091993Y-71840007D01*
X135015639Y-71555048D01*
X135015632Y-71555032D01*
X134977118Y-71462050D01*
X134902743Y-71282493D01*
X134900464Y-71278546D01*
X134755238Y-71027006D01*
X134575647Y-70792959D01*
X134575641Y-70792952D01*
X134367047Y-70584358D01*
X134367040Y-70584352D01*
X134132993Y-70404761D01*
X133877510Y-70257258D01*
X133877500Y-70257254D01*
X133604961Y-70144364D01*
X133604954Y-70144362D01*
X133604952Y-70144361D01*
X133319993Y-70068007D01*
X133271113Y-70061571D01*
X133027513Y-70029500D01*
X133027506Y-70029500D01*
X129232494Y-70029500D01*
X129232486Y-70029500D01*
X128954085Y-70066153D01*
X128940007Y-70068007D01*
X128691201Y-70134674D01*
X128655048Y-70144361D01*
X128655039Y-70144364D01*
X128574618Y-70177675D01*
X128505149Y-70185143D01*
X128442670Y-70153867D01*
X128407018Y-70093778D01*
X128409513Y-70023953D01*
X128439483Y-69975436D01*
X129178101Y-69236819D01*
X129239424Y-69203334D01*
X129265782Y-69200500D01*
X132098542Y-69200500D01*
X132117870Y-69196655D01*
X132195188Y-69181275D01*
X132291836Y-69162051D01*
X132345165Y-69139961D01*
X132473914Y-69086632D01*
X132637782Y-68977139D01*
X132777139Y-68837782D01*
X132777139Y-68837780D01*
X132787347Y-68827573D01*
X132787348Y-68827570D01*
X137377139Y-64237782D01*
X137428593Y-64160776D01*
X137486631Y-64073916D01*
X137486636Y-64073906D01*
X137562049Y-63891839D01*
X137562051Y-63891835D01*
X137593888Y-63731784D01*
X137600500Y-63698541D01*
X137600500Y-63501460D01*
X137600500Y-45795459D01*
X137600500Y-45795456D01*
X137562052Y-45602170D01*
X137562051Y-45602169D01*
X137562051Y-45602165D01*
X137562049Y-45602160D01*
X137486635Y-45420092D01*
X137486628Y-45420079D01*
X137377139Y-45256218D01*
X137377136Y-45256214D01*
X137234686Y-45113764D01*
X137234655Y-45113735D01*
X133884480Y-41763560D01*
X133884460Y-41763538D01*
X133239873Y-41118951D01*
X133206388Y-41057628D01*
X133211372Y-40987936D01*
X133253244Y-40932003D01*
X133307144Y-40908961D01*
X133342497Y-40903062D01*
X133354785Y-40901012D01*
X133462953Y-40863877D01*
X133580545Y-40823509D01*
X133790469Y-40709903D01*
X133978832Y-40563295D01*
X134140494Y-40387682D01*
X134271047Y-40187856D01*
X134366929Y-39969267D01*
X134425525Y-39737878D01*
X134426527Y-39725788D01*
X134445236Y-39500005D01*
X134445236Y-39499994D01*
X134425526Y-39262130D01*
X134425524Y-39262118D01*
X134366929Y-39030732D01*
X134274822Y-38820750D01*
X134271047Y-38812144D01*
X134140494Y-38612318D01*
X133978832Y-38436705D01*
X133790469Y-38290097D01*
X133651023Y-38214632D01*
X133580546Y-38176491D01*
X133580541Y-38176489D01*
X133354786Y-38098988D01*
X133197826Y-38072796D01*
X133119347Y-38059700D01*
X132880653Y-38059700D01*
X132821793Y-38069522D01*
X132645213Y-38098988D01*
X132419458Y-38176489D01*
X132419453Y-38176491D01*
X132209529Y-38290098D01*
X132021169Y-38436704D01*
X131859506Y-38612317D01*
X131728952Y-38812145D01*
X131716556Y-38840406D01*
X131671599Y-38893891D01*
X131604863Y-38914581D01*
X131537535Y-38895906D01*
X131490992Y-38843795D01*
X131489444Y-38840406D01*
X131480822Y-38820750D01*
X131477047Y-38812144D01*
X131346494Y-38612318D01*
X131184832Y-38436705D01*
X130996469Y-38290097D01*
X130857023Y-38214632D01*
X130786546Y-38176491D01*
X130786541Y-38176489D01*
X130560786Y-38098988D01*
X130403826Y-38072796D01*
X130325347Y-38059700D01*
X130086653Y-38059700D01*
X130027793Y-38069522D01*
X129851213Y-38098988D01*
X129625458Y-38176489D01*
X129625453Y-38176491D01*
X129415529Y-38290098D01*
X129227169Y-38436704D01*
X129065506Y-38612317D01*
X128934952Y-38812145D01*
X128922556Y-38840406D01*
X128877599Y-38893891D01*
X128810863Y-38914581D01*
X128743535Y-38895906D01*
X128696992Y-38843795D01*
X128695444Y-38840406D01*
X128686822Y-38820750D01*
X128683047Y-38812144D01*
X128552494Y-38612318D01*
X128390832Y-38436705D01*
X128202469Y-38290097D01*
X128063023Y-38214632D01*
X127992546Y-38176491D01*
X127992541Y-38176489D01*
X127766786Y-38098988D01*
X127609826Y-38072796D01*
X127531347Y-38059700D01*
X127292653Y-38059700D01*
X127233793Y-38069522D01*
X127057213Y-38098988D01*
X126983774Y-38124198D01*
X126913975Y-38127346D01*
X126855833Y-38094597D01*
X125999590Y-37238355D01*
X125999588Y-37238352D01*
X125880717Y-37119481D01*
X125880716Y-37119480D01*
X125793904Y-37069360D01*
X125793904Y-37069359D01*
X125793900Y-37069358D01*
X125743785Y-37040423D01*
X125591057Y-36999499D01*
X125432943Y-36999499D01*
X125425347Y-36999499D01*
X125425331Y-36999500D01*
X97252637Y-36999500D01*
X97185598Y-36979815D01*
X97139843Y-36927011D01*
X97129899Y-36857853D01*
X97158924Y-36794297D01*
X97193617Y-36766446D01*
X97281469Y-36718903D01*
X97469832Y-36572295D01*
X97631494Y-36396682D01*
X97762047Y-36196856D01*
X97857929Y-35978267D01*
X97916525Y-35746878D01*
X97923764Y-35659520D01*
X97936236Y-35509005D01*
X97936236Y-35508994D01*
X97916526Y-35271130D01*
X97916524Y-35271118D01*
X97857929Y-35039732D01*
X97770200Y-34839732D01*
X97762047Y-34821144D01*
X97631494Y-34621318D01*
X97527621Y-34508481D01*
X97496700Y-34445828D01*
X97504560Y-34376402D01*
X97548707Y-34322247D01*
X97615125Y-34300556D01*
X97618852Y-34300500D01*
X124724308Y-34300500D01*
X124791347Y-34320185D01*
X124837102Y-34372989D01*
X124847046Y-34442147D01*
X124828117Y-34492320D01*
X124817559Y-34508482D01*
X124743951Y-34621146D01*
X124738179Y-34634308D01*
X124693224Y-34687795D01*
X124626488Y-34708486D01*
X124624622Y-34708500D01*
X118470057Y-34708500D01*
X118311943Y-34708500D01*
X118159215Y-34749423D01*
X118159214Y-34749423D01*
X118159212Y-34749424D01*
X118159209Y-34749425D01*
X118109098Y-34778358D01*
X118109095Y-34778360D01*
X118105350Y-34780521D01*
X118099103Y-34784128D01*
X118050997Y-34799955D01*
X117920750Y-34814630D01*
X117750478Y-34874210D01*
X117597737Y-34970184D01*
X117470184Y-35097737D01*
X117374211Y-35250476D01*
X117314631Y-35420745D01*
X117314630Y-35420750D01*
X117294435Y-35599996D01*
X117294435Y-35600003D01*
X117314630Y-35779249D01*
X117314631Y-35779254D01*
X117374211Y-35949523D01*
X117413423Y-36011928D01*
X117470184Y-36102262D01*
X117597738Y-36229816D01*
X117750478Y-36325789D01*
X117883385Y-36372295D01*
X117920745Y-36385368D01*
X117920750Y-36385369D01*
X118099996Y-36405565D01*
X118100000Y-36405565D01*
X118100004Y-36405565D01*
X118279249Y-36385369D01*
X118279252Y-36385368D01*
X118279255Y-36385368D01*
X118449522Y-36325789D01*
X118602262Y-36229816D01*
X118729816Y-36102262D01*
X118814475Y-35967527D01*
X118866810Y-35921237D01*
X118919469Y-35909500D01*
X124624622Y-35909500D01*
X124691661Y-35929185D01*
X124737416Y-35981989D01*
X124738179Y-35983692D01*
X124743951Y-35996853D01*
X124812818Y-36102262D01*
X124874506Y-36196682D01*
X125036168Y-36372295D01*
X125224531Y-36518903D01*
X125434455Y-36632509D01*
X125660216Y-36710012D01*
X125895653Y-36749300D01*
X125895654Y-36749300D01*
X126134346Y-36749300D01*
X126134347Y-36749300D01*
X126369784Y-36710012D01*
X126595545Y-36632509D01*
X126805469Y-36518903D01*
X126993832Y-36372295D01*
X127155494Y-36196682D01*
X127286047Y-35996856D01*
X127298444Y-35968594D01*
X127343400Y-35915108D01*
X127410136Y-35894418D01*
X127477464Y-35913092D01*
X127524007Y-35965202D01*
X127525556Y-35968594D01*
X127537953Y-35996856D01*
X127668506Y-36196682D01*
X127830168Y-36372295D01*
X128018531Y-36518903D01*
X128228455Y-36632509D01*
X128454216Y-36710012D01*
X128689653Y-36749300D01*
X128689654Y-36749300D01*
X128928346Y-36749300D01*
X128928347Y-36749300D01*
X129163784Y-36710012D01*
X129389545Y-36632509D01*
X129599469Y-36518903D01*
X129787832Y-36372295D01*
X129949494Y-36196682D01*
X130080047Y-35996856D01*
X130092444Y-35968594D01*
X130137400Y-35915108D01*
X130204136Y-35894418D01*
X130271464Y-35913092D01*
X130318007Y-35965202D01*
X130319556Y-35968594D01*
X130331953Y-35996856D01*
X130462506Y-36196682D01*
X130624168Y-36372295D01*
X130812531Y-36518903D01*
X131022455Y-36632509D01*
X131248216Y-36710012D01*
X131483653Y-36749300D01*
X131483654Y-36749300D01*
X131722346Y-36749300D01*
X131722347Y-36749300D01*
X131957784Y-36710012D01*
X132183545Y-36632509D01*
X132393469Y-36518903D01*
X132581832Y-36372295D01*
X132743494Y-36196682D01*
X132874047Y-35996856D01*
X132969929Y-35778267D01*
X133028525Y-35546878D01*
X133028526Y-35546869D01*
X133048236Y-35309005D01*
X133048236Y-35308994D01*
X133028526Y-35071130D01*
X133028524Y-35071118D01*
X132969929Y-34839732D01*
X132874123Y-34621317D01*
X132874047Y-34621144D01*
X132743494Y-34421318D01*
X132581832Y-34245705D01*
X132393469Y-34099097D01*
X132297152Y-34046972D01*
X132183546Y-33985491D01*
X132183541Y-33985489D01*
X131957786Y-33907988D01*
X131800826Y-33881796D01*
X131722347Y-33868700D01*
X131483653Y-33868700D01*
X131424793Y-33878522D01*
X131248213Y-33907988D01*
X131022458Y-33985489D01*
X131022453Y-33985491D01*
X130812529Y-34099098D01*
X130624169Y-34245704D01*
X130462506Y-34421317D01*
X130331952Y-34621145D01*
X130319556Y-34649406D01*
X130274599Y-34702891D01*
X130207863Y-34723581D01*
X130140535Y-34704906D01*
X130093992Y-34652795D01*
X130092444Y-34649406D01*
X130080123Y-34621318D01*
X130080047Y-34621144D01*
X129949494Y-34421318D01*
X129822632Y-34283509D01*
X129792246Y-34223718D01*
X129780610Y-34165219D01*
X129775678Y-34140424D01*
X129771051Y-34117164D01*
X129716510Y-33985491D01*
X129716509Y-33985489D01*
X129695635Y-33935093D01*
X129695634Y-33935092D01*
X129695632Y-33935086D01*
X129681965Y-33914632D01*
X129586139Y-33771217D01*
X129443686Y-33628764D01*
X129443655Y-33628735D01*
X128481479Y-32666559D01*
X128481459Y-32666537D01*
X128337785Y-32522863D01*
X128337781Y-32522860D01*
X128173920Y-32413371D01*
X128173911Y-32413366D01*
X128101315Y-32383296D01*
X128045165Y-32360038D01*
X127991836Y-32337949D01*
X127991832Y-32337948D01*
X127991828Y-32337946D01*
X127895188Y-32318724D01*
X127798544Y-32299500D01*
X127798541Y-32299500D01*
X95298541Y-32299500D01*
X89101459Y-32299500D01*
X89101455Y-32299500D01*
X89004812Y-32318724D01*
X88908167Y-32337947D01*
X88908161Y-32337949D01*
X88854834Y-32360037D01*
X88854834Y-32360038D01*
X88809315Y-32378892D01*
X88726089Y-32413366D01*
X88726079Y-32413371D01*
X88562219Y-32522859D01*
X88492540Y-32592538D01*
X88422861Y-32662218D01*
X88422858Y-32662221D01*
X86262221Y-34822858D01*
X86262218Y-34822861D01*
X86210869Y-34874210D01*
X86122859Y-34962219D01*
X86013371Y-35126080D01*
X86013364Y-35126093D01*
X85969826Y-35231207D01*
X85969826Y-35231208D01*
X85943142Y-35295629D01*
X85943141Y-35295632D01*
X85937948Y-35308167D01*
X85937947Y-35308171D01*
X85899500Y-35501454D01*
X85899500Y-38083677D01*
X85879815Y-38150716D01*
X85827011Y-38196471D01*
X85789384Y-38206897D01*
X85720750Y-38214630D01*
X85550478Y-38274210D01*
X85397737Y-38370184D01*
X85270184Y-38497737D01*
X85174211Y-38650476D01*
X85114631Y-38820745D01*
X85114630Y-38820750D01*
X85094435Y-38999996D01*
X85094435Y-39000003D01*
X85114630Y-39179249D01*
X85114631Y-39179254D01*
X85174211Y-39349523D01*
X85205928Y-39400000D01*
X85270184Y-39502262D01*
X85397738Y-39629816D01*
X85488080Y-39686582D01*
X85509425Y-39699994D01*
X85550478Y-39725789D01*
X85720745Y-39785368D01*
X85789384Y-39793101D01*
X85853796Y-39820166D01*
X85893352Y-39877760D01*
X85899500Y-39916321D01*
X85899500Y-59702885D01*
X85879815Y-59769924D01*
X85827011Y-59815679D01*
X85757853Y-59825623D01*
X85694297Y-59796598D01*
X85658459Y-59743840D01*
X85625790Y-59650480D01*
X85529815Y-59497737D01*
X85402262Y-59370184D01*
X85249523Y-59274211D01*
X85079254Y-59214631D01*
X85079249Y-59214630D01*
X84900004Y-59194435D01*
X84899996Y-59194435D01*
X84738383Y-59212644D01*
X84669561Y-59200589D01*
X84618182Y-59153240D01*
X84600500Y-59089424D01*
X84600500Y-52865917D01*
X84620185Y-52798878D01*
X84672989Y-52753123D01*
X84683546Y-52748875D01*
X84687553Y-52747472D01*
X84749522Y-52725789D01*
X84902262Y-52629816D01*
X85029816Y-52502262D01*
X85125789Y-52349522D01*
X85185368Y-52179255D01*
X85186612Y-52168213D01*
X85205565Y-52000003D01*
X85205565Y-51999996D01*
X85185369Y-51820750D01*
X85185368Y-51820745D01*
X85125788Y-51650476D01*
X85029813Y-51497734D01*
X85027550Y-51494896D01*
X85026659Y-51492715D01*
X85026111Y-51491842D01*
X85026264Y-51491745D01*
X85001144Y-51430209D01*
X85000500Y-51417587D01*
X85000500Y-46820943D01*
X84994754Y-46799500D01*
X84960360Y-46671139D01*
X84959577Y-46668216D01*
X84880520Y-46531284D01*
X84768716Y-46419480D01*
X84768715Y-46419479D01*
X84764385Y-46415149D01*
X84764374Y-46415139D01*
X72687590Y-34338355D01*
X72687588Y-34338352D01*
X72568717Y-34219481D01*
X72568709Y-34219475D01*
X72466936Y-34160717D01*
X72466934Y-34160716D01*
X72431790Y-34140425D01*
X72431789Y-34140424D01*
X72419263Y-34137067D01*
X72279057Y-34099499D01*
X72120943Y-34099499D01*
X72113347Y-34099499D01*
X72113331Y-34099500D01*
X70582412Y-34099500D01*
X70515373Y-34079815D01*
X70505097Y-34072445D01*
X70502263Y-34070185D01*
X70502262Y-34070184D01*
X70445496Y-34034515D01*
X70349523Y-33974211D01*
X70179254Y-33914631D01*
X70179249Y-33914630D01*
X70000004Y-33894435D01*
X69999996Y-33894435D01*
X69820750Y-33914630D01*
X69820745Y-33914631D01*
X69650476Y-33974211D01*
X69497737Y-34070184D01*
X69370184Y-34197737D01*
X69274211Y-34350476D01*
X69214631Y-34520745D01*
X69214630Y-34520750D01*
X69194435Y-34699996D01*
X69194435Y-34700003D01*
X69214630Y-34879249D01*
X69214631Y-34879254D01*
X69274211Y-35049523D01*
X69342673Y-35158479D01*
X69370184Y-35202262D01*
X69497738Y-35329816D01*
X69588080Y-35386582D01*
X69642450Y-35420745D01*
X69650478Y-35425789D01*
X69820745Y-35485368D01*
X69820750Y-35485369D01*
X69999996Y-35505565D01*
X70000000Y-35505565D01*
X70000004Y-35505565D01*
X70179249Y-35485369D01*
X70179252Y-35485368D01*
X70179255Y-35485368D01*
X70349522Y-35425789D01*
X70502262Y-35329816D01*
X70502267Y-35329810D01*
X70505097Y-35327555D01*
X70507275Y-35326665D01*
X70508158Y-35326111D01*
X70508255Y-35326265D01*
X70569783Y-35301145D01*
X70582412Y-35300500D01*
X71899903Y-35300500D01*
X71966942Y-35320185D01*
X71987584Y-35336819D01*
X75038455Y-38387690D01*
X75071940Y-38449013D01*
X75066956Y-38518705D01*
X75025084Y-38574638D01*
X74959620Y-38599055D01*
X74936891Y-38598591D01*
X74900004Y-38594435D01*
X74899996Y-38594435D01*
X74720750Y-38614630D01*
X74720745Y-38614631D01*
X74550476Y-38674211D01*
X74397737Y-38770184D01*
X74270184Y-38897737D01*
X74174210Y-39050478D01*
X74114630Y-39220750D01*
X74104837Y-39307668D01*
X74077770Y-39372082D01*
X74069298Y-39381465D01*
X71787584Y-41663181D01*
X71726261Y-41696666D01*
X71699903Y-41699500D01*
X67682412Y-41699500D01*
X67615373Y-41679815D01*
X67605097Y-41672445D01*
X67602263Y-41670185D01*
X67602262Y-41670184D01*
X67545496Y-41634515D01*
X67449523Y-41574211D01*
X67279254Y-41514631D01*
X67279249Y-41514630D01*
X67100004Y-41494435D01*
X67099996Y-41494435D01*
X66920750Y-41514630D01*
X66920745Y-41514631D01*
X66750476Y-41574211D01*
X66597737Y-41670184D01*
X66470184Y-41797737D01*
X66374211Y-41950476D01*
X66314631Y-42120745D01*
X66314630Y-42120750D01*
X66294435Y-42299996D01*
X53000500Y-42299996D01*
X53000500Y-31824500D01*
X53020185Y-31757461D01*
X53072989Y-31711706D01*
X53124500Y-31700500D01*
X138375500Y-31700500D01*
X138442539Y-31720185D01*
G37*
%TD.AperFunction*%
%TD*%
M02*
