%TF.GenerationSoftware,KiCad,Pcbnew,8.0.4*%
%TF.CreationDate,2024-12-24T16:07:24-06:00*%
%TF.ProjectId,opa548_revised,6f706135-3438-45f7-9265-76697365642e,rev?*%
%TF.SameCoordinates,Original*%
%TF.FileFunction,Paste,Top*%
%TF.FilePolarity,Positive*%
%FSLAX46Y46*%
G04 Gerber Fmt 4.6, Leading zero omitted, Abs format (unit mm)*
G04 Created by KiCad (PCBNEW 8.0.4) date 2024-12-24 16:07:24*
%MOMM*%
%LPD*%
G01*
G04 APERTURE LIST*
G04 Aperture macros list*
%AMRoundRect*
0 Rectangle with rounded corners*
0 $1 Rounding radius*
0 $2 $3 $4 $5 $6 $7 $8 $9 X,Y pos of 4 corners*
0 Add a 4 corners polygon primitive as box body*
4,1,4,$2,$3,$4,$5,$6,$7,$8,$9,$2,$3,0*
0 Add four circle primitives for the rounded corners*
1,1,$1+$1,$2,$3*
1,1,$1+$1,$4,$5*
1,1,$1+$1,$6,$7*
1,1,$1+$1,$8,$9*
0 Add four rect primitives between the rounded corners*
20,1,$1+$1,$2,$3,$4,$5,0*
20,1,$1+$1,$4,$5,$6,$7,0*
20,1,$1+$1,$6,$7,$8,$9,0*
20,1,$1+$1,$8,$9,$2,$3,0*%
G04 Aperture macros list end*
%ADD10RoundRect,0.250000X2.375000X-2.025000X2.375000X2.025000X-2.375000X2.025000X-2.375000X-2.025000X0*%
%ADD11RoundRect,0.275000X0.275000X-2.025000X0.275000X2.025000X-0.275000X2.025000X-0.275000X-2.025000X0*%
%ADD12RoundRect,0.150000X-0.825000X-0.150000X0.825000X-0.150000X0.825000X0.150000X-0.825000X0.150000X0*%
%ADD13RoundRect,0.100000X-0.637500X-0.100000X0.637500X-0.100000X0.637500X0.100000X-0.637500X0.100000X0*%
%ADD14R,1.981200X0.558800*%
%ADD15R,3.300000X1.190000*%
%ADD16RoundRect,0.237500X0.250000X0.237500X-0.250000X0.237500X-0.250000X-0.237500X0.250000X-0.237500X0*%
%ADD17RoundRect,0.237500X-0.250000X-0.237500X0.250000X-0.237500X0.250000X0.237500X-0.250000X0.237500X0*%
%ADD18RoundRect,0.237500X-0.300000X-0.237500X0.300000X-0.237500X0.300000X0.237500X-0.300000X0.237500X0*%
%ADD19RoundRect,0.237500X0.237500X-0.300000X0.237500X0.300000X-0.237500X0.300000X-0.237500X-0.300000X0*%
G04 APERTURE END LIST*
D10*
%TO.C,R8*%
X106425000Y-39525000D03*
X111975000Y-39525000D03*
X106425000Y-34675000D03*
X111975000Y-34675000D03*
D11*
X106660000Y-46250000D03*
X111740000Y-46250000D03*
%TD*%
D12*
%TO.C,U5*%
X103925000Y-65495000D03*
X103925000Y-66765000D03*
X103925000Y-68035000D03*
X103925000Y-69305000D03*
X108875000Y-69305000D03*
X108875000Y-68035000D03*
X108875000Y-66765000D03*
X108875000Y-65495000D03*
%TD*%
D13*
%TO.C,U4*%
X103537500Y-53375000D03*
X103537500Y-54025000D03*
X103537500Y-54675000D03*
X103537500Y-55325000D03*
X103537500Y-55975000D03*
X103537500Y-56625000D03*
X103537500Y-57275000D03*
X103537500Y-57925000D03*
X103537500Y-58575000D03*
X103537500Y-59225000D03*
X109262500Y-59225000D03*
X109262500Y-58575000D03*
X109262500Y-57925000D03*
X109262500Y-57275000D03*
X109262500Y-56625000D03*
X109262500Y-55975000D03*
X109262500Y-55325000D03*
X109262500Y-54675000D03*
X109262500Y-54025000D03*
X109262500Y-53375000D03*
%TD*%
D14*
%TO.C,U3*%
X85600000Y-53460000D03*
X85600000Y-54730000D03*
X85600000Y-56000000D03*
X85600000Y-57270000D03*
X80672400Y-57270000D03*
X80672400Y-56000000D03*
X80672400Y-54730000D03*
X80672400Y-53460000D03*
%TD*%
D15*
%TO.C,RV3*%
X61700000Y-49660000D03*
X55300000Y-52200000D03*
X61700000Y-54740000D03*
%TD*%
%TO.C,RV2*%
X61700000Y-41710000D03*
X55300000Y-44250000D03*
X61700000Y-46790000D03*
%TD*%
%TO.C,RV1*%
X61700000Y-33760000D03*
X55300000Y-36300000D03*
X61700000Y-38840000D03*
%TD*%
D16*
%TO.C,R23*%
X68144823Y-78950000D03*
X66319823Y-78950000D03*
%TD*%
%TO.C,R22*%
X68144823Y-81460000D03*
X66319823Y-81460000D03*
%TD*%
%TO.C,R21*%
X68144823Y-83970000D03*
X66319823Y-83970000D03*
%TD*%
%TO.C,R20*%
X68144823Y-86480000D03*
X66319823Y-86480000D03*
%TD*%
D17*
%TO.C,R19*%
X74075000Y-56060000D03*
X75900000Y-56060000D03*
%TD*%
%TO.C,R18*%
X74075000Y-53160000D03*
X75900000Y-53160000D03*
%TD*%
%TO.C,R17*%
X66387500Y-53310000D03*
X68212500Y-53310000D03*
%TD*%
%TO.C,R16*%
X66387500Y-50800000D03*
X68212500Y-50800000D03*
%TD*%
%TO.C,R15*%
X128787500Y-53310000D03*
X130612500Y-53310000D03*
%TD*%
%TO.C,R14*%
X128787500Y-50800000D03*
X130612500Y-50800000D03*
%TD*%
%TO.C,R11*%
X119287500Y-39300000D03*
X121112500Y-39300000D03*
%TD*%
%TO.C,R10*%
X119387500Y-35000000D03*
X121212500Y-35000000D03*
%TD*%
%TO.C,R9*%
X83063000Y-37100000D03*
X84888000Y-37100000D03*
%TD*%
%TO.C,R7*%
X88663000Y-48700000D03*
X90488000Y-48700000D03*
%TD*%
%TO.C,R6*%
X88675500Y-45700000D03*
X90500500Y-45700000D03*
%TD*%
%TO.C,R5*%
X83063000Y-34200000D03*
X84888000Y-34200000D03*
%TD*%
%TO.C,R4*%
X88375000Y-60260000D03*
X90200000Y-60260000D03*
%TD*%
%TO.C,R3*%
X66687500Y-34700000D03*
X68512500Y-34700000D03*
%TD*%
%TO.C,R2*%
X66700000Y-37700000D03*
X68525000Y-37700000D03*
%TD*%
D16*
%TO.C,R1*%
X90200000Y-57360000D03*
X88375000Y-57360000D03*
%TD*%
D18*
%TO.C,C10*%
X99737500Y-63000000D03*
X101462500Y-63000000D03*
%TD*%
D19*
%TO.C,C5*%
X125100000Y-46462500D03*
X125100000Y-44737500D03*
%TD*%
%TO.C,C4*%
X131000000Y-45425000D03*
X131000000Y-43700000D03*
%TD*%
D18*
%TO.C,C2*%
X83037500Y-40000000D03*
X84762500Y-40000000D03*
%TD*%
D19*
%TO.C,C1*%
X95000000Y-44312500D03*
X95000000Y-42587500D03*
%TD*%
M02*
