M48
; DRILL file {KiCad 8.0.4} date 2024-12-24T16:07:25-0600
; FORMAT={-:-/ absolute / inch / decimal}
; #@! TF.CreationDate,2024-12-24T16:07:25-06:00
; #@! TF.GenerationSoftware,Kicad,Pcbnew,8.0.4
; #@! TF.FileFunction,Plated,1,2,PTH
FMAT,2
INCH
; #@! TA.AperFunction,Plated,PTH,ViaDrill
T1C0.0118
; #@! TA.AperFunction,Plated,PTH,ComponentDrill
T2C0.0197
; #@! TA.AperFunction,Plated,PTH,ComponentDrill
T3C0.0350
; #@! TA.AperFunction,Plated,PTH,ComponentDrill
T4C0.0394
; #@! TA.AperFunction,Plated,PTH,ComponentDrill
T5C0.0472
; #@! TA.AperFunction,Plated,PTH,ComponentDrill
T6C0.0540
; #@! TA.AperFunction,Plated,PTH,ComponentDrill
T7C0.0791
%
G90
G05
T1
X2.5394Y-3.3031
X2.5551Y-3.1063
X2.5709Y-1.8425
X2.6417Y-1.6654
X2.748Y-3.2087
X2.7559Y-1.3661
X2.7598Y-3.4055
X2.9488Y-1.5512
X3.0433Y-1.8425
X3.2008Y-1.8543
X3.2283Y-1.5984
X3.2638Y-2.3622
X3.3228Y-2.0472
X3.3425Y-2.3622
X3.3819Y-1.5354
X3.4912Y-1.751
X3.5945Y-2.3189
X3.7205Y-1.7948
X3.8425Y-2.5748
X3.9961Y-2.248
X4.0079Y-2.3465
X4.0354Y-2.4567
X4.1181Y-1.3661
X4.122Y-1.4134
X4.126Y-1.5118
X4.1299Y-1.5551
X4.1299Y-1.6102
X4.1299Y-2.3071
X4.1772Y-1.3661
X4.1772Y-1.4134
X4.1969Y-1.5118
X4.1969Y-1.5591
X4.2008Y-1.6063
X4.2126Y-2.2756
X4.2323Y-1.4134
X4.2402Y-1.3661
X4.2677Y-1.5118
X4.2677Y-1.5591
X4.2717Y-1.6063
X4.311Y-1.4134
X4.315Y-1.3701
X4.3465Y-1.5157
X4.3465Y-1.5591
X4.3465Y-1.6063
X4.3701Y-2.3465
X4.3701Y-2.5394
X4.374Y-1.4134
X4.3858Y-1.3661
X4.4173Y-1.5157
X4.4173Y-1.563
X4.4173Y-1.6063
X4.4449Y-1.4134
X4.4567Y-1.3701
X4.4764Y-1.563
X4.4803Y-1.5157
X4.4803Y-1.6102
X4.6496Y-1.4016
X4.9409Y-1.878
X5.1575Y-1.8465
T2
X3.2126Y-1.9606
T3
X2.578Y-2.6449
X2.578Y-2.7449
X4.9626Y-2.5457
X4.9626Y-2.6457
T4
X2.9816Y-3.0079
X2.9816Y-3.5827
X3.1784Y-3.0079
X3.1784Y-3.5827
X3.4147Y-3.5787
X3.4186Y-3.0079
X3.6115Y-3.5787
X3.6154Y-3.0079
T5
X4.1587Y-3.483
X4.3087Y-3.483
X4.4587Y-3.483
X4.6087Y-3.483
X4.7587Y-3.483
X4.9087Y-3.483
T6
X3.5239Y-1.563
X3.5789Y-1.398
X3.6339Y-1.563
X3.6889Y-1.398
X3.7439Y-1.563
X3.7989Y-1.398
X3.8539Y-1.563
X4.9062Y-1.5551
X4.9612Y-1.3901
X5.0162Y-1.5551
X5.0712Y-1.3901
X5.1262Y-1.5551
X5.1812Y-1.3901
X5.2362Y-1.5551
T7
X2.378Y-2.4449
X2.378Y-2.8449
X5.1626Y-2.4457
X5.1626Y-2.8457
M30
