%TF.GenerationSoftware,KiCad,Pcbnew,8.0.4*%
%TF.CreationDate,2024-12-24T16:07:24-06:00*%
%TF.ProjectId,opa548_revised,6f706135-3438-45f7-9265-76697365642e,rev?*%
%TF.SameCoordinates,Original*%
%TF.FileFunction,Legend,Top*%
%TF.FilePolarity,Positive*%
%FSLAX46Y46*%
G04 Gerber Fmt 4.6, Leading zero omitted, Abs format (unit mm)*
G04 Created by KiCad (PCBNEW 8.0.4) date 2024-12-24 16:07:24*
%MOMM*%
%LPD*%
G01*
G04 APERTURE LIST*
%ADD10C,0.150000*%
%ADD11C,0.120000*%
%ADD12C,0.152400*%
G04 APERTURE END LIST*
D10*
X103004819Y-40641666D02*
X102528628Y-40974999D01*
X103004819Y-41213094D02*
X102004819Y-41213094D01*
X102004819Y-41213094D02*
X102004819Y-40832142D01*
X102004819Y-40832142D02*
X102052438Y-40736904D01*
X102052438Y-40736904D02*
X102100057Y-40689285D01*
X102100057Y-40689285D02*
X102195295Y-40641666D01*
X102195295Y-40641666D02*
X102338152Y-40641666D01*
X102338152Y-40641666D02*
X102433390Y-40689285D01*
X102433390Y-40689285D02*
X102481009Y-40736904D01*
X102481009Y-40736904D02*
X102528628Y-40832142D01*
X102528628Y-40832142D02*
X102528628Y-41213094D01*
X102433390Y-40070237D02*
X102385771Y-40165475D01*
X102385771Y-40165475D02*
X102338152Y-40213094D01*
X102338152Y-40213094D02*
X102242914Y-40260713D01*
X102242914Y-40260713D02*
X102195295Y-40260713D01*
X102195295Y-40260713D02*
X102100057Y-40213094D01*
X102100057Y-40213094D02*
X102052438Y-40165475D01*
X102052438Y-40165475D02*
X102004819Y-40070237D01*
X102004819Y-40070237D02*
X102004819Y-39879761D01*
X102004819Y-39879761D02*
X102052438Y-39784523D01*
X102052438Y-39784523D02*
X102100057Y-39736904D01*
X102100057Y-39736904D02*
X102195295Y-39689285D01*
X102195295Y-39689285D02*
X102242914Y-39689285D01*
X102242914Y-39689285D02*
X102338152Y-39736904D01*
X102338152Y-39736904D02*
X102385771Y-39784523D01*
X102385771Y-39784523D02*
X102433390Y-39879761D01*
X102433390Y-39879761D02*
X102433390Y-40070237D01*
X102433390Y-40070237D02*
X102481009Y-40165475D01*
X102481009Y-40165475D02*
X102528628Y-40213094D01*
X102528628Y-40213094D02*
X102623866Y-40260713D01*
X102623866Y-40260713D02*
X102814342Y-40260713D01*
X102814342Y-40260713D02*
X102909580Y-40213094D01*
X102909580Y-40213094D02*
X102957200Y-40165475D01*
X102957200Y-40165475D02*
X103004819Y-40070237D01*
X103004819Y-40070237D02*
X103004819Y-39879761D01*
X103004819Y-39879761D02*
X102957200Y-39784523D01*
X102957200Y-39784523D02*
X102909580Y-39736904D01*
X102909580Y-39736904D02*
X102814342Y-39689285D01*
X102814342Y-39689285D02*
X102623866Y-39689285D01*
X102623866Y-39689285D02*
X102528628Y-39736904D01*
X102528628Y-39736904D02*
X102481009Y-39784523D01*
X102481009Y-39784523D02*
X102433390Y-39879761D01*
X63854819Y-45133333D02*
X64569104Y-45133333D01*
X64569104Y-45133333D02*
X64711961Y-45180952D01*
X64711961Y-45180952D02*
X64807200Y-45276190D01*
X64807200Y-45276190D02*
X64854819Y-45419047D01*
X64854819Y-45419047D02*
X64854819Y-45514285D01*
X64854819Y-44657142D02*
X63854819Y-44657142D01*
X63854819Y-44657142D02*
X63854819Y-44276190D01*
X63854819Y-44276190D02*
X63902438Y-44180952D01*
X63902438Y-44180952D02*
X63950057Y-44133333D01*
X63950057Y-44133333D02*
X64045295Y-44085714D01*
X64045295Y-44085714D02*
X64188152Y-44085714D01*
X64188152Y-44085714D02*
X64283390Y-44133333D01*
X64283390Y-44133333D02*
X64331009Y-44180952D01*
X64331009Y-44180952D02*
X64378628Y-44276190D01*
X64378628Y-44276190D02*
X64378628Y-44657142D01*
X63854819Y-43752380D02*
X63854819Y-43133333D01*
X63854819Y-43133333D02*
X64235771Y-43466666D01*
X64235771Y-43466666D02*
X64235771Y-43323809D01*
X64235771Y-43323809D02*
X64283390Y-43228571D01*
X64283390Y-43228571D02*
X64331009Y-43180952D01*
X64331009Y-43180952D02*
X64426247Y-43133333D01*
X64426247Y-43133333D02*
X64664342Y-43133333D01*
X64664342Y-43133333D02*
X64759580Y-43180952D01*
X64759580Y-43180952D02*
X64807200Y-43228571D01*
X64807200Y-43228571D02*
X64854819Y-43323809D01*
X64854819Y-43323809D02*
X64854819Y-43609523D01*
X64854819Y-43609523D02*
X64807200Y-43704761D01*
X64807200Y-43704761D02*
X64759580Y-43752380D01*
X128138095Y-41454819D02*
X128138095Y-42264342D01*
X128138095Y-42264342D02*
X128185714Y-42359580D01*
X128185714Y-42359580D02*
X128233333Y-42407200D01*
X128233333Y-42407200D02*
X128328571Y-42454819D01*
X128328571Y-42454819D02*
X128519047Y-42454819D01*
X128519047Y-42454819D02*
X128614285Y-42407200D01*
X128614285Y-42407200D02*
X128661904Y-42359580D01*
X128661904Y-42359580D02*
X128709523Y-42264342D01*
X128709523Y-42264342D02*
X128709523Y-41454819D01*
X129138095Y-41550057D02*
X129185714Y-41502438D01*
X129185714Y-41502438D02*
X129280952Y-41454819D01*
X129280952Y-41454819D02*
X129519047Y-41454819D01*
X129519047Y-41454819D02*
X129614285Y-41502438D01*
X129614285Y-41502438D02*
X129661904Y-41550057D01*
X129661904Y-41550057D02*
X129709523Y-41645295D01*
X129709523Y-41645295D02*
X129709523Y-41740533D01*
X129709523Y-41740533D02*
X129661904Y-41883390D01*
X129661904Y-41883390D02*
X129090476Y-42454819D01*
X129090476Y-42454819D02*
X129709523Y-42454819D01*
X105638095Y-63454819D02*
X105638095Y-64264342D01*
X105638095Y-64264342D02*
X105685714Y-64359580D01*
X105685714Y-64359580D02*
X105733333Y-64407200D01*
X105733333Y-64407200D02*
X105828571Y-64454819D01*
X105828571Y-64454819D02*
X106019047Y-64454819D01*
X106019047Y-64454819D02*
X106114285Y-64407200D01*
X106114285Y-64407200D02*
X106161904Y-64359580D01*
X106161904Y-64359580D02*
X106209523Y-64264342D01*
X106209523Y-64264342D02*
X106209523Y-63454819D01*
X107161904Y-63454819D02*
X106685714Y-63454819D01*
X106685714Y-63454819D02*
X106638095Y-63931009D01*
X106638095Y-63931009D02*
X106685714Y-63883390D01*
X106685714Y-63883390D02*
X106780952Y-63835771D01*
X106780952Y-63835771D02*
X107019047Y-63835771D01*
X107019047Y-63835771D02*
X107114285Y-63883390D01*
X107114285Y-63883390D02*
X107161904Y-63931009D01*
X107161904Y-63931009D02*
X107209523Y-64026247D01*
X107209523Y-64026247D02*
X107209523Y-64264342D01*
X107209523Y-64264342D02*
X107161904Y-64359580D01*
X107161904Y-64359580D02*
X107114285Y-64407200D01*
X107114285Y-64407200D02*
X107019047Y-64454819D01*
X107019047Y-64454819D02*
X106780952Y-64454819D01*
X106780952Y-64454819D02*
X106685714Y-64407200D01*
X106685714Y-64407200D02*
X106638095Y-64359580D01*
X105638095Y-51554819D02*
X105638095Y-52364342D01*
X105638095Y-52364342D02*
X105685714Y-52459580D01*
X105685714Y-52459580D02*
X105733333Y-52507200D01*
X105733333Y-52507200D02*
X105828571Y-52554819D01*
X105828571Y-52554819D02*
X106019047Y-52554819D01*
X106019047Y-52554819D02*
X106114285Y-52507200D01*
X106114285Y-52507200D02*
X106161904Y-52459580D01*
X106161904Y-52459580D02*
X106209523Y-52364342D01*
X106209523Y-52364342D02*
X106209523Y-51554819D01*
X107114285Y-51888152D02*
X107114285Y-52554819D01*
X106876190Y-51507200D02*
X106638095Y-52221485D01*
X106638095Y-52221485D02*
X107257142Y-52221485D01*
X82374295Y-54819819D02*
X82374295Y-55629342D01*
X82374295Y-55629342D02*
X82421914Y-55724580D01*
X82421914Y-55724580D02*
X82469533Y-55772200D01*
X82469533Y-55772200D02*
X82564771Y-55819819D01*
X82564771Y-55819819D02*
X82755247Y-55819819D01*
X82755247Y-55819819D02*
X82850485Y-55772200D01*
X82850485Y-55772200D02*
X82898104Y-55724580D01*
X82898104Y-55724580D02*
X82945723Y-55629342D01*
X82945723Y-55629342D02*
X82945723Y-54819819D01*
X83326676Y-54819819D02*
X83945723Y-54819819D01*
X83945723Y-54819819D02*
X83612390Y-55200771D01*
X83612390Y-55200771D02*
X83755247Y-55200771D01*
X83755247Y-55200771D02*
X83850485Y-55248390D01*
X83850485Y-55248390D02*
X83898104Y-55296009D01*
X83898104Y-55296009D02*
X83945723Y-55391247D01*
X83945723Y-55391247D02*
X83945723Y-55629342D01*
X83945723Y-55629342D02*
X83898104Y-55724580D01*
X83898104Y-55724580D02*
X83850485Y-55772200D01*
X83850485Y-55772200D02*
X83755247Y-55819819D01*
X83755247Y-55819819D02*
X83469533Y-55819819D01*
X83469533Y-55819819D02*
X83374295Y-55772200D01*
X83374295Y-55772200D02*
X83326676Y-55724580D01*
X80418400Y-51213019D02*
X80418400Y-51451114D01*
X80180305Y-51355876D02*
X80418400Y-51451114D01*
X80418400Y-51451114D02*
X80656495Y-51355876D01*
X80275543Y-51641590D02*
X80418400Y-51451114D01*
X80418400Y-51451114D02*
X80561257Y-51641590D01*
X92538095Y-41354819D02*
X92538095Y-42164342D01*
X92538095Y-42164342D02*
X92585714Y-42259580D01*
X92585714Y-42259580D02*
X92633333Y-42307200D01*
X92633333Y-42307200D02*
X92728571Y-42354819D01*
X92728571Y-42354819D02*
X92919047Y-42354819D01*
X92919047Y-42354819D02*
X93014285Y-42307200D01*
X93014285Y-42307200D02*
X93061904Y-42259580D01*
X93061904Y-42259580D02*
X93109523Y-42164342D01*
X93109523Y-42164342D02*
X93109523Y-41354819D01*
X94109523Y-42354819D02*
X93538095Y-42354819D01*
X93823809Y-42354819D02*
X93823809Y-41354819D01*
X93823809Y-41354819D02*
X93728571Y-41497676D01*
X93728571Y-41497676D02*
X93633333Y-41592914D01*
X93633333Y-41592914D02*
X93538095Y-41640533D01*
X80338095Y-47694819D02*
X80909523Y-47694819D01*
X80623809Y-48694819D02*
X80623809Y-47694819D01*
X81242857Y-48694819D02*
X81242857Y-47694819D01*
X81242857Y-47694819D02*
X81623809Y-47694819D01*
X81623809Y-47694819D02*
X81719047Y-47742438D01*
X81719047Y-47742438D02*
X81766666Y-47790057D01*
X81766666Y-47790057D02*
X81814285Y-47885295D01*
X81814285Y-47885295D02*
X81814285Y-48028152D01*
X81814285Y-48028152D02*
X81766666Y-48123390D01*
X81766666Y-48123390D02*
X81719047Y-48171009D01*
X81719047Y-48171009D02*
X81623809Y-48218628D01*
X81623809Y-48218628D02*
X81242857Y-48218628D01*
X82766666Y-48694819D02*
X82195238Y-48694819D01*
X82480952Y-48694819D02*
X82480952Y-47694819D01*
X82480952Y-47694819D02*
X82385714Y-47837676D01*
X82385714Y-47837676D02*
X82290476Y-47932914D01*
X82290476Y-47932914D02*
X82195238Y-47980533D01*
X57904761Y-57254819D02*
X57571428Y-56778628D01*
X57333333Y-57254819D02*
X57333333Y-56254819D01*
X57333333Y-56254819D02*
X57714285Y-56254819D01*
X57714285Y-56254819D02*
X57809523Y-56302438D01*
X57809523Y-56302438D02*
X57857142Y-56350057D01*
X57857142Y-56350057D02*
X57904761Y-56445295D01*
X57904761Y-56445295D02*
X57904761Y-56588152D01*
X57904761Y-56588152D02*
X57857142Y-56683390D01*
X57857142Y-56683390D02*
X57809523Y-56731009D01*
X57809523Y-56731009D02*
X57714285Y-56778628D01*
X57714285Y-56778628D02*
X57333333Y-56778628D01*
X58190476Y-56254819D02*
X58523809Y-57254819D01*
X58523809Y-57254819D02*
X58857142Y-56254819D01*
X59095238Y-56254819D02*
X59714285Y-56254819D01*
X59714285Y-56254819D02*
X59380952Y-56635771D01*
X59380952Y-56635771D02*
X59523809Y-56635771D01*
X59523809Y-56635771D02*
X59619047Y-56683390D01*
X59619047Y-56683390D02*
X59666666Y-56731009D01*
X59666666Y-56731009D02*
X59714285Y-56826247D01*
X59714285Y-56826247D02*
X59714285Y-57064342D01*
X59714285Y-57064342D02*
X59666666Y-57159580D01*
X59666666Y-57159580D02*
X59619047Y-57207200D01*
X59619047Y-57207200D02*
X59523809Y-57254819D01*
X59523809Y-57254819D02*
X59238095Y-57254819D01*
X59238095Y-57254819D02*
X59142857Y-57207200D01*
X59142857Y-57207200D02*
X59095238Y-57159580D01*
X57804761Y-48854819D02*
X57471428Y-48378628D01*
X57233333Y-48854819D02*
X57233333Y-47854819D01*
X57233333Y-47854819D02*
X57614285Y-47854819D01*
X57614285Y-47854819D02*
X57709523Y-47902438D01*
X57709523Y-47902438D02*
X57757142Y-47950057D01*
X57757142Y-47950057D02*
X57804761Y-48045295D01*
X57804761Y-48045295D02*
X57804761Y-48188152D01*
X57804761Y-48188152D02*
X57757142Y-48283390D01*
X57757142Y-48283390D02*
X57709523Y-48331009D01*
X57709523Y-48331009D02*
X57614285Y-48378628D01*
X57614285Y-48378628D02*
X57233333Y-48378628D01*
X58090476Y-47854819D02*
X58423809Y-48854819D01*
X58423809Y-48854819D02*
X58757142Y-47854819D01*
X59042857Y-47950057D02*
X59090476Y-47902438D01*
X59090476Y-47902438D02*
X59185714Y-47854819D01*
X59185714Y-47854819D02*
X59423809Y-47854819D01*
X59423809Y-47854819D02*
X59519047Y-47902438D01*
X59519047Y-47902438D02*
X59566666Y-47950057D01*
X59566666Y-47950057D02*
X59614285Y-48045295D01*
X59614285Y-48045295D02*
X59614285Y-48140533D01*
X59614285Y-48140533D02*
X59566666Y-48283390D01*
X59566666Y-48283390D02*
X58995238Y-48854819D01*
X58995238Y-48854819D02*
X59614285Y-48854819D01*
X57904761Y-40854819D02*
X57571428Y-40378628D01*
X57333333Y-40854819D02*
X57333333Y-39854819D01*
X57333333Y-39854819D02*
X57714285Y-39854819D01*
X57714285Y-39854819D02*
X57809523Y-39902438D01*
X57809523Y-39902438D02*
X57857142Y-39950057D01*
X57857142Y-39950057D02*
X57904761Y-40045295D01*
X57904761Y-40045295D02*
X57904761Y-40188152D01*
X57904761Y-40188152D02*
X57857142Y-40283390D01*
X57857142Y-40283390D02*
X57809523Y-40331009D01*
X57809523Y-40331009D02*
X57714285Y-40378628D01*
X57714285Y-40378628D02*
X57333333Y-40378628D01*
X58190476Y-39854819D02*
X58523809Y-40854819D01*
X58523809Y-40854819D02*
X58857142Y-39854819D01*
X59714285Y-40854819D02*
X59142857Y-40854819D01*
X59428571Y-40854819D02*
X59428571Y-39854819D01*
X59428571Y-39854819D02*
X59333333Y-39997676D01*
X59333333Y-39997676D02*
X59238095Y-40092914D01*
X59238095Y-40092914D02*
X59142857Y-40140533D01*
X62357142Y-79354819D02*
X62023809Y-78878628D01*
X61785714Y-79354819D02*
X61785714Y-78354819D01*
X61785714Y-78354819D02*
X62166666Y-78354819D01*
X62166666Y-78354819D02*
X62261904Y-78402438D01*
X62261904Y-78402438D02*
X62309523Y-78450057D01*
X62309523Y-78450057D02*
X62357142Y-78545295D01*
X62357142Y-78545295D02*
X62357142Y-78688152D01*
X62357142Y-78688152D02*
X62309523Y-78783390D01*
X62309523Y-78783390D02*
X62261904Y-78831009D01*
X62261904Y-78831009D02*
X62166666Y-78878628D01*
X62166666Y-78878628D02*
X61785714Y-78878628D01*
X62738095Y-78450057D02*
X62785714Y-78402438D01*
X62785714Y-78402438D02*
X62880952Y-78354819D01*
X62880952Y-78354819D02*
X63119047Y-78354819D01*
X63119047Y-78354819D02*
X63214285Y-78402438D01*
X63214285Y-78402438D02*
X63261904Y-78450057D01*
X63261904Y-78450057D02*
X63309523Y-78545295D01*
X63309523Y-78545295D02*
X63309523Y-78640533D01*
X63309523Y-78640533D02*
X63261904Y-78783390D01*
X63261904Y-78783390D02*
X62690476Y-79354819D01*
X62690476Y-79354819D02*
X63309523Y-79354819D01*
X63642857Y-78354819D02*
X64261904Y-78354819D01*
X64261904Y-78354819D02*
X63928571Y-78735771D01*
X63928571Y-78735771D02*
X64071428Y-78735771D01*
X64071428Y-78735771D02*
X64166666Y-78783390D01*
X64166666Y-78783390D02*
X64214285Y-78831009D01*
X64214285Y-78831009D02*
X64261904Y-78926247D01*
X64261904Y-78926247D02*
X64261904Y-79164342D01*
X64261904Y-79164342D02*
X64214285Y-79259580D01*
X64214285Y-79259580D02*
X64166666Y-79307200D01*
X64166666Y-79307200D02*
X64071428Y-79354819D01*
X64071428Y-79354819D02*
X63785714Y-79354819D01*
X63785714Y-79354819D02*
X63690476Y-79307200D01*
X63690476Y-79307200D02*
X63642857Y-79259580D01*
X62357142Y-81954819D02*
X62023809Y-81478628D01*
X61785714Y-81954819D02*
X61785714Y-80954819D01*
X61785714Y-80954819D02*
X62166666Y-80954819D01*
X62166666Y-80954819D02*
X62261904Y-81002438D01*
X62261904Y-81002438D02*
X62309523Y-81050057D01*
X62309523Y-81050057D02*
X62357142Y-81145295D01*
X62357142Y-81145295D02*
X62357142Y-81288152D01*
X62357142Y-81288152D02*
X62309523Y-81383390D01*
X62309523Y-81383390D02*
X62261904Y-81431009D01*
X62261904Y-81431009D02*
X62166666Y-81478628D01*
X62166666Y-81478628D02*
X61785714Y-81478628D01*
X62738095Y-81050057D02*
X62785714Y-81002438D01*
X62785714Y-81002438D02*
X62880952Y-80954819D01*
X62880952Y-80954819D02*
X63119047Y-80954819D01*
X63119047Y-80954819D02*
X63214285Y-81002438D01*
X63214285Y-81002438D02*
X63261904Y-81050057D01*
X63261904Y-81050057D02*
X63309523Y-81145295D01*
X63309523Y-81145295D02*
X63309523Y-81240533D01*
X63309523Y-81240533D02*
X63261904Y-81383390D01*
X63261904Y-81383390D02*
X62690476Y-81954819D01*
X62690476Y-81954819D02*
X63309523Y-81954819D01*
X63690476Y-81050057D02*
X63738095Y-81002438D01*
X63738095Y-81002438D02*
X63833333Y-80954819D01*
X63833333Y-80954819D02*
X64071428Y-80954819D01*
X64071428Y-80954819D02*
X64166666Y-81002438D01*
X64166666Y-81002438D02*
X64214285Y-81050057D01*
X64214285Y-81050057D02*
X64261904Y-81145295D01*
X64261904Y-81145295D02*
X64261904Y-81240533D01*
X64261904Y-81240533D02*
X64214285Y-81383390D01*
X64214285Y-81383390D02*
X63642857Y-81954819D01*
X63642857Y-81954819D02*
X64261904Y-81954819D01*
X62357142Y-84554819D02*
X62023809Y-84078628D01*
X61785714Y-84554819D02*
X61785714Y-83554819D01*
X61785714Y-83554819D02*
X62166666Y-83554819D01*
X62166666Y-83554819D02*
X62261904Y-83602438D01*
X62261904Y-83602438D02*
X62309523Y-83650057D01*
X62309523Y-83650057D02*
X62357142Y-83745295D01*
X62357142Y-83745295D02*
X62357142Y-83888152D01*
X62357142Y-83888152D02*
X62309523Y-83983390D01*
X62309523Y-83983390D02*
X62261904Y-84031009D01*
X62261904Y-84031009D02*
X62166666Y-84078628D01*
X62166666Y-84078628D02*
X61785714Y-84078628D01*
X62738095Y-83650057D02*
X62785714Y-83602438D01*
X62785714Y-83602438D02*
X62880952Y-83554819D01*
X62880952Y-83554819D02*
X63119047Y-83554819D01*
X63119047Y-83554819D02*
X63214285Y-83602438D01*
X63214285Y-83602438D02*
X63261904Y-83650057D01*
X63261904Y-83650057D02*
X63309523Y-83745295D01*
X63309523Y-83745295D02*
X63309523Y-83840533D01*
X63309523Y-83840533D02*
X63261904Y-83983390D01*
X63261904Y-83983390D02*
X62690476Y-84554819D01*
X62690476Y-84554819D02*
X63309523Y-84554819D01*
X64261904Y-84554819D02*
X63690476Y-84554819D01*
X63976190Y-84554819D02*
X63976190Y-83554819D01*
X63976190Y-83554819D02*
X63880952Y-83697676D01*
X63880952Y-83697676D02*
X63785714Y-83792914D01*
X63785714Y-83792914D02*
X63690476Y-83840533D01*
X62357142Y-86954819D02*
X62023809Y-86478628D01*
X61785714Y-86954819D02*
X61785714Y-85954819D01*
X61785714Y-85954819D02*
X62166666Y-85954819D01*
X62166666Y-85954819D02*
X62261904Y-86002438D01*
X62261904Y-86002438D02*
X62309523Y-86050057D01*
X62309523Y-86050057D02*
X62357142Y-86145295D01*
X62357142Y-86145295D02*
X62357142Y-86288152D01*
X62357142Y-86288152D02*
X62309523Y-86383390D01*
X62309523Y-86383390D02*
X62261904Y-86431009D01*
X62261904Y-86431009D02*
X62166666Y-86478628D01*
X62166666Y-86478628D02*
X61785714Y-86478628D01*
X62738095Y-86050057D02*
X62785714Y-86002438D01*
X62785714Y-86002438D02*
X62880952Y-85954819D01*
X62880952Y-85954819D02*
X63119047Y-85954819D01*
X63119047Y-85954819D02*
X63214285Y-86002438D01*
X63214285Y-86002438D02*
X63261904Y-86050057D01*
X63261904Y-86050057D02*
X63309523Y-86145295D01*
X63309523Y-86145295D02*
X63309523Y-86240533D01*
X63309523Y-86240533D02*
X63261904Y-86383390D01*
X63261904Y-86383390D02*
X62690476Y-86954819D01*
X62690476Y-86954819D02*
X63309523Y-86954819D01*
X63928571Y-85954819D02*
X64023809Y-85954819D01*
X64023809Y-85954819D02*
X64119047Y-86002438D01*
X64119047Y-86002438D02*
X64166666Y-86050057D01*
X64166666Y-86050057D02*
X64214285Y-86145295D01*
X64214285Y-86145295D02*
X64261904Y-86335771D01*
X64261904Y-86335771D02*
X64261904Y-86573866D01*
X64261904Y-86573866D02*
X64214285Y-86764342D01*
X64214285Y-86764342D02*
X64166666Y-86859580D01*
X64166666Y-86859580D02*
X64119047Y-86907200D01*
X64119047Y-86907200D02*
X64023809Y-86954819D01*
X64023809Y-86954819D02*
X63928571Y-86954819D01*
X63928571Y-86954819D02*
X63833333Y-86907200D01*
X63833333Y-86907200D02*
X63785714Y-86859580D01*
X63785714Y-86859580D02*
X63738095Y-86764342D01*
X63738095Y-86764342D02*
X63690476Y-86573866D01*
X63690476Y-86573866D02*
X63690476Y-86335771D01*
X63690476Y-86335771D02*
X63738095Y-86145295D01*
X63738095Y-86145295D02*
X63785714Y-86050057D01*
X63785714Y-86050057D02*
X63833333Y-86002438D01*
X63833333Y-86002438D02*
X63928571Y-85954819D01*
X74344642Y-55084819D02*
X74011309Y-54608628D01*
X73773214Y-55084819D02*
X73773214Y-54084819D01*
X73773214Y-54084819D02*
X74154166Y-54084819D01*
X74154166Y-54084819D02*
X74249404Y-54132438D01*
X74249404Y-54132438D02*
X74297023Y-54180057D01*
X74297023Y-54180057D02*
X74344642Y-54275295D01*
X74344642Y-54275295D02*
X74344642Y-54418152D01*
X74344642Y-54418152D02*
X74297023Y-54513390D01*
X74297023Y-54513390D02*
X74249404Y-54561009D01*
X74249404Y-54561009D02*
X74154166Y-54608628D01*
X74154166Y-54608628D02*
X73773214Y-54608628D01*
X75297023Y-55084819D02*
X74725595Y-55084819D01*
X75011309Y-55084819D02*
X75011309Y-54084819D01*
X75011309Y-54084819D02*
X74916071Y-54227676D01*
X74916071Y-54227676D02*
X74820833Y-54322914D01*
X74820833Y-54322914D02*
X74725595Y-54370533D01*
X75773214Y-55084819D02*
X75963690Y-55084819D01*
X75963690Y-55084819D02*
X76058928Y-55037200D01*
X76058928Y-55037200D02*
X76106547Y-54989580D01*
X76106547Y-54989580D02*
X76201785Y-54846723D01*
X76201785Y-54846723D02*
X76249404Y-54656247D01*
X76249404Y-54656247D02*
X76249404Y-54275295D01*
X76249404Y-54275295D02*
X76201785Y-54180057D01*
X76201785Y-54180057D02*
X76154166Y-54132438D01*
X76154166Y-54132438D02*
X76058928Y-54084819D01*
X76058928Y-54084819D02*
X75868452Y-54084819D01*
X75868452Y-54084819D02*
X75773214Y-54132438D01*
X75773214Y-54132438D02*
X75725595Y-54180057D01*
X75725595Y-54180057D02*
X75677976Y-54275295D01*
X75677976Y-54275295D02*
X75677976Y-54513390D01*
X75677976Y-54513390D02*
X75725595Y-54608628D01*
X75725595Y-54608628D02*
X75773214Y-54656247D01*
X75773214Y-54656247D02*
X75868452Y-54703866D01*
X75868452Y-54703866D02*
X76058928Y-54703866D01*
X76058928Y-54703866D02*
X76154166Y-54656247D01*
X76154166Y-54656247D02*
X76201785Y-54608628D01*
X76201785Y-54608628D02*
X76249404Y-54513390D01*
X74344642Y-52184819D02*
X74011309Y-51708628D01*
X73773214Y-52184819D02*
X73773214Y-51184819D01*
X73773214Y-51184819D02*
X74154166Y-51184819D01*
X74154166Y-51184819D02*
X74249404Y-51232438D01*
X74249404Y-51232438D02*
X74297023Y-51280057D01*
X74297023Y-51280057D02*
X74344642Y-51375295D01*
X74344642Y-51375295D02*
X74344642Y-51518152D01*
X74344642Y-51518152D02*
X74297023Y-51613390D01*
X74297023Y-51613390D02*
X74249404Y-51661009D01*
X74249404Y-51661009D02*
X74154166Y-51708628D01*
X74154166Y-51708628D02*
X73773214Y-51708628D01*
X75297023Y-52184819D02*
X74725595Y-52184819D01*
X75011309Y-52184819D02*
X75011309Y-51184819D01*
X75011309Y-51184819D02*
X74916071Y-51327676D01*
X74916071Y-51327676D02*
X74820833Y-51422914D01*
X74820833Y-51422914D02*
X74725595Y-51470533D01*
X75868452Y-51613390D02*
X75773214Y-51565771D01*
X75773214Y-51565771D02*
X75725595Y-51518152D01*
X75725595Y-51518152D02*
X75677976Y-51422914D01*
X75677976Y-51422914D02*
X75677976Y-51375295D01*
X75677976Y-51375295D02*
X75725595Y-51280057D01*
X75725595Y-51280057D02*
X75773214Y-51232438D01*
X75773214Y-51232438D02*
X75868452Y-51184819D01*
X75868452Y-51184819D02*
X76058928Y-51184819D01*
X76058928Y-51184819D02*
X76154166Y-51232438D01*
X76154166Y-51232438D02*
X76201785Y-51280057D01*
X76201785Y-51280057D02*
X76249404Y-51375295D01*
X76249404Y-51375295D02*
X76249404Y-51422914D01*
X76249404Y-51422914D02*
X76201785Y-51518152D01*
X76201785Y-51518152D02*
X76154166Y-51565771D01*
X76154166Y-51565771D02*
X76058928Y-51613390D01*
X76058928Y-51613390D02*
X75868452Y-51613390D01*
X75868452Y-51613390D02*
X75773214Y-51661009D01*
X75773214Y-51661009D02*
X75725595Y-51708628D01*
X75725595Y-51708628D02*
X75677976Y-51803866D01*
X75677976Y-51803866D02*
X75677976Y-51994342D01*
X75677976Y-51994342D02*
X75725595Y-52089580D01*
X75725595Y-52089580D02*
X75773214Y-52137200D01*
X75773214Y-52137200D02*
X75868452Y-52184819D01*
X75868452Y-52184819D02*
X76058928Y-52184819D01*
X76058928Y-52184819D02*
X76154166Y-52137200D01*
X76154166Y-52137200D02*
X76201785Y-52089580D01*
X76201785Y-52089580D02*
X76249404Y-51994342D01*
X76249404Y-51994342D02*
X76249404Y-51803866D01*
X76249404Y-51803866D02*
X76201785Y-51708628D01*
X76201785Y-51708628D02*
X76154166Y-51661009D01*
X76154166Y-51661009D02*
X76058928Y-51613390D01*
X66657142Y-55454819D02*
X66323809Y-54978628D01*
X66085714Y-55454819D02*
X66085714Y-54454819D01*
X66085714Y-54454819D02*
X66466666Y-54454819D01*
X66466666Y-54454819D02*
X66561904Y-54502438D01*
X66561904Y-54502438D02*
X66609523Y-54550057D01*
X66609523Y-54550057D02*
X66657142Y-54645295D01*
X66657142Y-54645295D02*
X66657142Y-54788152D01*
X66657142Y-54788152D02*
X66609523Y-54883390D01*
X66609523Y-54883390D02*
X66561904Y-54931009D01*
X66561904Y-54931009D02*
X66466666Y-54978628D01*
X66466666Y-54978628D02*
X66085714Y-54978628D01*
X67609523Y-55454819D02*
X67038095Y-55454819D01*
X67323809Y-55454819D02*
X67323809Y-54454819D01*
X67323809Y-54454819D02*
X67228571Y-54597676D01*
X67228571Y-54597676D02*
X67133333Y-54692914D01*
X67133333Y-54692914D02*
X67038095Y-54740533D01*
X67942857Y-54454819D02*
X68609523Y-54454819D01*
X68609523Y-54454819D02*
X68180952Y-55454819D01*
X66657142Y-49824819D02*
X66323809Y-49348628D01*
X66085714Y-49824819D02*
X66085714Y-48824819D01*
X66085714Y-48824819D02*
X66466666Y-48824819D01*
X66466666Y-48824819D02*
X66561904Y-48872438D01*
X66561904Y-48872438D02*
X66609523Y-48920057D01*
X66609523Y-48920057D02*
X66657142Y-49015295D01*
X66657142Y-49015295D02*
X66657142Y-49158152D01*
X66657142Y-49158152D02*
X66609523Y-49253390D01*
X66609523Y-49253390D02*
X66561904Y-49301009D01*
X66561904Y-49301009D02*
X66466666Y-49348628D01*
X66466666Y-49348628D02*
X66085714Y-49348628D01*
X67609523Y-49824819D02*
X67038095Y-49824819D01*
X67323809Y-49824819D02*
X67323809Y-48824819D01*
X67323809Y-48824819D02*
X67228571Y-48967676D01*
X67228571Y-48967676D02*
X67133333Y-49062914D01*
X67133333Y-49062914D02*
X67038095Y-49110533D01*
X68466666Y-48824819D02*
X68276190Y-48824819D01*
X68276190Y-48824819D02*
X68180952Y-48872438D01*
X68180952Y-48872438D02*
X68133333Y-48920057D01*
X68133333Y-48920057D02*
X68038095Y-49062914D01*
X68038095Y-49062914D02*
X67990476Y-49253390D01*
X67990476Y-49253390D02*
X67990476Y-49634342D01*
X67990476Y-49634342D02*
X68038095Y-49729580D01*
X68038095Y-49729580D02*
X68085714Y-49777200D01*
X68085714Y-49777200D02*
X68180952Y-49824819D01*
X68180952Y-49824819D02*
X68371428Y-49824819D01*
X68371428Y-49824819D02*
X68466666Y-49777200D01*
X68466666Y-49777200D02*
X68514285Y-49729580D01*
X68514285Y-49729580D02*
X68561904Y-49634342D01*
X68561904Y-49634342D02*
X68561904Y-49396247D01*
X68561904Y-49396247D02*
X68514285Y-49301009D01*
X68514285Y-49301009D02*
X68466666Y-49253390D01*
X68466666Y-49253390D02*
X68371428Y-49205771D01*
X68371428Y-49205771D02*
X68180952Y-49205771D01*
X68180952Y-49205771D02*
X68085714Y-49253390D01*
X68085714Y-49253390D02*
X68038095Y-49301009D01*
X68038095Y-49301009D02*
X67990476Y-49396247D01*
X132757142Y-53754819D02*
X132423809Y-53278628D01*
X132185714Y-53754819D02*
X132185714Y-52754819D01*
X132185714Y-52754819D02*
X132566666Y-52754819D01*
X132566666Y-52754819D02*
X132661904Y-52802438D01*
X132661904Y-52802438D02*
X132709523Y-52850057D01*
X132709523Y-52850057D02*
X132757142Y-52945295D01*
X132757142Y-52945295D02*
X132757142Y-53088152D01*
X132757142Y-53088152D02*
X132709523Y-53183390D01*
X132709523Y-53183390D02*
X132661904Y-53231009D01*
X132661904Y-53231009D02*
X132566666Y-53278628D01*
X132566666Y-53278628D02*
X132185714Y-53278628D01*
X133709523Y-53754819D02*
X133138095Y-53754819D01*
X133423809Y-53754819D02*
X133423809Y-52754819D01*
X133423809Y-52754819D02*
X133328571Y-52897676D01*
X133328571Y-52897676D02*
X133233333Y-52992914D01*
X133233333Y-52992914D02*
X133138095Y-53040533D01*
X134614285Y-52754819D02*
X134138095Y-52754819D01*
X134138095Y-52754819D02*
X134090476Y-53231009D01*
X134090476Y-53231009D02*
X134138095Y-53183390D01*
X134138095Y-53183390D02*
X134233333Y-53135771D01*
X134233333Y-53135771D02*
X134471428Y-53135771D01*
X134471428Y-53135771D02*
X134566666Y-53183390D01*
X134566666Y-53183390D02*
X134614285Y-53231009D01*
X134614285Y-53231009D02*
X134661904Y-53326247D01*
X134661904Y-53326247D02*
X134661904Y-53564342D01*
X134661904Y-53564342D02*
X134614285Y-53659580D01*
X134614285Y-53659580D02*
X134566666Y-53707200D01*
X134566666Y-53707200D02*
X134471428Y-53754819D01*
X134471428Y-53754819D02*
X134233333Y-53754819D01*
X134233333Y-53754819D02*
X134138095Y-53707200D01*
X134138095Y-53707200D02*
X134090476Y-53659580D01*
X129057142Y-49824819D02*
X128723809Y-49348628D01*
X128485714Y-49824819D02*
X128485714Y-48824819D01*
X128485714Y-48824819D02*
X128866666Y-48824819D01*
X128866666Y-48824819D02*
X128961904Y-48872438D01*
X128961904Y-48872438D02*
X129009523Y-48920057D01*
X129009523Y-48920057D02*
X129057142Y-49015295D01*
X129057142Y-49015295D02*
X129057142Y-49158152D01*
X129057142Y-49158152D02*
X129009523Y-49253390D01*
X129009523Y-49253390D02*
X128961904Y-49301009D01*
X128961904Y-49301009D02*
X128866666Y-49348628D01*
X128866666Y-49348628D02*
X128485714Y-49348628D01*
X130009523Y-49824819D02*
X129438095Y-49824819D01*
X129723809Y-49824819D02*
X129723809Y-48824819D01*
X129723809Y-48824819D02*
X129628571Y-48967676D01*
X129628571Y-48967676D02*
X129533333Y-49062914D01*
X129533333Y-49062914D02*
X129438095Y-49110533D01*
X130866666Y-49158152D02*
X130866666Y-49824819D01*
X130628571Y-48777200D02*
X130390476Y-49491485D01*
X130390476Y-49491485D02*
X131009523Y-49491485D01*
X119557142Y-38324819D02*
X119223809Y-37848628D01*
X118985714Y-38324819D02*
X118985714Y-37324819D01*
X118985714Y-37324819D02*
X119366666Y-37324819D01*
X119366666Y-37324819D02*
X119461904Y-37372438D01*
X119461904Y-37372438D02*
X119509523Y-37420057D01*
X119509523Y-37420057D02*
X119557142Y-37515295D01*
X119557142Y-37515295D02*
X119557142Y-37658152D01*
X119557142Y-37658152D02*
X119509523Y-37753390D01*
X119509523Y-37753390D02*
X119461904Y-37801009D01*
X119461904Y-37801009D02*
X119366666Y-37848628D01*
X119366666Y-37848628D02*
X118985714Y-37848628D01*
X120509523Y-38324819D02*
X119938095Y-38324819D01*
X120223809Y-38324819D02*
X120223809Y-37324819D01*
X120223809Y-37324819D02*
X120128571Y-37467676D01*
X120128571Y-37467676D02*
X120033333Y-37562914D01*
X120033333Y-37562914D02*
X119938095Y-37610533D01*
X121461904Y-38324819D02*
X120890476Y-38324819D01*
X121176190Y-38324819D02*
X121176190Y-37324819D01*
X121176190Y-37324819D02*
X121080952Y-37467676D01*
X121080952Y-37467676D02*
X120985714Y-37562914D01*
X120985714Y-37562914D02*
X120890476Y-37610533D01*
X119657142Y-34024819D02*
X119323809Y-33548628D01*
X119085714Y-34024819D02*
X119085714Y-33024819D01*
X119085714Y-33024819D02*
X119466666Y-33024819D01*
X119466666Y-33024819D02*
X119561904Y-33072438D01*
X119561904Y-33072438D02*
X119609523Y-33120057D01*
X119609523Y-33120057D02*
X119657142Y-33215295D01*
X119657142Y-33215295D02*
X119657142Y-33358152D01*
X119657142Y-33358152D02*
X119609523Y-33453390D01*
X119609523Y-33453390D02*
X119561904Y-33501009D01*
X119561904Y-33501009D02*
X119466666Y-33548628D01*
X119466666Y-33548628D02*
X119085714Y-33548628D01*
X120609523Y-34024819D02*
X120038095Y-34024819D01*
X120323809Y-34024819D02*
X120323809Y-33024819D01*
X120323809Y-33024819D02*
X120228571Y-33167676D01*
X120228571Y-33167676D02*
X120133333Y-33262914D01*
X120133333Y-33262914D02*
X120038095Y-33310533D01*
X121228571Y-33024819D02*
X121323809Y-33024819D01*
X121323809Y-33024819D02*
X121419047Y-33072438D01*
X121419047Y-33072438D02*
X121466666Y-33120057D01*
X121466666Y-33120057D02*
X121514285Y-33215295D01*
X121514285Y-33215295D02*
X121561904Y-33405771D01*
X121561904Y-33405771D02*
X121561904Y-33643866D01*
X121561904Y-33643866D02*
X121514285Y-33834342D01*
X121514285Y-33834342D02*
X121466666Y-33929580D01*
X121466666Y-33929580D02*
X121419047Y-33977200D01*
X121419047Y-33977200D02*
X121323809Y-34024819D01*
X121323809Y-34024819D02*
X121228571Y-34024819D01*
X121228571Y-34024819D02*
X121133333Y-33977200D01*
X121133333Y-33977200D02*
X121085714Y-33929580D01*
X121085714Y-33929580D02*
X121038095Y-33834342D01*
X121038095Y-33834342D02*
X120990476Y-33643866D01*
X120990476Y-33643866D02*
X120990476Y-33405771D01*
X120990476Y-33405771D02*
X121038095Y-33215295D01*
X121038095Y-33215295D02*
X121085714Y-33120057D01*
X121085714Y-33120057D02*
X121133333Y-33072438D01*
X121133333Y-33072438D02*
X121228571Y-33024819D01*
X83808833Y-36124819D02*
X83475500Y-35648628D01*
X83237405Y-36124819D02*
X83237405Y-35124819D01*
X83237405Y-35124819D02*
X83618357Y-35124819D01*
X83618357Y-35124819D02*
X83713595Y-35172438D01*
X83713595Y-35172438D02*
X83761214Y-35220057D01*
X83761214Y-35220057D02*
X83808833Y-35315295D01*
X83808833Y-35315295D02*
X83808833Y-35458152D01*
X83808833Y-35458152D02*
X83761214Y-35553390D01*
X83761214Y-35553390D02*
X83713595Y-35601009D01*
X83713595Y-35601009D02*
X83618357Y-35648628D01*
X83618357Y-35648628D02*
X83237405Y-35648628D01*
X84285024Y-36124819D02*
X84475500Y-36124819D01*
X84475500Y-36124819D02*
X84570738Y-36077200D01*
X84570738Y-36077200D02*
X84618357Y-36029580D01*
X84618357Y-36029580D02*
X84713595Y-35886723D01*
X84713595Y-35886723D02*
X84761214Y-35696247D01*
X84761214Y-35696247D02*
X84761214Y-35315295D01*
X84761214Y-35315295D02*
X84713595Y-35220057D01*
X84713595Y-35220057D02*
X84665976Y-35172438D01*
X84665976Y-35172438D02*
X84570738Y-35124819D01*
X84570738Y-35124819D02*
X84380262Y-35124819D01*
X84380262Y-35124819D02*
X84285024Y-35172438D01*
X84285024Y-35172438D02*
X84237405Y-35220057D01*
X84237405Y-35220057D02*
X84189786Y-35315295D01*
X84189786Y-35315295D02*
X84189786Y-35553390D01*
X84189786Y-35553390D02*
X84237405Y-35648628D01*
X84237405Y-35648628D02*
X84285024Y-35696247D01*
X84285024Y-35696247D02*
X84380262Y-35743866D01*
X84380262Y-35743866D02*
X84570738Y-35743866D01*
X84570738Y-35743866D02*
X84665976Y-35696247D01*
X84665976Y-35696247D02*
X84713595Y-35648628D01*
X84713595Y-35648628D02*
X84761214Y-35553390D01*
X89408833Y-47724819D02*
X89075500Y-47248628D01*
X88837405Y-47724819D02*
X88837405Y-46724819D01*
X88837405Y-46724819D02*
X89218357Y-46724819D01*
X89218357Y-46724819D02*
X89313595Y-46772438D01*
X89313595Y-46772438D02*
X89361214Y-46820057D01*
X89361214Y-46820057D02*
X89408833Y-46915295D01*
X89408833Y-46915295D02*
X89408833Y-47058152D01*
X89408833Y-47058152D02*
X89361214Y-47153390D01*
X89361214Y-47153390D02*
X89313595Y-47201009D01*
X89313595Y-47201009D02*
X89218357Y-47248628D01*
X89218357Y-47248628D02*
X88837405Y-47248628D01*
X89742167Y-46724819D02*
X90408833Y-46724819D01*
X90408833Y-46724819D02*
X89980262Y-47724819D01*
X89421333Y-44724819D02*
X89088000Y-44248628D01*
X88849905Y-44724819D02*
X88849905Y-43724819D01*
X88849905Y-43724819D02*
X89230857Y-43724819D01*
X89230857Y-43724819D02*
X89326095Y-43772438D01*
X89326095Y-43772438D02*
X89373714Y-43820057D01*
X89373714Y-43820057D02*
X89421333Y-43915295D01*
X89421333Y-43915295D02*
X89421333Y-44058152D01*
X89421333Y-44058152D02*
X89373714Y-44153390D01*
X89373714Y-44153390D02*
X89326095Y-44201009D01*
X89326095Y-44201009D02*
X89230857Y-44248628D01*
X89230857Y-44248628D02*
X88849905Y-44248628D01*
X90278476Y-43724819D02*
X90088000Y-43724819D01*
X90088000Y-43724819D02*
X89992762Y-43772438D01*
X89992762Y-43772438D02*
X89945143Y-43820057D01*
X89945143Y-43820057D02*
X89849905Y-43962914D01*
X89849905Y-43962914D02*
X89802286Y-44153390D01*
X89802286Y-44153390D02*
X89802286Y-44534342D01*
X89802286Y-44534342D02*
X89849905Y-44629580D01*
X89849905Y-44629580D02*
X89897524Y-44677200D01*
X89897524Y-44677200D02*
X89992762Y-44724819D01*
X89992762Y-44724819D02*
X90183238Y-44724819D01*
X90183238Y-44724819D02*
X90278476Y-44677200D01*
X90278476Y-44677200D02*
X90326095Y-44629580D01*
X90326095Y-44629580D02*
X90373714Y-44534342D01*
X90373714Y-44534342D02*
X90373714Y-44296247D01*
X90373714Y-44296247D02*
X90326095Y-44201009D01*
X90326095Y-44201009D02*
X90278476Y-44153390D01*
X90278476Y-44153390D02*
X90183238Y-44105771D01*
X90183238Y-44105771D02*
X89992762Y-44105771D01*
X89992762Y-44105771D02*
X89897524Y-44153390D01*
X89897524Y-44153390D02*
X89849905Y-44201009D01*
X89849905Y-44201009D02*
X89802286Y-44296247D01*
X83808833Y-33224819D02*
X83475500Y-32748628D01*
X83237405Y-33224819D02*
X83237405Y-32224819D01*
X83237405Y-32224819D02*
X83618357Y-32224819D01*
X83618357Y-32224819D02*
X83713595Y-32272438D01*
X83713595Y-32272438D02*
X83761214Y-32320057D01*
X83761214Y-32320057D02*
X83808833Y-32415295D01*
X83808833Y-32415295D02*
X83808833Y-32558152D01*
X83808833Y-32558152D02*
X83761214Y-32653390D01*
X83761214Y-32653390D02*
X83713595Y-32701009D01*
X83713595Y-32701009D02*
X83618357Y-32748628D01*
X83618357Y-32748628D02*
X83237405Y-32748628D01*
X84713595Y-32224819D02*
X84237405Y-32224819D01*
X84237405Y-32224819D02*
X84189786Y-32701009D01*
X84189786Y-32701009D02*
X84237405Y-32653390D01*
X84237405Y-32653390D02*
X84332643Y-32605771D01*
X84332643Y-32605771D02*
X84570738Y-32605771D01*
X84570738Y-32605771D02*
X84665976Y-32653390D01*
X84665976Y-32653390D02*
X84713595Y-32701009D01*
X84713595Y-32701009D02*
X84761214Y-32796247D01*
X84761214Y-32796247D02*
X84761214Y-33034342D01*
X84761214Y-33034342D02*
X84713595Y-33129580D01*
X84713595Y-33129580D02*
X84665976Y-33177200D01*
X84665976Y-33177200D02*
X84570738Y-33224819D01*
X84570738Y-33224819D02*
X84332643Y-33224819D01*
X84332643Y-33224819D02*
X84237405Y-33177200D01*
X84237405Y-33177200D02*
X84189786Y-33129580D01*
X89120833Y-59284819D02*
X88787500Y-58808628D01*
X88549405Y-59284819D02*
X88549405Y-58284819D01*
X88549405Y-58284819D02*
X88930357Y-58284819D01*
X88930357Y-58284819D02*
X89025595Y-58332438D01*
X89025595Y-58332438D02*
X89073214Y-58380057D01*
X89073214Y-58380057D02*
X89120833Y-58475295D01*
X89120833Y-58475295D02*
X89120833Y-58618152D01*
X89120833Y-58618152D02*
X89073214Y-58713390D01*
X89073214Y-58713390D02*
X89025595Y-58761009D01*
X89025595Y-58761009D02*
X88930357Y-58808628D01*
X88930357Y-58808628D02*
X88549405Y-58808628D01*
X89977976Y-58618152D02*
X89977976Y-59284819D01*
X89739881Y-58237200D02*
X89501786Y-58951485D01*
X89501786Y-58951485D02*
X90120833Y-58951485D01*
X67433333Y-33724819D02*
X67100000Y-33248628D01*
X66861905Y-33724819D02*
X66861905Y-32724819D01*
X66861905Y-32724819D02*
X67242857Y-32724819D01*
X67242857Y-32724819D02*
X67338095Y-32772438D01*
X67338095Y-32772438D02*
X67385714Y-32820057D01*
X67385714Y-32820057D02*
X67433333Y-32915295D01*
X67433333Y-32915295D02*
X67433333Y-33058152D01*
X67433333Y-33058152D02*
X67385714Y-33153390D01*
X67385714Y-33153390D02*
X67338095Y-33201009D01*
X67338095Y-33201009D02*
X67242857Y-33248628D01*
X67242857Y-33248628D02*
X66861905Y-33248628D01*
X67766667Y-32724819D02*
X68385714Y-32724819D01*
X68385714Y-32724819D02*
X68052381Y-33105771D01*
X68052381Y-33105771D02*
X68195238Y-33105771D01*
X68195238Y-33105771D02*
X68290476Y-33153390D01*
X68290476Y-33153390D02*
X68338095Y-33201009D01*
X68338095Y-33201009D02*
X68385714Y-33296247D01*
X68385714Y-33296247D02*
X68385714Y-33534342D01*
X68385714Y-33534342D02*
X68338095Y-33629580D01*
X68338095Y-33629580D02*
X68290476Y-33677200D01*
X68290476Y-33677200D02*
X68195238Y-33724819D01*
X68195238Y-33724819D02*
X67909524Y-33724819D01*
X67909524Y-33724819D02*
X67814286Y-33677200D01*
X67814286Y-33677200D02*
X67766667Y-33629580D01*
X67445833Y-36724819D02*
X67112500Y-36248628D01*
X66874405Y-36724819D02*
X66874405Y-35724819D01*
X66874405Y-35724819D02*
X67255357Y-35724819D01*
X67255357Y-35724819D02*
X67350595Y-35772438D01*
X67350595Y-35772438D02*
X67398214Y-35820057D01*
X67398214Y-35820057D02*
X67445833Y-35915295D01*
X67445833Y-35915295D02*
X67445833Y-36058152D01*
X67445833Y-36058152D02*
X67398214Y-36153390D01*
X67398214Y-36153390D02*
X67350595Y-36201009D01*
X67350595Y-36201009D02*
X67255357Y-36248628D01*
X67255357Y-36248628D02*
X66874405Y-36248628D01*
X67826786Y-35820057D02*
X67874405Y-35772438D01*
X67874405Y-35772438D02*
X67969643Y-35724819D01*
X67969643Y-35724819D02*
X68207738Y-35724819D01*
X68207738Y-35724819D02*
X68302976Y-35772438D01*
X68302976Y-35772438D02*
X68350595Y-35820057D01*
X68350595Y-35820057D02*
X68398214Y-35915295D01*
X68398214Y-35915295D02*
X68398214Y-36010533D01*
X68398214Y-36010533D02*
X68350595Y-36153390D01*
X68350595Y-36153390D02*
X67779167Y-36724819D01*
X67779167Y-36724819D02*
X68398214Y-36724819D01*
X89120833Y-56414819D02*
X88787500Y-55938628D01*
X88549405Y-56414819D02*
X88549405Y-55414819D01*
X88549405Y-55414819D02*
X88930357Y-55414819D01*
X88930357Y-55414819D02*
X89025595Y-55462438D01*
X89025595Y-55462438D02*
X89073214Y-55510057D01*
X89073214Y-55510057D02*
X89120833Y-55605295D01*
X89120833Y-55605295D02*
X89120833Y-55748152D01*
X89120833Y-55748152D02*
X89073214Y-55843390D01*
X89073214Y-55843390D02*
X89025595Y-55891009D01*
X89025595Y-55891009D02*
X88930357Y-55938628D01*
X88930357Y-55938628D02*
X88549405Y-55938628D01*
X90073214Y-56414819D02*
X89501786Y-56414819D01*
X89787500Y-56414819D02*
X89787500Y-55414819D01*
X89787500Y-55414819D02*
X89692262Y-55557676D01*
X89692262Y-55557676D02*
X89597024Y-55652914D01*
X89597024Y-55652914D02*
X89501786Y-55700533D01*
X98790476Y-66754819D02*
X98790476Y-67469104D01*
X98790476Y-67469104D02*
X98742857Y-67611961D01*
X98742857Y-67611961D02*
X98647619Y-67707200D01*
X98647619Y-67707200D02*
X98504762Y-67754819D01*
X98504762Y-67754819D02*
X98409524Y-67754819D01*
X99266667Y-67754819D02*
X99266667Y-66754819D01*
X99266667Y-66754819D02*
X99647619Y-66754819D01*
X99647619Y-66754819D02*
X99742857Y-66802438D01*
X99742857Y-66802438D02*
X99790476Y-66850057D01*
X99790476Y-66850057D02*
X99838095Y-66945295D01*
X99838095Y-66945295D02*
X99838095Y-67088152D01*
X99838095Y-67088152D02*
X99790476Y-67183390D01*
X99790476Y-67183390D02*
X99742857Y-67231009D01*
X99742857Y-67231009D02*
X99647619Y-67278628D01*
X99647619Y-67278628D02*
X99266667Y-67278628D01*
X100219048Y-66850057D02*
X100266667Y-66802438D01*
X100266667Y-66802438D02*
X100361905Y-66754819D01*
X100361905Y-66754819D02*
X100600000Y-66754819D01*
X100600000Y-66754819D02*
X100695238Y-66802438D01*
X100695238Y-66802438D02*
X100742857Y-66850057D01*
X100742857Y-66850057D02*
X100790476Y-66945295D01*
X100790476Y-66945295D02*
X100790476Y-67040533D01*
X100790476Y-67040533D02*
X100742857Y-67183390D01*
X100742857Y-67183390D02*
X100171429Y-67754819D01*
X100171429Y-67754819D02*
X100790476Y-67754819D01*
X101647619Y-67088152D02*
X101647619Y-67754819D01*
X101409524Y-66707200D02*
X101171429Y-67421485D01*
X101171429Y-67421485D02*
X101790476Y-67421485D01*
X98454819Y-44759523D02*
X99169104Y-44759523D01*
X99169104Y-44759523D02*
X99311961Y-44807142D01*
X99311961Y-44807142D02*
X99407200Y-44902380D01*
X99407200Y-44902380D02*
X99454819Y-45045237D01*
X99454819Y-45045237D02*
X99454819Y-45140475D01*
X99454819Y-44283332D02*
X98454819Y-44283332D01*
X98454819Y-44283332D02*
X98454819Y-43902380D01*
X98454819Y-43902380D02*
X98502438Y-43807142D01*
X98502438Y-43807142D02*
X98550057Y-43759523D01*
X98550057Y-43759523D02*
X98645295Y-43711904D01*
X98645295Y-43711904D02*
X98788152Y-43711904D01*
X98788152Y-43711904D02*
X98883390Y-43759523D01*
X98883390Y-43759523D02*
X98931009Y-43807142D01*
X98931009Y-43807142D02*
X98978628Y-43902380D01*
X98978628Y-43902380D02*
X98978628Y-44283332D01*
X98550057Y-43330951D02*
X98502438Y-43283332D01*
X98502438Y-43283332D02*
X98454819Y-43188094D01*
X98454819Y-43188094D02*
X98454819Y-42949999D01*
X98454819Y-42949999D02*
X98502438Y-42854761D01*
X98502438Y-42854761D02*
X98550057Y-42807142D01*
X98550057Y-42807142D02*
X98645295Y-42759523D01*
X98645295Y-42759523D02*
X98740533Y-42759523D01*
X98740533Y-42759523D02*
X98883390Y-42807142D01*
X98883390Y-42807142D02*
X99454819Y-43378570D01*
X99454819Y-43378570D02*
X99454819Y-42759523D01*
X98454819Y-42426189D02*
X98454819Y-41807142D01*
X98454819Y-41807142D02*
X98835771Y-42140475D01*
X98835771Y-42140475D02*
X98835771Y-41997618D01*
X98835771Y-41997618D02*
X98883390Y-41902380D01*
X98883390Y-41902380D02*
X98931009Y-41854761D01*
X98931009Y-41854761D02*
X99026247Y-41807142D01*
X99026247Y-41807142D02*
X99264342Y-41807142D01*
X99264342Y-41807142D02*
X99359580Y-41854761D01*
X99359580Y-41854761D02*
X99407200Y-41902380D01*
X99407200Y-41902380D02*
X99454819Y-41997618D01*
X99454819Y-41997618D02*
X99454819Y-42283332D01*
X99454819Y-42283332D02*
X99407200Y-42378570D01*
X99407200Y-42378570D02*
X99359580Y-42426189D01*
X134554819Y-45909523D02*
X135269104Y-45909523D01*
X135269104Y-45909523D02*
X135411961Y-45957142D01*
X135411961Y-45957142D02*
X135507200Y-46052380D01*
X135507200Y-46052380D02*
X135554819Y-46195237D01*
X135554819Y-46195237D02*
X135554819Y-46290475D01*
X135554819Y-45433332D02*
X134554819Y-45433332D01*
X134554819Y-45433332D02*
X134554819Y-45052380D01*
X134554819Y-45052380D02*
X134602438Y-44957142D01*
X134602438Y-44957142D02*
X134650057Y-44909523D01*
X134650057Y-44909523D02*
X134745295Y-44861904D01*
X134745295Y-44861904D02*
X134888152Y-44861904D01*
X134888152Y-44861904D02*
X134983390Y-44909523D01*
X134983390Y-44909523D02*
X135031009Y-44957142D01*
X135031009Y-44957142D02*
X135078628Y-45052380D01*
X135078628Y-45052380D02*
X135078628Y-45433332D01*
X134650057Y-44480951D02*
X134602438Y-44433332D01*
X134602438Y-44433332D02*
X134554819Y-44338094D01*
X134554819Y-44338094D02*
X134554819Y-44099999D01*
X134554819Y-44099999D02*
X134602438Y-44004761D01*
X134602438Y-44004761D02*
X134650057Y-43957142D01*
X134650057Y-43957142D02*
X134745295Y-43909523D01*
X134745295Y-43909523D02*
X134840533Y-43909523D01*
X134840533Y-43909523D02*
X134983390Y-43957142D01*
X134983390Y-43957142D02*
X135554819Y-44528570D01*
X135554819Y-44528570D02*
X135554819Y-43909523D01*
X134650057Y-43528570D02*
X134602438Y-43480951D01*
X134602438Y-43480951D02*
X134554819Y-43385713D01*
X134554819Y-43385713D02*
X134554819Y-43147618D01*
X134554819Y-43147618D02*
X134602438Y-43052380D01*
X134602438Y-43052380D02*
X134650057Y-43004761D01*
X134650057Y-43004761D02*
X134745295Y-42957142D01*
X134745295Y-42957142D02*
X134840533Y-42957142D01*
X134840533Y-42957142D02*
X134983390Y-43004761D01*
X134983390Y-43004761D02*
X135554819Y-43576189D01*
X135554819Y-43576189D02*
X135554819Y-42957142D01*
X98490476Y-51654819D02*
X98490476Y-52369104D01*
X98490476Y-52369104D02*
X98442857Y-52511961D01*
X98442857Y-52511961D02*
X98347619Y-52607200D01*
X98347619Y-52607200D02*
X98204762Y-52654819D01*
X98204762Y-52654819D02*
X98109524Y-52654819D01*
X98966667Y-52654819D02*
X98966667Y-51654819D01*
X98966667Y-51654819D02*
X99347619Y-51654819D01*
X99347619Y-51654819D02*
X99442857Y-51702438D01*
X99442857Y-51702438D02*
X99490476Y-51750057D01*
X99490476Y-51750057D02*
X99538095Y-51845295D01*
X99538095Y-51845295D02*
X99538095Y-51988152D01*
X99538095Y-51988152D02*
X99490476Y-52083390D01*
X99490476Y-52083390D02*
X99442857Y-52131009D01*
X99442857Y-52131009D02*
X99347619Y-52178628D01*
X99347619Y-52178628D02*
X98966667Y-52178628D01*
X99919048Y-51750057D02*
X99966667Y-51702438D01*
X99966667Y-51702438D02*
X100061905Y-51654819D01*
X100061905Y-51654819D02*
X100300000Y-51654819D01*
X100300000Y-51654819D02*
X100395238Y-51702438D01*
X100395238Y-51702438D02*
X100442857Y-51750057D01*
X100442857Y-51750057D02*
X100490476Y-51845295D01*
X100490476Y-51845295D02*
X100490476Y-51940533D01*
X100490476Y-51940533D02*
X100442857Y-52083390D01*
X100442857Y-52083390D02*
X99871429Y-52654819D01*
X99871429Y-52654819D02*
X100490476Y-52654819D01*
X101442857Y-52654819D02*
X100871429Y-52654819D01*
X101157143Y-52654819D02*
X101157143Y-51654819D01*
X101157143Y-51654819D02*
X101061905Y-51797676D01*
X101061905Y-51797676D02*
X100966667Y-51892914D01*
X100966667Y-51892914D02*
X100871429Y-51940533D01*
X108990476Y-52054819D02*
X108990476Y-52769104D01*
X108990476Y-52769104D02*
X108942857Y-52911961D01*
X108942857Y-52911961D02*
X108847619Y-53007200D01*
X108847619Y-53007200D02*
X108704762Y-53054819D01*
X108704762Y-53054819D02*
X108609524Y-53054819D01*
X109466667Y-53054819D02*
X109466667Y-52054819D01*
X109466667Y-52054819D02*
X109847619Y-52054819D01*
X109847619Y-52054819D02*
X109942857Y-52102438D01*
X109942857Y-52102438D02*
X109990476Y-52150057D01*
X109990476Y-52150057D02*
X110038095Y-52245295D01*
X110038095Y-52245295D02*
X110038095Y-52388152D01*
X110038095Y-52388152D02*
X109990476Y-52483390D01*
X109990476Y-52483390D02*
X109942857Y-52531009D01*
X109942857Y-52531009D02*
X109847619Y-52578628D01*
X109847619Y-52578628D02*
X109466667Y-52578628D01*
X110419048Y-52150057D02*
X110466667Y-52102438D01*
X110466667Y-52102438D02*
X110561905Y-52054819D01*
X110561905Y-52054819D02*
X110800000Y-52054819D01*
X110800000Y-52054819D02*
X110895238Y-52102438D01*
X110895238Y-52102438D02*
X110942857Y-52150057D01*
X110942857Y-52150057D02*
X110990476Y-52245295D01*
X110990476Y-52245295D02*
X110990476Y-52340533D01*
X110990476Y-52340533D02*
X110942857Y-52483390D01*
X110942857Y-52483390D02*
X110371429Y-53054819D01*
X110371429Y-53054819D02*
X110990476Y-53054819D01*
X111609524Y-52054819D02*
X111704762Y-52054819D01*
X111704762Y-52054819D02*
X111800000Y-52102438D01*
X111800000Y-52102438D02*
X111847619Y-52150057D01*
X111847619Y-52150057D02*
X111895238Y-52245295D01*
X111895238Y-52245295D02*
X111942857Y-52435771D01*
X111942857Y-52435771D02*
X111942857Y-52673866D01*
X111942857Y-52673866D02*
X111895238Y-52864342D01*
X111895238Y-52864342D02*
X111847619Y-52959580D01*
X111847619Y-52959580D02*
X111800000Y-53007200D01*
X111800000Y-53007200D02*
X111704762Y-53054819D01*
X111704762Y-53054819D02*
X111609524Y-53054819D01*
X111609524Y-53054819D02*
X111514286Y-53007200D01*
X111514286Y-53007200D02*
X111466667Y-52959580D01*
X111466667Y-52959580D02*
X111419048Y-52864342D01*
X111419048Y-52864342D02*
X111371429Y-52673866D01*
X111371429Y-52673866D02*
X111371429Y-52435771D01*
X111371429Y-52435771D02*
X111419048Y-52245295D01*
X111419048Y-52245295D02*
X111466667Y-52150057D01*
X111466667Y-52150057D02*
X111514286Y-52102438D01*
X111514286Y-52102438D02*
X111609524Y-52054819D01*
X124266666Y-53497319D02*
X124266666Y-54211604D01*
X124266666Y-54211604D02*
X124219047Y-54354461D01*
X124219047Y-54354461D02*
X124123809Y-54449700D01*
X124123809Y-54449700D02*
X123980952Y-54497319D01*
X123980952Y-54497319D02*
X123885714Y-54497319D01*
X124742857Y-54497319D02*
X124742857Y-53497319D01*
X124742857Y-53497319D02*
X125123809Y-53497319D01*
X125123809Y-53497319D02*
X125219047Y-53544938D01*
X125219047Y-53544938D02*
X125266666Y-53592557D01*
X125266666Y-53592557D02*
X125314285Y-53687795D01*
X125314285Y-53687795D02*
X125314285Y-53830652D01*
X125314285Y-53830652D02*
X125266666Y-53925890D01*
X125266666Y-53925890D02*
X125219047Y-53973509D01*
X125219047Y-53973509D02*
X125123809Y-54021128D01*
X125123809Y-54021128D02*
X124742857Y-54021128D01*
X125695238Y-53592557D02*
X125742857Y-53544938D01*
X125742857Y-53544938D02*
X125838095Y-53497319D01*
X125838095Y-53497319D02*
X126076190Y-53497319D01*
X126076190Y-53497319D02*
X126171428Y-53544938D01*
X126171428Y-53544938D02*
X126219047Y-53592557D01*
X126219047Y-53592557D02*
X126266666Y-53687795D01*
X126266666Y-53687795D02*
X126266666Y-53783033D01*
X126266666Y-53783033D02*
X126219047Y-53925890D01*
X126219047Y-53925890D02*
X125647619Y-54497319D01*
X125647619Y-54497319D02*
X126266666Y-54497319D01*
X121504819Y-67533333D02*
X122219104Y-67533333D01*
X122219104Y-67533333D02*
X122361961Y-67580952D01*
X122361961Y-67580952D02*
X122457200Y-67676190D01*
X122457200Y-67676190D02*
X122504819Y-67819047D01*
X122504819Y-67819047D02*
X122504819Y-67914285D01*
X121504819Y-66580952D02*
X121504819Y-67057142D01*
X121504819Y-67057142D02*
X121981009Y-67104761D01*
X121981009Y-67104761D02*
X121933390Y-67057142D01*
X121933390Y-67057142D02*
X121885771Y-66961904D01*
X121885771Y-66961904D02*
X121885771Y-66723809D01*
X121885771Y-66723809D02*
X121933390Y-66628571D01*
X121933390Y-66628571D02*
X121981009Y-66580952D01*
X121981009Y-66580952D02*
X122076247Y-66533333D01*
X122076247Y-66533333D02*
X122314342Y-66533333D01*
X122314342Y-66533333D02*
X122409580Y-66580952D01*
X122409580Y-66580952D02*
X122457200Y-66628571D01*
X122457200Y-66628571D02*
X122504819Y-66723809D01*
X122504819Y-66723809D02*
X122504819Y-66961904D01*
X122504819Y-66961904D02*
X122457200Y-67057142D01*
X122457200Y-67057142D02*
X122409580Y-67104761D01*
X114816666Y-84922319D02*
X114816666Y-85636604D01*
X114816666Y-85636604D02*
X114769047Y-85779461D01*
X114769047Y-85779461D02*
X114673809Y-85874700D01*
X114673809Y-85874700D02*
X114530952Y-85922319D01*
X114530952Y-85922319D02*
X114435714Y-85922319D01*
X115245238Y-85017557D02*
X115292857Y-84969938D01*
X115292857Y-84969938D02*
X115388095Y-84922319D01*
X115388095Y-84922319D02*
X115626190Y-84922319D01*
X115626190Y-84922319D02*
X115721428Y-84969938D01*
X115721428Y-84969938D02*
X115769047Y-85017557D01*
X115769047Y-85017557D02*
X115816666Y-85112795D01*
X115816666Y-85112795D02*
X115816666Y-85208033D01*
X115816666Y-85208033D02*
X115769047Y-85350890D01*
X115769047Y-85350890D02*
X115197619Y-85922319D01*
X115197619Y-85922319D02*
X115816666Y-85922319D01*
X68934819Y-67513333D02*
X69649104Y-67513333D01*
X69649104Y-67513333D02*
X69791961Y-67560952D01*
X69791961Y-67560952D02*
X69887200Y-67656190D01*
X69887200Y-67656190D02*
X69934819Y-67799047D01*
X69934819Y-67799047D02*
X69934819Y-67894285D01*
X69934819Y-66513333D02*
X69934819Y-67084761D01*
X69934819Y-66799047D02*
X68934819Y-66799047D01*
X68934819Y-66799047D02*
X69077676Y-66894285D01*
X69077676Y-66894285D02*
X69172914Y-66989523D01*
X69172914Y-66989523D02*
X69220533Y-67084761D01*
X99957142Y-61929580D02*
X99909523Y-61977200D01*
X99909523Y-61977200D02*
X99766666Y-62024819D01*
X99766666Y-62024819D02*
X99671428Y-62024819D01*
X99671428Y-62024819D02*
X99528571Y-61977200D01*
X99528571Y-61977200D02*
X99433333Y-61881961D01*
X99433333Y-61881961D02*
X99385714Y-61786723D01*
X99385714Y-61786723D02*
X99338095Y-61596247D01*
X99338095Y-61596247D02*
X99338095Y-61453390D01*
X99338095Y-61453390D02*
X99385714Y-61262914D01*
X99385714Y-61262914D02*
X99433333Y-61167676D01*
X99433333Y-61167676D02*
X99528571Y-61072438D01*
X99528571Y-61072438D02*
X99671428Y-61024819D01*
X99671428Y-61024819D02*
X99766666Y-61024819D01*
X99766666Y-61024819D02*
X99909523Y-61072438D01*
X99909523Y-61072438D02*
X99957142Y-61120057D01*
X100909523Y-62024819D02*
X100338095Y-62024819D01*
X100623809Y-62024819D02*
X100623809Y-61024819D01*
X100623809Y-61024819D02*
X100528571Y-61167676D01*
X100528571Y-61167676D02*
X100433333Y-61262914D01*
X100433333Y-61262914D02*
X100338095Y-61310533D01*
X101528571Y-61024819D02*
X101623809Y-61024819D01*
X101623809Y-61024819D02*
X101719047Y-61072438D01*
X101719047Y-61072438D02*
X101766666Y-61120057D01*
X101766666Y-61120057D02*
X101814285Y-61215295D01*
X101814285Y-61215295D02*
X101861904Y-61405771D01*
X101861904Y-61405771D02*
X101861904Y-61643866D01*
X101861904Y-61643866D02*
X101814285Y-61834342D01*
X101814285Y-61834342D02*
X101766666Y-61929580D01*
X101766666Y-61929580D02*
X101719047Y-61977200D01*
X101719047Y-61977200D02*
X101623809Y-62024819D01*
X101623809Y-62024819D02*
X101528571Y-62024819D01*
X101528571Y-62024819D02*
X101433333Y-61977200D01*
X101433333Y-61977200D02*
X101385714Y-61929580D01*
X101385714Y-61929580D02*
X101338095Y-61834342D01*
X101338095Y-61834342D02*
X101290476Y-61643866D01*
X101290476Y-61643866D02*
X101290476Y-61405771D01*
X101290476Y-61405771D02*
X101338095Y-61215295D01*
X101338095Y-61215295D02*
X101385714Y-61120057D01*
X101385714Y-61120057D02*
X101433333Y-61072438D01*
X101433333Y-61072438D02*
X101528571Y-61024819D01*
X89165656Y-70509580D02*
X89118037Y-70557200D01*
X89118037Y-70557200D02*
X88975180Y-70604819D01*
X88975180Y-70604819D02*
X88879942Y-70604819D01*
X88879942Y-70604819D02*
X88737085Y-70557200D01*
X88737085Y-70557200D02*
X88641847Y-70461961D01*
X88641847Y-70461961D02*
X88594228Y-70366723D01*
X88594228Y-70366723D02*
X88546609Y-70176247D01*
X88546609Y-70176247D02*
X88546609Y-70033390D01*
X88546609Y-70033390D02*
X88594228Y-69842914D01*
X88594228Y-69842914D02*
X88641847Y-69747676D01*
X88641847Y-69747676D02*
X88737085Y-69652438D01*
X88737085Y-69652438D02*
X88879942Y-69604819D01*
X88879942Y-69604819D02*
X88975180Y-69604819D01*
X88975180Y-69604819D02*
X89118037Y-69652438D01*
X89118037Y-69652438D02*
X89165656Y-69700057D01*
X89641847Y-70604819D02*
X89832323Y-70604819D01*
X89832323Y-70604819D02*
X89927561Y-70557200D01*
X89927561Y-70557200D02*
X89975180Y-70509580D01*
X89975180Y-70509580D02*
X90070418Y-70366723D01*
X90070418Y-70366723D02*
X90118037Y-70176247D01*
X90118037Y-70176247D02*
X90118037Y-69795295D01*
X90118037Y-69795295D02*
X90070418Y-69700057D01*
X90070418Y-69700057D02*
X90022799Y-69652438D01*
X90022799Y-69652438D02*
X89927561Y-69604819D01*
X89927561Y-69604819D02*
X89737085Y-69604819D01*
X89737085Y-69604819D02*
X89641847Y-69652438D01*
X89641847Y-69652438D02*
X89594228Y-69700057D01*
X89594228Y-69700057D02*
X89546609Y-69795295D01*
X89546609Y-69795295D02*
X89546609Y-70033390D01*
X89546609Y-70033390D02*
X89594228Y-70128628D01*
X89594228Y-70128628D02*
X89641847Y-70176247D01*
X89641847Y-70176247D02*
X89737085Y-70223866D01*
X89737085Y-70223866D02*
X89927561Y-70223866D01*
X89927561Y-70223866D02*
X90022799Y-70176247D01*
X90022799Y-70176247D02*
X90070418Y-70128628D01*
X90070418Y-70128628D02*
X90118037Y-70033390D01*
X78065656Y-70509580D02*
X78018037Y-70557200D01*
X78018037Y-70557200D02*
X77875180Y-70604819D01*
X77875180Y-70604819D02*
X77779942Y-70604819D01*
X77779942Y-70604819D02*
X77637085Y-70557200D01*
X77637085Y-70557200D02*
X77541847Y-70461961D01*
X77541847Y-70461961D02*
X77494228Y-70366723D01*
X77494228Y-70366723D02*
X77446609Y-70176247D01*
X77446609Y-70176247D02*
X77446609Y-70033390D01*
X77446609Y-70033390D02*
X77494228Y-69842914D01*
X77494228Y-69842914D02*
X77541847Y-69747676D01*
X77541847Y-69747676D02*
X77637085Y-69652438D01*
X77637085Y-69652438D02*
X77779942Y-69604819D01*
X77779942Y-69604819D02*
X77875180Y-69604819D01*
X77875180Y-69604819D02*
X78018037Y-69652438D01*
X78018037Y-69652438D02*
X78065656Y-69700057D01*
X78637085Y-70033390D02*
X78541847Y-69985771D01*
X78541847Y-69985771D02*
X78494228Y-69938152D01*
X78494228Y-69938152D02*
X78446609Y-69842914D01*
X78446609Y-69842914D02*
X78446609Y-69795295D01*
X78446609Y-69795295D02*
X78494228Y-69700057D01*
X78494228Y-69700057D02*
X78541847Y-69652438D01*
X78541847Y-69652438D02*
X78637085Y-69604819D01*
X78637085Y-69604819D02*
X78827561Y-69604819D01*
X78827561Y-69604819D02*
X78922799Y-69652438D01*
X78922799Y-69652438D02*
X78970418Y-69700057D01*
X78970418Y-69700057D02*
X79018037Y-69795295D01*
X79018037Y-69795295D02*
X79018037Y-69842914D01*
X79018037Y-69842914D02*
X78970418Y-69938152D01*
X78970418Y-69938152D02*
X78922799Y-69985771D01*
X78922799Y-69985771D02*
X78827561Y-70033390D01*
X78827561Y-70033390D02*
X78637085Y-70033390D01*
X78637085Y-70033390D02*
X78541847Y-70081009D01*
X78541847Y-70081009D02*
X78494228Y-70128628D01*
X78494228Y-70128628D02*
X78446609Y-70223866D01*
X78446609Y-70223866D02*
X78446609Y-70414342D01*
X78446609Y-70414342D02*
X78494228Y-70509580D01*
X78494228Y-70509580D02*
X78541847Y-70557200D01*
X78541847Y-70557200D02*
X78637085Y-70604819D01*
X78637085Y-70604819D02*
X78827561Y-70604819D01*
X78827561Y-70604819D02*
X78922799Y-70557200D01*
X78922799Y-70557200D02*
X78970418Y-70509580D01*
X78970418Y-70509580D02*
X79018037Y-70414342D01*
X79018037Y-70414342D02*
X79018037Y-70223866D01*
X79018037Y-70223866D02*
X78970418Y-70128628D01*
X78970418Y-70128628D02*
X78922799Y-70081009D01*
X78922799Y-70081009D02*
X78827561Y-70033390D01*
X78065656Y-85109580D02*
X78018037Y-85157200D01*
X78018037Y-85157200D02*
X77875180Y-85204819D01*
X77875180Y-85204819D02*
X77779942Y-85204819D01*
X77779942Y-85204819D02*
X77637085Y-85157200D01*
X77637085Y-85157200D02*
X77541847Y-85061961D01*
X77541847Y-85061961D02*
X77494228Y-84966723D01*
X77494228Y-84966723D02*
X77446609Y-84776247D01*
X77446609Y-84776247D02*
X77446609Y-84633390D01*
X77446609Y-84633390D02*
X77494228Y-84442914D01*
X77494228Y-84442914D02*
X77541847Y-84347676D01*
X77541847Y-84347676D02*
X77637085Y-84252438D01*
X77637085Y-84252438D02*
X77779942Y-84204819D01*
X77779942Y-84204819D02*
X77875180Y-84204819D01*
X77875180Y-84204819D02*
X78018037Y-84252438D01*
X78018037Y-84252438D02*
X78065656Y-84300057D01*
X78398990Y-84204819D02*
X79065656Y-84204819D01*
X79065656Y-84204819D02*
X78637085Y-85204819D01*
X89065656Y-85009580D02*
X89018037Y-85057200D01*
X89018037Y-85057200D02*
X88875180Y-85104819D01*
X88875180Y-85104819D02*
X88779942Y-85104819D01*
X88779942Y-85104819D02*
X88637085Y-85057200D01*
X88637085Y-85057200D02*
X88541847Y-84961961D01*
X88541847Y-84961961D02*
X88494228Y-84866723D01*
X88494228Y-84866723D02*
X88446609Y-84676247D01*
X88446609Y-84676247D02*
X88446609Y-84533390D01*
X88446609Y-84533390D02*
X88494228Y-84342914D01*
X88494228Y-84342914D02*
X88541847Y-84247676D01*
X88541847Y-84247676D02*
X88637085Y-84152438D01*
X88637085Y-84152438D02*
X88779942Y-84104819D01*
X88779942Y-84104819D02*
X88875180Y-84104819D01*
X88875180Y-84104819D02*
X89018037Y-84152438D01*
X89018037Y-84152438D02*
X89065656Y-84200057D01*
X89922799Y-84104819D02*
X89732323Y-84104819D01*
X89732323Y-84104819D02*
X89637085Y-84152438D01*
X89637085Y-84152438D02*
X89589466Y-84200057D01*
X89589466Y-84200057D02*
X89494228Y-84342914D01*
X89494228Y-84342914D02*
X89446609Y-84533390D01*
X89446609Y-84533390D02*
X89446609Y-84914342D01*
X89446609Y-84914342D02*
X89494228Y-85009580D01*
X89494228Y-85009580D02*
X89541847Y-85057200D01*
X89541847Y-85057200D02*
X89637085Y-85104819D01*
X89637085Y-85104819D02*
X89827561Y-85104819D01*
X89827561Y-85104819D02*
X89922799Y-85057200D01*
X89922799Y-85057200D02*
X89970418Y-85009580D01*
X89970418Y-85009580D02*
X90018037Y-84914342D01*
X90018037Y-84914342D02*
X90018037Y-84676247D01*
X90018037Y-84676247D02*
X89970418Y-84581009D01*
X89970418Y-84581009D02*
X89922799Y-84533390D01*
X89922799Y-84533390D02*
X89827561Y-84485771D01*
X89827561Y-84485771D02*
X89637085Y-84485771D01*
X89637085Y-84485771D02*
X89541847Y-84533390D01*
X89541847Y-84533390D02*
X89494228Y-84581009D01*
X89494228Y-84581009D02*
X89446609Y-84676247D01*
X124029580Y-45766666D02*
X124077200Y-45814285D01*
X124077200Y-45814285D02*
X124124819Y-45957142D01*
X124124819Y-45957142D02*
X124124819Y-46052380D01*
X124124819Y-46052380D02*
X124077200Y-46195237D01*
X124077200Y-46195237D02*
X123981961Y-46290475D01*
X123981961Y-46290475D02*
X123886723Y-46338094D01*
X123886723Y-46338094D02*
X123696247Y-46385713D01*
X123696247Y-46385713D02*
X123553390Y-46385713D01*
X123553390Y-46385713D02*
X123362914Y-46338094D01*
X123362914Y-46338094D02*
X123267676Y-46290475D01*
X123267676Y-46290475D02*
X123172438Y-46195237D01*
X123172438Y-46195237D02*
X123124819Y-46052380D01*
X123124819Y-46052380D02*
X123124819Y-45957142D01*
X123124819Y-45957142D02*
X123172438Y-45814285D01*
X123172438Y-45814285D02*
X123220057Y-45766666D01*
X123124819Y-44861904D02*
X123124819Y-45338094D01*
X123124819Y-45338094D02*
X123601009Y-45385713D01*
X123601009Y-45385713D02*
X123553390Y-45338094D01*
X123553390Y-45338094D02*
X123505771Y-45242856D01*
X123505771Y-45242856D02*
X123505771Y-45004761D01*
X123505771Y-45004761D02*
X123553390Y-44909523D01*
X123553390Y-44909523D02*
X123601009Y-44861904D01*
X123601009Y-44861904D02*
X123696247Y-44814285D01*
X123696247Y-44814285D02*
X123934342Y-44814285D01*
X123934342Y-44814285D02*
X124029580Y-44861904D01*
X124029580Y-44861904D02*
X124077200Y-44909523D01*
X124077200Y-44909523D02*
X124124819Y-45004761D01*
X124124819Y-45004761D02*
X124124819Y-45242856D01*
X124124819Y-45242856D02*
X124077200Y-45338094D01*
X124077200Y-45338094D02*
X124029580Y-45385713D01*
X129929580Y-44729166D02*
X129977200Y-44776785D01*
X129977200Y-44776785D02*
X130024819Y-44919642D01*
X130024819Y-44919642D02*
X130024819Y-45014880D01*
X130024819Y-45014880D02*
X129977200Y-45157737D01*
X129977200Y-45157737D02*
X129881961Y-45252975D01*
X129881961Y-45252975D02*
X129786723Y-45300594D01*
X129786723Y-45300594D02*
X129596247Y-45348213D01*
X129596247Y-45348213D02*
X129453390Y-45348213D01*
X129453390Y-45348213D02*
X129262914Y-45300594D01*
X129262914Y-45300594D02*
X129167676Y-45252975D01*
X129167676Y-45252975D02*
X129072438Y-45157737D01*
X129072438Y-45157737D02*
X129024819Y-45014880D01*
X129024819Y-45014880D02*
X129024819Y-44919642D01*
X129024819Y-44919642D02*
X129072438Y-44776785D01*
X129072438Y-44776785D02*
X129120057Y-44729166D01*
X129358152Y-43872023D02*
X130024819Y-43872023D01*
X128977200Y-44110118D02*
X129691485Y-44348213D01*
X129691485Y-44348213D02*
X129691485Y-43729166D01*
X83733333Y-38929580D02*
X83685714Y-38977200D01*
X83685714Y-38977200D02*
X83542857Y-39024819D01*
X83542857Y-39024819D02*
X83447619Y-39024819D01*
X83447619Y-39024819D02*
X83304762Y-38977200D01*
X83304762Y-38977200D02*
X83209524Y-38881961D01*
X83209524Y-38881961D02*
X83161905Y-38786723D01*
X83161905Y-38786723D02*
X83114286Y-38596247D01*
X83114286Y-38596247D02*
X83114286Y-38453390D01*
X83114286Y-38453390D02*
X83161905Y-38262914D01*
X83161905Y-38262914D02*
X83209524Y-38167676D01*
X83209524Y-38167676D02*
X83304762Y-38072438D01*
X83304762Y-38072438D02*
X83447619Y-38024819D01*
X83447619Y-38024819D02*
X83542857Y-38024819D01*
X83542857Y-38024819D02*
X83685714Y-38072438D01*
X83685714Y-38072438D02*
X83733333Y-38120057D01*
X84114286Y-38120057D02*
X84161905Y-38072438D01*
X84161905Y-38072438D02*
X84257143Y-38024819D01*
X84257143Y-38024819D02*
X84495238Y-38024819D01*
X84495238Y-38024819D02*
X84590476Y-38072438D01*
X84590476Y-38072438D02*
X84638095Y-38120057D01*
X84638095Y-38120057D02*
X84685714Y-38215295D01*
X84685714Y-38215295D02*
X84685714Y-38310533D01*
X84685714Y-38310533D02*
X84638095Y-38453390D01*
X84638095Y-38453390D02*
X84066667Y-39024819D01*
X84066667Y-39024819D02*
X84685714Y-39024819D01*
X93929580Y-43616666D02*
X93977200Y-43664285D01*
X93977200Y-43664285D02*
X94024819Y-43807142D01*
X94024819Y-43807142D02*
X94024819Y-43902380D01*
X94024819Y-43902380D02*
X93977200Y-44045237D01*
X93977200Y-44045237D02*
X93881961Y-44140475D01*
X93881961Y-44140475D02*
X93786723Y-44188094D01*
X93786723Y-44188094D02*
X93596247Y-44235713D01*
X93596247Y-44235713D02*
X93453390Y-44235713D01*
X93453390Y-44235713D02*
X93262914Y-44188094D01*
X93262914Y-44188094D02*
X93167676Y-44140475D01*
X93167676Y-44140475D02*
X93072438Y-44045237D01*
X93072438Y-44045237D02*
X93024819Y-43902380D01*
X93024819Y-43902380D02*
X93024819Y-43807142D01*
X93024819Y-43807142D02*
X93072438Y-43664285D01*
X93072438Y-43664285D02*
X93120057Y-43616666D01*
X94024819Y-42664285D02*
X94024819Y-43235713D01*
X94024819Y-42949999D02*
X93024819Y-42949999D01*
X93024819Y-42949999D02*
X93167676Y-43045237D01*
X93167676Y-43045237D02*
X93262914Y-43140475D01*
X93262914Y-43140475D02*
X93310533Y-43235713D01*
D11*
%TO.C,R8*%
X104000000Y-43425000D02*
X105810000Y-43425000D01*
X114400000Y-43425000D02*
X112590000Y-43425000D01*
X104000000Y-41925000D02*
X104000000Y-43425000D01*
X114400000Y-41925000D02*
X114400000Y-43425000D01*
X105810000Y-45987500D02*
X105480000Y-46227500D01*
X105480000Y-45747500D01*
X105810000Y-45987500D01*
G36*
X105810000Y-45987500D02*
G01*
X105480000Y-46227500D01*
X105480000Y-45747500D01*
X105810000Y-45987500D01*
G37*
%TO.C,JP3*%
X66500000Y-45700000D02*
X65900000Y-45700000D01*
X65200000Y-45000000D02*
X65200000Y-43600000D01*
X67200000Y-43600000D02*
X67200000Y-45000000D01*
X65900000Y-42900000D02*
X66500000Y-42900000D01*
X65900000Y-45700000D02*
G75*
G02*
X65200000Y-45000000I-1J699999D01*
G01*
X67200000Y-45000000D02*
G75*
G02*
X66500000Y-45700000I-699999J-1D01*
G01*
X65200000Y-43600000D02*
G75*
G02*
X65900000Y-42900000I700000J0D01*
G01*
X66500000Y-42900000D02*
G75*
G02*
X67200000Y-43600000I0J-700000D01*
G01*
D12*
%TO.C,U2*%
X123602000Y-32438800D02*
X123602000Y-37137800D01*
X123602000Y-37137800D02*
X134016000Y-37137800D01*
X134016000Y-32438800D02*
X123602000Y-32438800D01*
X134016000Y-37137800D02*
X134016000Y-32438800D01*
D11*
%TO.C,U5*%
X106400000Y-64840000D02*
X104450000Y-64840000D01*
X106400000Y-64840000D02*
X108350000Y-64840000D01*
X106400000Y-69960000D02*
X104450000Y-69960000D01*
X106400000Y-69960000D02*
X108350000Y-69960000D01*
X103700000Y-64935000D02*
X103460000Y-64605000D01*
X103940000Y-64605000D01*
X103700000Y-64935000D01*
G36*
X103700000Y-64935000D02*
G01*
X103460000Y-64605000D01*
X103940000Y-64605000D01*
X103700000Y-64935000D01*
G37*
%TO.C,U4*%
X106400000Y-52915000D02*
X104200000Y-52915000D01*
X106400000Y-52915000D02*
X108600000Y-52915000D01*
X106400000Y-59685000D02*
X104200000Y-59685000D01*
X106400000Y-59685000D02*
X108600000Y-59685000D01*
X102540000Y-53375000D02*
X102210000Y-53615000D01*
X102210000Y-53135000D01*
X102540000Y-53375000D01*
G36*
X102540000Y-53375000D02*
G01*
X102210000Y-53615000D01*
X102210000Y-53135000D01*
X102540000Y-53375000D01*
G37*
D12*
%TO.C,U3*%
X83441000Y-52863100D02*
G75*
G02*
X82831400Y-52863100I-304800J0D01*
G01*
X84509853Y-52863100D02*
X81762547Y-52863100D01*
X81762547Y-57866900D02*
X84509853Y-57866900D01*
%TO.C,U1*%
X88490000Y-32638800D02*
X88490000Y-37337800D01*
X88490000Y-37337800D02*
X98904000Y-37337800D01*
X98904000Y-32638800D02*
X88490000Y-32638800D01*
X98904000Y-37337800D02*
X98904000Y-32638800D01*
D11*
%TO.C,TP1*%
X80905000Y-49115000D02*
X81600000Y-49115000D01*
X80905000Y-49800000D02*
X80905000Y-49115000D01*
X80905000Y-50485000D02*
X80905000Y-50360000D01*
X80905000Y-50485000D02*
X80991724Y-50485000D01*
X80905000Y-50485000D02*
X82295000Y-50485000D01*
X82208276Y-50485000D02*
X82295000Y-50485000D01*
X82295000Y-50485000D02*
X82295000Y-50360000D01*
%TO.C,RV3*%
X53635000Y-49285000D02*
X53635000Y-51305000D01*
X53635000Y-49285000D02*
X55154000Y-49285000D01*
X53635000Y-50295000D02*
X54394000Y-50295000D01*
X53635000Y-51305000D02*
X55154000Y-51305000D01*
X55154000Y-49285000D02*
X55154000Y-51305000D01*
X55155000Y-48905000D02*
X55155000Y-51365000D01*
X55155000Y-48905000D02*
X59810000Y-48905000D01*
X55155000Y-53035000D02*
X55155000Y-55495000D01*
X55155000Y-55495000D02*
X59810000Y-55495000D01*
X61745000Y-50495000D02*
X61745000Y-53905000D01*
%TO.C,RV2*%
X53635000Y-41335000D02*
X53635000Y-43355000D01*
X53635000Y-41335000D02*
X55154000Y-41335000D01*
X53635000Y-42345000D02*
X54394000Y-42345000D01*
X53635000Y-43355000D02*
X55154000Y-43355000D01*
X55154000Y-41335000D02*
X55154000Y-43355000D01*
X55155000Y-40955000D02*
X55155000Y-43415000D01*
X55155000Y-40955000D02*
X59810000Y-40955000D01*
X55155000Y-45085000D02*
X55155000Y-47545000D01*
X55155000Y-47545000D02*
X59810000Y-47545000D01*
X61745000Y-42545000D02*
X61745000Y-45955000D01*
%TO.C,RV1*%
X53635000Y-33385000D02*
X53635000Y-35405000D01*
X53635000Y-33385000D02*
X55154000Y-33385000D01*
X53635000Y-34395000D02*
X54394000Y-34395000D01*
X53635000Y-35405000D02*
X55154000Y-35405000D01*
X55154000Y-33385000D02*
X55154000Y-35405000D01*
X55155000Y-33005000D02*
X55155000Y-35465000D01*
X55155000Y-33005000D02*
X59810000Y-33005000D01*
X55155000Y-37135000D02*
X55155000Y-39595000D01*
X55155000Y-39595000D02*
X59810000Y-39595000D01*
X61745000Y-34595000D02*
X61745000Y-38005000D01*
%TO.C,R23*%
X67487047Y-79472500D02*
X66977599Y-79472500D01*
X67487047Y-78427500D02*
X66977599Y-78427500D01*
%TO.C,R22*%
X67487047Y-81982500D02*
X66977599Y-81982500D01*
X67487047Y-80937500D02*
X66977599Y-80937500D01*
%TO.C,R21*%
X67487047Y-84492500D02*
X66977599Y-84492500D01*
X67487047Y-83447500D02*
X66977599Y-83447500D01*
%TO.C,R20*%
X67487047Y-87002500D02*
X66977599Y-87002500D01*
X67487047Y-85957500D02*
X66977599Y-85957500D01*
%TO.C,R19*%
X74732776Y-55537500D02*
X75242224Y-55537500D01*
X74732776Y-56582500D02*
X75242224Y-56582500D01*
%TO.C,R18*%
X74732776Y-52637500D02*
X75242224Y-52637500D01*
X74732776Y-53682500D02*
X75242224Y-53682500D01*
%TO.C,R17*%
X67045276Y-52787500D02*
X67554724Y-52787500D01*
X67045276Y-53832500D02*
X67554724Y-53832500D01*
%TO.C,R16*%
X67045276Y-50277500D02*
X67554724Y-50277500D01*
X67045276Y-51322500D02*
X67554724Y-51322500D01*
%TO.C,R15*%
X129445276Y-52787500D02*
X129954724Y-52787500D01*
X129445276Y-53832500D02*
X129954724Y-53832500D01*
%TO.C,R14*%
X129445276Y-50277500D02*
X129954724Y-50277500D01*
X129445276Y-51322500D02*
X129954724Y-51322500D01*
%TO.C,R11*%
X119945276Y-38777500D02*
X120454724Y-38777500D01*
X119945276Y-39822500D02*
X120454724Y-39822500D01*
%TO.C,R10*%
X120045276Y-34477500D02*
X120554724Y-34477500D01*
X120045276Y-35522500D02*
X120554724Y-35522500D01*
%TO.C,R9*%
X83720776Y-36577500D02*
X84230224Y-36577500D01*
X83720776Y-37622500D02*
X84230224Y-37622500D01*
%TO.C,R7*%
X89320776Y-48177500D02*
X89830224Y-48177500D01*
X89320776Y-49222500D02*
X89830224Y-49222500D01*
%TO.C,R6*%
X89333276Y-45177500D02*
X89842724Y-45177500D01*
X89333276Y-46222500D02*
X89842724Y-46222500D01*
%TO.C,R5*%
X83720776Y-33677500D02*
X84230224Y-33677500D01*
X83720776Y-34722500D02*
X84230224Y-34722500D01*
%TO.C,R4*%
X89032776Y-59737500D02*
X89542224Y-59737500D01*
X89032776Y-60782500D02*
X89542224Y-60782500D01*
%TO.C,R3*%
X67345276Y-34177500D02*
X67854724Y-34177500D01*
X67345276Y-35222500D02*
X67854724Y-35222500D01*
%TO.C,R2*%
X67357776Y-37177500D02*
X67867224Y-37177500D01*
X67357776Y-38222500D02*
X67867224Y-38222500D01*
%TO.C,R1*%
X89542224Y-57882500D02*
X89032776Y-57882500D01*
X89542224Y-56837500D02*
X89032776Y-56837500D01*
%TO.C,JP24*%
X101500000Y-65200000D02*
X101500000Y-65800000D01*
X100800000Y-66500000D02*
X99400000Y-66500000D01*
X99400000Y-64500000D02*
X100800000Y-64500000D01*
X98700000Y-65800000D02*
X98700000Y-65200000D01*
X101500000Y-65800000D02*
G75*
G02*
X100800000Y-66500000I-699999J-1D01*
G01*
X100800000Y-64500000D02*
G75*
G02*
X101500000Y-65200000I1J-699999D01*
G01*
X99400000Y-66500000D02*
G75*
G02*
X98700000Y-65800000I0J700000D01*
G01*
X98700000Y-65200000D02*
G75*
G02*
X99400000Y-64500000I700000J0D01*
G01*
%TO.C,JP23*%
X96900000Y-42050000D02*
X97500000Y-42050000D01*
X98200000Y-42750000D02*
X98200000Y-44150000D01*
X96200000Y-44150000D02*
X96200000Y-42750000D01*
X97500000Y-44850000D02*
X96900000Y-44850000D01*
X97500000Y-42050000D02*
G75*
G02*
X98200000Y-42750000I1J-699999D01*
G01*
X96200000Y-42750000D02*
G75*
G02*
X96900000Y-42050000I699999J1D01*
G01*
X98200000Y-44150000D02*
G75*
G02*
X97500000Y-44850000I-700000J0D01*
G01*
X96900000Y-44850000D02*
G75*
G02*
X96200000Y-44150000I0J700000D01*
G01*
%TO.C,JP22*%
X132900000Y-43150000D02*
X133500000Y-43150000D01*
X134200000Y-43850000D02*
X134200000Y-45250000D01*
X132200000Y-45250000D02*
X132200000Y-43850000D01*
X133500000Y-45950000D02*
X132900000Y-45950000D01*
X133500000Y-43150000D02*
G75*
G02*
X134200000Y-43850000I1J-699999D01*
G01*
X132200000Y-43850000D02*
G75*
G02*
X132900000Y-43150000I699999J1D01*
G01*
X134200000Y-45250000D02*
G75*
G02*
X133500000Y-45950000I-700000J0D01*
G01*
X132900000Y-45950000D02*
G75*
G02*
X132200000Y-45250000I0J700000D01*
G01*
%TO.C,JP21*%
X101850000Y-54300000D02*
G75*
G02*
X101150000Y-55000000I-700000J0D01*
G01*
X101150000Y-53000000D02*
G75*
G02*
X101850000Y-53700000I0J-700000D01*
G01*
X98450000Y-55000000D02*
G75*
G02*
X97750000Y-54300000I-1J699999D01*
G01*
X97750000Y-53700000D02*
G75*
G02*
X98450000Y-53000000I699999J1D01*
G01*
X101850000Y-53700000D02*
X101850000Y-54300000D01*
X101200000Y-55000000D02*
X98400000Y-55000000D01*
X98600000Y-55200000D02*
X98900000Y-55500000D01*
X98600000Y-55200000D02*
X98300000Y-55500000D01*
X98400000Y-53000000D02*
X101200000Y-53000000D01*
X98300000Y-55500000D02*
X98900000Y-55500000D01*
X97750000Y-54300000D02*
X97750000Y-53700000D01*
%TO.C,JP20*%
X112350000Y-50500000D02*
X112350000Y-51100000D01*
X111800000Y-49300000D02*
X111200000Y-49300000D01*
X111700000Y-51800000D02*
X108900000Y-51800000D01*
X111500000Y-49600000D02*
X111800000Y-49300000D01*
X111500000Y-49600000D02*
X111200000Y-49300000D01*
X108900000Y-49800000D02*
X111700000Y-49800000D01*
X108250000Y-51100000D02*
X108250000Y-50500000D01*
X112350000Y-51100000D02*
G75*
G02*
X111650000Y-51800000I-699999J-1D01*
G01*
X111650000Y-49800000D02*
G75*
G02*
X112350000Y-50500000I1J-699999D01*
G01*
X108950000Y-51800000D02*
G75*
G02*
X108250000Y-51100000I0J700000D01*
G01*
X108250000Y-50500000D02*
G75*
G02*
X108950000Y-49800000I700000J0D01*
G01*
%TO.C,JP2*%
X123050000Y-51942500D02*
G75*
G02*
X123750000Y-51242500I700000J0D01*
G01*
X123750000Y-53242500D02*
G75*
G02*
X123050000Y-52542500I0J700000D01*
G01*
X126450000Y-51242500D02*
G75*
G02*
X127150000Y-51942500I1J-699999D01*
G01*
X127150000Y-52542500D02*
G75*
G02*
X126450000Y-53242500I-699999J-1D01*
G01*
X123050000Y-52542500D02*
X123050000Y-51942500D01*
X123700000Y-51242500D02*
X126500000Y-51242500D01*
X126300000Y-51042500D02*
X126000000Y-50742500D01*
X126300000Y-51042500D02*
X126600000Y-50742500D01*
X126500000Y-53242500D02*
X123700000Y-53242500D01*
X126600000Y-50742500D02*
X126000000Y-50742500D01*
X127150000Y-51942500D02*
X127150000Y-52542500D01*
%TO.C,J5*%
X138750000Y-59700000D02*
X138750000Y-74700000D01*
X123750000Y-59700000D02*
X138750000Y-59700000D01*
X138550000Y-67200000D02*
X137550000Y-66200000D01*
X138550000Y-67200000D02*
X137550000Y-68200000D01*
X138750000Y-74700000D02*
X123750000Y-74700000D01*
X123750000Y-74700000D02*
X123750000Y-59700000D01*
%TO.C,J2*%
X98420000Y-87157500D02*
X98420000Y-96577500D01*
X98420000Y-87157500D02*
X104580000Y-87157500D01*
X98420000Y-96577500D02*
X131890000Y-96577500D01*
X103220000Y-87157500D02*
X103220000Y-96577500D01*
X103220000Y-93267500D02*
X127090000Y-93267500D01*
X105330000Y-85867500D02*
X105930000Y-85867500D01*
X105630000Y-86467500D02*
X105330000Y-85867500D01*
X105930000Y-85867500D02*
X105630000Y-86467500D01*
X106680000Y-87157500D02*
X108390000Y-87157500D01*
X110490000Y-87157500D02*
X112200000Y-87157500D01*
X114300000Y-87157500D02*
X116010000Y-87157500D01*
X118110000Y-87157500D02*
X119820000Y-87157500D01*
X121920000Y-87157500D02*
X123630000Y-87157500D01*
X127090000Y-87157500D02*
X127090000Y-96577500D01*
X131890000Y-87157500D02*
X125730000Y-87157500D01*
X131890000Y-96577500D02*
X131890000Y-87157500D01*
%TO.C,J1*%
X52780000Y-74680000D02*
X52780000Y-59680000D01*
X67780000Y-74680000D02*
X52780000Y-74680000D01*
X52980000Y-67180000D02*
X53980000Y-68180000D01*
X52980000Y-67180000D02*
X53980000Y-66180000D01*
X52780000Y-59680000D02*
X67780000Y-59680000D01*
X67780000Y-59680000D02*
X67780000Y-74680000D01*
%TO.C,C10*%
X100453733Y-62490000D02*
X100746267Y-62490000D01*
X100453733Y-63510000D02*
X100746267Y-63510000D01*
%TO.C,C9*%
X83852677Y-73525000D02*
X84852677Y-73525000D01*
X84352677Y-73025000D02*
X84352677Y-74025000D01*
X89332323Y-71320000D02*
X89332323Y-81480000D01*
X89372323Y-71320000D02*
X89372323Y-81480000D01*
X89412323Y-71320000D02*
X89412323Y-81480000D01*
X89452323Y-71321000D02*
X89452323Y-81479000D01*
X89492323Y-71322000D02*
X89492323Y-81478000D01*
X89532323Y-71323000D02*
X89532323Y-81477000D01*
X89572323Y-71325000D02*
X89572323Y-81475000D01*
X89612323Y-71327000D02*
X89612323Y-81473000D01*
X89652323Y-71330000D02*
X89652323Y-81470000D01*
X89692323Y-71332000D02*
X89692323Y-81468000D01*
X89732323Y-71335000D02*
X89732323Y-81465000D01*
X89772323Y-71338000D02*
X89772323Y-81462000D01*
X89812323Y-71342000D02*
X89812323Y-81458000D01*
X89852323Y-71346000D02*
X89852323Y-81454000D01*
X89892323Y-71350000D02*
X89892323Y-81450000D01*
X89932323Y-71355000D02*
X89932323Y-81445000D01*
X89972323Y-71360000D02*
X89972323Y-81440000D01*
X90012323Y-71365000D02*
X90012323Y-81435000D01*
X90053323Y-71370000D02*
X90053323Y-81430000D01*
X90093323Y-71376000D02*
X90093323Y-81424000D01*
X90133323Y-71382000D02*
X90133323Y-81418000D01*
X90173323Y-71389000D02*
X90173323Y-81411000D01*
X90213323Y-71396000D02*
X90213323Y-81404000D01*
X90253323Y-71403000D02*
X90253323Y-81397000D01*
X90293323Y-71410000D02*
X90293323Y-81390000D01*
X90333323Y-71418000D02*
X90333323Y-81382000D01*
X90373323Y-71426000D02*
X90373323Y-81374000D01*
X90413323Y-71435000D02*
X90413323Y-81365000D01*
X90453323Y-71444000D02*
X90453323Y-81356000D01*
X90493323Y-71453000D02*
X90493323Y-81347000D01*
X90533323Y-71462000D02*
X90533323Y-81338000D01*
X90573323Y-71472000D02*
X90573323Y-81328000D01*
X90613323Y-71482000D02*
X90613323Y-75159000D01*
X90613323Y-77641000D02*
X90613323Y-81318000D01*
X90653323Y-71493000D02*
X90653323Y-75159000D01*
X90653323Y-77641000D02*
X90653323Y-81307000D01*
X90693323Y-71503000D02*
X90693323Y-75159000D01*
X90693323Y-77641000D02*
X90693323Y-81297000D01*
X90733323Y-71515000D02*
X90733323Y-75159000D01*
X90733323Y-77641000D02*
X90733323Y-81285000D01*
X90773323Y-71526000D02*
X90773323Y-75159000D01*
X90773323Y-77641000D02*
X90773323Y-81274000D01*
X90813323Y-71538000D02*
X90813323Y-75159000D01*
X90813323Y-77641000D02*
X90813323Y-81262000D01*
X90853323Y-71550000D02*
X90853323Y-75159000D01*
X90853323Y-77641000D02*
X90853323Y-81250000D01*
X90893323Y-71563000D02*
X90893323Y-75159000D01*
X90893323Y-77641000D02*
X90893323Y-81237000D01*
X90933323Y-71576000D02*
X90933323Y-75159000D01*
X90933323Y-77641000D02*
X90933323Y-81224000D01*
X90973323Y-71589000D02*
X90973323Y-75159000D01*
X90973323Y-77641000D02*
X90973323Y-81211000D01*
X91013323Y-71603000D02*
X91013323Y-75159000D01*
X91013323Y-77641000D02*
X91013323Y-81197000D01*
X91053323Y-71617000D02*
X91053323Y-75159000D01*
X91053323Y-77641000D02*
X91053323Y-81183000D01*
X91093323Y-71632000D02*
X91093323Y-75159000D01*
X91093323Y-77641000D02*
X91093323Y-81168000D01*
X91133323Y-71646000D02*
X91133323Y-75159000D01*
X91133323Y-77641000D02*
X91133323Y-81154000D01*
X91173323Y-71662000D02*
X91173323Y-75159000D01*
X91173323Y-77641000D02*
X91173323Y-81138000D01*
X91213323Y-71677000D02*
X91213323Y-75159000D01*
X91213323Y-77641000D02*
X91213323Y-81123000D01*
X91253323Y-71693000D02*
X91253323Y-75159000D01*
X91253323Y-77641000D02*
X91253323Y-81107000D01*
X91293323Y-71710000D02*
X91293323Y-75159000D01*
X91293323Y-77641000D02*
X91293323Y-81090000D01*
X91333323Y-71726000D02*
X91333323Y-75159000D01*
X91333323Y-77641000D02*
X91333323Y-81074000D01*
X91373323Y-71743000D02*
X91373323Y-75159000D01*
X91373323Y-77641000D02*
X91373323Y-81057000D01*
X91413323Y-71761000D02*
X91413323Y-75159000D01*
X91413323Y-77641000D02*
X91413323Y-81039000D01*
X91453323Y-71779000D02*
X91453323Y-75159000D01*
X91453323Y-77641000D02*
X91453323Y-81021000D01*
X91493323Y-71797000D02*
X91493323Y-75159000D01*
X91493323Y-77641000D02*
X91493323Y-81003000D01*
X91533323Y-71816000D02*
X91533323Y-75159000D01*
X91533323Y-77641000D02*
X91533323Y-80984000D01*
X91573323Y-71836000D02*
X91573323Y-75159000D01*
X91573323Y-77641000D02*
X91573323Y-80964000D01*
X91613323Y-71855000D02*
X91613323Y-75159000D01*
X91613323Y-77641000D02*
X91613323Y-80945000D01*
X91653323Y-71875000D02*
X91653323Y-75159000D01*
X91653323Y-77641000D02*
X91653323Y-80925000D01*
X91693323Y-71896000D02*
X91693323Y-75159000D01*
X91693323Y-77641000D02*
X91693323Y-80904000D01*
X91733323Y-71917000D02*
X91733323Y-75159000D01*
X91733323Y-77641000D02*
X91733323Y-80883000D01*
X91773323Y-71938000D02*
X91773323Y-75159000D01*
X91773323Y-77641000D02*
X91773323Y-80862000D01*
X91813323Y-71960000D02*
X91813323Y-75159000D01*
X91813323Y-77641000D02*
X91813323Y-80840000D01*
X91853323Y-71983000D02*
X91853323Y-75159000D01*
X91853323Y-77641000D02*
X91853323Y-80817000D01*
X91893323Y-72005000D02*
X91893323Y-75159000D01*
X91893323Y-77641000D02*
X91893323Y-80795000D01*
X91933323Y-72029000D02*
X91933323Y-75159000D01*
X91933323Y-77641000D02*
X91933323Y-80771000D01*
X91973323Y-72053000D02*
X91973323Y-75159000D01*
X91973323Y-77641000D02*
X91973323Y-80747000D01*
X92013323Y-72077000D02*
X92013323Y-75159000D01*
X92013323Y-77641000D02*
X92013323Y-80723000D01*
X92053323Y-72102000D02*
X92053323Y-75159000D01*
X92053323Y-77641000D02*
X92053323Y-80698000D01*
X92093323Y-72127000D02*
X92093323Y-75159000D01*
X92093323Y-77641000D02*
X92093323Y-80673000D01*
X92133323Y-72153000D02*
X92133323Y-75159000D01*
X92133323Y-77641000D02*
X92133323Y-80647000D01*
X92173323Y-72179000D02*
X92173323Y-75159000D01*
X92173323Y-77641000D02*
X92173323Y-80621000D01*
X92213323Y-72206000D02*
X92213323Y-75159000D01*
X92213323Y-77641000D02*
X92213323Y-80594000D01*
X92253323Y-72234000D02*
X92253323Y-75159000D01*
X92253323Y-77641000D02*
X92253323Y-80566000D01*
X92293323Y-72262000D02*
X92293323Y-75159000D01*
X92293323Y-77641000D02*
X92293323Y-80538000D01*
X92333323Y-72290000D02*
X92333323Y-75159000D01*
X92333323Y-77641000D02*
X92333323Y-80510000D01*
X92373323Y-72320000D02*
X92373323Y-75159000D01*
X92373323Y-77641000D02*
X92373323Y-80480000D01*
X92413323Y-72350000D02*
X92413323Y-75159000D01*
X92413323Y-77641000D02*
X92413323Y-80450000D01*
X92453323Y-72380000D02*
X92453323Y-75159000D01*
X92453323Y-77641000D02*
X92453323Y-80420000D01*
X92493323Y-72411000D02*
X92493323Y-75159000D01*
X92493323Y-77641000D02*
X92493323Y-80389000D01*
X92533323Y-72443000D02*
X92533323Y-75159000D01*
X92533323Y-77641000D02*
X92533323Y-80357000D01*
X92573323Y-72475000D02*
X92573323Y-75159000D01*
X92573323Y-77641000D02*
X92573323Y-80325000D01*
X92613323Y-72508000D02*
X92613323Y-75159000D01*
X92613323Y-77641000D02*
X92613323Y-80292000D01*
X92653323Y-72542000D02*
X92653323Y-75159000D01*
X92653323Y-77641000D02*
X92653323Y-80258000D01*
X92693323Y-72576000D02*
X92693323Y-75159000D01*
X92693323Y-77641000D02*
X92693323Y-80224000D01*
X92733323Y-72611000D02*
X92733323Y-75159000D01*
X92733323Y-77641000D02*
X92733323Y-80189000D01*
X92773323Y-72647000D02*
X92773323Y-75159000D01*
X92773323Y-77641000D02*
X92773323Y-80153000D01*
X92813323Y-72684000D02*
X92813323Y-75159000D01*
X92813323Y-77641000D02*
X92813323Y-80116000D01*
X92853323Y-72721000D02*
X92853323Y-75159000D01*
X92853323Y-77641000D02*
X92853323Y-80079000D01*
X92893323Y-72760000D02*
X92893323Y-75159000D01*
X92893323Y-77641000D02*
X92893323Y-80040000D01*
X92933323Y-72799000D02*
X92933323Y-75159000D01*
X92933323Y-77641000D02*
X92933323Y-80001000D01*
X92973323Y-72839000D02*
X92973323Y-75159000D01*
X92973323Y-77641000D02*
X92973323Y-79961000D01*
X93013323Y-72880000D02*
X93013323Y-75159000D01*
X93013323Y-77641000D02*
X93013323Y-79920000D01*
X93053323Y-72922000D02*
X93053323Y-75159000D01*
X93053323Y-77641000D02*
X93053323Y-79878000D01*
X93093323Y-72964000D02*
X93093323Y-79836000D01*
X93133323Y-73008000D02*
X93133323Y-79792000D01*
X93173323Y-73053000D02*
X93173323Y-79747000D01*
X93213323Y-73099000D02*
X93213323Y-79701000D01*
X93253323Y-73146000D02*
X93253323Y-79654000D01*
X93293323Y-73194000D02*
X93293323Y-79606000D01*
X93333323Y-73244000D02*
X93333323Y-79556000D01*
X93373323Y-73294000D02*
X93373323Y-79506000D01*
X93413323Y-73346000D02*
X93413323Y-79454000D01*
X93453323Y-73400000D02*
X93453323Y-79400000D01*
X93493323Y-73455000D02*
X93493323Y-79345000D01*
X93533323Y-73511000D02*
X93533323Y-79289000D01*
X93573323Y-73570000D02*
X93573323Y-79230000D01*
X93613323Y-73630000D02*
X93613323Y-79170000D01*
X93653323Y-73691000D02*
X93653323Y-79109000D01*
X93693323Y-73755000D02*
X93693323Y-79045000D01*
X93733323Y-73821000D02*
X93733323Y-78979000D01*
X93773323Y-73890000D02*
X93773323Y-78910000D01*
X93813323Y-73961000D02*
X93813323Y-78839000D01*
X93853323Y-74035000D02*
X93853323Y-78765000D01*
X93893323Y-74111000D02*
X93893323Y-78689000D01*
X93933323Y-74191000D02*
X93933323Y-78609000D01*
X93973323Y-74275000D02*
X93973323Y-78525000D01*
X94013323Y-74363000D02*
X94013323Y-78437000D01*
X94053323Y-74456000D02*
X94053323Y-78344000D01*
X94093323Y-74554000D02*
X94093323Y-78246000D01*
X94133323Y-74658000D02*
X94133323Y-78142000D01*
X94173323Y-74770000D02*
X94173323Y-78030000D01*
X94213323Y-74890000D02*
X94213323Y-77910000D01*
X94253323Y-75022000D02*
X94253323Y-77778000D01*
X94293323Y-75170000D02*
X94293323Y-77630000D01*
X94333323Y-75338000D02*
X94333323Y-77462000D01*
X94373323Y-75538000D02*
X94373323Y-77262000D01*
X94413323Y-75801000D02*
X94413323Y-76999000D01*
X94452323Y-76400000D02*
G75*
G02*
X84212323Y-76400000I-5120000J0D01*
G01*
X84212323Y-76400000D02*
G75*
G02*
X94452323Y-76400000I5120000J0D01*
G01*
%TO.C,C8*%
X72752677Y-73525000D02*
X73752677Y-73525000D01*
X73252677Y-73025000D02*
X73252677Y-74025000D01*
X78232323Y-71320000D02*
X78232323Y-81480000D01*
X78272323Y-71320000D02*
X78272323Y-81480000D01*
X78312323Y-71320000D02*
X78312323Y-81480000D01*
X78352323Y-71321000D02*
X78352323Y-81479000D01*
X78392323Y-71322000D02*
X78392323Y-81478000D01*
X78432323Y-71323000D02*
X78432323Y-81477000D01*
X78472323Y-71325000D02*
X78472323Y-81475000D01*
X78512323Y-71327000D02*
X78512323Y-81473000D01*
X78552323Y-71330000D02*
X78552323Y-81470000D01*
X78592323Y-71332000D02*
X78592323Y-81468000D01*
X78632323Y-71335000D02*
X78632323Y-81465000D01*
X78672323Y-71338000D02*
X78672323Y-81462000D01*
X78712323Y-71342000D02*
X78712323Y-81458000D01*
X78752323Y-71346000D02*
X78752323Y-81454000D01*
X78792323Y-71350000D02*
X78792323Y-81450000D01*
X78832323Y-71355000D02*
X78832323Y-81445000D01*
X78872323Y-71360000D02*
X78872323Y-81440000D01*
X78912323Y-71365000D02*
X78912323Y-81435000D01*
X78953323Y-71370000D02*
X78953323Y-81430000D01*
X78993323Y-71376000D02*
X78993323Y-81424000D01*
X79033323Y-71382000D02*
X79033323Y-81418000D01*
X79073323Y-71389000D02*
X79073323Y-81411000D01*
X79113323Y-71396000D02*
X79113323Y-81404000D01*
X79153323Y-71403000D02*
X79153323Y-81397000D01*
X79193323Y-71410000D02*
X79193323Y-81390000D01*
X79233323Y-71418000D02*
X79233323Y-81382000D01*
X79273323Y-71426000D02*
X79273323Y-81374000D01*
X79313323Y-71435000D02*
X79313323Y-81365000D01*
X79353323Y-71444000D02*
X79353323Y-81356000D01*
X79393323Y-71453000D02*
X79393323Y-81347000D01*
X79433323Y-71462000D02*
X79433323Y-81338000D01*
X79473323Y-71472000D02*
X79473323Y-81328000D01*
X79513323Y-71482000D02*
X79513323Y-75159000D01*
X79513323Y-77641000D02*
X79513323Y-81318000D01*
X79553323Y-71493000D02*
X79553323Y-75159000D01*
X79553323Y-77641000D02*
X79553323Y-81307000D01*
X79593323Y-71503000D02*
X79593323Y-75159000D01*
X79593323Y-77641000D02*
X79593323Y-81297000D01*
X79633323Y-71515000D02*
X79633323Y-75159000D01*
X79633323Y-77641000D02*
X79633323Y-81285000D01*
X79673323Y-71526000D02*
X79673323Y-75159000D01*
X79673323Y-77641000D02*
X79673323Y-81274000D01*
X79713323Y-71538000D02*
X79713323Y-75159000D01*
X79713323Y-77641000D02*
X79713323Y-81262000D01*
X79753323Y-71550000D02*
X79753323Y-75159000D01*
X79753323Y-77641000D02*
X79753323Y-81250000D01*
X79793323Y-71563000D02*
X79793323Y-75159000D01*
X79793323Y-77641000D02*
X79793323Y-81237000D01*
X79833323Y-71576000D02*
X79833323Y-75159000D01*
X79833323Y-77641000D02*
X79833323Y-81224000D01*
X79873323Y-71589000D02*
X79873323Y-75159000D01*
X79873323Y-77641000D02*
X79873323Y-81211000D01*
X79913323Y-71603000D02*
X79913323Y-75159000D01*
X79913323Y-77641000D02*
X79913323Y-81197000D01*
X79953323Y-71617000D02*
X79953323Y-75159000D01*
X79953323Y-77641000D02*
X79953323Y-81183000D01*
X79993323Y-71632000D02*
X79993323Y-75159000D01*
X79993323Y-77641000D02*
X79993323Y-81168000D01*
X80033323Y-71646000D02*
X80033323Y-75159000D01*
X80033323Y-77641000D02*
X80033323Y-81154000D01*
X80073323Y-71662000D02*
X80073323Y-75159000D01*
X80073323Y-77641000D02*
X80073323Y-81138000D01*
X80113323Y-71677000D02*
X80113323Y-75159000D01*
X80113323Y-77641000D02*
X80113323Y-81123000D01*
X80153323Y-71693000D02*
X80153323Y-75159000D01*
X80153323Y-77641000D02*
X80153323Y-81107000D01*
X80193323Y-71710000D02*
X80193323Y-75159000D01*
X80193323Y-77641000D02*
X80193323Y-81090000D01*
X80233323Y-71726000D02*
X80233323Y-75159000D01*
X80233323Y-77641000D02*
X80233323Y-81074000D01*
X80273323Y-71743000D02*
X80273323Y-75159000D01*
X80273323Y-77641000D02*
X80273323Y-81057000D01*
X80313323Y-71761000D02*
X80313323Y-75159000D01*
X80313323Y-77641000D02*
X80313323Y-81039000D01*
X80353323Y-71779000D02*
X80353323Y-75159000D01*
X80353323Y-77641000D02*
X80353323Y-81021000D01*
X80393323Y-71797000D02*
X80393323Y-75159000D01*
X80393323Y-77641000D02*
X80393323Y-81003000D01*
X80433323Y-71816000D02*
X80433323Y-75159000D01*
X80433323Y-77641000D02*
X80433323Y-80984000D01*
X80473323Y-71836000D02*
X80473323Y-75159000D01*
X80473323Y-77641000D02*
X80473323Y-80964000D01*
X80513323Y-71855000D02*
X80513323Y-75159000D01*
X80513323Y-77641000D02*
X80513323Y-80945000D01*
X80553323Y-71875000D02*
X80553323Y-75159000D01*
X80553323Y-77641000D02*
X80553323Y-80925000D01*
X80593323Y-71896000D02*
X80593323Y-75159000D01*
X80593323Y-77641000D02*
X80593323Y-80904000D01*
X80633323Y-71917000D02*
X80633323Y-75159000D01*
X80633323Y-77641000D02*
X80633323Y-80883000D01*
X80673323Y-71938000D02*
X80673323Y-75159000D01*
X80673323Y-77641000D02*
X80673323Y-80862000D01*
X80713323Y-71960000D02*
X80713323Y-75159000D01*
X80713323Y-77641000D02*
X80713323Y-80840000D01*
X80753323Y-71983000D02*
X80753323Y-75159000D01*
X80753323Y-77641000D02*
X80753323Y-80817000D01*
X80793323Y-72005000D02*
X80793323Y-75159000D01*
X80793323Y-77641000D02*
X80793323Y-80795000D01*
X80833323Y-72029000D02*
X80833323Y-75159000D01*
X80833323Y-77641000D02*
X80833323Y-80771000D01*
X80873323Y-72053000D02*
X80873323Y-75159000D01*
X80873323Y-77641000D02*
X80873323Y-80747000D01*
X80913323Y-72077000D02*
X80913323Y-75159000D01*
X80913323Y-77641000D02*
X80913323Y-80723000D01*
X80953323Y-72102000D02*
X80953323Y-75159000D01*
X80953323Y-77641000D02*
X80953323Y-80698000D01*
X80993323Y-72127000D02*
X80993323Y-75159000D01*
X80993323Y-77641000D02*
X80993323Y-80673000D01*
X81033323Y-72153000D02*
X81033323Y-75159000D01*
X81033323Y-77641000D02*
X81033323Y-80647000D01*
X81073323Y-72179000D02*
X81073323Y-75159000D01*
X81073323Y-77641000D02*
X81073323Y-80621000D01*
X81113323Y-72206000D02*
X81113323Y-75159000D01*
X81113323Y-77641000D02*
X81113323Y-80594000D01*
X81153323Y-72234000D02*
X81153323Y-75159000D01*
X81153323Y-77641000D02*
X81153323Y-80566000D01*
X81193323Y-72262000D02*
X81193323Y-75159000D01*
X81193323Y-77641000D02*
X81193323Y-80538000D01*
X81233323Y-72290000D02*
X81233323Y-75159000D01*
X81233323Y-77641000D02*
X81233323Y-80510000D01*
X81273323Y-72320000D02*
X81273323Y-75159000D01*
X81273323Y-77641000D02*
X81273323Y-80480000D01*
X81313323Y-72350000D02*
X81313323Y-75159000D01*
X81313323Y-77641000D02*
X81313323Y-80450000D01*
X81353323Y-72380000D02*
X81353323Y-75159000D01*
X81353323Y-77641000D02*
X81353323Y-80420000D01*
X81393323Y-72411000D02*
X81393323Y-75159000D01*
X81393323Y-77641000D02*
X81393323Y-80389000D01*
X81433323Y-72443000D02*
X81433323Y-75159000D01*
X81433323Y-77641000D02*
X81433323Y-80357000D01*
X81473323Y-72475000D02*
X81473323Y-75159000D01*
X81473323Y-77641000D02*
X81473323Y-80325000D01*
X81513323Y-72508000D02*
X81513323Y-75159000D01*
X81513323Y-77641000D02*
X81513323Y-80292000D01*
X81553323Y-72542000D02*
X81553323Y-75159000D01*
X81553323Y-77641000D02*
X81553323Y-80258000D01*
X81593323Y-72576000D02*
X81593323Y-75159000D01*
X81593323Y-77641000D02*
X81593323Y-80224000D01*
X81633323Y-72611000D02*
X81633323Y-75159000D01*
X81633323Y-77641000D02*
X81633323Y-80189000D01*
X81673323Y-72647000D02*
X81673323Y-75159000D01*
X81673323Y-77641000D02*
X81673323Y-80153000D01*
X81713323Y-72684000D02*
X81713323Y-75159000D01*
X81713323Y-77641000D02*
X81713323Y-80116000D01*
X81753323Y-72721000D02*
X81753323Y-75159000D01*
X81753323Y-77641000D02*
X81753323Y-80079000D01*
X81793323Y-72760000D02*
X81793323Y-75159000D01*
X81793323Y-77641000D02*
X81793323Y-80040000D01*
X81833323Y-72799000D02*
X81833323Y-75159000D01*
X81833323Y-77641000D02*
X81833323Y-80001000D01*
X81873323Y-72839000D02*
X81873323Y-75159000D01*
X81873323Y-77641000D02*
X81873323Y-79961000D01*
X81913323Y-72880000D02*
X81913323Y-75159000D01*
X81913323Y-77641000D02*
X81913323Y-79920000D01*
X81953323Y-72922000D02*
X81953323Y-75159000D01*
X81953323Y-77641000D02*
X81953323Y-79878000D01*
X81993323Y-72964000D02*
X81993323Y-79836000D01*
X82033323Y-73008000D02*
X82033323Y-79792000D01*
X82073323Y-73053000D02*
X82073323Y-79747000D01*
X82113323Y-73099000D02*
X82113323Y-79701000D01*
X82153323Y-73146000D02*
X82153323Y-79654000D01*
X82193323Y-73194000D02*
X82193323Y-79606000D01*
X82233323Y-73244000D02*
X82233323Y-79556000D01*
X82273323Y-73294000D02*
X82273323Y-79506000D01*
X82313323Y-73346000D02*
X82313323Y-79454000D01*
X82353323Y-73400000D02*
X82353323Y-79400000D01*
X82393323Y-73455000D02*
X82393323Y-79345000D01*
X82433323Y-73511000D02*
X82433323Y-79289000D01*
X82473323Y-73570000D02*
X82473323Y-79230000D01*
X82513323Y-73630000D02*
X82513323Y-79170000D01*
X82553323Y-73691000D02*
X82553323Y-79109000D01*
X82593323Y-73755000D02*
X82593323Y-79045000D01*
X82633323Y-73821000D02*
X82633323Y-78979000D01*
X82673323Y-73890000D02*
X82673323Y-78910000D01*
X82713323Y-73961000D02*
X82713323Y-78839000D01*
X82753323Y-74035000D02*
X82753323Y-78765000D01*
X82793323Y-74111000D02*
X82793323Y-78689000D01*
X82833323Y-74191000D02*
X82833323Y-78609000D01*
X82873323Y-74275000D02*
X82873323Y-78525000D01*
X82913323Y-74363000D02*
X82913323Y-78437000D01*
X82953323Y-74456000D02*
X82953323Y-78344000D01*
X82993323Y-74554000D02*
X82993323Y-78246000D01*
X83033323Y-74658000D02*
X83033323Y-78142000D01*
X83073323Y-74770000D02*
X83073323Y-78030000D01*
X83113323Y-74890000D02*
X83113323Y-77910000D01*
X83153323Y-75022000D02*
X83153323Y-77778000D01*
X83193323Y-75170000D02*
X83193323Y-77630000D01*
X83233323Y-75338000D02*
X83233323Y-77462000D01*
X83273323Y-75538000D02*
X83273323Y-77262000D01*
X83313323Y-75801000D02*
X83313323Y-76999000D01*
X83352323Y-76400000D02*
G75*
G02*
X73112323Y-76400000I-5120000J0D01*
G01*
X73112323Y-76400000D02*
G75*
G02*
X83352323Y-76400000I5120000J0D01*
G01*
%TO.C,C7*%
X72752677Y-88125000D02*
X73752677Y-88125000D01*
X73252677Y-87625000D02*
X73252677Y-88625000D01*
X78232323Y-85920000D02*
X78232323Y-96080000D01*
X78272323Y-85920000D02*
X78272323Y-96080000D01*
X78312323Y-85920000D02*
X78312323Y-96080000D01*
X78352323Y-85921000D02*
X78352323Y-96079000D01*
X78392323Y-85922000D02*
X78392323Y-96078000D01*
X78432323Y-85923000D02*
X78432323Y-96077000D01*
X78472323Y-85925000D02*
X78472323Y-96075000D01*
X78512323Y-85927000D02*
X78512323Y-96073000D01*
X78552323Y-85930000D02*
X78552323Y-96070000D01*
X78592323Y-85932000D02*
X78592323Y-96068000D01*
X78632323Y-85935000D02*
X78632323Y-96065000D01*
X78672323Y-85938000D02*
X78672323Y-96062000D01*
X78712323Y-85942000D02*
X78712323Y-96058000D01*
X78752323Y-85946000D02*
X78752323Y-96054000D01*
X78792323Y-85950000D02*
X78792323Y-96050000D01*
X78832323Y-85955000D02*
X78832323Y-96045000D01*
X78872323Y-85960000D02*
X78872323Y-96040000D01*
X78912323Y-85965000D02*
X78912323Y-96035000D01*
X78953323Y-85970000D02*
X78953323Y-96030000D01*
X78993323Y-85976000D02*
X78993323Y-96024000D01*
X79033323Y-85982000D02*
X79033323Y-96018000D01*
X79073323Y-85989000D02*
X79073323Y-96011000D01*
X79113323Y-85996000D02*
X79113323Y-96004000D01*
X79153323Y-86003000D02*
X79153323Y-95997000D01*
X79193323Y-86010000D02*
X79193323Y-95990000D01*
X79233323Y-86018000D02*
X79233323Y-95982000D01*
X79273323Y-86026000D02*
X79273323Y-95974000D01*
X79313323Y-86035000D02*
X79313323Y-95965000D01*
X79353323Y-86044000D02*
X79353323Y-95956000D01*
X79393323Y-86053000D02*
X79393323Y-95947000D01*
X79433323Y-86062000D02*
X79433323Y-95938000D01*
X79473323Y-86072000D02*
X79473323Y-95928000D01*
X79513323Y-86082000D02*
X79513323Y-89759000D01*
X79513323Y-92241000D02*
X79513323Y-95918000D01*
X79553323Y-86093000D02*
X79553323Y-89759000D01*
X79553323Y-92241000D02*
X79553323Y-95907000D01*
X79593323Y-86103000D02*
X79593323Y-89759000D01*
X79593323Y-92241000D02*
X79593323Y-95897000D01*
X79633323Y-86115000D02*
X79633323Y-89759000D01*
X79633323Y-92241000D02*
X79633323Y-95885000D01*
X79673323Y-86126000D02*
X79673323Y-89759000D01*
X79673323Y-92241000D02*
X79673323Y-95874000D01*
X79713323Y-86138000D02*
X79713323Y-89759000D01*
X79713323Y-92241000D02*
X79713323Y-95862000D01*
X79753323Y-86150000D02*
X79753323Y-89759000D01*
X79753323Y-92241000D02*
X79753323Y-95850000D01*
X79793323Y-86163000D02*
X79793323Y-89759000D01*
X79793323Y-92241000D02*
X79793323Y-95837000D01*
X79833323Y-86176000D02*
X79833323Y-89759000D01*
X79833323Y-92241000D02*
X79833323Y-95824000D01*
X79873323Y-86189000D02*
X79873323Y-89759000D01*
X79873323Y-92241000D02*
X79873323Y-95811000D01*
X79913323Y-86203000D02*
X79913323Y-89759000D01*
X79913323Y-92241000D02*
X79913323Y-95797000D01*
X79953323Y-86217000D02*
X79953323Y-89759000D01*
X79953323Y-92241000D02*
X79953323Y-95783000D01*
X79993323Y-86232000D02*
X79993323Y-89759000D01*
X79993323Y-92241000D02*
X79993323Y-95768000D01*
X80033323Y-86246000D02*
X80033323Y-89759000D01*
X80033323Y-92241000D02*
X80033323Y-95754000D01*
X80073323Y-86262000D02*
X80073323Y-89759000D01*
X80073323Y-92241000D02*
X80073323Y-95738000D01*
X80113323Y-86277000D02*
X80113323Y-89759000D01*
X80113323Y-92241000D02*
X80113323Y-95723000D01*
X80153323Y-86293000D02*
X80153323Y-89759000D01*
X80153323Y-92241000D02*
X80153323Y-95707000D01*
X80193323Y-86310000D02*
X80193323Y-89759000D01*
X80193323Y-92241000D02*
X80193323Y-95690000D01*
X80233323Y-86326000D02*
X80233323Y-89759000D01*
X80233323Y-92241000D02*
X80233323Y-95674000D01*
X80273323Y-86343000D02*
X80273323Y-89759000D01*
X80273323Y-92241000D02*
X80273323Y-95657000D01*
X80313323Y-86361000D02*
X80313323Y-89759000D01*
X80313323Y-92241000D02*
X80313323Y-95639000D01*
X80353323Y-86379000D02*
X80353323Y-89759000D01*
X80353323Y-92241000D02*
X80353323Y-95621000D01*
X80393323Y-86397000D02*
X80393323Y-89759000D01*
X80393323Y-92241000D02*
X80393323Y-95603000D01*
X80433323Y-86416000D02*
X80433323Y-89759000D01*
X80433323Y-92241000D02*
X80433323Y-95584000D01*
X80473323Y-86436000D02*
X80473323Y-89759000D01*
X80473323Y-92241000D02*
X80473323Y-95564000D01*
X80513323Y-86455000D02*
X80513323Y-89759000D01*
X80513323Y-92241000D02*
X80513323Y-95545000D01*
X80553323Y-86475000D02*
X80553323Y-89759000D01*
X80553323Y-92241000D02*
X80553323Y-95525000D01*
X80593323Y-86496000D02*
X80593323Y-89759000D01*
X80593323Y-92241000D02*
X80593323Y-95504000D01*
X80633323Y-86517000D02*
X80633323Y-89759000D01*
X80633323Y-92241000D02*
X80633323Y-95483000D01*
X80673323Y-86538000D02*
X80673323Y-89759000D01*
X80673323Y-92241000D02*
X80673323Y-95462000D01*
X80713323Y-86560000D02*
X80713323Y-89759000D01*
X80713323Y-92241000D02*
X80713323Y-95440000D01*
X80753323Y-86583000D02*
X80753323Y-89759000D01*
X80753323Y-92241000D02*
X80753323Y-95417000D01*
X80793323Y-86605000D02*
X80793323Y-89759000D01*
X80793323Y-92241000D02*
X80793323Y-95395000D01*
X80833323Y-86629000D02*
X80833323Y-89759000D01*
X80833323Y-92241000D02*
X80833323Y-95371000D01*
X80873323Y-86653000D02*
X80873323Y-89759000D01*
X80873323Y-92241000D02*
X80873323Y-95347000D01*
X80913323Y-86677000D02*
X80913323Y-89759000D01*
X80913323Y-92241000D02*
X80913323Y-95323000D01*
X80953323Y-86702000D02*
X80953323Y-89759000D01*
X80953323Y-92241000D02*
X80953323Y-95298000D01*
X80993323Y-86727000D02*
X80993323Y-89759000D01*
X80993323Y-92241000D02*
X80993323Y-95273000D01*
X81033323Y-86753000D02*
X81033323Y-89759000D01*
X81033323Y-92241000D02*
X81033323Y-95247000D01*
X81073323Y-86779000D02*
X81073323Y-89759000D01*
X81073323Y-92241000D02*
X81073323Y-95221000D01*
X81113323Y-86806000D02*
X81113323Y-89759000D01*
X81113323Y-92241000D02*
X81113323Y-95194000D01*
X81153323Y-86834000D02*
X81153323Y-89759000D01*
X81153323Y-92241000D02*
X81153323Y-95166000D01*
X81193323Y-86862000D02*
X81193323Y-89759000D01*
X81193323Y-92241000D02*
X81193323Y-95138000D01*
X81233323Y-86890000D02*
X81233323Y-89759000D01*
X81233323Y-92241000D02*
X81233323Y-95110000D01*
X81273323Y-86920000D02*
X81273323Y-89759000D01*
X81273323Y-92241000D02*
X81273323Y-95080000D01*
X81313323Y-86950000D02*
X81313323Y-89759000D01*
X81313323Y-92241000D02*
X81313323Y-95050000D01*
X81353323Y-86980000D02*
X81353323Y-89759000D01*
X81353323Y-92241000D02*
X81353323Y-95020000D01*
X81393323Y-87011000D02*
X81393323Y-89759000D01*
X81393323Y-92241000D02*
X81393323Y-94989000D01*
X81433323Y-87043000D02*
X81433323Y-89759000D01*
X81433323Y-92241000D02*
X81433323Y-94957000D01*
X81473323Y-87075000D02*
X81473323Y-89759000D01*
X81473323Y-92241000D02*
X81473323Y-94925000D01*
X81513323Y-87108000D02*
X81513323Y-89759000D01*
X81513323Y-92241000D02*
X81513323Y-94892000D01*
X81553323Y-87142000D02*
X81553323Y-89759000D01*
X81553323Y-92241000D02*
X81553323Y-94858000D01*
X81593323Y-87176000D02*
X81593323Y-89759000D01*
X81593323Y-92241000D02*
X81593323Y-94824000D01*
X81633323Y-87211000D02*
X81633323Y-89759000D01*
X81633323Y-92241000D02*
X81633323Y-94789000D01*
X81673323Y-87247000D02*
X81673323Y-89759000D01*
X81673323Y-92241000D02*
X81673323Y-94753000D01*
X81713323Y-87284000D02*
X81713323Y-89759000D01*
X81713323Y-92241000D02*
X81713323Y-94716000D01*
X81753323Y-87321000D02*
X81753323Y-89759000D01*
X81753323Y-92241000D02*
X81753323Y-94679000D01*
X81793323Y-87360000D02*
X81793323Y-89759000D01*
X81793323Y-92241000D02*
X81793323Y-94640000D01*
X81833323Y-87399000D02*
X81833323Y-89759000D01*
X81833323Y-92241000D02*
X81833323Y-94601000D01*
X81873323Y-87439000D02*
X81873323Y-89759000D01*
X81873323Y-92241000D02*
X81873323Y-94561000D01*
X81913323Y-87480000D02*
X81913323Y-89759000D01*
X81913323Y-92241000D02*
X81913323Y-94520000D01*
X81953323Y-87522000D02*
X81953323Y-89759000D01*
X81953323Y-92241000D02*
X81953323Y-94478000D01*
X81993323Y-87564000D02*
X81993323Y-94436000D01*
X82033323Y-87608000D02*
X82033323Y-94392000D01*
X82073323Y-87653000D02*
X82073323Y-94347000D01*
X82113323Y-87699000D02*
X82113323Y-94301000D01*
X82153323Y-87746000D02*
X82153323Y-94254000D01*
X82193323Y-87794000D02*
X82193323Y-94206000D01*
X82233323Y-87844000D02*
X82233323Y-94156000D01*
X82273323Y-87894000D02*
X82273323Y-94106000D01*
X82313323Y-87946000D02*
X82313323Y-94054000D01*
X82353323Y-88000000D02*
X82353323Y-94000000D01*
X82393323Y-88055000D02*
X82393323Y-93945000D01*
X82433323Y-88111000D02*
X82433323Y-93889000D01*
X82473323Y-88170000D02*
X82473323Y-93830000D01*
X82513323Y-88230000D02*
X82513323Y-93770000D01*
X82553323Y-88291000D02*
X82553323Y-93709000D01*
X82593323Y-88355000D02*
X82593323Y-93645000D01*
X82633323Y-88421000D02*
X82633323Y-93579000D01*
X82673323Y-88490000D02*
X82673323Y-93510000D01*
X82713323Y-88561000D02*
X82713323Y-93439000D01*
X82753323Y-88635000D02*
X82753323Y-93365000D01*
X82793323Y-88711000D02*
X82793323Y-93289000D01*
X82833323Y-88791000D02*
X82833323Y-93209000D01*
X82873323Y-88875000D02*
X82873323Y-93125000D01*
X82913323Y-88963000D02*
X82913323Y-93037000D01*
X82953323Y-89056000D02*
X82953323Y-92944000D01*
X82993323Y-89154000D02*
X82993323Y-92846000D01*
X83033323Y-89258000D02*
X83033323Y-92742000D01*
X83073323Y-89370000D02*
X83073323Y-92630000D01*
X83113323Y-89490000D02*
X83113323Y-92510000D01*
X83153323Y-89622000D02*
X83153323Y-92378000D01*
X83193323Y-89770000D02*
X83193323Y-92230000D01*
X83233323Y-89938000D02*
X83233323Y-92062000D01*
X83273323Y-90138000D02*
X83273323Y-91862000D01*
X83313323Y-90401000D02*
X83313323Y-91599000D01*
X83352323Y-91000000D02*
G75*
G02*
X73112323Y-91000000I-5120000J0D01*
G01*
X73112323Y-91000000D02*
G75*
G02*
X83352323Y-91000000I5120000J0D01*
G01*
%TO.C,C6*%
X83752677Y-88025000D02*
X84752677Y-88025000D01*
X84252677Y-87525000D02*
X84252677Y-88525000D01*
X89232323Y-85820000D02*
X89232323Y-95980000D01*
X89272323Y-85820000D02*
X89272323Y-95980000D01*
X89312323Y-85820000D02*
X89312323Y-95980000D01*
X89352323Y-85821000D02*
X89352323Y-95979000D01*
X89392323Y-85822000D02*
X89392323Y-95978000D01*
X89432323Y-85823000D02*
X89432323Y-95977000D01*
X89472323Y-85825000D02*
X89472323Y-95975000D01*
X89512323Y-85827000D02*
X89512323Y-95973000D01*
X89552323Y-85830000D02*
X89552323Y-95970000D01*
X89592323Y-85832000D02*
X89592323Y-95968000D01*
X89632323Y-85835000D02*
X89632323Y-95965000D01*
X89672323Y-85838000D02*
X89672323Y-95962000D01*
X89712323Y-85842000D02*
X89712323Y-95958000D01*
X89752323Y-85846000D02*
X89752323Y-95954000D01*
X89792323Y-85850000D02*
X89792323Y-95950000D01*
X89832323Y-85855000D02*
X89832323Y-95945000D01*
X89872323Y-85860000D02*
X89872323Y-95940000D01*
X89912323Y-85865000D02*
X89912323Y-95935000D01*
X89953323Y-85870000D02*
X89953323Y-95930000D01*
X89993323Y-85876000D02*
X89993323Y-95924000D01*
X90033323Y-85882000D02*
X90033323Y-95918000D01*
X90073323Y-85889000D02*
X90073323Y-95911000D01*
X90113323Y-85896000D02*
X90113323Y-95904000D01*
X90153323Y-85903000D02*
X90153323Y-95897000D01*
X90193323Y-85910000D02*
X90193323Y-95890000D01*
X90233323Y-85918000D02*
X90233323Y-95882000D01*
X90273323Y-85926000D02*
X90273323Y-95874000D01*
X90313323Y-85935000D02*
X90313323Y-95865000D01*
X90353323Y-85944000D02*
X90353323Y-95856000D01*
X90393323Y-85953000D02*
X90393323Y-95847000D01*
X90433323Y-85962000D02*
X90433323Y-95838000D01*
X90473323Y-85972000D02*
X90473323Y-95828000D01*
X90513323Y-85982000D02*
X90513323Y-89659000D01*
X90513323Y-92141000D02*
X90513323Y-95818000D01*
X90553323Y-85993000D02*
X90553323Y-89659000D01*
X90553323Y-92141000D02*
X90553323Y-95807000D01*
X90593323Y-86003000D02*
X90593323Y-89659000D01*
X90593323Y-92141000D02*
X90593323Y-95797000D01*
X90633323Y-86015000D02*
X90633323Y-89659000D01*
X90633323Y-92141000D02*
X90633323Y-95785000D01*
X90673323Y-86026000D02*
X90673323Y-89659000D01*
X90673323Y-92141000D02*
X90673323Y-95774000D01*
X90713323Y-86038000D02*
X90713323Y-89659000D01*
X90713323Y-92141000D02*
X90713323Y-95762000D01*
X90753323Y-86050000D02*
X90753323Y-89659000D01*
X90753323Y-92141000D02*
X90753323Y-95750000D01*
X90793323Y-86063000D02*
X90793323Y-89659000D01*
X90793323Y-92141000D02*
X90793323Y-95737000D01*
X90833323Y-86076000D02*
X90833323Y-89659000D01*
X90833323Y-92141000D02*
X90833323Y-95724000D01*
X90873323Y-86089000D02*
X90873323Y-89659000D01*
X90873323Y-92141000D02*
X90873323Y-95711000D01*
X90913323Y-86103000D02*
X90913323Y-89659000D01*
X90913323Y-92141000D02*
X90913323Y-95697000D01*
X90953323Y-86117000D02*
X90953323Y-89659000D01*
X90953323Y-92141000D02*
X90953323Y-95683000D01*
X90993323Y-86132000D02*
X90993323Y-89659000D01*
X90993323Y-92141000D02*
X90993323Y-95668000D01*
X91033323Y-86146000D02*
X91033323Y-89659000D01*
X91033323Y-92141000D02*
X91033323Y-95654000D01*
X91073323Y-86162000D02*
X91073323Y-89659000D01*
X91073323Y-92141000D02*
X91073323Y-95638000D01*
X91113323Y-86177000D02*
X91113323Y-89659000D01*
X91113323Y-92141000D02*
X91113323Y-95623000D01*
X91153323Y-86193000D02*
X91153323Y-89659000D01*
X91153323Y-92141000D02*
X91153323Y-95607000D01*
X91193323Y-86210000D02*
X91193323Y-89659000D01*
X91193323Y-92141000D02*
X91193323Y-95590000D01*
X91233323Y-86226000D02*
X91233323Y-89659000D01*
X91233323Y-92141000D02*
X91233323Y-95574000D01*
X91273323Y-86243000D02*
X91273323Y-89659000D01*
X91273323Y-92141000D02*
X91273323Y-95557000D01*
X91313323Y-86261000D02*
X91313323Y-89659000D01*
X91313323Y-92141000D02*
X91313323Y-95539000D01*
X91353323Y-86279000D02*
X91353323Y-89659000D01*
X91353323Y-92141000D02*
X91353323Y-95521000D01*
X91393323Y-86297000D02*
X91393323Y-89659000D01*
X91393323Y-92141000D02*
X91393323Y-95503000D01*
X91433323Y-86316000D02*
X91433323Y-89659000D01*
X91433323Y-92141000D02*
X91433323Y-95484000D01*
X91473323Y-86336000D02*
X91473323Y-89659000D01*
X91473323Y-92141000D02*
X91473323Y-95464000D01*
X91513323Y-86355000D02*
X91513323Y-89659000D01*
X91513323Y-92141000D02*
X91513323Y-95445000D01*
X91553323Y-86375000D02*
X91553323Y-89659000D01*
X91553323Y-92141000D02*
X91553323Y-95425000D01*
X91593323Y-86396000D02*
X91593323Y-89659000D01*
X91593323Y-92141000D02*
X91593323Y-95404000D01*
X91633323Y-86417000D02*
X91633323Y-89659000D01*
X91633323Y-92141000D02*
X91633323Y-95383000D01*
X91673323Y-86438000D02*
X91673323Y-89659000D01*
X91673323Y-92141000D02*
X91673323Y-95362000D01*
X91713323Y-86460000D02*
X91713323Y-89659000D01*
X91713323Y-92141000D02*
X91713323Y-95340000D01*
X91753323Y-86483000D02*
X91753323Y-89659000D01*
X91753323Y-92141000D02*
X91753323Y-95317000D01*
X91793323Y-86505000D02*
X91793323Y-89659000D01*
X91793323Y-92141000D02*
X91793323Y-95295000D01*
X91833323Y-86529000D02*
X91833323Y-89659000D01*
X91833323Y-92141000D02*
X91833323Y-95271000D01*
X91873323Y-86553000D02*
X91873323Y-89659000D01*
X91873323Y-92141000D02*
X91873323Y-95247000D01*
X91913323Y-86577000D02*
X91913323Y-89659000D01*
X91913323Y-92141000D02*
X91913323Y-95223000D01*
X91953323Y-86602000D02*
X91953323Y-89659000D01*
X91953323Y-92141000D02*
X91953323Y-95198000D01*
X91993323Y-86627000D02*
X91993323Y-89659000D01*
X91993323Y-92141000D02*
X91993323Y-95173000D01*
X92033323Y-86653000D02*
X92033323Y-89659000D01*
X92033323Y-92141000D02*
X92033323Y-95147000D01*
X92073323Y-86679000D02*
X92073323Y-89659000D01*
X92073323Y-92141000D02*
X92073323Y-95121000D01*
X92113323Y-86706000D02*
X92113323Y-89659000D01*
X92113323Y-92141000D02*
X92113323Y-95094000D01*
X92153323Y-86734000D02*
X92153323Y-89659000D01*
X92153323Y-92141000D02*
X92153323Y-95066000D01*
X92193323Y-86762000D02*
X92193323Y-89659000D01*
X92193323Y-92141000D02*
X92193323Y-95038000D01*
X92233323Y-86790000D02*
X92233323Y-89659000D01*
X92233323Y-92141000D02*
X92233323Y-95010000D01*
X92273323Y-86820000D02*
X92273323Y-89659000D01*
X92273323Y-92141000D02*
X92273323Y-94980000D01*
X92313323Y-86850000D02*
X92313323Y-89659000D01*
X92313323Y-92141000D02*
X92313323Y-94950000D01*
X92353323Y-86880000D02*
X92353323Y-89659000D01*
X92353323Y-92141000D02*
X92353323Y-94920000D01*
X92393323Y-86911000D02*
X92393323Y-89659000D01*
X92393323Y-92141000D02*
X92393323Y-94889000D01*
X92433323Y-86943000D02*
X92433323Y-89659000D01*
X92433323Y-92141000D02*
X92433323Y-94857000D01*
X92473323Y-86975000D02*
X92473323Y-89659000D01*
X92473323Y-92141000D02*
X92473323Y-94825000D01*
X92513323Y-87008000D02*
X92513323Y-89659000D01*
X92513323Y-92141000D02*
X92513323Y-94792000D01*
X92553323Y-87042000D02*
X92553323Y-89659000D01*
X92553323Y-92141000D02*
X92553323Y-94758000D01*
X92593323Y-87076000D02*
X92593323Y-89659000D01*
X92593323Y-92141000D02*
X92593323Y-94724000D01*
X92633323Y-87111000D02*
X92633323Y-89659000D01*
X92633323Y-92141000D02*
X92633323Y-94689000D01*
X92673323Y-87147000D02*
X92673323Y-89659000D01*
X92673323Y-92141000D02*
X92673323Y-94653000D01*
X92713323Y-87184000D02*
X92713323Y-89659000D01*
X92713323Y-92141000D02*
X92713323Y-94616000D01*
X92753323Y-87221000D02*
X92753323Y-89659000D01*
X92753323Y-92141000D02*
X92753323Y-94579000D01*
X92793323Y-87260000D02*
X92793323Y-89659000D01*
X92793323Y-92141000D02*
X92793323Y-94540000D01*
X92833323Y-87299000D02*
X92833323Y-89659000D01*
X92833323Y-92141000D02*
X92833323Y-94501000D01*
X92873323Y-87339000D02*
X92873323Y-89659000D01*
X92873323Y-92141000D02*
X92873323Y-94461000D01*
X92913323Y-87380000D02*
X92913323Y-89659000D01*
X92913323Y-92141000D02*
X92913323Y-94420000D01*
X92953323Y-87422000D02*
X92953323Y-89659000D01*
X92953323Y-92141000D02*
X92953323Y-94378000D01*
X92993323Y-87464000D02*
X92993323Y-94336000D01*
X93033323Y-87508000D02*
X93033323Y-94292000D01*
X93073323Y-87553000D02*
X93073323Y-94247000D01*
X93113323Y-87599000D02*
X93113323Y-94201000D01*
X93153323Y-87646000D02*
X93153323Y-94154000D01*
X93193323Y-87694000D02*
X93193323Y-94106000D01*
X93233323Y-87744000D02*
X93233323Y-94056000D01*
X93273323Y-87794000D02*
X93273323Y-94006000D01*
X93313323Y-87846000D02*
X93313323Y-93954000D01*
X93353323Y-87900000D02*
X93353323Y-93900000D01*
X93393323Y-87955000D02*
X93393323Y-93845000D01*
X93433323Y-88011000D02*
X93433323Y-93789000D01*
X93473323Y-88070000D02*
X93473323Y-93730000D01*
X93513323Y-88130000D02*
X93513323Y-93670000D01*
X93553323Y-88191000D02*
X93553323Y-93609000D01*
X93593323Y-88255000D02*
X93593323Y-93545000D01*
X93633323Y-88321000D02*
X93633323Y-93479000D01*
X93673323Y-88390000D02*
X93673323Y-93410000D01*
X93713323Y-88461000D02*
X93713323Y-93339000D01*
X93753323Y-88535000D02*
X93753323Y-93265000D01*
X93793323Y-88611000D02*
X93793323Y-93189000D01*
X93833323Y-88691000D02*
X93833323Y-93109000D01*
X93873323Y-88775000D02*
X93873323Y-93025000D01*
X93913323Y-88863000D02*
X93913323Y-92937000D01*
X93953323Y-88956000D02*
X93953323Y-92844000D01*
X93993323Y-89054000D02*
X93993323Y-92746000D01*
X94033323Y-89158000D02*
X94033323Y-92642000D01*
X94073323Y-89270000D02*
X94073323Y-92530000D01*
X94113323Y-89390000D02*
X94113323Y-92410000D01*
X94153323Y-89522000D02*
X94153323Y-92278000D01*
X94193323Y-89670000D02*
X94193323Y-92130000D01*
X94233323Y-89838000D02*
X94233323Y-91962000D01*
X94273323Y-90038000D02*
X94273323Y-91762000D01*
X94313323Y-90301000D02*
X94313323Y-91499000D01*
X94352323Y-90900000D02*
G75*
G02*
X84112323Y-90900000I-5120000J0D01*
G01*
X84112323Y-90900000D02*
G75*
G02*
X94352323Y-90900000I5120000J0D01*
G01*
%TO.C,C5*%
X124590000Y-45746267D02*
X124590000Y-45453733D01*
X125610000Y-45746267D02*
X125610000Y-45453733D01*
%TO.C,C4*%
X130490000Y-44708767D02*
X130490000Y-44416233D01*
X131510000Y-44708767D02*
X131510000Y-44416233D01*
%TO.C,C2*%
X83753733Y-39490000D02*
X84046267Y-39490000D01*
X83753733Y-40510000D02*
X84046267Y-40510000D01*
%TO.C,C1*%
X94490000Y-43596267D02*
X94490000Y-43303733D01*
X95510000Y-43596267D02*
X95510000Y-43303733D01*
%TD*%
M02*
