%TF.GenerationSoftware,KiCad,Pcbnew,8.0.0*%
%TF.CreationDate,2024-11-27T22:09:34-06:00*%
%TF.ProjectId,backplane,6261636b-706c-4616-9e65-2e6b69636164,rev?*%
%TF.SameCoordinates,Original*%
%TF.FileFunction,Copper,L3,Inr*%
%TF.FilePolarity,Positive*%
%FSLAX46Y46*%
G04 Gerber Fmt 4.6, Leading zero omitted, Abs format (unit mm)*
G04 Created by KiCad (PCBNEW 8.0.0) date 2024-11-27 22:09:34*
%MOMM*%
%LPD*%
G01*
G04 APERTURE LIST*
%TA.AperFunction,ComponentPad*%
%ADD10R,1.208000X1.208000*%
%TD*%
%TA.AperFunction,ComponentPad*%
%ADD11C,1.208000*%
%TD*%
%TA.AperFunction,Conductor*%
%ADD12C,0.300000*%
%TD*%
G04 APERTURE END LIST*
D10*
%TO.N,A1*%
%TO.C,J9*%
X144300000Y-135100000D03*
D11*
%TO.N,A2*%
X143300000Y-137100000D03*
%TO.N,A3*%
X142300000Y-135100000D03*
%TO.N,A4*%
X141300000Y-137100000D03*
%TO.N,A5*%
X140300000Y-135100000D03*
%TO.N,A6*%
X139300000Y-137100000D03*
%TO.N,A7*%
X138300000Y-135100000D03*
%TO.N,A8*%
X137300000Y-137100000D03*
%TO.N,A9*%
X136300000Y-135100000D03*
%TO.N,A10*%
X135300000Y-137100000D03*
%TO.N,A11*%
X134300000Y-135100000D03*
%TO.N,A12*%
X131300000Y-137100000D03*
%TO.N,A13*%
X130300000Y-135100000D03*
%TO.N,A14*%
X129300000Y-137100000D03*
%TO.N,A15*%
X128300000Y-135100000D03*
%TO.N,A16*%
X127300000Y-137100000D03*
%TO.N,A17*%
X126300000Y-135100000D03*
%TO.N,A18*%
X125300000Y-137100000D03*
%TO.N,A19*%
X124300000Y-135100000D03*
%TO.N,A20*%
X123300000Y-137100000D03*
%TO.N,A21*%
X122300000Y-135100000D03*
%TO.N,A22*%
X121300000Y-137100000D03*
%TO.N,A23*%
X120300000Y-135100000D03*
%TO.N,A24*%
X119300000Y-137100000D03*
%TO.N,A25*%
X118300000Y-135100000D03*
%TO.N,A26*%
X117300000Y-137100000D03*
%TO.N,A27*%
X116300000Y-135100000D03*
%TO.N,A28*%
X115300000Y-137100000D03*
%TO.N,A29*%
X114300000Y-135100000D03*
%TO.N,A30*%
X113300000Y-137100000D03*
%TO.N,A31*%
X112300000Y-135100000D03*
%TO.N,A32*%
X111300000Y-137100000D03*
%TO.N,A33*%
X110300000Y-135100000D03*
%TO.N,A34*%
X109300000Y-137100000D03*
%TO.N,A35*%
X108300000Y-135100000D03*
%TO.N,A36*%
X107300000Y-137100000D03*
%TO.N,A37*%
X106300000Y-135100000D03*
%TO.N,A38*%
X105300000Y-137100000D03*
%TO.N,A39*%
X104300000Y-135100000D03*
%TO.N,A40*%
X103300000Y-137100000D03*
%TO.N,A41*%
X102300000Y-135100000D03*
%TO.N,A42*%
X101300000Y-137100000D03*
%TO.N,A43*%
X100300000Y-135100000D03*
%TO.N,A44*%
X99300000Y-137100000D03*
%TO.N,A45*%
X98300000Y-135100000D03*
%TO.N,A46*%
X97300000Y-137100000D03*
%TO.N,A47*%
X96300000Y-135100000D03*
%TO.N,A48*%
X95300000Y-137100000D03*
%TO.N,A49*%
X94300000Y-135100000D03*
%TO.N,A50*%
X93300000Y-137100000D03*
%TO.N,A51*%
X92300000Y-135100000D03*
%TO.N,A52*%
X91300000Y-137100000D03*
%TO.N,A53*%
X90300000Y-135100000D03*
%TO.N,A54*%
X89300000Y-137100000D03*
%TO.N,A55*%
X88300000Y-135100000D03*
%TO.N,A56*%
X87300000Y-137100000D03*
%TO.N,A57*%
X86300000Y-135100000D03*
%TO.N,A58*%
X85300000Y-137100000D03*
%TO.N,A59*%
X84300000Y-135100000D03*
%TO.N,A60*%
X83300000Y-137100000D03*
%TO.N,A61*%
X82300000Y-135100000D03*
%TO.N,A62*%
X81300000Y-137100000D03*
%TO.N,A63*%
X80300000Y-135100000D03*
%TO.N,A64*%
X79300000Y-137100000D03*
%TO.N,A65*%
X78300000Y-135100000D03*
%TO.N,A66*%
X77300000Y-137100000D03*
%TO.N,A67*%
X76300000Y-135100000D03*
%TO.N,A68*%
X75300000Y-137100000D03*
%TO.N,A69*%
X74300000Y-135100000D03*
%TO.N,A70*%
X73300000Y-137100000D03*
%TO.N,A71*%
X72300000Y-135100000D03*
%TO.N,A72*%
X71300000Y-137100000D03*
%TO.N,A73*%
X70300000Y-135100000D03*
%TO.N,A74*%
X69300000Y-137100000D03*
%TO.N,A75*%
X68300000Y-135100000D03*
%TO.N,A76*%
X67300000Y-137100000D03*
%TO.N,A77*%
X66300000Y-135100000D03*
%TO.N,A78*%
X65300000Y-137100000D03*
%TO.N,A79*%
X64300000Y-135100000D03*
%TO.N,A80*%
X63300000Y-137100000D03*
%TO.N,A81*%
X62300000Y-135100000D03*
%TO.N,A82*%
X61300000Y-137100000D03*
%TO.N,B1*%
X144300000Y-132600000D03*
%TO.N,B2*%
X143300000Y-130600000D03*
%TO.N,B3*%
X142300000Y-132600000D03*
%TO.N,B4*%
X141300000Y-130600000D03*
%TO.N,B5*%
X140300000Y-132600000D03*
%TO.N,B6*%
X139300000Y-130600000D03*
%TO.N,B7*%
X138300000Y-132600000D03*
%TO.N,B8*%
X137300000Y-130600000D03*
%TO.N,B9*%
X136300000Y-132600000D03*
%TO.N,B10*%
X135300000Y-130600000D03*
%TO.N,B11*%
X134300000Y-132600000D03*
%TO.N,B12*%
X131300000Y-130600000D03*
%TO.N,B13*%
X130300000Y-132600000D03*
%TO.N,B14*%
X129300000Y-130600000D03*
%TO.N,B15*%
X128300000Y-132600000D03*
%TO.N,B16*%
X127300000Y-130600000D03*
%TO.N,B17*%
X126300000Y-132600000D03*
%TO.N,B18*%
X125300000Y-130600000D03*
%TO.N,B19*%
X124300000Y-132600000D03*
%TO.N,B20*%
X123300000Y-130600000D03*
%TO.N,B21*%
X122300000Y-132600000D03*
%TO.N,B22*%
X121300000Y-130600000D03*
%TO.N,B23*%
X120300000Y-132600000D03*
%TO.N,B24*%
X119300000Y-130600000D03*
%TO.N,B25*%
X118300000Y-132600000D03*
%TO.N,B26*%
X117300000Y-130600000D03*
%TO.N,B27*%
X116300000Y-132600000D03*
%TO.N,B28*%
X115300000Y-130600000D03*
%TO.N,B29*%
X114300000Y-132600000D03*
%TO.N,B30*%
X113300000Y-130600000D03*
%TO.N,B31*%
X112300000Y-132600000D03*
%TO.N,B32*%
X111300000Y-130600000D03*
%TO.N,B33*%
X110300000Y-132600000D03*
%TO.N,B34*%
X109300000Y-130600000D03*
%TO.N,B35*%
X108300000Y-132600000D03*
%TO.N,B36*%
X107300000Y-130600000D03*
%TO.N,B37*%
X106300000Y-132600000D03*
%TO.N,B38*%
X105300000Y-130600000D03*
%TO.N,B39*%
X104300000Y-132600000D03*
%TO.N,B40*%
X103300000Y-130600000D03*
%TO.N,B41*%
X102300000Y-132600000D03*
%TO.N,B42*%
X101300000Y-130600000D03*
%TO.N,B43*%
X100300000Y-132600000D03*
%TO.N,B44*%
X99300000Y-130600000D03*
%TO.N,B45*%
X98300000Y-132600000D03*
%TO.N,B46*%
X97300000Y-130600000D03*
%TO.N,B47*%
X96300000Y-132600000D03*
%TO.N,B48*%
X95300000Y-130600000D03*
%TO.N,B49*%
X94300000Y-132600000D03*
%TO.N,B50*%
X93300000Y-130600000D03*
%TO.N,B51*%
X92300000Y-132600000D03*
%TO.N,B52*%
X91300000Y-130600000D03*
%TO.N,B53*%
X90300000Y-132600000D03*
%TO.N,B54*%
X89300000Y-130600000D03*
%TO.N,B55*%
X88300000Y-132600000D03*
%TO.N,B56*%
X87300000Y-130600000D03*
%TO.N,B57*%
X86300000Y-132600000D03*
%TO.N,B58*%
X85300000Y-130600000D03*
%TO.N,B59*%
X84300000Y-132600000D03*
%TO.N,B60*%
X83300000Y-130600000D03*
%TO.N,B61*%
X82300000Y-132600000D03*
%TO.N,B62*%
X81300000Y-130600000D03*
%TO.N,B63*%
X80300000Y-132600000D03*
%TO.N,B64*%
X79300000Y-130600000D03*
%TO.N,B65*%
X78300000Y-132600000D03*
%TO.N,B66*%
X77300000Y-130600000D03*
%TO.N,B67*%
X76300000Y-132600000D03*
%TO.N,B68*%
X75300000Y-130600000D03*
%TO.N,B69*%
X74300000Y-132600000D03*
%TO.N,B70*%
X73300000Y-130600000D03*
%TO.N,B71*%
X72300000Y-132600000D03*
%TO.N,B72*%
X71300000Y-130600000D03*
%TO.N,B73*%
X70300000Y-132600000D03*
%TO.N,B74*%
X69300000Y-130600000D03*
%TO.N,B75*%
X68300000Y-132600000D03*
%TO.N,B76*%
X67300000Y-130600000D03*
%TO.N,B77*%
X66300000Y-132600000D03*
%TO.N,B78*%
X65300000Y-130600000D03*
%TO.N,B79*%
X64300000Y-132600000D03*
%TO.N,B80*%
X63300000Y-130600000D03*
%TO.N,B81*%
X62300000Y-132600000D03*
%TO.N,B82*%
X61300000Y-130600000D03*
%TD*%
D10*
%TO.N,A1*%
%TO.C,J10*%
X144300000Y-114780000D03*
D11*
%TO.N,A2*%
X143300000Y-116780000D03*
%TO.N,A3*%
X142300000Y-114780000D03*
%TO.N,A4*%
X141300000Y-116780000D03*
%TO.N,A5*%
X140300000Y-114780000D03*
%TO.N,A6*%
X139300000Y-116780000D03*
%TO.N,A7*%
X138300000Y-114780000D03*
%TO.N,A8*%
X137300000Y-116780000D03*
%TO.N,A9*%
X136300000Y-114780000D03*
%TO.N,A10*%
X135300000Y-116780000D03*
%TO.N,A11*%
X134300000Y-114780000D03*
%TO.N,A12*%
X131300000Y-116780000D03*
%TO.N,A13*%
X130300000Y-114780000D03*
%TO.N,A14*%
X129300000Y-116780000D03*
%TO.N,A15*%
X128300000Y-114780000D03*
%TO.N,A16*%
X127300000Y-116780000D03*
%TO.N,A17*%
X126300000Y-114780000D03*
%TO.N,A18*%
X125300000Y-116780000D03*
%TO.N,A19*%
X124300000Y-114780000D03*
%TO.N,A20*%
X123300000Y-116780000D03*
%TO.N,A21*%
X122300000Y-114780000D03*
%TO.N,A22*%
X121300000Y-116780000D03*
%TO.N,A23*%
X120300000Y-114780000D03*
%TO.N,A24*%
X119300000Y-116780000D03*
%TO.N,A25*%
X118300000Y-114780000D03*
%TO.N,A26*%
X117300000Y-116780000D03*
%TO.N,A27*%
X116300000Y-114780000D03*
%TO.N,A28*%
X115300000Y-116780000D03*
%TO.N,A29*%
X114300000Y-114780000D03*
%TO.N,A30*%
X113300000Y-116780000D03*
%TO.N,A31*%
X112300000Y-114780000D03*
%TO.N,A32*%
X111300000Y-116780000D03*
%TO.N,A33*%
X110300000Y-114780000D03*
%TO.N,A34*%
X109300000Y-116780000D03*
%TO.N,A35*%
X108300000Y-114780000D03*
%TO.N,A36*%
X107300000Y-116780000D03*
%TO.N,A37*%
X106300000Y-114780000D03*
%TO.N,A38*%
X105300000Y-116780000D03*
%TO.N,A39*%
X104300000Y-114780000D03*
%TO.N,A40*%
X103300000Y-116780000D03*
%TO.N,A41*%
X102300000Y-114780000D03*
%TO.N,A42*%
X101300000Y-116780000D03*
%TO.N,A43*%
X100300000Y-114780000D03*
%TO.N,A44*%
X99300000Y-116780000D03*
%TO.N,A45*%
X98300000Y-114780000D03*
%TO.N,A46*%
X97300000Y-116780000D03*
%TO.N,A47*%
X96300000Y-114780000D03*
%TO.N,A48*%
X95300000Y-116780000D03*
%TO.N,A49*%
X94300000Y-114780000D03*
%TO.N,A50*%
X93300000Y-116780000D03*
%TO.N,A51*%
X92300000Y-114780000D03*
%TO.N,A52*%
X91300000Y-116780000D03*
%TO.N,A53*%
X90300000Y-114780000D03*
%TO.N,A54*%
X89300000Y-116780000D03*
%TO.N,A55*%
X88300000Y-114780000D03*
%TO.N,A56*%
X87300000Y-116780000D03*
%TO.N,A57*%
X86300000Y-114780000D03*
%TO.N,A58*%
X85300000Y-116780000D03*
%TO.N,A59*%
X84300000Y-114780000D03*
%TO.N,A60*%
X83300000Y-116780000D03*
%TO.N,A61*%
X82300000Y-114780000D03*
%TO.N,A62*%
X81300000Y-116780000D03*
%TO.N,A63*%
X80300000Y-114780000D03*
%TO.N,A64*%
X79300000Y-116780000D03*
%TO.N,A65*%
X78300000Y-114780000D03*
%TO.N,A66*%
X77300000Y-116780000D03*
%TO.N,A67*%
X76300000Y-114780000D03*
%TO.N,A68*%
X75300000Y-116780000D03*
%TO.N,A69*%
X74300000Y-114780000D03*
%TO.N,A70*%
X73300000Y-116780000D03*
%TO.N,A71*%
X72300000Y-114780000D03*
%TO.N,A72*%
X71300000Y-116780000D03*
%TO.N,A73*%
X70300000Y-114780000D03*
%TO.N,A74*%
X69300000Y-116780000D03*
%TO.N,A75*%
X68300000Y-114780000D03*
%TO.N,A76*%
X67300000Y-116780000D03*
%TO.N,A77*%
X66300000Y-114780000D03*
%TO.N,A78*%
X65300000Y-116780000D03*
%TO.N,A79*%
X64300000Y-114780000D03*
%TO.N,A80*%
X63300000Y-116780000D03*
%TO.N,A81*%
X62300000Y-114780000D03*
%TO.N,A82*%
X61300000Y-116780000D03*
%TO.N,B1*%
X144300000Y-112280000D03*
%TO.N,B2*%
X143300000Y-110280000D03*
%TO.N,B3*%
X142300000Y-112280000D03*
%TO.N,B4*%
X141300000Y-110280000D03*
%TO.N,B5*%
X140300000Y-112280000D03*
%TO.N,B6*%
X139300000Y-110280000D03*
%TO.N,B7*%
X138300000Y-112280000D03*
%TO.N,B8*%
X137300000Y-110280000D03*
%TO.N,B9*%
X136300000Y-112280000D03*
%TO.N,B10*%
X135300000Y-110280000D03*
%TO.N,B11*%
X134300000Y-112280000D03*
%TO.N,B12*%
X131300000Y-110280000D03*
%TO.N,B13*%
X130300000Y-112280000D03*
%TO.N,B14*%
X129300000Y-110280000D03*
%TO.N,B15*%
X128300000Y-112280000D03*
%TO.N,B16*%
X127300000Y-110280000D03*
%TO.N,B17*%
X126300000Y-112280000D03*
%TO.N,B18*%
X125300000Y-110280000D03*
%TO.N,B19*%
X124300000Y-112280000D03*
%TO.N,B20*%
X123300000Y-110280000D03*
%TO.N,B21*%
X122300000Y-112280000D03*
%TO.N,B22*%
X121300000Y-110280000D03*
%TO.N,B23*%
X120300000Y-112280000D03*
%TO.N,B24*%
X119300000Y-110280000D03*
%TO.N,B25*%
X118300000Y-112280000D03*
%TO.N,B26*%
X117300000Y-110280000D03*
%TO.N,B27*%
X116300000Y-112280000D03*
%TO.N,B28*%
X115300000Y-110280000D03*
%TO.N,B29*%
X114300000Y-112280000D03*
%TO.N,B30*%
X113300000Y-110280000D03*
%TO.N,B31*%
X112300000Y-112280000D03*
%TO.N,B32*%
X111300000Y-110280000D03*
%TO.N,B33*%
X110300000Y-112280000D03*
%TO.N,B34*%
X109300000Y-110280000D03*
%TO.N,B35*%
X108300000Y-112280000D03*
%TO.N,B36*%
X107300000Y-110280000D03*
%TO.N,B37*%
X106300000Y-112280000D03*
%TO.N,B38*%
X105300000Y-110280000D03*
%TO.N,B39*%
X104300000Y-112280000D03*
%TO.N,B40*%
X103300000Y-110280000D03*
%TO.N,B41*%
X102300000Y-112280000D03*
%TO.N,B42*%
X101300000Y-110280000D03*
%TO.N,B43*%
X100300000Y-112280000D03*
%TO.N,B44*%
X99300000Y-110280000D03*
%TO.N,B45*%
X98300000Y-112280000D03*
%TO.N,B46*%
X97300000Y-110280000D03*
%TO.N,B47*%
X96300000Y-112280000D03*
%TO.N,B48*%
X95300000Y-110280000D03*
%TO.N,B49*%
X94300000Y-112280000D03*
%TO.N,B50*%
X93300000Y-110280000D03*
%TO.N,B51*%
X92300000Y-112280000D03*
%TO.N,B52*%
X91300000Y-110280000D03*
%TO.N,B53*%
X90300000Y-112280000D03*
%TO.N,B54*%
X89300000Y-110280000D03*
%TO.N,B55*%
X88300000Y-112280000D03*
%TO.N,B56*%
X87300000Y-110280000D03*
%TO.N,B57*%
X86300000Y-112280000D03*
%TO.N,B58*%
X85300000Y-110280000D03*
%TO.N,B59*%
X84300000Y-112280000D03*
%TO.N,B60*%
X83300000Y-110280000D03*
%TO.N,B61*%
X82300000Y-112280000D03*
%TO.N,B62*%
X81300000Y-110280000D03*
%TO.N,B63*%
X80300000Y-112280000D03*
%TO.N,B64*%
X79300000Y-110280000D03*
%TO.N,B65*%
X78300000Y-112280000D03*
%TO.N,B66*%
X77300000Y-110280000D03*
%TO.N,B67*%
X76300000Y-112280000D03*
%TO.N,B68*%
X75300000Y-110280000D03*
%TO.N,B69*%
X74300000Y-112280000D03*
%TO.N,B70*%
X73300000Y-110280000D03*
%TO.N,B71*%
X72300000Y-112280000D03*
%TO.N,B72*%
X71300000Y-110280000D03*
%TO.N,B73*%
X70300000Y-112280000D03*
%TO.N,B74*%
X69300000Y-110280000D03*
%TO.N,B75*%
X68300000Y-112280000D03*
%TO.N,B76*%
X67300000Y-110280000D03*
%TO.N,B77*%
X66300000Y-112280000D03*
%TO.N,B78*%
X65300000Y-110280000D03*
%TO.N,B79*%
X64300000Y-112280000D03*
%TO.N,B80*%
X63300000Y-110280000D03*
%TO.N,B81*%
X62300000Y-112280000D03*
%TO.N,B82*%
X61300000Y-110280000D03*
%TD*%
D10*
%TO.N,A1*%
%TO.C,J3*%
X144300000Y-74140000D03*
D11*
%TO.N,A2*%
X143300000Y-76140000D03*
%TO.N,A3*%
X142300000Y-74140000D03*
%TO.N,A4*%
X141300000Y-76140000D03*
%TO.N,A5*%
X140300000Y-74140000D03*
%TO.N,A6*%
X139300000Y-76140000D03*
%TO.N,A7*%
X138300000Y-74140000D03*
%TO.N,A8*%
X137300000Y-76140000D03*
%TO.N,A9*%
X136300000Y-74140000D03*
%TO.N,A10*%
X135300000Y-76140000D03*
%TO.N,A11*%
X134300000Y-74140000D03*
%TO.N,A12*%
X131300000Y-76140000D03*
%TO.N,A13*%
X130300000Y-74140000D03*
%TO.N,A14*%
X129300000Y-76140000D03*
%TO.N,A15*%
X128300000Y-74140000D03*
%TO.N,A16*%
X127300000Y-76140000D03*
%TO.N,A17*%
X126300000Y-74140000D03*
%TO.N,A18*%
X125300000Y-76140000D03*
%TO.N,A19*%
X124300000Y-74140000D03*
%TO.N,A20*%
X123300000Y-76140000D03*
%TO.N,A21*%
X122300000Y-74140000D03*
%TO.N,A22*%
X121300000Y-76140000D03*
%TO.N,A23*%
X120300000Y-74140000D03*
%TO.N,A24*%
X119300000Y-76140000D03*
%TO.N,A25*%
X118300000Y-74140000D03*
%TO.N,A26*%
X117300000Y-76140000D03*
%TO.N,A27*%
X116300000Y-74140000D03*
%TO.N,A28*%
X115300000Y-76140000D03*
%TO.N,A29*%
X114300000Y-74140000D03*
%TO.N,A30*%
X113300000Y-76140000D03*
%TO.N,A31*%
X112300000Y-74140000D03*
%TO.N,A32*%
X111300000Y-76140000D03*
%TO.N,A33*%
X110300000Y-74140000D03*
%TO.N,A34*%
X109300000Y-76140000D03*
%TO.N,A35*%
X108300000Y-74140000D03*
%TO.N,A36*%
X107300000Y-76140000D03*
%TO.N,A37*%
X106300000Y-74140000D03*
%TO.N,A38*%
X105300000Y-76140000D03*
%TO.N,A39*%
X104300000Y-74140000D03*
%TO.N,A40*%
X103300000Y-76140000D03*
%TO.N,A41*%
X102300000Y-74140000D03*
%TO.N,A42*%
X101300000Y-76140000D03*
%TO.N,A43*%
X100300000Y-74140000D03*
%TO.N,A44*%
X99300000Y-76140000D03*
%TO.N,A45*%
X98300000Y-74140000D03*
%TO.N,A46*%
X97300000Y-76140000D03*
%TO.N,A47*%
X96300000Y-74140000D03*
%TO.N,A48*%
X95300000Y-76140000D03*
%TO.N,A49*%
X94300000Y-74140000D03*
%TO.N,A50*%
X93300000Y-76140000D03*
%TO.N,A51*%
X92300000Y-74140000D03*
%TO.N,A52*%
X91300000Y-76140000D03*
%TO.N,A53*%
X90300000Y-74140000D03*
%TO.N,A54*%
X89300000Y-76140000D03*
%TO.N,A55*%
X88300000Y-74140000D03*
%TO.N,A56*%
X87300000Y-76140000D03*
%TO.N,A57*%
X86300000Y-74140000D03*
%TO.N,A58*%
X85300000Y-76140000D03*
%TO.N,A59*%
X84300000Y-74140000D03*
%TO.N,A60*%
X83300000Y-76140000D03*
%TO.N,A61*%
X82300000Y-74140000D03*
%TO.N,A62*%
X81300000Y-76140000D03*
%TO.N,A63*%
X80300000Y-74140000D03*
%TO.N,A64*%
X79300000Y-76140000D03*
%TO.N,A65*%
X78300000Y-74140000D03*
%TO.N,A66*%
X77300000Y-76140000D03*
%TO.N,A67*%
X76300000Y-74140000D03*
%TO.N,A68*%
X75300000Y-76140000D03*
%TO.N,A69*%
X74300000Y-74140000D03*
%TO.N,A70*%
X73300000Y-76140000D03*
%TO.N,A71*%
X72300000Y-74140000D03*
%TO.N,A72*%
X71300000Y-76140000D03*
%TO.N,A73*%
X70300000Y-74140000D03*
%TO.N,A74*%
X69300000Y-76140000D03*
%TO.N,A75*%
X68300000Y-74140000D03*
%TO.N,A76*%
X67300000Y-76140000D03*
%TO.N,A77*%
X66300000Y-74140000D03*
%TO.N,A78*%
X65300000Y-76140000D03*
%TO.N,A79*%
X64300000Y-74140000D03*
%TO.N,A80*%
X63300000Y-76140000D03*
%TO.N,A81*%
X62300000Y-74140000D03*
%TO.N,A82*%
X61300000Y-76140000D03*
%TO.N,B1*%
X144300000Y-71640000D03*
%TO.N,B2*%
X143300000Y-69640000D03*
%TO.N,B3*%
X142300000Y-71640000D03*
%TO.N,B4*%
X141300000Y-69640000D03*
%TO.N,B5*%
X140300000Y-71640000D03*
%TO.N,B6*%
X139300000Y-69640000D03*
%TO.N,B7*%
X138300000Y-71640000D03*
%TO.N,B8*%
X137300000Y-69640000D03*
%TO.N,B9*%
X136300000Y-71640000D03*
%TO.N,B10*%
X135300000Y-69640000D03*
%TO.N,B11*%
X134300000Y-71640000D03*
%TO.N,B12*%
X131300000Y-69640000D03*
%TO.N,B13*%
X130300000Y-71640000D03*
%TO.N,B14*%
X129300000Y-69640000D03*
%TO.N,B15*%
X128300000Y-71640000D03*
%TO.N,B16*%
X127300000Y-69640000D03*
%TO.N,B17*%
X126300000Y-71640000D03*
%TO.N,B18*%
X125300000Y-69640000D03*
%TO.N,B19*%
X124300000Y-71640000D03*
%TO.N,B20*%
X123300000Y-69640000D03*
%TO.N,B21*%
X122300000Y-71640000D03*
%TO.N,B22*%
X121300000Y-69640000D03*
%TO.N,B23*%
X120300000Y-71640000D03*
%TO.N,B24*%
X119300000Y-69640000D03*
%TO.N,B25*%
X118300000Y-71640000D03*
%TO.N,B26*%
X117300000Y-69640000D03*
%TO.N,B27*%
X116300000Y-71640000D03*
%TO.N,B28*%
X115300000Y-69640000D03*
%TO.N,B29*%
X114300000Y-71640000D03*
%TO.N,B30*%
X113300000Y-69640000D03*
%TO.N,B31*%
X112300000Y-71640000D03*
%TO.N,B32*%
X111300000Y-69640000D03*
%TO.N,B33*%
X110300000Y-71640000D03*
%TO.N,B34*%
X109300000Y-69640000D03*
%TO.N,B35*%
X108300000Y-71640000D03*
%TO.N,B36*%
X107300000Y-69640000D03*
%TO.N,B37*%
X106300000Y-71640000D03*
%TO.N,B38*%
X105300000Y-69640000D03*
%TO.N,B39*%
X104300000Y-71640000D03*
%TO.N,B40*%
X103300000Y-69640000D03*
%TO.N,B41*%
X102300000Y-71640000D03*
%TO.N,B42*%
X101300000Y-69640000D03*
%TO.N,B43*%
X100300000Y-71640000D03*
%TO.N,B44*%
X99300000Y-69640000D03*
%TO.N,B45*%
X98300000Y-71640000D03*
%TO.N,B46*%
X97300000Y-69640000D03*
%TO.N,B47*%
X96300000Y-71640000D03*
%TO.N,B48*%
X95300000Y-69640000D03*
%TO.N,B49*%
X94300000Y-71640000D03*
%TO.N,B50*%
X93300000Y-69640000D03*
%TO.N,B51*%
X92300000Y-71640000D03*
%TO.N,B52*%
X91300000Y-69640000D03*
%TO.N,B53*%
X90300000Y-71640000D03*
%TO.N,B54*%
X89300000Y-69640000D03*
%TO.N,B55*%
X88300000Y-71640000D03*
%TO.N,B56*%
X87300000Y-69640000D03*
%TO.N,B57*%
X86300000Y-71640000D03*
%TO.N,B58*%
X85300000Y-69640000D03*
%TO.N,B59*%
X84300000Y-71640000D03*
%TO.N,B60*%
X83300000Y-69640000D03*
%TO.N,B61*%
X82300000Y-71640000D03*
%TO.N,B62*%
X81300000Y-69640000D03*
%TO.N,B63*%
X80300000Y-71640000D03*
%TO.N,B64*%
X79300000Y-69640000D03*
%TO.N,B65*%
X78300000Y-71640000D03*
%TO.N,B66*%
X77300000Y-69640000D03*
%TO.N,B67*%
X76300000Y-71640000D03*
%TO.N,B68*%
X75300000Y-69640000D03*
%TO.N,B69*%
X74300000Y-71640000D03*
%TO.N,B70*%
X73300000Y-69640000D03*
%TO.N,B71*%
X72300000Y-71640000D03*
%TO.N,B72*%
X71300000Y-69640000D03*
%TO.N,B73*%
X70300000Y-71640000D03*
%TO.N,B74*%
X69300000Y-69640000D03*
%TO.N,B75*%
X68300000Y-71640000D03*
%TO.N,B76*%
X67300000Y-69640000D03*
%TO.N,B77*%
X66300000Y-71640000D03*
%TO.N,B78*%
X65300000Y-69640000D03*
%TO.N,B79*%
X64300000Y-71640000D03*
%TO.N,B80*%
X63300000Y-69640000D03*
%TO.N,B81*%
X62300000Y-71640000D03*
%TO.N,B82*%
X61300000Y-69640000D03*
%TD*%
D10*
%TO.N,A1*%
%TO.C,J13*%
X144300000Y-53820000D03*
D11*
%TO.N,A2*%
X143300000Y-55820000D03*
%TO.N,A3*%
X142300000Y-53820000D03*
%TO.N,A4*%
X141300000Y-55820000D03*
%TO.N,A5*%
X140300000Y-53820000D03*
%TO.N,A6*%
X139300000Y-55820000D03*
%TO.N,A7*%
X138300000Y-53820000D03*
%TO.N,A8*%
X137300000Y-55820000D03*
%TO.N,A9*%
X136300000Y-53820000D03*
%TO.N,A10*%
X135300000Y-55820000D03*
%TO.N,A11*%
X134300000Y-53820000D03*
%TO.N,A12*%
X131300000Y-55820000D03*
%TO.N,A13*%
X130300000Y-53820000D03*
%TO.N,A14*%
X129300000Y-55820000D03*
%TO.N,A15*%
X128300000Y-53820000D03*
%TO.N,A16*%
X127300000Y-55820000D03*
%TO.N,A17*%
X126300000Y-53820000D03*
%TO.N,A18*%
X125300000Y-55820000D03*
%TO.N,A19*%
X124300000Y-53820000D03*
%TO.N,A20*%
X123300000Y-55820000D03*
%TO.N,A21*%
X122300000Y-53820000D03*
%TO.N,A22*%
X121300000Y-55820000D03*
%TO.N,A23*%
X120300000Y-53820000D03*
%TO.N,A24*%
X119300000Y-55820000D03*
%TO.N,A25*%
X118300000Y-53820000D03*
%TO.N,A26*%
X117300000Y-55820000D03*
%TO.N,A27*%
X116300000Y-53820000D03*
%TO.N,A28*%
X115300000Y-55820000D03*
%TO.N,A29*%
X114300000Y-53820000D03*
%TO.N,A30*%
X113300000Y-55820000D03*
%TO.N,A31*%
X112300000Y-53820000D03*
%TO.N,A32*%
X111300000Y-55820000D03*
%TO.N,A33*%
X110300000Y-53820000D03*
%TO.N,A34*%
X109300000Y-55820000D03*
%TO.N,A35*%
X108300000Y-53820000D03*
%TO.N,A36*%
X107300000Y-55820000D03*
%TO.N,A37*%
X106300000Y-53820000D03*
%TO.N,A38*%
X105300000Y-55820000D03*
%TO.N,A39*%
X104300000Y-53820000D03*
%TO.N,A40*%
X103300000Y-55820000D03*
%TO.N,A41*%
X102300000Y-53820000D03*
%TO.N,A42*%
X101300000Y-55820000D03*
%TO.N,A43*%
X100300000Y-53820000D03*
%TO.N,A44*%
X99300000Y-55820000D03*
%TO.N,A45*%
X98300000Y-53820000D03*
%TO.N,A46*%
X97300000Y-55820000D03*
%TO.N,A47*%
X96300000Y-53820000D03*
%TO.N,A48*%
X95300000Y-55820000D03*
%TO.N,A49*%
X94300000Y-53820000D03*
%TO.N,A50*%
X93300000Y-55820000D03*
%TO.N,A51*%
X92300000Y-53820000D03*
%TO.N,A52*%
X91300000Y-55820000D03*
%TO.N,A53*%
X90300000Y-53820000D03*
%TO.N,A54*%
X89300000Y-55820000D03*
%TO.N,A55*%
X88300000Y-53820000D03*
%TO.N,A56*%
X87300000Y-55820000D03*
%TO.N,A57*%
X86300000Y-53820000D03*
%TO.N,A58*%
X85300000Y-55820000D03*
%TO.N,A59*%
X84300000Y-53820000D03*
%TO.N,A60*%
X83300000Y-55820000D03*
%TO.N,A61*%
X82300000Y-53820000D03*
%TO.N,A62*%
X81300000Y-55820000D03*
%TO.N,A63*%
X80300000Y-53820000D03*
%TO.N,A64*%
X79300000Y-55820000D03*
%TO.N,A65*%
X78300000Y-53820000D03*
%TO.N,A66*%
X77300000Y-55820000D03*
%TO.N,A67*%
X76300000Y-53820000D03*
%TO.N,A68*%
X75300000Y-55820000D03*
%TO.N,A69*%
X74300000Y-53820000D03*
%TO.N,A70*%
X73300000Y-55820000D03*
%TO.N,A71*%
X72300000Y-53820000D03*
%TO.N,A72*%
X71300000Y-55820000D03*
%TO.N,A73*%
X70300000Y-53820000D03*
%TO.N,A74*%
X69300000Y-55820000D03*
%TO.N,A75*%
X68300000Y-53820000D03*
%TO.N,A76*%
X67300000Y-55820000D03*
%TO.N,A77*%
X66300000Y-53820000D03*
%TO.N,A78*%
X65300000Y-55820000D03*
%TO.N,A79*%
X64300000Y-53820000D03*
%TO.N,A80*%
X63300000Y-55820000D03*
%TO.N,A81*%
X62300000Y-53820000D03*
%TO.N,A82*%
X61300000Y-55820000D03*
%TO.N,B1*%
X144300000Y-51320000D03*
%TO.N,B2*%
X143300000Y-49320000D03*
%TO.N,B3*%
X142300000Y-51320000D03*
%TO.N,B4*%
X141300000Y-49320000D03*
%TO.N,B5*%
X140300000Y-51320000D03*
%TO.N,B6*%
X139300000Y-49320000D03*
%TO.N,B7*%
X138300000Y-51320000D03*
%TO.N,B8*%
X137300000Y-49320000D03*
%TO.N,B9*%
X136300000Y-51320000D03*
%TO.N,B10*%
X135300000Y-49320000D03*
%TO.N,B11*%
X134300000Y-51320000D03*
%TO.N,B12*%
X131300000Y-49320000D03*
%TO.N,B13*%
X130300000Y-51320000D03*
%TO.N,B14*%
X129300000Y-49320000D03*
%TO.N,B15*%
X128300000Y-51320000D03*
%TO.N,B16*%
X127300000Y-49320000D03*
%TO.N,B17*%
X126300000Y-51320000D03*
%TO.N,B18*%
X125300000Y-49320000D03*
%TO.N,B19*%
X124300000Y-51320000D03*
%TO.N,B20*%
X123300000Y-49320000D03*
%TO.N,B21*%
X122300000Y-51320000D03*
%TO.N,B22*%
X121300000Y-49320000D03*
%TO.N,B23*%
X120300000Y-51320000D03*
%TO.N,B24*%
X119300000Y-49320000D03*
%TO.N,B25*%
X118300000Y-51320000D03*
%TO.N,B26*%
X117300000Y-49320000D03*
%TO.N,B27*%
X116300000Y-51320000D03*
%TO.N,B28*%
X115300000Y-49320000D03*
%TO.N,B29*%
X114300000Y-51320000D03*
%TO.N,B30*%
X113300000Y-49320000D03*
%TO.N,B31*%
X112300000Y-51320000D03*
%TO.N,B32*%
X111300000Y-49320000D03*
%TO.N,B33*%
X110300000Y-51320000D03*
%TO.N,B34*%
X109300000Y-49320000D03*
%TO.N,B35*%
X108300000Y-51320000D03*
%TO.N,B36*%
X107300000Y-49320000D03*
%TO.N,B37*%
X106300000Y-51320000D03*
%TO.N,B38*%
X105300000Y-49320000D03*
%TO.N,B39*%
X104300000Y-51320000D03*
%TO.N,B40*%
X103300000Y-49320000D03*
%TO.N,B41*%
X102300000Y-51320000D03*
%TO.N,B42*%
X101300000Y-49320000D03*
%TO.N,B43*%
X100300000Y-51320000D03*
%TO.N,B44*%
X99300000Y-49320000D03*
%TO.N,B45*%
X98300000Y-51320000D03*
%TO.N,B46*%
X97300000Y-49320000D03*
%TO.N,B47*%
X96300000Y-51320000D03*
%TO.N,B48*%
X95300000Y-49320000D03*
%TO.N,B49*%
X94300000Y-51320000D03*
%TO.N,B50*%
X93300000Y-49320000D03*
%TO.N,B51*%
X92300000Y-51320000D03*
%TO.N,B52*%
X91300000Y-49320000D03*
%TO.N,B53*%
X90300000Y-51320000D03*
%TO.N,B54*%
X89300000Y-49320000D03*
%TO.N,B55*%
X88300000Y-51320000D03*
%TO.N,B56*%
X87300000Y-49320000D03*
%TO.N,B57*%
X86300000Y-51320000D03*
%TO.N,B58*%
X85300000Y-49320000D03*
%TO.N,B59*%
X84300000Y-51320000D03*
%TO.N,B60*%
X83300000Y-49320000D03*
%TO.N,B61*%
X82300000Y-51320000D03*
%TO.N,B62*%
X81300000Y-49320000D03*
%TO.N,B63*%
X80300000Y-51320000D03*
%TO.N,B64*%
X79300000Y-49320000D03*
%TO.N,B65*%
X78300000Y-51320000D03*
%TO.N,B66*%
X77300000Y-49320000D03*
%TO.N,B67*%
X76300000Y-51320000D03*
%TO.N,B68*%
X75300000Y-49320000D03*
%TO.N,B69*%
X74300000Y-51320000D03*
%TO.N,B70*%
X73300000Y-49320000D03*
%TO.N,B71*%
X72300000Y-51320000D03*
%TO.N,B72*%
X71300000Y-49320000D03*
%TO.N,B73*%
X70300000Y-51320000D03*
%TO.N,B74*%
X69300000Y-49320000D03*
%TO.N,B75*%
X68300000Y-51320000D03*
%TO.N,B76*%
X67300000Y-49320000D03*
%TO.N,B77*%
X66300000Y-51320000D03*
%TO.N,B78*%
X65300000Y-49320000D03*
%TO.N,B79*%
X64300000Y-51320000D03*
%TO.N,B80*%
X63300000Y-49320000D03*
%TO.N,B81*%
X62300000Y-51320000D03*
%TO.N,B82*%
X61300000Y-49320000D03*
%TD*%
D10*
%TO.N,A1*%
%TO.C,J4*%
X144300000Y-94460000D03*
D11*
%TO.N,A2*%
X143300000Y-96460000D03*
%TO.N,A3*%
X142300000Y-94460000D03*
%TO.N,A4*%
X141300000Y-96460000D03*
%TO.N,A5*%
X140300000Y-94460000D03*
%TO.N,A6*%
X139300000Y-96460000D03*
%TO.N,A7*%
X138300000Y-94460000D03*
%TO.N,A8*%
X137300000Y-96460000D03*
%TO.N,A9*%
X136300000Y-94460000D03*
%TO.N,A10*%
X135300000Y-96460000D03*
%TO.N,A11*%
X134300000Y-94460000D03*
%TO.N,A12*%
X131300000Y-96460000D03*
%TO.N,A13*%
X130300000Y-94460000D03*
%TO.N,A14*%
X129300000Y-96460000D03*
%TO.N,A15*%
X128300000Y-94460000D03*
%TO.N,A16*%
X127300000Y-96460000D03*
%TO.N,A17*%
X126300000Y-94460000D03*
%TO.N,A18*%
X125300000Y-96460000D03*
%TO.N,A19*%
X124300000Y-94460000D03*
%TO.N,A20*%
X123300000Y-96460000D03*
%TO.N,A21*%
X122300000Y-94460000D03*
%TO.N,A22*%
X121300000Y-96460000D03*
%TO.N,A23*%
X120300000Y-94460000D03*
%TO.N,A24*%
X119300000Y-96460000D03*
%TO.N,A25*%
X118300000Y-94460000D03*
%TO.N,A26*%
X117300000Y-96460000D03*
%TO.N,A27*%
X116300000Y-94460000D03*
%TO.N,A28*%
X115300000Y-96460000D03*
%TO.N,A29*%
X114300000Y-94460000D03*
%TO.N,A30*%
X113300000Y-96460000D03*
%TO.N,A31*%
X112300000Y-94460000D03*
%TO.N,A32*%
X111300000Y-96460000D03*
%TO.N,A33*%
X110300000Y-94460000D03*
%TO.N,A34*%
X109300000Y-96460000D03*
%TO.N,A35*%
X108300000Y-94460000D03*
%TO.N,A36*%
X107300000Y-96460000D03*
%TO.N,A37*%
X106300000Y-94460000D03*
%TO.N,A38*%
X105300000Y-96460000D03*
%TO.N,A39*%
X104300000Y-94460000D03*
%TO.N,A40*%
X103300000Y-96460000D03*
%TO.N,A41*%
X102300000Y-94460000D03*
%TO.N,A42*%
X101300000Y-96460000D03*
%TO.N,A43*%
X100300000Y-94460000D03*
%TO.N,A44*%
X99300000Y-96460000D03*
%TO.N,A45*%
X98300000Y-94460000D03*
%TO.N,A46*%
X97300000Y-96460000D03*
%TO.N,A47*%
X96300000Y-94460000D03*
%TO.N,A48*%
X95300000Y-96460000D03*
%TO.N,A49*%
X94300000Y-94460000D03*
%TO.N,A50*%
X93300000Y-96460000D03*
%TO.N,A51*%
X92300000Y-94460000D03*
%TO.N,A52*%
X91300000Y-96460000D03*
%TO.N,A53*%
X90300000Y-94460000D03*
%TO.N,A54*%
X89300000Y-96460000D03*
%TO.N,A55*%
X88300000Y-94460000D03*
%TO.N,A56*%
X87300000Y-96460000D03*
%TO.N,A57*%
X86300000Y-94460000D03*
%TO.N,A58*%
X85300000Y-96460000D03*
%TO.N,A59*%
X84300000Y-94460000D03*
%TO.N,A60*%
X83300000Y-96460000D03*
%TO.N,A61*%
X82300000Y-94460000D03*
%TO.N,A62*%
X81300000Y-96460000D03*
%TO.N,A63*%
X80300000Y-94460000D03*
%TO.N,A64*%
X79300000Y-96460000D03*
%TO.N,A65*%
X78300000Y-94460000D03*
%TO.N,A66*%
X77300000Y-96460000D03*
%TO.N,A67*%
X76300000Y-94460000D03*
%TO.N,A68*%
X75300000Y-96460000D03*
%TO.N,A69*%
X74300000Y-94460000D03*
%TO.N,A70*%
X73300000Y-96460000D03*
%TO.N,A71*%
X72300000Y-94460000D03*
%TO.N,A72*%
X71300000Y-96460000D03*
%TO.N,A73*%
X70300000Y-94460000D03*
%TO.N,A74*%
X69300000Y-96460000D03*
%TO.N,A75*%
X68300000Y-94460000D03*
%TO.N,A76*%
X67300000Y-96460000D03*
%TO.N,A77*%
X66300000Y-94460000D03*
%TO.N,A78*%
X65300000Y-96460000D03*
%TO.N,A79*%
X64300000Y-94460000D03*
%TO.N,A80*%
X63300000Y-96460000D03*
%TO.N,A81*%
X62300000Y-94460000D03*
%TO.N,A82*%
X61300000Y-96460000D03*
%TO.N,B1*%
X144300000Y-91960000D03*
%TO.N,B2*%
X143300000Y-89960000D03*
%TO.N,B3*%
X142300000Y-91960000D03*
%TO.N,B4*%
X141300000Y-89960000D03*
%TO.N,B5*%
X140300000Y-91960000D03*
%TO.N,B6*%
X139300000Y-89960000D03*
%TO.N,B7*%
X138300000Y-91960000D03*
%TO.N,B8*%
X137300000Y-89960000D03*
%TO.N,B9*%
X136300000Y-91960000D03*
%TO.N,B10*%
X135300000Y-89960000D03*
%TO.N,B11*%
X134300000Y-91960000D03*
%TO.N,B12*%
X131300000Y-89960000D03*
%TO.N,B13*%
X130300000Y-91960000D03*
%TO.N,B14*%
X129300000Y-89960000D03*
%TO.N,B15*%
X128300000Y-91960000D03*
%TO.N,B16*%
X127300000Y-89960000D03*
%TO.N,B17*%
X126300000Y-91960000D03*
%TO.N,B18*%
X125300000Y-89960000D03*
%TO.N,B19*%
X124300000Y-91960000D03*
%TO.N,B20*%
X123300000Y-89960000D03*
%TO.N,B21*%
X122300000Y-91960000D03*
%TO.N,B22*%
X121300000Y-89960000D03*
%TO.N,B23*%
X120300000Y-91960000D03*
%TO.N,B24*%
X119300000Y-89960000D03*
%TO.N,B25*%
X118300000Y-91960000D03*
%TO.N,B26*%
X117300000Y-89960000D03*
%TO.N,B27*%
X116300000Y-91960000D03*
%TO.N,B28*%
X115300000Y-89960000D03*
%TO.N,B29*%
X114300000Y-91960000D03*
%TO.N,B30*%
X113300000Y-89960000D03*
%TO.N,B31*%
X112300000Y-91960000D03*
%TO.N,B32*%
X111300000Y-89960000D03*
%TO.N,B33*%
X110300000Y-91960000D03*
%TO.N,B34*%
X109300000Y-89960000D03*
%TO.N,B35*%
X108300000Y-91960000D03*
%TO.N,B36*%
X107300000Y-89960000D03*
%TO.N,B37*%
X106300000Y-91960000D03*
%TO.N,B38*%
X105300000Y-89960000D03*
%TO.N,B39*%
X104300000Y-91960000D03*
%TO.N,B40*%
X103300000Y-89960000D03*
%TO.N,B41*%
X102300000Y-91960000D03*
%TO.N,B42*%
X101300000Y-89960000D03*
%TO.N,B43*%
X100300000Y-91960000D03*
%TO.N,B44*%
X99300000Y-89960000D03*
%TO.N,B45*%
X98300000Y-91960000D03*
%TO.N,B46*%
X97300000Y-89960000D03*
%TO.N,B47*%
X96300000Y-91960000D03*
%TO.N,B48*%
X95300000Y-89960000D03*
%TO.N,B49*%
X94300000Y-91960000D03*
%TO.N,B50*%
X93300000Y-89960000D03*
%TO.N,B51*%
X92300000Y-91960000D03*
%TO.N,B52*%
X91300000Y-89960000D03*
%TO.N,B53*%
X90300000Y-91960000D03*
%TO.N,B54*%
X89300000Y-89960000D03*
%TO.N,B55*%
X88300000Y-91960000D03*
%TO.N,B56*%
X87300000Y-89960000D03*
%TO.N,B57*%
X86300000Y-91960000D03*
%TO.N,B58*%
X85300000Y-89960000D03*
%TO.N,B59*%
X84300000Y-91960000D03*
%TO.N,B60*%
X83300000Y-89960000D03*
%TO.N,B61*%
X82300000Y-91960000D03*
%TO.N,B62*%
X81300000Y-89960000D03*
%TO.N,B63*%
X80300000Y-91960000D03*
%TO.N,B64*%
X79300000Y-89960000D03*
%TO.N,B65*%
X78300000Y-91960000D03*
%TO.N,B66*%
X77300000Y-89960000D03*
%TO.N,B67*%
X76300000Y-91960000D03*
%TO.N,B68*%
X75300000Y-89960000D03*
%TO.N,B69*%
X74300000Y-91960000D03*
%TO.N,B70*%
X73300000Y-89960000D03*
%TO.N,B71*%
X72300000Y-91960000D03*
%TO.N,B72*%
X71300000Y-89960000D03*
%TO.N,B73*%
X70300000Y-91960000D03*
%TO.N,B74*%
X69300000Y-89960000D03*
%TO.N,B75*%
X68300000Y-91960000D03*
%TO.N,B76*%
X67300000Y-89960000D03*
%TO.N,B77*%
X66300000Y-91960000D03*
%TO.N,B78*%
X65300000Y-89960000D03*
%TO.N,B79*%
X64300000Y-91960000D03*
%TO.N,B80*%
X63300000Y-89960000D03*
%TO.N,B81*%
X62300000Y-91960000D03*
%TO.N,B82*%
X61300000Y-89960000D03*
%TD*%
D10*
%TO.N,A1*%
%TO.C,J2*%
X144300000Y-53820000D03*
D11*
%TO.N,A2*%
X143300000Y-55820000D03*
%TO.N,A3*%
X142300000Y-53820000D03*
%TO.N,A4*%
X141300000Y-55820000D03*
%TO.N,A5*%
X140300000Y-53820000D03*
%TO.N,A6*%
X139300000Y-55820000D03*
%TO.N,A7*%
X138300000Y-53820000D03*
%TO.N,A8*%
X137300000Y-55820000D03*
%TO.N,A9*%
X136300000Y-53820000D03*
%TO.N,A10*%
X135300000Y-55820000D03*
%TO.N,A11*%
X134300000Y-53820000D03*
%TO.N,A12*%
X131300000Y-55820000D03*
%TO.N,A13*%
X130300000Y-53820000D03*
%TO.N,A14*%
X129300000Y-55820000D03*
%TO.N,A15*%
X128300000Y-53820000D03*
%TO.N,A16*%
X127300000Y-55820000D03*
%TO.N,A17*%
X126300000Y-53820000D03*
%TO.N,A18*%
X125300000Y-55820000D03*
%TO.N,A19*%
X124300000Y-53820000D03*
%TO.N,A20*%
X123300000Y-55820000D03*
%TO.N,A21*%
X122300000Y-53820000D03*
%TO.N,A22*%
X121300000Y-55820000D03*
%TO.N,A23*%
X120300000Y-53820000D03*
%TO.N,A24*%
X119300000Y-55820000D03*
%TO.N,A25*%
X118300000Y-53820000D03*
%TO.N,A26*%
X117300000Y-55820000D03*
%TO.N,A27*%
X116300000Y-53820000D03*
%TO.N,A28*%
X115300000Y-55820000D03*
%TO.N,A29*%
X114300000Y-53820000D03*
%TO.N,A30*%
X113300000Y-55820000D03*
%TO.N,A31*%
X112300000Y-53820000D03*
%TO.N,A32*%
X111300000Y-55820000D03*
%TO.N,A33*%
X110300000Y-53820000D03*
%TO.N,A34*%
X109300000Y-55820000D03*
%TO.N,A35*%
X108300000Y-53820000D03*
%TO.N,A36*%
X107300000Y-55820000D03*
%TO.N,A37*%
X106300000Y-53820000D03*
%TO.N,A38*%
X105300000Y-55820000D03*
%TO.N,A39*%
X104300000Y-53820000D03*
%TO.N,A40*%
X103300000Y-55820000D03*
%TO.N,A41*%
X102300000Y-53820000D03*
%TO.N,A42*%
X101300000Y-55820000D03*
%TO.N,A43*%
X100300000Y-53820000D03*
%TO.N,A44*%
X99300000Y-55820000D03*
%TO.N,A45*%
X98300000Y-53820000D03*
%TO.N,A46*%
X97300000Y-55820000D03*
%TO.N,A47*%
X96300000Y-53820000D03*
%TO.N,A48*%
X95300000Y-55820000D03*
%TO.N,A49*%
X94300000Y-53820000D03*
%TO.N,A50*%
X93300000Y-55820000D03*
%TO.N,A51*%
X92300000Y-53820000D03*
%TO.N,A52*%
X91300000Y-55820000D03*
%TO.N,A53*%
X90300000Y-53820000D03*
%TO.N,A54*%
X89300000Y-55820000D03*
%TO.N,A55*%
X88300000Y-53820000D03*
%TO.N,A56*%
X87300000Y-55820000D03*
%TO.N,A57*%
X86300000Y-53820000D03*
%TO.N,A58*%
X85300000Y-55820000D03*
%TO.N,A59*%
X84300000Y-53820000D03*
%TO.N,A60*%
X83300000Y-55820000D03*
%TO.N,A61*%
X82300000Y-53820000D03*
%TO.N,A62*%
X81300000Y-55820000D03*
%TO.N,A63*%
X80300000Y-53820000D03*
%TO.N,A64*%
X79300000Y-55820000D03*
%TO.N,A65*%
X78300000Y-53820000D03*
%TO.N,A66*%
X77300000Y-55820000D03*
%TO.N,A67*%
X76300000Y-53820000D03*
%TO.N,A68*%
X75300000Y-55820000D03*
%TO.N,A69*%
X74300000Y-53820000D03*
%TO.N,A70*%
X73300000Y-55820000D03*
%TO.N,A71*%
X72300000Y-53820000D03*
%TO.N,A72*%
X71300000Y-55820000D03*
%TO.N,A73*%
X70300000Y-53820000D03*
%TO.N,A74*%
X69300000Y-55820000D03*
%TO.N,A75*%
X68300000Y-53820000D03*
%TO.N,A76*%
X67300000Y-55820000D03*
%TO.N,A77*%
X66300000Y-53820000D03*
%TO.N,A78*%
X65300000Y-55820000D03*
%TO.N,A79*%
X64300000Y-53820000D03*
%TO.N,A80*%
X63300000Y-55820000D03*
%TO.N,A81*%
X62300000Y-53820000D03*
%TO.N,A82*%
X61300000Y-55820000D03*
%TO.N,B1*%
X144300000Y-51320000D03*
%TO.N,B2*%
X143300000Y-49320000D03*
%TO.N,B3*%
X142300000Y-51320000D03*
%TO.N,B4*%
X141300000Y-49320000D03*
%TO.N,B5*%
X140300000Y-51320000D03*
%TO.N,B6*%
X139300000Y-49320000D03*
%TO.N,B7*%
X138300000Y-51320000D03*
%TO.N,B8*%
X137300000Y-49320000D03*
%TO.N,B9*%
X136300000Y-51320000D03*
%TO.N,B10*%
X135300000Y-49320000D03*
%TO.N,B11*%
X134300000Y-51320000D03*
%TO.N,B12*%
X131300000Y-49320000D03*
%TO.N,B13*%
X130300000Y-51320000D03*
%TO.N,B14*%
X129300000Y-49320000D03*
%TO.N,B15*%
X128300000Y-51320000D03*
%TO.N,B16*%
X127300000Y-49320000D03*
%TO.N,B17*%
X126300000Y-51320000D03*
%TO.N,B18*%
X125300000Y-49320000D03*
%TO.N,B19*%
X124300000Y-51320000D03*
%TO.N,B20*%
X123300000Y-49320000D03*
%TO.N,B21*%
X122300000Y-51320000D03*
%TO.N,B22*%
X121300000Y-49320000D03*
%TO.N,B23*%
X120300000Y-51320000D03*
%TO.N,B24*%
X119300000Y-49320000D03*
%TO.N,B25*%
X118300000Y-51320000D03*
%TO.N,B26*%
X117300000Y-49320000D03*
%TO.N,B27*%
X116300000Y-51320000D03*
%TO.N,B28*%
X115300000Y-49320000D03*
%TO.N,B29*%
X114300000Y-51320000D03*
%TO.N,B30*%
X113300000Y-49320000D03*
%TO.N,B31*%
X112300000Y-51320000D03*
%TO.N,B32*%
X111300000Y-49320000D03*
%TO.N,B33*%
X110300000Y-51320000D03*
%TO.N,B34*%
X109300000Y-49320000D03*
%TO.N,B35*%
X108300000Y-51320000D03*
%TO.N,B36*%
X107300000Y-49320000D03*
%TO.N,B37*%
X106300000Y-51320000D03*
%TO.N,B38*%
X105300000Y-49320000D03*
%TO.N,B39*%
X104300000Y-51320000D03*
%TO.N,B40*%
X103300000Y-49320000D03*
%TO.N,B41*%
X102300000Y-51320000D03*
%TO.N,B42*%
X101300000Y-49320000D03*
%TO.N,B43*%
X100300000Y-51320000D03*
%TO.N,B44*%
X99300000Y-49320000D03*
%TO.N,B45*%
X98300000Y-51320000D03*
%TO.N,B46*%
X97300000Y-49320000D03*
%TO.N,B47*%
X96300000Y-51320000D03*
%TO.N,B48*%
X95300000Y-49320000D03*
%TO.N,B49*%
X94300000Y-51320000D03*
%TO.N,B50*%
X93300000Y-49320000D03*
%TO.N,B51*%
X92300000Y-51320000D03*
%TO.N,B52*%
X91300000Y-49320000D03*
%TO.N,B53*%
X90300000Y-51320000D03*
%TO.N,B54*%
X89300000Y-49320000D03*
%TO.N,B55*%
X88300000Y-51320000D03*
%TO.N,B56*%
X87300000Y-49320000D03*
%TO.N,B57*%
X86300000Y-51320000D03*
%TO.N,B58*%
X85300000Y-49320000D03*
%TO.N,B59*%
X84300000Y-51320000D03*
%TO.N,B60*%
X83300000Y-49320000D03*
%TO.N,B61*%
X82300000Y-51320000D03*
%TO.N,B62*%
X81300000Y-49320000D03*
%TO.N,B63*%
X80300000Y-51320000D03*
%TO.N,B64*%
X79300000Y-49320000D03*
%TO.N,B65*%
X78300000Y-51320000D03*
%TO.N,B66*%
X77300000Y-49320000D03*
%TO.N,B67*%
X76300000Y-51320000D03*
%TO.N,B68*%
X75300000Y-49320000D03*
%TO.N,B69*%
X74300000Y-51320000D03*
%TO.N,B70*%
X73300000Y-49320000D03*
%TO.N,B71*%
X72300000Y-51320000D03*
%TO.N,B72*%
X71300000Y-49320000D03*
%TO.N,B73*%
X70300000Y-51320000D03*
%TO.N,B74*%
X69300000Y-49320000D03*
%TO.N,B75*%
X68300000Y-51320000D03*
%TO.N,B76*%
X67300000Y-49320000D03*
%TO.N,B77*%
X66300000Y-51320000D03*
%TO.N,B78*%
X65300000Y-49320000D03*
%TO.N,B79*%
X64300000Y-51320000D03*
%TO.N,B80*%
X63300000Y-49320000D03*
%TO.N,B81*%
X62300000Y-51320000D03*
%TO.N,B82*%
X61300000Y-49320000D03*
%TD*%
D10*
%TO.N,A1*%
%TO.C,J12*%
X144300000Y-74140000D03*
D11*
%TO.N,A2*%
X143300000Y-76140000D03*
%TO.N,A3*%
X142300000Y-74140000D03*
%TO.N,A4*%
X141300000Y-76140000D03*
%TO.N,A5*%
X140300000Y-74140000D03*
%TO.N,A6*%
X139300000Y-76140000D03*
%TO.N,A7*%
X138300000Y-74140000D03*
%TO.N,A8*%
X137300000Y-76140000D03*
%TO.N,A9*%
X136300000Y-74140000D03*
%TO.N,A10*%
X135300000Y-76140000D03*
%TO.N,A11*%
X134300000Y-74140000D03*
%TO.N,A12*%
X131300000Y-76140000D03*
%TO.N,A13*%
X130300000Y-74140000D03*
%TO.N,A14*%
X129300000Y-76140000D03*
%TO.N,A15*%
X128300000Y-74140000D03*
%TO.N,A16*%
X127300000Y-76140000D03*
%TO.N,A17*%
X126300000Y-74140000D03*
%TO.N,A18*%
X125300000Y-76140000D03*
%TO.N,A19*%
X124300000Y-74140000D03*
%TO.N,A20*%
X123300000Y-76140000D03*
%TO.N,A21*%
X122300000Y-74140000D03*
%TO.N,A22*%
X121300000Y-76140000D03*
%TO.N,A23*%
X120300000Y-74140000D03*
%TO.N,A24*%
X119300000Y-76140000D03*
%TO.N,A25*%
X118300000Y-74140000D03*
%TO.N,A26*%
X117300000Y-76140000D03*
%TO.N,A27*%
X116300000Y-74140000D03*
%TO.N,A28*%
X115300000Y-76140000D03*
%TO.N,A29*%
X114300000Y-74140000D03*
%TO.N,A30*%
X113300000Y-76140000D03*
%TO.N,A31*%
X112300000Y-74140000D03*
%TO.N,A32*%
X111300000Y-76140000D03*
%TO.N,A33*%
X110300000Y-74140000D03*
%TO.N,A34*%
X109300000Y-76140000D03*
%TO.N,A35*%
X108300000Y-74140000D03*
%TO.N,A36*%
X107300000Y-76140000D03*
%TO.N,A37*%
X106300000Y-74140000D03*
%TO.N,A38*%
X105300000Y-76140000D03*
%TO.N,A39*%
X104300000Y-74140000D03*
%TO.N,A40*%
X103300000Y-76140000D03*
%TO.N,A41*%
X102300000Y-74140000D03*
%TO.N,A42*%
X101300000Y-76140000D03*
%TO.N,A43*%
X100300000Y-74140000D03*
%TO.N,A44*%
X99300000Y-76140000D03*
%TO.N,A45*%
X98300000Y-74140000D03*
%TO.N,A46*%
X97300000Y-76140000D03*
%TO.N,A47*%
X96300000Y-74140000D03*
%TO.N,A48*%
X95300000Y-76140000D03*
%TO.N,A49*%
X94300000Y-74140000D03*
%TO.N,A50*%
X93300000Y-76140000D03*
%TO.N,A51*%
X92300000Y-74140000D03*
%TO.N,A52*%
X91300000Y-76140000D03*
%TO.N,A53*%
X90300000Y-74140000D03*
%TO.N,A54*%
X89300000Y-76140000D03*
%TO.N,A55*%
X88300000Y-74140000D03*
%TO.N,A56*%
X87300000Y-76140000D03*
%TO.N,A57*%
X86300000Y-74140000D03*
%TO.N,A58*%
X85300000Y-76140000D03*
%TO.N,A59*%
X84300000Y-74140000D03*
%TO.N,A60*%
X83300000Y-76140000D03*
%TO.N,A61*%
X82300000Y-74140000D03*
%TO.N,A62*%
X81300000Y-76140000D03*
%TO.N,A63*%
X80300000Y-74140000D03*
%TO.N,A64*%
X79300000Y-76140000D03*
%TO.N,A65*%
X78300000Y-74140000D03*
%TO.N,A66*%
X77300000Y-76140000D03*
%TO.N,A67*%
X76300000Y-74140000D03*
%TO.N,A68*%
X75300000Y-76140000D03*
%TO.N,A69*%
X74300000Y-74140000D03*
%TO.N,A70*%
X73300000Y-76140000D03*
%TO.N,A71*%
X72300000Y-74140000D03*
%TO.N,A72*%
X71300000Y-76140000D03*
%TO.N,A73*%
X70300000Y-74140000D03*
%TO.N,A74*%
X69300000Y-76140000D03*
%TO.N,A75*%
X68300000Y-74140000D03*
%TO.N,A76*%
X67300000Y-76140000D03*
%TO.N,A77*%
X66300000Y-74140000D03*
%TO.N,A78*%
X65300000Y-76140000D03*
%TO.N,A79*%
X64300000Y-74140000D03*
%TO.N,A80*%
X63300000Y-76140000D03*
%TO.N,A81*%
X62300000Y-74140000D03*
%TO.N,A82*%
X61300000Y-76140000D03*
%TO.N,B1*%
X144300000Y-71640000D03*
%TO.N,B2*%
X143300000Y-69640000D03*
%TO.N,B3*%
X142300000Y-71640000D03*
%TO.N,B4*%
X141300000Y-69640000D03*
%TO.N,B5*%
X140300000Y-71640000D03*
%TO.N,B6*%
X139300000Y-69640000D03*
%TO.N,B7*%
X138300000Y-71640000D03*
%TO.N,B8*%
X137300000Y-69640000D03*
%TO.N,B9*%
X136300000Y-71640000D03*
%TO.N,B10*%
X135300000Y-69640000D03*
%TO.N,B11*%
X134300000Y-71640000D03*
%TO.N,B12*%
X131300000Y-69640000D03*
%TO.N,B13*%
X130300000Y-71640000D03*
%TO.N,B14*%
X129300000Y-69640000D03*
%TO.N,B15*%
X128300000Y-71640000D03*
%TO.N,B16*%
X127300000Y-69640000D03*
%TO.N,B17*%
X126300000Y-71640000D03*
%TO.N,B18*%
X125300000Y-69640000D03*
%TO.N,B19*%
X124300000Y-71640000D03*
%TO.N,B20*%
X123300000Y-69640000D03*
%TO.N,B21*%
X122300000Y-71640000D03*
%TO.N,B22*%
X121300000Y-69640000D03*
%TO.N,B23*%
X120300000Y-71640000D03*
%TO.N,B24*%
X119300000Y-69640000D03*
%TO.N,B25*%
X118300000Y-71640000D03*
%TO.N,B26*%
X117300000Y-69640000D03*
%TO.N,B27*%
X116300000Y-71640000D03*
%TO.N,B28*%
X115300000Y-69640000D03*
%TO.N,B29*%
X114300000Y-71640000D03*
%TO.N,B30*%
X113300000Y-69640000D03*
%TO.N,B31*%
X112300000Y-71640000D03*
%TO.N,B32*%
X111300000Y-69640000D03*
%TO.N,B33*%
X110300000Y-71640000D03*
%TO.N,B34*%
X109300000Y-69640000D03*
%TO.N,B35*%
X108300000Y-71640000D03*
%TO.N,B36*%
X107300000Y-69640000D03*
%TO.N,B37*%
X106300000Y-71640000D03*
%TO.N,B38*%
X105300000Y-69640000D03*
%TO.N,B39*%
X104300000Y-71640000D03*
%TO.N,B40*%
X103300000Y-69640000D03*
%TO.N,B41*%
X102300000Y-71640000D03*
%TO.N,B42*%
X101300000Y-69640000D03*
%TO.N,B43*%
X100300000Y-71640000D03*
%TO.N,B44*%
X99300000Y-69640000D03*
%TO.N,B45*%
X98300000Y-71640000D03*
%TO.N,B46*%
X97300000Y-69640000D03*
%TO.N,B47*%
X96300000Y-71640000D03*
%TO.N,B48*%
X95300000Y-69640000D03*
%TO.N,B49*%
X94300000Y-71640000D03*
%TO.N,B50*%
X93300000Y-69640000D03*
%TO.N,B51*%
X92300000Y-71640000D03*
%TO.N,B52*%
X91300000Y-69640000D03*
%TO.N,B53*%
X90300000Y-71640000D03*
%TO.N,B54*%
X89300000Y-69640000D03*
%TO.N,B55*%
X88300000Y-71640000D03*
%TO.N,B56*%
X87300000Y-69640000D03*
%TO.N,B57*%
X86300000Y-71640000D03*
%TO.N,B58*%
X85300000Y-69640000D03*
%TO.N,B59*%
X84300000Y-71640000D03*
%TO.N,B60*%
X83300000Y-69640000D03*
%TO.N,B61*%
X82300000Y-71640000D03*
%TO.N,B62*%
X81300000Y-69640000D03*
%TO.N,B63*%
X80300000Y-71640000D03*
%TO.N,B64*%
X79300000Y-69640000D03*
%TO.N,B65*%
X78300000Y-71640000D03*
%TO.N,B66*%
X77300000Y-69640000D03*
%TO.N,B67*%
X76300000Y-71640000D03*
%TO.N,B68*%
X75300000Y-69640000D03*
%TO.N,B69*%
X74300000Y-71640000D03*
%TO.N,B70*%
X73300000Y-69640000D03*
%TO.N,B71*%
X72300000Y-71640000D03*
%TO.N,B72*%
X71300000Y-69640000D03*
%TO.N,B73*%
X70300000Y-71640000D03*
%TO.N,B74*%
X69300000Y-69640000D03*
%TO.N,B75*%
X68300000Y-71640000D03*
%TO.N,B76*%
X67300000Y-69640000D03*
%TO.N,B77*%
X66300000Y-71640000D03*
%TO.N,B78*%
X65300000Y-69640000D03*
%TO.N,B79*%
X64300000Y-71640000D03*
%TO.N,B80*%
X63300000Y-69640000D03*
%TO.N,B81*%
X62300000Y-71640000D03*
%TO.N,B82*%
X61300000Y-69640000D03*
%TD*%
D10*
%TO.N,A1*%
%TO.C,J5*%
X144300000Y-114780000D03*
D11*
%TO.N,A2*%
X143300000Y-116780000D03*
%TO.N,A3*%
X142300000Y-114780000D03*
%TO.N,A4*%
X141300000Y-116780000D03*
%TO.N,A5*%
X140300000Y-114780000D03*
%TO.N,A6*%
X139300000Y-116780000D03*
%TO.N,A7*%
X138300000Y-114780000D03*
%TO.N,A8*%
X137300000Y-116780000D03*
%TO.N,A9*%
X136300000Y-114780000D03*
%TO.N,A10*%
X135300000Y-116780000D03*
%TO.N,A11*%
X134300000Y-114780000D03*
%TO.N,A12*%
X131300000Y-116780000D03*
%TO.N,A13*%
X130300000Y-114780000D03*
%TO.N,A14*%
X129300000Y-116780000D03*
%TO.N,A15*%
X128300000Y-114780000D03*
%TO.N,A16*%
X127300000Y-116780000D03*
%TO.N,A17*%
X126300000Y-114780000D03*
%TO.N,A18*%
X125300000Y-116780000D03*
%TO.N,A19*%
X124300000Y-114780000D03*
%TO.N,A20*%
X123300000Y-116780000D03*
%TO.N,A21*%
X122300000Y-114780000D03*
%TO.N,A22*%
X121300000Y-116780000D03*
%TO.N,A23*%
X120300000Y-114780000D03*
%TO.N,A24*%
X119300000Y-116780000D03*
%TO.N,A25*%
X118300000Y-114780000D03*
%TO.N,A26*%
X117300000Y-116780000D03*
%TO.N,A27*%
X116300000Y-114780000D03*
%TO.N,A28*%
X115300000Y-116780000D03*
%TO.N,A29*%
X114300000Y-114780000D03*
%TO.N,A30*%
X113300000Y-116780000D03*
%TO.N,A31*%
X112300000Y-114780000D03*
%TO.N,A32*%
X111300000Y-116780000D03*
%TO.N,A33*%
X110300000Y-114780000D03*
%TO.N,A34*%
X109300000Y-116780000D03*
%TO.N,A35*%
X108300000Y-114780000D03*
%TO.N,A36*%
X107300000Y-116780000D03*
%TO.N,A37*%
X106300000Y-114780000D03*
%TO.N,A38*%
X105300000Y-116780000D03*
%TO.N,A39*%
X104300000Y-114780000D03*
%TO.N,A40*%
X103300000Y-116780000D03*
%TO.N,A41*%
X102300000Y-114780000D03*
%TO.N,A42*%
X101300000Y-116780000D03*
%TO.N,A43*%
X100300000Y-114780000D03*
%TO.N,A44*%
X99300000Y-116780000D03*
%TO.N,A45*%
X98300000Y-114780000D03*
%TO.N,A46*%
X97300000Y-116780000D03*
%TO.N,A47*%
X96300000Y-114780000D03*
%TO.N,A48*%
X95300000Y-116780000D03*
%TO.N,A49*%
X94300000Y-114780000D03*
%TO.N,A50*%
X93300000Y-116780000D03*
%TO.N,A51*%
X92300000Y-114780000D03*
%TO.N,A52*%
X91300000Y-116780000D03*
%TO.N,A53*%
X90300000Y-114780000D03*
%TO.N,A54*%
X89300000Y-116780000D03*
%TO.N,A55*%
X88300000Y-114780000D03*
%TO.N,A56*%
X87300000Y-116780000D03*
%TO.N,A57*%
X86300000Y-114780000D03*
%TO.N,A58*%
X85300000Y-116780000D03*
%TO.N,A59*%
X84300000Y-114780000D03*
%TO.N,A60*%
X83300000Y-116780000D03*
%TO.N,A61*%
X82300000Y-114780000D03*
%TO.N,A62*%
X81300000Y-116780000D03*
%TO.N,A63*%
X80300000Y-114780000D03*
%TO.N,A64*%
X79300000Y-116780000D03*
%TO.N,A65*%
X78300000Y-114780000D03*
%TO.N,A66*%
X77300000Y-116780000D03*
%TO.N,A67*%
X76300000Y-114780000D03*
%TO.N,A68*%
X75300000Y-116780000D03*
%TO.N,A69*%
X74300000Y-114780000D03*
%TO.N,A70*%
X73300000Y-116780000D03*
%TO.N,A71*%
X72300000Y-114780000D03*
%TO.N,A72*%
X71300000Y-116780000D03*
%TO.N,A73*%
X70300000Y-114780000D03*
%TO.N,A74*%
X69300000Y-116780000D03*
%TO.N,A75*%
X68300000Y-114780000D03*
%TO.N,A76*%
X67300000Y-116780000D03*
%TO.N,A77*%
X66300000Y-114780000D03*
%TO.N,A78*%
X65300000Y-116780000D03*
%TO.N,A79*%
X64300000Y-114780000D03*
%TO.N,A80*%
X63300000Y-116780000D03*
%TO.N,A81*%
X62300000Y-114780000D03*
%TO.N,A82*%
X61300000Y-116780000D03*
%TO.N,B1*%
X144300000Y-112280000D03*
%TO.N,B2*%
X143300000Y-110280000D03*
%TO.N,B3*%
X142300000Y-112280000D03*
%TO.N,B4*%
X141300000Y-110280000D03*
%TO.N,B5*%
X140300000Y-112280000D03*
%TO.N,B6*%
X139300000Y-110280000D03*
%TO.N,B7*%
X138300000Y-112280000D03*
%TO.N,B8*%
X137300000Y-110280000D03*
%TO.N,B9*%
X136300000Y-112280000D03*
%TO.N,B10*%
X135300000Y-110280000D03*
%TO.N,B11*%
X134300000Y-112280000D03*
%TO.N,B12*%
X131300000Y-110280000D03*
%TO.N,B13*%
X130300000Y-112280000D03*
%TO.N,B14*%
X129300000Y-110280000D03*
%TO.N,B15*%
X128300000Y-112280000D03*
%TO.N,B16*%
X127300000Y-110280000D03*
%TO.N,B17*%
X126300000Y-112280000D03*
%TO.N,B18*%
X125300000Y-110280000D03*
%TO.N,B19*%
X124300000Y-112280000D03*
%TO.N,B20*%
X123300000Y-110280000D03*
%TO.N,B21*%
X122300000Y-112280000D03*
%TO.N,B22*%
X121300000Y-110280000D03*
%TO.N,B23*%
X120300000Y-112280000D03*
%TO.N,B24*%
X119300000Y-110280000D03*
%TO.N,B25*%
X118300000Y-112280000D03*
%TO.N,B26*%
X117300000Y-110280000D03*
%TO.N,B27*%
X116300000Y-112280000D03*
%TO.N,B28*%
X115300000Y-110280000D03*
%TO.N,B29*%
X114300000Y-112280000D03*
%TO.N,B30*%
X113300000Y-110280000D03*
%TO.N,B31*%
X112300000Y-112280000D03*
%TO.N,B32*%
X111300000Y-110280000D03*
%TO.N,B33*%
X110300000Y-112280000D03*
%TO.N,B34*%
X109300000Y-110280000D03*
%TO.N,B35*%
X108300000Y-112280000D03*
%TO.N,B36*%
X107300000Y-110280000D03*
%TO.N,B37*%
X106300000Y-112280000D03*
%TO.N,B38*%
X105300000Y-110280000D03*
%TO.N,B39*%
X104300000Y-112280000D03*
%TO.N,B40*%
X103300000Y-110280000D03*
%TO.N,B41*%
X102300000Y-112280000D03*
%TO.N,B42*%
X101300000Y-110280000D03*
%TO.N,B43*%
X100300000Y-112280000D03*
%TO.N,B44*%
X99300000Y-110280000D03*
%TO.N,B45*%
X98300000Y-112280000D03*
%TO.N,B46*%
X97300000Y-110280000D03*
%TO.N,B47*%
X96300000Y-112280000D03*
%TO.N,B48*%
X95300000Y-110280000D03*
%TO.N,B49*%
X94300000Y-112280000D03*
%TO.N,B50*%
X93300000Y-110280000D03*
%TO.N,B51*%
X92300000Y-112280000D03*
%TO.N,B52*%
X91300000Y-110280000D03*
%TO.N,B53*%
X90300000Y-112280000D03*
%TO.N,B54*%
X89300000Y-110280000D03*
%TO.N,B55*%
X88300000Y-112280000D03*
%TO.N,B56*%
X87300000Y-110280000D03*
%TO.N,B57*%
X86300000Y-112280000D03*
%TO.N,B58*%
X85300000Y-110280000D03*
%TO.N,B59*%
X84300000Y-112280000D03*
%TO.N,B60*%
X83300000Y-110280000D03*
%TO.N,B61*%
X82300000Y-112280000D03*
%TO.N,B62*%
X81300000Y-110280000D03*
%TO.N,B63*%
X80300000Y-112280000D03*
%TO.N,B64*%
X79300000Y-110280000D03*
%TO.N,B65*%
X78300000Y-112280000D03*
%TO.N,B66*%
X77300000Y-110280000D03*
%TO.N,B67*%
X76300000Y-112280000D03*
%TO.N,B68*%
X75300000Y-110280000D03*
%TO.N,B69*%
X74300000Y-112280000D03*
%TO.N,B70*%
X73300000Y-110280000D03*
%TO.N,B71*%
X72300000Y-112280000D03*
%TO.N,B72*%
X71300000Y-110280000D03*
%TO.N,B73*%
X70300000Y-112280000D03*
%TO.N,B74*%
X69300000Y-110280000D03*
%TO.N,B75*%
X68300000Y-112280000D03*
%TO.N,B76*%
X67300000Y-110280000D03*
%TO.N,B77*%
X66300000Y-112280000D03*
%TO.N,B78*%
X65300000Y-110280000D03*
%TO.N,B79*%
X64300000Y-112280000D03*
%TO.N,B80*%
X63300000Y-110280000D03*
%TO.N,B81*%
X62300000Y-112280000D03*
%TO.N,B82*%
X61300000Y-110280000D03*
%TD*%
D10*
%TO.N,A1*%
%TO.C,J6*%
X144300000Y-135100000D03*
D11*
%TO.N,A2*%
X143300000Y-137100000D03*
%TO.N,A3*%
X142300000Y-135100000D03*
%TO.N,A4*%
X141300000Y-137100000D03*
%TO.N,A5*%
X140300000Y-135100000D03*
%TO.N,A6*%
X139300000Y-137100000D03*
%TO.N,A7*%
X138300000Y-135100000D03*
%TO.N,A8*%
X137300000Y-137100000D03*
%TO.N,A9*%
X136300000Y-135100000D03*
%TO.N,A10*%
X135300000Y-137100000D03*
%TO.N,A11*%
X134300000Y-135100000D03*
%TO.N,A12*%
X131300000Y-137100000D03*
%TO.N,A13*%
X130300000Y-135100000D03*
%TO.N,A14*%
X129300000Y-137100000D03*
%TO.N,A15*%
X128300000Y-135100000D03*
%TO.N,A16*%
X127300000Y-137100000D03*
%TO.N,A17*%
X126300000Y-135100000D03*
%TO.N,A18*%
X125300000Y-137100000D03*
%TO.N,A19*%
X124300000Y-135100000D03*
%TO.N,A20*%
X123300000Y-137100000D03*
%TO.N,A21*%
X122300000Y-135100000D03*
%TO.N,A22*%
X121300000Y-137100000D03*
%TO.N,A23*%
X120300000Y-135100000D03*
%TO.N,A24*%
X119300000Y-137100000D03*
%TO.N,A25*%
X118300000Y-135100000D03*
%TO.N,A26*%
X117300000Y-137100000D03*
%TO.N,A27*%
X116300000Y-135100000D03*
%TO.N,A28*%
X115300000Y-137100000D03*
%TO.N,A29*%
X114300000Y-135100000D03*
%TO.N,A30*%
X113300000Y-137100000D03*
%TO.N,A31*%
X112300000Y-135100000D03*
%TO.N,A32*%
X111300000Y-137100000D03*
%TO.N,A33*%
X110300000Y-135100000D03*
%TO.N,A34*%
X109300000Y-137100000D03*
%TO.N,A35*%
X108300000Y-135100000D03*
%TO.N,A36*%
X107300000Y-137100000D03*
%TO.N,A37*%
X106300000Y-135100000D03*
%TO.N,A38*%
X105300000Y-137100000D03*
%TO.N,A39*%
X104300000Y-135100000D03*
%TO.N,A40*%
X103300000Y-137100000D03*
%TO.N,A41*%
X102300000Y-135100000D03*
%TO.N,A42*%
X101300000Y-137100000D03*
%TO.N,A43*%
X100300000Y-135100000D03*
%TO.N,A44*%
X99300000Y-137100000D03*
%TO.N,A45*%
X98300000Y-135100000D03*
%TO.N,A46*%
X97300000Y-137100000D03*
%TO.N,A47*%
X96300000Y-135100000D03*
%TO.N,A48*%
X95300000Y-137100000D03*
%TO.N,A49*%
X94300000Y-135100000D03*
%TO.N,A50*%
X93300000Y-137100000D03*
%TO.N,A51*%
X92300000Y-135100000D03*
%TO.N,A52*%
X91300000Y-137100000D03*
%TO.N,A53*%
X90300000Y-135100000D03*
%TO.N,A54*%
X89300000Y-137100000D03*
%TO.N,A55*%
X88300000Y-135100000D03*
%TO.N,A56*%
X87300000Y-137100000D03*
%TO.N,A57*%
X86300000Y-135100000D03*
%TO.N,A58*%
X85300000Y-137100000D03*
%TO.N,A59*%
X84300000Y-135100000D03*
%TO.N,A60*%
X83300000Y-137100000D03*
%TO.N,A61*%
X82300000Y-135100000D03*
%TO.N,A62*%
X81300000Y-137100000D03*
%TO.N,A63*%
X80300000Y-135100000D03*
%TO.N,A64*%
X79300000Y-137100000D03*
%TO.N,A65*%
X78300000Y-135100000D03*
%TO.N,A66*%
X77300000Y-137100000D03*
%TO.N,A67*%
X76300000Y-135100000D03*
%TO.N,A68*%
X75300000Y-137100000D03*
%TO.N,A69*%
X74300000Y-135100000D03*
%TO.N,A70*%
X73300000Y-137100000D03*
%TO.N,A71*%
X72300000Y-135100000D03*
%TO.N,A72*%
X71300000Y-137100000D03*
%TO.N,A73*%
X70300000Y-135100000D03*
%TO.N,A74*%
X69300000Y-137100000D03*
%TO.N,A75*%
X68300000Y-135100000D03*
%TO.N,A76*%
X67300000Y-137100000D03*
%TO.N,A77*%
X66300000Y-135100000D03*
%TO.N,A78*%
X65300000Y-137100000D03*
%TO.N,A79*%
X64300000Y-135100000D03*
%TO.N,A80*%
X63300000Y-137100000D03*
%TO.N,A81*%
X62300000Y-135100000D03*
%TO.N,A82*%
X61300000Y-137100000D03*
%TO.N,B1*%
X144300000Y-132600000D03*
%TO.N,B2*%
X143300000Y-130600000D03*
%TO.N,B3*%
X142300000Y-132600000D03*
%TO.N,B4*%
X141300000Y-130600000D03*
%TO.N,B5*%
X140300000Y-132600000D03*
%TO.N,B6*%
X139300000Y-130600000D03*
%TO.N,B7*%
X138300000Y-132600000D03*
%TO.N,B8*%
X137300000Y-130600000D03*
%TO.N,B9*%
X136300000Y-132600000D03*
%TO.N,B10*%
X135300000Y-130600000D03*
%TO.N,B11*%
X134300000Y-132600000D03*
%TO.N,B12*%
X131300000Y-130600000D03*
%TO.N,B13*%
X130300000Y-132600000D03*
%TO.N,B14*%
X129300000Y-130600000D03*
%TO.N,B15*%
X128300000Y-132600000D03*
%TO.N,B16*%
X127300000Y-130600000D03*
%TO.N,B17*%
X126300000Y-132600000D03*
%TO.N,B18*%
X125300000Y-130600000D03*
%TO.N,B19*%
X124300000Y-132600000D03*
%TO.N,B20*%
X123300000Y-130600000D03*
%TO.N,B21*%
X122300000Y-132600000D03*
%TO.N,B22*%
X121300000Y-130600000D03*
%TO.N,B23*%
X120300000Y-132600000D03*
%TO.N,B24*%
X119300000Y-130600000D03*
%TO.N,B25*%
X118300000Y-132600000D03*
%TO.N,B26*%
X117300000Y-130600000D03*
%TO.N,B27*%
X116300000Y-132600000D03*
%TO.N,B28*%
X115300000Y-130600000D03*
%TO.N,B29*%
X114300000Y-132600000D03*
%TO.N,B30*%
X113300000Y-130600000D03*
%TO.N,B31*%
X112300000Y-132600000D03*
%TO.N,B32*%
X111300000Y-130600000D03*
%TO.N,B33*%
X110300000Y-132600000D03*
%TO.N,B34*%
X109300000Y-130600000D03*
%TO.N,B35*%
X108300000Y-132600000D03*
%TO.N,B36*%
X107300000Y-130600000D03*
%TO.N,B37*%
X106300000Y-132600000D03*
%TO.N,B38*%
X105300000Y-130600000D03*
%TO.N,B39*%
X104300000Y-132600000D03*
%TO.N,B40*%
X103300000Y-130600000D03*
%TO.N,B41*%
X102300000Y-132600000D03*
%TO.N,B42*%
X101300000Y-130600000D03*
%TO.N,B43*%
X100300000Y-132600000D03*
%TO.N,B44*%
X99300000Y-130600000D03*
%TO.N,B45*%
X98300000Y-132600000D03*
%TO.N,B46*%
X97300000Y-130600000D03*
%TO.N,B47*%
X96300000Y-132600000D03*
%TO.N,B48*%
X95300000Y-130600000D03*
%TO.N,B49*%
X94300000Y-132600000D03*
%TO.N,B50*%
X93300000Y-130600000D03*
%TO.N,B51*%
X92300000Y-132600000D03*
%TO.N,B52*%
X91300000Y-130600000D03*
%TO.N,B53*%
X90300000Y-132600000D03*
%TO.N,B54*%
X89300000Y-130600000D03*
%TO.N,B55*%
X88300000Y-132600000D03*
%TO.N,B56*%
X87300000Y-130600000D03*
%TO.N,B57*%
X86300000Y-132600000D03*
%TO.N,B58*%
X85300000Y-130600000D03*
%TO.N,B59*%
X84300000Y-132600000D03*
%TO.N,B60*%
X83300000Y-130600000D03*
%TO.N,B61*%
X82300000Y-132600000D03*
%TO.N,B62*%
X81300000Y-130600000D03*
%TO.N,B63*%
X80300000Y-132600000D03*
%TO.N,B64*%
X79300000Y-130600000D03*
%TO.N,B65*%
X78300000Y-132600000D03*
%TO.N,B66*%
X77300000Y-130600000D03*
%TO.N,B67*%
X76300000Y-132600000D03*
%TO.N,B68*%
X75300000Y-130600000D03*
%TO.N,B69*%
X74300000Y-132600000D03*
%TO.N,B70*%
X73300000Y-130600000D03*
%TO.N,B71*%
X72300000Y-132600000D03*
%TO.N,B72*%
X71300000Y-130600000D03*
%TO.N,B73*%
X70300000Y-132600000D03*
%TO.N,B74*%
X69300000Y-130600000D03*
%TO.N,B75*%
X68300000Y-132600000D03*
%TO.N,B76*%
X67300000Y-130600000D03*
%TO.N,B77*%
X66300000Y-132600000D03*
%TO.N,B78*%
X65300000Y-130600000D03*
%TO.N,B79*%
X64300000Y-132600000D03*
%TO.N,B80*%
X63300000Y-130600000D03*
%TO.N,B81*%
X62300000Y-132600000D03*
%TO.N,B82*%
X61300000Y-130600000D03*
%TD*%
D10*
%TO.N,A1*%
%TO.C,J8*%
X144300000Y-175740000D03*
D11*
%TO.N,A2*%
X143300000Y-177740000D03*
%TO.N,A3*%
X142300000Y-175740000D03*
%TO.N,A4*%
X141300000Y-177740000D03*
%TO.N,A5*%
X140300000Y-175740000D03*
%TO.N,A6*%
X139300000Y-177740000D03*
%TO.N,A7*%
X138300000Y-175740000D03*
%TO.N,A8*%
X137300000Y-177740000D03*
%TO.N,A9*%
X136300000Y-175740000D03*
%TO.N,A10*%
X135300000Y-177740000D03*
%TO.N,A11*%
X134300000Y-175740000D03*
%TO.N,A12*%
X131300000Y-177740000D03*
%TO.N,A13*%
X130300000Y-175740000D03*
%TO.N,A14*%
X129300000Y-177740000D03*
%TO.N,A15*%
X128300000Y-175740000D03*
%TO.N,A16*%
X127300000Y-177740000D03*
%TO.N,A17*%
X126300000Y-175740000D03*
%TO.N,A18*%
X125300000Y-177740000D03*
%TO.N,A19*%
X124300000Y-175740000D03*
%TO.N,A20*%
X123300000Y-177740000D03*
%TO.N,A21*%
X122300000Y-175740000D03*
%TO.N,A22*%
X121300000Y-177740000D03*
%TO.N,A23*%
X120300000Y-175740000D03*
%TO.N,A24*%
X119300000Y-177740000D03*
%TO.N,A25*%
X118300000Y-175740000D03*
%TO.N,A26*%
X117300000Y-177740000D03*
%TO.N,A27*%
X116300000Y-175740000D03*
%TO.N,A28*%
X115300000Y-177740000D03*
%TO.N,A29*%
X114300000Y-175740000D03*
%TO.N,A30*%
X113300000Y-177740000D03*
%TO.N,A31*%
X112300000Y-175740000D03*
%TO.N,A32*%
X111300000Y-177740000D03*
%TO.N,A33*%
X110300000Y-175740000D03*
%TO.N,A34*%
X109300000Y-177740000D03*
%TO.N,A35*%
X108300000Y-175740000D03*
%TO.N,A36*%
X107300000Y-177740000D03*
%TO.N,A37*%
X106300000Y-175740000D03*
%TO.N,A38*%
X105300000Y-177740000D03*
%TO.N,A39*%
X104300000Y-175740000D03*
%TO.N,A40*%
X103300000Y-177740000D03*
%TO.N,A41*%
X102300000Y-175740000D03*
%TO.N,A42*%
X101300000Y-177740000D03*
%TO.N,A43*%
X100300000Y-175740000D03*
%TO.N,A44*%
X99300000Y-177740000D03*
%TO.N,A45*%
X98300000Y-175740000D03*
%TO.N,A46*%
X97300000Y-177740000D03*
%TO.N,A47*%
X96300000Y-175740000D03*
%TO.N,A48*%
X95300000Y-177740000D03*
%TO.N,A49*%
X94300000Y-175740000D03*
%TO.N,A50*%
X93300000Y-177740000D03*
%TO.N,A51*%
X92300000Y-175740000D03*
%TO.N,A52*%
X91300000Y-177740000D03*
%TO.N,A53*%
X90300000Y-175740000D03*
%TO.N,A54*%
X89300000Y-177740000D03*
%TO.N,A55*%
X88300000Y-175740000D03*
%TO.N,A56*%
X87300000Y-177740000D03*
%TO.N,A57*%
X86300000Y-175740000D03*
%TO.N,A58*%
X85300000Y-177740000D03*
%TO.N,A59*%
X84300000Y-175740000D03*
%TO.N,A60*%
X83300000Y-177740000D03*
%TO.N,A61*%
X82300000Y-175740000D03*
%TO.N,A62*%
X81300000Y-177740000D03*
%TO.N,A63*%
X80300000Y-175740000D03*
%TO.N,A64*%
X79300000Y-177740000D03*
%TO.N,A65*%
X78300000Y-175740000D03*
%TO.N,A66*%
X77300000Y-177740000D03*
%TO.N,A67*%
X76300000Y-175740000D03*
%TO.N,A68*%
X75300000Y-177740000D03*
%TO.N,A69*%
X74300000Y-175740000D03*
%TO.N,A70*%
X73300000Y-177740000D03*
%TO.N,A71*%
X72300000Y-175740000D03*
%TO.N,A72*%
X71300000Y-177740000D03*
%TO.N,A73*%
X70300000Y-175740000D03*
%TO.N,A74*%
X69300000Y-177740000D03*
%TO.N,A75*%
X68300000Y-175740000D03*
%TO.N,A76*%
X67300000Y-177740000D03*
%TO.N,A77*%
X66300000Y-175740000D03*
%TO.N,A78*%
X65300000Y-177740000D03*
%TO.N,A79*%
X64300000Y-175740000D03*
%TO.N,A80*%
X63300000Y-177740000D03*
%TO.N,A81*%
X62300000Y-175740000D03*
%TO.N,A82*%
X61300000Y-177740000D03*
%TO.N,B1*%
X144300000Y-173240000D03*
%TO.N,B2*%
X143300000Y-171240000D03*
%TO.N,B3*%
X142300000Y-173240000D03*
%TO.N,B4*%
X141300000Y-171240000D03*
%TO.N,B5*%
X140300000Y-173240000D03*
%TO.N,B6*%
X139300000Y-171240000D03*
%TO.N,B7*%
X138300000Y-173240000D03*
%TO.N,B8*%
X137300000Y-171240000D03*
%TO.N,B9*%
X136300000Y-173240000D03*
%TO.N,B10*%
X135300000Y-171240000D03*
%TO.N,B11*%
X134300000Y-173240000D03*
%TO.N,B12*%
X131300000Y-171240000D03*
%TO.N,B13*%
X130300000Y-173240000D03*
%TO.N,B14*%
X129300000Y-171240000D03*
%TO.N,B15*%
X128300000Y-173240000D03*
%TO.N,B16*%
X127300000Y-171240000D03*
%TO.N,B17*%
X126300000Y-173240000D03*
%TO.N,B18*%
X125300000Y-171240000D03*
%TO.N,B19*%
X124300000Y-173240000D03*
%TO.N,B20*%
X123300000Y-171240000D03*
%TO.N,B21*%
X122300000Y-173240000D03*
%TO.N,B22*%
X121300000Y-171240000D03*
%TO.N,B23*%
X120300000Y-173240000D03*
%TO.N,B24*%
X119300000Y-171240000D03*
%TO.N,B25*%
X118300000Y-173240000D03*
%TO.N,B26*%
X117300000Y-171240000D03*
%TO.N,B27*%
X116300000Y-173240000D03*
%TO.N,B28*%
X115300000Y-171240000D03*
%TO.N,B29*%
X114300000Y-173240000D03*
%TO.N,B30*%
X113300000Y-171240000D03*
%TO.N,B31*%
X112300000Y-173240000D03*
%TO.N,B32*%
X111300000Y-171240000D03*
%TO.N,B33*%
X110300000Y-173240000D03*
%TO.N,B34*%
X109300000Y-171240000D03*
%TO.N,B35*%
X108300000Y-173240000D03*
%TO.N,B36*%
X107300000Y-171240000D03*
%TO.N,B37*%
X106300000Y-173240000D03*
%TO.N,B38*%
X105300000Y-171240000D03*
%TO.N,B39*%
X104300000Y-173240000D03*
%TO.N,B40*%
X103300000Y-171240000D03*
%TO.N,B41*%
X102300000Y-173240000D03*
%TO.N,B42*%
X101300000Y-171240000D03*
%TO.N,B43*%
X100300000Y-173240000D03*
%TO.N,B44*%
X99300000Y-171240000D03*
%TO.N,B45*%
X98300000Y-173240000D03*
%TO.N,B46*%
X97300000Y-171240000D03*
%TO.N,B47*%
X96300000Y-173240000D03*
%TO.N,B48*%
X95300000Y-171240000D03*
%TO.N,B49*%
X94300000Y-173240000D03*
%TO.N,B50*%
X93300000Y-171240000D03*
%TO.N,B51*%
X92300000Y-173240000D03*
%TO.N,B52*%
X91300000Y-171240000D03*
%TO.N,B53*%
X90300000Y-173240000D03*
%TO.N,B54*%
X89300000Y-171240000D03*
%TO.N,B55*%
X88300000Y-173240000D03*
%TO.N,B56*%
X87300000Y-171240000D03*
%TO.N,B57*%
X86300000Y-173240000D03*
%TO.N,B58*%
X85300000Y-171240000D03*
%TO.N,B59*%
X84300000Y-173240000D03*
%TO.N,B60*%
X83300000Y-171240000D03*
%TO.N,B61*%
X82300000Y-173240000D03*
%TO.N,B62*%
X81300000Y-171240000D03*
%TO.N,B63*%
X80300000Y-173240000D03*
%TO.N,B64*%
X79300000Y-171240000D03*
%TO.N,B65*%
X78300000Y-173240000D03*
%TO.N,B66*%
X77300000Y-171240000D03*
%TO.N,B67*%
X76300000Y-173240000D03*
%TO.N,B68*%
X75300000Y-171240000D03*
%TO.N,B69*%
X74300000Y-173240000D03*
%TO.N,B70*%
X73300000Y-171240000D03*
%TO.N,B71*%
X72300000Y-173240000D03*
%TO.N,B72*%
X71300000Y-171240000D03*
%TO.N,B73*%
X70300000Y-173240000D03*
%TO.N,B74*%
X69300000Y-171240000D03*
%TO.N,B75*%
X68300000Y-173240000D03*
%TO.N,B76*%
X67300000Y-171240000D03*
%TO.N,B77*%
X66300000Y-173240000D03*
%TO.N,B78*%
X65300000Y-171240000D03*
%TO.N,B79*%
X64300000Y-173240000D03*
%TO.N,B80*%
X63300000Y-171240000D03*
%TO.N,B81*%
X62300000Y-173240000D03*
%TO.N,B82*%
X61300000Y-171240000D03*
%TD*%
D10*
%TO.N,A1*%
%TO.C,J14*%
X144300000Y-33500000D03*
D11*
%TO.N,A2*%
X143300000Y-35500000D03*
%TO.N,A3*%
X142300000Y-33500000D03*
%TO.N,A4*%
X141300000Y-35500000D03*
%TO.N,A5*%
X140300000Y-33500000D03*
%TO.N,A6*%
X139300000Y-35500000D03*
%TO.N,A7*%
X138300000Y-33500000D03*
%TO.N,A8*%
X137300000Y-35500000D03*
%TO.N,A9*%
X136300000Y-33500000D03*
%TO.N,A10*%
X135300000Y-35500000D03*
%TO.N,A11*%
X134300000Y-33500000D03*
%TO.N,A12*%
X131300000Y-35500000D03*
%TO.N,A13*%
X130300000Y-33500000D03*
%TO.N,A14*%
X129300000Y-35500000D03*
%TO.N,A15*%
X128300000Y-33500000D03*
%TO.N,A16*%
X127300000Y-35500000D03*
%TO.N,A17*%
X126300000Y-33500000D03*
%TO.N,A18*%
X125300000Y-35500000D03*
%TO.N,A19*%
X124300000Y-33500000D03*
%TO.N,A20*%
X123300000Y-35500000D03*
%TO.N,A21*%
X122300000Y-33500000D03*
%TO.N,A22*%
X121300000Y-35500000D03*
%TO.N,A23*%
X120300000Y-33500000D03*
%TO.N,A24*%
X119300000Y-35500000D03*
%TO.N,A25*%
X118300000Y-33500000D03*
%TO.N,A26*%
X117300000Y-35500000D03*
%TO.N,A27*%
X116300000Y-33500000D03*
%TO.N,A28*%
X115300000Y-35500000D03*
%TO.N,A29*%
X114300000Y-33500000D03*
%TO.N,A30*%
X113300000Y-35500000D03*
%TO.N,A31*%
X112300000Y-33500000D03*
%TO.N,A32*%
X111300000Y-35500000D03*
%TO.N,A33*%
X110300000Y-33500000D03*
%TO.N,A34*%
X109300000Y-35500000D03*
%TO.N,A35*%
X108300000Y-33500000D03*
%TO.N,A36*%
X107300000Y-35500000D03*
%TO.N,A37*%
X106300000Y-33500000D03*
%TO.N,A38*%
X105300000Y-35500000D03*
%TO.N,A39*%
X104300000Y-33500000D03*
%TO.N,A40*%
X103300000Y-35500000D03*
%TO.N,A41*%
X102300000Y-33500000D03*
%TO.N,A42*%
X101300000Y-35500000D03*
%TO.N,A43*%
X100300000Y-33500000D03*
%TO.N,A44*%
X99300000Y-35500000D03*
%TO.N,A45*%
X98300000Y-33500000D03*
%TO.N,A46*%
X97300000Y-35500000D03*
%TO.N,A47*%
X96300000Y-33500000D03*
%TO.N,A48*%
X95300000Y-35500000D03*
%TO.N,A49*%
X94300000Y-33500000D03*
%TO.N,A50*%
X93300000Y-35500000D03*
%TO.N,A51*%
X92300000Y-33500000D03*
%TO.N,A52*%
X91300000Y-35500000D03*
%TO.N,A53*%
X90300000Y-33500000D03*
%TO.N,A54*%
X89300000Y-35500000D03*
%TO.N,A55*%
X88300000Y-33500000D03*
%TO.N,A56*%
X87300000Y-35500000D03*
%TO.N,A57*%
X86300000Y-33500000D03*
%TO.N,A58*%
X85300000Y-35500000D03*
%TO.N,A59*%
X84300000Y-33500000D03*
%TO.N,A60*%
X83300000Y-35500000D03*
%TO.N,A61*%
X82300000Y-33500000D03*
%TO.N,A62*%
X81300000Y-35500000D03*
%TO.N,A63*%
X80300000Y-33500000D03*
%TO.N,A64*%
X79300000Y-35500000D03*
%TO.N,A65*%
X78300000Y-33500000D03*
%TO.N,A66*%
X77300000Y-35500000D03*
%TO.N,A67*%
X76300000Y-33500000D03*
%TO.N,A68*%
X75300000Y-35500000D03*
%TO.N,A69*%
X74300000Y-33500000D03*
%TO.N,A70*%
X73300000Y-35500000D03*
%TO.N,A71*%
X72300000Y-33500000D03*
%TO.N,A72*%
X71300000Y-35500000D03*
%TO.N,A73*%
X70300000Y-33500000D03*
%TO.N,A74*%
X69300000Y-35500000D03*
%TO.N,A75*%
X68300000Y-33500000D03*
%TO.N,A76*%
X67300000Y-35500000D03*
%TO.N,A77*%
X66300000Y-33500000D03*
%TO.N,A78*%
X65300000Y-35500000D03*
%TO.N,A79*%
X64300000Y-33500000D03*
%TO.N,A80*%
X63300000Y-35500000D03*
%TO.N,A81*%
X62300000Y-33500000D03*
%TO.N,A82*%
X61300000Y-35500000D03*
%TO.N,B1*%
X144300000Y-31000000D03*
%TO.N,B2*%
X143300000Y-29000000D03*
%TO.N,B3*%
X142300000Y-31000000D03*
%TO.N,B4*%
X141300000Y-29000000D03*
%TO.N,B5*%
X140300000Y-31000000D03*
%TO.N,B6*%
X139300000Y-29000000D03*
%TO.N,B7*%
X138300000Y-31000000D03*
%TO.N,B8*%
X137300000Y-29000000D03*
%TO.N,B9*%
X136300000Y-31000000D03*
%TO.N,B10*%
X135300000Y-29000000D03*
%TO.N,B11*%
X134300000Y-31000000D03*
%TO.N,B12*%
X131300000Y-29000000D03*
%TO.N,B13*%
X130300000Y-31000000D03*
%TO.N,B14*%
X129300000Y-29000000D03*
%TO.N,B15*%
X128300000Y-31000000D03*
%TO.N,B16*%
X127300000Y-29000000D03*
%TO.N,B17*%
X126300000Y-31000000D03*
%TO.N,B18*%
X125300000Y-29000000D03*
%TO.N,B19*%
X124300000Y-31000000D03*
%TO.N,B20*%
X123300000Y-29000000D03*
%TO.N,B21*%
X122300000Y-31000000D03*
%TO.N,B22*%
X121300000Y-29000000D03*
%TO.N,B23*%
X120300000Y-31000000D03*
%TO.N,B24*%
X119300000Y-29000000D03*
%TO.N,B25*%
X118300000Y-31000000D03*
%TO.N,B26*%
X117300000Y-29000000D03*
%TO.N,B27*%
X116300000Y-31000000D03*
%TO.N,B28*%
X115300000Y-29000000D03*
%TO.N,B29*%
X114300000Y-31000000D03*
%TO.N,B30*%
X113300000Y-29000000D03*
%TO.N,B31*%
X112300000Y-31000000D03*
%TO.N,B32*%
X111300000Y-29000000D03*
%TO.N,B33*%
X110300000Y-31000000D03*
%TO.N,B34*%
X109300000Y-29000000D03*
%TO.N,B35*%
X108300000Y-31000000D03*
%TO.N,B36*%
X107300000Y-29000000D03*
%TO.N,B37*%
X106300000Y-31000000D03*
%TO.N,B38*%
X105300000Y-29000000D03*
%TO.N,B39*%
X104300000Y-31000000D03*
%TO.N,B40*%
X103300000Y-29000000D03*
%TO.N,B41*%
X102300000Y-31000000D03*
%TO.N,B42*%
X101300000Y-29000000D03*
%TO.N,B43*%
X100300000Y-31000000D03*
%TO.N,B44*%
X99300000Y-29000000D03*
%TO.N,B45*%
X98300000Y-31000000D03*
%TO.N,B46*%
X97300000Y-29000000D03*
%TO.N,B47*%
X96300000Y-31000000D03*
%TO.N,B48*%
X95300000Y-29000000D03*
%TO.N,B49*%
X94300000Y-31000000D03*
%TO.N,B50*%
X93300000Y-29000000D03*
%TO.N,B51*%
X92300000Y-31000000D03*
%TO.N,B52*%
X91300000Y-29000000D03*
%TO.N,B53*%
X90300000Y-31000000D03*
%TO.N,B54*%
X89300000Y-29000000D03*
%TO.N,B55*%
X88300000Y-31000000D03*
%TO.N,B56*%
X87300000Y-29000000D03*
%TO.N,B57*%
X86300000Y-31000000D03*
%TO.N,B58*%
X85300000Y-29000000D03*
%TO.N,B59*%
X84300000Y-31000000D03*
%TO.N,B60*%
X83300000Y-29000000D03*
%TO.N,B61*%
X82300000Y-31000000D03*
%TO.N,B62*%
X81300000Y-29000000D03*
%TO.N,B63*%
X80300000Y-31000000D03*
%TO.N,B64*%
X79300000Y-29000000D03*
%TO.N,B65*%
X78300000Y-31000000D03*
%TO.N,B66*%
X77300000Y-29000000D03*
%TO.N,B67*%
X76300000Y-31000000D03*
%TO.N,B68*%
X75300000Y-29000000D03*
%TO.N,B69*%
X74300000Y-31000000D03*
%TO.N,B70*%
X73300000Y-29000000D03*
%TO.N,B71*%
X72300000Y-31000000D03*
%TO.N,B72*%
X71300000Y-29000000D03*
%TO.N,B73*%
X70300000Y-31000000D03*
%TO.N,B74*%
X69300000Y-29000000D03*
%TO.N,B75*%
X68300000Y-31000000D03*
%TO.N,B76*%
X67300000Y-29000000D03*
%TO.N,B77*%
X66300000Y-31000000D03*
%TO.N,B78*%
X65300000Y-29000000D03*
%TO.N,B79*%
X64300000Y-31000000D03*
%TO.N,B80*%
X63300000Y-29000000D03*
%TO.N,B81*%
X62300000Y-31000000D03*
%TO.N,B82*%
X61300000Y-29000000D03*
%TD*%
D10*
%TO.N,A1*%
%TO.C,J1*%
X144300000Y-33500000D03*
D11*
%TO.N,A2*%
X143300000Y-35500000D03*
%TO.N,A3*%
X142300000Y-33500000D03*
%TO.N,A4*%
X141300000Y-35500000D03*
%TO.N,A5*%
X140300000Y-33500000D03*
%TO.N,A6*%
X139300000Y-35500000D03*
%TO.N,A7*%
X138300000Y-33500000D03*
%TO.N,A8*%
X137300000Y-35500000D03*
%TO.N,A9*%
X136300000Y-33500000D03*
%TO.N,A10*%
X135300000Y-35500000D03*
%TO.N,A11*%
X134300000Y-33500000D03*
%TO.N,A12*%
X131300000Y-35500000D03*
%TO.N,A13*%
X130300000Y-33500000D03*
%TO.N,A14*%
X129300000Y-35500000D03*
%TO.N,A15*%
X128300000Y-33500000D03*
%TO.N,A16*%
X127300000Y-35500000D03*
%TO.N,A17*%
X126300000Y-33500000D03*
%TO.N,A18*%
X125300000Y-35500000D03*
%TO.N,A19*%
X124300000Y-33500000D03*
%TO.N,A20*%
X123300000Y-35500000D03*
%TO.N,A21*%
X122300000Y-33500000D03*
%TO.N,A22*%
X121300000Y-35500000D03*
%TO.N,A23*%
X120300000Y-33500000D03*
%TO.N,A24*%
X119300000Y-35500000D03*
%TO.N,A25*%
X118300000Y-33500000D03*
%TO.N,A26*%
X117300000Y-35500000D03*
%TO.N,A27*%
X116300000Y-33500000D03*
%TO.N,A28*%
X115300000Y-35500000D03*
%TO.N,A29*%
X114300000Y-33500000D03*
%TO.N,A30*%
X113300000Y-35500000D03*
%TO.N,A31*%
X112300000Y-33500000D03*
%TO.N,A32*%
X111300000Y-35500000D03*
%TO.N,A33*%
X110300000Y-33500000D03*
%TO.N,A34*%
X109300000Y-35500000D03*
%TO.N,A35*%
X108300000Y-33500000D03*
%TO.N,A36*%
X107300000Y-35500000D03*
%TO.N,A37*%
X106300000Y-33500000D03*
%TO.N,A38*%
X105300000Y-35500000D03*
%TO.N,A39*%
X104300000Y-33500000D03*
%TO.N,A40*%
X103300000Y-35500000D03*
%TO.N,A41*%
X102300000Y-33500000D03*
%TO.N,A42*%
X101300000Y-35500000D03*
%TO.N,A43*%
X100300000Y-33500000D03*
%TO.N,A44*%
X99300000Y-35500000D03*
%TO.N,A45*%
X98300000Y-33500000D03*
%TO.N,A46*%
X97300000Y-35500000D03*
%TO.N,A47*%
X96300000Y-33500000D03*
%TO.N,A48*%
X95300000Y-35500000D03*
%TO.N,A49*%
X94300000Y-33500000D03*
%TO.N,A50*%
X93300000Y-35500000D03*
%TO.N,A51*%
X92300000Y-33500000D03*
%TO.N,A52*%
X91300000Y-35500000D03*
%TO.N,A53*%
X90300000Y-33500000D03*
%TO.N,A54*%
X89300000Y-35500000D03*
%TO.N,A55*%
X88300000Y-33500000D03*
%TO.N,A56*%
X87300000Y-35500000D03*
%TO.N,A57*%
X86300000Y-33500000D03*
%TO.N,A58*%
X85300000Y-35500000D03*
%TO.N,A59*%
X84300000Y-33500000D03*
%TO.N,A60*%
X83300000Y-35500000D03*
%TO.N,A61*%
X82300000Y-33500000D03*
%TO.N,A62*%
X81300000Y-35500000D03*
%TO.N,A63*%
X80300000Y-33500000D03*
%TO.N,A64*%
X79300000Y-35500000D03*
%TO.N,A65*%
X78300000Y-33500000D03*
%TO.N,A66*%
X77300000Y-35500000D03*
%TO.N,A67*%
X76300000Y-33500000D03*
%TO.N,A68*%
X75300000Y-35500000D03*
%TO.N,A69*%
X74300000Y-33500000D03*
%TO.N,A70*%
X73300000Y-35500000D03*
%TO.N,A71*%
X72300000Y-33500000D03*
%TO.N,A72*%
X71300000Y-35500000D03*
%TO.N,A73*%
X70300000Y-33500000D03*
%TO.N,A74*%
X69300000Y-35500000D03*
%TO.N,A75*%
X68300000Y-33500000D03*
%TO.N,A76*%
X67300000Y-35500000D03*
%TO.N,A77*%
X66300000Y-33500000D03*
%TO.N,A78*%
X65300000Y-35500000D03*
%TO.N,A79*%
X64300000Y-33500000D03*
%TO.N,A80*%
X63300000Y-35500000D03*
%TO.N,A81*%
X62300000Y-33500000D03*
%TO.N,A82*%
X61300000Y-35500000D03*
%TO.N,B1*%
X144300000Y-31000000D03*
%TO.N,B2*%
X143300000Y-29000000D03*
%TO.N,B3*%
X142300000Y-31000000D03*
%TO.N,B4*%
X141300000Y-29000000D03*
%TO.N,B5*%
X140300000Y-31000000D03*
%TO.N,B6*%
X139300000Y-29000000D03*
%TO.N,B7*%
X138300000Y-31000000D03*
%TO.N,B8*%
X137300000Y-29000000D03*
%TO.N,B9*%
X136300000Y-31000000D03*
%TO.N,B10*%
X135300000Y-29000000D03*
%TO.N,B11*%
X134300000Y-31000000D03*
%TO.N,B12*%
X131300000Y-29000000D03*
%TO.N,B13*%
X130300000Y-31000000D03*
%TO.N,B14*%
X129300000Y-29000000D03*
%TO.N,B15*%
X128300000Y-31000000D03*
%TO.N,B16*%
X127300000Y-29000000D03*
%TO.N,B17*%
X126300000Y-31000000D03*
%TO.N,B18*%
X125300000Y-29000000D03*
%TO.N,B19*%
X124300000Y-31000000D03*
%TO.N,B20*%
X123300000Y-29000000D03*
%TO.N,B21*%
X122300000Y-31000000D03*
%TO.N,B22*%
X121300000Y-29000000D03*
%TO.N,B23*%
X120300000Y-31000000D03*
%TO.N,B24*%
X119300000Y-29000000D03*
%TO.N,B25*%
X118300000Y-31000000D03*
%TO.N,B26*%
X117300000Y-29000000D03*
%TO.N,B27*%
X116300000Y-31000000D03*
%TO.N,B28*%
X115300000Y-29000000D03*
%TO.N,B29*%
X114300000Y-31000000D03*
%TO.N,B30*%
X113300000Y-29000000D03*
%TO.N,B31*%
X112300000Y-31000000D03*
%TO.N,B32*%
X111300000Y-29000000D03*
%TO.N,B33*%
X110300000Y-31000000D03*
%TO.N,B34*%
X109300000Y-29000000D03*
%TO.N,B35*%
X108300000Y-31000000D03*
%TO.N,B36*%
X107300000Y-29000000D03*
%TO.N,B37*%
X106300000Y-31000000D03*
%TO.N,B38*%
X105300000Y-29000000D03*
%TO.N,B39*%
X104300000Y-31000000D03*
%TO.N,B40*%
X103300000Y-29000000D03*
%TO.N,B41*%
X102300000Y-31000000D03*
%TO.N,B42*%
X101300000Y-29000000D03*
%TO.N,B43*%
X100300000Y-31000000D03*
%TO.N,B44*%
X99300000Y-29000000D03*
%TO.N,B45*%
X98300000Y-31000000D03*
%TO.N,B46*%
X97300000Y-29000000D03*
%TO.N,B47*%
X96300000Y-31000000D03*
%TO.N,B48*%
X95300000Y-29000000D03*
%TO.N,B49*%
X94300000Y-31000000D03*
%TO.N,B50*%
X93300000Y-29000000D03*
%TO.N,B51*%
X92300000Y-31000000D03*
%TO.N,B52*%
X91300000Y-29000000D03*
%TO.N,B53*%
X90300000Y-31000000D03*
%TO.N,B54*%
X89300000Y-29000000D03*
%TO.N,B55*%
X88300000Y-31000000D03*
%TO.N,B56*%
X87300000Y-29000000D03*
%TO.N,B57*%
X86300000Y-31000000D03*
%TO.N,B58*%
X85300000Y-29000000D03*
%TO.N,B59*%
X84300000Y-31000000D03*
%TO.N,B60*%
X83300000Y-29000000D03*
%TO.N,B61*%
X82300000Y-31000000D03*
%TO.N,B62*%
X81300000Y-29000000D03*
%TO.N,B63*%
X80300000Y-31000000D03*
%TO.N,B64*%
X79300000Y-29000000D03*
%TO.N,B65*%
X78300000Y-31000000D03*
%TO.N,B66*%
X77300000Y-29000000D03*
%TO.N,B67*%
X76300000Y-31000000D03*
%TO.N,B68*%
X75300000Y-29000000D03*
%TO.N,B69*%
X74300000Y-31000000D03*
%TO.N,B70*%
X73300000Y-29000000D03*
%TO.N,B71*%
X72300000Y-31000000D03*
%TO.N,B72*%
X71300000Y-29000000D03*
%TO.N,B73*%
X70300000Y-31000000D03*
%TO.N,B74*%
X69300000Y-29000000D03*
%TO.N,B75*%
X68300000Y-31000000D03*
%TO.N,B76*%
X67300000Y-29000000D03*
%TO.N,B77*%
X66300000Y-31000000D03*
%TO.N,B78*%
X65300000Y-29000000D03*
%TO.N,B79*%
X64300000Y-31000000D03*
%TO.N,B80*%
X63300000Y-29000000D03*
%TO.N,B81*%
X62300000Y-31000000D03*
%TO.N,B82*%
X61300000Y-29000000D03*
%TD*%
D10*
%TO.N,A1*%
%TO.C,J11*%
X144300000Y-94460000D03*
D11*
%TO.N,A2*%
X143300000Y-96460000D03*
%TO.N,A3*%
X142300000Y-94460000D03*
%TO.N,A4*%
X141300000Y-96460000D03*
%TO.N,A5*%
X140300000Y-94460000D03*
%TO.N,A6*%
X139300000Y-96460000D03*
%TO.N,A7*%
X138300000Y-94460000D03*
%TO.N,A8*%
X137300000Y-96460000D03*
%TO.N,A9*%
X136300000Y-94460000D03*
%TO.N,A10*%
X135300000Y-96460000D03*
%TO.N,A11*%
X134300000Y-94460000D03*
%TO.N,A12*%
X131300000Y-96460000D03*
%TO.N,A13*%
X130300000Y-94460000D03*
%TO.N,A14*%
X129300000Y-96460000D03*
%TO.N,A15*%
X128300000Y-94460000D03*
%TO.N,A16*%
X127300000Y-96460000D03*
%TO.N,A17*%
X126300000Y-94460000D03*
%TO.N,A18*%
X125300000Y-96460000D03*
%TO.N,A19*%
X124300000Y-94460000D03*
%TO.N,A20*%
X123300000Y-96460000D03*
%TO.N,A21*%
X122300000Y-94460000D03*
%TO.N,A22*%
X121300000Y-96460000D03*
%TO.N,A23*%
X120300000Y-94460000D03*
%TO.N,A24*%
X119300000Y-96460000D03*
%TO.N,A25*%
X118300000Y-94460000D03*
%TO.N,A26*%
X117300000Y-96460000D03*
%TO.N,A27*%
X116300000Y-94460000D03*
%TO.N,A28*%
X115300000Y-96460000D03*
%TO.N,A29*%
X114300000Y-94460000D03*
%TO.N,A30*%
X113300000Y-96460000D03*
%TO.N,A31*%
X112300000Y-94460000D03*
%TO.N,A32*%
X111300000Y-96460000D03*
%TO.N,A33*%
X110300000Y-94460000D03*
%TO.N,A34*%
X109300000Y-96460000D03*
%TO.N,A35*%
X108300000Y-94460000D03*
%TO.N,A36*%
X107300000Y-96460000D03*
%TO.N,A37*%
X106300000Y-94460000D03*
%TO.N,A38*%
X105300000Y-96460000D03*
%TO.N,A39*%
X104300000Y-94460000D03*
%TO.N,A40*%
X103300000Y-96460000D03*
%TO.N,A41*%
X102300000Y-94460000D03*
%TO.N,A42*%
X101300000Y-96460000D03*
%TO.N,A43*%
X100300000Y-94460000D03*
%TO.N,A44*%
X99300000Y-96460000D03*
%TO.N,A45*%
X98300000Y-94460000D03*
%TO.N,A46*%
X97300000Y-96460000D03*
%TO.N,A47*%
X96300000Y-94460000D03*
%TO.N,A48*%
X95300000Y-96460000D03*
%TO.N,A49*%
X94300000Y-94460000D03*
%TO.N,A50*%
X93300000Y-96460000D03*
%TO.N,A51*%
X92300000Y-94460000D03*
%TO.N,A52*%
X91300000Y-96460000D03*
%TO.N,A53*%
X90300000Y-94460000D03*
%TO.N,A54*%
X89300000Y-96460000D03*
%TO.N,A55*%
X88300000Y-94460000D03*
%TO.N,A56*%
X87300000Y-96460000D03*
%TO.N,A57*%
X86300000Y-94460000D03*
%TO.N,A58*%
X85300000Y-96460000D03*
%TO.N,A59*%
X84300000Y-94460000D03*
%TO.N,A60*%
X83300000Y-96460000D03*
%TO.N,A61*%
X82300000Y-94460000D03*
%TO.N,A62*%
X81300000Y-96460000D03*
%TO.N,A63*%
X80300000Y-94460000D03*
%TO.N,A64*%
X79300000Y-96460000D03*
%TO.N,A65*%
X78300000Y-94460000D03*
%TO.N,A66*%
X77300000Y-96460000D03*
%TO.N,A67*%
X76300000Y-94460000D03*
%TO.N,A68*%
X75300000Y-96460000D03*
%TO.N,A69*%
X74300000Y-94460000D03*
%TO.N,A70*%
X73300000Y-96460000D03*
%TO.N,A71*%
X72300000Y-94460000D03*
%TO.N,A72*%
X71300000Y-96460000D03*
%TO.N,A73*%
X70300000Y-94460000D03*
%TO.N,A74*%
X69300000Y-96460000D03*
%TO.N,A75*%
X68300000Y-94460000D03*
%TO.N,A76*%
X67300000Y-96460000D03*
%TO.N,A77*%
X66300000Y-94460000D03*
%TO.N,A78*%
X65300000Y-96460000D03*
%TO.N,A79*%
X64300000Y-94460000D03*
%TO.N,A80*%
X63300000Y-96460000D03*
%TO.N,A81*%
X62300000Y-94460000D03*
%TO.N,A82*%
X61300000Y-96460000D03*
%TO.N,B1*%
X144300000Y-91960000D03*
%TO.N,B2*%
X143300000Y-89960000D03*
%TO.N,B3*%
X142300000Y-91960000D03*
%TO.N,B4*%
X141300000Y-89960000D03*
%TO.N,B5*%
X140300000Y-91960000D03*
%TO.N,B6*%
X139300000Y-89960000D03*
%TO.N,B7*%
X138300000Y-91960000D03*
%TO.N,B8*%
X137300000Y-89960000D03*
%TO.N,B9*%
X136300000Y-91960000D03*
%TO.N,B10*%
X135300000Y-89960000D03*
%TO.N,B11*%
X134300000Y-91960000D03*
%TO.N,B12*%
X131300000Y-89960000D03*
%TO.N,B13*%
X130300000Y-91960000D03*
%TO.N,B14*%
X129300000Y-89960000D03*
%TO.N,B15*%
X128300000Y-91960000D03*
%TO.N,B16*%
X127300000Y-89960000D03*
%TO.N,B17*%
X126300000Y-91960000D03*
%TO.N,B18*%
X125300000Y-89960000D03*
%TO.N,B19*%
X124300000Y-91960000D03*
%TO.N,B20*%
X123300000Y-89960000D03*
%TO.N,B21*%
X122300000Y-91960000D03*
%TO.N,B22*%
X121300000Y-89960000D03*
%TO.N,B23*%
X120300000Y-91960000D03*
%TO.N,B24*%
X119300000Y-89960000D03*
%TO.N,B25*%
X118300000Y-91960000D03*
%TO.N,B26*%
X117300000Y-89960000D03*
%TO.N,B27*%
X116300000Y-91960000D03*
%TO.N,B28*%
X115300000Y-89960000D03*
%TO.N,B29*%
X114300000Y-91960000D03*
%TO.N,B30*%
X113300000Y-89960000D03*
%TO.N,B31*%
X112300000Y-91960000D03*
%TO.N,B32*%
X111300000Y-89960000D03*
%TO.N,B33*%
X110300000Y-91960000D03*
%TO.N,B34*%
X109300000Y-89960000D03*
%TO.N,B35*%
X108300000Y-91960000D03*
%TO.N,B36*%
X107300000Y-89960000D03*
%TO.N,B37*%
X106300000Y-91960000D03*
%TO.N,B38*%
X105300000Y-89960000D03*
%TO.N,B39*%
X104300000Y-91960000D03*
%TO.N,B40*%
X103300000Y-89960000D03*
%TO.N,B41*%
X102300000Y-91960000D03*
%TO.N,B42*%
X101300000Y-89960000D03*
%TO.N,B43*%
X100300000Y-91960000D03*
%TO.N,B44*%
X99300000Y-89960000D03*
%TO.N,B45*%
X98300000Y-91960000D03*
%TO.N,B46*%
X97300000Y-89960000D03*
%TO.N,B47*%
X96300000Y-91960000D03*
%TO.N,B48*%
X95300000Y-89960000D03*
%TO.N,B49*%
X94300000Y-91960000D03*
%TO.N,B50*%
X93300000Y-89960000D03*
%TO.N,B51*%
X92300000Y-91960000D03*
%TO.N,B52*%
X91300000Y-89960000D03*
%TO.N,B53*%
X90300000Y-91960000D03*
%TO.N,B54*%
X89300000Y-89960000D03*
%TO.N,B55*%
X88300000Y-91960000D03*
%TO.N,B56*%
X87300000Y-89960000D03*
%TO.N,B57*%
X86300000Y-91960000D03*
%TO.N,B58*%
X85300000Y-89960000D03*
%TO.N,B59*%
X84300000Y-91960000D03*
%TO.N,B60*%
X83300000Y-89960000D03*
%TO.N,B61*%
X82300000Y-91960000D03*
%TO.N,B62*%
X81300000Y-89960000D03*
%TO.N,B63*%
X80300000Y-91960000D03*
%TO.N,B64*%
X79300000Y-89960000D03*
%TO.N,B65*%
X78300000Y-91960000D03*
%TO.N,B66*%
X77300000Y-89960000D03*
%TO.N,B67*%
X76300000Y-91960000D03*
%TO.N,B68*%
X75300000Y-89960000D03*
%TO.N,B69*%
X74300000Y-91960000D03*
%TO.N,B70*%
X73300000Y-89960000D03*
%TO.N,B71*%
X72300000Y-91960000D03*
%TO.N,B72*%
X71300000Y-89960000D03*
%TO.N,B73*%
X70300000Y-91960000D03*
%TO.N,B74*%
X69300000Y-89960000D03*
%TO.N,B75*%
X68300000Y-91960000D03*
%TO.N,B76*%
X67300000Y-89960000D03*
%TO.N,B77*%
X66300000Y-91960000D03*
%TO.N,B78*%
X65300000Y-89960000D03*
%TO.N,B79*%
X64300000Y-91960000D03*
%TO.N,B80*%
X63300000Y-89960000D03*
%TO.N,B81*%
X62300000Y-91960000D03*
%TO.N,B82*%
X61300000Y-89960000D03*
%TD*%
D10*
%TO.N,A1*%
%TO.C,J7*%
X144300000Y-155420000D03*
D11*
%TO.N,A2*%
X143300000Y-157420000D03*
%TO.N,A3*%
X142300000Y-155420000D03*
%TO.N,A4*%
X141300000Y-157420000D03*
%TO.N,A5*%
X140300000Y-155420000D03*
%TO.N,A6*%
X139300000Y-157420000D03*
%TO.N,A7*%
X138300000Y-155420000D03*
%TO.N,A8*%
X137300000Y-157420000D03*
%TO.N,A9*%
X136300000Y-155420000D03*
%TO.N,A10*%
X135300000Y-157420000D03*
%TO.N,A11*%
X134300000Y-155420000D03*
%TO.N,A12*%
X131300000Y-157420000D03*
%TO.N,A13*%
X130300000Y-155420000D03*
%TO.N,A14*%
X129300000Y-157420000D03*
%TO.N,A15*%
X128300000Y-155420000D03*
%TO.N,A16*%
X127300000Y-157420000D03*
%TO.N,A17*%
X126300000Y-155420000D03*
%TO.N,A18*%
X125300000Y-157420000D03*
%TO.N,A19*%
X124300000Y-155420000D03*
%TO.N,A20*%
X123300000Y-157420000D03*
%TO.N,A21*%
X122300000Y-155420000D03*
%TO.N,A22*%
X121300000Y-157420000D03*
%TO.N,A23*%
X120300000Y-155420000D03*
%TO.N,A24*%
X119300000Y-157420000D03*
%TO.N,A25*%
X118300000Y-155420000D03*
%TO.N,A26*%
X117300000Y-157420000D03*
%TO.N,A27*%
X116300000Y-155420000D03*
%TO.N,A28*%
X115300000Y-157420000D03*
%TO.N,A29*%
X114300000Y-155420000D03*
%TO.N,A30*%
X113300000Y-157420000D03*
%TO.N,A31*%
X112300000Y-155420000D03*
%TO.N,A32*%
X111300000Y-157420000D03*
%TO.N,A33*%
X110300000Y-155420000D03*
%TO.N,A34*%
X109300000Y-157420000D03*
%TO.N,A35*%
X108300000Y-155420000D03*
%TO.N,A36*%
X107300000Y-157420000D03*
%TO.N,A37*%
X106300000Y-155420000D03*
%TO.N,A38*%
X105300000Y-157420000D03*
%TO.N,A39*%
X104300000Y-155420000D03*
%TO.N,A40*%
X103300000Y-157420000D03*
%TO.N,A41*%
X102300000Y-155420000D03*
%TO.N,A42*%
X101300000Y-157420000D03*
%TO.N,A43*%
X100300000Y-155420000D03*
%TO.N,A44*%
X99300000Y-157420000D03*
%TO.N,A45*%
X98300000Y-155420000D03*
%TO.N,A46*%
X97300000Y-157420000D03*
%TO.N,A47*%
X96300000Y-155420000D03*
%TO.N,A48*%
X95300000Y-157420000D03*
%TO.N,A49*%
X94300000Y-155420000D03*
%TO.N,A50*%
X93300000Y-157420000D03*
%TO.N,A51*%
X92300000Y-155420000D03*
%TO.N,A52*%
X91300000Y-157420000D03*
%TO.N,A53*%
X90300000Y-155420000D03*
%TO.N,A54*%
X89300000Y-157420000D03*
%TO.N,A55*%
X88300000Y-155420000D03*
%TO.N,A56*%
X87300000Y-157420000D03*
%TO.N,A57*%
X86300000Y-155420000D03*
%TO.N,A58*%
X85300000Y-157420000D03*
%TO.N,A59*%
X84300000Y-155420000D03*
%TO.N,A60*%
X83300000Y-157420000D03*
%TO.N,A61*%
X82300000Y-155420000D03*
%TO.N,A62*%
X81300000Y-157420000D03*
%TO.N,A63*%
X80300000Y-155420000D03*
%TO.N,A64*%
X79300000Y-157420000D03*
%TO.N,A65*%
X78300000Y-155420000D03*
%TO.N,A66*%
X77300000Y-157420000D03*
%TO.N,A67*%
X76300000Y-155420000D03*
%TO.N,A68*%
X75300000Y-157420000D03*
%TO.N,A69*%
X74300000Y-155420000D03*
%TO.N,A70*%
X73300000Y-157420000D03*
%TO.N,A71*%
X72300000Y-155420000D03*
%TO.N,A72*%
X71300000Y-157420000D03*
%TO.N,A73*%
X70300000Y-155420000D03*
%TO.N,A74*%
X69300000Y-157420000D03*
%TO.N,A75*%
X68300000Y-155420000D03*
%TO.N,A76*%
X67300000Y-157420000D03*
%TO.N,A77*%
X66300000Y-155420000D03*
%TO.N,A78*%
X65300000Y-157420000D03*
%TO.N,A79*%
X64300000Y-155420000D03*
%TO.N,A80*%
X63300000Y-157420000D03*
%TO.N,A81*%
X62300000Y-155420000D03*
%TO.N,A82*%
X61300000Y-157420000D03*
%TO.N,B1*%
X144300000Y-152920000D03*
%TO.N,B2*%
X143300000Y-150920000D03*
%TO.N,B3*%
X142300000Y-152920000D03*
%TO.N,B4*%
X141300000Y-150920000D03*
%TO.N,B5*%
X140300000Y-152920000D03*
%TO.N,B6*%
X139300000Y-150920000D03*
%TO.N,B7*%
X138300000Y-152920000D03*
%TO.N,B8*%
X137300000Y-150920000D03*
%TO.N,B9*%
X136300000Y-152920000D03*
%TO.N,B10*%
X135300000Y-150920000D03*
%TO.N,B11*%
X134300000Y-152920000D03*
%TO.N,B12*%
X131300000Y-150920000D03*
%TO.N,B13*%
X130300000Y-152920000D03*
%TO.N,B14*%
X129300000Y-150920000D03*
%TO.N,B15*%
X128300000Y-152920000D03*
%TO.N,B16*%
X127300000Y-150920000D03*
%TO.N,B17*%
X126300000Y-152920000D03*
%TO.N,B18*%
X125300000Y-150920000D03*
%TO.N,B19*%
X124300000Y-152920000D03*
%TO.N,B20*%
X123300000Y-150920000D03*
%TO.N,B21*%
X122300000Y-152920000D03*
%TO.N,B22*%
X121300000Y-150920000D03*
%TO.N,B23*%
X120300000Y-152920000D03*
%TO.N,B24*%
X119300000Y-150920000D03*
%TO.N,B25*%
X118300000Y-152920000D03*
%TO.N,B26*%
X117300000Y-150920000D03*
%TO.N,B27*%
X116300000Y-152920000D03*
%TO.N,B28*%
X115300000Y-150920000D03*
%TO.N,B29*%
X114300000Y-152920000D03*
%TO.N,B30*%
X113300000Y-150920000D03*
%TO.N,B31*%
X112300000Y-152920000D03*
%TO.N,B32*%
X111300000Y-150920000D03*
%TO.N,B33*%
X110300000Y-152920000D03*
%TO.N,B34*%
X109300000Y-150920000D03*
%TO.N,B35*%
X108300000Y-152920000D03*
%TO.N,B36*%
X107300000Y-150920000D03*
%TO.N,B37*%
X106300000Y-152920000D03*
%TO.N,B38*%
X105300000Y-150920000D03*
%TO.N,B39*%
X104300000Y-152920000D03*
%TO.N,B40*%
X103300000Y-150920000D03*
%TO.N,B41*%
X102300000Y-152920000D03*
%TO.N,B42*%
X101300000Y-150920000D03*
%TO.N,B43*%
X100300000Y-152920000D03*
%TO.N,B44*%
X99300000Y-150920000D03*
%TO.N,B45*%
X98300000Y-152920000D03*
%TO.N,B46*%
X97300000Y-150920000D03*
%TO.N,B47*%
X96300000Y-152920000D03*
%TO.N,B48*%
X95300000Y-150920000D03*
%TO.N,B49*%
X94300000Y-152920000D03*
%TO.N,B50*%
X93300000Y-150920000D03*
%TO.N,B51*%
X92300000Y-152920000D03*
%TO.N,B52*%
X91300000Y-150920000D03*
%TO.N,B53*%
X90300000Y-152920000D03*
%TO.N,B54*%
X89300000Y-150920000D03*
%TO.N,B55*%
X88300000Y-152920000D03*
%TO.N,B56*%
X87300000Y-150920000D03*
%TO.N,B57*%
X86300000Y-152920000D03*
%TO.N,B58*%
X85300000Y-150920000D03*
%TO.N,B59*%
X84300000Y-152920000D03*
%TO.N,B60*%
X83300000Y-150920000D03*
%TO.N,B61*%
X82300000Y-152920000D03*
%TO.N,B62*%
X81300000Y-150920000D03*
%TO.N,B63*%
X80300000Y-152920000D03*
%TO.N,B64*%
X79300000Y-150920000D03*
%TO.N,B65*%
X78300000Y-152920000D03*
%TO.N,B66*%
X77300000Y-150920000D03*
%TO.N,B67*%
X76300000Y-152920000D03*
%TO.N,B68*%
X75300000Y-150920000D03*
%TO.N,B69*%
X74300000Y-152920000D03*
%TO.N,B70*%
X73300000Y-150920000D03*
%TO.N,B71*%
X72300000Y-152920000D03*
%TO.N,B72*%
X71300000Y-150920000D03*
%TO.N,B73*%
X70300000Y-152920000D03*
%TO.N,B74*%
X69300000Y-150920000D03*
%TO.N,B75*%
X68300000Y-152920000D03*
%TO.N,B76*%
X67300000Y-150920000D03*
%TO.N,B77*%
X66300000Y-152920000D03*
%TO.N,B78*%
X65300000Y-150920000D03*
%TO.N,B79*%
X64300000Y-152920000D03*
%TO.N,B80*%
X63300000Y-150920000D03*
%TO.N,B81*%
X62300000Y-152920000D03*
%TO.N,B82*%
X61300000Y-150920000D03*
%TD*%
D12*
%TO.N,B49*%
X94300000Y-152920000D02*
X94300000Y-136821550D01*
X94300000Y-35221550D02*
X93396000Y-34317550D01*
X94300000Y-55541550D02*
X93396000Y-54637550D01*
X93396000Y-52224000D02*
X94300000Y-51320000D01*
X93396000Y-95277550D02*
X93396000Y-92864000D01*
X93396000Y-34317550D02*
X93396000Y-31904000D01*
X94300000Y-132600000D02*
X94300000Y-116501550D01*
X93396000Y-135917550D02*
X93396000Y-133504000D01*
X93396000Y-74957550D02*
X93396000Y-72544000D01*
X93396000Y-115597550D02*
X93396000Y-113184000D01*
X93396000Y-92864000D02*
X94300000Y-91960000D01*
X93396000Y-54637550D02*
X93396000Y-52224000D01*
X94300000Y-75861550D02*
X93396000Y-74957550D01*
X94300000Y-136821550D02*
X93396000Y-135917550D01*
X93396000Y-156237550D02*
X93396000Y-153824000D01*
X93396000Y-72544000D02*
X94300000Y-71640000D01*
X94300000Y-112280000D02*
X94300000Y-96181550D01*
X93396000Y-153824000D02*
X94300000Y-152920000D01*
X94300000Y-71640000D02*
X94300000Y-55541550D01*
X94300000Y-91960000D02*
X94300000Y-75861550D01*
X94300000Y-116501550D02*
X93396000Y-115597550D01*
X94300000Y-173240000D02*
X94300000Y-157141550D01*
X94300000Y-157141550D02*
X93396000Y-156237550D01*
X94300000Y-96181550D02*
X93396000Y-95277550D01*
X93396000Y-31904000D02*
X94300000Y-31000000D01*
X94300000Y-51320000D02*
X94300000Y-35221550D01*
X93396000Y-113184000D02*
X94300000Y-112280000D01*
X93396000Y-133504000D02*
X94300000Y-132600000D01*
%TO.N,B51*%
X91396000Y-113184000D02*
X92300000Y-112280000D01*
X91396000Y-74957550D02*
X91396000Y-72544000D01*
X91396000Y-115597550D02*
X91396000Y-113184000D01*
X92300000Y-91960000D02*
X92300000Y-75861550D01*
X91396000Y-135917550D02*
X91396000Y-133504000D01*
X91396000Y-34317550D02*
X91396000Y-31904000D01*
X91396000Y-133504000D02*
X92300000Y-132600000D01*
X92300000Y-112280000D02*
X92300000Y-96181550D01*
X92300000Y-157141550D02*
X91396000Y-156237550D01*
X91396000Y-95277550D02*
X91396000Y-92864000D01*
X91396000Y-156237550D02*
X91396000Y-153824000D01*
X92300000Y-152920000D02*
X92300000Y-136821550D01*
X92300000Y-136821550D02*
X91396000Y-135917550D01*
X92300000Y-51320000D02*
X92300000Y-35221550D01*
X91396000Y-92864000D02*
X92300000Y-91960000D01*
X92300000Y-55541550D02*
X91396000Y-54637550D01*
X91396000Y-153824000D02*
X92300000Y-152920000D01*
X91396000Y-54637550D02*
X91396000Y-52224000D01*
X92300000Y-132600000D02*
X92300000Y-116501550D01*
X91396000Y-72544000D02*
X92300000Y-71640000D01*
X92300000Y-96181550D02*
X91396000Y-95277550D01*
X92300000Y-71640000D02*
X92300000Y-55541550D01*
X91396000Y-31904000D02*
X92300000Y-31000000D01*
X91396000Y-52224000D02*
X92300000Y-51320000D01*
X92300000Y-75861550D02*
X91396000Y-74957550D01*
X92300000Y-173240000D02*
X92300000Y-157141550D01*
X92300000Y-116501550D02*
X91396000Y-115597550D01*
X92300000Y-35221550D02*
X91396000Y-34317550D01*
%TO.N,B63*%
X79396000Y-135917550D02*
X79396000Y-133504000D01*
X79396000Y-52224000D02*
X80300000Y-51320000D01*
X79396000Y-54637550D02*
X79396000Y-52224000D01*
X80300000Y-96181550D02*
X79396000Y-95277550D01*
X80300000Y-152920000D02*
X80300000Y-136821550D01*
X79396000Y-133504000D02*
X80300000Y-132600000D01*
X80300000Y-91960000D02*
X80300000Y-75861550D01*
X80300000Y-136821550D02*
X79396000Y-135917550D01*
X80300000Y-55541550D02*
X79396000Y-54637550D01*
X80300000Y-75861550D02*
X79396000Y-74957550D01*
X79396000Y-74957550D02*
X79396000Y-72544000D01*
X80300000Y-51320000D02*
X80300000Y-35221550D01*
X80300000Y-71640000D02*
X80300000Y-55541550D01*
X80300000Y-112280000D02*
X80300000Y-96181550D01*
X80300000Y-132600000D02*
X80300000Y-116501550D01*
X79396000Y-156237550D02*
X79396000Y-153824000D01*
X79396000Y-115597550D02*
X79396000Y-113184000D01*
X79396000Y-31904000D02*
X80300000Y-31000000D01*
X79396000Y-153824000D02*
X80300000Y-152920000D01*
X79396000Y-95277550D02*
X79396000Y-92864000D01*
X80300000Y-35221550D02*
X79396000Y-34317550D01*
X79396000Y-72544000D02*
X80300000Y-71640000D01*
X79396000Y-34317550D02*
X79396000Y-31904000D01*
X80300000Y-116501550D02*
X79396000Y-115597550D01*
X80300000Y-173240000D02*
X80300000Y-157141550D01*
X79396000Y-113184000D02*
X80300000Y-112280000D01*
X80300000Y-157141550D02*
X79396000Y-156237550D01*
X79396000Y-92864000D02*
X80300000Y-91960000D01*
%TO.N,B45*%
X97396000Y-156237550D02*
X97396000Y-153824000D01*
X98300000Y-71640000D02*
X98300000Y-55541550D01*
X98300000Y-116501550D02*
X97396000Y-115597550D01*
X98300000Y-96181550D02*
X97396000Y-95277550D01*
X97396000Y-95277550D02*
X97396000Y-92864000D01*
X98300000Y-157141550D02*
X97396000Y-156237550D01*
X97396000Y-133504000D02*
X98300000Y-132600000D01*
X97396000Y-135917550D02*
X97396000Y-133504000D01*
X97396000Y-153824000D02*
X98300000Y-152920000D01*
X98300000Y-91960000D02*
X98300000Y-75861550D01*
X97396000Y-54637550D02*
X97396000Y-52224000D01*
X98300000Y-75861550D02*
X97396000Y-74957550D01*
X97396000Y-113184000D02*
X98300000Y-112280000D01*
X97396000Y-74957550D02*
X97396000Y-72544000D01*
X97396000Y-52224000D02*
X98300000Y-51320000D01*
X97396000Y-115597550D02*
X97396000Y-113184000D01*
X98300000Y-55541550D02*
X97396000Y-54637550D01*
X98300000Y-132600000D02*
X98300000Y-116501550D01*
X97396000Y-34317550D02*
X97396000Y-31904000D01*
X97396000Y-92864000D02*
X98300000Y-91960000D01*
X98300000Y-35221550D02*
X97396000Y-34317550D01*
X97396000Y-72544000D02*
X98300000Y-71640000D01*
X98300000Y-152920000D02*
X98300000Y-136821550D01*
X97396000Y-31904000D02*
X98300000Y-31000000D01*
X98300000Y-51320000D02*
X98300000Y-35221550D01*
X98300000Y-136821550D02*
X97396000Y-135917550D01*
X98300000Y-173240000D02*
X98300000Y-157141550D01*
X98300000Y-112280000D02*
X98300000Y-96181550D01*
%TO.N,B25*%
X118300000Y-152920000D02*
X118300000Y-136821550D01*
X117396000Y-92864000D02*
X118300000Y-91960000D01*
X117396000Y-113184000D02*
X118300000Y-112280000D01*
X117396000Y-95277550D02*
X117396000Y-92864000D01*
X117396000Y-133504000D02*
X118300000Y-132600000D01*
X118300000Y-75861550D02*
X117396000Y-74957550D01*
X118300000Y-91960000D02*
X118300000Y-75861550D01*
X117396000Y-72544000D02*
X118300000Y-71640000D01*
X118300000Y-132600000D02*
X118300000Y-116501550D01*
X117396000Y-31904000D02*
X118300000Y-31000000D01*
X118300000Y-71640000D02*
X118300000Y-55541550D01*
X118300000Y-157141550D02*
X117396000Y-156237550D01*
X118300000Y-136821550D02*
X117396000Y-135917550D01*
X117396000Y-74957550D02*
X117396000Y-72544000D01*
X118300000Y-173240000D02*
X118300000Y-157141550D01*
X117396000Y-135917550D02*
X117396000Y-133504000D01*
X117396000Y-115597550D02*
X117396000Y-113184000D01*
X118300000Y-35221550D02*
X117396000Y-34317550D01*
X117396000Y-153824000D02*
X118300000Y-152920000D01*
X117396000Y-54637550D02*
X117396000Y-52224000D01*
X117396000Y-156237550D02*
X117396000Y-153824000D01*
X118300000Y-96181550D02*
X117396000Y-95277550D01*
X118300000Y-51320000D02*
X118300000Y-35221550D01*
X118300000Y-112280000D02*
X118300000Y-96181550D01*
X117396000Y-52224000D02*
X118300000Y-51320000D01*
X117396000Y-34317550D02*
X117396000Y-31904000D01*
X118300000Y-55541550D02*
X117396000Y-54637550D01*
X118300000Y-116501550D02*
X117396000Y-115597550D01*
%TO.N,B17*%
X125396000Y-72544000D02*
X126300000Y-71640000D01*
X126300000Y-116501550D02*
X125396000Y-115597550D01*
X126300000Y-55541550D02*
X125396000Y-54637550D01*
X125396000Y-95277550D02*
X125396000Y-92864000D01*
X125396000Y-153824000D02*
X126300000Y-152920000D01*
X126300000Y-112280000D02*
X126300000Y-96181550D01*
X125396000Y-156237550D02*
X125396000Y-153824000D01*
X126300000Y-71640000D02*
X126300000Y-55541550D01*
X126300000Y-75861550D02*
X125396000Y-74957550D01*
X126300000Y-152920000D02*
X126300000Y-136821550D01*
X125396000Y-92864000D02*
X126300000Y-91960000D01*
X125396000Y-52224000D02*
X126300000Y-51320000D01*
X125396000Y-34317550D02*
X125396000Y-31904000D01*
X126300000Y-132600000D02*
X126300000Y-116501550D01*
X126300000Y-136821550D02*
X125396000Y-135917550D01*
X125396000Y-115597550D02*
X125396000Y-113184000D01*
X125396000Y-74957550D02*
X125396000Y-72544000D01*
X125396000Y-31904000D02*
X126300000Y-31000000D01*
X126300000Y-51320000D02*
X126300000Y-35221550D01*
X126300000Y-173240000D02*
X126300000Y-157141550D01*
X126300000Y-91960000D02*
X126300000Y-75861550D01*
X126300000Y-96181550D02*
X125396000Y-95277550D01*
X125396000Y-54637550D02*
X125396000Y-52224000D01*
X126300000Y-157141550D02*
X125396000Y-156237550D01*
X125396000Y-135917550D02*
X125396000Y-133504000D01*
X125396000Y-113184000D02*
X126300000Y-112280000D01*
X126300000Y-35221550D02*
X125396000Y-34317550D01*
X125396000Y-133504000D02*
X126300000Y-132600000D01*
%TO.N,B7*%
X137396000Y-92864000D02*
X138300000Y-91960000D01*
X137396000Y-135474450D02*
X137396000Y-133504000D01*
X137396000Y-72544000D02*
X138300000Y-71640000D01*
X137396000Y-74514450D02*
X137396000Y-72544000D01*
X138300000Y-51320000D02*
X138300000Y-34778450D01*
X138300000Y-132600000D02*
X138300000Y-116058450D01*
X138300000Y-112280000D02*
X138300000Y-95738450D01*
X138300000Y-75418450D02*
X137396000Y-74514450D01*
X137396000Y-94834450D02*
X137396000Y-92864000D01*
X137396000Y-153824000D02*
X138300000Y-152920000D01*
X138300000Y-71640000D02*
X138300000Y-55098450D01*
X138300000Y-136378450D02*
X137396000Y-135474450D01*
X138300000Y-152920000D02*
X138300000Y-136378450D01*
X138300000Y-116058450D02*
X137396000Y-115154450D01*
X137396000Y-113184000D02*
X138300000Y-112280000D01*
X138300000Y-156698450D02*
X137396000Y-155794450D01*
X137396000Y-115154450D02*
X137396000Y-113184000D01*
X138300000Y-55098450D02*
X137396000Y-54194450D01*
X138300000Y-95738450D02*
X137396000Y-94834450D01*
X138300000Y-91960000D02*
X138300000Y-75418450D01*
X137396000Y-33874450D02*
X137396000Y-31904000D01*
X137396000Y-31904000D02*
X138300000Y-31000000D01*
X137396000Y-54194450D02*
X137396000Y-52224000D01*
X137396000Y-52224000D02*
X138300000Y-51320000D01*
X138300000Y-173240000D02*
X138300000Y-156698450D01*
X137396000Y-155794450D02*
X137396000Y-153824000D01*
X137396000Y-133504000D02*
X138300000Y-132600000D01*
X138300000Y-34778450D02*
X137396000Y-33874450D01*
%TO.N,B81*%
X61396000Y-156237550D02*
X61396000Y-153824000D01*
X62300000Y-75861550D02*
X61396000Y-74957550D01*
X61396000Y-52224000D02*
X62300000Y-51320000D01*
X62300000Y-91960000D02*
X62300000Y-75861550D01*
X62300000Y-112280000D02*
X62300000Y-96181550D01*
X62300000Y-157141550D02*
X61396000Y-156237550D01*
X61396000Y-92864000D02*
X62300000Y-91960000D01*
X61396000Y-115597550D02*
X61396000Y-113184000D01*
X61396000Y-133504000D02*
X62300000Y-132600000D01*
X62300000Y-35221550D02*
X61396000Y-34317550D01*
X62300000Y-55541550D02*
X61396000Y-54637550D01*
X62300000Y-136821550D02*
X61396000Y-135917550D01*
X61396000Y-54637550D02*
X61396000Y-52224000D01*
X62300000Y-96181550D02*
X61396000Y-95277550D01*
X61396000Y-113184000D02*
X62300000Y-112280000D01*
X61396000Y-72544000D02*
X62300000Y-71640000D01*
X62300000Y-51320000D02*
X62300000Y-35221550D01*
X62300000Y-116501550D02*
X61396000Y-115597550D01*
X62300000Y-152920000D02*
X62300000Y-136821550D01*
X62300000Y-173240000D02*
X62300000Y-157141550D01*
X61396000Y-74957550D02*
X61396000Y-72544000D01*
X62300000Y-71640000D02*
X62300000Y-55541550D01*
X61396000Y-153824000D02*
X62300000Y-152920000D01*
X61396000Y-135917550D02*
X61396000Y-133504000D01*
X61396000Y-95277550D02*
X61396000Y-92864000D01*
X61396000Y-31904000D02*
X62300000Y-31000000D01*
X61396000Y-34317550D02*
X61396000Y-31904000D01*
X62300000Y-132600000D02*
X62300000Y-116501550D01*
%TO.N,B79*%
X64300000Y-91960000D02*
X64300000Y-75861550D01*
X64300000Y-75861550D02*
X63396000Y-74957550D01*
X64300000Y-112280000D02*
X64300000Y-96181550D01*
X64300000Y-96181550D02*
X63396000Y-95277550D01*
X63396000Y-31904000D02*
X64300000Y-31000000D01*
X64300000Y-116501550D02*
X63396000Y-115597550D01*
X63396000Y-153824000D02*
X64300000Y-152920000D01*
X63396000Y-72544000D02*
X64300000Y-71640000D01*
X63396000Y-156237550D02*
X63396000Y-153824000D01*
X63396000Y-115597550D02*
X63396000Y-113184000D01*
X63396000Y-52224000D02*
X64300000Y-51320000D01*
X64300000Y-51320000D02*
X64300000Y-35221550D01*
X63396000Y-95277550D02*
X63396000Y-92864000D01*
X64300000Y-71640000D02*
X64300000Y-55541550D01*
X63396000Y-92864000D02*
X64300000Y-91960000D01*
X63396000Y-133504000D02*
X64300000Y-132600000D01*
X64300000Y-152920000D02*
X64300000Y-136821550D01*
X63396000Y-135917550D02*
X63396000Y-133504000D01*
X63396000Y-54637550D02*
X63396000Y-52224000D01*
X64300000Y-173240000D02*
X64300000Y-157141550D01*
X64300000Y-157141550D02*
X63396000Y-156237550D01*
X64300000Y-132600000D02*
X64300000Y-116501550D01*
X63396000Y-74957550D02*
X63396000Y-72544000D01*
X64300000Y-35221550D02*
X63396000Y-34317550D01*
X64300000Y-136821550D02*
X63396000Y-135917550D01*
X63396000Y-113184000D02*
X64300000Y-112280000D01*
X64300000Y-55541550D02*
X63396000Y-54637550D01*
X63396000Y-34317550D02*
X63396000Y-31904000D01*
%TO.N,B29*%
X114300000Y-152920000D02*
X114300000Y-136821550D01*
X113396000Y-92864000D02*
X114300000Y-91960000D01*
X114300000Y-136821550D02*
X113396000Y-135917550D01*
X113396000Y-133504000D02*
X114300000Y-132600000D01*
X113396000Y-31904000D02*
X114300000Y-31000000D01*
X113396000Y-95277550D02*
X113396000Y-92864000D01*
X114300000Y-91960000D02*
X114300000Y-75861550D01*
X113396000Y-156237550D02*
X113396000Y-153824000D01*
X114300000Y-75861550D02*
X113396000Y-74957550D01*
X114300000Y-35221550D02*
X113396000Y-34317550D01*
X114300000Y-157141550D02*
X113396000Y-156237550D01*
X113396000Y-54637550D02*
X113396000Y-52224000D01*
X114300000Y-96181550D02*
X113396000Y-95277550D01*
X113396000Y-74957550D02*
X113396000Y-72544000D01*
X114300000Y-71640000D02*
X114300000Y-55541550D01*
X113396000Y-34317550D02*
X113396000Y-31904000D01*
X113396000Y-153824000D02*
X114300000Y-152920000D01*
X114300000Y-173240000D02*
X114300000Y-157141550D01*
X114300000Y-55541550D02*
X113396000Y-54637550D01*
X113396000Y-113184000D02*
X114300000Y-112280000D01*
X114300000Y-116501550D02*
X113396000Y-115597550D01*
X114300000Y-132600000D02*
X114300000Y-116501550D01*
X113396000Y-115597550D02*
X113396000Y-113184000D01*
X113396000Y-135917550D02*
X113396000Y-133504000D01*
X113396000Y-52224000D02*
X114300000Y-51320000D01*
X114300000Y-51320000D02*
X114300000Y-35221550D01*
X114300000Y-112280000D02*
X114300000Y-96181550D01*
X113396000Y-72544000D02*
X114300000Y-71640000D01*
%TO.N,B3*%
X141396000Y-135474450D02*
X141396000Y-133504000D01*
X142300000Y-136378450D02*
X141396000Y-135474450D01*
X142300000Y-156698450D02*
X141396000Y-155794450D01*
X141396000Y-52224000D02*
X142300000Y-51320000D01*
X141396000Y-33874450D02*
X141396000Y-31904000D01*
X141396000Y-113184000D02*
X142300000Y-112280000D01*
X141396000Y-155794450D02*
X141396000Y-153824000D01*
X142300000Y-152920000D02*
X142300000Y-136378450D01*
X142300000Y-51320000D02*
X142300000Y-34778450D01*
X142300000Y-75418450D02*
X141396000Y-74514450D01*
X142300000Y-71640000D02*
X142300000Y-55098450D01*
X142300000Y-132600000D02*
X142300000Y-116058450D01*
X141396000Y-72544000D02*
X142300000Y-71640000D01*
X141396000Y-54194450D02*
X141396000Y-52224000D01*
X141396000Y-92864000D02*
X142300000Y-91960000D01*
X142300000Y-55098450D02*
X141396000Y-54194450D01*
X141396000Y-115154450D02*
X141396000Y-113184000D01*
X142300000Y-91960000D02*
X142300000Y-75418450D01*
X141396000Y-31904000D02*
X142300000Y-31000000D01*
X142300000Y-34778450D02*
X141396000Y-33874450D01*
X141396000Y-153824000D02*
X142300000Y-152920000D01*
X141396000Y-133504000D02*
X142300000Y-132600000D01*
X142300000Y-116058450D02*
X141396000Y-115154450D01*
X141396000Y-94834450D02*
X141396000Y-92864000D01*
X142300000Y-95738450D02*
X141396000Y-94834450D01*
X142300000Y-173240000D02*
X142300000Y-156698450D01*
X141396000Y-74514450D02*
X141396000Y-72544000D01*
X142300000Y-112280000D02*
X142300000Y-95738450D01*
%TO.N,B43*%
X100300000Y-35221550D02*
X99396000Y-34317550D01*
X100300000Y-132600000D02*
X100300000Y-116501550D01*
X99396000Y-113184000D02*
X100300000Y-112280000D01*
X100300000Y-71640000D02*
X100300000Y-55541550D01*
X99396000Y-92864000D02*
X100300000Y-91960000D01*
X99396000Y-156237550D02*
X99396000Y-153824000D01*
X100300000Y-136821550D02*
X99396000Y-135917550D01*
X100300000Y-112280000D02*
X100300000Y-96181550D01*
X99396000Y-115597550D02*
X99396000Y-113184000D01*
X100300000Y-173240000D02*
X100300000Y-157141550D01*
X99396000Y-95277550D02*
X99396000Y-92864000D01*
X99396000Y-54637550D02*
X99396000Y-52224000D01*
X100300000Y-91960000D02*
X100300000Y-75861550D01*
X100300000Y-116501550D02*
X99396000Y-115597550D01*
X99396000Y-153824000D02*
X100300000Y-152920000D01*
X99396000Y-31904000D02*
X100300000Y-31000000D01*
X99396000Y-72544000D02*
X100300000Y-71640000D01*
X99396000Y-135917550D02*
X99396000Y-133504000D01*
X100300000Y-75861550D02*
X99396000Y-74957550D01*
X99396000Y-34317550D02*
X99396000Y-31904000D01*
X100300000Y-157141550D02*
X99396000Y-156237550D01*
X99396000Y-133504000D02*
X100300000Y-132600000D01*
X100300000Y-152920000D02*
X100300000Y-136821550D01*
X99396000Y-74957550D02*
X99396000Y-72544000D01*
X99396000Y-52224000D02*
X100300000Y-51320000D01*
X100300000Y-55541550D02*
X99396000Y-54637550D01*
X100300000Y-51320000D02*
X100300000Y-35221550D01*
X100300000Y-96181550D02*
X99396000Y-95277550D01*
%TO.N,B5*%
X139396000Y-33874450D02*
X139396000Y-31904000D01*
X140300000Y-132600000D02*
X140300000Y-116058450D01*
X139396000Y-92864000D02*
X140300000Y-91960000D01*
X140300000Y-156698450D02*
X139396000Y-155794450D01*
X140300000Y-173240000D02*
X140300000Y-156698450D01*
X139396000Y-113184000D02*
X140300000Y-112280000D01*
X140300000Y-34778450D02*
X139396000Y-33874450D01*
X140300000Y-71640000D02*
X140300000Y-55098450D01*
X139396000Y-31904000D02*
X140300000Y-31000000D01*
X139396000Y-54194450D02*
X139396000Y-52224000D01*
X140300000Y-91960000D02*
X140300000Y-75418450D01*
X140300000Y-136378450D02*
X139396000Y-135474450D01*
X139396000Y-52224000D02*
X140300000Y-51320000D01*
X140300000Y-95738450D02*
X139396000Y-94834450D01*
X139396000Y-155794450D02*
X139396000Y-153824000D01*
X140300000Y-116058450D02*
X139396000Y-115154450D01*
X139396000Y-133504000D02*
X140300000Y-132600000D01*
X139396000Y-153824000D02*
X140300000Y-152920000D01*
X139396000Y-72544000D02*
X140300000Y-71640000D01*
X140300000Y-51320000D02*
X140300000Y-34778450D01*
X139396000Y-94834450D02*
X139396000Y-92864000D01*
X139396000Y-135474450D02*
X139396000Y-133504000D01*
X139396000Y-115154450D02*
X139396000Y-113184000D01*
X139396000Y-74514450D02*
X139396000Y-72544000D01*
X140300000Y-75418450D02*
X139396000Y-74514450D01*
X140300000Y-55098450D02*
X139396000Y-54194450D01*
X140300000Y-152920000D02*
X140300000Y-136378450D01*
X140300000Y-112280000D02*
X140300000Y-95738450D01*
%TO.N,B1*%
X145204000Y-91056000D02*
X145204000Y-72544000D01*
X145204000Y-72544000D02*
X144300000Y-71640000D01*
X145204000Y-131696000D02*
X145204000Y-113184000D01*
X144300000Y-112280000D02*
X145204000Y-111376000D01*
X145204000Y-92864000D02*
X144300000Y-91960000D01*
X144300000Y-51320000D02*
X145204000Y-50416000D01*
X144300000Y-71640000D02*
X145204000Y-70736000D01*
X145204000Y-152016000D02*
X145204000Y-133504000D01*
X145204000Y-111376000D02*
X145204000Y-92864000D01*
X144300000Y-91960000D02*
X145204000Y-91056000D01*
X145204000Y-113184000D02*
X144300000Y-112280000D01*
X144300000Y-132600000D02*
X145204000Y-131696000D01*
X145204000Y-52224000D02*
X144300000Y-51320000D01*
X144300000Y-152920000D02*
X145204000Y-152016000D01*
X145204000Y-133504000D02*
X144300000Y-132600000D01*
X145204000Y-153824000D02*
X144300000Y-152920000D01*
X145204000Y-70736000D02*
X145204000Y-52224000D01*
X145204000Y-172336000D02*
X145204000Y-153824000D01*
X144300000Y-173240000D02*
X145204000Y-172336000D01*
X145204000Y-50416000D02*
X145204000Y-31904000D01*
X145204000Y-31904000D02*
X144300000Y-31000000D01*
%TO.N,B23*%
X119396000Y-135917550D02*
X119396000Y-133504000D01*
X120300000Y-55541550D02*
X119396000Y-54637550D01*
X119396000Y-52224000D02*
X120300000Y-51320000D01*
X119396000Y-156237550D02*
X119396000Y-153824000D01*
X120300000Y-35221550D02*
X119396000Y-34317550D01*
X119396000Y-133504000D02*
X120300000Y-132600000D01*
X120300000Y-152920000D02*
X120300000Y-136821550D01*
X119396000Y-34317550D02*
X119396000Y-31904000D01*
X120300000Y-157141550D02*
X119396000Y-156237550D01*
X119396000Y-31904000D02*
X120300000Y-31000000D01*
X119396000Y-115597550D02*
X119396000Y-113184000D01*
X120300000Y-112280000D02*
X120300000Y-96181550D01*
X120300000Y-96181550D02*
X119396000Y-95277550D01*
X120300000Y-91960000D02*
X120300000Y-75861550D01*
X119396000Y-54637550D02*
X119396000Y-52224000D01*
X119396000Y-72544000D02*
X120300000Y-71640000D01*
X120300000Y-132600000D02*
X120300000Y-116501550D01*
X120300000Y-116501550D02*
X119396000Y-115597550D01*
X119396000Y-153824000D02*
X120300000Y-152920000D01*
X119396000Y-113184000D02*
X120300000Y-112280000D01*
X120300000Y-136821550D02*
X119396000Y-135917550D01*
X120300000Y-51320000D02*
X120300000Y-35221550D01*
X119396000Y-92864000D02*
X120300000Y-91960000D01*
X119396000Y-74957550D02*
X119396000Y-72544000D01*
X120300000Y-71640000D02*
X120300000Y-55541550D01*
X119396000Y-95277550D02*
X119396000Y-92864000D01*
X120300000Y-173240000D02*
X120300000Y-157141550D01*
X120300000Y-75861550D02*
X119396000Y-74957550D01*
%TO.N,B61*%
X81396000Y-95277550D02*
X81396000Y-92864000D01*
X81396000Y-72544000D02*
X82300000Y-71640000D01*
X81396000Y-52224000D02*
X82300000Y-51320000D01*
X82300000Y-116501550D02*
X81396000Y-115597550D01*
X82300000Y-55541550D02*
X81396000Y-54637550D01*
X82300000Y-112280000D02*
X82300000Y-96181550D01*
X81396000Y-115597550D02*
X81396000Y-113184000D01*
X81396000Y-156237550D02*
X81396000Y-153824000D01*
X82300000Y-152920000D02*
X82300000Y-136821550D01*
X82300000Y-96181550D02*
X81396000Y-95277550D01*
X81396000Y-54637550D02*
X81396000Y-52224000D01*
X82300000Y-35221550D02*
X81396000Y-34317550D01*
X82300000Y-157141550D02*
X81396000Y-156237550D01*
X82300000Y-173240000D02*
X82300000Y-157141550D01*
X82300000Y-71640000D02*
X82300000Y-55541550D01*
X81396000Y-113184000D02*
X82300000Y-112280000D01*
X82300000Y-132600000D02*
X82300000Y-116501550D01*
X82300000Y-91960000D02*
X82300000Y-75861550D01*
X82300000Y-51320000D02*
X82300000Y-35221550D01*
X82300000Y-75861550D02*
X81396000Y-74957550D01*
X81396000Y-31904000D02*
X82300000Y-31000000D01*
X81396000Y-34317550D02*
X81396000Y-31904000D01*
X81396000Y-135917550D02*
X81396000Y-133504000D01*
X81396000Y-133504000D02*
X82300000Y-132600000D01*
X81396000Y-74957550D02*
X81396000Y-72544000D01*
X82300000Y-136821550D02*
X81396000Y-135917550D01*
X81396000Y-92864000D02*
X82300000Y-91960000D01*
X81396000Y-153824000D02*
X82300000Y-152920000D01*
%TO.N,B53*%
X90300000Y-116501550D02*
X89396000Y-115597550D01*
X90300000Y-91960000D02*
X90300000Y-75861550D01*
X89396000Y-74957550D02*
X89396000Y-72544000D01*
X89396000Y-156237550D02*
X89396000Y-153824000D01*
X90300000Y-157141550D02*
X89396000Y-156237550D01*
X90300000Y-96181550D02*
X89396000Y-95277550D01*
X89396000Y-95277550D02*
X89396000Y-92864000D01*
X89396000Y-34317550D02*
X89396000Y-31904000D01*
X89396000Y-52224000D02*
X90300000Y-51320000D01*
X89396000Y-135917550D02*
X89396000Y-133504000D01*
X89396000Y-54637550D02*
X89396000Y-52224000D01*
X90300000Y-51320000D02*
X90300000Y-35221550D01*
X90300000Y-71640000D02*
X90300000Y-55541550D01*
X89396000Y-92864000D02*
X90300000Y-91960000D01*
X89396000Y-113184000D02*
X90300000Y-112280000D01*
X90300000Y-35221550D02*
X89396000Y-34317550D01*
X89396000Y-72544000D02*
X90300000Y-71640000D01*
X89396000Y-153824000D02*
X90300000Y-152920000D01*
X89396000Y-115597550D02*
X89396000Y-113184000D01*
X89396000Y-133504000D02*
X90300000Y-132600000D01*
X90300000Y-136821550D02*
X89396000Y-135917550D01*
X89396000Y-31904000D02*
X90300000Y-31000000D01*
X90300000Y-152920000D02*
X90300000Y-136821550D01*
X90300000Y-75861550D02*
X89396000Y-74957550D01*
X90300000Y-132600000D02*
X90300000Y-116501550D01*
X90300000Y-55541550D02*
X89396000Y-54637550D01*
X90300000Y-173240000D02*
X90300000Y-157141550D01*
X90300000Y-112280000D02*
X90300000Y-96181550D01*
%TO.N,B9*%
X135396000Y-92864000D02*
X136300000Y-91960000D01*
X136300000Y-91960000D02*
X136300000Y-75418450D01*
X136300000Y-51320000D02*
X136300000Y-34778450D01*
X136300000Y-173240000D02*
X136300000Y-156698450D01*
X136300000Y-152920000D02*
X136300000Y-136378450D01*
X136300000Y-71640000D02*
X136300000Y-55098450D01*
X136300000Y-132600000D02*
X136300000Y-116058450D01*
X135396000Y-135474450D02*
X135396000Y-133504000D01*
X135396000Y-72544000D02*
X136300000Y-71640000D01*
X136300000Y-75418450D02*
X135396000Y-74514450D01*
X136300000Y-95738450D02*
X135396000Y-94834450D01*
X135396000Y-31904000D02*
X136300000Y-31000000D01*
X135396000Y-155794450D02*
X135396000Y-153824000D01*
X135396000Y-52224000D02*
X136300000Y-51320000D01*
X136300000Y-136378450D02*
X135396000Y-135474450D01*
X136300000Y-156698450D02*
X135396000Y-155794450D01*
X135396000Y-115154450D02*
X135396000Y-113184000D01*
X136300000Y-55098450D02*
X135396000Y-54194450D01*
X136300000Y-34778450D02*
X135396000Y-33874450D01*
X135396000Y-113184000D02*
X136300000Y-112280000D01*
X135396000Y-153824000D02*
X136300000Y-152920000D01*
X136300000Y-116058450D02*
X135396000Y-115154450D01*
X135396000Y-133504000D02*
X136300000Y-132600000D01*
X135396000Y-94834450D02*
X135396000Y-92864000D01*
X135396000Y-33874450D02*
X135396000Y-31904000D01*
X135396000Y-74514450D02*
X135396000Y-72544000D01*
X135396000Y-54194450D02*
X135396000Y-52224000D01*
X136300000Y-112280000D02*
X136300000Y-95738450D01*
%TO.N,B67*%
X75396000Y-34317550D02*
X75396000Y-31904000D01*
X75396000Y-74957550D02*
X75396000Y-72544000D01*
X75396000Y-135917550D02*
X75396000Y-133504000D01*
X76300000Y-112280000D02*
X76300000Y-96181550D01*
X75396000Y-31904000D02*
X76300000Y-31000000D01*
X76300000Y-136821550D02*
X75396000Y-135917550D01*
X75396000Y-95277550D02*
X75396000Y-92864000D01*
X75396000Y-133504000D02*
X76300000Y-132600000D01*
X75396000Y-52224000D02*
X76300000Y-51320000D01*
X76300000Y-91960000D02*
X76300000Y-75861550D01*
X76300000Y-35221550D02*
X75396000Y-34317550D01*
X76300000Y-132600000D02*
X76300000Y-116501550D01*
X76300000Y-96181550D02*
X75396000Y-95277550D01*
X76300000Y-157141550D02*
X75396000Y-156237550D01*
X76300000Y-116501550D02*
X75396000Y-115597550D01*
X75396000Y-113184000D02*
X76300000Y-112280000D01*
X76300000Y-51320000D02*
X76300000Y-35221550D01*
X75396000Y-54637550D02*
X75396000Y-52224000D01*
X76300000Y-71640000D02*
X76300000Y-55541550D01*
X75396000Y-153824000D02*
X76300000Y-152920000D01*
X76300000Y-75861550D02*
X75396000Y-74957550D01*
X75396000Y-92864000D02*
X76300000Y-91960000D01*
X76300000Y-173240000D02*
X76300000Y-157141550D01*
X75396000Y-115597550D02*
X75396000Y-113184000D01*
X76300000Y-55541550D02*
X75396000Y-54637550D01*
X75396000Y-72544000D02*
X76300000Y-71640000D01*
X76300000Y-152920000D02*
X76300000Y-136821550D01*
X75396000Y-156237550D02*
X75396000Y-153824000D01*
%TO.N,B69*%
X74300000Y-173240000D02*
X74300000Y-157141550D01*
X73396000Y-153824000D02*
X74300000Y-152920000D01*
X73396000Y-34317550D02*
X73396000Y-31904000D01*
X73396000Y-135917550D02*
X73396000Y-133504000D01*
X73396000Y-115597550D02*
X73396000Y-113184000D01*
X73396000Y-133504000D02*
X74300000Y-132600000D01*
X74300000Y-55541550D02*
X73396000Y-54637550D01*
X74300000Y-116501550D02*
X73396000Y-115597550D01*
X74300000Y-96181550D02*
X73396000Y-95277550D01*
X74300000Y-136821550D02*
X73396000Y-135917550D01*
X74300000Y-152920000D02*
X74300000Y-136821550D01*
X73396000Y-72544000D02*
X74300000Y-71640000D01*
X74300000Y-112280000D02*
X74300000Y-96181550D01*
X74300000Y-35221550D02*
X73396000Y-34317550D01*
X74300000Y-157141550D02*
X73396000Y-156237550D01*
X73396000Y-31904000D02*
X74300000Y-31000000D01*
X73396000Y-74957550D02*
X73396000Y-72544000D01*
X73396000Y-92864000D02*
X74300000Y-91960000D01*
X74300000Y-75861550D02*
X73396000Y-74957550D01*
X74300000Y-132600000D02*
X74300000Y-116501550D01*
X73396000Y-54637550D02*
X73396000Y-52224000D01*
X74300000Y-91960000D02*
X74300000Y-75861550D01*
X73396000Y-156237550D02*
X73396000Y-153824000D01*
X73396000Y-52224000D02*
X74300000Y-51320000D01*
X74300000Y-71640000D02*
X74300000Y-55541550D01*
X73396000Y-95277550D02*
X73396000Y-92864000D01*
X74300000Y-51320000D02*
X74300000Y-35221550D01*
X73396000Y-113184000D02*
X74300000Y-112280000D01*
%TO.N,B65*%
X78300000Y-91960000D02*
X78300000Y-75861550D01*
X77396000Y-133504000D02*
X78300000Y-132600000D01*
X78300000Y-55541550D02*
X77396000Y-54637550D01*
X78300000Y-71640000D02*
X78300000Y-55541550D01*
X78300000Y-132600000D02*
X78300000Y-116501550D01*
X77396000Y-34317550D02*
X77396000Y-31904000D01*
X77396000Y-156237550D02*
X77396000Y-153824000D01*
X78300000Y-35221550D02*
X77396000Y-34317550D01*
X77396000Y-92864000D02*
X78300000Y-91960000D01*
X78300000Y-116501550D02*
X77396000Y-115597550D01*
X77396000Y-74957550D02*
X77396000Y-72544000D01*
X77396000Y-95277550D02*
X77396000Y-92864000D01*
X77396000Y-52224000D02*
X78300000Y-51320000D01*
X78300000Y-157141550D02*
X77396000Y-156237550D01*
X77396000Y-54637550D02*
X77396000Y-52224000D01*
X78300000Y-96181550D02*
X77396000Y-95277550D01*
X78300000Y-173240000D02*
X78300000Y-157141550D01*
X77396000Y-72544000D02*
X78300000Y-71640000D01*
X78300000Y-152920000D02*
X78300000Y-136821550D01*
X77396000Y-113184000D02*
X78300000Y-112280000D01*
X78300000Y-136821550D02*
X77396000Y-135917550D01*
X77396000Y-31904000D02*
X78300000Y-31000000D01*
X78300000Y-112280000D02*
X78300000Y-96181550D01*
X77396000Y-115597550D02*
X77396000Y-113184000D01*
X77396000Y-135917550D02*
X77396000Y-133504000D01*
X78300000Y-51320000D02*
X78300000Y-35221550D01*
X78300000Y-75861550D02*
X77396000Y-74957550D01*
X77396000Y-153824000D02*
X78300000Y-152920000D01*
%TO.N,B31*%
X111396000Y-115597550D02*
X111396000Y-113184000D01*
X112300000Y-96181550D02*
X111396000Y-95277550D01*
X111396000Y-31904000D02*
X112300000Y-31000000D01*
X111396000Y-133504000D02*
X112300000Y-132600000D01*
X111396000Y-92864000D02*
X112300000Y-91960000D01*
X111396000Y-135917550D02*
X111396000Y-133504000D01*
X111396000Y-95277550D02*
X111396000Y-92864000D01*
X112300000Y-112280000D02*
X112300000Y-96181550D01*
X112300000Y-91960000D02*
X112300000Y-75861550D01*
X112300000Y-35221550D02*
X111396000Y-34317550D01*
X112300000Y-71640000D02*
X112300000Y-55541550D01*
X112300000Y-136821550D02*
X111396000Y-135917550D01*
X111396000Y-153824000D02*
X112300000Y-152920000D01*
X111396000Y-34317550D02*
X111396000Y-31904000D01*
X112300000Y-55541550D02*
X111396000Y-54637550D01*
X112300000Y-51320000D02*
X112300000Y-35221550D01*
X112300000Y-132600000D02*
X112300000Y-116501550D01*
X111396000Y-156237550D02*
X111396000Y-153824000D01*
X112300000Y-152920000D02*
X112300000Y-136821550D01*
X111396000Y-72544000D02*
X112300000Y-71640000D01*
X111396000Y-54637550D02*
X111396000Y-52224000D01*
X111396000Y-74957550D02*
X111396000Y-72544000D01*
X111396000Y-113184000D02*
X112300000Y-112280000D01*
X112300000Y-116501550D02*
X111396000Y-115597550D01*
X111396000Y-52224000D02*
X112300000Y-51320000D01*
X112300000Y-157141550D02*
X111396000Y-156237550D01*
X112300000Y-75861550D02*
X111396000Y-74957550D01*
X112300000Y-173240000D02*
X112300000Y-157141550D01*
%TO.N,B33*%
X109396000Y-156237550D02*
X109396000Y-153824000D01*
X110300000Y-71640000D02*
X110300000Y-55541550D01*
X110300000Y-112280000D02*
X110300000Y-96181550D01*
X109396000Y-95277550D02*
X109396000Y-92864000D01*
X110300000Y-51320000D02*
X110300000Y-35221550D01*
X110300000Y-157141550D02*
X109396000Y-156237550D01*
X110300000Y-136821550D02*
X109396000Y-135917550D01*
X109396000Y-31904000D02*
X110300000Y-31000000D01*
X109396000Y-54637550D02*
X109396000Y-52224000D01*
X109396000Y-92864000D02*
X110300000Y-91960000D01*
X110300000Y-35221550D02*
X109396000Y-34317550D01*
X109396000Y-72544000D02*
X110300000Y-71640000D01*
X109396000Y-115597550D02*
X109396000Y-113184000D01*
X110300000Y-91960000D02*
X110300000Y-75861550D01*
X109396000Y-52224000D02*
X110300000Y-51320000D01*
X110300000Y-132600000D02*
X110300000Y-116501550D01*
X109396000Y-34317550D02*
X109396000Y-31904000D01*
X110300000Y-152920000D02*
X110300000Y-136821550D01*
X109396000Y-74957550D02*
X109396000Y-72544000D01*
X110300000Y-55541550D02*
X109396000Y-54637550D01*
X109396000Y-113184000D02*
X110300000Y-112280000D01*
X110300000Y-75861550D02*
X109396000Y-74957550D01*
X109396000Y-133504000D02*
X110300000Y-132600000D01*
X110300000Y-173240000D02*
X110300000Y-157141550D01*
X110300000Y-116501550D02*
X109396000Y-115597550D01*
X109396000Y-153824000D02*
X110300000Y-152920000D01*
X110300000Y-96181550D02*
X109396000Y-95277550D01*
X109396000Y-135917550D02*
X109396000Y-133504000D01*
%TO.N,B19*%
X124300000Y-136821550D02*
X123396000Y-135917550D01*
X123396000Y-72544000D02*
X124300000Y-71640000D01*
X123396000Y-52224000D02*
X124300000Y-51320000D01*
X123396000Y-133504000D02*
X124300000Y-132600000D01*
X123396000Y-135917550D02*
X123396000Y-133504000D01*
X124300000Y-132600000D02*
X124300000Y-116501550D01*
X124300000Y-173240000D02*
X124300000Y-157141550D01*
X124300000Y-75861550D02*
X123396000Y-74957550D01*
X124300000Y-55541550D02*
X123396000Y-54637550D01*
X123396000Y-95277550D02*
X123396000Y-92864000D01*
X124300000Y-51320000D02*
X124300000Y-35221550D01*
X123396000Y-54637550D02*
X123396000Y-52224000D01*
X123396000Y-34317550D02*
X123396000Y-31904000D01*
X123396000Y-92864000D02*
X124300000Y-91960000D01*
X124300000Y-35221550D02*
X123396000Y-34317550D01*
X124300000Y-96181550D02*
X123396000Y-95277550D01*
X124300000Y-112280000D02*
X124300000Y-96181550D01*
X123396000Y-156237550D02*
X123396000Y-153824000D01*
X124300000Y-152920000D02*
X124300000Y-136821550D01*
X124300000Y-91960000D02*
X124300000Y-75861550D01*
X124300000Y-116501550D02*
X123396000Y-115597550D01*
X123396000Y-115597550D02*
X123396000Y-113184000D01*
X123396000Y-74957550D02*
X123396000Y-72544000D01*
X124300000Y-157141550D02*
X123396000Y-156237550D01*
X123396000Y-31904000D02*
X124300000Y-31000000D01*
X123396000Y-153824000D02*
X124300000Y-152920000D01*
X123396000Y-113184000D02*
X124300000Y-112280000D01*
X124300000Y-71640000D02*
X124300000Y-55541550D01*
%TO.N,B37*%
X106300000Y-51320000D02*
X106300000Y-35221550D01*
X105396000Y-115597550D02*
X105396000Y-113184000D01*
X105396000Y-153824000D02*
X106300000Y-152920000D01*
X105396000Y-135917550D02*
X105396000Y-133504000D01*
X105396000Y-54637550D02*
X105396000Y-52224000D01*
X106300000Y-112280000D02*
X106300000Y-96181550D01*
X106300000Y-96181550D02*
X105396000Y-95277550D01*
X105396000Y-95277550D02*
X105396000Y-92864000D01*
X105396000Y-113184000D02*
X106300000Y-112280000D01*
X106300000Y-173240000D02*
X106300000Y-157141550D01*
X106300000Y-116501550D02*
X105396000Y-115597550D01*
X105396000Y-34317550D02*
X105396000Y-31904000D01*
X105396000Y-31904000D02*
X106300000Y-31000000D01*
X106300000Y-136821550D02*
X105396000Y-135917550D01*
X105396000Y-52224000D02*
X106300000Y-51320000D01*
X105396000Y-133504000D02*
X106300000Y-132600000D01*
X106300000Y-91960000D02*
X106300000Y-75861550D01*
X106300000Y-71640000D02*
X106300000Y-55541550D01*
X105396000Y-72544000D02*
X106300000Y-71640000D01*
X106300000Y-35221550D02*
X105396000Y-34317550D01*
X105396000Y-92864000D02*
X106300000Y-91960000D01*
X106300000Y-55541550D02*
X105396000Y-54637550D01*
X106300000Y-132600000D02*
X106300000Y-116501550D01*
X106300000Y-75861550D02*
X105396000Y-74957550D01*
X105396000Y-156237550D02*
X105396000Y-153824000D01*
X105396000Y-74957550D02*
X105396000Y-72544000D01*
X106300000Y-157141550D02*
X105396000Y-156237550D01*
X106300000Y-152920000D02*
X106300000Y-136821550D01*
%TO.N,B11*%
X131075000Y-72237614D02*
X132276613Y-71036001D01*
X131075000Y-92557614D02*
X132276613Y-91356001D01*
X134300000Y-51320000D02*
X134300000Y-36127386D01*
X134300000Y-137727386D02*
X131075000Y-134502386D01*
X132276613Y-91356001D02*
X133696001Y-91356001D01*
X134300000Y-152920000D02*
X134300000Y-137727386D01*
X131075000Y-93862386D02*
X131075000Y-92557614D01*
X133696001Y-111676001D02*
X134300000Y-112280000D01*
X131075000Y-134502386D02*
X131075000Y-133197614D01*
X131075000Y-31597614D02*
X132276613Y-30396001D01*
X133696001Y-30396001D02*
X134300000Y-31000000D01*
X133696001Y-50716001D02*
X134300000Y-51320000D01*
X131075000Y-53222386D02*
X131075000Y-51917614D01*
X133696001Y-152316001D02*
X134300000Y-152920000D01*
X131075000Y-32902386D02*
X131075000Y-31597614D01*
X134300000Y-173240000D02*
X134300000Y-158047386D01*
X134300000Y-117407386D02*
X131075000Y-114182386D01*
X134300000Y-91960000D02*
X134300000Y-76767386D01*
X134300000Y-132600000D02*
X134300000Y-117407386D01*
X132276613Y-152316001D02*
X133696001Y-152316001D01*
X131075000Y-51917614D02*
X132276613Y-50716001D01*
X131075000Y-114182386D02*
X131075000Y-112877614D01*
X132276613Y-50716001D02*
X133696001Y-50716001D01*
X132276613Y-111676001D02*
X133696001Y-111676001D01*
X134300000Y-76767386D02*
X131075000Y-73542386D01*
X134300000Y-158047386D02*
X131075000Y-154822386D01*
X131075000Y-73542386D02*
X131075000Y-72237614D01*
X133696001Y-71036001D02*
X134300000Y-71640000D01*
X131075000Y-153517614D02*
X132276613Y-152316001D01*
X133696001Y-131996001D02*
X134300000Y-132600000D01*
X134300000Y-36127386D02*
X131075000Y-32902386D01*
X132276613Y-30396001D02*
X133696001Y-30396001D01*
X134300000Y-71640000D02*
X134300000Y-56447386D01*
X131075000Y-112877614D02*
X132276613Y-111676001D01*
X133696001Y-91356001D02*
X134300000Y-91960000D01*
X134300000Y-56447386D02*
X131075000Y-53222386D01*
X134300000Y-112280000D02*
X134300000Y-97087386D01*
X131075000Y-154822386D02*
X131075000Y-153517614D01*
X132276613Y-71036001D02*
X133696001Y-71036001D01*
X134300000Y-97087386D02*
X131075000Y-93862386D01*
X131075000Y-133197614D02*
X132276613Y-131996001D01*
X132276613Y-131996001D02*
X133696001Y-131996001D01*
%TO.N,B21*%
X122300000Y-71640000D02*
X122300000Y-55541550D01*
X122300000Y-157141550D02*
X121396000Y-156237550D01*
X122300000Y-112280000D02*
X122300000Y-96181550D01*
X121396000Y-52224000D02*
X122300000Y-51320000D01*
X121396000Y-113184000D02*
X122300000Y-112280000D01*
X121396000Y-135917550D02*
X121396000Y-133504000D01*
X122300000Y-152920000D02*
X122300000Y-136821550D01*
X122300000Y-55541550D02*
X121396000Y-54637550D01*
X122300000Y-75861550D02*
X121396000Y-74957550D01*
X121396000Y-74957550D02*
X121396000Y-72544000D01*
X121396000Y-115597550D02*
X121396000Y-113184000D01*
X121396000Y-153824000D02*
X122300000Y-152920000D01*
X122300000Y-116501550D02*
X121396000Y-115597550D01*
X122300000Y-35221550D02*
X121396000Y-34317550D01*
X121396000Y-92864000D02*
X122300000Y-91960000D01*
X122300000Y-132600000D02*
X122300000Y-116501550D01*
X121396000Y-54637550D02*
X121396000Y-52224000D01*
X122300000Y-136821550D02*
X121396000Y-135917550D01*
X121396000Y-72544000D02*
X122300000Y-71640000D01*
X121396000Y-34317550D02*
X121396000Y-31904000D01*
X121396000Y-156237550D02*
X121396000Y-153824000D01*
X121396000Y-31904000D02*
X122300000Y-31000000D01*
X122300000Y-173240000D02*
X122300000Y-157141550D01*
X122300000Y-51320000D02*
X122300000Y-35221550D01*
X122300000Y-91960000D02*
X122300000Y-75861550D01*
X121396000Y-133504000D02*
X122300000Y-132600000D01*
X122300000Y-96181550D02*
X121396000Y-95277550D01*
X121396000Y-95277550D02*
X121396000Y-92864000D01*
%TO.N,B55*%
X88300000Y-112280000D02*
X88300000Y-96181550D01*
X88300000Y-75861550D02*
X87396000Y-74957550D01*
X87396000Y-92864000D02*
X88300000Y-91960000D01*
X88300000Y-152920000D02*
X88300000Y-136821550D01*
X87396000Y-135917550D02*
X87396000Y-133504000D01*
X87396000Y-133504000D02*
X88300000Y-132600000D01*
X87396000Y-153824000D02*
X88300000Y-152920000D01*
X88300000Y-136821550D02*
X87396000Y-135917550D01*
X88300000Y-55541550D02*
X87396000Y-54637550D01*
X87396000Y-95277550D02*
X87396000Y-92864000D01*
X88300000Y-173240000D02*
X88300000Y-157141550D01*
X87396000Y-115597550D02*
X87396000Y-113184000D01*
X87396000Y-113184000D02*
X88300000Y-112280000D01*
X87396000Y-54637550D02*
X87396000Y-52224000D01*
X87396000Y-72544000D02*
X88300000Y-71640000D01*
X88300000Y-132600000D02*
X88300000Y-116501550D01*
X87396000Y-156237550D02*
X87396000Y-153824000D01*
X88300000Y-96181550D02*
X87396000Y-95277550D01*
X87396000Y-31904000D02*
X88300000Y-31000000D01*
X88300000Y-116501550D02*
X87396000Y-115597550D01*
X88300000Y-71640000D02*
X88300000Y-55541550D01*
X87396000Y-52224000D02*
X88300000Y-51320000D01*
X88300000Y-91960000D02*
X88300000Y-75861550D01*
X87396000Y-34317550D02*
X87396000Y-31904000D01*
X88300000Y-51320000D02*
X88300000Y-35221550D01*
X87396000Y-74957550D02*
X87396000Y-72544000D01*
X88300000Y-35221550D02*
X87396000Y-34317550D01*
X88300000Y-157141550D02*
X87396000Y-156237550D01*
%TO.N,B41*%
X101396000Y-31904000D02*
X102300000Y-31000000D01*
X102300000Y-96181550D02*
X101396000Y-95277550D01*
X101396000Y-156237550D02*
X101396000Y-153824000D01*
X101396000Y-54637550D02*
X101396000Y-52224000D01*
X101396000Y-95277550D02*
X101396000Y-92864000D01*
X102300000Y-91960000D02*
X102300000Y-75861550D01*
X102300000Y-116501550D02*
X101396000Y-115597550D01*
X101396000Y-52224000D02*
X102300000Y-51320000D01*
X101396000Y-34317550D02*
X101396000Y-31904000D01*
X102300000Y-173240000D02*
X102300000Y-157141550D01*
X101396000Y-113184000D02*
X102300000Y-112280000D01*
X101396000Y-133504000D02*
X102300000Y-132600000D01*
X102300000Y-51320000D02*
X102300000Y-35221550D01*
X102300000Y-112280000D02*
X102300000Y-96181550D01*
X102300000Y-157141550D02*
X101396000Y-156237550D01*
X102300000Y-55541550D02*
X101396000Y-54637550D01*
X101396000Y-74957550D02*
X101396000Y-72544000D01*
X102300000Y-152920000D02*
X102300000Y-136821550D01*
X102300000Y-136821550D02*
X101396000Y-135917550D01*
X102300000Y-132600000D02*
X102300000Y-116501550D01*
X101396000Y-92864000D02*
X102300000Y-91960000D01*
X101396000Y-115597550D02*
X101396000Y-113184000D01*
X101396000Y-135917550D02*
X101396000Y-133504000D01*
X102300000Y-35221550D02*
X101396000Y-34317550D01*
X101396000Y-153824000D02*
X102300000Y-152920000D01*
X102300000Y-71640000D02*
X102300000Y-55541550D01*
X101396000Y-72544000D02*
X102300000Y-71640000D01*
X102300000Y-75861550D02*
X101396000Y-74957550D01*
%TO.N,B59*%
X83396000Y-52224000D02*
X84300000Y-51320000D01*
X84300000Y-71640000D02*
X84300000Y-55541550D01*
X84300000Y-152920000D02*
X84300000Y-136821550D01*
X84300000Y-116501550D02*
X83396000Y-115597550D01*
X84300000Y-132600000D02*
X84300000Y-116501550D01*
X84300000Y-136821550D02*
X83396000Y-135917550D01*
X83396000Y-74957550D02*
X83396000Y-72544000D01*
X84300000Y-75861550D02*
X83396000Y-74957550D01*
X84300000Y-96181550D02*
X83396000Y-95277550D01*
X84300000Y-51320000D02*
X84300000Y-35221550D01*
X83396000Y-34317550D02*
X83396000Y-31904000D01*
X84300000Y-112280000D02*
X84300000Y-96181550D01*
X84300000Y-35221550D02*
X83396000Y-34317550D01*
X83396000Y-72544000D02*
X84300000Y-71640000D01*
X84300000Y-157141550D02*
X83396000Y-156237550D01*
X83396000Y-113184000D02*
X84300000Y-112280000D01*
X83396000Y-156237550D02*
X83396000Y-153824000D01*
X84300000Y-173240000D02*
X84300000Y-157141550D01*
X84300000Y-91960000D02*
X84300000Y-75861550D01*
X83396000Y-92864000D02*
X84300000Y-91960000D01*
X83396000Y-135917550D02*
X83396000Y-133504000D01*
X84300000Y-55541550D02*
X83396000Y-54637550D01*
X83396000Y-133504000D02*
X84300000Y-132600000D01*
X83396000Y-31904000D02*
X84300000Y-31000000D01*
X83396000Y-95277550D02*
X83396000Y-92864000D01*
X83396000Y-54637550D02*
X83396000Y-52224000D01*
X83396000Y-115597550D02*
X83396000Y-113184000D01*
X83396000Y-153824000D02*
X84300000Y-152920000D01*
%TO.N,B47*%
X96300000Y-71640000D02*
X96300000Y-55541550D01*
X95396000Y-72544000D02*
X96300000Y-71640000D01*
X96300000Y-51320000D02*
X96300000Y-35221550D01*
X95396000Y-92864000D02*
X96300000Y-91960000D01*
X95396000Y-153824000D02*
X96300000Y-152920000D01*
X95396000Y-31904000D02*
X96300000Y-31000000D01*
X96300000Y-136821550D02*
X95396000Y-135917550D01*
X95396000Y-133504000D02*
X96300000Y-132600000D01*
X96300000Y-132600000D02*
X96300000Y-116501550D01*
X96300000Y-112280000D02*
X96300000Y-96181550D01*
X95396000Y-52224000D02*
X96300000Y-51320000D01*
X96300000Y-75861550D02*
X95396000Y-74957550D01*
X96300000Y-152920000D02*
X96300000Y-136821550D01*
X95396000Y-74957550D02*
X95396000Y-72544000D01*
X96300000Y-157141550D02*
X95396000Y-156237550D01*
X95396000Y-135917550D02*
X95396000Y-133504000D01*
X95396000Y-156237550D02*
X95396000Y-153824000D01*
X95396000Y-115597550D02*
X95396000Y-113184000D01*
X95396000Y-113184000D02*
X96300000Y-112280000D01*
X96300000Y-116501550D02*
X95396000Y-115597550D01*
X96300000Y-91960000D02*
X96300000Y-75861550D01*
X95396000Y-54637550D02*
X95396000Y-52224000D01*
X96300000Y-55541550D02*
X95396000Y-54637550D01*
X96300000Y-35221550D02*
X95396000Y-34317550D01*
X95396000Y-34317550D02*
X95396000Y-31904000D01*
X96300000Y-173240000D02*
X96300000Y-157141550D01*
X96300000Y-96181550D02*
X95396000Y-95277550D01*
X95396000Y-95277550D02*
X95396000Y-92864000D01*
%TO.N,B73*%
X69396000Y-133504000D02*
X70300000Y-132600000D01*
X69396000Y-115597550D02*
X69396000Y-113184000D01*
X69396000Y-72544000D02*
X70300000Y-71640000D01*
X70300000Y-55541550D02*
X69396000Y-54637550D01*
X69396000Y-92864000D02*
X70300000Y-91960000D01*
X69396000Y-135917550D02*
X69396000Y-133504000D01*
X69396000Y-113184000D02*
X70300000Y-112280000D01*
X69396000Y-34317550D02*
X69396000Y-31904000D01*
X70300000Y-136821550D02*
X69396000Y-135917550D01*
X70300000Y-35221550D02*
X69396000Y-34317550D01*
X70300000Y-75861550D02*
X69396000Y-74957550D01*
X70300000Y-173240000D02*
X70300000Y-157141550D01*
X70300000Y-51320000D02*
X70300000Y-35221550D01*
X70300000Y-157141550D02*
X69396000Y-156237550D01*
X69396000Y-156237550D02*
X69396000Y-153824000D01*
X69396000Y-52224000D02*
X70300000Y-51320000D01*
X69396000Y-153824000D02*
X70300000Y-152920000D01*
X70300000Y-112280000D02*
X70300000Y-96181550D01*
X69396000Y-54637550D02*
X69396000Y-52224000D01*
X70300000Y-132600000D02*
X70300000Y-116501550D01*
X69396000Y-74957550D02*
X69396000Y-72544000D01*
X70300000Y-71640000D02*
X70300000Y-55541550D01*
X70300000Y-96181550D02*
X69396000Y-95277550D01*
X69396000Y-31904000D02*
X70300000Y-31000000D01*
X70300000Y-116501550D02*
X69396000Y-115597550D01*
X70300000Y-91960000D02*
X70300000Y-75861550D01*
X69396000Y-95277550D02*
X69396000Y-92864000D01*
X70300000Y-152920000D02*
X70300000Y-136821550D01*
%TO.N,B75*%
X67396000Y-31904000D02*
X68300000Y-31000000D01*
X68300000Y-112280000D02*
X68300000Y-96181550D01*
X67396000Y-115597550D02*
X67396000Y-113184000D01*
X67396000Y-54637550D02*
X67396000Y-52224000D01*
X67396000Y-133504000D02*
X68300000Y-132600000D01*
X68300000Y-71640000D02*
X68300000Y-55541550D01*
X67396000Y-113184000D02*
X68300000Y-112280000D01*
X68300000Y-55541550D02*
X67396000Y-54637550D01*
X68300000Y-132600000D02*
X68300000Y-116501550D01*
X68300000Y-116501550D02*
X67396000Y-115597550D01*
X67396000Y-135917550D02*
X67396000Y-133504000D01*
X67396000Y-156237550D02*
X67396000Y-153824000D01*
X68300000Y-173240000D02*
X68300000Y-157141550D01*
X68300000Y-136821550D02*
X67396000Y-135917550D01*
X68300000Y-96181550D02*
X67396000Y-95277550D01*
X67396000Y-34317550D02*
X67396000Y-31904000D01*
X67396000Y-52224000D02*
X68300000Y-51320000D01*
X67396000Y-95277550D02*
X67396000Y-92864000D01*
X67396000Y-72544000D02*
X68300000Y-71640000D01*
X68300000Y-35221550D02*
X67396000Y-34317550D01*
X67396000Y-153824000D02*
X68300000Y-152920000D01*
X68300000Y-51320000D02*
X68300000Y-35221550D01*
X68300000Y-75861550D02*
X67396000Y-74957550D01*
X67396000Y-74957550D02*
X67396000Y-72544000D01*
X67396000Y-92864000D02*
X68300000Y-91960000D01*
X68300000Y-152920000D02*
X68300000Y-136821550D01*
X68300000Y-91960000D02*
X68300000Y-75861550D01*
X68300000Y-157141550D02*
X67396000Y-156237550D01*
%TO.N,B71*%
X72300000Y-132600000D02*
X72300000Y-116501550D01*
X72300000Y-152920000D02*
X72300000Y-136821550D01*
X71396000Y-54637550D02*
X71396000Y-52224000D01*
X71396000Y-52224000D02*
X72300000Y-51320000D01*
X71396000Y-153824000D02*
X72300000Y-152920000D01*
X72300000Y-157141550D02*
X71396000Y-156237550D01*
X71396000Y-133504000D02*
X72300000Y-132600000D01*
X71396000Y-34317550D02*
X71396000Y-31904000D01*
X72300000Y-112280000D02*
X72300000Y-96181550D01*
X71396000Y-135917550D02*
X71396000Y-133504000D01*
X72300000Y-55541550D02*
X71396000Y-54637550D01*
X71396000Y-92864000D02*
X72300000Y-91960000D01*
X72300000Y-136821550D02*
X71396000Y-135917550D01*
X71396000Y-156237550D02*
X71396000Y-153824000D01*
X72300000Y-96181550D02*
X71396000Y-95277550D01*
X71396000Y-95277550D02*
X71396000Y-92864000D01*
X72300000Y-51320000D02*
X72300000Y-35221550D01*
X72300000Y-173240000D02*
X72300000Y-157141550D01*
X71396000Y-74957550D02*
X71396000Y-72544000D01*
X72300000Y-116501550D02*
X71396000Y-115597550D01*
X72300000Y-35221550D02*
X71396000Y-34317550D01*
X71396000Y-115597550D02*
X71396000Y-113184000D01*
X72300000Y-75861550D02*
X71396000Y-74957550D01*
X71396000Y-72544000D02*
X72300000Y-71640000D01*
X71396000Y-31904000D02*
X72300000Y-31000000D01*
X71396000Y-113184000D02*
X72300000Y-112280000D01*
X72300000Y-71640000D02*
X72300000Y-55541550D01*
X72300000Y-91960000D02*
X72300000Y-75861550D01*
%TO.N,B57*%
X86300000Y-157141550D02*
X85396000Y-156237550D01*
X86300000Y-35221550D02*
X85396000Y-34317550D01*
X85396000Y-95277550D02*
X85396000Y-92864000D01*
X85396000Y-113184000D02*
X86300000Y-112280000D01*
X86300000Y-55541550D02*
X85396000Y-54637550D01*
X85396000Y-92864000D02*
X86300000Y-91960000D01*
X86300000Y-116501550D02*
X85396000Y-115597550D01*
X85396000Y-54637550D02*
X85396000Y-52224000D01*
X86300000Y-96181550D02*
X85396000Y-95277550D01*
X85396000Y-31904000D02*
X86300000Y-31000000D01*
X85396000Y-52224000D02*
X86300000Y-51320000D01*
X85396000Y-133504000D02*
X86300000Y-132600000D01*
X86300000Y-71640000D02*
X86300000Y-55541550D01*
X86300000Y-75861550D02*
X85396000Y-74957550D01*
X85396000Y-74957550D02*
X85396000Y-72544000D01*
X85396000Y-72544000D02*
X86300000Y-71640000D01*
X86300000Y-152920000D02*
X86300000Y-136821550D01*
X85396000Y-135917550D02*
X85396000Y-133504000D01*
X86300000Y-136821550D02*
X85396000Y-135917550D01*
X86300000Y-91960000D02*
X86300000Y-75861550D01*
X85396000Y-34317550D02*
X85396000Y-31904000D01*
X86300000Y-173240000D02*
X86300000Y-157141550D01*
X86300000Y-51320000D02*
X86300000Y-35221550D01*
X86300000Y-132600000D02*
X86300000Y-116501550D01*
X85396000Y-156237550D02*
X85396000Y-153824000D01*
X86300000Y-112280000D02*
X86300000Y-96181550D01*
X85396000Y-115597550D02*
X85396000Y-113184000D01*
X85396000Y-153824000D02*
X86300000Y-152920000D01*
%TO.N,B77*%
X66300000Y-116501550D02*
X65396000Y-115597550D01*
X66300000Y-136821550D02*
X65396000Y-135917550D01*
X66300000Y-152920000D02*
X66300000Y-136821550D01*
X66300000Y-173240000D02*
X66300000Y-157141550D01*
X65396000Y-153824000D02*
X66300000Y-152920000D01*
X66300000Y-55541550D02*
X65396000Y-54637550D01*
X66300000Y-75861550D02*
X65396000Y-74957550D01*
X65396000Y-54637550D02*
X65396000Y-52224000D01*
X65396000Y-135917550D02*
X65396000Y-133504000D01*
X66300000Y-91960000D02*
X66300000Y-75861550D01*
X65396000Y-95277550D02*
X65396000Y-92864000D01*
X65396000Y-31904000D02*
X66300000Y-31000000D01*
X66300000Y-51320000D02*
X66300000Y-35221550D01*
X65396000Y-72544000D02*
X66300000Y-71640000D01*
X65396000Y-92864000D02*
X66300000Y-91960000D01*
X65396000Y-133504000D02*
X66300000Y-132600000D01*
X65396000Y-34317550D02*
X65396000Y-31904000D01*
X66300000Y-71640000D02*
X66300000Y-55541550D01*
X65396000Y-52224000D02*
X66300000Y-51320000D01*
X66300000Y-35221550D02*
X65396000Y-34317550D01*
X65396000Y-74957550D02*
X65396000Y-72544000D01*
X65396000Y-115597550D02*
X65396000Y-113184000D01*
X66300000Y-132600000D02*
X66300000Y-116501550D01*
X66300000Y-157141550D02*
X65396000Y-156237550D01*
X65396000Y-156237550D02*
X65396000Y-153824000D01*
X66300000Y-112280000D02*
X66300000Y-96181550D01*
X65396000Y-113184000D02*
X66300000Y-112280000D01*
X66300000Y-96181550D02*
X65396000Y-95277550D01*
%TO.N,B15*%
X128300000Y-152920000D02*
X128300000Y-136821550D01*
X128300000Y-132600000D02*
X128300000Y-116501550D01*
X127396000Y-153824000D02*
X128300000Y-152920000D01*
X128300000Y-96181550D02*
X127396000Y-95277550D01*
X127396000Y-31904000D02*
X128300000Y-31000000D01*
X128300000Y-136821550D02*
X127396000Y-135917550D01*
X127396000Y-156237550D02*
X127396000Y-153824000D01*
X128300000Y-55541550D02*
X127396000Y-54637550D01*
X127396000Y-74957550D02*
X127396000Y-72544000D01*
X128300000Y-71640000D02*
X128300000Y-55541550D01*
X127396000Y-92864000D02*
X128300000Y-91960000D01*
X127396000Y-115597550D02*
X127396000Y-113184000D01*
X128300000Y-75861550D02*
X127396000Y-74957550D01*
X127396000Y-72544000D02*
X128300000Y-71640000D01*
X128300000Y-112280000D02*
X128300000Y-96181550D01*
X128300000Y-51320000D02*
X128300000Y-35221550D01*
X128300000Y-157141550D02*
X127396000Y-156237550D01*
X128300000Y-116501550D02*
X127396000Y-115597550D01*
X127396000Y-34317550D02*
X127396000Y-31904000D01*
X127396000Y-95277550D02*
X127396000Y-92864000D01*
X127396000Y-54637550D02*
X127396000Y-52224000D01*
X128300000Y-35221550D02*
X127396000Y-34317550D01*
X128300000Y-91960000D02*
X128300000Y-75861550D01*
X127396000Y-113184000D02*
X128300000Y-112280000D01*
X127396000Y-52224000D02*
X128300000Y-51320000D01*
X127396000Y-133504000D02*
X128300000Y-132600000D01*
X128300000Y-173240000D02*
X128300000Y-157141550D01*
X127396000Y-135917550D02*
X127396000Y-133504000D01*
%TO.N,B13*%
X129396000Y-115597550D02*
X129396000Y-113184000D01*
X130300000Y-55541550D02*
X129396000Y-54637550D01*
X130300000Y-132600000D02*
X130300000Y-116501550D01*
X130300000Y-96181550D02*
X129396000Y-95277550D01*
X129396000Y-52224000D02*
X130300000Y-51320000D01*
X130300000Y-136821550D02*
X129396000Y-135917550D01*
X129396000Y-54637550D02*
X129396000Y-52224000D01*
X129396000Y-95277550D02*
X129396000Y-92864000D01*
X130300000Y-51320000D02*
X130300000Y-35221550D01*
X130300000Y-173240000D02*
X130300000Y-157141550D01*
X130300000Y-35221550D02*
X129396000Y-34317550D01*
X130300000Y-157141550D02*
X129396000Y-156237550D01*
X130300000Y-152920000D02*
X130300000Y-136821550D01*
X129396000Y-153824000D02*
X130300000Y-152920000D01*
X129396000Y-92864000D02*
X130300000Y-91960000D01*
X129396000Y-72544000D02*
X130300000Y-71640000D01*
X129396000Y-74957550D02*
X129396000Y-72544000D01*
X129396000Y-133504000D02*
X130300000Y-132600000D01*
X129396000Y-135917550D02*
X129396000Y-133504000D01*
X129396000Y-34317550D02*
X129396000Y-31904000D01*
X130300000Y-116501550D02*
X129396000Y-115597550D01*
X129396000Y-113184000D02*
X130300000Y-112280000D01*
X130300000Y-71640000D02*
X130300000Y-55541550D01*
X130300000Y-91960000D02*
X130300000Y-75861550D01*
X129396000Y-156237550D02*
X129396000Y-153824000D01*
X130300000Y-75861550D02*
X129396000Y-74957550D01*
X129396000Y-31904000D02*
X130300000Y-31000000D01*
X130300000Y-112280000D02*
X130300000Y-96181550D01*
%TO.N,B39*%
X103396000Y-31904000D02*
X104300000Y-31000000D01*
X104300000Y-132600000D02*
X104300000Y-116501550D01*
X104300000Y-152920000D02*
X104300000Y-136821550D01*
X103396000Y-95277550D02*
X103396000Y-92864000D01*
X104300000Y-75861550D02*
X103396000Y-74957550D01*
X104300000Y-136821550D02*
X103396000Y-135917550D01*
X103396000Y-113184000D02*
X104300000Y-112280000D01*
X103396000Y-156237550D02*
X103396000Y-153824000D01*
X103396000Y-92864000D02*
X104300000Y-91960000D01*
X103396000Y-72544000D02*
X104300000Y-71640000D01*
X103396000Y-115597550D02*
X103396000Y-113184000D01*
X104300000Y-112280000D02*
X104300000Y-96181550D01*
X103396000Y-74957550D02*
X103396000Y-72544000D01*
X104300000Y-51320000D02*
X104300000Y-35221550D01*
X104300000Y-116501550D02*
X103396000Y-115597550D01*
X103396000Y-54637550D02*
X103396000Y-52224000D01*
X103396000Y-133504000D02*
X104300000Y-132600000D01*
X104300000Y-96181550D02*
X103396000Y-95277550D01*
X104300000Y-55541550D02*
X103396000Y-54637550D01*
X104300000Y-71640000D02*
X104300000Y-55541550D01*
X103396000Y-52224000D02*
X104300000Y-51320000D01*
X104300000Y-35221550D02*
X103396000Y-34317550D01*
X104300000Y-91960000D02*
X104300000Y-75861550D01*
X103396000Y-153824000D02*
X104300000Y-152920000D01*
X103396000Y-135917550D02*
X103396000Y-133504000D01*
X103396000Y-34317550D02*
X103396000Y-31904000D01*
X104300000Y-157141550D02*
X103396000Y-156237550D01*
X104300000Y-173240000D02*
X104300000Y-157141550D01*
%TO.N,B27*%
X115396000Y-74957550D02*
X115396000Y-72544000D01*
X115396000Y-72544000D02*
X116300000Y-71640000D01*
X115396000Y-52224000D02*
X116300000Y-51320000D01*
X116300000Y-136821550D02*
X115396000Y-135917550D01*
X116300000Y-112280000D02*
X116300000Y-96181550D01*
X115396000Y-135917550D02*
X115396000Y-133504000D01*
X116300000Y-55541550D02*
X115396000Y-54637550D01*
X116300000Y-173240000D02*
X116300000Y-157141550D01*
X115396000Y-95277550D02*
X115396000Y-92864000D01*
X115396000Y-34317550D02*
X115396000Y-31904000D01*
X116300000Y-96181550D02*
X115396000Y-95277550D01*
X115396000Y-54637550D02*
X115396000Y-52224000D01*
X116300000Y-116501550D02*
X115396000Y-115597550D01*
X116300000Y-51320000D02*
X116300000Y-35221550D01*
X115396000Y-115597550D02*
X115396000Y-113184000D01*
X115396000Y-153824000D02*
X116300000Y-152920000D01*
X116300000Y-132600000D02*
X116300000Y-116501550D01*
X115396000Y-133504000D02*
X116300000Y-132600000D01*
X115396000Y-113184000D02*
X116300000Y-112280000D01*
X115396000Y-92864000D02*
X116300000Y-91960000D01*
X116300000Y-75861550D02*
X115396000Y-74957550D01*
X115396000Y-31904000D02*
X116300000Y-31000000D01*
X116300000Y-157141550D02*
X115396000Y-156237550D01*
X115396000Y-156237550D02*
X115396000Y-153824000D01*
X116300000Y-152920000D02*
X116300000Y-136821550D01*
X116300000Y-71640000D02*
X116300000Y-55541550D01*
X116300000Y-91960000D02*
X116300000Y-75861550D01*
X116300000Y-35221550D02*
X115396000Y-34317550D01*
%TO.N,B35*%
X107396000Y-153824000D02*
X108300000Y-152920000D01*
X108300000Y-136821550D02*
X107396000Y-135917550D01*
X107396000Y-115597550D02*
X107396000Y-113184000D01*
X107396000Y-34317550D02*
X107396000Y-31904000D01*
X108300000Y-112280000D02*
X108300000Y-96181550D01*
X107396000Y-156237550D02*
X107396000Y-153824000D01*
X107396000Y-133504000D02*
X108300000Y-132600000D01*
X108300000Y-51320000D02*
X108300000Y-35221550D01*
X107396000Y-113184000D02*
X108300000Y-112280000D01*
X108300000Y-71640000D02*
X108300000Y-55541550D01*
X108300000Y-91960000D02*
X108300000Y-75861550D01*
X108300000Y-173240000D02*
X108300000Y-157141550D01*
X108300000Y-96181550D02*
X107396000Y-95277550D01*
X108300000Y-35221550D02*
X107396000Y-34317550D01*
X108300000Y-75861550D02*
X107396000Y-74957550D01*
X108300000Y-157141550D02*
X107396000Y-156237550D01*
X107396000Y-54637550D02*
X107396000Y-52224000D01*
X108300000Y-55541550D02*
X107396000Y-54637550D01*
X108300000Y-116501550D02*
X107396000Y-115597550D01*
X107396000Y-95277550D02*
X107396000Y-92864000D01*
X108300000Y-132600000D02*
X108300000Y-116501550D01*
X107396000Y-31904000D02*
X108300000Y-31000000D01*
X108300000Y-152920000D02*
X108300000Y-136821550D01*
X107396000Y-52224000D02*
X108300000Y-51320000D01*
X107396000Y-135917550D02*
X107396000Y-133504000D01*
X107396000Y-92864000D02*
X108300000Y-91960000D01*
X107396000Y-72544000D02*
X108300000Y-71640000D01*
X107396000Y-74957550D02*
X107396000Y-72544000D01*
%TD*%
M02*
