M48
; DRILL file {KiCad 8.0.0} date 2024-11-27T22:09:35-0600
; FORMAT={-:-/ absolute / inch / decimal}
; #@! TF.CreationDate,2024-11-27T22:09:35-06:00
; #@! TF.GenerationSoftware,Kicad,Pcbnew,8.0.0
; #@! TF.FileFunction,Plated,1,4,PTH
FMAT,2
INCH
; #@! TA.AperFunction,Plated,PTH,ComponentDrill
T1C0.0276
%
G90
G05
T1
X2.4134Y-1.1417
X2.4134Y-1.1417
X2.4134Y-1.3976
X2.4134Y-1.3976
X2.4134Y-1.9417
X2.4134Y-1.9417
X2.4134Y-2.1976
X2.4134Y-2.1976
X2.4134Y-2.7417
X2.4134Y-2.7417
X2.4134Y-2.9976
X2.4134Y-2.9976
X2.4134Y-3.5417
X2.4134Y-3.5417
X2.4134Y-3.7976
X2.4134Y-3.7976
X2.4134Y-4.3417
X2.4134Y-4.3417
X2.4134Y-4.5976
X2.4134Y-4.5976
X2.4134Y-5.1417
X2.4134Y-5.1417
X2.4134Y-5.3976
X2.4134Y-5.3976
X2.4134Y-5.9417
X2.4134Y-6.1976
X2.4134Y-6.7417
X2.4134Y-6.9976
X2.4528Y-1.2205
X2.4528Y-1.2205
X2.4528Y-1.3189
X2.4528Y-1.3189
X2.4528Y-2.0205
X2.4528Y-2.0205
X2.4528Y-2.1189
X2.4528Y-2.1189
X2.4528Y-2.8205
X2.4528Y-2.8205
X2.4528Y-2.9189
X2.4528Y-2.9189
X2.4528Y-3.6205
X2.4528Y-3.6205
X2.4528Y-3.7189
X2.4528Y-3.7189
X2.4528Y-4.4205
X2.4528Y-4.4205
X2.4528Y-4.5189
X2.4528Y-4.5189
X2.4528Y-5.2205
X2.4528Y-5.2205
X2.4528Y-5.3189
X2.4528Y-5.3189
X2.4528Y-6.0205
X2.4528Y-6.1189
X2.4528Y-6.8205
X2.4528Y-6.9189
X2.4921Y-1.1417
X2.4921Y-1.1417
X2.4921Y-1.3976
X2.4921Y-1.3976
X2.4921Y-1.9417
X2.4921Y-1.9417
X2.4921Y-2.1976
X2.4921Y-2.1976
X2.4921Y-2.7417
X2.4921Y-2.7417
X2.4921Y-2.9976
X2.4921Y-2.9976
X2.4921Y-3.5417
X2.4921Y-3.5417
X2.4921Y-3.7976
X2.4921Y-3.7976
X2.4921Y-4.3417
X2.4921Y-4.3417
X2.4921Y-4.5976
X2.4921Y-4.5976
X2.4921Y-5.1417
X2.4921Y-5.1417
X2.4921Y-5.3976
X2.4921Y-5.3976
X2.4921Y-5.9417
X2.4921Y-6.1976
X2.4921Y-6.7417
X2.4921Y-6.9976
X2.5315Y-1.2205
X2.5315Y-1.2205
X2.5315Y-1.3189
X2.5315Y-1.3189
X2.5315Y-2.0205
X2.5315Y-2.0205
X2.5315Y-2.1189
X2.5315Y-2.1189
X2.5315Y-2.8205
X2.5315Y-2.8205
X2.5315Y-2.9189
X2.5315Y-2.9189
X2.5315Y-3.6205
X2.5315Y-3.6205
X2.5315Y-3.7189
X2.5315Y-3.7189
X2.5315Y-4.4205
X2.5315Y-4.4205
X2.5315Y-4.5189
X2.5315Y-4.5189
X2.5315Y-5.2205
X2.5315Y-5.2205
X2.5315Y-5.3189
X2.5315Y-5.3189
X2.5315Y-6.0205
X2.5315Y-6.1189
X2.5315Y-6.8205
X2.5315Y-6.9189
X2.5709Y-1.1417
X2.5709Y-1.1417
X2.5709Y-1.3976
X2.5709Y-1.3976
X2.5709Y-1.9417
X2.5709Y-1.9417
X2.5709Y-2.1976
X2.5709Y-2.1976
X2.5709Y-2.7417
X2.5709Y-2.7417
X2.5709Y-2.9976
X2.5709Y-2.9976
X2.5709Y-3.5417
X2.5709Y-3.5417
X2.5709Y-3.7976
X2.5709Y-3.7976
X2.5709Y-4.3417
X2.5709Y-4.3417
X2.5709Y-4.5976
X2.5709Y-4.5976
X2.5709Y-5.1417
X2.5709Y-5.1417
X2.5709Y-5.3976
X2.5709Y-5.3976
X2.5709Y-5.9417
X2.5709Y-6.1976
X2.5709Y-6.7417
X2.5709Y-6.9976
X2.6102Y-1.2205
X2.6102Y-1.2205
X2.6102Y-1.3189
X2.6102Y-1.3189
X2.6102Y-2.0205
X2.6102Y-2.0205
X2.6102Y-2.1189
X2.6102Y-2.1189
X2.6102Y-2.8205
X2.6102Y-2.8205
X2.6102Y-2.9189
X2.6102Y-2.9189
X2.6102Y-3.6205
X2.6102Y-3.6205
X2.6102Y-3.7189
X2.6102Y-3.7189
X2.6102Y-4.4205
X2.6102Y-4.4205
X2.6102Y-4.5189
X2.6102Y-4.5189
X2.6102Y-5.2205
X2.6102Y-5.2205
X2.6102Y-5.3189
X2.6102Y-5.3189
X2.6102Y-6.0205
X2.6102Y-6.1189
X2.6102Y-6.8205
X2.6102Y-6.9189
X2.6496Y-1.1417
X2.6496Y-1.1417
X2.6496Y-1.3976
X2.6496Y-1.3976
X2.6496Y-1.9417
X2.6496Y-1.9417
X2.6496Y-2.1976
X2.6496Y-2.1976
X2.6496Y-2.7417
X2.6496Y-2.7417
X2.6496Y-2.9976
X2.6496Y-2.9976
X2.6496Y-3.5417
X2.6496Y-3.5417
X2.6496Y-3.7976
X2.6496Y-3.7976
X2.6496Y-4.3417
X2.6496Y-4.3417
X2.6496Y-4.5976
X2.6496Y-4.5976
X2.6496Y-5.1417
X2.6496Y-5.1417
X2.6496Y-5.3976
X2.6496Y-5.3976
X2.6496Y-5.9417
X2.6496Y-6.1976
X2.6496Y-6.7417
X2.6496Y-6.9976
X2.689Y-1.2205
X2.689Y-1.2205
X2.689Y-1.3189
X2.689Y-1.3189
X2.689Y-2.0205
X2.689Y-2.0205
X2.689Y-2.1189
X2.689Y-2.1189
X2.689Y-2.8205
X2.689Y-2.8205
X2.689Y-2.9189
X2.689Y-2.9189
X2.689Y-3.6205
X2.689Y-3.6205
X2.689Y-3.7189
X2.689Y-3.7189
X2.689Y-4.4205
X2.689Y-4.4205
X2.689Y-4.5189
X2.689Y-4.5189
X2.689Y-5.2205
X2.689Y-5.2205
X2.689Y-5.3189
X2.689Y-5.3189
X2.689Y-6.0205
X2.689Y-6.1189
X2.689Y-6.8205
X2.689Y-6.9189
X2.7283Y-1.1417
X2.7283Y-1.1417
X2.7283Y-1.3976
X2.7283Y-1.3976
X2.7283Y-1.9417
X2.7283Y-1.9417
X2.7283Y-2.1976
X2.7283Y-2.1976
X2.7283Y-2.7417
X2.7283Y-2.7417
X2.7283Y-2.9976
X2.7283Y-2.9976
X2.7283Y-3.5417
X2.7283Y-3.5417
X2.7283Y-3.7976
X2.7283Y-3.7976
X2.7283Y-4.3417
X2.7283Y-4.3417
X2.7283Y-4.5976
X2.7283Y-4.5976
X2.7283Y-5.1417
X2.7283Y-5.1417
X2.7283Y-5.3976
X2.7283Y-5.3976
X2.7283Y-5.9417
X2.7283Y-6.1976
X2.7283Y-6.7417
X2.7283Y-6.9976
X2.7677Y-1.2205
X2.7677Y-1.2205
X2.7677Y-1.3189
X2.7677Y-1.3189
X2.7677Y-2.0205
X2.7677Y-2.0205
X2.7677Y-2.1189
X2.7677Y-2.1189
X2.7677Y-2.8205
X2.7677Y-2.8205
X2.7677Y-2.9189
X2.7677Y-2.9189
X2.7677Y-3.6205
X2.7677Y-3.6205
X2.7677Y-3.7189
X2.7677Y-3.7189
X2.7677Y-4.4205
X2.7677Y-4.4205
X2.7677Y-4.5189
X2.7677Y-4.5189
X2.7677Y-5.2205
X2.7677Y-5.2205
X2.7677Y-5.3189
X2.7677Y-5.3189
X2.7677Y-6.0205
X2.7677Y-6.1189
X2.7677Y-6.8205
X2.7677Y-6.9189
X2.8071Y-1.1417
X2.8071Y-1.1417
X2.8071Y-1.3976
X2.8071Y-1.3976
X2.8071Y-1.9417
X2.8071Y-1.9417
X2.8071Y-2.1976
X2.8071Y-2.1976
X2.8071Y-2.7417
X2.8071Y-2.7417
X2.8071Y-2.9976
X2.8071Y-2.9976
X2.8071Y-3.5417
X2.8071Y-3.5417
X2.8071Y-3.7976
X2.8071Y-3.7976
X2.8071Y-4.3417
X2.8071Y-4.3417
X2.8071Y-4.5976
X2.8071Y-4.5976
X2.8071Y-5.1417
X2.8071Y-5.1417
X2.8071Y-5.3976
X2.8071Y-5.3976
X2.8071Y-5.9417
X2.8071Y-6.1976
X2.8071Y-6.7417
X2.8071Y-6.9976
X2.8465Y-1.2205
X2.8465Y-1.2205
X2.8465Y-1.3189
X2.8465Y-1.3189
X2.8465Y-2.0205
X2.8465Y-2.0205
X2.8465Y-2.1189
X2.8465Y-2.1189
X2.8465Y-2.8205
X2.8465Y-2.8205
X2.8465Y-2.9189
X2.8465Y-2.9189
X2.8465Y-3.6205
X2.8465Y-3.6205
X2.8465Y-3.7189
X2.8465Y-3.7189
X2.8465Y-4.4205
X2.8465Y-4.4205
X2.8465Y-4.5189
X2.8465Y-4.5189
X2.8465Y-5.2205
X2.8465Y-5.2205
X2.8465Y-5.3189
X2.8465Y-5.3189
X2.8465Y-6.0205
X2.8465Y-6.1189
X2.8465Y-6.8205
X2.8465Y-6.9189
X2.8858Y-1.1417
X2.8858Y-1.1417
X2.8858Y-1.3976
X2.8858Y-1.3976
X2.8858Y-1.9417
X2.8858Y-1.9417
X2.8858Y-2.1976
X2.8858Y-2.1976
X2.8858Y-2.7417
X2.8858Y-2.7417
X2.8858Y-2.9976
X2.8858Y-2.9976
X2.8858Y-3.5417
X2.8858Y-3.5417
X2.8858Y-3.7976
X2.8858Y-3.7976
X2.8858Y-4.3417
X2.8858Y-4.3417
X2.8858Y-4.5976
X2.8858Y-4.5976
X2.8858Y-5.1417
X2.8858Y-5.1417
X2.8858Y-5.3976
X2.8858Y-5.3976
X2.8858Y-5.9417
X2.8858Y-6.1976
X2.8858Y-6.7417
X2.8858Y-6.9976
X2.9252Y-1.2205
X2.9252Y-1.2205
X2.9252Y-1.3189
X2.9252Y-1.3189
X2.9252Y-2.0205
X2.9252Y-2.0205
X2.9252Y-2.1189
X2.9252Y-2.1189
X2.9252Y-2.8205
X2.9252Y-2.8205
X2.9252Y-2.9189
X2.9252Y-2.9189
X2.9252Y-3.6205
X2.9252Y-3.6205
X2.9252Y-3.7189
X2.9252Y-3.7189
X2.9252Y-4.4205
X2.9252Y-4.4205
X2.9252Y-4.5189
X2.9252Y-4.5189
X2.9252Y-5.2205
X2.9252Y-5.2205
X2.9252Y-5.3189
X2.9252Y-5.3189
X2.9252Y-6.0205
X2.9252Y-6.1189
X2.9252Y-6.8205
X2.9252Y-6.9189
X2.9646Y-1.1417
X2.9646Y-1.1417
X2.9646Y-1.3976
X2.9646Y-1.3976
X2.9646Y-1.9417
X2.9646Y-1.9417
X2.9646Y-2.1976
X2.9646Y-2.1976
X2.9646Y-2.7417
X2.9646Y-2.7417
X2.9646Y-2.9976
X2.9646Y-2.9976
X2.9646Y-3.5417
X2.9646Y-3.5417
X2.9646Y-3.7976
X2.9646Y-3.7976
X2.9646Y-4.3417
X2.9646Y-4.3417
X2.9646Y-4.5976
X2.9646Y-4.5976
X2.9646Y-5.1417
X2.9646Y-5.1417
X2.9646Y-5.3976
X2.9646Y-5.3976
X2.9646Y-5.9417
X2.9646Y-6.1976
X2.9646Y-6.7417
X2.9646Y-6.9976
X3.0039Y-1.2205
X3.0039Y-1.2205
X3.0039Y-1.3189
X3.0039Y-1.3189
X3.0039Y-2.0205
X3.0039Y-2.0205
X3.0039Y-2.1189
X3.0039Y-2.1189
X3.0039Y-2.8205
X3.0039Y-2.8205
X3.0039Y-2.9189
X3.0039Y-2.9189
X3.0039Y-3.6205
X3.0039Y-3.6205
X3.0039Y-3.7189
X3.0039Y-3.7189
X3.0039Y-4.4205
X3.0039Y-4.4205
X3.0039Y-4.5189
X3.0039Y-4.5189
X3.0039Y-5.2205
X3.0039Y-5.2205
X3.0039Y-5.3189
X3.0039Y-5.3189
X3.0039Y-6.0205
X3.0039Y-6.1189
X3.0039Y-6.8205
X3.0039Y-6.9189
X3.0433Y-1.1417
X3.0433Y-1.1417
X3.0433Y-1.3976
X3.0433Y-1.3976
X3.0433Y-1.9417
X3.0433Y-1.9417
X3.0433Y-2.1976
X3.0433Y-2.1976
X3.0433Y-2.7417
X3.0433Y-2.7417
X3.0433Y-2.9976
X3.0433Y-2.9976
X3.0433Y-3.5417
X3.0433Y-3.5417
X3.0433Y-3.7976
X3.0433Y-3.7976
X3.0433Y-4.3417
X3.0433Y-4.3417
X3.0433Y-4.5976
X3.0433Y-4.5976
X3.0433Y-5.1417
X3.0433Y-5.1417
X3.0433Y-5.3976
X3.0433Y-5.3976
X3.0433Y-5.9417
X3.0433Y-6.1976
X3.0433Y-6.7417
X3.0433Y-6.9976
X3.0827Y-1.2205
X3.0827Y-1.2205
X3.0827Y-1.3189
X3.0827Y-1.3189
X3.0827Y-2.0205
X3.0827Y-2.0205
X3.0827Y-2.1189
X3.0827Y-2.1189
X3.0827Y-2.8205
X3.0827Y-2.8205
X3.0827Y-2.9189
X3.0827Y-2.9189
X3.0827Y-3.6205
X3.0827Y-3.6205
X3.0827Y-3.7189
X3.0827Y-3.7189
X3.0827Y-4.4205
X3.0827Y-4.4205
X3.0827Y-4.5189
X3.0827Y-4.5189
X3.0827Y-5.2205
X3.0827Y-5.2205
X3.0827Y-5.3189
X3.0827Y-5.3189
X3.0827Y-6.0205
X3.0827Y-6.1189
X3.0827Y-6.8205
X3.0827Y-6.9189
X3.122Y-1.1417
X3.122Y-1.1417
X3.122Y-1.3976
X3.122Y-1.3976
X3.122Y-1.9417
X3.122Y-1.9417
X3.122Y-2.1976
X3.122Y-2.1976
X3.122Y-2.7417
X3.122Y-2.7417
X3.122Y-2.9976
X3.122Y-2.9976
X3.122Y-3.5417
X3.122Y-3.5417
X3.122Y-3.7976
X3.122Y-3.7976
X3.122Y-4.3417
X3.122Y-4.3417
X3.122Y-4.5976
X3.122Y-4.5976
X3.122Y-5.1417
X3.122Y-5.1417
X3.122Y-5.3976
X3.122Y-5.3976
X3.122Y-5.9417
X3.122Y-6.1976
X3.122Y-6.7417
X3.122Y-6.9976
X3.1614Y-1.2205
X3.1614Y-1.2205
X3.1614Y-1.3189
X3.1614Y-1.3189
X3.1614Y-2.0205
X3.1614Y-2.0205
X3.1614Y-2.1189
X3.1614Y-2.1189
X3.1614Y-2.8205
X3.1614Y-2.8205
X3.1614Y-2.9189
X3.1614Y-2.9189
X3.1614Y-3.6205
X3.1614Y-3.6205
X3.1614Y-3.7189
X3.1614Y-3.7189
X3.1614Y-4.4205
X3.1614Y-4.4205
X3.1614Y-4.5189
X3.1614Y-4.5189
X3.1614Y-5.2205
X3.1614Y-5.2205
X3.1614Y-5.3189
X3.1614Y-5.3189
X3.1614Y-6.0205
X3.1614Y-6.1189
X3.1614Y-6.8205
X3.1614Y-6.9189
X3.2008Y-1.1417
X3.2008Y-1.1417
X3.2008Y-1.3976
X3.2008Y-1.3976
X3.2008Y-1.9417
X3.2008Y-1.9417
X3.2008Y-2.1976
X3.2008Y-2.1976
X3.2008Y-2.7417
X3.2008Y-2.7417
X3.2008Y-2.9976
X3.2008Y-2.9976
X3.2008Y-3.5417
X3.2008Y-3.5417
X3.2008Y-3.7976
X3.2008Y-3.7976
X3.2008Y-4.3417
X3.2008Y-4.3417
X3.2008Y-4.5976
X3.2008Y-4.5976
X3.2008Y-5.1417
X3.2008Y-5.1417
X3.2008Y-5.3976
X3.2008Y-5.3976
X3.2008Y-5.9417
X3.2008Y-6.1976
X3.2008Y-6.7417
X3.2008Y-6.9976
X3.2402Y-1.2205
X3.2402Y-1.2205
X3.2402Y-1.3189
X3.2402Y-1.3189
X3.2402Y-2.0205
X3.2402Y-2.0205
X3.2402Y-2.1189
X3.2402Y-2.1189
X3.2402Y-2.8205
X3.2402Y-2.8205
X3.2402Y-2.9189
X3.2402Y-2.9189
X3.2402Y-3.6205
X3.2402Y-3.6205
X3.2402Y-3.7189
X3.2402Y-3.7189
X3.2402Y-4.4205
X3.2402Y-4.4205
X3.2402Y-4.5189
X3.2402Y-4.5189
X3.2402Y-5.2205
X3.2402Y-5.2205
X3.2402Y-5.3189
X3.2402Y-5.3189
X3.2402Y-6.0205
X3.2402Y-6.1189
X3.2402Y-6.8205
X3.2402Y-6.9189
X3.2795Y-1.1417
X3.2795Y-1.1417
X3.2795Y-1.3976
X3.2795Y-1.3976
X3.2795Y-1.9417
X3.2795Y-1.9417
X3.2795Y-2.1976
X3.2795Y-2.1976
X3.2795Y-2.7417
X3.2795Y-2.7417
X3.2795Y-2.9976
X3.2795Y-2.9976
X3.2795Y-3.5417
X3.2795Y-3.5417
X3.2795Y-3.7976
X3.2795Y-3.7976
X3.2795Y-4.3417
X3.2795Y-4.3417
X3.2795Y-4.5976
X3.2795Y-4.5976
X3.2795Y-5.1417
X3.2795Y-5.1417
X3.2795Y-5.3976
X3.2795Y-5.3976
X3.2795Y-5.9417
X3.2795Y-6.1976
X3.2795Y-6.7417
X3.2795Y-6.9976
X3.3189Y-1.2205
X3.3189Y-1.2205
X3.3189Y-1.3189
X3.3189Y-1.3189
X3.3189Y-2.0205
X3.3189Y-2.0205
X3.3189Y-2.1189
X3.3189Y-2.1189
X3.3189Y-2.8205
X3.3189Y-2.8205
X3.3189Y-2.9189
X3.3189Y-2.9189
X3.3189Y-3.6205
X3.3189Y-3.6205
X3.3189Y-3.7189
X3.3189Y-3.7189
X3.3189Y-4.4205
X3.3189Y-4.4205
X3.3189Y-4.5189
X3.3189Y-4.5189
X3.3189Y-5.2205
X3.3189Y-5.2205
X3.3189Y-5.3189
X3.3189Y-5.3189
X3.3189Y-6.0205
X3.3189Y-6.1189
X3.3189Y-6.8205
X3.3189Y-6.9189
X3.3583Y-1.1417
X3.3583Y-1.1417
X3.3583Y-1.3976
X3.3583Y-1.3976
X3.3583Y-1.9417
X3.3583Y-1.9417
X3.3583Y-2.1976
X3.3583Y-2.1976
X3.3583Y-2.7417
X3.3583Y-2.7417
X3.3583Y-2.9976
X3.3583Y-2.9976
X3.3583Y-3.5417
X3.3583Y-3.5417
X3.3583Y-3.7976
X3.3583Y-3.7976
X3.3583Y-4.3417
X3.3583Y-4.3417
X3.3583Y-4.5976
X3.3583Y-4.5976
X3.3583Y-5.1417
X3.3583Y-5.1417
X3.3583Y-5.3976
X3.3583Y-5.3976
X3.3583Y-5.9417
X3.3583Y-6.1976
X3.3583Y-6.7417
X3.3583Y-6.9976
X3.3976Y-1.2205
X3.3976Y-1.2205
X3.3976Y-1.3189
X3.3976Y-1.3189
X3.3976Y-2.0205
X3.3976Y-2.0205
X3.3976Y-2.1189
X3.3976Y-2.1189
X3.3976Y-2.8205
X3.3976Y-2.8205
X3.3976Y-2.9189
X3.3976Y-2.9189
X3.3976Y-3.6205
X3.3976Y-3.6205
X3.3976Y-3.7189
X3.3976Y-3.7189
X3.3976Y-4.4205
X3.3976Y-4.4205
X3.3976Y-4.5189
X3.3976Y-4.5189
X3.3976Y-5.2205
X3.3976Y-5.2205
X3.3976Y-5.3189
X3.3976Y-5.3189
X3.3976Y-6.0205
X3.3976Y-6.1189
X3.3976Y-6.8205
X3.3976Y-6.9189
X3.437Y-1.1417
X3.437Y-1.1417
X3.437Y-1.3976
X3.437Y-1.3976
X3.437Y-1.9417
X3.437Y-1.9417
X3.437Y-2.1976
X3.437Y-2.1976
X3.437Y-2.7417
X3.437Y-2.7417
X3.437Y-2.9976
X3.437Y-2.9976
X3.437Y-3.5417
X3.437Y-3.5417
X3.437Y-3.7976
X3.437Y-3.7976
X3.437Y-4.3417
X3.437Y-4.3417
X3.437Y-4.5976
X3.437Y-4.5976
X3.437Y-5.1417
X3.437Y-5.1417
X3.437Y-5.3976
X3.437Y-5.3976
X3.437Y-5.9417
X3.437Y-6.1976
X3.437Y-6.7417
X3.437Y-6.9976
X3.4764Y-1.2205
X3.4764Y-1.2205
X3.4764Y-1.3189
X3.4764Y-1.3189
X3.4764Y-2.0205
X3.4764Y-2.0205
X3.4764Y-2.1189
X3.4764Y-2.1189
X3.4764Y-2.8205
X3.4764Y-2.8205
X3.4764Y-2.9189
X3.4764Y-2.9189
X3.4764Y-3.6205
X3.4764Y-3.6205
X3.4764Y-3.7189
X3.4764Y-3.7189
X3.4764Y-4.4205
X3.4764Y-4.4205
X3.4764Y-4.5189
X3.4764Y-4.5189
X3.4764Y-5.2205
X3.4764Y-5.2205
X3.4764Y-5.3189
X3.4764Y-5.3189
X3.4764Y-6.0205
X3.4764Y-6.1189
X3.4764Y-6.8205
X3.4764Y-6.9189
X3.5157Y-1.1417
X3.5157Y-1.1417
X3.5157Y-1.3976
X3.5157Y-1.3976
X3.5157Y-1.9417
X3.5157Y-1.9417
X3.5157Y-2.1976
X3.5157Y-2.1976
X3.5157Y-2.7417
X3.5157Y-2.7417
X3.5157Y-2.9976
X3.5157Y-2.9976
X3.5157Y-3.5417
X3.5157Y-3.5417
X3.5157Y-3.7976
X3.5157Y-3.7976
X3.5157Y-4.3417
X3.5157Y-4.3417
X3.5157Y-4.5976
X3.5157Y-4.5976
X3.5157Y-5.1417
X3.5157Y-5.1417
X3.5157Y-5.3976
X3.5157Y-5.3976
X3.5157Y-5.9417
X3.5157Y-6.1976
X3.5157Y-6.7417
X3.5157Y-6.9976
X3.5551Y-1.2205
X3.5551Y-1.2205
X3.5551Y-1.3189
X3.5551Y-1.3189
X3.5551Y-2.0205
X3.5551Y-2.0205
X3.5551Y-2.1189
X3.5551Y-2.1189
X3.5551Y-2.8205
X3.5551Y-2.8205
X3.5551Y-2.9189
X3.5551Y-2.9189
X3.5551Y-3.6205
X3.5551Y-3.6205
X3.5551Y-3.7189
X3.5551Y-3.7189
X3.5551Y-4.4205
X3.5551Y-4.4205
X3.5551Y-4.5189
X3.5551Y-4.5189
X3.5551Y-5.2205
X3.5551Y-5.2205
X3.5551Y-5.3189
X3.5551Y-5.3189
X3.5551Y-6.0205
X3.5551Y-6.1189
X3.5551Y-6.8205
X3.5551Y-6.9189
X3.5945Y-1.1417
X3.5945Y-1.1417
X3.5945Y-1.3976
X3.5945Y-1.3976
X3.5945Y-1.9417
X3.5945Y-1.9417
X3.5945Y-2.1976
X3.5945Y-2.1976
X3.5945Y-2.7417
X3.5945Y-2.7417
X3.5945Y-2.9976
X3.5945Y-2.9976
X3.5945Y-3.5417
X3.5945Y-3.5417
X3.5945Y-3.7976
X3.5945Y-3.7976
X3.5945Y-4.3417
X3.5945Y-4.3417
X3.5945Y-4.5976
X3.5945Y-4.5976
X3.5945Y-5.1417
X3.5945Y-5.1417
X3.5945Y-5.3976
X3.5945Y-5.3976
X3.5945Y-5.9417
X3.5945Y-6.1976
X3.5945Y-6.7417
X3.5945Y-6.9976
X3.6339Y-1.2205
X3.6339Y-1.2205
X3.6339Y-1.3189
X3.6339Y-1.3189
X3.6339Y-2.0205
X3.6339Y-2.0205
X3.6339Y-2.1189
X3.6339Y-2.1189
X3.6339Y-2.8205
X3.6339Y-2.8205
X3.6339Y-2.9189
X3.6339Y-2.9189
X3.6339Y-3.6205
X3.6339Y-3.6205
X3.6339Y-3.7189
X3.6339Y-3.7189
X3.6339Y-4.4205
X3.6339Y-4.4205
X3.6339Y-4.5189
X3.6339Y-4.5189
X3.6339Y-5.2205
X3.6339Y-5.2205
X3.6339Y-5.3189
X3.6339Y-5.3189
X3.6339Y-6.0205
X3.6339Y-6.1189
X3.6339Y-6.8205
X3.6339Y-6.9189
X3.6732Y-1.1417
X3.6732Y-1.1417
X3.6732Y-1.3976
X3.6732Y-1.3976
X3.6732Y-1.9417
X3.6732Y-1.9417
X3.6732Y-2.1976
X3.6732Y-2.1976
X3.6732Y-2.7417
X3.6732Y-2.7417
X3.6732Y-2.9976
X3.6732Y-2.9976
X3.6732Y-3.5417
X3.6732Y-3.5417
X3.6732Y-3.7976
X3.6732Y-3.7976
X3.6732Y-4.3417
X3.6732Y-4.3417
X3.6732Y-4.5976
X3.6732Y-4.5976
X3.6732Y-5.1417
X3.6732Y-5.1417
X3.6732Y-5.3976
X3.6732Y-5.3976
X3.6732Y-5.9417
X3.6732Y-6.1976
X3.6732Y-6.7417
X3.6732Y-6.9976
X3.7126Y-1.2205
X3.7126Y-1.2205
X3.7126Y-1.3189
X3.7126Y-1.3189
X3.7126Y-2.0205
X3.7126Y-2.0205
X3.7126Y-2.1189
X3.7126Y-2.1189
X3.7126Y-2.8205
X3.7126Y-2.8205
X3.7126Y-2.9189
X3.7126Y-2.9189
X3.7126Y-3.6205
X3.7126Y-3.6205
X3.7126Y-3.7189
X3.7126Y-3.7189
X3.7126Y-4.4205
X3.7126Y-4.4205
X3.7126Y-4.5189
X3.7126Y-4.5189
X3.7126Y-5.2205
X3.7126Y-5.2205
X3.7126Y-5.3189
X3.7126Y-5.3189
X3.7126Y-6.0205
X3.7126Y-6.1189
X3.7126Y-6.8205
X3.7126Y-6.9189
X3.752Y-1.1417
X3.752Y-1.1417
X3.752Y-1.3976
X3.752Y-1.3976
X3.752Y-1.9417
X3.752Y-1.9417
X3.752Y-2.1976
X3.752Y-2.1976
X3.752Y-2.7417
X3.752Y-2.7417
X3.752Y-2.9976
X3.752Y-2.9976
X3.752Y-3.5417
X3.752Y-3.5417
X3.752Y-3.7976
X3.752Y-3.7976
X3.752Y-4.3417
X3.752Y-4.3417
X3.752Y-4.5976
X3.752Y-4.5976
X3.752Y-5.1417
X3.752Y-5.1417
X3.752Y-5.3976
X3.752Y-5.3976
X3.752Y-5.9417
X3.752Y-6.1976
X3.752Y-6.7417
X3.752Y-6.9976
X3.7913Y-1.2205
X3.7913Y-1.2205
X3.7913Y-1.3189
X3.7913Y-1.3189
X3.7913Y-2.0205
X3.7913Y-2.0205
X3.7913Y-2.1189
X3.7913Y-2.1189
X3.7913Y-2.8205
X3.7913Y-2.8205
X3.7913Y-2.9189
X3.7913Y-2.9189
X3.7913Y-3.6205
X3.7913Y-3.6205
X3.7913Y-3.7189
X3.7913Y-3.7189
X3.7913Y-4.4205
X3.7913Y-4.4205
X3.7913Y-4.5189
X3.7913Y-4.5189
X3.7913Y-5.2205
X3.7913Y-5.2205
X3.7913Y-5.3189
X3.7913Y-5.3189
X3.7913Y-6.0205
X3.7913Y-6.1189
X3.7913Y-6.8205
X3.7913Y-6.9189
X3.8307Y-1.1417
X3.8307Y-1.1417
X3.8307Y-1.3976
X3.8307Y-1.3976
X3.8307Y-1.9417
X3.8307Y-1.9417
X3.8307Y-2.1976
X3.8307Y-2.1976
X3.8307Y-2.7417
X3.8307Y-2.7417
X3.8307Y-2.9976
X3.8307Y-2.9976
X3.8307Y-3.5417
X3.8307Y-3.5417
X3.8307Y-3.7976
X3.8307Y-3.7976
X3.8307Y-4.3417
X3.8307Y-4.3417
X3.8307Y-4.5976
X3.8307Y-4.5976
X3.8307Y-5.1417
X3.8307Y-5.1417
X3.8307Y-5.3976
X3.8307Y-5.3976
X3.8307Y-5.9417
X3.8307Y-6.1976
X3.8307Y-6.7417
X3.8307Y-6.9976
X3.8701Y-1.2205
X3.8701Y-1.2205
X3.8701Y-1.3189
X3.8701Y-1.3189
X3.8701Y-2.0205
X3.8701Y-2.0205
X3.8701Y-2.1189
X3.8701Y-2.1189
X3.8701Y-2.8205
X3.8701Y-2.8205
X3.8701Y-2.9189
X3.8701Y-2.9189
X3.8701Y-3.6205
X3.8701Y-3.6205
X3.8701Y-3.7189
X3.8701Y-3.7189
X3.8701Y-4.4205
X3.8701Y-4.4205
X3.8701Y-4.5189
X3.8701Y-4.5189
X3.8701Y-5.2205
X3.8701Y-5.2205
X3.8701Y-5.3189
X3.8701Y-5.3189
X3.8701Y-6.0205
X3.8701Y-6.1189
X3.8701Y-6.8205
X3.8701Y-6.9189
X3.9094Y-1.1417
X3.9094Y-1.1417
X3.9094Y-1.3976
X3.9094Y-1.3976
X3.9094Y-1.9417
X3.9094Y-1.9417
X3.9094Y-2.1976
X3.9094Y-2.1976
X3.9094Y-2.7417
X3.9094Y-2.7417
X3.9094Y-2.9976
X3.9094Y-2.9976
X3.9094Y-3.5417
X3.9094Y-3.5417
X3.9094Y-3.7976
X3.9094Y-3.7976
X3.9094Y-4.3417
X3.9094Y-4.3417
X3.9094Y-4.5976
X3.9094Y-4.5976
X3.9094Y-5.1417
X3.9094Y-5.1417
X3.9094Y-5.3976
X3.9094Y-5.3976
X3.9094Y-5.9417
X3.9094Y-6.1976
X3.9094Y-6.7417
X3.9094Y-6.9976
X3.9488Y-1.2205
X3.9488Y-1.2205
X3.9488Y-1.3189
X3.9488Y-1.3189
X3.9488Y-2.0205
X3.9488Y-2.0205
X3.9488Y-2.1189
X3.9488Y-2.1189
X3.9488Y-2.8205
X3.9488Y-2.8205
X3.9488Y-2.9189
X3.9488Y-2.9189
X3.9488Y-3.6205
X3.9488Y-3.6205
X3.9488Y-3.7189
X3.9488Y-3.7189
X3.9488Y-4.4205
X3.9488Y-4.4205
X3.9488Y-4.5189
X3.9488Y-4.5189
X3.9488Y-5.2205
X3.9488Y-5.2205
X3.9488Y-5.3189
X3.9488Y-5.3189
X3.9488Y-6.0205
X3.9488Y-6.1189
X3.9488Y-6.8205
X3.9488Y-6.9189
X3.9882Y-1.1417
X3.9882Y-1.1417
X3.9882Y-1.3976
X3.9882Y-1.3976
X3.9882Y-1.9417
X3.9882Y-1.9417
X3.9882Y-2.1976
X3.9882Y-2.1976
X3.9882Y-2.7417
X3.9882Y-2.7417
X3.9882Y-2.9976
X3.9882Y-2.9976
X3.9882Y-3.5417
X3.9882Y-3.5417
X3.9882Y-3.7976
X3.9882Y-3.7976
X3.9882Y-4.3417
X3.9882Y-4.3417
X3.9882Y-4.5976
X3.9882Y-4.5976
X3.9882Y-5.1417
X3.9882Y-5.1417
X3.9882Y-5.3976
X3.9882Y-5.3976
X3.9882Y-5.9417
X3.9882Y-6.1976
X3.9882Y-6.7417
X3.9882Y-6.9976
X4.0276Y-1.2205
X4.0276Y-1.2205
X4.0276Y-1.3189
X4.0276Y-1.3189
X4.0276Y-2.0205
X4.0276Y-2.0205
X4.0276Y-2.1189
X4.0276Y-2.1189
X4.0276Y-2.8205
X4.0276Y-2.8205
X4.0276Y-2.9189
X4.0276Y-2.9189
X4.0276Y-3.6205
X4.0276Y-3.6205
X4.0276Y-3.7189
X4.0276Y-3.7189
X4.0276Y-4.4205
X4.0276Y-4.4205
X4.0276Y-4.5189
X4.0276Y-4.5189
X4.0276Y-5.2205
X4.0276Y-5.2205
X4.0276Y-5.3189
X4.0276Y-5.3189
X4.0276Y-6.0205
X4.0276Y-6.1189
X4.0276Y-6.8205
X4.0276Y-6.9189
X4.0669Y-1.1417
X4.0669Y-1.1417
X4.0669Y-1.3976
X4.0669Y-1.3976
X4.0669Y-1.9417
X4.0669Y-1.9417
X4.0669Y-2.1976
X4.0669Y-2.1976
X4.0669Y-2.7417
X4.0669Y-2.7417
X4.0669Y-2.9976
X4.0669Y-2.9976
X4.0669Y-3.5417
X4.0669Y-3.5417
X4.0669Y-3.7976
X4.0669Y-3.7976
X4.0669Y-4.3417
X4.0669Y-4.3417
X4.0669Y-4.5976
X4.0669Y-4.5976
X4.0669Y-5.1417
X4.0669Y-5.1417
X4.0669Y-5.3976
X4.0669Y-5.3976
X4.0669Y-5.9417
X4.0669Y-6.1976
X4.0669Y-6.7417
X4.0669Y-6.9976
X4.1063Y-1.2205
X4.1063Y-1.2205
X4.1063Y-1.3189
X4.1063Y-1.3189
X4.1063Y-2.0205
X4.1063Y-2.0205
X4.1063Y-2.1189
X4.1063Y-2.1189
X4.1063Y-2.8205
X4.1063Y-2.8205
X4.1063Y-2.9189
X4.1063Y-2.9189
X4.1063Y-3.6205
X4.1063Y-3.6205
X4.1063Y-3.7189
X4.1063Y-3.7189
X4.1063Y-4.4205
X4.1063Y-4.4205
X4.1063Y-4.5189
X4.1063Y-4.5189
X4.1063Y-5.2205
X4.1063Y-5.2205
X4.1063Y-5.3189
X4.1063Y-5.3189
X4.1063Y-6.0205
X4.1063Y-6.1189
X4.1063Y-6.8205
X4.1063Y-6.9189
X4.1457Y-1.1417
X4.1457Y-1.1417
X4.1457Y-1.3976
X4.1457Y-1.3976
X4.1457Y-1.9417
X4.1457Y-1.9417
X4.1457Y-2.1976
X4.1457Y-2.1976
X4.1457Y-2.7417
X4.1457Y-2.7417
X4.1457Y-2.9976
X4.1457Y-2.9976
X4.1457Y-3.5417
X4.1457Y-3.5417
X4.1457Y-3.7976
X4.1457Y-3.7976
X4.1457Y-4.3417
X4.1457Y-4.3417
X4.1457Y-4.5976
X4.1457Y-4.5976
X4.1457Y-5.1417
X4.1457Y-5.1417
X4.1457Y-5.3976
X4.1457Y-5.3976
X4.1457Y-5.9417
X4.1457Y-6.1976
X4.1457Y-6.7417
X4.1457Y-6.9976
X4.185Y-1.2205
X4.185Y-1.2205
X4.185Y-1.3189
X4.185Y-1.3189
X4.185Y-2.0205
X4.185Y-2.0205
X4.185Y-2.1189
X4.185Y-2.1189
X4.185Y-2.8205
X4.185Y-2.8205
X4.185Y-2.9189
X4.185Y-2.9189
X4.185Y-3.6205
X4.185Y-3.6205
X4.185Y-3.7189
X4.185Y-3.7189
X4.185Y-4.4205
X4.185Y-4.4205
X4.185Y-4.5189
X4.185Y-4.5189
X4.185Y-5.2205
X4.185Y-5.2205
X4.185Y-5.3189
X4.185Y-5.3189
X4.185Y-6.0205
X4.185Y-6.1189
X4.185Y-6.8205
X4.185Y-6.9189
X4.2244Y-1.1417
X4.2244Y-1.1417
X4.2244Y-1.3976
X4.2244Y-1.3976
X4.2244Y-1.9417
X4.2244Y-1.9417
X4.2244Y-2.1976
X4.2244Y-2.1976
X4.2244Y-2.7417
X4.2244Y-2.7417
X4.2244Y-2.9976
X4.2244Y-2.9976
X4.2244Y-3.5417
X4.2244Y-3.5417
X4.2244Y-3.7976
X4.2244Y-3.7976
X4.2244Y-4.3417
X4.2244Y-4.3417
X4.2244Y-4.5976
X4.2244Y-4.5976
X4.2244Y-5.1417
X4.2244Y-5.1417
X4.2244Y-5.3976
X4.2244Y-5.3976
X4.2244Y-5.9417
X4.2244Y-6.1976
X4.2244Y-6.7417
X4.2244Y-6.9976
X4.2638Y-1.2205
X4.2638Y-1.2205
X4.2638Y-1.3189
X4.2638Y-1.3189
X4.2638Y-2.0205
X4.2638Y-2.0205
X4.2638Y-2.1189
X4.2638Y-2.1189
X4.2638Y-2.8205
X4.2638Y-2.8205
X4.2638Y-2.9189
X4.2638Y-2.9189
X4.2638Y-3.6205
X4.2638Y-3.6205
X4.2638Y-3.7189
X4.2638Y-3.7189
X4.2638Y-4.4205
X4.2638Y-4.4205
X4.2638Y-4.5189
X4.2638Y-4.5189
X4.2638Y-5.2205
X4.2638Y-5.2205
X4.2638Y-5.3189
X4.2638Y-5.3189
X4.2638Y-6.0205
X4.2638Y-6.1189
X4.2638Y-6.8205
X4.2638Y-6.9189
X4.3031Y-1.1417
X4.3031Y-1.1417
X4.3031Y-1.3976
X4.3031Y-1.3976
X4.3031Y-1.9417
X4.3031Y-1.9417
X4.3031Y-2.1976
X4.3031Y-2.1976
X4.3031Y-2.7417
X4.3031Y-2.7417
X4.3031Y-2.9976
X4.3031Y-2.9976
X4.3031Y-3.5417
X4.3031Y-3.5417
X4.3031Y-3.7976
X4.3031Y-3.7976
X4.3031Y-4.3417
X4.3031Y-4.3417
X4.3031Y-4.5976
X4.3031Y-4.5976
X4.3031Y-5.1417
X4.3031Y-5.1417
X4.3031Y-5.3976
X4.3031Y-5.3976
X4.3031Y-5.9417
X4.3031Y-6.1976
X4.3031Y-6.7417
X4.3031Y-6.9976
X4.3425Y-1.2205
X4.3425Y-1.2205
X4.3425Y-1.3189
X4.3425Y-1.3189
X4.3425Y-2.0205
X4.3425Y-2.0205
X4.3425Y-2.1189
X4.3425Y-2.1189
X4.3425Y-2.8205
X4.3425Y-2.8205
X4.3425Y-2.9189
X4.3425Y-2.9189
X4.3425Y-3.6205
X4.3425Y-3.6205
X4.3425Y-3.7189
X4.3425Y-3.7189
X4.3425Y-4.4205
X4.3425Y-4.4205
X4.3425Y-4.5189
X4.3425Y-4.5189
X4.3425Y-5.2205
X4.3425Y-5.2205
X4.3425Y-5.3189
X4.3425Y-5.3189
X4.3425Y-6.0205
X4.3425Y-6.1189
X4.3425Y-6.8205
X4.3425Y-6.9189
X4.3819Y-1.1417
X4.3819Y-1.1417
X4.3819Y-1.3976
X4.3819Y-1.3976
X4.3819Y-1.9417
X4.3819Y-1.9417
X4.3819Y-2.1976
X4.3819Y-2.1976
X4.3819Y-2.7417
X4.3819Y-2.7417
X4.3819Y-2.9976
X4.3819Y-2.9976
X4.3819Y-3.5417
X4.3819Y-3.5417
X4.3819Y-3.7976
X4.3819Y-3.7976
X4.3819Y-4.3417
X4.3819Y-4.3417
X4.3819Y-4.5976
X4.3819Y-4.5976
X4.3819Y-5.1417
X4.3819Y-5.1417
X4.3819Y-5.3976
X4.3819Y-5.3976
X4.3819Y-5.9417
X4.3819Y-6.1976
X4.3819Y-6.7417
X4.3819Y-6.9976
X4.4213Y-1.2205
X4.4213Y-1.2205
X4.4213Y-1.3189
X4.4213Y-1.3189
X4.4213Y-2.0205
X4.4213Y-2.0205
X4.4213Y-2.1189
X4.4213Y-2.1189
X4.4213Y-2.8205
X4.4213Y-2.8205
X4.4213Y-2.9189
X4.4213Y-2.9189
X4.4213Y-3.6205
X4.4213Y-3.6205
X4.4213Y-3.7189
X4.4213Y-3.7189
X4.4213Y-4.4205
X4.4213Y-4.4205
X4.4213Y-4.5189
X4.4213Y-4.5189
X4.4213Y-5.2205
X4.4213Y-5.2205
X4.4213Y-5.3189
X4.4213Y-5.3189
X4.4213Y-6.0205
X4.4213Y-6.1189
X4.4213Y-6.8205
X4.4213Y-6.9189
X4.4606Y-1.1417
X4.4606Y-1.1417
X4.4606Y-1.3976
X4.4606Y-1.3976
X4.4606Y-1.9417
X4.4606Y-1.9417
X4.4606Y-2.1976
X4.4606Y-2.1976
X4.4606Y-2.7417
X4.4606Y-2.7417
X4.4606Y-2.9976
X4.4606Y-2.9976
X4.4606Y-3.5417
X4.4606Y-3.5417
X4.4606Y-3.7976
X4.4606Y-3.7976
X4.4606Y-4.3417
X4.4606Y-4.3417
X4.4606Y-4.5976
X4.4606Y-4.5976
X4.4606Y-5.1417
X4.4606Y-5.1417
X4.4606Y-5.3976
X4.4606Y-5.3976
X4.4606Y-5.9417
X4.4606Y-6.1976
X4.4606Y-6.7417
X4.4606Y-6.9976
X4.5Y-1.2205
X4.5Y-1.2205
X4.5Y-1.3189
X4.5Y-1.3189
X4.5Y-2.0205
X4.5Y-2.0205
X4.5Y-2.1189
X4.5Y-2.1189
X4.5Y-2.8205
X4.5Y-2.8205
X4.5Y-2.9189
X4.5Y-2.9189
X4.5Y-3.6205
X4.5Y-3.6205
X4.5Y-3.7189
X4.5Y-3.7189
X4.5Y-4.4205
X4.5Y-4.4205
X4.5Y-4.5189
X4.5Y-4.5189
X4.5Y-5.2205
X4.5Y-5.2205
X4.5Y-5.3189
X4.5Y-5.3189
X4.5Y-6.0205
X4.5Y-6.1189
X4.5Y-6.8205
X4.5Y-6.9189
X4.5394Y-1.1417
X4.5394Y-1.1417
X4.5394Y-1.3976
X4.5394Y-1.3976
X4.5394Y-1.9417
X4.5394Y-1.9417
X4.5394Y-2.1976
X4.5394Y-2.1976
X4.5394Y-2.7417
X4.5394Y-2.7417
X4.5394Y-2.9976
X4.5394Y-2.9976
X4.5394Y-3.5417
X4.5394Y-3.5417
X4.5394Y-3.7976
X4.5394Y-3.7976
X4.5394Y-4.3417
X4.5394Y-4.3417
X4.5394Y-4.5976
X4.5394Y-4.5976
X4.5394Y-5.1417
X4.5394Y-5.1417
X4.5394Y-5.3976
X4.5394Y-5.3976
X4.5394Y-5.9417
X4.5394Y-6.1976
X4.5394Y-6.7417
X4.5394Y-6.9976
X4.5787Y-1.2205
X4.5787Y-1.2205
X4.5787Y-1.3189
X4.5787Y-1.3189
X4.5787Y-2.0205
X4.5787Y-2.0205
X4.5787Y-2.1189
X4.5787Y-2.1189
X4.5787Y-2.8205
X4.5787Y-2.8205
X4.5787Y-2.9189
X4.5787Y-2.9189
X4.5787Y-3.6205
X4.5787Y-3.6205
X4.5787Y-3.7189
X4.5787Y-3.7189
X4.5787Y-4.4205
X4.5787Y-4.4205
X4.5787Y-4.5189
X4.5787Y-4.5189
X4.5787Y-5.2205
X4.5787Y-5.2205
X4.5787Y-5.3189
X4.5787Y-5.3189
X4.5787Y-6.0205
X4.5787Y-6.1189
X4.5787Y-6.8205
X4.5787Y-6.9189
X4.6181Y-1.1417
X4.6181Y-1.1417
X4.6181Y-1.3976
X4.6181Y-1.3976
X4.6181Y-1.9417
X4.6181Y-1.9417
X4.6181Y-2.1976
X4.6181Y-2.1976
X4.6181Y-2.7417
X4.6181Y-2.7417
X4.6181Y-2.9976
X4.6181Y-2.9976
X4.6181Y-3.5417
X4.6181Y-3.5417
X4.6181Y-3.7976
X4.6181Y-3.7976
X4.6181Y-4.3417
X4.6181Y-4.3417
X4.6181Y-4.5976
X4.6181Y-4.5976
X4.6181Y-5.1417
X4.6181Y-5.1417
X4.6181Y-5.3976
X4.6181Y-5.3976
X4.6181Y-5.9417
X4.6181Y-6.1976
X4.6181Y-6.7417
X4.6181Y-6.9976
X4.6575Y-1.2205
X4.6575Y-1.2205
X4.6575Y-1.3189
X4.6575Y-1.3189
X4.6575Y-2.0205
X4.6575Y-2.0205
X4.6575Y-2.1189
X4.6575Y-2.1189
X4.6575Y-2.8205
X4.6575Y-2.8205
X4.6575Y-2.9189
X4.6575Y-2.9189
X4.6575Y-3.6205
X4.6575Y-3.6205
X4.6575Y-3.7189
X4.6575Y-3.7189
X4.6575Y-4.4205
X4.6575Y-4.4205
X4.6575Y-4.5189
X4.6575Y-4.5189
X4.6575Y-5.2205
X4.6575Y-5.2205
X4.6575Y-5.3189
X4.6575Y-5.3189
X4.6575Y-6.0205
X4.6575Y-6.1189
X4.6575Y-6.8205
X4.6575Y-6.9189
X4.6969Y-1.1417
X4.6969Y-1.1417
X4.6969Y-1.3976
X4.6969Y-1.3976
X4.6969Y-1.9417
X4.6969Y-1.9417
X4.6969Y-2.1976
X4.6969Y-2.1976
X4.6969Y-2.7417
X4.6969Y-2.7417
X4.6969Y-2.9976
X4.6969Y-2.9976
X4.6969Y-3.5417
X4.6969Y-3.5417
X4.6969Y-3.7976
X4.6969Y-3.7976
X4.6969Y-4.3417
X4.6969Y-4.3417
X4.6969Y-4.5976
X4.6969Y-4.5976
X4.6969Y-5.1417
X4.6969Y-5.1417
X4.6969Y-5.3976
X4.6969Y-5.3976
X4.6969Y-5.9417
X4.6969Y-6.1976
X4.6969Y-6.7417
X4.6969Y-6.9976
X4.7362Y-1.2205
X4.7362Y-1.2205
X4.7362Y-1.3189
X4.7362Y-1.3189
X4.7362Y-2.0205
X4.7362Y-2.0205
X4.7362Y-2.1189
X4.7362Y-2.1189
X4.7362Y-2.8205
X4.7362Y-2.8205
X4.7362Y-2.9189
X4.7362Y-2.9189
X4.7362Y-3.6205
X4.7362Y-3.6205
X4.7362Y-3.7189
X4.7362Y-3.7189
X4.7362Y-4.4205
X4.7362Y-4.4205
X4.7362Y-4.5189
X4.7362Y-4.5189
X4.7362Y-5.2205
X4.7362Y-5.2205
X4.7362Y-5.3189
X4.7362Y-5.3189
X4.7362Y-6.0205
X4.7362Y-6.1189
X4.7362Y-6.8205
X4.7362Y-6.9189
X4.7756Y-1.1417
X4.7756Y-1.1417
X4.7756Y-1.3976
X4.7756Y-1.3976
X4.7756Y-1.9417
X4.7756Y-1.9417
X4.7756Y-2.1976
X4.7756Y-2.1976
X4.7756Y-2.7417
X4.7756Y-2.7417
X4.7756Y-2.9976
X4.7756Y-2.9976
X4.7756Y-3.5417
X4.7756Y-3.5417
X4.7756Y-3.7976
X4.7756Y-3.7976
X4.7756Y-4.3417
X4.7756Y-4.3417
X4.7756Y-4.5976
X4.7756Y-4.5976
X4.7756Y-5.1417
X4.7756Y-5.1417
X4.7756Y-5.3976
X4.7756Y-5.3976
X4.7756Y-5.9417
X4.7756Y-6.1976
X4.7756Y-6.7417
X4.7756Y-6.9976
X4.815Y-1.2205
X4.815Y-1.2205
X4.815Y-1.3189
X4.815Y-1.3189
X4.815Y-2.0205
X4.815Y-2.0205
X4.815Y-2.1189
X4.815Y-2.1189
X4.815Y-2.8205
X4.815Y-2.8205
X4.815Y-2.9189
X4.815Y-2.9189
X4.815Y-3.6205
X4.815Y-3.6205
X4.815Y-3.7189
X4.815Y-3.7189
X4.815Y-4.4205
X4.815Y-4.4205
X4.815Y-4.5189
X4.815Y-4.5189
X4.815Y-5.2205
X4.815Y-5.2205
X4.815Y-5.3189
X4.815Y-5.3189
X4.815Y-6.0205
X4.815Y-6.1189
X4.815Y-6.8205
X4.815Y-6.9189
X4.8543Y-1.1417
X4.8543Y-1.1417
X4.8543Y-1.3976
X4.8543Y-1.3976
X4.8543Y-1.9417
X4.8543Y-1.9417
X4.8543Y-2.1976
X4.8543Y-2.1976
X4.8543Y-2.7417
X4.8543Y-2.7417
X4.8543Y-2.9976
X4.8543Y-2.9976
X4.8543Y-3.5417
X4.8543Y-3.5417
X4.8543Y-3.7976
X4.8543Y-3.7976
X4.8543Y-4.3417
X4.8543Y-4.3417
X4.8543Y-4.5976
X4.8543Y-4.5976
X4.8543Y-5.1417
X4.8543Y-5.1417
X4.8543Y-5.3976
X4.8543Y-5.3976
X4.8543Y-5.9417
X4.8543Y-6.1976
X4.8543Y-6.7417
X4.8543Y-6.9976
X4.8937Y-1.2205
X4.8937Y-1.2205
X4.8937Y-1.3189
X4.8937Y-1.3189
X4.8937Y-2.0205
X4.8937Y-2.0205
X4.8937Y-2.1189
X4.8937Y-2.1189
X4.8937Y-2.8205
X4.8937Y-2.8205
X4.8937Y-2.9189
X4.8937Y-2.9189
X4.8937Y-3.6205
X4.8937Y-3.6205
X4.8937Y-3.7189
X4.8937Y-3.7189
X4.8937Y-4.4205
X4.8937Y-4.4205
X4.8937Y-4.5189
X4.8937Y-4.5189
X4.8937Y-5.2205
X4.8937Y-5.2205
X4.8937Y-5.3189
X4.8937Y-5.3189
X4.8937Y-6.0205
X4.8937Y-6.1189
X4.8937Y-6.8205
X4.8937Y-6.9189
X4.9331Y-1.1417
X4.9331Y-1.1417
X4.9331Y-1.3976
X4.9331Y-1.3976
X4.9331Y-1.9417
X4.9331Y-1.9417
X4.9331Y-2.1976
X4.9331Y-2.1976
X4.9331Y-2.7417
X4.9331Y-2.7417
X4.9331Y-2.9976
X4.9331Y-2.9976
X4.9331Y-3.5417
X4.9331Y-3.5417
X4.9331Y-3.7976
X4.9331Y-3.7976
X4.9331Y-4.3417
X4.9331Y-4.3417
X4.9331Y-4.5976
X4.9331Y-4.5976
X4.9331Y-5.1417
X4.9331Y-5.1417
X4.9331Y-5.3976
X4.9331Y-5.3976
X4.9331Y-5.9417
X4.9331Y-6.1976
X4.9331Y-6.7417
X4.9331Y-6.9976
X4.9724Y-1.2205
X4.9724Y-1.2205
X4.9724Y-1.3189
X4.9724Y-1.3189
X4.9724Y-2.0205
X4.9724Y-2.0205
X4.9724Y-2.1189
X4.9724Y-2.1189
X4.9724Y-2.8205
X4.9724Y-2.8205
X4.9724Y-2.9189
X4.9724Y-2.9189
X4.9724Y-3.6205
X4.9724Y-3.6205
X4.9724Y-3.7189
X4.9724Y-3.7189
X4.9724Y-4.4205
X4.9724Y-4.4205
X4.9724Y-4.5189
X4.9724Y-4.5189
X4.9724Y-5.2205
X4.9724Y-5.2205
X4.9724Y-5.3189
X4.9724Y-5.3189
X4.9724Y-6.0205
X4.9724Y-6.1189
X4.9724Y-6.8205
X4.9724Y-6.9189
X5.0118Y-1.1417
X5.0118Y-1.1417
X5.0118Y-1.3976
X5.0118Y-1.3976
X5.0118Y-1.9417
X5.0118Y-1.9417
X5.0118Y-2.1976
X5.0118Y-2.1976
X5.0118Y-2.7417
X5.0118Y-2.7417
X5.0118Y-2.9976
X5.0118Y-2.9976
X5.0118Y-3.5417
X5.0118Y-3.5417
X5.0118Y-3.7976
X5.0118Y-3.7976
X5.0118Y-4.3417
X5.0118Y-4.3417
X5.0118Y-4.5976
X5.0118Y-4.5976
X5.0118Y-5.1417
X5.0118Y-5.1417
X5.0118Y-5.3976
X5.0118Y-5.3976
X5.0118Y-5.9417
X5.0118Y-6.1976
X5.0118Y-6.7417
X5.0118Y-6.9976
X5.0512Y-1.2205
X5.0512Y-1.2205
X5.0512Y-1.3189
X5.0512Y-1.3189
X5.0512Y-2.0205
X5.0512Y-2.0205
X5.0512Y-2.1189
X5.0512Y-2.1189
X5.0512Y-2.8205
X5.0512Y-2.8205
X5.0512Y-2.9189
X5.0512Y-2.9189
X5.0512Y-3.6205
X5.0512Y-3.6205
X5.0512Y-3.7189
X5.0512Y-3.7189
X5.0512Y-4.4205
X5.0512Y-4.4205
X5.0512Y-4.5189
X5.0512Y-4.5189
X5.0512Y-5.2205
X5.0512Y-5.2205
X5.0512Y-5.3189
X5.0512Y-5.3189
X5.0512Y-6.0205
X5.0512Y-6.1189
X5.0512Y-6.8205
X5.0512Y-6.9189
X5.0906Y-1.1417
X5.0906Y-1.1417
X5.0906Y-1.3976
X5.0906Y-1.3976
X5.0906Y-1.9417
X5.0906Y-1.9417
X5.0906Y-2.1976
X5.0906Y-2.1976
X5.0906Y-2.7417
X5.0906Y-2.7417
X5.0906Y-2.9976
X5.0906Y-2.9976
X5.0906Y-3.5417
X5.0906Y-3.5417
X5.0906Y-3.7976
X5.0906Y-3.7976
X5.0906Y-4.3417
X5.0906Y-4.3417
X5.0906Y-4.5976
X5.0906Y-4.5976
X5.0906Y-5.1417
X5.0906Y-5.1417
X5.0906Y-5.3976
X5.0906Y-5.3976
X5.0906Y-5.9417
X5.0906Y-6.1976
X5.0906Y-6.7417
X5.0906Y-6.9976
X5.1299Y-1.2205
X5.1299Y-1.2205
X5.1299Y-1.3189
X5.1299Y-1.3189
X5.1299Y-2.0205
X5.1299Y-2.0205
X5.1299Y-2.1189
X5.1299Y-2.1189
X5.1299Y-2.8205
X5.1299Y-2.8205
X5.1299Y-2.9189
X5.1299Y-2.9189
X5.1299Y-3.6205
X5.1299Y-3.6205
X5.1299Y-3.7189
X5.1299Y-3.7189
X5.1299Y-4.4205
X5.1299Y-4.4205
X5.1299Y-4.5189
X5.1299Y-4.5189
X5.1299Y-5.2205
X5.1299Y-5.2205
X5.1299Y-5.3189
X5.1299Y-5.3189
X5.1299Y-6.0205
X5.1299Y-6.1189
X5.1299Y-6.8205
X5.1299Y-6.9189
X5.1693Y-1.1417
X5.1693Y-1.1417
X5.1693Y-1.3976
X5.1693Y-1.3976
X5.1693Y-1.9417
X5.1693Y-1.9417
X5.1693Y-2.1976
X5.1693Y-2.1976
X5.1693Y-2.7417
X5.1693Y-2.7417
X5.1693Y-2.9976
X5.1693Y-2.9976
X5.1693Y-3.5417
X5.1693Y-3.5417
X5.1693Y-3.7976
X5.1693Y-3.7976
X5.1693Y-4.3417
X5.1693Y-4.3417
X5.1693Y-4.5976
X5.1693Y-4.5976
X5.1693Y-5.1417
X5.1693Y-5.1417
X5.1693Y-5.3976
X5.1693Y-5.3976
X5.1693Y-5.9417
X5.1693Y-6.1976
X5.1693Y-6.7417
X5.1693Y-6.9976
X5.2874Y-1.2205
X5.2874Y-1.2205
X5.2874Y-1.3189
X5.2874Y-1.3189
X5.2874Y-2.0205
X5.2874Y-2.0205
X5.2874Y-2.1189
X5.2874Y-2.1189
X5.2874Y-2.8205
X5.2874Y-2.8205
X5.2874Y-2.9189
X5.2874Y-2.9189
X5.2874Y-3.6205
X5.2874Y-3.6205
X5.2874Y-3.7189
X5.2874Y-3.7189
X5.2874Y-4.4205
X5.2874Y-4.4205
X5.2874Y-4.5189
X5.2874Y-4.5189
X5.2874Y-5.2205
X5.2874Y-5.2205
X5.2874Y-5.3189
X5.2874Y-5.3189
X5.2874Y-6.0205
X5.2874Y-6.1189
X5.2874Y-6.8205
X5.2874Y-6.9189
X5.3268Y-1.1417
X5.3268Y-1.1417
X5.3268Y-1.3976
X5.3268Y-1.3976
X5.3268Y-1.9417
X5.3268Y-1.9417
X5.3268Y-2.1976
X5.3268Y-2.1976
X5.3268Y-2.7417
X5.3268Y-2.7417
X5.3268Y-2.9976
X5.3268Y-2.9976
X5.3268Y-3.5417
X5.3268Y-3.5417
X5.3268Y-3.7976
X5.3268Y-3.7976
X5.3268Y-4.3417
X5.3268Y-4.3417
X5.3268Y-4.5976
X5.3268Y-4.5976
X5.3268Y-5.1417
X5.3268Y-5.1417
X5.3268Y-5.3976
X5.3268Y-5.3976
X5.3268Y-5.9417
X5.3268Y-6.1976
X5.3268Y-6.7417
X5.3268Y-6.9976
X5.3661Y-1.2205
X5.3661Y-1.2205
X5.3661Y-1.3189
X5.3661Y-1.3189
X5.3661Y-2.0205
X5.3661Y-2.0205
X5.3661Y-2.1189
X5.3661Y-2.1189
X5.3661Y-2.8205
X5.3661Y-2.8205
X5.3661Y-2.9189
X5.3661Y-2.9189
X5.3661Y-3.6205
X5.3661Y-3.6205
X5.3661Y-3.7189
X5.3661Y-3.7189
X5.3661Y-4.4205
X5.3661Y-4.4205
X5.3661Y-4.5189
X5.3661Y-4.5189
X5.3661Y-5.2205
X5.3661Y-5.2205
X5.3661Y-5.3189
X5.3661Y-5.3189
X5.3661Y-6.0205
X5.3661Y-6.1189
X5.3661Y-6.8205
X5.3661Y-6.9189
X5.4055Y-1.1417
X5.4055Y-1.1417
X5.4055Y-1.3976
X5.4055Y-1.3976
X5.4055Y-1.9417
X5.4055Y-1.9417
X5.4055Y-2.1976
X5.4055Y-2.1976
X5.4055Y-2.7417
X5.4055Y-2.7417
X5.4055Y-2.9976
X5.4055Y-2.9976
X5.4055Y-3.5417
X5.4055Y-3.5417
X5.4055Y-3.7976
X5.4055Y-3.7976
X5.4055Y-4.3417
X5.4055Y-4.3417
X5.4055Y-4.5976
X5.4055Y-4.5976
X5.4055Y-5.1417
X5.4055Y-5.1417
X5.4055Y-5.3976
X5.4055Y-5.3976
X5.4055Y-5.9417
X5.4055Y-6.1976
X5.4055Y-6.7417
X5.4055Y-6.9976
X5.4449Y-1.2205
X5.4449Y-1.2205
X5.4449Y-1.3189
X5.4449Y-1.3189
X5.4449Y-2.0205
X5.4449Y-2.0205
X5.4449Y-2.1189
X5.4449Y-2.1189
X5.4449Y-2.8205
X5.4449Y-2.8205
X5.4449Y-2.9189
X5.4449Y-2.9189
X5.4449Y-3.6205
X5.4449Y-3.6205
X5.4449Y-3.7189
X5.4449Y-3.7189
X5.4449Y-4.4205
X5.4449Y-4.4205
X5.4449Y-4.5189
X5.4449Y-4.5189
X5.4449Y-5.2205
X5.4449Y-5.2205
X5.4449Y-5.3189
X5.4449Y-5.3189
X5.4449Y-6.0205
X5.4449Y-6.1189
X5.4449Y-6.8205
X5.4449Y-6.9189
X5.4843Y-1.1417
X5.4843Y-1.1417
X5.4843Y-1.3976
X5.4843Y-1.3976
X5.4843Y-1.9417
X5.4843Y-1.9417
X5.4843Y-2.1976
X5.4843Y-2.1976
X5.4843Y-2.7417
X5.4843Y-2.7417
X5.4843Y-2.9976
X5.4843Y-2.9976
X5.4843Y-3.5417
X5.4843Y-3.5417
X5.4843Y-3.7976
X5.4843Y-3.7976
X5.4843Y-4.3417
X5.4843Y-4.3417
X5.4843Y-4.5976
X5.4843Y-4.5976
X5.4843Y-5.1417
X5.4843Y-5.1417
X5.4843Y-5.3976
X5.4843Y-5.3976
X5.4843Y-5.9417
X5.4843Y-6.1976
X5.4843Y-6.7417
X5.4843Y-6.9976
X5.5236Y-1.2205
X5.5236Y-1.2205
X5.5236Y-1.3189
X5.5236Y-1.3189
X5.5236Y-2.0205
X5.5236Y-2.0205
X5.5236Y-2.1189
X5.5236Y-2.1189
X5.5236Y-2.8205
X5.5236Y-2.8205
X5.5236Y-2.9189
X5.5236Y-2.9189
X5.5236Y-3.6205
X5.5236Y-3.6205
X5.5236Y-3.7189
X5.5236Y-3.7189
X5.5236Y-4.4205
X5.5236Y-4.4205
X5.5236Y-4.5189
X5.5236Y-4.5189
X5.5236Y-5.2205
X5.5236Y-5.2205
X5.5236Y-5.3189
X5.5236Y-5.3189
X5.5236Y-6.0205
X5.5236Y-6.1189
X5.5236Y-6.8205
X5.5236Y-6.9189
X5.563Y-1.1417
X5.563Y-1.1417
X5.563Y-1.3976
X5.563Y-1.3976
X5.563Y-1.9417
X5.563Y-1.9417
X5.563Y-2.1976
X5.563Y-2.1976
X5.563Y-2.7417
X5.563Y-2.7417
X5.563Y-2.9976
X5.563Y-2.9976
X5.563Y-3.5417
X5.563Y-3.5417
X5.563Y-3.7976
X5.563Y-3.7976
X5.563Y-4.3417
X5.563Y-4.3417
X5.563Y-4.5976
X5.563Y-4.5976
X5.563Y-5.1417
X5.563Y-5.1417
X5.563Y-5.3976
X5.563Y-5.3976
X5.563Y-5.9417
X5.563Y-6.1976
X5.563Y-6.7417
X5.563Y-6.9976
X5.6024Y-1.2205
X5.6024Y-1.2205
X5.6024Y-1.3189
X5.6024Y-1.3189
X5.6024Y-2.0205
X5.6024Y-2.0205
X5.6024Y-2.1189
X5.6024Y-2.1189
X5.6024Y-2.8205
X5.6024Y-2.8205
X5.6024Y-2.9189
X5.6024Y-2.9189
X5.6024Y-3.6205
X5.6024Y-3.6205
X5.6024Y-3.7189
X5.6024Y-3.7189
X5.6024Y-4.4205
X5.6024Y-4.4205
X5.6024Y-4.5189
X5.6024Y-4.5189
X5.6024Y-5.2205
X5.6024Y-5.2205
X5.6024Y-5.3189
X5.6024Y-5.3189
X5.6024Y-6.0205
X5.6024Y-6.1189
X5.6024Y-6.8205
X5.6024Y-6.9189
X5.6417Y-1.1417
X5.6417Y-1.1417
X5.6417Y-1.3976
X5.6417Y-1.3976
X5.6417Y-1.9417
X5.6417Y-1.9417
X5.6417Y-2.1976
X5.6417Y-2.1976
X5.6417Y-2.7417
X5.6417Y-2.7417
X5.6417Y-2.9976
X5.6417Y-2.9976
X5.6417Y-3.5417
X5.6417Y-3.5417
X5.6417Y-3.7976
X5.6417Y-3.7976
X5.6417Y-4.3417
X5.6417Y-4.3417
X5.6417Y-4.5976
X5.6417Y-4.5976
X5.6417Y-5.1417
X5.6417Y-5.1417
X5.6417Y-5.3976
X5.6417Y-5.3976
X5.6417Y-5.9417
X5.6417Y-6.1976
X5.6417Y-6.7417
X5.6417Y-6.9976
X5.6811Y-1.2205
X5.6811Y-1.2205
X5.6811Y-1.3189
X5.6811Y-1.3189
X5.6811Y-2.0205
X5.6811Y-2.0205
X5.6811Y-2.1189
X5.6811Y-2.1189
X5.6811Y-2.8205
X5.6811Y-2.8205
X5.6811Y-2.9189
X5.6811Y-2.9189
X5.6811Y-3.6205
X5.6811Y-3.6205
X5.6811Y-3.7189
X5.6811Y-3.7189
X5.6811Y-4.4205
X5.6811Y-4.4205
X5.6811Y-4.5189
X5.6811Y-4.5189
X5.6811Y-5.2205
X5.6811Y-5.2205
X5.6811Y-5.3189
X5.6811Y-5.3189
X5.6811Y-6.0205
X5.6811Y-6.1189
X5.6811Y-6.8205
X5.6811Y-6.9189
M30
