%TF.GenerationSoftware,KiCad,Pcbnew,8.0.0*%
%TF.CreationDate,2024-11-27T22:09:34-06:00*%
%TF.ProjectId,backplane,6261636b-706c-4616-9e65-2e6b69636164,rev?*%
%TF.SameCoordinates,Original*%
%TF.FileFunction,Legend,Top*%
%TF.FilePolarity,Positive*%
%FSLAX46Y46*%
G04 Gerber Fmt 4.6, Leading zero omitted, Abs format (unit mm)*
G04 Created by KiCad (PCBNEW 8.0.0) date 2024-11-27 22:09:34*
%MOMM*%
%LPD*%
G01*
G04 APERTURE LIST*
%ADD10C,0.150000*%
%ADD11C,0.200000*%
G04 APERTURE END LIST*
D10*
X60741666Y-127069819D02*
X60741666Y-127784104D01*
X60741666Y-127784104D02*
X60694047Y-127926961D01*
X60694047Y-127926961D02*
X60598809Y-128022200D01*
X60598809Y-128022200D02*
X60455952Y-128069819D01*
X60455952Y-128069819D02*
X60360714Y-128069819D01*
X61265476Y-128069819D02*
X61455952Y-128069819D01*
X61455952Y-128069819D02*
X61551190Y-128022200D01*
X61551190Y-128022200D02*
X61598809Y-127974580D01*
X61598809Y-127974580D02*
X61694047Y-127831723D01*
X61694047Y-127831723D02*
X61741666Y-127641247D01*
X61741666Y-127641247D02*
X61741666Y-127260295D01*
X61741666Y-127260295D02*
X61694047Y-127165057D01*
X61694047Y-127165057D02*
X61646428Y-127117438D01*
X61646428Y-127117438D02*
X61551190Y-127069819D01*
X61551190Y-127069819D02*
X61360714Y-127069819D01*
X61360714Y-127069819D02*
X61265476Y-127117438D01*
X61265476Y-127117438D02*
X61217857Y-127165057D01*
X61217857Y-127165057D02*
X61170238Y-127260295D01*
X61170238Y-127260295D02*
X61170238Y-127498390D01*
X61170238Y-127498390D02*
X61217857Y-127593628D01*
X61217857Y-127593628D02*
X61265476Y-127641247D01*
X61265476Y-127641247D02*
X61360714Y-127688866D01*
X61360714Y-127688866D02*
X61551190Y-127688866D01*
X61551190Y-127688866D02*
X61646428Y-127641247D01*
X61646428Y-127641247D02*
X61694047Y-127593628D01*
X61694047Y-127593628D02*
X61741666Y-127498390D01*
X60265476Y-106749819D02*
X60265476Y-107464104D01*
X60265476Y-107464104D02*
X60217857Y-107606961D01*
X60217857Y-107606961D02*
X60122619Y-107702200D01*
X60122619Y-107702200D02*
X59979762Y-107749819D01*
X59979762Y-107749819D02*
X59884524Y-107749819D01*
X61265476Y-107749819D02*
X60694048Y-107749819D01*
X60979762Y-107749819D02*
X60979762Y-106749819D01*
X60979762Y-106749819D02*
X60884524Y-106892676D01*
X60884524Y-106892676D02*
X60789286Y-106987914D01*
X60789286Y-106987914D02*
X60694048Y-107035533D01*
X61884524Y-106749819D02*
X61979762Y-106749819D01*
X61979762Y-106749819D02*
X62075000Y-106797438D01*
X62075000Y-106797438D02*
X62122619Y-106845057D01*
X62122619Y-106845057D02*
X62170238Y-106940295D01*
X62170238Y-106940295D02*
X62217857Y-107130771D01*
X62217857Y-107130771D02*
X62217857Y-107368866D01*
X62217857Y-107368866D02*
X62170238Y-107559342D01*
X62170238Y-107559342D02*
X62122619Y-107654580D01*
X62122619Y-107654580D02*
X62075000Y-107702200D01*
X62075000Y-107702200D02*
X61979762Y-107749819D01*
X61979762Y-107749819D02*
X61884524Y-107749819D01*
X61884524Y-107749819D02*
X61789286Y-107702200D01*
X61789286Y-107702200D02*
X61741667Y-107654580D01*
X61741667Y-107654580D02*
X61694048Y-107559342D01*
X61694048Y-107559342D02*
X61646429Y-107368866D01*
X61646429Y-107368866D02*
X61646429Y-107130771D01*
X61646429Y-107130771D02*
X61694048Y-106940295D01*
X61694048Y-106940295D02*
X61741667Y-106845057D01*
X61741667Y-106845057D02*
X61789286Y-106797438D01*
X61789286Y-106797438D02*
X61884524Y-106749819D01*
X60741666Y-66109819D02*
X60741666Y-66824104D01*
X60741666Y-66824104D02*
X60694047Y-66966961D01*
X60694047Y-66966961D02*
X60598809Y-67062200D01*
X60598809Y-67062200D02*
X60455952Y-67109819D01*
X60455952Y-67109819D02*
X60360714Y-67109819D01*
X61122619Y-66109819D02*
X61741666Y-66109819D01*
X61741666Y-66109819D02*
X61408333Y-66490771D01*
X61408333Y-66490771D02*
X61551190Y-66490771D01*
X61551190Y-66490771D02*
X61646428Y-66538390D01*
X61646428Y-66538390D02*
X61694047Y-66586009D01*
X61694047Y-66586009D02*
X61741666Y-66681247D01*
X61741666Y-66681247D02*
X61741666Y-66919342D01*
X61741666Y-66919342D02*
X61694047Y-67014580D01*
X61694047Y-67014580D02*
X61646428Y-67062200D01*
X61646428Y-67062200D02*
X61551190Y-67109819D01*
X61551190Y-67109819D02*
X61265476Y-67109819D01*
X61265476Y-67109819D02*
X61170238Y-67062200D01*
X61170238Y-67062200D02*
X61122619Y-67014580D01*
X60265476Y-45789819D02*
X60265476Y-46504104D01*
X60265476Y-46504104D02*
X60217857Y-46646961D01*
X60217857Y-46646961D02*
X60122619Y-46742200D01*
X60122619Y-46742200D02*
X59979762Y-46789819D01*
X59979762Y-46789819D02*
X59884524Y-46789819D01*
X61265476Y-46789819D02*
X60694048Y-46789819D01*
X60979762Y-46789819D02*
X60979762Y-45789819D01*
X60979762Y-45789819D02*
X60884524Y-45932676D01*
X60884524Y-45932676D02*
X60789286Y-46027914D01*
X60789286Y-46027914D02*
X60694048Y-46075533D01*
X61598810Y-45789819D02*
X62217857Y-45789819D01*
X62217857Y-45789819D02*
X61884524Y-46170771D01*
X61884524Y-46170771D02*
X62027381Y-46170771D01*
X62027381Y-46170771D02*
X62122619Y-46218390D01*
X62122619Y-46218390D02*
X62170238Y-46266009D01*
X62170238Y-46266009D02*
X62217857Y-46361247D01*
X62217857Y-46361247D02*
X62217857Y-46599342D01*
X62217857Y-46599342D02*
X62170238Y-46694580D01*
X62170238Y-46694580D02*
X62122619Y-46742200D01*
X62122619Y-46742200D02*
X62027381Y-46789819D01*
X62027381Y-46789819D02*
X61741667Y-46789819D01*
X61741667Y-46789819D02*
X61646429Y-46742200D01*
X61646429Y-46742200D02*
X61598810Y-46694580D01*
X60741666Y-86429819D02*
X60741666Y-87144104D01*
X60741666Y-87144104D02*
X60694047Y-87286961D01*
X60694047Y-87286961D02*
X60598809Y-87382200D01*
X60598809Y-87382200D02*
X60455952Y-87429819D01*
X60455952Y-87429819D02*
X60360714Y-87429819D01*
X61646428Y-86763152D02*
X61646428Y-87429819D01*
X61408333Y-86382200D02*
X61170238Y-87096485D01*
X61170238Y-87096485D02*
X61789285Y-87096485D01*
X60741666Y-45789819D02*
X60741666Y-46504104D01*
X60741666Y-46504104D02*
X60694047Y-46646961D01*
X60694047Y-46646961D02*
X60598809Y-46742200D01*
X60598809Y-46742200D02*
X60455952Y-46789819D01*
X60455952Y-46789819D02*
X60360714Y-46789819D01*
X61170238Y-45885057D02*
X61217857Y-45837438D01*
X61217857Y-45837438D02*
X61313095Y-45789819D01*
X61313095Y-45789819D02*
X61551190Y-45789819D01*
X61551190Y-45789819D02*
X61646428Y-45837438D01*
X61646428Y-45837438D02*
X61694047Y-45885057D01*
X61694047Y-45885057D02*
X61741666Y-45980295D01*
X61741666Y-45980295D02*
X61741666Y-46075533D01*
X61741666Y-46075533D02*
X61694047Y-46218390D01*
X61694047Y-46218390D02*
X61122619Y-46789819D01*
X61122619Y-46789819D02*
X61741666Y-46789819D01*
X60265476Y-66109819D02*
X60265476Y-66824104D01*
X60265476Y-66824104D02*
X60217857Y-66966961D01*
X60217857Y-66966961D02*
X60122619Y-67062200D01*
X60122619Y-67062200D02*
X59979762Y-67109819D01*
X59979762Y-67109819D02*
X59884524Y-67109819D01*
X61265476Y-67109819D02*
X60694048Y-67109819D01*
X60979762Y-67109819D02*
X60979762Y-66109819D01*
X60979762Y-66109819D02*
X60884524Y-66252676D01*
X60884524Y-66252676D02*
X60789286Y-66347914D01*
X60789286Y-66347914D02*
X60694048Y-66395533D01*
X61646429Y-66205057D02*
X61694048Y-66157438D01*
X61694048Y-66157438D02*
X61789286Y-66109819D01*
X61789286Y-66109819D02*
X62027381Y-66109819D01*
X62027381Y-66109819D02*
X62122619Y-66157438D01*
X62122619Y-66157438D02*
X62170238Y-66205057D01*
X62170238Y-66205057D02*
X62217857Y-66300295D01*
X62217857Y-66300295D02*
X62217857Y-66395533D01*
X62217857Y-66395533D02*
X62170238Y-66538390D01*
X62170238Y-66538390D02*
X61598810Y-67109819D01*
X61598810Y-67109819D02*
X62217857Y-67109819D01*
X60741666Y-106749819D02*
X60741666Y-107464104D01*
X60741666Y-107464104D02*
X60694047Y-107606961D01*
X60694047Y-107606961D02*
X60598809Y-107702200D01*
X60598809Y-107702200D02*
X60455952Y-107749819D01*
X60455952Y-107749819D02*
X60360714Y-107749819D01*
X61694047Y-106749819D02*
X61217857Y-106749819D01*
X61217857Y-106749819D02*
X61170238Y-107226009D01*
X61170238Y-107226009D02*
X61217857Y-107178390D01*
X61217857Y-107178390D02*
X61313095Y-107130771D01*
X61313095Y-107130771D02*
X61551190Y-107130771D01*
X61551190Y-107130771D02*
X61646428Y-107178390D01*
X61646428Y-107178390D02*
X61694047Y-107226009D01*
X61694047Y-107226009D02*
X61741666Y-107321247D01*
X61741666Y-107321247D02*
X61741666Y-107559342D01*
X61741666Y-107559342D02*
X61694047Y-107654580D01*
X61694047Y-107654580D02*
X61646428Y-107702200D01*
X61646428Y-107702200D02*
X61551190Y-107749819D01*
X61551190Y-107749819D02*
X61313095Y-107749819D01*
X61313095Y-107749819D02*
X61217857Y-107702200D01*
X61217857Y-107702200D02*
X61170238Y-107654580D01*
X60741666Y-127069819D02*
X60741666Y-127784104D01*
X60741666Y-127784104D02*
X60694047Y-127926961D01*
X60694047Y-127926961D02*
X60598809Y-128022200D01*
X60598809Y-128022200D02*
X60455952Y-128069819D01*
X60455952Y-128069819D02*
X60360714Y-128069819D01*
X61646428Y-127069819D02*
X61455952Y-127069819D01*
X61455952Y-127069819D02*
X61360714Y-127117438D01*
X61360714Y-127117438D02*
X61313095Y-127165057D01*
X61313095Y-127165057D02*
X61217857Y-127307914D01*
X61217857Y-127307914D02*
X61170238Y-127498390D01*
X61170238Y-127498390D02*
X61170238Y-127879342D01*
X61170238Y-127879342D02*
X61217857Y-127974580D01*
X61217857Y-127974580D02*
X61265476Y-128022200D01*
X61265476Y-128022200D02*
X61360714Y-128069819D01*
X61360714Y-128069819D02*
X61551190Y-128069819D01*
X61551190Y-128069819D02*
X61646428Y-128022200D01*
X61646428Y-128022200D02*
X61694047Y-127974580D01*
X61694047Y-127974580D02*
X61741666Y-127879342D01*
X61741666Y-127879342D02*
X61741666Y-127641247D01*
X61741666Y-127641247D02*
X61694047Y-127546009D01*
X61694047Y-127546009D02*
X61646428Y-127498390D01*
X61646428Y-127498390D02*
X61551190Y-127450771D01*
X61551190Y-127450771D02*
X61360714Y-127450771D01*
X61360714Y-127450771D02*
X61265476Y-127498390D01*
X61265476Y-127498390D02*
X61217857Y-127546009D01*
X61217857Y-127546009D02*
X61170238Y-127641247D01*
X60741666Y-167709819D02*
X60741666Y-168424104D01*
X60741666Y-168424104D02*
X60694047Y-168566961D01*
X60694047Y-168566961D02*
X60598809Y-168662200D01*
X60598809Y-168662200D02*
X60455952Y-168709819D01*
X60455952Y-168709819D02*
X60360714Y-168709819D01*
X61360714Y-168138390D02*
X61265476Y-168090771D01*
X61265476Y-168090771D02*
X61217857Y-168043152D01*
X61217857Y-168043152D02*
X61170238Y-167947914D01*
X61170238Y-167947914D02*
X61170238Y-167900295D01*
X61170238Y-167900295D02*
X61217857Y-167805057D01*
X61217857Y-167805057D02*
X61265476Y-167757438D01*
X61265476Y-167757438D02*
X61360714Y-167709819D01*
X61360714Y-167709819D02*
X61551190Y-167709819D01*
X61551190Y-167709819D02*
X61646428Y-167757438D01*
X61646428Y-167757438D02*
X61694047Y-167805057D01*
X61694047Y-167805057D02*
X61741666Y-167900295D01*
X61741666Y-167900295D02*
X61741666Y-167947914D01*
X61741666Y-167947914D02*
X61694047Y-168043152D01*
X61694047Y-168043152D02*
X61646428Y-168090771D01*
X61646428Y-168090771D02*
X61551190Y-168138390D01*
X61551190Y-168138390D02*
X61360714Y-168138390D01*
X61360714Y-168138390D02*
X61265476Y-168186009D01*
X61265476Y-168186009D02*
X61217857Y-168233628D01*
X61217857Y-168233628D02*
X61170238Y-168328866D01*
X61170238Y-168328866D02*
X61170238Y-168519342D01*
X61170238Y-168519342D02*
X61217857Y-168614580D01*
X61217857Y-168614580D02*
X61265476Y-168662200D01*
X61265476Y-168662200D02*
X61360714Y-168709819D01*
X61360714Y-168709819D02*
X61551190Y-168709819D01*
X61551190Y-168709819D02*
X61646428Y-168662200D01*
X61646428Y-168662200D02*
X61694047Y-168614580D01*
X61694047Y-168614580D02*
X61741666Y-168519342D01*
X61741666Y-168519342D02*
X61741666Y-168328866D01*
X61741666Y-168328866D02*
X61694047Y-168233628D01*
X61694047Y-168233628D02*
X61646428Y-168186009D01*
X61646428Y-168186009D02*
X61551190Y-168138390D01*
X60265476Y-25469819D02*
X60265476Y-26184104D01*
X60265476Y-26184104D02*
X60217857Y-26326961D01*
X60217857Y-26326961D02*
X60122619Y-26422200D01*
X60122619Y-26422200D02*
X59979762Y-26469819D01*
X59979762Y-26469819D02*
X59884524Y-26469819D01*
X61265476Y-26469819D02*
X60694048Y-26469819D01*
X60979762Y-26469819D02*
X60979762Y-25469819D01*
X60979762Y-25469819D02*
X60884524Y-25612676D01*
X60884524Y-25612676D02*
X60789286Y-25707914D01*
X60789286Y-25707914D02*
X60694048Y-25755533D01*
X62122619Y-25803152D02*
X62122619Y-26469819D01*
X61884524Y-25422200D02*
X61646429Y-26136485D01*
X61646429Y-26136485D02*
X62265476Y-26136485D01*
X60741666Y-25469819D02*
X60741666Y-26184104D01*
X60741666Y-26184104D02*
X60694047Y-26326961D01*
X60694047Y-26326961D02*
X60598809Y-26422200D01*
X60598809Y-26422200D02*
X60455952Y-26469819D01*
X60455952Y-26469819D02*
X60360714Y-26469819D01*
X61741666Y-26469819D02*
X61170238Y-26469819D01*
X61455952Y-26469819D02*
X61455952Y-25469819D01*
X61455952Y-25469819D02*
X61360714Y-25612676D01*
X61360714Y-25612676D02*
X61265476Y-25707914D01*
X61265476Y-25707914D02*
X61170238Y-25755533D01*
X60265476Y-86429819D02*
X60265476Y-87144104D01*
X60265476Y-87144104D02*
X60217857Y-87286961D01*
X60217857Y-87286961D02*
X60122619Y-87382200D01*
X60122619Y-87382200D02*
X59979762Y-87429819D01*
X59979762Y-87429819D02*
X59884524Y-87429819D01*
X61265476Y-87429819D02*
X60694048Y-87429819D01*
X60979762Y-87429819D02*
X60979762Y-86429819D01*
X60979762Y-86429819D02*
X60884524Y-86572676D01*
X60884524Y-86572676D02*
X60789286Y-86667914D01*
X60789286Y-86667914D02*
X60694048Y-86715533D01*
X62217857Y-87429819D02*
X61646429Y-87429819D01*
X61932143Y-87429819D02*
X61932143Y-86429819D01*
X61932143Y-86429819D02*
X61836905Y-86572676D01*
X61836905Y-86572676D02*
X61741667Y-86667914D01*
X61741667Y-86667914D02*
X61646429Y-86715533D01*
X60741666Y-147389819D02*
X60741666Y-148104104D01*
X60741666Y-148104104D02*
X60694047Y-148246961D01*
X60694047Y-148246961D02*
X60598809Y-148342200D01*
X60598809Y-148342200D02*
X60455952Y-148389819D01*
X60455952Y-148389819D02*
X60360714Y-148389819D01*
X61122619Y-147389819D02*
X61789285Y-147389819D01*
X61789285Y-147389819D02*
X61360714Y-148389819D01*
D11*
%TO.C,J9*%
X58000000Y-128950000D02*
X147000000Y-128950000D01*
X58000000Y-132250000D02*
X58000000Y-128950000D01*
X58000000Y-137560000D02*
X58000000Y-135650000D01*
X59950000Y-137560000D02*
X58000000Y-137560000D01*
X147000000Y-128950000D02*
X147000000Y-137560000D01*
X147000000Y-137560000D02*
X144350000Y-137560000D01*
X147850000Y-135050000D02*
G75*
G02*
X147650000Y-135050000I-100000J0D01*
G01*
X147650000Y-135050000D02*
G75*
G02*
X147850000Y-135050000I100000J0D01*
G01*
%TO.C,J10*%
X58000000Y-108630000D02*
X147000000Y-108630000D01*
X58000000Y-111930000D02*
X58000000Y-108630000D01*
X58000000Y-117240000D02*
X58000000Y-115330000D01*
X59950000Y-117240000D02*
X58000000Y-117240000D01*
X147000000Y-108630000D02*
X147000000Y-117240000D01*
X147000000Y-117240000D02*
X144350000Y-117240000D01*
X147850000Y-114730000D02*
G75*
G02*
X147650000Y-114730000I-100000J0D01*
G01*
X147650000Y-114730000D02*
G75*
G02*
X147850000Y-114730000I100000J0D01*
G01*
%TO.C,J3*%
X58000000Y-67990000D02*
X147000000Y-67990000D01*
X58000000Y-71290000D02*
X58000000Y-67990000D01*
X58000000Y-76600000D02*
X58000000Y-74690000D01*
X59950000Y-76600000D02*
X58000000Y-76600000D01*
X147000000Y-67990000D02*
X147000000Y-76600000D01*
X147000000Y-76600000D02*
X144350000Y-76600000D01*
X147850000Y-74090000D02*
G75*
G02*
X147650000Y-74090000I-100000J0D01*
G01*
X147650000Y-74090000D02*
G75*
G02*
X147850000Y-74090000I100000J0D01*
G01*
%TO.C,J13*%
X58000000Y-47670000D02*
X147000000Y-47670000D01*
X58000000Y-50970000D02*
X58000000Y-47670000D01*
X58000000Y-56280000D02*
X58000000Y-54370000D01*
X59950000Y-56280000D02*
X58000000Y-56280000D01*
X147000000Y-47670000D02*
X147000000Y-56280000D01*
X147000000Y-56280000D02*
X144350000Y-56280000D01*
X147850000Y-53770000D02*
G75*
G02*
X147650000Y-53770000I-100000J0D01*
G01*
X147650000Y-53770000D02*
G75*
G02*
X147850000Y-53770000I100000J0D01*
G01*
%TO.C,J4*%
X58000000Y-88310000D02*
X147000000Y-88310000D01*
X58000000Y-91610000D02*
X58000000Y-88310000D01*
X58000000Y-96920000D02*
X58000000Y-95010000D01*
X59950000Y-96920000D02*
X58000000Y-96920000D01*
X147000000Y-88310000D02*
X147000000Y-96920000D01*
X147000000Y-96920000D02*
X144350000Y-96920000D01*
X147850000Y-94410000D02*
G75*
G02*
X147650000Y-94410000I-100000J0D01*
G01*
X147650000Y-94410000D02*
G75*
G02*
X147850000Y-94410000I100000J0D01*
G01*
%TO.C,J2*%
X58000000Y-47670000D02*
X147000000Y-47670000D01*
X58000000Y-50970000D02*
X58000000Y-47670000D01*
X58000000Y-56280000D02*
X58000000Y-54370000D01*
X59950000Y-56280000D02*
X58000000Y-56280000D01*
X147000000Y-47670000D02*
X147000000Y-56280000D01*
X147000000Y-56280000D02*
X144350000Y-56280000D01*
X147850000Y-53770000D02*
G75*
G02*
X147650000Y-53770000I-100000J0D01*
G01*
X147650000Y-53770000D02*
G75*
G02*
X147850000Y-53770000I100000J0D01*
G01*
%TO.C,J12*%
X58000000Y-67990000D02*
X147000000Y-67990000D01*
X58000000Y-71290000D02*
X58000000Y-67990000D01*
X58000000Y-76600000D02*
X58000000Y-74690000D01*
X59950000Y-76600000D02*
X58000000Y-76600000D01*
X147000000Y-67990000D02*
X147000000Y-76600000D01*
X147000000Y-76600000D02*
X144350000Y-76600000D01*
X147850000Y-74090000D02*
G75*
G02*
X147650000Y-74090000I-100000J0D01*
G01*
X147650000Y-74090000D02*
G75*
G02*
X147850000Y-74090000I100000J0D01*
G01*
%TO.C,J5*%
X58000000Y-108630000D02*
X147000000Y-108630000D01*
X58000000Y-111930000D02*
X58000000Y-108630000D01*
X58000000Y-117240000D02*
X58000000Y-115330000D01*
X59950000Y-117240000D02*
X58000000Y-117240000D01*
X147000000Y-108630000D02*
X147000000Y-117240000D01*
X147000000Y-117240000D02*
X144350000Y-117240000D01*
X147850000Y-114730000D02*
G75*
G02*
X147650000Y-114730000I-100000J0D01*
G01*
X147650000Y-114730000D02*
G75*
G02*
X147850000Y-114730000I100000J0D01*
G01*
%TO.C,J6*%
X58000000Y-128950000D02*
X147000000Y-128950000D01*
X58000000Y-132250000D02*
X58000000Y-128950000D01*
X58000000Y-137560000D02*
X58000000Y-135650000D01*
X59950000Y-137560000D02*
X58000000Y-137560000D01*
X147000000Y-128950000D02*
X147000000Y-137560000D01*
X147000000Y-137560000D02*
X144350000Y-137560000D01*
X147850000Y-135050000D02*
G75*
G02*
X147650000Y-135050000I-100000J0D01*
G01*
X147650000Y-135050000D02*
G75*
G02*
X147850000Y-135050000I100000J0D01*
G01*
%TO.C,J8*%
X58000000Y-169590000D02*
X147000000Y-169590000D01*
X58000000Y-172890000D02*
X58000000Y-169590000D01*
X58000000Y-178200000D02*
X58000000Y-176290000D01*
X59950000Y-178200000D02*
X58000000Y-178200000D01*
X147000000Y-169590000D02*
X147000000Y-178200000D01*
X147000000Y-178200000D02*
X144350000Y-178200000D01*
X147850000Y-175690000D02*
G75*
G02*
X147650000Y-175690000I-100000J0D01*
G01*
X147650000Y-175690000D02*
G75*
G02*
X147850000Y-175690000I100000J0D01*
G01*
%TO.C,J14*%
X58000000Y-27350000D02*
X147000000Y-27350000D01*
X58000000Y-30650000D02*
X58000000Y-27350000D01*
X58000000Y-35960000D02*
X58000000Y-34050000D01*
X59950000Y-35960000D02*
X58000000Y-35960000D01*
X147000000Y-27350000D02*
X147000000Y-35960000D01*
X147000000Y-35960000D02*
X144350000Y-35960000D01*
X147850000Y-33450000D02*
G75*
G02*
X147650000Y-33450000I-100000J0D01*
G01*
X147650000Y-33450000D02*
G75*
G02*
X147850000Y-33450000I100000J0D01*
G01*
%TO.C,J1*%
X58000000Y-27350000D02*
X147000000Y-27350000D01*
X58000000Y-30650000D02*
X58000000Y-27350000D01*
X58000000Y-35960000D02*
X58000000Y-34050000D01*
X59950000Y-35960000D02*
X58000000Y-35960000D01*
X147000000Y-27350000D02*
X147000000Y-35960000D01*
X147000000Y-35960000D02*
X144350000Y-35960000D01*
X147850000Y-33450000D02*
G75*
G02*
X147650000Y-33450000I-100000J0D01*
G01*
X147650000Y-33450000D02*
G75*
G02*
X147850000Y-33450000I100000J0D01*
G01*
%TO.C,J11*%
X58000000Y-88310000D02*
X147000000Y-88310000D01*
X58000000Y-91610000D02*
X58000000Y-88310000D01*
X58000000Y-96920000D02*
X58000000Y-95010000D01*
X59950000Y-96920000D02*
X58000000Y-96920000D01*
X147000000Y-88310000D02*
X147000000Y-96920000D01*
X147000000Y-96920000D02*
X144350000Y-96920000D01*
X147850000Y-94410000D02*
G75*
G02*
X147650000Y-94410000I-100000J0D01*
G01*
X147650000Y-94410000D02*
G75*
G02*
X147850000Y-94410000I100000J0D01*
G01*
%TO.C,J7*%
X58000000Y-149270000D02*
X147000000Y-149270000D01*
X58000000Y-152570000D02*
X58000000Y-149270000D01*
X58000000Y-157880000D02*
X58000000Y-155970000D01*
X59950000Y-157880000D02*
X58000000Y-157880000D01*
X147000000Y-149270000D02*
X147000000Y-157880000D01*
X147000000Y-157880000D02*
X144350000Y-157880000D01*
X147850000Y-155370000D02*
G75*
G02*
X147650000Y-155370000I-100000J0D01*
G01*
X147650000Y-155370000D02*
G75*
G02*
X147850000Y-155370000I100000J0D01*
G01*
%TD*%
M02*
