M48
; DRILL file {KiCad 8.0.0} date 2024-11-27T22:09:35-0600
; FORMAT={-:-/ absolute / inch / decimal}
; #@! TF.CreationDate,2024-11-27T22:09:35-06:00
; #@! TF.GenerationSoftware,Kicad,Pcbnew,8.0.0
; #@! TF.FileFunction,NonPlated,1,4,NPTH
FMAT,2
INCH
; #@! TA.AperFunction,NonPlated,NPTH,ComponentDrill
T1C0.0925
%
G90
G05
T1
X2.3425Y-1.2697
X2.3425Y-1.2697
X2.3425Y-2.0697
X2.3425Y-2.0697
X2.3425Y-2.8697
X2.3425Y-2.8697
X2.3425Y-3.6697
X2.3425Y-3.6697
X2.3425Y-4.4697
X2.3425Y-4.4697
X2.3425Y-5.2697
X2.3425Y-5.2697
X2.3425Y-6.0697
X2.3425Y-6.8697
X5.2224Y-1.2697
X5.2224Y-1.2697
X5.2224Y-2.0697
X5.2224Y-2.0697
X5.2224Y-2.8697
X5.2224Y-2.8697
X5.2224Y-3.6697
X5.2224Y-3.6697
X5.2224Y-4.4697
X5.2224Y-4.4697
X5.2224Y-5.2697
X5.2224Y-5.2697
X5.2224Y-6.0697
X5.2224Y-6.8697
M30
